<?xml version="1.0" encoding="UTF-8" standalone="no"?>
<!-- Created with Inkscape (http://www.inkscape.org/) -->

<svg
   xmlns:dc="http://purl.org/dc/elements/1.1/"
   xmlns:cc="http://creativecommons.org/ns#"
   xmlns:rdf="http://www.w3.org/1999/02/22-rdf-syntax-ns#"
   xmlns:svg="http://www.w3.org/2000/svg"
   xmlns="http://www.w3.org/2000/svg"
   xmlns:sodipodi="http://sodipodi.sourceforge.net/DTD/sodipodi-0.dtd"
   xmlns:inkscape="http://www.inkscape.org/namespaces/inkscape"
   version="1.1"
   id="svg84710"
   xml:space="preserve"
   width="143.84248"
   height="186.39978"
   viewBox="0 0 143.84248 186.39978"
   sodipodi:docname="abcd_graph.svg"
   inkscape:version="0.92.3 (2405546, 2018-03-11)"><metadata
     id="metadata84716"><rdf:RDF><cc:Work
         rdf:about=""><dc:format>image/svg+xml</dc:format><dc:type
           rdf:resource="http://purl.org/dc/dcmitype/StillImage" /><dc:title></dc:title></cc:Work></rdf:RDF></metadata><defs
     id="defs84714" /><sodipodi:namedview
     pagecolor="#ffffff"
     bordercolor="#666666"
     borderopacity="1"
     objecttolerance="10"
     gridtolerance="10"
     guidetolerance="10"
     inkscape:pageopacity="0"
     inkscape:pageshadow="2"
     inkscape:window-width="909"
     inkscape:window-height="480"
     id="namedview84712"
     showgrid="false"
     inkscape:zoom="1.2660959"
     inkscape:cx="71.921242"
     inkscape:cy="93.19989"
     inkscape:window-x="0"
     inkscape:window-y="0"
     inkscape:window-maximized="0"
     inkscape:current-layer="g84718" /><g
     id="g84718"
     inkscape:groupmode="layer"
     inkscape:label="abcd_graph"
     transform="matrix(1.3333333,0,0,-1.3333333,0,186.39978)"><g
       id="g84720"><g
         id="g84722"
         transform="matrix(1,0,0,-1,0,139.79983)"><path
           d="m 36.121,18.301 c 0,-9.84 7.981,-17.821 17.82,-17.821 9.84,0 17.821,7.981 17.821,17.821 0,9.84 -7.981,17.82 -17.821,17.82 -9.839,0 -17.82,-7.98 -17.82,-17.82 z"
           style="fill:#ffffff;fill-opacity:1;fill-rule:evenodd;stroke:#000000;stroke-width:0.95999998;stroke-linecap:butt;stroke-linejoin:miter;stroke-miterlimit:10;stroke-dasharray:none;stroke-opacity:1"
           id="path84724"
           inkscape:connector-curvature="0" /></g><path
         d="m 58.805,116.042 c 0.039,-0.125 0.062,-0.23 0.062,-0.312 0.008,-0.075 -0.012,-0.133 -0.062,-0.172 -0.043,-0.043 -0.121,-0.067 -0.235,-0.078 -0.105,-0.008 -0.246,-0.016 -0.422,-0.016 -0.187,0 -0.339,0.008 -0.453,0.016 -0.105,0 -0.183,0.011 -0.234,0.031 -0.055,0.019 -0.094,0.047 -0.125,0.078 -0.023,0.039 -0.047,0.086 -0.078,0.141 l -0.969,2.765 h -4.734 l -0.922,-2.734 c -0.024,-0.055 -0.047,-0.102 -0.078,-0.141 -0.032,-0.031 -0.075,-0.062 -0.125,-0.094 -0.055,-0.019 -0.133,-0.035 -0.235,-0.046 -0.105,-0.008 -0.242,-0.016 -0.406,-0.016 -0.168,0 -0.309,0.008 -0.422,0.016 -0.105,0.011 -0.179,0.035 -0.219,0.078 -0.043,0.039 -0.062,0.101 -0.062,0.187 0,0.082 0.023,0.188 0.078,0.313 l 3.813,10.562 c 0.019,0.063 0.046,0.113 0.078,0.156 0.039,0.039 0.097,0.071 0.172,0.094 0.082,0.031 0.175,0.047 0.281,0.047 0.113,0.008 0.258,0.016 0.437,0.016 0.188,0 0.344,-0.008 0.469,-0.016 0.125,0 0.223,-0.016 0.297,-0.047 0.082,-0.023 0.141,-0.055 0.172,-0.094 0.039,-0.043 0.078,-0.101 0.109,-0.171 z m -4.891,9.328 h -0.016 l -1.953,-5.672 h 3.953 z"
         style="fill:#000000;fill-opacity:1;fill-rule:nonzero;stroke:none"
         id="path84726"
         inkscape:connector-curvature="0" /><g
         id="g84728"
         transform="matrix(1,0,0,-1,0,139.79983)"><path
           d="m 0.48,69.902 c 0,-9.839 7.981,-17.82 17.821,-17.82 9.84,0 17.82,7.981 17.82,17.82 0,9.84 -7.98,17.817 -17.82,17.817 -9.84,0 -17.821,-7.977 -17.821,-17.817 z"
           style="fill:#ffffff;fill-opacity:1;fill-rule:evenodd;stroke:#000000;stroke-width:0.95999998;stroke-linecap:butt;stroke-linejoin:miter;stroke-miterlimit:10;stroke-dasharray:none;stroke-opacity:1"
           id="path84730"
           inkscape:connector-curvature="0" /></g><path
         d="m 22.508,67.124 c 0,-0.367 -0.047,-0.699 -0.141,-1 C 22.273,65.819 22.141,65.55 21.977,65.312 21.82,65.069 21.621,64.858 21.383,64.671 21.152,64.491 20.891,64.343 20.602,64.218 20.32,64.101 20.012,64.015 19.68,63.952 19.344,63.89 18.965,63.858 18.539,63.858 H 15.57 c -0.136,0 -0.265,0.039 -0.39,0.125 -0.117,0.094 -0.172,0.254 -0.172,0.485 v 10.156 c 0,0.219 0.055,0.375 0.172,0.469 0.125,0.094 0.254,0.14 0.39,0.14 h 2.578 c 0.676,0 1.235,-0.07 1.672,-0.203 0.438,-0.125 0.797,-0.312 1.078,-0.562 0.29,-0.242 0.508,-0.543 0.657,-0.906 0.144,-0.356 0.218,-0.758 0.218,-1.204 0,-0.273 -0.031,-0.531 -0.093,-0.781 -0.063,-0.242 -0.157,-0.465 -0.282,-0.672 -0.125,-0.211 -0.289,-0.398 -0.484,-0.562 -0.187,-0.168 -0.402,-0.305 -0.641,-0.406 0.313,-0.055 0.598,-0.157 0.86,-0.313 0.269,-0.156 0.504,-0.355 0.703,-0.594 0.207,-0.242 0.367,-0.523 0.484,-0.843 0.125,-0.325 0.188,-0.68 0.188,-1.063 z m -2.281,5.078 c 0,0.281 -0.043,0.531 -0.125,0.75 -0.075,0.227 -0.196,0.414 -0.36,0.563 -0.156,0.156 -0.371,0.273 -0.64,0.359 -0.262,0.082 -0.606,0.125 -1.032,0.125 h -1.578 v -3.687 h 1.735 c 0.382,0 0.695,0.05 0.937,0.156 0.238,0.101 0.438,0.238 0.594,0.406 0.164,0.176 0.285,0.379 0.359,0.609 0.071,0.239 0.11,0.477 0.11,0.719 z m 0.687,-5.172 c 0,0.344 -0.059,0.641 -0.172,0.891 -0.105,0.258 -0.262,0.476 -0.469,0.656 -0.21,0.176 -0.468,0.305 -0.781,0.391 -0.312,0.094 -0.711,0.14 -1.187,0.14 h -1.813 v -4 h 2.203 c 0.344,0 0.645,0.039 0.907,0.125 0.257,0.082 0.484,0.204 0.671,0.36 0.196,0.164 0.352,0.367 0.469,0.609 0.113,0.238 0.172,0.516 0.172,0.828 z"
         style="fill:#000000;fill-opacity:1;fill-rule:nonzero;stroke:none"
         id="path84732"
         inkscape:connector-curvature="0" /><g
         id="g84734"
         transform="matrix(1,0,0,-1,0,139.79983)"><path
           d="m 71.762,69.902 c 0,-9.839 7.98,-17.82 17.82,-17.82 9.84,0 17.82,7.981 17.82,17.82 0,9.84 -7.98,17.817 -17.82,17.817 -9.84,0 -17.82,-7.977 -17.82,-17.817 z"
           style="fill:#ffffff;fill-opacity:1;fill-rule:evenodd;stroke:#000000;stroke-width:0.95999998;stroke-linecap:butt;stroke-linejoin:miter;stroke-miterlimit:10;stroke-dasharray:none;stroke-opacity:1"
           id="path84736"
           inkscape:connector-curvature="0" /></g><path
         d="m 94,65.468 c 0,-0.094 -0.008,-0.18 -0.016,-0.25 0,-0.074 -0.011,-0.137 -0.031,-0.188 -0.012,-0.054 -0.031,-0.101 -0.062,-0.14 -0.024,-0.043 -0.063,-0.094 -0.125,-0.157 -0.055,-0.054 -0.172,-0.14 -0.36,-0.265 -0.187,-0.117 -0.422,-0.231 -0.703,-0.344 -0.273,-0.117 -0.59,-0.211 -0.953,-0.281 -0.367,-0.082 -0.762,-0.125 -1.187,-0.125 -0.731,0 -1.399,0.121 -2,0.359 -0.594,0.25 -1.102,0.613 -1.516,1.094 -0.418,0.488 -0.742,1.082 -0.969,1.781 -0.219,0.707 -0.328,1.52 -0.328,2.438 0,0.945 0.117,1.789 0.359,2.531 0.239,0.738 0.579,1.363 1.016,1.875 0.445,0.508 0.973,0.898 1.578,1.172 0.613,0.269 1.297,0.406 2.047,0.406 0.32,0 0.641,-0.031 0.953,-0.094 0.313,-0.062 0.598,-0.14 0.86,-0.234 0.257,-0.094 0.492,-0.203 0.703,-0.328 0.207,-0.125 0.347,-0.231 0.422,-0.313 0.082,-0.074 0.132,-0.133 0.156,-0.172 0.019,-0.043 0.035,-0.089 0.047,-0.14 0.019,-0.055 0.035,-0.121 0.047,-0.203 0.007,-0.075 0.015,-0.164 0.015,-0.266 0,-0.117 -0.008,-0.215 -0.015,-0.297 -0.012,-0.086 -0.032,-0.156 -0.063,-0.219 -0.023,-0.054 -0.047,-0.093 -0.078,-0.125 -0.031,-0.023 -0.07,-0.031 -0.109,-0.031 -0.086,0 -0.2,0.055 -0.344,0.172 -0.149,0.113 -0.34,0.238 -0.578,0.375 -0.231,0.145 -0.512,0.273 -0.844,0.391 -0.324,0.113 -0.719,0.172 -1.188,0.172 -0.5,0 -0.961,-0.106 -1.375,-0.313 -0.418,-0.199 -0.773,-0.496 -1.062,-0.891 -0.293,-0.398 -0.524,-0.875 -0.688,-1.437 -0.156,-0.563 -0.234,-1.211 -0.234,-1.938 0,-0.718 0.078,-1.355 0.234,-1.906 0.157,-0.555 0.379,-1.015 0.672,-1.39 0.289,-0.375 0.645,-0.657 1.063,-0.844 0.426,-0.188 0.906,-0.281 1.437,-0.281 0.446,0 0.836,0.05 1.172,0.156 0.344,0.113 0.629,0.238 0.86,0.375 0.238,0.133 0.437,0.258 0.593,0.375 0.157,0.113 0.274,0.172 0.36,0.172 0.039,0 0.078,-0.012 0.109,-0.032 0.031,-0.023 0.051,-0.058 0.063,-0.109 0.019,-0.043 0.035,-0.109 0.046,-0.203 C 93.992,65.71 94,65.601 94,65.468 Z"
         style="fill:#000000;fill-opacity:1;fill-rule:nonzero;stroke:none"
         id="path84738"
         inkscape:connector-curvature="0" /><g
         id="g84740"
         transform="matrix(1,0,0,-1,0,139.79983)"><path
           d="m 36.121,121.5 c 0,-9.84 7.981,-17.82 17.82,-17.82 9.84,0 17.821,7.98 17.821,17.82 0,9.84 -7.981,17.82 -17.821,17.82 -9.839,0 -17.82,-7.98 -17.82,-17.82 z"
           style="fill:#ffffff;fill-opacity:1;fill-rule:evenodd;stroke:#000000;stroke-width:0.95999998;stroke-linecap:butt;stroke-linejoin:miter;stroke-miterlimit:10;stroke-dasharray:none;stroke-opacity:1"
           id="path84742"
           inkscape:connector-curvature="0" /></g><path
         d="m 58.711,18.077 c 0,-0.992 -0.125,-1.855 -0.375,-2.594 -0.25,-0.73 -0.621,-1.339 -1.109,-1.828 -0.481,-0.48 -1.075,-0.84 -1.782,-1.078 -0.699,-0.242 -1.531,-0.359 -2.5,-0.359 h -2.406 c -0.137,0 -0.266,0.039 -0.391,0.125 -0.117,0.094 -0.171,0.254 -0.171,0.484 v 10.156 c 0,0.219 0.054,0.375 0.171,0.469 0.125,0.094 0.254,0.141 0.391,0.141 h 2.578 c 0.977,0 1.805,-0.133 2.485,-0.391 0.687,-0.25 1.257,-0.617 1.718,-1.094 0.457,-0.48 0.801,-1.058 1.032,-1.734 0.238,-0.68 0.359,-1.445 0.359,-2.297 z m -1.578,-0.062 c 0,0.613 -0.078,1.187 -0.235,1.718 -0.156,0.532 -0.398,0.989 -0.718,1.375 -0.325,0.383 -0.735,0.68 -1.235,0.891 -0.5,0.219 -1.14,0.328 -1.922,0.328 h -1.531 v -8.844 h 1.547 c 0.727,0 1.336,0.086 1.828,0.266 0.5,0.188 0.914,0.469 1.25,0.844 0.344,0.375 0.598,0.844 0.766,1.406 0.164,0.563 0.25,1.234 0.25,2.016 z"
         style="fill:#000000;fill-opacity:1;fill-rule:nonzero;stroke:none"
         id="path84744"
         inkscape:connector-curvature="0" /><path
         d="m 41.063,109.331 -19.36,-17.832 0.68,-0.738 19.359,17.828 z m -20.321,-15.32 -2.379,-6.274 6.45,1.864 z"
         style="fill:#5999d4;fill-opacity:1;fill-rule:nonzero;stroke:none"
         id="path84746"
         inkscape:connector-curvature="0" /><path
         d="m 66.941,109.331 19.36,-17.832 -0.68,-0.738 -19.359,17.828 z m 20.321,-15.32 2.379,-6.274 -6.45,1.864 z"
         style="fill:#5999d4;fill-opacity:1;fill-rule:nonzero;stroke:none"
         id="path84748"
         inkscape:connector-curvature="0" /><path
         d="M 18.703,52.448 38.063,34.62 37.383,33.878 18.023,51.71 Z m 20.32,-15.32 2.379,-6.27 -6.449,1.86 z"
         style="fill:#5999d4;fill-opacity:1;fill-rule:nonzero;stroke:none"
         id="path84750"
         inkscape:connector-curvature="0" /><path
         d="M 89.301,52.448 69.941,34.62 70.621,33.878 89.98,51.71 Z m -20.321,-15.32 -2.378,-6.27 6.449,1.86 z"
         style="fill:#5999d4;fill-opacity:1;fill-rule:nonzero;stroke:none"
         id="path84752"
         inkscape:connector-curvature="0" /></g></g></svg>