<?xml version="1.0" encoding="UTF-8" standalone="no"?>
<!-- Created with Inkscape (http://www.inkscape.org/) -->

<svg
   xmlns:dc="http://purl.org/dc/elements/1.1/"
   xmlns:cc="http://creativecommons.org/ns#"
   xmlns:rdf="http://www.w3.org/1999/02/22-rdf-syntax-ns#"
   xmlns:svg="http://www.w3.org/2000/svg"
   xmlns="http://www.w3.org/2000/svg"
   xmlns:sodipodi="http://sodipodi.sourceforge.net/DTD/sodipodi-0.dtd"
   xmlns:inkscape="http://www.inkscape.org/namespaces/inkscape"
   version="1.1"
   id="svg89229"
   xml:space="preserve"
   width="616.64325"
   height="244.99731"
   viewBox="0 0 616.64325 244.99731"
   sodipodi:docname="gaussian_linear_transform.svg"
   inkscape:version="0.92.3 (2405546, 2018-03-11)"><metadata
     id="metadata89235"><rdf:RDF><cc:Work
         rdf:about=""><dc:format>image/svg+xml</dc:format><dc:type
           rdf:resource="http://purl.org/dc/dcmitype/StillImage" /><dc:title></dc:title></cc:Work></rdf:RDF></metadata><defs
     id="defs89233"><clipPath
       clipPathUnits="userSpaceOnUse"
       id="clipPath89253"><path
         d="m 304.727,100.377 h 6.773 v -6.578 h -6.773 z"
         id="path89251"
         inkscape:connector-curvature="0" /></clipPath><clipPath
       clipPathUnits="userSpaceOnUse"
       id="clipPath89263"><path
         d="m 305,94 h 7 v 7 h -7 z"
         id="path89261"
         inkscape:connector-curvature="0" /></clipPath><clipPath
       clipPathUnits="userSpaceOnUse"
       id="clipPath89275"><path
         d="m 304.727,100.799 h 7 v -7 h -7 z"
         id="path89273"
         inkscape:connector-curvature="0" /></clipPath><clipPath
       clipPathUnits="userSpaceOnUse"
       id="clipPath89285"><path
         d="m 304,94 h 8 v 8 h -8 z"
         id="path89283"
         inkscape:connector-curvature="0" /></clipPath><clipPath
       clipPathUnits="userSpaceOnUse"
       id="clipPath89297"><path
         d="m 355.5,100.377 h 6.953 V 93.799 H 355.5 Z"
         id="path89295"
         inkscape:connector-curvature="0" /></clipPath><clipPath
       clipPathUnits="userSpaceOnUse"
       id="clipPath89307"><path
         d="m 355,94 h 7 v 7 h -7 z"
         id="path89305"
         inkscape:connector-curvature="0" /></clipPath><clipPath
       clipPathUnits="userSpaceOnUse"
       id="clipPath89319"><path
         d="m 355.453,100.799 h 7 v -7 h -7 z"
         id="path89317"
         inkscape:connector-curvature="0" /></clipPath><clipPath
       clipPathUnits="userSpaceOnUse"
       id="clipPath89329"><path
         d="m 355,94 h 8 v 8 h -8 z"
         id="path89327"
         inkscape:connector-curvature="0" /></clipPath><clipPath
       clipPathUnits="userSpaceOnUse"
       id="clipPath89341"><path
         d="m 401.5,100.377 h 6.609 V 93.799 H 401.5 Z"
         id="path89339"
         inkscape:connector-curvature="0" /></clipPath><clipPath
       clipPathUnits="userSpaceOnUse"
       id="clipPath89351"><path
         d="m 401,94 h 7 v 7 h -7 z"
         id="path89349"
         inkscape:connector-curvature="0" /></clipPath><clipPath
       clipPathUnits="userSpaceOnUse"
       id="clipPath89363"><path
         d="m 401.109,100.799 h 7 v -7 h -7 z"
         id="path89361"
         inkscape:connector-curvature="0" /></clipPath><clipPath
       clipPathUnits="userSpaceOnUse"
       id="clipPath89373"><path
         d="m 401,94 h 8 v 8 h -8 z"
         id="path89371"
         inkscape:connector-curvature="0" /></clipPath></defs><sodipodi:namedview
     pagecolor="#ffffff"
     bordercolor="#666666"
     borderopacity="1"
     objecttolerance="10"
     gridtolerance="10"
     guidetolerance="10"
     inkscape:pageopacity="0"
     inkscape:pageshadow="2"
     inkscape:window-width="1920"
     inkscape:window-height="1001"
     id="namedview89231"
     showgrid="false"
     inkscape:zoom="0.70543219"
     inkscape:cx="308.32162"
     inkscape:cy="122.49866"
     inkscape:window-x="-9"
     inkscape:window-y="-9"
     inkscape:window-maximized="1"
     inkscape:current-layer="g89237" /><g
     id="g89237"
     inkscape:groupmode="layer"
     inkscape:label="gaussian_linear_transform"
     transform="matrix(1.3333333,0,0,-1.3333333,0,244.99731)"><g
       id="g89239"><path
         d="m 101.027,134.283 59.067,16.777 V 56.197 L 101.027,39.416 Z"
         style="fill:#dcdcdc;fill-opacity:1;fill-rule:nonzero;stroke:#000000;stroke-width:0.80000001;stroke-linecap:butt;stroke-linejoin:miter;stroke-miterlimit:4;stroke-dasharray:none;stroke-opacity:1"
         id="path89241"
         inkscape:connector-curvature="0" /><path
         d="M 21.27,133.935 H 96.887 V 58.314 H 21.27 Z"
         style="fill:#ececec;fill-opacity:1;fill-rule:nonzero;stroke:#000000;stroke-width:0.80000001;stroke-linecap:butt;stroke-linejoin:miter;stroke-miterlimit:4;stroke-dasharray:none;stroke-opacity:1"
         id="path89243"
         inkscape:connector-curvature="0" /><path
         d="M 257.5,180.455 H 460.41 V 14.139 H 257.5 Z"
         style="fill:#ffffff;fill-opacity:1;fill-rule:nonzero;stroke:none"
         id="path89245"
         inkscape:connector-curvature="0" /></g><g
       id="g89247"><g
         id="g89249"
         clip-path="url(#clipPath89253)"><g
           id="g89255"
           transform="translate(0,-0.252014)"><g
             id="g89257"><g
               id="g89259"
               clip-path="url(#clipPath89263)"><g
                 id="g89265"><path
                   d="m 308.227,94.551 c 0.796,0 1.558,0.312 2.121,0.875 0.562,0.562 0.879,1.328 0.879,2.125 0,0.793 -0.317,1.558 -0.879,2.121 -0.563,0.562 -1.325,0.879 -2.121,0.879 -0.793,0 -1.559,-0.317 -2.122,-0.879 -0.562,-0.563 -0.878,-1.328 -0.878,-2.121 0,-0.797 0.316,-1.563 0.878,-2.125 0.563,-0.563 1.329,-0.875 2.122,-0.875 z"
                   style="fill:#000000;fill-opacity:1;fill-rule:nonzero;stroke:none"
                   id="path89267"
                   inkscape:connector-curvature="0" /></g></g></g></g></g></g><g
       id="g89269"><g
         id="g89271"
         clip-path="url(#clipPath89275)"><g
           id="g89277"
           transform="translate(0,-0.252014)"><g
             id="g89279"><g
               id="g89281"
               clip-path="url(#clipPath89285)"><g
                 id="g89287"><path
                   d="m 308.227,94.551 c 0.796,0 1.558,0.312 2.121,0.875 0.562,0.562 0.879,1.328 0.879,2.125 0,0.793 -0.317,1.558 -0.879,2.121 -0.563,0.562 -1.325,0.879 -2.121,0.879 -0.793,0 -1.559,-0.317 -2.122,-0.879 -0.562,-0.563 -0.878,-1.328 -0.878,-2.121 0,-0.797 0.316,-1.563 0.878,-2.125 0.563,-0.563 1.329,-0.875 2.122,-0.875 z"
                   style="fill:none;stroke:#000000;stroke-width:1;stroke-linecap:butt;stroke-linejoin:round;stroke-miterlimit:10;stroke-dasharray:none;stroke-opacity:1"
                   id="path89289"
                   inkscape:connector-curvature="0" /></g></g></g></g></g></g><g
       id="g89291"><g
         id="g89293"
         clip-path="url(#clipPath89297)"><g
           id="g89299"
           transform="translate(0,-0.252014)"><g
             id="g89301"><g
               id="g89303"
               clip-path="url(#clipPath89307)"><g
                 id="g89309"><path
                   d="m 358.953,94.551 c 0.797,0 1.559,0.312 2.121,0.875 0.563,0.562 0.879,1.328 0.879,2.125 0,0.793 -0.316,1.558 -0.879,2.121 -0.562,0.562 -1.324,0.879 -2.121,0.879 -0.793,0 -1.558,-0.317 -2.121,-0.879 -0.562,-0.563 -0.879,-1.328 -0.879,-2.121 0,-0.797 0.317,-1.563 0.879,-2.125 0.563,-0.563 1.328,-0.875 2.121,-0.875 z"
                   style="fill:#000000;fill-opacity:1;fill-rule:nonzero;stroke:none"
                   id="path89311"
                   inkscape:connector-curvature="0" /></g></g></g></g></g></g><g
       id="g89313"><g
         id="g89315"
         clip-path="url(#clipPath89319)"><g
           id="g89321"
           transform="translate(0,-0.252014)"><g
             id="g89323"><g
               id="g89325"
               clip-path="url(#clipPath89329)"><g
                 id="g89331"><path
                   d="m 358.953,94.551 c 0.797,0 1.559,0.312 2.121,0.875 0.563,0.562 0.879,1.328 0.879,2.125 0,0.793 -0.316,1.558 -0.879,2.121 -0.562,0.562 -1.324,0.879 -2.121,0.879 -0.793,0 -1.558,-0.317 -2.121,-0.879 -0.562,-0.563 -0.879,-1.328 -0.879,-2.121 0,-0.797 0.317,-1.563 0.879,-2.125 0.563,-0.563 1.328,-0.875 2.121,-0.875 z"
                   style="fill:none;stroke:#000000;stroke-width:1;stroke-linecap:butt;stroke-linejoin:round;stroke-miterlimit:10;stroke-dasharray:none;stroke-opacity:1"
                   id="path89333"
                   inkscape:connector-curvature="0" /></g></g></g></g></g></g><g
       id="g89335"><g
         id="g89337"
         clip-path="url(#clipPath89341)"><g
           id="g89343"
           transform="translate(0,-0.252014)"><g
             id="g89345"><g
               id="g89347"
               clip-path="url(#clipPath89351)"><g
                 id="g89353"><path
                   d="m 404.609,94.551 c 0.797,0 1.559,0.312 2.121,0.875 0.563,0.562 0.879,1.328 0.879,2.125 0,0.793 -0.316,1.558 -0.879,2.121 -0.562,0.562 -1.324,0.879 -2.121,0.879 -0.796,0 -1.558,-0.317 -2.121,-0.879 -0.562,-0.563 -0.879,-1.328 -0.879,-2.121 0,-0.797 0.317,-1.563 0.879,-2.125 0.563,-0.563 1.325,-0.875 2.121,-0.875 z"
                   style="fill:#000000;fill-opacity:1;fill-rule:nonzero;stroke:none"
                   id="path89355"
                   inkscape:connector-curvature="0" /></g></g></g></g></g></g><g
       id="g89357"><g
         id="g89359"
         clip-path="url(#clipPath89363)"><g
           id="g89365"
           transform="translate(0,-0.252014)"><g
             id="g89367"><g
               id="g89369"
               clip-path="url(#clipPath89373)"><g
                 id="g89375"><path
                   d="m 404.609,94.551 c 0.797,0 1.559,0.312 2.121,0.875 0.563,0.562 0.879,1.328 0.879,2.125 0,0.793 -0.316,1.558 -0.879,2.121 -0.562,0.562 -1.324,0.879 -2.121,0.879 -0.796,0 -1.558,-0.317 -2.121,-0.879 -0.562,-0.563 -0.879,-1.328 -0.879,-2.121 0,-0.797 0.317,-1.563 0.879,-2.125 0.563,-0.563 1.325,-0.875 2.121,-0.875 z"
                   style="fill:none;stroke:#000000;stroke-width:1;stroke-linecap:butt;stroke-linejoin:round;stroke-miterlimit:10;stroke-dasharray:none;stroke-opacity:1"
                   id="path89377"
                   inkscape:connector-curvature="0" /></g></g></g></g></g></g><g
       id="g89379"><path
         d="m 257.5,14.139 v -3.5"
         style="fill:none;stroke:#000000;stroke-width:0.80000001;stroke-linecap:butt;stroke-linejoin:round;stroke-miterlimit:10;stroke-dasharray:none;stroke-opacity:1"
         id="path89381"
         inkscape:connector-curvature="0" /><path
         d="m 257.699,2.518 c 0.172,0 0.36,0 0.36,0.203 0,0.187 -0.188,0.187 -0.36,0.187 h -5.39 c -0.172,0 -0.344,0 -0.344,-0.187 0,-0.203 0.172,-0.203 0.344,-0.203 z"
         style="fill:#000000;fill-opacity:1;fill-rule:nonzero;stroke:none"
         id="path89383"
         inkscape:connector-curvature="0" /><path
         d="m 260.152,0.986 1.063,1.032 c 1.547,1.375 2.14,1.906 2.14,2.906 0,1.14 -0.89,1.937 -2.109,1.937 -1.125,0 -1.859,-0.922 -1.859,-1.812 0,-0.547 0.5,-0.547 0.531,-0.547 0.172,0 0.516,0.109 0.516,0.531 0,0.25 -0.188,0.516 -0.532,0.516 -0.078,0 -0.093,0 -0.125,-0.016 0.219,0.656 0.766,1.016 1.344,1.016 0.906,0 1.328,-0.813 1.328,-1.625 0,-0.797 -0.484,-1.578 -1.047,-2.203 l -1.906,-2.125 c -0.109,-0.11 -0.109,-0.141 -0.109,-0.375 h 3.703 l 0.265,1.734 h -0.234 c -0.062,-0.297 -0.125,-0.734 -0.234,-0.891 -0.063,-0.078 -0.719,-0.078 -0.938,-0.078 z"
         style="fill:#000000;fill-opacity:1;fill-rule:nonzero;stroke:none"
         id="path89385"
         inkscape:connector-curvature="0" /><path
         d="m 308.227,14.139 v -3.5"
         style="fill:none;stroke:#000000;stroke-width:0.80000001;stroke-linecap:butt;stroke-linejoin:round;stroke-miterlimit:10;stroke-dasharray:none;stroke-opacity:1"
         id="path89387"
         inkscape:connector-curvature="0" /><path
         d="m 310.316,3.408 c 0,0.797 -0.046,1.594 -0.39,2.328 -0.453,0.969 -1.281,1.125 -1.688,1.125 -0.609,0 -1.328,-0.265 -1.75,-1.187 -0.312,-0.688 -0.359,-1.469 -0.359,-2.266 0,-0.75 0.031,-1.64 0.453,-2.406 0.422,-0.797 1.156,-1 1.641,-1 0.531,0 1.297,0.203 1.734,1.156 0.313,0.688 0.359,1.469 0.359,2.25 z m -2.093,-3.187 c -0.391,0 -0.985,0.25 -1.157,1.203 -0.109,0.594 -0.109,1.515 -0.109,2.109 0,0.641 0,1.297 0.078,1.828 0.188,1.188 0.938,1.282 1.188,1.282 0.328,0 0.984,-0.188 1.172,-1.172 0.109,-0.563 0.109,-1.313 0.109,-1.938 0,-0.75 0,-1.422 -0.109,-2.062 -0.157,-0.953 -0.719,-1.25 -1.172,-1.25 z"
         style="fill:#000000;fill-opacity:1;fill-rule:nonzero;stroke:none"
         id="path89389"
         inkscape:connector-curvature="0" /><path
         d="m 358.953,14.139 v -3.5"
         style="fill:none;stroke:#000000;stroke-width:0.80000001;stroke-linecap:butt;stroke-linejoin:round;stroke-miterlimit:10;stroke-dasharray:none;stroke-opacity:1"
         id="path89391"
         inkscape:connector-curvature="0" /><path
         d="m 357.73,0.986 1.063,1.032 c 1.547,1.375 2.141,1.906 2.141,2.906 0,1.14 -0.891,1.937 -2.11,1.937 -1.125,0 -1.859,-0.922 -1.859,-1.812 0,-0.547 0.5,-0.547 0.531,-0.547 0.172,0 0.516,0.109 0.516,0.531 0,0.25 -0.188,0.516 -0.532,0.516 -0.078,0 -0.093,0 -0.125,-0.016 0.219,0.656 0.766,1.016 1.344,1.016 0.906,0 1.328,-0.813 1.328,-1.625 0,-0.797 -0.484,-1.578 -1.047,-2.203 l -1.906,-2.125 c -0.109,-0.11 -0.109,-0.141 -0.109,-0.375 h 3.703 l 0.266,1.734 h -0.235 c -0.062,-0.297 -0.125,-0.734 -0.234,-0.891 -0.063,-0.078 -0.719,-0.078 -0.938,-0.078 z"
         style="fill:#000000;fill-opacity:1;fill-rule:nonzero;stroke:none"
         id="path89393"
         inkscape:connector-curvature="0" /><path
         d="m 409.684,14.139 v -3.5"
         style="fill:none;stroke:#000000;stroke-width:0.80000001;stroke-linecap:butt;stroke-linejoin:round;stroke-miterlimit:10;stroke-dasharray:none;stroke-opacity:1"
         id="path89395"
         inkscape:connector-curvature="0" /><path
         d="M 410.129,1.861 V 1.002 c 0,-0.359 -0.031,-0.469 -0.766,-0.469 H 409.16 V 0.221 c 0.406,0.031 0.922,0.031 1.344,0.031 0.422,0 0.937,0 1.359,-0.031 v 0.312 h -0.218 c -0.735,0 -0.75,0.11 -0.75,0.469 v 0.859 h 0.984 v 0.313 h -0.984 v 4.531 c 0,0.203 0,0.266 -0.172,0.266 -0.078,0 -0.11,0 -0.188,-0.125 L 407.473,2.174 V 1.861 Z m 0.047,0.313 h -2.422 l 2.422,3.719 z"
         style="fill:#000000;fill-opacity:1;fill-rule:nonzero;stroke:none"
         id="path89397"
         inkscape:connector-curvature="0" /><path
         d="m 460.41,14.139 v -3.5"
         style="fill:none;stroke:#000000;stroke-width:0.80000001;stroke-linecap:butt;stroke-linejoin:round;stroke-miterlimit:10;stroke-dasharray:none;stroke-opacity:1"
         id="path89399"
         inkscape:connector-curvature="0" /><path
         d="m 459.234,3.486 v 0.25 c 0,2.516 1.235,2.875 1.75,2.875 0.235,0 0.657,-0.062 0.875,-0.406 -0.156,0 -0.546,0 -0.546,-0.437 0,-0.313 0.234,-0.469 0.453,-0.469 0.156,0 0.468,0.094 0.468,0.484 0,0.594 -0.437,1.078 -1.265,1.078 -1.281,0 -2.625,-1.281 -2.625,-3.484 0,-2.672 1.156,-3.375 2.078,-3.375 1.109,0 2.062,0.937 2.062,2.25 0,1.266 -0.89,2.219 -2,2.219 -0.671,0 -1.046,-0.5 -1.25,-0.985 z m 1.188,-3.203 c -0.625,0 -0.922,0.594 -0.984,0.75 -0.188,0.469 -0.188,1.266 -0.188,1.438 0,0.781 0.328,1.781 1.219,1.781 0.172,0 0.625,0 0.937,-0.625 0.172,-0.359 0.172,-0.875 0.172,-1.359 0,-0.485 0,-0.985 -0.172,-1.344 -0.297,-0.594 -0.75,-0.641 -0.984,-0.641 z"
         style="fill:#000000;fill-opacity:1;fill-rule:nonzero;stroke:none"
         id="path89401"
         inkscape:connector-curvature="0" /><path
         d="M 257.5,14.139 H 254"
         style="fill:none;stroke:#000000;stroke-width:0.80000001;stroke-linecap:butt;stroke-linejoin:round;stroke-miterlimit:10;stroke-dasharray:none;stroke-opacity:1"
         id="path89403"
         inkscape:connector-curvature="0" /><path
         d="m 244.332,12.975 c 0.172,0 0.359,0 0.359,0.203 0,0.187 -0.187,0.187 -0.359,0.187 h -5.391 c -0.171,0 -0.343,0 -0.343,-0.187 0,-0.203 0.172,-0.203 0.343,-0.203 z"
         style="fill:#000000;fill-opacity:1;fill-rule:nonzero;stroke:none"
         id="path89405"
         inkscape:connector-curvature="0" /><path
         d="m 248.457,12.318 v -0.859 c 0,-0.359 -0.031,-0.469 -0.766,-0.469 h -0.203 v -0.312 c 0.407,0.031 0.922,0.031 1.344,0.031 0.422,0 0.938,0 1.359,-0.031 v 0.312 h -0.218 c -0.735,0 -0.75,0.11 -0.75,0.469 v 0.859 h 0.984 v 0.313 h -0.984 v 4.531 c 0,0.203 0,0.266 -0.172,0.266 -0.078,0 -0.11,0 -0.188,-0.125 l -3.062,-4.672 v -0.313 z m 0.047,0.313 h -2.422 l 2.422,3.719 z"
         style="fill:#000000;fill-opacity:1;fill-rule:nonzero;stroke:none"
         id="path89407"
         inkscape:connector-curvature="0" /><path
         d="M 257.5,34.928 H 254"
         style="fill:none;stroke:#000000;stroke-width:0.80000001;stroke-linecap:butt;stroke-linejoin:round;stroke-miterlimit:10;stroke-dasharray:none;stroke-opacity:1"
         id="path89409"
         inkscape:connector-curvature="0" /><path
         d="m 244.332,33.764 c 0.172,0 0.359,0 0.359,0.203 0,0.187 -0.187,0.187 -0.359,0.187 h -5.391 c -0.171,0 -0.343,0 -0.343,-0.187 0,-0.203 0.172,-0.203 0.343,-0.203 z"
         style="fill:#000000;fill-opacity:1;fill-rule:nonzero;stroke:none"
         id="path89411"
         inkscape:connector-curvature="0" /><path
         d="m 248.41,34.982 c 0.813,0.266 1.391,0.953 1.391,1.75 0,0.813 -0.875,1.375 -1.828,1.375 -1,0 -1.766,-0.593 -1.766,-1.359 0,-0.328 0.219,-0.516 0.516,-0.516 0.297,0 0.5,0.219 0.5,0.516 0,0.484 -0.469,0.484 -0.61,0.484 0.297,0.5 0.953,0.625 1.313,0.625 0.422,0 0.969,-0.218 0.969,-1.109 0,-0.125 -0.032,-0.703 -0.282,-1.141 -0.297,-0.484 -0.64,-0.515 -0.89,-0.515 -0.078,-0.016 -0.313,-0.032 -0.391,-0.032 -0.078,-0.015 -0.141,-0.031 -0.141,-0.125 0,-0.109 0.063,-0.109 0.235,-0.109 h 0.437 c 0.813,0 1.188,-0.672 1.188,-1.656 0,-1.36 -0.688,-1.641 -1.125,-1.641 -0.438,0 -1.188,0.172 -1.531,0.75 0.343,-0.047 0.656,0.172 0.656,0.547 0,0.359 -0.266,0.563 -0.547,0.563 -0.25,0 -0.563,-0.141 -0.563,-0.579 0,-0.906 0.922,-1.562 2.016,-1.562 1.219,0 2.125,0.906 2.125,1.922 0,0.812 -0.641,1.594 -1.672,1.812 z"
         style="fill:#000000;fill-opacity:1;fill-rule:nonzero;stroke:none"
         id="path89413"
         inkscape:connector-curvature="0" /><path
         d="M 257.5,55.717 H 254"
         style="fill:none;stroke:#000000;stroke-width:0.80000001;stroke-linecap:butt;stroke-linejoin:round;stroke-miterlimit:10;stroke-dasharray:none;stroke-opacity:1"
         id="path89415"
         inkscape:connector-curvature="0" /><path
         d="m 244.332,54.557 c 0.172,0 0.359,0 0.359,0.203 0,0.187 -0.187,0.187 -0.359,0.187 h -5.391 c -0.171,0 -0.343,0 -0.343,-0.187 0,-0.203 0.172,-0.203 0.343,-0.203 z"
         style="fill:#000000;fill-opacity:1;fill-rule:nonzero;stroke:none"
         id="path89417"
         inkscape:connector-curvature="0" /><path
         d="m 246.785,53.025 1.063,1.032 c 1.547,1.375 2.14,1.906 2.14,2.906 0,1.14 -0.89,1.937 -2.109,1.937 -1.125,0 -1.859,-0.922 -1.859,-1.812 0,-0.547 0.5,-0.547 0.531,-0.547 0.172,0 0.515,0.109 0.515,0.531 0,0.25 -0.187,0.516 -0.531,0.516 -0.078,0 -0.094,0 -0.125,-0.016 0.219,0.656 0.766,1.016 1.344,1.016 0.906,0 1.328,-0.813 1.328,-1.625 0,-0.797 -0.484,-1.578 -1.047,-2.203 l -1.906,-2.125 c -0.109,-0.11 -0.109,-0.141 -0.109,-0.375 h 3.703 l 0.265,1.734 h -0.234 c -0.063,-0.297 -0.125,-0.734 -0.234,-0.891 -0.063,-0.078 -0.719,-0.078 -0.938,-0.078 z"
         style="fill:#000000;fill-opacity:1;fill-rule:nonzero;stroke:none"
         id="path89419"
         inkscape:connector-curvature="0" /><path
         d="M 257.5,76.506 H 254"
         style="fill:none;stroke:#000000;stroke-width:0.80000001;stroke-linecap:butt;stroke-linejoin:round;stroke-miterlimit:10;stroke-dasharray:none;stroke-opacity:1"
         id="path89421"
         inkscape:connector-curvature="0" /><path
         d="m 244.332,75.346 c 0.172,0 0.359,0 0.359,0.203 0,0.187 -0.187,0.187 -0.359,0.187 h -5.391 c -0.171,0 -0.343,0 -0.343,-0.187 0,-0.203 0.172,-0.203 0.343,-0.203 z"
         style="fill:#000000;fill-opacity:1;fill-rule:nonzero;stroke:none"
         id="path89423"
         inkscape:connector-curvature="0" /><path
         d="m 248.457,79.424 c 0,0.25 0,0.265 -0.234,0.265 -0.625,-0.64 -1.5,-0.64 -1.813,-0.64 v -0.313 c 0.203,0 0.781,0 1.297,0.266 V 73.83 c 0,-0.359 -0.031,-0.469 -0.922,-0.469 h -0.312 v -0.312 c 0.343,0.031 1.203,0.031 1.609,0.031 0.391,0 1.266,0 1.609,-0.031 v 0.312 h -0.312 c -0.906,0 -0.922,0.11 -0.922,0.469 z"
         style="fill:#000000;fill-opacity:1;fill-rule:nonzero;stroke:none"
         id="path89425"
         inkscape:connector-curvature="0" /><path
         d="M 257.5,97.299 H 254"
         style="fill:none;stroke:#000000;stroke-width:0.80000001;stroke-linecap:butt;stroke-linejoin:round;stroke-miterlimit:10;stroke-dasharray:none;stroke-opacity:1"
         id="path89427"
         inkscape:connector-curvature="0" /><path
         d="m 250.098,97.025 c 0,0.797 -0.047,1.594 -0.391,2.328 -0.453,0.969 -1.281,1.125 -1.687,1.125 -0.61,0 -1.329,-0.265 -1.75,-1.187 -0.313,-0.688 -0.36,-1.469 -0.36,-2.266 0,-0.75 0.031,-1.64 0.453,-2.406 0.422,-0.797 1.157,-1 1.641,-1 0.531,0 1.297,0.203 1.734,1.156 0.313,0.688 0.36,1.469 0.36,2.25 z m -2.094,-3.187 c -0.391,0 -0.984,0.25 -1.156,1.203 -0.11,0.594 -0.11,1.516 -0.11,2.109 0,0.641 0,1.297 0.078,1.828 0.188,1.188 0.938,1.282 1.188,1.282 0.328,0 0.984,-0.188 1.172,-1.172 0.109,-0.563 0.109,-1.313 0.109,-1.938 0,-0.75 0,-1.422 -0.109,-2.062 -0.156,-0.953 -0.719,-1.25 -1.172,-1.25 z"
         style="fill:#000000;fill-opacity:1;fill-rule:nonzero;stroke:none"
         id="path89429"
         inkscape:connector-curvature="0" /><path
         d="M 257.5,118.088 H 254"
         style="fill:none;stroke:#000000;stroke-width:0.80000001;stroke-linecap:butt;stroke-linejoin:round;stroke-miterlimit:10;stroke-dasharray:none;stroke-opacity:1"
         id="path89431"
         inkscape:connector-curvature="0" /><path
         d="m 248.457,121.002 c 0,0.25 0,0.266 -0.234,0.266 -0.625,-0.641 -1.5,-0.641 -1.813,-0.641 v -0.313 c 0.203,0 0.781,0 1.297,0.266 v -5.172 c 0,-0.359 -0.031,-0.469 -0.922,-0.469 h -0.312 v -0.312 c 0.343,0.031 1.203,0.031 1.609,0.031 0.391,0 1.266,0 1.609,-0.031 v 0.312 h -0.312 c -0.906,0 -0.922,0.11 -0.922,0.469 z"
         style="fill:#000000;fill-opacity:1;fill-rule:nonzero;stroke:none"
         id="path89433"
         inkscape:connector-curvature="0" /><path
         d="M 257.5,138.877 H 254"
         style="fill:none;stroke:#000000;stroke-width:0.80000001;stroke-linecap:butt;stroke-linejoin:round;stroke-miterlimit:10;stroke-dasharray:none;stroke-opacity:1"
         id="path89435"
         inkscape:connector-curvature="0" /><path
         d="m 246.785,136.185 1.063,1.032 c 1.547,1.375 2.14,1.906 2.14,2.906 0,1.141 -0.89,1.937 -2.109,1.937 -1.125,0 -1.859,-0.921 -1.859,-1.812 0,-0.547 0.5,-0.547 0.531,-0.547 0.172,0 0.515,0.109 0.515,0.531 0,0.25 -0.187,0.516 -0.531,0.516 -0.078,0 -0.094,0 -0.125,-0.016 0.219,0.657 0.766,1.016 1.344,1.016 0.906,0 1.328,-0.813 1.328,-1.625 0,-0.797 -0.484,-1.578 -1.047,-2.203 l -1.906,-2.125 c -0.109,-0.11 -0.109,-0.141 -0.109,-0.375 h 3.703 l 0.265,1.734 h -0.234 c -0.063,-0.297 -0.125,-0.734 -0.234,-0.89 -0.063,-0.079 -0.719,-0.079 -0.938,-0.079 z"
         style="fill:#000000;fill-opacity:1;fill-rule:nonzero;stroke:none"
         id="path89437"
         inkscape:connector-curvature="0" /><path
         d="M 257.5,159.666 H 254"
         style="fill:none;stroke:#000000;stroke-width:0.80000001;stroke-linecap:butt;stroke-linejoin:round;stroke-miterlimit:10;stroke-dasharray:none;stroke-opacity:1"
         id="path89439"
         inkscape:connector-curvature="0" /><path
         d="m 248.41,159.725 c 0.813,0.265 1.391,0.953 1.391,1.75 0,0.812 -0.875,1.375 -1.828,1.375 -1,0 -1.766,-0.594 -1.766,-1.36 0,-0.328 0.219,-0.515 0.516,-0.515 0.297,0 0.5,0.218 0.5,0.515 0,0.485 -0.469,0.485 -0.61,0.485 0.297,0.5 0.953,0.625 1.313,0.625 0.422,0 0.969,-0.219 0.969,-1.11 0,-0.125 -0.032,-0.703 -0.282,-1.14 -0.297,-0.485 -0.64,-0.516 -0.89,-0.516 -0.078,-0.016 -0.313,-0.031 -0.391,-0.031 -0.078,-0.016 -0.141,-0.032 -0.141,-0.125 0,-0.11 0.063,-0.11 0.235,-0.11 h 0.437 c 0.813,0 1.188,-0.672 1.188,-1.656 0,-1.359 -0.688,-1.641 -1.125,-1.641 -0.438,0 -1.188,0.172 -1.531,0.75 0.343,-0.046 0.656,0.172 0.656,0.547 0,0.36 -0.266,0.563 -0.547,0.563 -0.25,0 -0.563,-0.141 -0.563,-0.578 0,-0.907 0.922,-1.563 2.016,-1.563 1.219,0 2.125,0.906 2.125,1.922 0,0.813 -0.641,1.594 -1.672,1.813 z"
         style="fill:#000000;fill-opacity:1;fill-rule:nonzero;stroke:none"
         id="path89441"
         inkscape:connector-curvature="0" /><path
         d="M 257.5,180.455 H 254"
         style="fill:none;stroke:#000000;stroke-width:0.80000001;stroke-linecap:butt;stroke-linejoin:round;stroke-miterlimit:10;stroke-dasharray:none;stroke-opacity:1"
         id="path89443"
         inkscape:connector-curvature="0" /><path
         d="m 248.457,178.639 v -0.86 c 0,-0.359 -0.031,-0.469 -0.766,-0.469 h -0.203 v -0.312 c 0.407,0.031 0.922,0.031 1.344,0.031 0.422,0 0.938,0 1.359,-0.031 v 0.312 h -0.218 c -0.735,0 -0.75,0.11 -0.75,0.469 v 0.86 h 0.984 v 0.312 h -0.984 v 4.531 c 0,0.203 0,0.266 -0.172,0.266 -0.078,0 -0.11,0 -0.188,-0.125 l -3.062,-4.672 v -0.312 z m 0.047,0.312 h -2.422 l 2.422,3.719 z"
         style="fill:#000000;fill-opacity:1;fill-rule:nonzero;stroke:none"
         id="path89445"
         inkscape:connector-curvature="0" /><path
         d="m 267.605,88.057 -0.527,1.679 -0.711,3.36 -0.293,3.359 0.098,3.363 0.496,3.36 0.41,1.679 1.145,3.36 0.738,1.679 1.863,3.36 1.156,1.679 1.918,2.411 2.047,2.172 2.051,1.859 2.051,1.617 2.047,1.422 2.051,1.25 4.097,2.066 4.102,1.582 4.097,1.168 4.102,0.801 4.375,0.453 3.82,0.114 4.102,-0.204 4.098,-0.527 4.101,-0.898 4.098,-1.262 4.097,-1.695 2.051,-1.036 2.106,-1.21 2.547,-1.68 2.191,-1.68 1.906,-1.68 1.668,-1.679 1.879,-2.192 0.906,-1.172 2.141,-3.359 1.605,-3.359 0.629,-1.68 0.903,-3.359 0.519,-3.36 0.102,-3.363 -0.309,-3.359 -0.707,-3.36 -0.508,-1.679 -1.179,-2.907 -1.055,-2.132 -2.141,-3.36 -1.304,-1.68 -1.653,-1.859 -2.047,-2.008 -2.05,-1.734 -2.051,-1.512 -2.047,-1.324 -2.973,-1.645 -1.129,-0.566 -4.097,-1.695 -4.098,-1.262 -4.101,-0.898 -4.098,-0.524 -4.102,-0.207 -4.097,0.125 -4.098,0.441 -4.102,0.801 -4.097,1.168 -4.102,1.582 -4.097,2.067 -2.051,1.25 -2.047,1.422 -2.051,1.617 -2.051,1.859 -2.047,2.172 -0.628,0.73 -2.446,3.36 -1.863,3.359 -1.356,3.36"
         style="fill:none;stroke:#ff0000;stroke-width:1.5;stroke-linecap:butt;stroke-linejoin:round;stroke-miterlimit:10;stroke-dasharray:none;stroke-opacity:1"
         id="path89447"
         inkscape:connector-curvature="0" /><path
         d="m 279.941,89.736 -0.589,1.68 -0.434,1.68 -0.285,1.679 -0.141,1.68 v 1.684 l 0.141,1.679 0.285,1.68 0.434,1.68 0.589,1.679 0.106,0.231 0.648,1.449 0.93,1.68 0.469,0.715 0.664,0.964 1.355,1.68 0.032,0.035 1.593,1.645 0.457,0.418 1.5,1.261 0.547,0.422 1.84,1.258 0.211,0.137 2.051,1.164 0.785,0.383 1.262,0.586 2.05,0.804 0.899,0.289 1.152,0.364 2.051,0.515 2.047,0.387 2.051,0.262 2.05,0.144 0.559,0.008 1.488,0.02 0.5,-0.02 1.551,-0.066 2.051,-0.203 2.047,-0.321 2.051,-0.453 2.05,-0.586 0.157,-0.051 1.894,-0.671 2.047,-0.883 0.254,-0.125 1.797,-0.942 1.226,-0.742 0.825,-0.531 1.574,-1.149 0.472,-0.378 1.481,-1.301 0.57,-0.563 1.055,-1.117 0.996,-1.211 0.363,-0.469 1.129,-1.679 0.555,-0.992 0.379,-0.688 0.754,-1.68 0.586,-1.679 0.332,-1.297 0.097,-0.383 0.289,-1.68 0.145,-1.679 v -1.684 l -0.145,-1.68 -0.289,-1.679 -0.097,-0.383 -0.332,-1.297 -0.586,-1.68 -0.754,-1.679 -0.379,-0.688 -0.555,-0.992 -1.129,-1.68 -0.363,-0.469 -0.996,-1.21 -1.055,-1.118 -0.57,-0.562 -1.481,-1.301 -0.472,-0.379 -1.574,-1.148 -0.825,-0.532 -1.226,-0.742 -1.797,-0.937 -0.254,-0.129 -2.047,-0.883 -1.894,-0.672 -0.157,-0.051 -2.05,-0.586 -2.051,-0.449 -2.047,-0.324 -2.051,-0.203 -1.551,-0.067 -0.5,-0.019 -1.488,0.019 -0.559,0.008 -2.05,0.145 -2.051,0.262 -2.047,0.386 -2.051,0.516 -1.152,0.363 -0.899,0.289 -2.05,0.805 -1.262,0.59 -0.785,0.383 -2.051,1.16 -0.211,0.136 -1.84,1.258 -0.547,0.422 -1.5,1.262 -0.457,0.418 -1.593,1.644 -0.032,0.036 -1.355,1.679 -0.664,0.965 -0.469,0.715 -0.93,1.68 -0.648,1.449 -0.106,0.23"
         style="fill:none;stroke:#ff7f00;stroke-width:1.5;stroke-linecap:butt;stroke-linejoin:round;stroke-miterlimit:10;stroke-dasharray:none;stroke-opacity:1"
         id="path89449"
         inkscape:connector-curvature="0" /><path
         d="m 289.875,93.096 -0.445,1.679 -0.223,1.68 v 1.684 l 0.223,1.679 0.445,1.68 0.418,1.031 0.281,0.649 0.989,1.679 0.781,1.043 0.531,0.637 1.516,1.496 0.214,0.184 1.836,1.347 0.543,0.332 1.508,0.817 2.004,0.863 0.047,0.02 2.047,0.617 2.051,0.418 2.05,0.23 2.047,0.047 2.051,-0.137 2.051,-0.324 2.047,-0.519 1.011,-0.352 1.04,-0.394 2.05,-0.997 0.485,-0.289 1.566,-1.05 0.793,-0.629 1.254,-1.157 0.496,-0.523 1.32,-1.68 0.235,-0.379 0.738,-1.3 0.699,-1.68 0.461,-1.68 0.153,-1.113 0.07,-0.566 v -1.684 l -0.07,-0.566 -0.153,-1.114 -0.461,-1.679 -0.699,-1.68 -0.738,-1.301 -0.235,-0.379 -1.32,-1.679 -0.496,-0.524 -1.254,-1.156 -0.793,-0.629 -1.566,-1.051 -0.485,-0.289 -2.05,-0.996 -1.04,-0.394 -1.011,-0.352 -2.047,-0.52 -2.051,-0.324 -2.051,-0.137 -2.047,0.047 -2.05,0.231 -2.051,0.418 -2.047,0.617 -0.047,0.02 -2.004,0.863 -1.508,0.816 -0.543,0.332 -1.836,1.348 -0.214,0.183 -1.516,1.497 -0.531,0.636 -0.781,1.043 -0.989,1.68 -0.281,0.648 -0.418,1.032"
         style="fill:none;stroke:#ffff00;stroke-width:1.5;stroke-linecap:butt;stroke-linejoin:round;stroke-miterlimit:10;stroke-dasharray:none;stroke-opacity:1"
         id="path89451"
         inkscape:connector-curvature="0" /><path
         d="m 322.879,81.338 -0.234,1.68 -0.165,1.679 -0.132,3.36 0.117,3.359 0.355,3.359 0.575,3.364 0.789,3.359 1.046,3.359 1.25,3.36 1.52,3.359 1.793,3.359 2.09,3.364 2.437,3.359 2.864,3.36 2.3,2.351 3.036,2.688 2.179,1.679 2.469,1.68 0.516,0.332 2.363,1.348 1.734,0.894 4.098,1.684 2.66,0.781 1.441,0.371 2.047,0.387 2.051,0.254 2.051,0.117 2.047,-0.02 2.051,-0.16 2.05,-0.312 2.551,-0.637 1.547,-0.484 2.758,-1.196 1.344,-0.691 2.046,-1.301 2.051,-1.594 2.051,-1.945 2.047,-2.422 1.476,-2.125 0.985,-1.679 0.859,-1.68 1.375,-3.36 0.992,-3.363 0.672,-3.359 0.399,-3.36 0.129,-3.359 -0.114,-3.359 -0.355,-3.36 -0.574,-3.363 -0.789,-3.359 -1.047,-3.36 -1.254,-3.359 -1.516,-3.359 -1.793,-3.36 -2.094,-3.359 -2.437,-3.364 -2.859,-3.359 -2.301,-2.351 -3.035,-2.688 -2.18,-1.68 -2.469,-1.679 -0.515,-0.332 -2.368,-1.348 -1.73,-0.895 -4.102,-1.679 -2.656,-0.785 -1.441,-0.371 -2.051,-0.387 -2.047,-0.254 -2.051,-0.117 -2.051,0.019 -2.046,0.16 -2.051,0.313 -2.551,0.637 -1.551,0.484 -2.758,1.195 -1.339,0.696 -2.051,1.296 -2.047,1.594 -2.051,1.946 -2.051,2.421 -1.472,2.125 -0.989,1.68 -0.855,1.68 -1.375,3.359 -0.996,3.363 -0.668,3.36"
         style="fill:none;stroke:#ff0000;stroke-width:1.5;stroke-linecap:butt;stroke-linejoin:round;stroke-miterlimit:10;stroke-dasharray:none;stroke-opacity:1"
         id="path89453"
         inkscape:connector-curvature="0" /><path
         d="m 335.27,86.377 -0.239,1.68 -0.133,1.679 -0.039,1.68 0.055,1.68 0.141,1.679 0.23,1.68 0.098,0.523 0.219,1.161 0.402,1.679 0.484,1.68 0.578,1.68 0.368,0.925 0.304,0.754 0.762,1.68 0.867,1.68 0.117,0.207 0.864,1.472 1.093,1.68 0.09,0.129 1.153,1.551 0.898,1.113 0.492,0.566 1.559,1.672 0.008,0.008 1.812,1.684 0.231,0.199 1.886,1.48 0.16,0.122 2.051,1.351 0.367,0.207 1.684,0.918 1.703,0.762 0.344,0.152 2.051,0.711 2.05,0.512 1.961,0.305 0.086,0.011 2.051,0.117 2.051,-0.097 0.199,-0.031 1.848,-0.293 2.051,-0.579 1.941,-0.808 0.109,-0.051 2.051,-1.207 0.57,-0.422 1.477,-1.223 0.469,-0.457 1.496,-1.679 0.086,-0.11 1.082,-1.574 0.957,-1.68 0.012,-0.019 0.742,-1.66 0.605,-1.68 0.469,-1.68 0.23,-1.101 0.118,-0.578 0.238,-1.68 0.133,-1.68 0.039,-1.679 -0.055,-1.68 -0.144,-1.68 -0.231,-1.679 -0.098,-0.524 -0.214,-1.16 -0.403,-1.68 -0.488,-1.679 -0.574,-1.68 -0.367,-0.926 -0.305,-0.754 -0.766,-1.679 -0.863,-1.68 -0.117,-0.207 -0.863,-1.473 -1.098,-1.679 -0.09,-0.129 -1.148,-1.551 -0.899,-1.113 -0.492,-0.567 -1.559,-1.672 -0.007,-0.008 -1.817,-1.679 -0.226,-0.199 -1.887,-1.485 -0.164,-0.121 -2.047,-1.351 -0.371,-0.208 -1.68,-0.917 -1.703,-0.762 -0.348,-0.153 -2.047,-0.71 -2.05,-0.512 -1.961,-0.305 -0.09,-0.012 -2.047,-0.117 -2.051,0.098 -0.203,0.031 -1.848,0.293 -2.046,0.578 -1.942,0.809 -0.109,0.051 -2.051,1.207 -0.57,0.421 -1.481,1.223 -0.465,0.457 -1.5,1.684 -0.082,0.105 -1.082,1.574 -0.957,1.68 -0.011,0.02 -0.743,1.66 -0.605,1.68 -0.469,1.679 -0.234,1.102 -0.113,0.578"
         style="fill:none;stroke:#ff7f00;stroke-width:1.5;stroke-linecap:butt;stroke-linejoin:round;stroke-miterlimit:10;stroke-dasharray:none;stroke-opacity:1"
         id="path89455"
         inkscape:connector-curvature="0" /><path
         d="m 347.563,91.416 -0.243,1.68 -0.047,1.679 0.129,1.68 0.282,1.566 0.019,0.118 0.524,1.679 0.683,1.68 0.82,1.621 0.036,0.059 1.172,1.679 0.843,1.059 0.602,0.621 1.449,1.34 0.469,0.34 1.578,1.039 1.375,0.64 0.676,0.293 2.05,0.504 2.047,0.102 2.051,-0.356 1.301,-0.543 0.75,-0.378 1.578,-1.301 0.469,-0.5 0.812,-1.18 0.836,-1.68 0.403,-1.234 0.117,-0.445 0.246,-1.68 0.047,-1.68 -0.133,-1.679 -0.277,-1.567 -0.024,-0.117 -0.519,-1.68 -0.688,-1.679 -0.82,-1.621 -0.031,-0.059 -1.172,-1.68 -0.844,-1.054 -0.602,-0.625 -1.449,-1.34 -0.473,-0.34 -1.578,-1.039 -1.371,-0.641 -0.676,-0.293 -2.05,-0.504 -2.051,-0.101 -2.047,0.355 -1.301,0.543 -0.75,0.379 -1.578,1.301 -0.473,0.5 -0.812,1.18 -0.836,1.679 -0.398,1.235 -0.121,0.445"
         style="fill:none;stroke:#ffff00;stroke-width:1.5;stroke-linecap:butt;stroke-linejoin:round;stroke-miterlimit:10;stroke-dasharray:none;stroke-opacity:1"
         id="path89457"
         inkscape:connector-curvature="0" /><path
         d="m 366.125,69.576 0.168,5.039 0.488,5.043 0.801,5.039 1.082,5.039 0.859,3.36 1.516,5.043 1.777,5.039 2.036,5.039 2.3,5.039 2.598,5.043 2.93,5.039 2.14,3.359 2.317,3.36 3.586,4.683 2.05,2.43 2.723,2.969 3.445,3.359 3.981,3.359 2.148,1.59 4.098,2.594 2.051,1.066 2.051,0.926 2.046,0.762 2.051,0.609 2.051,0.43 2.051,0.242 2.047,0.047 2.05,-0.168 2.051,-0.41 2.606,-0.969 1.492,-0.758 2.051,-1.437 2.047,-1.961 0.738,-0.883 1.312,-1.812 0.918,-1.547 1.133,-2.34 1.024,-2.699 0.925,-3.364 0.641,-3.359 0.394,-3.359 0.188,-3.36 0.008,-3.359 -0.153,-3.36 -0.507,-5.043 -0.805,-5.039 -1.07,-5.039 -1.34,-5.039 -1.614,-5.043 -1.199,-3.359 -2.789,-6.719 -1.902,-4.035 -1.348,-2.684 -2.824,-5.043 -2.059,-3.359 -2.222,-3.359 -2.414,-3.36 -3.481,-4.363 -2.078,-2.355 -3.234,-3.364 -2.887,-2.679 -2.879,-2.36 -2.289,-1.679 -2.574,-1.68 -0.453,-0.289 -2.586,-1.391 -1.516,-0.742 -2.387,-0.937 -1.711,-0.579 -2.05,-0.507 -2.051,-0.329 -2.047,-0.136 -2.051,0.066 -2.051,0.297 -2.046,0.566 -2.051,0.875 -2.293,1.426 -1.965,1.68 -1.891,2.168 -0.832,1.191 -1.218,2.074 -1.344,2.965 -1.11,3.364 -0.773,3.359 -0.504,3.359 -0.281,3.36 -0.09,3.359"
         style="fill:none;stroke:#ff0000;stroke-width:1.5;stroke-linecap:butt;stroke-linejoin:round;stroke-miterlimit:10;stroke-dasharray:none;stroke-opacity:1"
         id="path89459"
         inkscape:connector-curvature="0" /><path
         d="m 378.27,71.256 -0.25,1.679 -0.172,1.68 -0.133,3.363 0.113,3.36 0.324,3.359 0.516,3.36 0.687,3.359 1.122,4.219 0.765,2.504 1.281,3.578 1.266,3.14 2.363,5.039 2.52,4.575 2.051,3.277 2.05,2.945 2.051,2.66 2.922,3.344 1.641,1.68 1.797,1.68 2.007,1.679 2.317,1.68 2.797,1.68 0.863,0.472 3.031,1.207 1.071,0.356 2.046,0.426 2.051,0.152 2.051,-0.149 2.051,-0.503 2.047,-0.95 2.05,-1.531 1.079,-1.16 1.257,-1.68 0.93,-1.679 0.832,-1.899 0.938,-3.14 0.597,-3.36 0.27,-3.359 0.004,-3.364 -0.219,-3.359 -0.418,-3.359 -0.606,-3.36 -0.781,-3.359 -0.941,-3.359 -1.723,-5.043 -1.363,-3.36 -1.906,-4.125 -2.047,-3.89 -2.051,-3.446 -2.051,-3.086 -2.051,-2.789 -2.32,-2.824 -3.168,-3.359 -1.808,-1.68 -2.012,-1.68 -2.305,-1.679 -0.683,-0.473 -2.059,-1.207 -2.039,-0.992 -2.051,-0.77 -2.047,-0.539 -2.051,-0.281 -2.05,0.008 -2.051,0.336 -2.047,0.734 -2.355,1.504 -1.747,1.691 -1.191,1.668 -0.961,1.68 -0.723,1.68 -0.582,1.679 -0.796,3.36"
         style="fill:none;stroke:#ff7f00;stroke-width:1.5;stroke-linecap:butt;stroke-linejoin:round;stroke-miterlimit:10;stroke-dasharray:none;stroke-opacity:1"
         id="path89461"
         inkscape:connector-curvature="0" /><path
         d="m 388.539,79.658 -0.34,1.68 -0.203,1.68 -0.09,1.679 0.012,1.68 0.102,1.68 0.179,1.679 0.254,1.68 0.219,1.141 0.113,0.539 0.41,1.679 0.469,1.68 0.531,1.684 0.528,1.515 0.062,0.164 0.68,1.68 0.73,1.68 0.578,1.23 0.223,0.449 0.895,1.68 0.933,1.66 0.012,0.02 1.078,1.679 0.957,1.434 0.184,0.246 1.289,1.68 0.578,0.73 0.851,0.949 1.2,1.313 0.39,0.367 1.657,1.535 2.05,1.559 0.45,0.269 1.601,0.957 1.668,0.723 0.379,0.164 2.051,0.504 2.051,0.074 2.046,-0.453 0.559,-0.289 1.492,-0.933 0.723,-0.747 1.269,-1.679 0.059,-0.102 0.699,-1.582 0.535,-1.68 0.364,-1.679 0.218,-1.68 0.094,-1.68 -0.015,-1.679 -0.106,-1.68 -0.187,-1.68 -0.266,-1.679 -0.332,-1.68 -0.399,-1.68 -0.457,-1.679 -0.148,-0.481 -0.395,-1.203 -0.605,-1.68 -0.656,-1.679 -0.395,-0.922 -0.344,-0.758 -0.812,-1.68 -0.863,-1.679 -0.032,-0.051 -0.957,-1.629 -1.031,-1.68 -0.058,-0.09 -1.125,-1.589 -0.926,-1.27 -0.336,-0.41 -1.418,-1.68 -0.297,-0.344 -1.324,-1.336 -0.723,-0.718 -1.152,-0.961 -0.899,-0.75 -1.382,-0.934 -0.668,-0.445 -2.047,-1.043 -0.575,-0.192 -1.476,-0.488 -2.051,-0.281 -2.047,0.203 -1.48,0.566 -0.571,0.266 -1.668,1.414 -0.382,0.414 -0.817,1.27 -0.812,1.679 -0.422,1.196 -0.133,0.484"
         style="fill:none;stroke:#ffff00;stroke-width:1.5;stroke-linecap:butt;stroke-linejoin:round;stroke-miterlimit:10;stroke-dasharray:none;stroke-opacity:1"
         id="path89463"
         inkscape:connector-curvature="0" /><path
         d="M 257.5,14.139 V 180.455"
         style="fill:none;stroke:#000000;stroke-width:0.80000001;stroke-linecap:square;stroke-linejoin:miter;stroke-miterlimit:10;stroke-dasharray:none;stroke-opacity:1"
         id="path89465"
         inkscape:connector-curvature="0" /><path
         d="M 460.41,14.139 V 180.455"
         style="fill:none;stroke:#000000;stroke-width:0.80000001;stroke-linecap:square;stroke-linejoin:miter;stroke-miterlimit:10;stroke-dasharray:none;stroke-opacity:1"
         id="path89467"
         inkscape:connector-curvature="0" /><path
         d="M 257.5,14.139 H 460.41"
         style="fill:none;stroke:#000000;stroke-width:0.80000001;stroke-linecap:square;stroke-linejoin:miter;stroke-miterlimit:10;stroke-dasharray:none;stroke-opacity:1"
         id="path89469"
         inkscape:connector-curvature="0" /><path
         d="M 257.5,180.455 H 460.41"
         style="fill:none;stroke:#000000;stroke-width:0.80000001;stroke-linecap:square;stroke-linejoin:miter;stroke-miterlimit:10;stroke-dasharray:none;stroke-opacity:1"
         id="path89471"
         inkscape:connector-curvature="0" /><path
         d="M 0,94.49 H 212.676"
         style="fill:none;stroke:#000000;stroke-width:0.80000001;stroke-linecap:butt;stroke-linejoin:miter;stroke-miterlimit:4;stroke-dasharray:none;stroke-opacity:1"
         id="path89473"
         inkscape:connector-curvature="0" /><g
         id="g89475"
         transform="matrix(-1,0,0,1,0,183.74799)"><path
           d="m -204.676,-89.258 3.199,-3.199 -11.199,3.199 11.199,3.199 z"
           style="fill:#000000;fill-opacity:1;fill-rule:evenodd;stroke:#000000;stroke-width:0.80000001;stroke-linecap:butt;stroke-linejoin:miter;stroke-miterlimit:4;stroke-dasharray:none;stroke-opacity:1"
           id="path89477"
           inkscape:connector-curvature="0" /></g><path
         d="M 59.078,14.6 V 172.924"
         style="fill:none;stroke:#000000;stroke-width:0.80000001;stroke-linecap:butt;stroke-linejoin:miter;stroke-miterlimit:4;stroke-dasharray:none;stroke-opacity:1"
         id="path89479"
         inkscape:connector-curvature="0" /><g
         id="g89481"
         transform="matrix(0,-1,-1,0,0,183.74799)"><path
           d="m 18.824,-59.078 3.199,-3.199 -11.199,3.199 11.199,3.203 z"
           style="fill:#000000;fill-opacity:1;fill-rule:evenodd;stroke:#000000;stroke-width:0.80000001;stroke-linecap:butt;stroke-linejoin:miter;stroke-miterlimit:4;stroke-dasharray:none;stroke-opacity:1"
           id="path89483"
           inkscape:connector-curvature="0" /></g><path
         d="m 64.984,102.033 c 35.446,23.039 68.532,5.317 68.532,5.317"
         style="fill:none;stroke:#000000;stroke-width:0.80000001;stroke-linecap:butt;stroke-linejoin:miter;stroke-miterlimit:4;stroke-dasharray:none;stroke-opacity:1"
         id="path89485"
         inkscape:connector-curvature="0" /><g
         id="g89487"
         transform="matrix(-1,0.535714,0.535714,1,0,183.74799)"><path
           d="m -128.49,-3.787 2.821,-2.82 -9.875,2.821 9.874,2.82 z"
           style="fill:#000000;fill-opacity:1;fill-rule:evenodd;stroke:#000000;stroke-width:0.70518398;stroke-linecap:butt;stroke-linejoin:miter;stroke-miterlimit:4;stroke-dasharray:none;stroke-opacity:1"
           id="path89489"
           inkscape:connector-curvature="0" /></g><text
         transform="matrix(1,0,0,-1,114.24108,120.08104)"
         style="font-variant:normal;font-weight:normal;font-size:14.46528435px;font-family:Verdana;-inkscape-font-specification:Verdana;writing-mode:lr-tb;fill:#000000;fill-opacity:1;fill-rule:nonzero;stroke:none"
         id="text89493"><tspan
           x="0 9.8797894 18.428772 30.261374"
           y="0"
           sodipodi:role="line"
           id="tspan89491">Ax+b</tspan></text>
<path
         d="M 129.969,97.896 V 90.807"
         style="fill:none;stroke:#000000;stroke-width:0.80000001;stroke-linecap:butt;stroke-linejoin:miter;stroke-miterlimit:4;stroke-dasharray:none;stroke-opacity:1"
         id="path89495"
         inkscape:connector-curvature="0" /></g></g></svg>