<?xml version="1.0" encoding="UTF-8" standalone="no"?>
<!-- Created with Inkscape (http://www.inkscape.org/) -->

<svg
   xmlns:dc="http://purl.org/dc/elements/1.1/"
   xmlns:cc="http://creativecommons.org/ns#"
   xmlns:rdf="http://www.w3.org/1999/02/22-rdf-syntax-ns#"
   xmlns:svg="http://www.w3.org/2000/svg"
   xmlns="http://www.w3.org/2000/svg"
   xmlns:sodipodi="http://sodipodi.sourceforge.net/DTD/sodipodi-0.dtd"
   xmlns:inkscape="http://www.inkscape.org/namespaces/inkscape"
   version="1.1"
   id="svg103415"
   xml:space="preserve"
   width="806.08209"
   height="341.12643"
   viewBox="0 0 806.08209 341.12643"
   sodipodi:docname="tree.svg"
   inkscape:version="0.92.3 (2405546, 2018-03-11)"><metadata
     id="metadata103421"><rdf:RDF><cc:Work
         rdf:about=""><dc:format>image/svg+xml</dc:format><dc:type
           rdf:resource="http://purl.org/dc/dcmitype/StillImage" /><dc:title></dc:title></cc:Work></rdf:RDF></metadata><defs
     id="defs103419" /><sodipodi:namedview
     pagecolor="#ffffff"
     bordercolor="#666666"
     borderopacity="1"
     objecttolerance="10"
     gridtolerance="10"
     guidetolerance="10"
     inkscape:pageopacity="0"
     inkscape:pageshadow="2"
     inkscape:window-width="1920"
     inkscape:window-height="1001"
     id="namedview103417"
     showgrid="false"
     inkscape:zoom="0.4205527"
     inkscape:cx="403.04105"
     inkscape:cy="170.56322"
     inkscape:window-x="-9"
     inkscape:window-y="-9"
     inkscape:window-maximized="1"
     inkscape:current-layer="g103423" /><g
     id="g103423"
     inkscape:groupmode="layer"
     inkscape:label="tree"
     transform="matrix(1.3333333,0,0,-1.3333333,0,341.12644)"><g
       id="g103425"><path
         d="m 91.684,243.845 c 0,6.027 4.886,10.918 10.918,10.918 6.031,0 10.921,-4.891 10.921,-10.918 0,-6.031 -4.89,-10.922 -10.921,-10.922 -6.032,0 -10.918,4.891 -10.918,10.922 z"
         style="fill:#ffffff;fill-opacity:1;fill-rule:evenodd;stroke:#000000;stroke-width:0.95999998;stroke-linecap:butt;stroke-linejoin:miter;stroke-miterlimit:10;stroke-dasharray:none;stroke-opacity:1"
         id="path103427"
         inkscape:connector-curvature="0" /><path
         d="m 52.801,195.122 c 0,6.031 4.89,10.922 10.922,10.922 6.027,0 10.918,-4.891 10.918,-10.922 0,-6.027 -4.891,-10.918 -10.918,-10.918 -6.032,0 -10.922,4.891 -10.922,10.918 z"
         style="fill:#ffffff;fill-opacity:1;fill-rule:evenodd;stroke:#000000;stroke-width:0.95999998;stroke-linecap:butt;stroke-linejoin:miter;stroke-miterlimit:10;stroke-dasharray:none;stroke-opacity:1"
         id="path103429"
         inkscape:connector-curvature="0" /><path
         d="m 128.523,195.122 c 0,6.031 4.86,10.922 10.86,10.922 6,0 10.859,-4.891 10.859,-10.922 0,-6.027 -4.859,-10.918 -10.859,-10.918 -6,0 -10.86,4.891 -10.86,10.918 z"
         style="fill:#ffffff;fill-opacity:1;fill-rule:evenodd;stroke:#000000;stroke-width:0.95999998;stroke-linecap:butt;stroke-linejoin:miter;stroke-miterlimit:10;stroke-dasharray:none;stroke-opacity:1"
         id="path103431"
         inkscape:connector-curvature="0" /><path
         d="m 34.684,144.185 c 0,6 4.886,10.859 10.918,10.859 6.031,0 10.921,-4.859 10.921,-10.859 0,-6 -4.89,-10.864 -10.921,-10.864 -6.032,0 -10.918,4.864 -10.918,10.864 z"
         style="fill:#ffffff;fill-opacity:1;fill-rule:evenodd;stroke:#000000;stroke-width:0.95999998;stroke-linecap:butt;stroke-linejoin:miter;stroke-miterlimit:10;stroke-dasharray:none;stroke-opacity:1"
         id="path103433"
         inkscape:connector-curvature="0" /><path
         d="m 0.48,93.243 c 0,6.032 4.891,10.918 10.922,10.918 6.032,0 10.918,-4.886 10.918,-10.918 0,-6.031 -4.886,-10.922 -10.918,-10.922 -6.031,0 -10.922,4.891 -10.922,10.922 z"
         style="fill:#d9d9d9;fill-opacity:1;fill-rule:evenodd;stroke:#000000;stroke-width:0.95999998;stroke-linecap:butt;stroke-linejoin:miter;stroke-miterlimit:10;stroke-dasharray:none;stroke-opacity:1"
         id="path103435"
         inkscape:connector-curvature="0" /><path
         d="m 34.684,93.243 c 0,6.032 4.886,10.918 10.918,10.918 6.031,0 10.921,-4.886 10.921,-10.918 0,-6.031 -4.89,-10.922 -10.921,-10.922 -6.032,0 -10.918,4.891 -10.918,10.922 z"
         style="fill:#d9d9d9;fill-opacity:1;fill-rule:evenodd;stroke:#000000;stroke-width:0.95999998;stroke-linecap:butt;stroke-linejoin:miter;stroke-miterlimit:10;stroke-dasharray:none;stroke-opacity:1"
         id="path103437"
         inkscape:connector-curvature="0" /><path
         d="m 66.602,93.243 c 0,6.032 4.89,10.918 10.921,10.918 6.028,0 10.918,-4.886 10.918,-10.918 0,-6.031 -4.89,-10.922 -10.918,-10.922 -6.031,0 -10.921,4.891 -10.921,10.922 z"
         style="fill:#ffffff;fill-opacity:1;fill-rule:evenodd;stroke:#000000;stroke-width:0.95999998;stroke-linecap:butt;stroke-linejoin:miter;stroke-miterlimit:10;stroke-dasharray:none;stroke-opacity:1"
         id="path103439"
         inkscape:connector-curvature="0" /><path
         d="m 106.684,144.185 c 0,6 4.886,10.859 10.918,10.859 6.031,0 10.921,-4.859 10.921,-10.859 0,-6 -4.89,-10.864 -10.921,-10.864 -6.032,0 -10.918,4.864 -10.918,10.864 z"
         style="fill:#d9d9d9;fill-opacity:1;fill-rule:evenodd;stroke:#000000;stroke-width:0.95999998;stroke-linecap:butt;stroke-linejoin:miter;stroke-miterlimit:10;stroke-dasharray:none;stroke-opacity:1"
         id="path103441"
         inkscape:connector-curvature="0" /><path
         d="m 150.242,144.185 c 0,6 4.891,10.859 10.918,10.859 6.031,0 10.922,-4.859 10.922,-10.859 0,-6 -4.891,-10.864 -10.922,-10.864 -6.027,0 -10.918,4.864 -10.918,10.864 z"
         style="fill:#d9d9d9;fill-opacity:1;fill-rule:evenodd;stroke:#000000;stroke-width:0.95999998;stroke-linecap:butt;stroke-linejoin:miter;stroke-miterlimit:10;stroke-dasharray:none;stroke-opacity:1"
         id="path103443"
         inkscape:connector-curvature="0" /><path
         d="m 66.602,42.364 c 0,6.028 4.89,10.918 10.921,10.918 6.028,0 10.918,-4.89 10.918,-10.918 0,-6.031 -4.89,-10.922 -10.918,-10.922 -6.031,0 -10.921,4.891 -10.921,10.922 z"
         style="fill:#d9d9d9;fill-opacity:1;fill-rule:evenodd;stroke:#000000;stroke-width:0.95999998;stroke-linecap:butt;stroke-linejoin:miter;stroke-miterlimit:10;stroke-dasharray:none;stroke-opacity:1"
         id="path103445"
         inkscape:connector-curvature="0" /><path
         d="m 94.492,236.403 -27.519,-26.628 0.687,-0.723 27.531,26.633 z m -28.539,-24.14 -2.23,-6.321 6.398,2.012 z"
         style="fill:#000000;fill-opacity:1;fill-rule:nonzero;stroke:none"
         id="path103447"
         inkscape:connector-curvature="0" /><path
         d="m 110.641,236.392 25.621,-26.508 -0.719,-0.699 -25.621,26.507 z m 26.722,-24.047 2.008,-6.403 -6.328,2.231 z"
         style="fill:#000000;fill-opacity:1;fill-rule:nonzero;stroke:none"
         id="path103449"
         inkscape:connector-curvature="0" /><path
         d="m 63.363,184.474 -15.531,-24.86 0.84,-0.531 15.539,24.859 z m -17.121,-22.68 -0.64,-6.68 5.718,3.5 z"
         style="fill:#000000;fill-opacity:1;fill-rule:nonzero;stroke:none"
         id="path103451"
         inkscape:connector-curvature="0" /><path
         d="m 131.25,187.525 -12.109,-27.704 0.922,-0.398 12.097,27.699 z m -14,-25.793 0.352,-6.7 5.148,4.301 z"
         style="fill:#000000;fill-opacity:1;fill-rule:nonzero;stroke:none"
         id="path103453"
         inkscape:connector-curvature="0" /><path
         d="m 147.582,187.525 12.102,-27.704 -0.922,-0.398 -12.102,27.699 z m 13.988,-25.793 -0.347,-6.7 -5.153,4.301 z"
         style="fill:#000000;fill-opacity:1;fill-rule:nonzero;stroke:none"
         id="path103455"
         inkscape:connector-curvature="0" /><path
         d="m 126.969,240.462 h -2.485 l -3.14,4.328 h -0.969 v -2.687 c 0,-0.586 0.063,-0.95 0.188,-1.094 0.175,-0.199 0.437,-0.297 0.781,-0.297 h 0.375 v -0.25 h -3.985 v 0.25 h 0.36 c 0.383,0 0.66,0.129 0.828,0.391 0.101,0.132 0.156,0.468 0.156,1 v 5.984 c 0,0.582 -0.07,0.945 -0.203,1.094 -0.18,0.195 -0.437,0.297 -0.781,0.297 h -0.36 v 0.25 h 3.375 c 0.989,0 1.719,-0.075 2.188,-0.219 0.469,-0.137 0.863,-0.399 1.187,-0.781 0.321,-0.387 0.485,-0.844 0.485,-1.375 0,-0.575 -0.188,-1.075 -0.563,-1.5 -0.367,-0.418 -0.937,-0.711 -1.718,-0.875 l 1.921,-2.657 c 0.438,-0.617 0.813,-1.027 1.125,-1.234 0.313,-0.199 0.723,-0.324 1.235,-0.375 z m -6.594,4.766 h 0.391 c 0.882,0 1.55,0.187 2,0.562 0.445,0.383 0.672,0.875 0.672,1.469 0,0.57 -0.184,1.039 -0.547,1.406 -0.368,0.363 -0.844,0.547 -1.438,0.547 -0.262,0 -0.621,-0.043 -1.078,-0.125 z"
         style="fill:#000000;fill-opacity:1;fill-rule:nonzero;stroke:none"
         id="path103457"
         inkscape:connector-curvature="0" /><path
         d="m 130.367,246.915 c 0.946,0 1.707,-0.367 2.281,-1.094 0.489,-0.617 0.735,-1.32 0.735,-2.109 0,-0.562 -0.137,-1.133 -0.406,-1.703 -0.274,-0.574 -0.641,-1.008 -1.11,-1.297 -0.469,-0.289 -0.996,-0.437 -1.578,-0.437 -0.937,0 -1.687,0.375 -2.25,1.125 -0.469,0.632 -0.703,1.343 -0.703,2.125 0,0.582 0.141,1.156 0.422,1.718 0.289,0.571 0.664,0.992 1.125,1.266 0.469,0.269 0.961,0.406 1.484,0.406 z m -0.219,-0.453 c -0.242,0 -0.484,-0.074 -0.734,-0.219 -0.242,-0.136 -0.434,-0.386 -0.578,-0.75 -0.148,-0.367 -0.219,-0.828 -0.219,-1.39 0,-0.907 0.176,-1.696 0.531,-2.36 0.364,-0.656 0.844,-0.984 1.438,-0.984 0.437,0 0.801,0.18 1.094,0.547 0.289,0.363 0.437,0.988 0.437,1.875 0,1.113 -0.242,1.988 -0.719,2.625 -0.324,0.437 -0.742,0.656 -1.25,0.656 z"
         style="fill:#000000;fill-opacity:1;fill-rule:nonzero;stroke:none"
         id="path103459"
         inkscape:connector-curvature="0" /><path
         d="m 137.43,246.915 c 0.945,0 1.707,-0.367 2.281,-1.094 0.488,-0.617 0.734,-1.32 0.734,-2.109 0,-0.562 -0.136,-1.133 -0.406,-1.703 -0.273,-0.574 -0.641,-1.008 -1.109,-1.297 -0.469,-0.289 -0.996,-0.437 -1.578,-0.437 -0.938,0 -1.688,0.375 -2.25,1.125 -0.469,0.632 -0.704,1.343 -0.704,2.125 0,0.582 0.141,1.156 0.422,1.718 0.289,0.571 0.664,0.992 1.125,1.266 0.469,0.269 0.961,0.406 1.485,0.406 z m -0.219,-0.453 c -0.242,0 -0.484,-0.074 -0.734,-0.219 -0.243,-0.136 -0.434,-0.386 -0.579,-0.75 -0.148,-0.367 -0.218,-0.828 -0.218,-1.39 0,-0.907 0.175,-1.696 0.531,-2.36 0.363,-0.656 0.844,-0.984 1.437,-0.984 0.438,0 0.801,0.18 1.094,0.547 0.289,0.363 0.438,0.988 0.438,1.875 0,1.113 -0.242,1.988 -0.719,2.625 -0.324,0.437 -0.742,0.656 -1.25,0.656 z"
         style="fill:#000000;fill-opacity:1;fill-rule:nonzero;stroke:none"
         id="path103461"
         inkscape:connector-curvature="0" /><path
         d="m 143.242,248.775 v -2.047 h 1.469 v -0.485 h -1.469 v -4.062 c 0,-0.406 0.055,-0.684 0.172,-0.828 0.125,-0.137 0.274,-0.203 0.453,-0.203 0.156,0 0.301,0.046 0.438,0.14 0.144,0.094 0.254,0.235 0.328,0.422 h 0.265 c -0.156,-0.449 -0.382,-0.789 -0.671,-1.016 -0.293,-0.23 -0.594,-0.343 -0.907,-0.343 -0.211,0 -0.414,0.058 -0.609,0.172 -0.199,0.125 -0.352,0.289 -0.453,0.5 -0.094,0.218 -0.141,0.554 -0.141,1.015 v 4.203 h -0.984 v 0.235 c 0.25,0.093 0.504,0.257 0.765,0.5 0.258,0.238 0.493,0.523 0.704,0.859 0.101,0.164 0.25,0.477 0.437,0.938 z"
         style="fill:#000000;fill-opacity:1;fill-rule:nonzero;stroke:none"
         id="path103463"
         inkscape:connector-curvature="0" /><path
         d="m 37.48,136.763 -23.296,-28.418 0.777,-0.641 23.289,28.418 z m -24.597,-26.059 -1.481,-6.551 6.121,2.739 z"
         style="fill:#000000;fill-opacity:1;fill-rule:nonzero;stroke:none"
         id="path103465"
         inkscape:connector-curvature="0" /><path
         d="m 46.102,133.321 v -24.089 h -1 v 24.089 z m 2.5,-23.089 -3,-6 -3,6 z"
         style="fill:#000000;fill-opacity:1;fill-rule:nonzero;stroke:none"
         id="path103467"
         inkscape:connector-curvature="0" /><path
         d="m 53.684,136.743 21.277,-28.289 -0.801,-0.601 -21.277,28.289 z m 22.679,-25.988 1.207,-6.602 -6.007,3 z"
         style="fill:#000000;fill-opacity:1;fill-rule:nonzero;stroke:none"
         id="path103469"
         inkscape:connector-curvature="0" /><path
         d="M 78.023,82.321 V 58.232 h -1 v 24.089 z m 2.5,-23.089 -3,-6 -3,6 z"
         style="fill:#000000;fill-opacity:1;fill-rule:nonzero;stroke:none"
         id="path103471"
         inkscape:connector-curvature="0" /><path
         d="m 523.684,243.845 c 0,6.027 4.886,10.918 10.918,10.918 6.031,0 10.921,-4.891 10.921,-10.918 0,-6.031 -4.89,-10.922 -10.921,-10.922 -6.032,0 -10.918,4.891 -10.918,10.922 z"
         style="fill:#ffffff;fill-opacity:1;fill-rule:evenodd;stroke:#000000;stroke-width:0.95999998;stroke-linecap:butt;stroke-linejoin:miter;stroke-miterlimit:10;stroke-dasharray:none;stroke-opacity:1"
         id="path103473"
         inkscape:connector-curvature="0" /><path
         d="m 484.801,195.122 c 0,6.031 4.89,10.922 10.922,10.922 6.027,0 10.918,-4.891 10.918,-10.922 0,-6.027 -4.891,-10.918 -10.918,-10.918 -6.032,0 -10.922,4.891 -10.922,10.918 z"
         style="fill:#ffffff;fill-opacity:1;fill-rule:evenodd;stroke:#000000;stroke-width:0.95999998;stroke-linecap:butt;stroke-linejoin:miter;stroke-miterlimit:10;stroke-dasharray:none;stroke-opacity:1"
         id="path103475"
         inkscape:connector-curvature="0" /><path
         d="m 560.523,195.122 c 0,6.031 4.86,10.922 10.86,10.922 6,0 10.859,-4.891 10.859,-10.922 0,-6.027 -4.859,-10.918 -10.859,-10.918 -6,0 -10.86,4.891 -10.86,10.918 z"
         style="fill:#ffffff;fill-opacity:1;fill-rule:evenodd;stroke:#000000;stroke-width:0.95999998;stroke-linecap:butt;stroke-linejoin:miter;stroke-miterlimit:10;stroke-dasharray:none;stroke-opacity:1"
         id="path103477"
         inkscape:connector-curvature="0" /><path
         d="m 466.742,144.122 c 0,6 4.891,10.86 10.918,10.86 6.031,0 10.922,-4.86 10.922,-10.86 0,-6 -4.891,-10.859 -10.922,-10.859 -6.027,0 -10.918,4.859 -10.918,10.859 z"
         style="fill:#d9d9d9;fill-opacity:1;fill-rule:evenodd;stroke:#000000;stroke-width:2.27999997;stroke-linecap:butt;stroke-linejoin:miter;stroke-miterlimit:10;stroke-dasharray:none;stroke-opacity:1"
         id="path103479"
         inkscape:connector-curvature="0" /><path
         d="m 432.543,93.185 c 0,6.027 4.891,10.918 10.918,10.918 6.031,0 10.922,-4.891 10.922,-10.918 0,-6.032 -4.891,-10.922 -10.922,-10.922 -6.027,0 -10.918,4.89 -10.918,10.922 z"
         style="fill:#d9d9d9;fill-opacity:1;fill-rule:evenodd;stroke:#000000;stroke-width:2.27999997;stroke-linecap:butt;stroke-linejoin:miter;stroke-miterlimit:10;stroke-dasharray:none;stroke-opacity:1"
         id="path103481"
         inkscape:connector-curvature="0" /><path
         d="m 466.742,93.185 c 0,6.027 4.891,10.918 10.918,10.918 6.031,0 10.922,-4.891 10.922,-10.918 0,-6.032 -4.891,-10.922 -10.922,-10.922 -6.027,0 -10.918,4.89 -10.918,10.922 z"
         style="fill:#d9d9d9;fill-opacity:1;fill-rule:evenodd;stroke:#000000;stroke-width:2.27999997;stroke-linecap:butt;stroke-linejoin:miter;stroke-miterlimit:10;stroke-dasharray:none;stroke-opacity:1"
         id="path103483"
         inkscape:connector-curvature="0" /><path
         d="m 498.66,93.185 c 0,6.027 4.891,10.918 10.922,10.918 6.031,0 10.918,-4.891 10.918,-10.918 0,-6.032 -4.887,-10.922 -10.918,-10.922 -6.031,0 -10.922,4.89 -10.922,10.922 z"
         style="fill:#d9d9d9;fill-opacity:1;fill-rule:evenodd;stroke:#000000;stroke-width:2.27999997;stroke-linecap:butt;stroke-linejoin:miter;stroke-miterlimit:10;stroke-dasharray:none;stroke-opacity:1"
         id="path103485"
         inkscape:connector-curvature="0" /><path
         d="m 538.684,144.185 c 0,6 4.886,10.859 10.918,10.859 6.031,0 10.921,-4.859 10.921,-10.859 0,-6 -4.89,-10.864 -10.921,-10.864 -6.032,0 -10.918,4.864 -10.918,10.864 z"
         style="fill:#ffffff;fill-opacity:1;fill-rule:evenodd;stroke:#000000;stroke-width:0.95999998;stroke-linecap:butt;stroke-linejoin:miter;stroke-miterlimit:10;stroke-dasharray:none;stroke-opacity:1"
         id="path103487"
         inkscape:connector-curvature="0" /><path
         d="m 582.242,144.185 c 0,6 4.891,10.859 10.918,10.859 6.031,0 10.922,-4.859 10.922,-10.859 0,-6 -4.891,-10.864 -10.922,-10.864 -6.027,0 -10.918,4.864 -10.918,10.864 z"
         style="fill:#ffffff;fill-opacity:1;fill-rule:evenodd;stroke:#000000;stroke-width:0.95999998;stroke-linecap:butt;stroke-linejoin:miter;stroke-miterlimit:10;stroke-dasharray:none;stroke-opacity:1"
         id="path103489"
         inkscape:connector-curvature="0" /><path
         d="m 498.66,42.302 c 0,6.031 4.891,10.922 10.922,10.922 6.031,0 10.918,-4.891 10.918,-10.922 0,-6.027 -4.887,-10.918 -10.918,-10.918 -6.031,0 -10.922,4.891 -10.922,10.918 z"
         style="fill:#d9d9d9;fill-opacity:1;fill-rule:evenodd;stroke:#000000;stroke-width:2.27999997;stroke-linecap:butt;stroke-linejoin:miter;stroke-miterlimit:10;stroke-dasharray:none;stroke-opacity:1"
         id="path103491"
         inkscape:connector-curvature="0" /><path
         d="m 526.492,236.403 -27.519,-26.628 0.687,-0.723 27.531,26.633 z m -28.539,-24.14 -2.23,-6.321 6.398,2.012 z"
         style="fill:#000000;fill-opacity:1;fill-rule:nonzero;stroke:none"
         id="path103493"
         inkscape:connector-curvature="0" /><path
         d="m 542.641,236.392 25.621,-26.508 -0.719,-0.699 -25.621,26.507 z m 26.722,-24.047 2.008,-6.403 -6.328,2.231 z"
         style="fill:#000000;fill-opacity:1;fill-rule:nonzero;stroke:none"
         id="path103495"
         inkscape:connector-curvature="0" /><path
         d="m 495.363,184.474 -15.531,-24.86 0.84,-0.531 15.539,24.859 z m -17.121,-22.68 -0.64,-6.68 5.718,3.5 z"
         style="fill:#000000;fill-opacity:1;fill-rule:nonzero;stroke:none"
         id="path103497"
         inkscape:connector-curvature="0" /><path
         d="m 563.25,187.525 -12.109,-27.704 0.922,-0.398 12.097,27.699 z m -14,-25.793 0.352,-6.7 5.148,4.301 z"
         style="fill:#000000;fill-opacity:1;fill-rule:nonzero;stroke:none"
         id="path103499"
         inkscape:connector-curvature="0" /><path
         d="m 579.582,187.525 12.102,-27.704 -0.922,-0.398 -12.102,27.699 z m 13.988,-25.793 -0.347,-6.7 -5.153,4.301 z"
         style="fill:#000000;fill-opacity:1;fill-rule:nonzero;stroke:none"
         id="path103501"
         inkscape:connector-curvature="0" /><path
         d="m 468.773,137.333 -21.722,-26.48 2.32,-1.911 21.723,26.493 z m -23.082,-23.422 -2.23,-9.816 9.191,4.109 z"
         style="fill:#000000;fill-opacity:1;fill-rule:nonzero;stroke:none"
         id="path103503"
         inkscape:connector-curvature="0" /><path
         d="m 479.16,133.263 v -21.59 h -3 v 21.59 z m 3,-20.09 -4.5,-9 -4.5,9 z"
         style="fill:#000000;fill-opacity:1;fill-rule:nonzero;stroke:none"
         id="path103505"
         inkscape:connector-curvature="0" /><path
         d="m 486.543,137.282 19.777,-26.289 -2.398,-1.801 -19.781,26.29 z m 21.27,-23.289 1.82,-9.898 -9.012,4.488 z"
         style="fill:#000000;fill-opacity:1;fill-rule:nonzero;stroke:none"
         id="path103507"
         inkscape:connector-curvature="0" /><path
         d="m 511.082,82.263 v -21.59 h -3 v 21.59 z m 3,-20.09 -4.5,-9 -4.5,9 z"
         style="fill:#000000;fill-opacity:1;fill-rule:nonzero;stroke:none"
         id="path103509"
         inkscape:connector-curvature="0" /><path
         d="m 474.227,145.259 1.984,0.422 c 0.133,-0.336 0.25,-0.68 0.344,-1.031 0.113,-0.524 0.211,-1.133 0.297,-1.829 0.031,-0.355 0.078,-1.109 0.14,-2.265 0.571,0.633 0.914,1.023 1.031,1.172 0.594,0.812 0.938,1.289 1.032,1.437 0.156,0.238 0.258,0.453 0.312,0.641 0.051,0.133 0.078,0.265 0.078,0.39 0,0.114 -0.109,0.25 -0.328,0.407 -0.211,0.156 -0.312,0.328 -0.312,0.515 0,0.145 0.054,0.274 0.172,0.391 0.125,0.113 0.265,0.172 0.421,0.172 0.188,0 0.352,-0.078 0.5,-0.235 0.145,-0.156 0.219,-0.355 0.219,-0.593 0,-0.231 -0.039,-0.45 -0.109,-0.657 -0.117,-0.355 -0.336,-0.781 -0.656,-1.281 -0.325,-0.492 -0.844,-1.156 -1.563,-2 -0.094,-0.105 -0.601,-0.637 -1.516,-1.594 h -0.265 c -0.106,2.883 -0.328,4.688 -0.672,5.407 -0.117,0.226 -0.309,0.343 -0.578,0.343 -0.117,0 -0.278,-0.015 -0.485,-0.046 z"
         style="fill:#000000;fill-opacity:1;fill-rule:nonzero;stroke:none"
         id="path103511"
         inkscape:connector-curvature="0" /><path
         d="m 309.902,243.782 c 0,6.032 4.891,10.922 10.918,10.922 6.032,0 10.922,-4.89 10.922,-10.922 0,-6.027 -4.89,-10.918 -10.922,-10.918 -6.027,0 -10.918,4.891 -10.918,10.918 z"
         style="fill:#d9d9d9;fill-opacity:1;fill-rule:evenodd;stroke:#000000;stroke-width:2.27999997;stroke-linecap:butt;stroke-linejoin:miter;stroke-miterlimit:10;stroke-dasharray:none;stroke-opacity:1"
         id="path103513"
         inkscape:connector-curvature="0" /><path
         d="m 271.023,195.064 c 0,6.031 4.887,10.918 10.918,10.918 6.032,0 10.922,-4.887 10.922,-10.918 0,-6.032 -4.89,-10.922 -10.922,-10.922 -6.031,0 -10.918,4.89 -10.918,10.922 z"
         style="fill:#d9d9d9;fill-opacity:1;fill-rule:evenodd;stroke:#000000;stroke-width:2.27999997;stroke-linecap:butt;stroke-linejoin:miter;stroke-miterlimit:10;stroke-dasharray:none;stroke-opacity:1"
         id="path103515"
         inkscape:connector-curvature="0" /><path
         d="m 346.684,195.122 c 0,6.031 4.886,10.922 10.918,10.922 6.031,0 10.921,-4.891 10.921,-10.922 0,-6.027 -4.89,-10.918 -10.921,-10.918 -6.032,0 -10.918,4.891 -10.918,10.918 z"
         style="fill:#ffffff;fill-opacity:1;fill-rule:evenodd;stroke:#000000;stroke-width:0.95999998;stroke-linecap:butt;stroke-linejoin:miter;stroke-miterlimit:10;stroke-dasharray:none;stroke-opacity:1"
         id="path103517"
         inkscape:connector-curvature="0" /><path
         d="m 252.902,144.122 c 0,6 4.891,10.86 10.918,10.86 6.032,0 10.922,-4.86 10.922,-10.86 0,-6 -4.89,-10.859 -10.922,-10.859 -6.027,0 -10.918,4.859 -10.918,10.859 z"
         style="fill:#d9d9d9;fill-opacity:1;fill-rule:evenodd;stroke:#000000;stroke-width:2.27999997;stroke-linecap:butt;stroke-linejoin:miter;stroke-miterlimit:10;stroke-dasharray:none;stroke-opacity:1"
         id="path103519"
         inkscape:connector-curvature="0" /><path
         d="m 218.641,93.243 c 0,6.032 4.89,10.918 10.922,10.918 6.031,0 10.917,-4.886 10.917,-10.918 0,-6.031 -4.886,-10.922 -10.917,-10.922 -6.032,0 -10.922,4.891 -10.922,10.922 z"
         style="fill:#ffffff;fill-opacity:1;fill-rule:evenodd;stroke:#000000;stroke-width:0.95999998;stroke-linecap:butt;stroke-linejoin:miter;stroke-miterlimit:10;stroke-dasharray:none;stroke-opacity:1"
         id="path103521"
         inkscape:connector-curvature="0" /><path
         d="m 252.844,93.243 c 0,6.032 4.886,10.918 10.918,10.918 6.031,0 10.922,-4.886 10.922,-10.918 0,-6.031 -4.891,-10.922 -10.922,-10.922 -6.032,0 -10.918,4.891 -10.918,10.922 z"
         style="fill:#ffffff;fill-opacity:1;fill-rule:evenodd;stroke:#000000;stroke-width:0.95999998;stroke-linecap:butt;stroke-linejoin:miter;stroke-miterlimit:10;stroke-dasharray:none;stroke-opacity:1"
         id="path103523"
         inkscape:connector-curvature="0" /><path
         d="m 284.883,93.243 c 0,6.032 4.859,10.918 10.859,10.918 6,0 10.86,-4.886 10.86,-10.918 0,-6.031 -4.86,-10.922 -10.86,-10.922 -6,0 -10.859,4.891 -10.859,10.922 z"
         style="fill:#ffffff;fill-opacity:1;fill-rule:evenodd;stroke:#000000;stroke-width:0.95999998;stroke-linecap:butt;stroke-linejoin:miter;stroke-miterlimit:10;stroke-dasharray:none;stroke-opacity:1"
         id="path103525"
         inkscape:connector-curvature="0" /><path
         d="m 324.844,144.185 c 0,6 4.886,10.859 10.918,10.859 6.031,0 10.922,-4.859 10.922,-10.859 0,-6 -4.891,-10.864 -10.922,-10.864 -6.032,0 -10.918,4.864 -10.918,10.864 z"
         style="fill:#ffffff;fill-opacity:1;fill-rule:evenodd;stroke:#000000;stroke-width:0.95999998;stroke-linecap:butt;stroke-linejoin:miter;stroke-miterlimit:10;stroke-dasharray:none;stroke-opacity:1"
         id="path103527"
         inkscape:connector-curvature="0" /><path
         d="m 368.523,144.185 c 0,6 4.86,10.859 10.86,10.859 6,0 10.859,-4.859 10.859,-10.859 0,-6 -4.859,-10.864 -10.859,-10.864 -6,0 -10.86,4.864 -10.86,10.864 z"
         style="fill:#ffffff;fill-opacity:1;fill-rule:evenodd;stroke:#000000;stroke-width:0.95999998;stroke-linecap:butt;stroke-linejoin:miter;stroke-miterlimit:10;stroke-dasharray:none;stroke-opacity:1"
         id="path103529"
         inkscape:connector-curvature="0" /><path
         d="m 284.883,42.364 c 0,6.028 4.859,10.918 10.859,10.918 6,0 10.86,-4.89 10.86,-10.918 0,-6.031 -4.86,-10.922 -10.86,-10.922 -6,0 -10.859,4.891 -10.859,10.922 z"
         style="fill:#ffffff;fill-opacity:1;fill-rule:evenodd;stroke:#000000;stroke-width:0.95999998;stroke-linecap:butt;stroke-linejoin:miter;stroke-miterlimit:10;stroke-dasharray:none;stroke-opacity:1"
         id="path103531"
         inkscape:connector-curvature="0" /><path
         d="m 312.273,236.802 -27.031,-26.141 1.59,-1.636 27.02,26.136 z m -27.793,-23.707 -2.539,-7.211 7.289,2.289 z"
         style="fill:#000000;fill-opacity:1;fill-rule:nonzero;stroke:none"
         id="path103533"
         inkscape:connector-curvature="0" /><path
         d="m 328.801,236.392 25.621,-26.508 -0.719,-0.699 -25.621,26.507 z m 26.722,-24.047 2.008,-6.403 -6.328,2.231 z"
         style="fill:#000000;fill-opacity:1;fill-rule:nonzero;stroke:none"
         id="path103535"
         inkscape:connector-curvature="0" /><path
         d="m 281.031,184.743 -15.16,-24.25 1.942,-1.211 15.16,24.262 z m -16.48,-22.082 -0.731,-7.609 6.532,3.992 z"
         style="fill:#000000;fill-opacity:1;fill-rule:nonzero;stroke:none"
         id="path103537"
         inkscape:connector-curvature="0" /><path
         d="m 349.41,187.525 -12.109,-27.704 0.922,-0.398 12.097,27.699 z m -14,-25.793 0.352,-6.7 5.148,4.301 z"
         style="fill:#000000;fill-opacity:1;fill-rule:nonzero;stroke:none"
         id="path103539"
         inkscape:connector-curvature="0" /><path
         d="m 365.742,187.525 12.102,-27.704 -0.922,-0.398 -12.102,27.699 z m 13.988,-25.793 -0.347,-6.7 -5.153,4.301 z"
         style="fill:#000000;fill-opacity:1;fill-rule:nonzero;stroke:none"
         id="path103541"
         inkscape:connector-curvature="0" /><path
         d="m 255.641,136.763 -23.297,-28.418 0.777,-0.641 23.289,28.418 z m -24.598,-26.059 -1.48,-6.551 6.121,2.739 z"
         style="fill:#000000;fill-opacity:1;fill-rule:nonzero;stroke:none"
         id="path103543"
         inkscape:connector-curvature="0" /><path
         d="m 264.262,133.321 v -24.089 h -1 v 24.089 z m 2.5,-23.089 -3,-6 -3,6 z"
         style="fill:#000000;fill-opacity:1;fill-rule:nonzero;stroke:none"
         id="path103545"
         inkscape:connector-curvature="0" /><path
         d="m 271.844,136.743 21.277,-28.289 -0.801,-0.601 -21.277,28.289 z m 22.679,-25.988 1.207,-6.602 -6.007,3 z"
         style="fill:#000000;fill-opacity:1;fill-rule:nonzero;stroke:none"
         id="path103547"
         inkscape:connector-curvature="0" /><path
         d="M 296.184,82.321 V 58.232 h -1 v 24.089 z m 2.5,-23.089 -3,-6 -3,6 z"
         style="fill:#000000;fill-opacity:1;fill-rule:nonzero;stroke:none"
         id="path103549"
         inkscape:connector-curvature="0" /><path
         d="m 261.469,144.728 1.984,0.422 c 0.133,-0.336 0.25,-0.68 0.344,-1.032 0.113,-0.523 0.211,-1.133 0.297,-1.828 0.031,-0.355 0.078,-1.109 0.14,-2.265 0.571,0.632 0.914,1.023 1.032,1.171 0.593,0.813 0.937,1.289 1.031,1.438 0.156,0.238 0.258,0.453 0.312,0.641 0.051,0.132 0.079,0.265 0.079,0.39 0,0.113 -0.11,0.25 -0.329,0.406 -0.211,0.157 -0.312,0.329 -0.312,0.516 0,0.145 0.055,0.273 0.172,0.391 0.125,0.113 0.265,0.172 0.422,0.172 0.187,0 0.351,-0.079 0.5,-0.235 0.144,-0.156 0.218,-0.355 0.218,-0.594 0,-0.23 -0.039,-0.449 -0.109,-0.656 -0.117,-0.355 -0.336,-0.781 -0.656,-1.281 -0.324,-0.492 -0.844,-1.156 -1.563,-2 -0.093,-0.106 -0.601,-0.637 -1.515,-1.594 h -0.266 c -0.105,2.883 -0.328,4.688 -0.672,5.406 -0.117,0.227 -0.308,0.344 -0.578,0.344 -0.117,0 -0.277,-0.015 -0.484,-0.047 z"
         style="fill:#000000;fill-opacity:1;fill-rule:nonzero;stroke:none"
         id="path103551"
         inkscape:connector-curvature="0" /><path
         d="M 90.387,0.314 V 0.001 c -0.887,0.438 -1.625,0.961 -2.219,1.563 -0.844,0.843 -1.496,1.843 -1.953,3 -0.461,1.156 -0.688,2.351 -0.688,3.593 0,1.821 0.446,3.477 1.344,4.969 0.895,1.5 2.067,2.57 3.516,3.219 V 15.97 C 89.668,15.571 89.074,15.025 88.605,14.329 88.145,13.642 87.801,12.767 87.574,11.704 87.344,10.65 87.23,9.548 87.23,8.392 87.23,7.13 87.324,5.989 87.512,4.97 87.668,4.157 87.855,3.509 88.074,3.017 88.293,2.528 88.582,2.06 88.949,1.61 89.313,1.165 89.793,0.732 90.387,0.314 Z"
         style="fill:#000000;fill-opacity:1;fill-rule:nonzero;stroke:none"
         id="path103553"
         inkscape:connector-curvature="0" /><path
         d="M 95.91,5.001 C 95.086,4.364 94.566,3.993 94.348,3.892 c -0.313,-0.145 -0.649,-0.219 -1,-0.219 -0.563,0 -1.028,0.187 -1.391,0.562 -0.355,0.383 -0.531,0.891 -0.531,1.516 0,0.395 0.086,0.734 0.265,1.016 0.239,0.406 0.657,0.781 1.25,1.125 0.594,0.351 1.582,0.781 2.969,1.281 v 0.328 c 0,0.801 -0.133,1.348 -0.39,1.641 -0.25,0.3 -0.622,0.453 -1.11,0.453 -0.367,0 -0.656,-0.102 -0.875,-0.297 -0.219,-0.199 -0.328,-0.43 -0.328,-0.688 l 0.016,-0.5 c 0,-0.273 -0.075,-0.48 -0.219,-0.625 -0.137,-0.148 -0.313,-0.218 -0.531,-0.218 -0.219,0 -0.399,0.07 -0.532,0.218 -0.136,0.157 -0.203,0.364 -0.203,0.625 0,0.5 0.254,0.957 0.766,1.375 0.519,0.426 1.242,0.641 2.172,0.641 0.719,0 1.304,-0.121 1.765,-0.359 0.344,-0.18 0.598,-0.461 0.766,-0.844 0.102,-0.25 0.156,-0.766 0.156,-1.547 V 6.642 c 0,-0.774 0.008,-1.246 0.032,-1.422 0.031,-0.168 0.078,-0.281 0.14,-0.344 0.07,-0.055 0.156,-0.078 0.25,-0.078 0.094,0 0.176,0.019 0.25,0.062 0.113,0.071 0.348,0.286 0.703,0.641 v -0.5 C 98.082,4.126 97.457,3.689 96.863,3.689 96.57,3.689 96.34,3.79 96.176,3.985 96.008,4.181 95.918,4.521 95.91,5.001 Z m 0,0.578 V 8.642 C 95.023,8.286 94.449,8.036 94.191,7.892 93.73,7.642 93.402,7.376 93.207,7.095 93.008,6.814 92.91,6.505 92.91,6.173 c 0,-0.43 0.125,-0.781 0.375,-1.063 0.25,-0.273 0.535,-0.406 0.86,-0.406 0.445,0 1.035,0.289 1.765,0.875 z"
         style="fill:#000000;fill-opacity:1;fill-rule:nonzero;stroke:none"
         id="path103555"
         inkscape:connector-curvature="0" /><path
         d="m 99.184,15.97 v 0.375 c 0.882,-0.438 1.625,-0.961 2.218,-1.563 0.844,-0.855 1.489,-1.859 1.938,-3.015 0.457,-1.149 0.687,-2.344 0.687,-3.594 0,-1.813 -0.449,-3.469 -1.343,-4.969 -0.887,-1.5 -2.055,-2.566 -3.5,-3.203 v 0.313 c 0.718,0.406 1.312,0.953 1.781,1.64 0.469,0.688 0.812,1.563 1.031,2.625 0.227,1.071 0.344,2.18 0.344,3.328 0,1.25 -0.102,2.391 -0.297,3.422 -0.148,0.813 -0.328,1.457 -0.547,1.938 -0.219,0.488 -0.512,0.957 -0.875,1.406 -0.367,0.457 -0.844,0.891 -1.437,1.297 z"
         style="fill:#000000;fill-opacity:1;fill-rule:nonzero;stroke:none"
         id="path103557"
         inkscape:connector-curvature="0" /><path
         d="M 309.605,0.314 V 0.001 c -0.886,0.438 -1.625,0.961 -2.218,1.563 -0.844,0.843 -1.496,1.843 -1.953,3 -0.461,1.156 -0.688,2.351 -0.688,3.593 0,1.821 0.445,3.477 1.344,4.969 0.894,1.5 2.066,2.57 3.515,3.219 V 15.97 c -0.718,-0.399 -1.312,-0.945 -1.781,-1.641 -0.461,-0.687 -0.804,-1.562 -1.031,-2.625 -0.23,-1.054 -0.344,-2.156 -0.344,-3.312 0,-1.262 0.094,-2.403 0.281,-3.422 0.157,-0.813 0.344,-1.461 0.563,-1.953 0.219,-0.489 0.508,-0.957 0.875,-1.407 0.363,-0.445 0.844,-0.878 1.437,-1.296 z"
         style="fill:#000000;fill-opacity:1;fill-rule:nonzero;stroke:none"
         id="path103559"
         inkscape:connector-curvature="0" /><path
         d="m 312.777,10.501 c 0.782,1.082 1.625,1.625 2.532,1.625 0.82,0 1.539,-0.355 2.156,-1.062 0.613,-0.7 0.922,-1.664 0.922,-2.891 0,-1.43 -0.477,-2.578 -1.422,-3.453 -0.813,-0.75 -1.719,-1.125 -2.719,-1.125 -0.469,0 -0.949,0.086 -1.437,0.25 -0.481,0.176 -0.977,0.437 -1.485,0.781 v 8.328 c 0,0.914 -0.023,1.477 -0.062,1.688 -0.043,0.218 -0.11,0.363 -0.203,0.437 -0.094,0.071 -0.215,0.11 -0.36,0.11 -0.156,0 -0.359,-0.047 -0.609,-0.141 l -0.125,0.312 2.422,0.985 h 0.39 z m 0,-0.562 V 5.126 c 0.301,-0.293 0.61,-0.516 0.922,-0.672 0.321,-0.148 0.649,-0.219 0.985,-0.219 0.531,0 1.023,0.29 1.484,0.875 0.469,0.594 0.703,1.446 0.703,2.563 0,1.031 -0.234,1.82 -0.703,2.375 -0.461,0.562 -0.98,0.844 -1.563,0.844 -0.312,0 -0.621,-0.086 -0.921,-0.25 -0.243,-0.117 -0.543,-0.352 -0.907,-0.703 z"
         style="fill:#000000;fill-opacity:1;fill-rule:nonzero;stroke:none"
         id="path103561"
         inkscape:connector-curvature="0" /><path
         d="m 319.422,15.97 v 0.375 c 0.883,-0.438 1.625,-0.961 2.219,-1.563 0.843,-0.855 1.488,-1.859 1.937,-3.015 0.457,-1.149 0.688,-2.344 0.688,-3.594 0,-1.813 -0.45,-3.469 -1.344,-4.969 -0.887,-1.5 -2.055,-2.566 -3.5,-3.203 v 0.313 c 0.719,0.406 1.312,0.953 1.781,1.64 0.469,0.688 0.813,1.563 1.031,2.625 0.227,1.071 0.344,2.18 0.344,3.328 0,1.25 -0.101,2.391 -0.297,3.422 -0.148,0.813 -0.328,1.457 -0.547,1.938 -0.218,0.488 -0.511,0.957 -0.875,1.406 -0.367,0.457 -0.843,0.891 -1.437,1.297 z"
         style="fill:#000000;fill-opacity:1;fill-rule:nonzero;stroke:none"
         id="path103563"
         inkscape:connector-curvature="0" /><path
         d="M 526.445,0.314 V 0.001 c -0.886,0.438 -1.625,0.961 -2.218,1.563 -0.844,0.843 -1.497,1.843 -1.954,3 -0.46,1.156 -0.687,2.351 -0.687,3.593 0,1.821 0.445,3.477 1.344,4.969 0.894,1.5 2.066,2.57 3.515,3.219 V 15.97 c -0.718,-0.399 -1.312,-0.945 -1.781,-1.641 -0.461,-0.687 -0.805,-1.562 -1.031,-2.625 -0.231,-1.054 -0.344,-2.156 -0.344,-3.312 0,-1.262 0.094,-2.403 0.281,-3.422 0.157,-0.813 0.344,-1.461 0.563,-1.953 0.219,-0.489 0.508,-0.957 0.875,-1.407 0.363,-0.445 0.844,-0.878 1.437,-1.296 z"
         style="fill:#000000;fill-opacity:1;fill-rule:nonzero;stroke:none"
         id="path103565"
         inkscape:connector-curvature="0" /><path
         d="m 534.25,6.907 c -0.219,-1.062 -0.648,-1.882 -1.281,-2.453 -0.637,-0.574 -1.336,-0.859 -2.094,-0.859 -0.918,0 -1.719,0.383 -2.406,1.156 -0.68,0.77 -1.016,1.805 -1.016,3.109 0,1.27 0.375,2.297 1.125,3.079 0.758,0.789 1.664,1.187 2.719,1.187 0.789,0 1.441,-0.211 1.953,-0.625 0.508,-0.418 0.766,-0.851 0.766,-1.297 0,-0.23 -0.075,-0.414 -0.219,-0.547 -0.149,-0.136 -0.344,-0.203 -0.594,-0.203 -0.344,0 -0.605,0.11 -0.781,0.328 -0.106,0.125 -0.172,0.36 -0.203,0.703 -0.031,0.344 -0.153,0.61 -0.36,0.797 -0.199,0.176 -0.48,0.266 -0.843,0.266 -0.594,0 -1.071,-0.219 -1.422,-0.656 -0.469,-0.575 -0.703,-1.336 -0.703,-2.282 0,-0.96 0.234,-1.808 0.703,-2.546 0.469,-0.731 1.101,-1.094 1.906,-1.094 0.57,0 1.086,0.195 1.547,0.594 0.32,0.269 0.633,0.757 0.937,1.468 z"
         style="fill:#000000;fill-opacity:1;fill-rule:nonzero;stroke:none"
         id="path103567"
         inkscape:connector-curvature="0" /><path
         d="m 535.242,15.97 v 0.375 c 0.883,-0.438 1.625,-0.961 2.219,-1.563 0.844,-0.855 1.488,-1.859 1.937,-3.015 0.457,-1.149 0.688,-2.344 0.688,-3.594 0,-1.813 -0.449,-3.469 -1.344,-4.969 -0.887,-1.5 -2.054,-2.566 -3.5,-3.203 v 0.313 c 0.719,0.406 1.313,0.953 1.781,1.64 0.469,0.688 0.813,1.563 1.032,2.625 0.226,1.071 0.343,2.18 0.343,3.328 0,1.25 -0.101,2.391 -0.296,3.422 -0.149,0.813 -0.329,1.457 -0.547,1.938 -0.219,0.488 -0.512,0.957 -0.875,1.406 -0.367,0.457 -0.844,0.891 -1.438,1.297 z"
         style="fill:#000000;fill-opacity:1;fill-rule:nonzero;stroke:none"
         id="path103569"
         inkscape:connector-curvature="0" /></g></g></svg>