<?xml version="1.0" encoding="UTF-8" standalone="no"?>
<!-- Created with Inkscape (http://www.inkscape.org/) -->

<svg
   xmlns:dc="http://purl.org/dc/elements/1.1/"
   xmlns:cc="http://creativecommons.org/ns#"
   xmlns:rdf="http://www.w3.org/1999/02/22-rdf-syntax-ns#"
   xmlns:svg="http://www.w3.org/2000/svg"
   xmlns="http://www.w3.org/2000/svg"
   xmlns:sodipodi="http://sodipodi.sourceforge.net/DTD/sodipodi-0.dtd"
   xmlns:inkscape="http://www.inkscape.org/namespaces/inkscape"
   version="1.1"
   id="svg14805"
   xml:space="preserve"
   width="384"
   height="288"
   viewBox="0 0 384 288"
   sodipodi:docname="cartpole_spin.svg"
   inkscape:version="0.92.3 (2405546, 2018-03-11)"><metadata
     id="metadata14811"><rdf:RDF><cc:Work
         rdf:about=""><dc:format>image/svg+xml</dc:format><dc:type
           rdf:resource="http://purl.org/dc/dcmitype/StillImage" /><dc:title></dc:title></cc:Work></rdf:RDF></metadata><defs
     id="defs14809"><clipPath
       clipPathUnits="userSpaceOnUse"
       id="clipPath14907"><path
         d="M 22.781335,39.511353 H 274.68 V 202.68 H 22.781335 Z"
         id="path14905"
         inkscape:connector-curvature="0" /></clipPath><clipPath
       clipPathUnits="userSpaceOnUse"
       id="clipPath14917"><path
         d="M 22.781335,39.511353 H 274.68 V 202.68 H 22.781335 Z"
         id="path14915"
         inkscape:connector-curvature="0" /></clipPath><clipPath
       clipPathUnits="userSpaceOnUse"
       id="clipPath14927"><path
         d="M 22.781335,39.511353 H 274.68 V 202.68 H 22.781335 Z"
         id="path14925"
         inkscape:connector-curvature="0" /></clipPath></defs><sodipodi:namedview
     pagecolor="#ffffff"
     bordercolor="#666666"
     borderopacity="1"
     objecttolerance="10"
     gridtolerance="10"
     guidetolerance="10"
     inkscape:pageopacity="0"
     inkscape:pageshadow="2"
     inkscape:window-width="909"
     inkscape:window-height="480"
     id="namedview14807"
     showgrid="false"
     inkscape:zoom="0.81944444"
     inkscape:cx="192"
     inkscape:cy="144"
     inkscape:window-x="0"
     inkscape:window-y="0"
     inkscape:window-maximized="0"
     inkscape:current-layer="g14813" /><g
     id="g14813"
     inkscape:groupmode="layer"
     inkscape:label="cartpole_spin"
     transform="matrix(1.3333333,0,0,-1.3333333,0,288)"><path
       d="M 0,0 H 288 V 216 H 0 Z"
       style="fill:#ffffff;fill-opacity:1;fill-rule:nonzero;stroke:none"
       id="path14815"
       inkscape:connector-curvature="0" /><path
       d="M 22.781335,39.511353 H 274.68 V 202.68 H 22.781335 Z"
       style="fill:#ffffff;fill-opacity:1;fill-rule:nonzero;stroke:none"
       id="path14817"
       inkscape:connector-curvature="0" /><path
       d="m 34.231275,39.511353 v -3.5"
       style="fill:#000000;fill-opacity:1;fill-rule:nonzero;stroke:#000000;stroke-width:0.80000001;stroke-linecap:butt;stroke-linejoin:round;stroke-miterlimit:10;stroke-dasharray:none;stroke-opacity:1"
       id="path14819"
       inkscape:connector-curvature="0" /><text
       transform="matrix(1,0,0,-1,31.740607,25.592855)"
       style="font-variant:normal;font-weight:normal;font-size:9.96263981px;font-family:'Computer Modern';-inkscape-font-specification:CMR10;writing-mode:lr-tb;fill:#000000;fill-opacity:1;fill-rule:nonzero;stroke:none"
       id="text14823"><tspan
         x="0"
         y="0"
         id="tspan14821">0</tspan></text>
<path
       d="m 80.040194,39.511353 v -3.5"
       style="fill:#000000;fill-opacity:1;fill-rule:nonzero;stroke:#000000;stroke-width:0.80000001;stroke-linecap:butt;stroke-linejoin:round;stroke-miterlimit:10;stroke-dasharray:none;stroke-opacity:1"
       id="path14825"
       inkscape:connector-curvature="0" /><text
       transform="matrix(1,0,0,-1,77.549526,25.592855)"
       style="font-variant:normal;font-weight:normal;font-size:9.96263981px;font-family:'Computer Modern';-inkscape-font-specification:CMR10;writing-mode:lr-tb;fill:#000000;fill-opacity:1;fill-rule:nonzero;stroke:none"
       id="text14829"><tspan
         x="0"
         y="0"
         id="tspan14827">1</tspan></text>
<path
       d="m 125.84911,39.511353 v -3.5"
       style="fill:#000000;fill-opacity:1;fill-rule:nonzero;stroke:#000000;stroke-width:0.80000001;stroke-linecap:butt;stroke-linejoin:round;stroke-miterlimit:10;stroke-dasharray:none;stroke-opacity:1"
       id="path14831"
       inkscape:connector-curvature="0" /><text
       transform="matrix(1,0,0,-1,123.35844,25.592855)"
       style="font-variant:normal;font-weight:normal;font-size:9.96263981px;font-family:'Computer Modern';-inkscape-font-specification:CMR10;writing-mode:lr-tb;fill:#000000;fill-opacity:1;fill-rule:nonzero;stroke:none"
       id="text14835"><tspan
         x="0"
         y="0"
         id="tspan14833">2</tspan></text>
<path
       d="m 171.65803,39.511353 v -3.5"
       style="fill:#000000;fill-opacity:1;fill-rule:nonzero;stroke:#000000;stroke-width:0.80000001;stroke-linecap:butt;stroke-linejoin:round;stroke-miterlimit:10;stroke-dasharray:none;stroke-opacity:1"
       id="path14837"
       inkscape:connector-curvature="0" /><text
       transform="matrix(1,0,0,-1,169.16736,25.592855)"
       style="font-variant:normal;font-weight:normal;font-size:9.96263981px;font-family:'Computer Modern';-inkscape-font-specification:CMR10;writing-mode:lr-tb;fill:#000000;fill-opacity:1;fill-rule:nonzero;stroke:none"
       id="text14841"><tspan
         x="0"
         y="0"
         id="tspan14839">3</tspan></text>
<path
       d="m 217.46695,39.511353 v -3.5"
       style="fill:#000000;fill-opacity:1;fill-rule:nonzero;stroke:#000000;stroke-width:0.80000001;stroke-linecap:butt;stroke-linejoin:round;stroke-miterlimit:10;stroke-dasharray:none;stroke-opacity:1"
       id="path14843"
       inkscape:connector-curvature="0" /><text
       transform="matrix(1,0,0,-1,214.97628,25.592855)"
       style="font-variant:normal;font-weight:normal;font-size:9.96263981px;font-family:'Computer Modern';-inkscape-font-specification:CMR10;writing-mode:lr-tb;fill:#000000;fill-opacity:1;fill-rule:nonzero;stroke:none"
       id="text14847"><tspan
         x="0"
         y="0"
         id="tspan14845">4</tspan></text>
<path
       d="m 263.27587,39.511353 v -3.5"
       style="fill:#000000;fill-opacity:1;fill-rule:nonzero;stroke:#000000;stroke-width:0.80000001;stroke-linecap:butt;stroke-linejoin:round;stroke-miterlimit:10;stroke-dasharray:none;stroke-opacity:1"
       id="path14849"
       inkscape:connector-curvature="0" /><text
       transform="matrix(1,0,0,-1,260.7852,25.592855)"
       style="font-variant:normal;font-weight:normal;font-size:9.96263981px;font-family:'Computer Modern';-inkscape-font-specification:CMR10;writing-mode:lr-tb;fill:#000000;fill-opacity:1;fill-rule:nonzero;stroke:none"
       id="text14853"><tspan
         x="0"
         y="0"
         id="tspan14851">5</tspan></text>
<text
       transform="matrix(1,0,0,-1,146.93186,12.737178)"
       style="font-variant:normal;font-weight:normal;font-size:9.96263981px;font-family:'Computer Modern';-inkscape-font-specification:CMSS10;writing-mode:lr-tb;fill:#000000;fill-opacity:1;fill-rule:nonzero;stroke:none"
       id="text14857"><tspan
         x="0"
         y="0"
         id="tspan14855">t</tspan></text>
<path
       d="m 22.781335,46.92811 h -3.5"
       style="fill:#000000;fill-opacity:1;fill-rule:nonzero;stroke:#000000;stroke-width:0.80000001;stroke-linecap:butt;stroke-linejoin:round;stroke-miterlimit:10;stroke-dasharray:none;stroke-opacity:1"
       id="path14859"
       inkscape:connector-curvature="0" /><text
       transform="matrix(1,0,0,-1,10.8,43.468861)"
       style="font-variant:normal;font-weight:normal;font-size:9.96263981px;font-family:'Computer Modern';-inkscape-font-specification:CMR10;writing-mode:lr-tb;fill:#000000;fill-opacity:1;fill-rule:nonzero;stroke:none"
       id="text14863"><tspan
         x="0"
         y="0"
         id="tspan14861">0</tspan></text>
<path
       d="m 22.781335,70.543092 h -3.5"
       style="fill:#000000;fill-opacity:1;fill-rule:nonzero;stroke:#000000;stroke-width:0.80000001;stroke-linecap:butt;stroke-linejoin:round;stroke-miterlimit:10;stroke-dasharray:none;stroke-opacity:1"
       id="path14865"
       inkscape:connector-curvature="0" /><text
       transform="matrix(1,0,0,-1,10.8,67.083843)"
       style="font-variant:normal;font-weight:normal;font-size:9.96263981px;font-family:'Computer Modern';-inkscape-font-specification:CMR10;writing-mode:lr-tb;fill:#000000;fill-opacity:1;fill-rule:nonzero;stroke:none"
       id="text14869"><tspan
         x="0"
         y="0"
         id="tspan14867">1</tspan></text>
<path
       d="m 22.781335,94.158074 h -3.5"
       style="fill:#000000;fill-opacity:1;fill-rule:nonzero;stroke:#000000;stroke-width:0.80000001;stroke-linecap:butt;stroke-linejoin:round;stroke-miterlimit:10;stroke-dasharray:none;stroke-opacity:1"
       id="path14871"
       inkscape:connector-curvature="0" /><text
       transform="matrix(1,0,0,-1,10.8,90.698824)"
       style="font-variant:normal;font-weight:normal;font-size:9.96263981px;font-family:'Computer Modern';-inkscape-font-specification:CMR10;writing-mode:lr-tb;fill:#000000;fill-opacity:1;fill-rule:nonzero;stroke:none"
       id="text14875"><tspan
         x="0"
         y="0"
         id="tspan14873">2</tspan></text>
<path
       d="m 22.781335,117.77306 h -3.5"
       style="fill:#000000;fill-opacity:1;fill-rule:nonzero;stroke:#000000;stroke-width:0.80000001;stroke-linecap:butt;stroke-linejoin:round;stroke-miterlimit:10;stroke-dasharray:none;stroke-opacity:1"
       id="path14877"
       inkscape:connector-curvature="0" /><text
       transform="matrix(1,0,0,-1,10.8,114.31381)"
       style="font-variant:normal;font-weight:normal;font-size:9.96263981px;font-family:'Computer Modern';-inkscape-font-specification:CMR10;writing-mode:lr-tb;fill:#000000;fill-opacity:1;fill-rule:nonzero;stroke:none"
       id="text14881"><tspan
         x="0"
         y="0"
         id="tspan14879">3</tspan></text>
<path
       d="m 22.781335,141.38804 h -3.5"
       style="fill:#000000;fill-opacity:1;fill-rule:nonzero;stroke:#000000;stroke-width:0.80000001;stroke-linecap:butt;stroke-linejoin:round;stroke-miterlimit:10;stroke-dasharray:none;stroke-opacity:1"
       id="path14883"
       inkscape:connector-curvature="0" /><text
       transform="matrix(1,0,0,-1,10.8,137.92879)"
       style="font-variant:normal;font-weight:normal;font-size:9.96263981px;font-family:'Computer Modern';-inkscape-font-specification:CMR10;writing-mode:lr-tb;fill:#000000;fill-opacity:1;fill-rule:nonzero;stroke:none"
       id="text14887"><tspan
         x="0"
         y="0"
         id="tspan14885">4</tspan></text>
<path
       d="m 22.781335,165.00302 h -3.5"
       style="fill:#000000;fill-opacity:1;fill-rule:nonzero;stroke:#000000;stroke-width:0.80000001;stroke-linecap:butt;stroke-linejoin:round;stroke-miterlimit:10;stroke-dasharray:none;stroke-opacity:1"
       id="path14889"
       inkscape:connector-curvature="0" /><text
       transform="matrix(1,0,0,-1,10.8,161.54377)"
       style="font-variant:normal;font-weight:normal;font-size:9.96263981px;font-family:'Computer Modern';-inkscape-font-specification:CMR10;writing-mode:lr-tb;fill:#000000;fill-opacity:1;fill-rule:nonzero;stroke:none"
       id="text14893"><tspan
         x="0"
         y="0"
         id="tspan14891">5</tspan></text>
<path
       d="m 22.781335,188.618 h -3.5"
       style="fill:#000000;fill-opacity:1;fill-rule:nonzero;stroke:#000000;stroke-width:0.80000001;stroke-linecap:butt;stroke-linejoin:round;stroke-miterlimit:10;stroke-dasharray:none;stroke-opacity:1"
       id="path14895"
       inkscape:connector-curvature="0" /><text
       transform="matrix(1,0,0,-1,10.8,185.15875)"
       style="font-variant:normal;font-weight:normal;font-size:9.96263981px;font-family:'Computer Modern';-inkscape-font-specification:CMR10;writing-mode:lr-tb;fill:#000000;fill-opacity:1;fill-rule:nonzero;stroke:none"
       id="text14899"><tspan
         x="0"
         y="0"
         id="tspan14897">6</tspan></text>
<g
       id="g14901"><g
         id="g14903"
         clip-path="url(#clipPath14907)"><path
           d="m 34.231275,46.92811 1.282649,0.106065 1.328459,0.339657 1.374268,0.5903 1.465885,0.883365 1.603312,1.241055 1.786548,1.677964 2.10721,2.298419 2.931771,3.562945 5.359644,6.547629 2.198828,2.298472 1.832356,1.600163 1.603313,1.113357 1.465885,0.754526 1.374268,0.461892 1.328458,0.211156 1.28265,-0.01965 1.28265,-0.238845 1.328458,-0.473592 1.420077,-0.749991 1.511694,-1.05602 1.69493,-1.466347 1.969784,-2.017193 2.473681,-2.877593 8.016561,-9.588964 1.923975,-1.822015 1.69493,-1.309569 1.511694,-0.897567 1.420077,-0.588934 1.328458,-0.315542 1.28265,-0.0825 1.28265,0.137427 1.328458,0.371493 1.374268,0.621874 1.465885,0.914769 1.603311,1.271832 1.83236,1.754088 2.15302,2.383457 3.115,3.818951 4.71832,5.765166 2.19883,2.327992 1.83236,1.632211 1.60331,1.145945 1.46589,0.787195 1.37426,0.494286 1.32846,0.24343 1.5575,0.0337 h 139.57978 v 0"
           style="fill:none;stroke:#000000;stroke-width:1.5;stroke-linecap:square;stroke-linejoin:round;stroke-miterlimit:10;stroke-dasharray:none;stroke-opacity:1"
           id="path14909"
           inkscape:connector-curvature="0" /></g></g><g
       id="g14911"><g
         id="g14913"
         clip-path="url(#clipPath14917)"><path
           d="m 34.231275,158.21109 0.916178,-0.1066 0.916178,-0.32844 1.007797,-0.6077 1.099414,-0.9358 1.282649,-1.40572 1.557504,-2.05933 2.748535,-4.08909 2.244637,-3.15947 1.420076,-1.63929 1.191032,-1.04885 1.007796,-0.60499 0.916179,-0.29618 0.82456,-0.0422 0.824561,0.18336 0.82456,0.41934 0.87037,0.70779 0.916178,1.04685 1.007796,1.51465 1.099414,2.08694 1.191032,2.7626 1.328459,3.6635 1.557503,4.98458 2.015593,7.26875 4.947363,18.18072 1.557503,4.68978 1.28265,3.19699 1.145223,2.28167 0.229044,0.38833 m 0.09162,-148.228431 0.961988,1.338095 0.870369,0.853208 0.778752,0.474085 0.732942,0.196949 0.687134,-0.03392 0.732943,-0.268057 0.732943,-0.506149 0.82456,-0.852801 0.916179,-1.298787 m 0.09162,148.227078 1.007797,-1.89733 1.099414,-2.58497 1.191032,-3.4143 1.282649,-4.39998 1.374268,-5.54828 1.511694,-7.06927 1.740739,-9.25604 2.427873,-14.24891 3.435669,-20.03742 1.740739,-8.80683 1.465885,-6.33416 1.328459,-4.82199 1.282653,-3.8443 1.19103,-2.904259 1.14523,-2.246261 1.14522,-1.772432 1.09941,-1.314063 1.14523,-1.024894 1.14522,-0.732164 1.23684,-0.52574 1.37427,-0.337794 1.69493,-0.174647 3.115,-0.03899 2.38207,-0.142746 1.69493,-0.323593 1.46588,-0.502948 1.37427,-0.707478 1.37427,-0.969799 1.78655,-1.206428 1.96978,-1.057375 2.24464,-0.949814 2.79434,-0.930949 4.58089,-1.250881 4.39766,-1.279271 2.61111,-0.986785 2.15302,-1.046763 1.87816,-1.159317 1.69493,-1.307843 1.55751,-1.480768 1.46588,-1.696529 1.42008,-1.984665 1.37426,-2.30453 1.37427,-2.752932 1.32846,-3.160711 1.37427,-3.867622 1.37427,-4.558468 1.42007,-5.515411 0.82456,-3.601336 m 0.0916,147.958686 1.5575,-7.67844 1.74074,-9.76074 2.29045,-14.248 4.44346,-27.86659 1.83236,-9.9021 1.60331,-7.49205 1.51169,-6.03868 1.46588,-4.96252 1.42009,-4.05512 1.42008,-3.410537 1.46588,-2.945127 1.46589,-2.457141 1.51169,-2.115394 1.6033,-1.871668 1.74074,-1.696731 2.01559,-1.648202 2.5653,-1.792165 6.55068,-4.435792 1.96979,-1.68557 1.74074,-1.786128 1.5575,-1.916795 1.46589,-2.154805 1.42008,-2.487519 1.37426,-2.859289 1.37427,-3.385917 1.37427,-3.998535 1.37426,-4.6963 1.42008,-5.664622 0.68714,-3.054137 m 0.0916,147.954374 1.5575,-7.75143 1.74074,-9.83871 2.29043,-14.33407 4.35186,-27.4097 1.83235,-9.9691 1.60331,-7.55138 1.51169,-6.09482 1.46589,-5.0181 1.46588,-4.2332 1.46589,-3.55491 1.46589,-2.983666 1.51169,-2.584634 1.60331,-2.304188 1.74074,-2.110739 2.01559,-2.083154 2.70273,-2.444688 4.71832,-4.234631 1.96978,-2.10063 1.69493,-2.127112 1.55751,-2.313481 1.46588,-2.580435 1.42008,-2.960225 1.37427,-3.383125 1.37426,-3.981869 0.5039,-1.627522 v 0"
           style="fill:none;stroke:#008000;stroke-width:1.5;stroke-linecap:butt;stroke-linejoin:round;stroke-miterlimit:10;stroke-dasharray:5.6, 2.4;stroke-dashoffset:0;stroke-opacity:1"
           id="path14919"
           inkscape:connector-curvature="0" /></g></g><g
       id="g14921"><g
         id="g14923"
         clip-path="url(#clipPath14927)"><path
           d="M 34.231275,84.022437 H 263.23006 v 0"
           style="fill:none;stroke:#ff0000;stroke-width:1.5;stroke-linecap:butt;stroke-linejoin:round;stroke-miterlimit:10;stroke-dasharray:2.2, 2.2;stroke-dashoffset:0;stroke-opacity:1"
           id="path14929"
           inkscape:connector-curvature="0" /></g></g><g
       id="g14931"><path
         d="M 22.781335,39.511353 V 202.68"
         style="fill:none;stroke:#000000;stroke-width:0.80000001;stroke-linecap:square;stroke-linejoin:miter;stroke-miterlimit:10;stroke-dasharray:none;stroke-opacity:1"
         id="path14933"
         inkscape:connector-curvature="0" /><path
         d="M 274.68,39.511353 V 202.68"
         style="fill:none;stroke:#000000;stroke-width:0.80000001;stroke-linecap:square;stroke-linejoin:miter;stroke-miterlimit:10;stroke-dasharray:none;stroke-opacity:1"
         id="path14935"
         inkscape:connector-curvature="0" /><path
         d="M 22.781335,39.511353 H 274.68"
         style="fill:none;stroke:#000000;stroke-width:0.80000001;stroke-linecap:square;stroke-linejoin:miter;stroke-miterlimit:10;stroke-dasharray:none;stroke-opacity:1"
         id="path14937"
         inkscape:connector-curvature="0" /><path
         d="M 22.781335,202.68 H 274.68"
         style="fill:none;stroke:#000000;stroke-width:0.80000001;stroke-linecap:square;stroke-linejoin:miter;stroke-miterlimit:10;stroke-dasharray:none;stroke-opacity:1"
         id="path14939"
         inkscape:connector-curvature="0" /><path
         d="m 123.44604,98.689909 h 50.56926 c 1.33333,0 2,0.666667 2,2.000001 v 40.81153 c 0,1.33334 -0.66667,2 -2,2 h -50.56926 c -1.33334,0 -2,-0.66666 -2,-2 v -40.81153 c 0,-1.333334 0.66666,-2.000001 2,-2.000001 z"
         style="fill:#ffffff;fill-opacity:0.8;fill-rule:nonzero;stroke:#cccccc;stroke-width:1;stroke-linecap:butt;stroke-linejoin:miter;stroke-miterlimit:10;stroke-dasharray:none;stroke-opacity:0.8"
         id="path14941"
         inkscape:connector-curvature="0" /><path
         d="m 125.44604,136.00144 h 19.99999"
         style="fill:none;stroke:#000000;stroke-width:1.5;stroke-linecap:square;stroke-linejoin:round;stroke-miterlimit:10;stroke-dasharray:none;stroke-opacity:1"
         id="path14943"
         inkscape:connector-curvature="0" /><text
         transform="matrix(1,0,0,-1,153.44603,132.50144)"
         style="font-variant:normal;font-weight:normal;font-size:9.96263981px;font-family:'Computer Modern';-inkscape-font-specification:CMSS10;writing-mode:lr-tb;fill:#000000;fill-opacity:1;fill-rule:nonzero;stroke:none"
         id="text14947"><tspan
           x="0"
           y="0"
           id="tspan14945">x</tspan></text>
<path
         d="m 125.44604,122.06427 h 19.99999"
         style="fill:none;stroke:#008000;stroke-width:1.5;stroke-linecap:butt;stroke-linejoin:round;stroke-miterlimit:10;stroke-dasharray:5.6, 2.4;stroke-dashoffset:0;stroke-opacity:1"
         id="path14949"
         inkscape:connector-curvature="0" /><text
         transform="matrix(1,0,0,-1,153.44603,118.56427)"
         style="font-style:italic;font-variant:normal;font-weight:normal;font-size:9.96263981px;font-family:'Computer Modern';-inkscape-font-specification:CMMI10;writing-mode:lr-tb;fill:#000000;fill-opacity:1;fill-rule:nonzero;stroke:none"
         id="text14953"><tspan
           x="0"
           y="0"
           id="tspan14951">θ</tspan></text>
<path
         d="m 125.44604,108.12709 h 19.99999"
         style="fill:none;stroke:#ff0000;stroke-width:1.5;stroke-linecap:butt;stroke-linejoin:round;stroke-miterlimit:10;stroke-dasharray:2.2, 2.2;stroke-dashoffset:0;stroke-opacity:1"
         id="path14955"
         inkscape:connector-curvature="0" /><text
         transform="matrix(1,0,0,-1,153.44603,104.62709)"
         style="font-style:italic;font-variant:normal;font-weight:normal;font-size:9.96263981px;font-family:'Computer Modern';-inkscape-font-specification:CMMI10;writing-mode:lr-tb;fill:#000000;fill-opacity:1;fill-rule:nonzero;stroke:none"
         id="text14959"><tspan
           x="0"
           y="0"
           id="tspan14957">θ</tspan></text>
<text
         transform="matrix(1,0,0,-1,161.72056,104.62709)"
         style="font-variant:normal;font-weight:normal;font-size:9.96263981px;font-family:'Computer Modern';-inkscape-font-specification:CMSS10;writing-mode:lr-tb;fill:#000000;fill-opacity:1;fill-rule:nonzero;stroke:none"
         id="text14963"><tspan
           x="0 5.1407223"
           y="0"
           sodipodi:role="line"
           id="tspan14961">up</tspan></text>
</g></g></svg>