<?xml version="1.0" encoding="UTF-8" standalone="no"?>
<!-- Created with Inkscape (http://www.inkscape.org/) -->

<svg
   xmlns:dc="http://purl.org/dc/elements/1.1/"
   xmlns:cc="http://creativecommons.org/ns#"
   xmlns:rdf="http://www.w3.org/1999/02/22-rdf-syntax-ns#"
   xmlns:svg="http://www.w3.org/2000/svg"
   xmlns="http://www.w3.org/2000/svg"
   xmlns:sodipodi="http://sodipodi.sourceforge.net/DTD/sodipodi-0.dtd"
   xmlns:inkscape="http://www.inkscape.org/namespaces/inkscape"
   version="1.1"
   id="svg5623"
   xml:space="preserve"
   width="348.64062"
   height="198.40041"
   viewBox="0 0 348.64062 198.40041"
   sodipodi:docname="cartpole.svg"
   inkscape:version="0.92.3 (2405546, 2018-03-11)"><metadata
     id="metadata5629"><rdf:RDF><cc:Work
         rdf:about=""><dc:format>image/svg+xml</dc:format><dc:type
           rdf:resource="http://purl.org/dc/dcmitype/StillImage" /><dc:title></dc:title></cc:Work></rdf:RDF></metadata><defs
     id="defs5627" /><sodipodi:namedview
     pagecolor="#ffffff"
     bordercolor="#666666"
     borderopacity="1"
     objecttolerance="10"
     gridtolerance="10"
     guidetolerance="10"
     inkscape:pageopacity="0"
     inkscape:pageshadow="2"
     inkscape:window-width="909"
     inkscape:window-height="480"
     id="namedview5625"
     showgrid="false"
     inkscape:zoom="0.97234796"
     inkscape:cx="174.32031"
     inkscape:cy="99.200203"
     inkscape:window-x="0"
     inkscape:window-y="0"
     inkscape:window-maximized="0"
     inkscape:current-layer="g5631" /><g
     id="g5631"
     inkscape:groupmode="layer"
     inkscape:label="cartpole"
     transform="matrix(1.3333333,0,0,-1.3333333,0,198.40041)"><g
       id="g5633"><path
         d="m 168.512,143.039 v -16.84 h 2.726 l -5.457,-12.078 -5.461,12.078 h 2.731 v 16.84 z"
         style="fill:#ffbf00;fill-opacity:1;fill-rule:evenodd;stroke:#000000;stroke-width:0.95999998;stroke-linecap:butt;stroke-linejoin:miter;stroke-miterlimit:10;stroke-dasharray:none;stroke-opacity:1"
         id="path5635"
         inkscape:connector-curvature="0" /><path
         d="M 0,36.601 H 261.48 V -10e-4 H 0 Z"
         style="fill:#f3b082;fill-opacity:1;fill-rule:evenodd;stroke:none"
         id="path5637"
         inkscape:connector-curvature="0" /><path
         d="m 12.559,63.019 h 243.82 v -1 H 12.559 Z m 1,-3.5 -6,3 6,3 z m 241.82,6 6,-3 -6,-3 z"
         style="fill:#000000;fill-opacity:1;fill-rule:nonzero;stroke:none"
         id="path5639"
         inkscape:connector-curvature="0" /><path
         d="m 97.441,76.32 h 62.52 V 46.562 h -62.52 z"
         style="fill:#d9d9d9;fill-opacity:1;fill-rule:evenodd;stroke:#000000;stroke-width:0.95999998;stroke-linecap:butt;stroke-linejoin:miter;stroke-miterlimit:10;stroke-dasharray:none;stroke-opacity:1"
         id="path5641"
         inkscape:connector-curvature="0" /><path
         d="m 102.539,44.64 c 0,3.809 3.121,6.899 6.961,6.899 3.84,0 6.961,-3.09 6.961,-6.899 0,-3.808 -3.121,-6.898 -6.961,-6.898 -3.84,0 -6.961,3.09 -6.961,6.898 z"
         style="fill:#3f3f3f;fill-opacity:1;fill-rule:evenodd;stroke:#000000;stroke-width:2.27999997;stroke-linecap:butt;stroke-linejoin:miter;stroke-miterlimit:10;stroke-dasharray:none;stroke-opacity:1"
         id="path5643"
         inkscape:connector-curvature="0" /><path
         d="m 138.898,44.64 c 0,3.809 3.122,6.899 6.961,6.899 3.84,0 6.961,-3.09 6.961,-6.899 0,-3.808 -3.121,-6.898 -6.961,-6.898 -3.839,0 -6.961,3.09 -6.961,6.898 z"
         style="fill:#3f3f3f;fill-opacity:1;fill-rule:evenodd;stroke:#000000;stroke-width:2.27999997;stroke-linecap:butt;stroke-linejoin:miter;stroke-miterlimit:10;stroke-dasharray:none;stroke-opacity:1"
         id="path5645"
         inkscape:connector-curvature="0" /><path
         d="m 144.051,60.14 c -0.012,-0.031 -0.028,-0.058 -0.047,-0.078 -0.012,-0.023 -0.039,-0.043 -0.078,-0.062 -0.043,-0.008 -0.102,-0.016 -0.172,-0.016 -0.063,-0.008 -0.141,-0.016 -0.234,-0.016 -0.094,0 -0.172,0.008 -0.235,0.016 -0.055,0 -0.101,0.008 -0.14,0.016 -0.032,0.019 -0.055,0.039 -0.063,0.062 -0.012,0.02 -0.012,0.047 0,0.078 l 0.641,3.266 c 0.019,0.113 0.035,0.219 0.047,0.312 0.019,0.102 0.031,0.207 0.031,0.313 0,0.25 -0.047,0.445 -0.141,0.594 -0.094,0.156 -0.262,0.234 -0.5,0.234 -0.199,0 -0.402,-0.063 -0.609,-0.188 -0.211,-0.117 -0.406,-0.277 -0.594,-0.484 -0.187,-0.211 -0.355,-0.461 -0.5,-0.75 -0.148,-0.293 -0.25,-0.605 -0.312,-0.937 l -0.469,-2.36 c -0.012,-0.031 -0.028,-0.058 -0.047,-0.078 -0.024,-0.023 -0.055,-0.043 -0.094,-0.062 -0.043,-0.008 -0.094,-0.016 -0.156,-0.016 -0.063,-0.008 -0.141,-0.016 -0.234,-0.016 -0.094,0 -0.172,0.008 -0.235,0.016 -0.062,0 -0.109,0.008 -0.14,0.016 -0.032,0.019 -0.055,0.039 -0.063,0.062 -0.012,0.02 -0.016,0.047 -0.016,0.078 l 0.657,3.266 c 0.031,0.113 0.05,0.226 0.062,0.344 0.008,0.113 0.016,0.218 0.016,0.312 0,0.238 -0.055,0.43 -0.156,0.578 -0.094,0.145 -0.262,0.219 -0.5,0.219 -0.2,0 -0.403,-0.063 -0.61,-0.188 -0.211,-0.117 -0.406,-0.277 -0.594,-0.484 -0.187,-0.211 -0.355,-0.461 -0.5,-0.75 -0.136,-0.293 -0.242,-0.605 -0.312,-0.937 l -0.469,-2.36 c 0,-0.031 -0.012,-0.058 -0.031,-0.078 -0.024,-0.023 -0.055,-0.043 -0.094,-0.062 -0.043,-0.008 -0.094,-0.016 -0.156,-0.016 -0.063,-0.008 -0.141,-0.016 -0.234,-0.016 -0.094,0 -0.172,0.008 -0.235,0.016 -0.062,0 -0.109,0.008 -0.14,0.016 -0.032,0.019 -0.055,0.039 -0.063,0.062 -0.012,0.02 -0.016,0.047 -0.016,0.078 l 1.063,5.281 c 0.008,0.032 0.019,0.055 0.031,0.079 0.02,0.019 0.047,0.035 0.078,0.046 0.039,0.02 0.086,0.036 0.141,0.047 0.062,0.008 0.133,0.016 0.219,0.016 0.07,0 0.132,-0.008 0.187,-0.016 0.063,-0.011 0.102,-0.027 0.125,-0.047 0.031,-0.011 0.051,-0.027 0.063,-0.046 0.007,-0.024 0.007,-0.047 0,-0.079 l -0.188,-1 c 0.051,0.133 0.145,0.274 0.281,0.422 0.133,0.145 0.289,0.282 0.469,0.407 0.188,0.125 0.383,0.226 0.594,0.312 0.207,0.082 0.426,0.125 0.656,0.125 0.227,0 0.426,-0.039 0.594,-0.109 0.176,-0.063 0.316,-0.153 0.422,-0.266 0.101,-0.105 0.179,-0.234 0.234,-0.391 0.051,-0.156 0.082,-0.324 0.094,-0.5 0.082,0.133 0.191,0.274 0.328,0.422 0.133,0.145 0.289,0.282 0.469,0.407 0.176,0.125 0.367,0.226 0.578,0.312 0.219,0.082 0.437,0.125 0.656,0.125 0.258,0 0.477,-0.039 0.656,-0.109 0.176,-0.075 0.317,-0.18 0.422,-0.313 0.114,-0.125 0.192,-0.277 0.235,-0.453 0.05,-0.168 0.078,-0.355 0.078,-0.562 0,-0.137 -0.012,-0.274 -0.031,-0.407 -0.012,-0.125 -0.032,-0.261 -0.063,-0.406 z"
         style="fill:#000000;fill-opacity:1;fill-rule:nonzero;stroke:none"
         id="path5647"
         inkscape:connector-curvature="0" /><path
         d="m 149.047,57.367 c 0,-0.055 -0.008,-0.094 -0.016,-0.125 -0.011,-0.032 -0.023,-0.059 -0.031,-0.078 -0.012,-0.024 -0.027,-0.039 -0.047,-0.047 -0.012,-0.012 -0.027,-0.016 -0.047,-0.016 h -2.64 c -0.024,0 -0.043,0.004 -0.063,0.016 -0.012,0.008 -0.027,0.023 -0.047,0.047 -0.011,0.019 -0.023,0.046 -0.031,0.078 v 0.25 c 0.008,0.031 0.02,0.054 0.031,0.078 l 0.047,0.047 c 0.02,0.019 0.039,0.031 0.063,0.031 h 1.047 v 3.844 l -0.969,-0.594 c -0.055,-0.023 -0.094,-0.039 -0.125,-0.047 -0.031,0 -0.059,0.004 -0.078,0.016 -0.012,0.019 -0.024,0.05 -0.032,0.093 v 0.266 c 0,0.031 0.004,0.055 0.016,0.078 0.008,0.02 0.02,0.035 0.031,0.047 0.02,0.02 0.039,0.035 0.063,0.047 l 1.156,0.75 c 0.008,0.008 0.02,0.016 0.031,0.016 0.02,0.007 0.039,0.015 0.063,0.015 0.031,0.008 0.062,0.016 0.094,0.016 h 0.109 c 0.062,0 0.113,-0.008 0.156,-0.016 0.039,0 0.07,-0.008 0.094,-0.015 0.031,-0.012 0.047,-0.028 0.047,-0.047 0.008,-0.012 0.015,-0.024 0.015,-0.032 v -4.437 h 0.922 c 0.02,0 0.035,-0.012 0.047,-0.031 0.02,-0.012 0.035,-0.028 0.047,-0.047 0.02,-0.024 0.031,-0.047 0.031,-0.078 0.008,-0.032 0.016,-0.075 0.016,-0.125 z"
         style="fill:#000000;fill-opacity:1;fill-rule:nonzero;stroke:none"
         id="path5649"
         inkscape:connector-curvature="0" /><path
         d="m 66.418,104.917 c -0.063,0.301 -0.125,0.594 -0.188,0.875 -0.062,0.29 -0.125,0.555 -0.187,0.797 -0.063,0.25 -0.121,0.411 -0.172,0.485 -0.043,0.082 -0.09,0.133 -0.141,0.156 -0.042,0.031 -0.101,0.047 -0.171,0.047 -0.086,0 -0.164,-0.024 -0.235,-0.063 -0.062,-0.031 -0.136,-0.093 -0.219,-0.187 -0.074,-0.086 -0.171,-0.227 -0.296,-0.422 l -0.391,0.25 c 0.25,0.375 0.488,0.648 0.719,0.828 0.226,0.188 0.492,0.281 0.797,0.281 0.125,0 0.226,-0.015 0.312,-0.047 0.094,-0.023 0.176,-0.062 0.25,-0.125 0.07,-0.054 0.133,-0.125 0.188,-0.218 0.05,-0.086 0.101,-0.203 0.156,-0.36 0.051,-0.156 0.098,-0.351 0.14,-0.578 0.051,-0.23 0.094,-0.469 0.125,-0.719 h 0.063 c 0.375,0.532 0.656,0.915 0.844,1.157 0.195,0.25 0.363,0.429 0.5,0.547 0.133,0.125 0.258,0.207 0.375,0.25 0.125,0.05 0.289,0.078 0.5,0.078 0.176,0 0.328,-0.024 0.453,-0.063 l -0.235,-1.062 h -0.421 c -0.024,0.164 -0.09,0.25 -0.204,0.25 -0.031,0 -0.07,-0.012 -0.109,-0.032 -0.043,-0.011 -0.094,-0.039 -0.156,-0.078 -0.055,-0.031 -0.137,-0.105 -0.25,-0.218 -0.106,-0.118 -0.227,-0.258 -0.36,-0.422 -0.136,-0.157 -0.277,-0.328 -0.421,-0.516 l -0.391,-0.5 c 0.07,-0.375 0.141,-0.699 0.203,-0.969 0.063,-0.273 0.113,-0.5 0.156,-0.687 0.051,-0.18 0.094,-0.32 0.125,-0.422 0.039,-0.105 0.082,-0.184 0.125,-0.234 0.039,-0.055 0.082,-0.09 0.125,-0.11 0.051,-0.023 0.11,-0.031 0.172,-0.031 0.102,0 0.203,0.035 0.297,0.109 0.102,0.082 0.25,0.27 0.438,0.563 l 0.375,-0.25 c -0.274,-0.406 -0.516,-0.695 -0.735,-0.86 -0.219,-0.164 -0.484,-0.25 -0.797,-0.25 -0.168,0 -0.308,0.032 -0.422,0.094 -0.117,0.063 -0.218,0.156 -0.312,0.281 -0.086,0.133 -0.156,0.344 -0.219,0.625 -0.125,0.5 -0.199,0.883 -0.219,1.157 h -0.062 c -0.418,-0.586 -0.73,-1.008 -0.938,-1.266 -0.199,-0.25 -0.367,-0.437 -0.5,-0.562 -0.125,-0.118 -0.25,-0.2 -0.375,-0.25 -0.117,-0.051 -0.277,-0.079 -0.484,-0.079 -0.18,0 -0.328,0.028 -0.453,0.079 l 0.234,1.062 h 0.422 c 0.02,-0.168 0.086,-0.25 0.203,-0.25 0.051,0 0.11,0.016 0.172,0.047 0.063,0.031 0.145,0.098 0.25,0.203 0.114,0.113 0.27,0.289 0.469,0.531 0.207,0.239 0.5,0.598 0.875,1.078 z"
         style="fill:#000000;fill-opacity:1;fill-rule:nonzero;stroke:none"
         id="path5651"
         inkscape:connector-curvature="0" /><path
         d="m 74.574,106.511 v 0.781 h 7.219 v -0.781 z m 0,-2.422 v 0.782 h 7.219 v -0.782 z"
         style="fill:#000000;fill-opacity:1;fill-rule:nonzero;stroke:none"
         id="path5653"
         inkscape:connector-curvature="0" /><path
         d="m 90.105,103.621 c -0.335,-0.469 -0.679,-0.829 -1.031,-1.079 -0.344,-0.25 -0.683,-0.375 -1.015,-0.375 -0.43,0 -0.762,0.161 -1,0.485 -0.243,0.332 -0.36,0.789 -0.36,1.375 0,0.664 0.129,1.305 0.391,1.922 0.269,0.625 0.633,1.113 1.094,1.468 0.468,0.364 0.984,0.547 1.546,0.547 0.239,0 0.469,-0.031 0.688,-0.093 0.219,-0.055 0.445,-0.153 0.687,-0.297 l 0.532,0.39 0.375,-0.093 -1.5,-6.672 c -0.063,-0.289 -0.094,-0.508 -0.094,-0.657 0,-0.175 0.039,-0.3 0.125,-0.375 0.094,-0.07 0.266,-0.117 0.516,-0.14 l -0.047,-0.281 h -1.828 l 1.015,3.843 z m 0.485,2.203 c 0.051,0.281 0.078,0.547 0.078,0.797 0,0.312 -0.063,0.535 -0.188,0.671 -0.125,0.133 -0.339,0.204 -0.64,0.204 -0.406,0 -0.766,-0.164 -1.078,-0.485 -0.313,-0.324 -0.563,-0.761 -0.75,-1.312 -0.18,-0.543 -0.266,-1.086 -0.266,-1.625 0,-0.407 0.051,-0.711 0.156,-0.907 0.114,-0.199 0.301,-0.296 0.563,-0.296 0.125,0 0.25,0.023 0.375,0.078 0.125,0.051 0.254,0.133 0.39,0.25 0.133,0.113 0.266,0.254 0.391,0.422 0.133,0.175 0.254,0.347 0.359,0.515 0.114,0.164 0.219,0.364 0.313,0.594 0.094,0.238 0.172,0.52 0.234,0.844 z"
         style="fill:#000000;fill-opacity:1;fill-rule:nonzero;stroke:none"
         id="path5655"
         inkscape:connector-curvature="0" /><path
         d="m 95.309,101.015 v -0.234 c 0.007,-0.063 0.019,-0.121 0.031,-0.172 0.008,-0.043 0.023,-0.078 0.047,-0.109 0.019,-0.032 0.047,-0.059 0.078,-0.079 0.039,-0.043 0.086,-0.074 0.14,-0.093 0.063,-0.012 0.133,-0.028 0.219,-0.047 0.094,-0.012 0.203,-0.024 0.328,-0.031 0.133,0 0.289,-0.008 0.469,-0.016 v -0.375 h -3.484 v 0.375 c 0.176,0.008 0.32,0.016 0.437,0.016 0.125,0.007 0.227,0.019 0.313,0.031 0.082,0.019 0.148,0.035 0.203,0.047 0.051,0.019 0.094,0.039 0.125,0.062 0.039,0.031 0.078,0.063 0.109,0.094 0.031,0.031 0.051,0.066 0.063,0.109 0.019,0.051 0.035,0.11 0.047,0.172 0.007,0.07 0.015,0.156 0.015,0.25 v 3.156 c 0,0.114 -0.023,0.192 -0.062,0.235 -0.043,0.051 -0.106,0.078 -0.188,0.078 -0.094,0 -0.23,-0.047 -0.406,-0.141 -0.18,-0.093 -0.406,-0.234 -0.688,-0.422 -0.042,0.071 -0.078,0.141 -0.109,0.204 -0.031,0.07 -0.07,0.14 -0.109,0.203 0.363,0.195 0.722,0.394 1.078,0.593 0.363,0.196 0.726,0.395 1.094,0.594 h 0.265 c -0.011,-0.156 -0.015,-0.305 -0.015,-0.437 z"
         style="fill:#000000;fill-opacity:1;fill-rule:nonzero;stroke:none"
         id="path5657"
         inkscape:connector-curvature="0" /><path
         d="m 176.918,146.91 c 0.363,0.539 0.723,0.941 1.078,1.203 0.352,0.258 0.711,0.39 1.078,0.39 0.375,0 0.656,-0.109 0.844,-0.328 0.195,-0.211 0.297,-0.515 0.297,-0.922 v -0.171 c 0.332,0.476 0.664,0.832 1,1.062 0.332,0.238 0.68,0.359 1.047,0.359 0.351,0 0.629,-0.105 0.828,-0.312 0.195,-0.211 0.297,-0.5 0.297,-0.875 0,-0.25 -0.059,-0.602 -0.172,-1.047 l -0.391,-1.547 c -0.105,-0.418 -0.156,-0.715 -0.156,-0.89 0,-0.157 0.023,-0.274 0.078,-0.344 0.051,-0.074 0.133,-0.11 0.25,-0.11 0.113,0 0.234,0.047 0.359,0.141 0.133,0.102 0.329,0.285 0.579,0.547 l 0.328,-0.328 c -0.336,-0.356 -0.625,-0.617 -0.875,-0.781 -0.25,-0.165 -0.539,-0.25 -0.86,-0.25 -0.25,0 -0.453,0.089 -0.609,0.265 -0.156,0.188 -0.234,0.422 -0.234,0.703 0,0.25 0.066,0.625 0.203,1.125 l 0.25,1 c 0.093,0.375 0.156,0.645 0.187,0.813 0.031,0.176 0.047,0.32 0.047,0.437 0,0.27 -0.047,0.461 -0.141,0.578 -0.085,0.125 -0.23,0.188 -0.437,0.188 -0.168,0 -0.344,-0.063 -0.531,-0.188 -0.188,-0.125 -0.387,-0.32 -0.594,-0.578 -0.199,-0.261 -0.367,-0.515 -0.5,-0.765 -0.137,-0.25 -0.242,-0.559 -0.313,-0.922 l -0.531,-2.563 h -1.015 l 0.671,2.985 c 0.083,0.351 0.141,0.617 0.172,0.797 0.032,0.175 0.047,0.328 0.047,0.453 0,0.281 -0.054,0.476 -0.156,0.593 -0.105,0.125 -0.262,0.188 -0.469,0.188 -0.148,0 -0.312,-0.063 -0.5,-0.188 -0.187,-0.125 -0.39,-0.324 -0.609,-0.593 -0.219,-0.274 -0.391,-0.532 -0.516,-0.782 -0.117,-0.25 -0.215,-0.558 -0.297,-0.921 l -0.547,-2.532 h -1.015 l 0.844,3.719 c 0.093,0.375 0.14,0.66 0.14,0.859 0,0.157 -0.027,0.27 -0.078,0.344 -0.055,0.07 -0.137,0.11 -0.25,0.11 -0.117,0 -0.242,-0.055 -0.375,-0.157 -0.137,-0.093 -0.324,-0.273 -0.562,-0.531 l -0.329,0.328 c 0.344,0.352 0.641,0.613 0.891,0.781 0.25,0.164 0.52,0.25 0.813,0.25 0.25,0 0.441,-0.086 0.578,-0.25 0.144,-0.156 0.218,-0.367 0.218,-0.625 0,-0.218 -0.042,-0.449 -0.125,-0.687 z"
         style="fill:#000000;fill-opacity:1;fill-rule:nonzero;stroke:none"
         id="path5659"
         inkscape:connector-curvature="0" /><path
         d="m 187.609,141.121 c 0.133,0 0.243,0.004 0.329,0.015 0.082,0.008 0.148,0.031 0.203,0.063 0.062,0.039 0.109,0.093 0.14,0.156 0.039,0.07 0.086,0.172 0.141,0.297 h 0.406 c -0.023,-0.211 -0.039,-0.418 -0.047,-0.625 -0.011,-0.211 -0.027,-0.418 -0.047,-0.625 h -3.718 v 0.234 c 0.07,0.156 0.156,0.305 0.25,0.453 0.093,0.157 0.195,0.313 0.312,0.469 0.125,0.164 0.258,0.332 0.406,0.5 0.145,0.164 0.313,0.344 0.5,0.531 0.27,0.27 0.489,0.5 0.657,0.688 0.175,0.195 0.312,0.375 0.406,0.531 0.101,0.156 0.172,0.297 0.203,0.422 0.039,0.125 0.063,0.258 0.063,0.406 0,0.156 -0.024,0.297 -0.063,0.422 -0.043,0.125 -0.105,0.227 -0.187,0.313 -0.075,0.093 -0.172,0.16 -0.297,0.203 -0.118,0.051 -0.25,0.078 -0.407,0.078 -0.281,0 -0.515,-0.074 -0.703,-0.219 -0.179,-0.148 -0.32,-0.359 -0.422,-0.641 h -0.578 v 0.86 c 0.375,0.156 0.719,0.265 1.032,0.328 0.32,0.07 0.609,0.109 0.859,0.109 0.301,0 0.562,-0.039 0.781,-0.109 0.219,-0.063 0.391,-0.152 0.516,-0.266 0.133,-0.117 0.234,-0.257 0.297,-0.422 0.062,-0.167 0.093,-0.343 0.093,-0.531 0,-0.117 -0.011,-0.226 -0.031,-0.328 -0.012,-0.094 -0.039,-0.187 -0.078,-0.281 -0.043,-0.094 -0.094,-0.195 -0.156,-0.297 -0.063,-0.094 -0.141,-0.195 -0.235,-0.297 -0.074,-0.094 -0.171,-0.203 -0.296,-0.328 -0.118,-0.125 -0.247,-0.262 -0.391,-0.406 l -0.438,-0.438 c -0.148,-0.148 -0.293,-0.297 -0.437,-0.453 -0.137,-0.148 -0.266,-0.293 -0.391,-0.437 -0.125,-0.137 -0.226,-0.262 -0.297,-0.375 z"
         style="fill:#000000;fill-opacity:1;fill-rule:nonzero;stroke:none"
         id="path5661"
         inkscape:connector-curvature="0" /><path
         d="m 128.82,63.941 37.09,80"
         style="fill:none;stroke:#000000;stroke-width:3;stroke-linecap:butt;stroke-linejoin:miter;stroke-miterlimit:10;stroke-dasharray:none;stroke-opacity:1"
         id="path5663"
         inkscape:connector-curvature="0" /><path
         d="m 124.32,62.582 c 0,2.418 1.961,4.378 4.379,4.378 2.422,0 4.383,-1.96 4.383,-4.378 0,-2.422 -1.961,-4.383 -4.383,-4.383 -2.418,0 -4.379,1.961 -4.379,4.383 z"
         style="fill:#ff0000;fill-opacity:1;fill-rule:evenodd;stroke:#000000;stroke-width:0.95999998;stroke-linecap:butt;stroke-linejoin:miter;stroke-miterlimit:10;stroke-dasharray:none;stroke-opacity:1"
         id="path5665"
         inkscape:connector-curvature="0" /><path
         d="m 161.039,144 c 0,2.39 1.961,4.32 4.383,4.32 2.418,0 4.379,-1.93 4.379,-4.32 0,-2.391 -1.961,-4.321 -4.379,-4.321 -2.422,0 -4.383,1.93 -4.383,4.321 z"
         style="fill:#ff0000;fill-opacity:1;fill-rule:evenodd;stroke:#000000;stroke-width:0.95999998;stroke-linecap:butt;stroke-linejoin:miter;stroke-miterlimit:10;stroke-dasharray:none;stroke-opacity:1"
         id="path5667"
         inkscape:connector-curvature="0" /><path
         d="m 152.988,117.8 c 21.953,-9.621 36.133,-31.308 36.133,-55.281"
         style="fill:none;stroke:#000000;stroke-width:0.47999999;stroke-linecap:butt;stroke-linejoin:miter;stroke-miterlimit:10;stroke-dasharray:1.92, 1.44;stroke-dashoffset:0;stroke-opacity:1"
         id="path5669"
         inkscape:connector-curvature="0" /><path
         d="m 196.105,79.226 c -0.585,0 -1.023,0.176 -1.312,0.531 -0.281,0.352 -0.422,0.891 -0.422,1.61 0,0.383 0.039,0.859 0.125,1.422 0.094,0.562 0.238,1.14 0.438,1.734 0.195,0.594 0.445,1.117 0.75,1.578 0.312,0.457 0.671,0.813 1.078,1.063 0.406,0.25 0.843,0.375 1.312,0.375 1.133,0 1.703,-0.719 1.703,-2.157 0,-0.406 -0.047,-0.898 -0.14,-1.468 -0.094,-0.563 -0.242,-1.137 -0.438,-1.719 -0.199,-0.586 -0.449,-1.106 -0.75,-1.563 -0.304,-0.449 -0.656,-0.797 -1.062,-1.047 -0.399,-0.242 -0.824,-0.359 -1.282,-0.359 z m -0.359,4.484 h 2.813 c 0.175,0.821 0.265,1.532 0.265,2.125 0,0.407 -0.07,0.707 -0.203,0.907 -0.125,0.207 -0.328,0.312 -0.609,0.312 -0.461,0 -0.887,-0.293 -1.282,-0.875 -0.386,-0.574 -0.714,-1.398 -0.984,-2.469 z m 2.672,-0.593 h -2.813 c -0.187,-0.856 -0.281,-1.571 -0.281,-2.141 0,-0.437 0.067,-0.762 0.203,-0.969 0.133,-0.211 0.348,-0.312 0.641,-0.312 0.437,0 0.852,0.289 1.25,0.875 0.395,0.594 0.727,1.441 1,2.547 z"
         style="fill:#000000;fill-opacity:1;fill-rule:nonzero;stroke:none"
         id="path5671"
         inkscape:connector-curvature="0" /><path
         d="m 205.016,83.57 v 0.781 h 7.218 V 83.57 Z m 0,-2.422 v 0.781 h 7.218 v -0.781 z"
         style="fill:#000000;fill-opacity:1;fill-rule:nonzero;stroke:none"
         id="path5673"
         inkscape:connector-curvature="0" /><path
         d="m 220.516,80.679 c -0.336,-0.469 -0.68,-0.828 -1.032,-1.078 -0.343,-0.25 -0.683,-0.375 -1.015,-0.375 -0.43,0 -0.762,0.16 -1,0.484 -0.242,0.332 -0.36,0.79 -0.36,1.375 0,0.665 0.129,1.305 0.391,1.922 0.27,0.625 0.633,1.114 1.094,1.469 0.469,0.363 0.984,0.547 1.547,0.547 0.238,0 0.468,-0.031 0.687,-0.094 0.219,-0.054 0.445,-0.152 0.688,-0.297 l 0.531,0.391 0.375,-0.094 -1.5,-6.672 c -0.063,-0.289 -0.094,-0.507 -0.094,-0.656 0,-0.176 0.039,-0.301 0.125,-0.375 0.094,-0.07 0.266,-0.117 0.516,-0.141 l -0.047,-0.281 h -1.828 l 1.015,3.844 z M 221,82.882 c 0.051,0.282 0.078,0.547 0.078,0.797 0,0.313 -0.062,0.535 -0.187,0.672 -0.125,0.133 -0.34,0.203 -0.641,0.203 -0.406,0 -0.766,-0.164 -1.078,-0.484 -0.313,-0.324 -0.563,-0.762 -0.75,-1.313 -0.18,-0.543 -0.266,-1.086 -0.266,-1.625 0,-0.406 0.051,-0.711 0.157,-0.906 0.113,-0.199 0.3,-0.297 0.562,-0.297 0.125,0 0.25,0.024 0.375,0.078 0.125,0.051 0.254,0.133 0.391,0.25 0.132,0.114 0.265,0.254 0.39,0.422 0.133,0.176 0.254,0.348 0.36,0.516 0.113,0.164 0.218,0.363 0.312,0.594 0.094,0.238 0.172,0.519 0.235,0.843 z"
         style="fill:#000000;fill-opacity:1;fill-rule:nonzero;stroke:none"
         id="path5675"
         inkscape:connector-curvature="0" /><path
         d="m 225.75,78.078 v -0.235 c 0.008,-0.062 0.02,-0.121 0.031,-0.172 0.008,-0.043 0.024,-0.078 0.047,-0.109 0.02,-0.031 0.047,-0.059 0.078,-0.078 0.039,-0.043 0.086,-0.074 0.141,-0.094 0.062,-0.012 0.133,-0.027 0.219,-0.047 0.093,-0.011 0.203,-0.023 0.328,-0.031 0.133,0 0.289,-0.008 0.469,-0.016 v -0.375 h -3.485 v 0.375 c 0.176,0.008 0.32,0.016 0.438,0.016 0.125,0.008 0.226,0.02 0.312,0.031 0.082,0.02 0.149,0.035 0.203,0.047 0.051,0.02 0.094,0.039 0.125,0.063 0.039,0.031 0.078,0.062 0.11,0.093 0.031,0.032 0.05,0.067 0.062,0.11 0.02,0.051 0.035,0.109 0.047,0.172 0.008,0.07 0.016,0.156 0.016,0.25 v 3.156 c 0,0.113 -0.024,0.191 -0.063,0.234 -0.043,0.051 -0.105,0.078 -0.187,0.078 -0.094,0 -0.231,-0.046 -0.407,-0.14 -0.179,-0.094 -0.406,-0.235 -0.687,-0.422 -0.043,0.07 -0.078,0.141 -0.109,0.203 -0.032,0.07 -0.071,0.141 -0.11,0.203 0.363,0.195 0.723,0.395 1.078,0.594 0.364,0.195 0.727,0.394 1.094,0.594 h 0.266 c -0.012,-0.157 -0.016,-0.305 -0.016,-0.438 z"
         style="fill:#000000;fill-opacity:1;fill-rule:nonzero;stroke:none"
         id="path5677"
         inkscape:connector-curvature="0" /><path
         d="M 27.961,69.48 V 55.66"
         style="fill:none;stroke:#000000;stroke-width:0.47999999;stroke-linecap:butt;stroke-linejoin:miter;stroke-miterlimit:10;stroke-dasharray:none;stroke-opacity:1"
         id="path5679"
         inkscape:connector-curvature="0" /><path
         d="m 27.961,77.281 c 0,4.711 3.258,8.519 7.277,8.519 h 35.844 c 4.02,0 7.277,3.809 7.277,8.52 0,-4.711 3.262,-8.52 7.282,-8.52 h 35.839 c 4.02,0 7.282,-3.808 7.282,-8.519"
         style="fill:none;stroke:#000000;stroke-width:0.47999999;stroke-linecap:butt;stroke-linejoin:miter;stroke-miterlimit:10;stroke-dasharray:none;stroke-opacity:1"
         id="path5681"
         inkscape:connector-curvature="0" /><path
         d="m 166.199,53.878 h 37.321 v 3.481 l 6.96,-6.957 -6.96,-6.961 v 3.48 h -37.321 z"
         style="fill:#ffff00;fill-opacity:1;fill-rule:evenodd;stroke:#000000;stroke-width:0.95999998;stroke-linecap:butt;stroke-linejoin:miter;stroke-miterlimit:10;stroke-dasharray:none;stroke-opacity:1"
         id="path5683"
         inkscape:connector-curvature="0" /><path
         d="m 223.133,51.523 c -0.086,-0.375 -0.125,-0.664 -0.125,-0.859 0,-0.157 0.023,-0.274 0.078,-0.344 0.051,-0.074 0.129,-0.11 0.234,-0.11 0.125,0 0.25,0.047 0.375,0.141 0.133,0.102 0.321,0.285 0.563,0.547 l 0.344,-0.328 c -0.356,-0.375 -0.657,-0.641 -0.907,-0.797 -0.25,-0.156 -0.515,-0.234 -0.797,-0.234 -0.25,0 -0.449,0.078 -0.593,0.234 -0.137,0.164 -0.203,0.379 -0.203,0.641 0,0.218 0.046,0.453 0.14,0.703 l -0.078,0.015 c -0.387,-0.543 -0.75,-0.945 -1.094,-1.203 -0.343,-0.262 -0.699,-0.39 -1.062,-0.39 -0.367,0 -0.649,0.101 -0.844,0.312 -0.199,0.219 -0.297,0.508 -0.297,0.875 0,0.25 0.055,0.598 0.172,1.047 l 0.391,1.547 c 0.101,0.414 0.156,0.711 0.156,0.89 0,0.157 -0.027,0.27 -0.078,0.344 -0.055,0.071 -0.137,0.11 -0.25,0.11 -0.117,0 -0.242,-0.055 -0.375,-0.157 -0.137,-0.093 -0.324,-0.273 -0.563,-0.531 l -0.328,0.328 c 0.332,0.332 0.582,0.563 0.75,0.688 0.164,0.125 0.328,0.211 0.485,0.265 0.156,0.051 0.328,0.078 0.515,0.078 0.25,0 0.446,-0.085 0.594,-0.25 0.144,-0.168 0.219,-0.398 0.219,-0.687 0,-0.305 -0.063,-0.688 -0.188,-1.156 l -0.25,-1 c -0.074,-0.262 -0.125,-0.465 -0.156,-0.61 -0.023,-0.148 -0.043,-0.273 -0.063,-0.375 -0.011,-0.105 -0.015,-0.195 -0.015,-0.265 0,-0.274 0.039,-0.469 0.125,-0.594 0.094,-0.117 0.242,-0.172 0.453,-0.172 0.164,0 0.344,0.063 0.531,0.188 0.188,0.132 0.383,0.332 0.594,0.593 0.219,0.27 0.391,0.532 0.516,0.782 0.132,0.25 0.242,0.554 0.328,0.921 l 0.547,2.532 h 1.015 z"
         style="fill:#000000;fill-opacity:1;fill-rule:nonzero;stroke:none"
         id="path5685"
         inkscape:connector-curvature="0" /><path
         d="m 227.668,48.386 v -0.234 c 0.008,-0.063 0.02,-0.121 0.031,-0.172 0.008,-0.043 0.024,-0.078 0.047,-0.109 0.02,-0.032 0.047,-0.059 0.078,-0.079 0.039,-0.042 0.086,-0.074 0.141,-0.093 0.062,-0.012 0.133,-0.028 0.219,-0.047 0.093,-0.012 0.203,-0.024 0.328,-0.031 0.133,0 0.289,-0.008 0.468,-0.016 V 47.23 h -3.484 v 0.375 c 0.176,0.008 0.32,0.016 0.438,0.016 0.125,0.007 0.226,0.019 0.312,0.031 0.082,0.019 0.149,0.035 0.203,0.047 0.051,0.019 0.094,0.039 0.125,0.062 0.039,0.031 0.078,0.063 0.11,0.094 0.031,0.031 0.05,0.066 0.062,0.109 0.02,0.051 0.035,0.11 0.047,0.172 0.008,0.071 0.016,0.156 0.016,0.25 v 3.156 c 0,0.114 -0.024,0.192 -0.063,0.235 -0.043,0.051 -0.105,0.078 -0.187,0.078 -0.094,0 -0.231,-0.047 -0.407,-0.141 -0.179,-0.093 -0.406,-0.234 -0.687,-0.422 -0.043,0.071 -0.078,0.141 -0.11,0.204 -0.031,0.07 -0.07,0.14 -0.109,0.203 0.363,0.195 0.723,0.394 1.078,0.593 0.364,0.196 0.727,0.395 1.094,0.594 h 0.266 c -0.012,-0.156 -0.016,-0.304 -0.016,-0.437 z"
         style="fill:#000000;fill-opacity:1;fill-rule:nonzero;stroke:none"
         id="path5687"
         inkscape:connector-curvature="0" /><path
         d="m 177.25,121.402 c 0.363,0.539 0.723,0.941 1.078,1.203 0.352,0.258 0.711,0.391 1.078,0.391 0.375,0 0.657,-0.11 0.844,-0.329 0.195,-0.21 0.297,-0.515 0.297,-0.921 v -0.172 c 0.332,0.476 0.664,0.832 1,1.062 0.332,0.239 0.68,0.36 1.047,0.36 0.351,0 0.629,-0.106 0.828,-0.313 0.195,-0.211 0.297,-0.5 0.297,-0.875 0,-0.25 -0.059,-0.601 -0.172,-1.047 l -0.391,-1.547 C 183.051,118.796 183,118.5 183,118.324 c 0,-0.157 0.023,-0.274 0.078,-0.344 0.051,-0.074 0.133,-0.109 0.25,-0.109 0.113,0 0.235,0.046 0.36,0.14 0.132,0.102 0.328,0.285 0.578,0.547 l 0.328,-0.328 c -0.336,-0.355 -0.625,-0.617 -0.875,-0.781 -0.25,-0.164 -0.539,-0.25 -0.86,-0.25 -0.25,0 -0.453,0.09 -0.609,0.265 -0.156,0.188 -0.234,0.422 -0.234,0.703 0,0.25 0.066,0.625 0.203,1.125 l 0.25,1 c 0.094,0.375 0.156,0.645 0.187,0.813 0.032,0.176 0.047,0.32 0.047,0.437 0,0.27 -0.047,0.461 -0.14,0.579 -0.086,0.125 -0.231,0.187 -0.438,0.187 -0.168,0 -0.344,-0.062 -0.531,-0.187 -0.188,-0.125 -0.387,-0.321 -0.594,-0.579 -0.199,-0.261 -0.367,-0.515 -0.5,-0.765 -0.137,-0.25 -0.242,-0.559 -0.312,-0.922 l -0.532,-2.563 h -1.015 l 0.672,2.985 c 0.082,0.351 0.14,0.617 0.171,0.797 0.032,0.176 0.047,0.328 0.047,0.453 0,0.281 -0.054,0.476 -0.156,0.594 -0.105,0.125 -0.262,0.187 -0.469,0.187 -0.148,0 -0.312,-0.062 -0.5,-0.187 -0.187,-0.125 -0.39,-0.325 -0.609,-0.594 -0.219,-0.274 -0.391,-0.531 -0.516,-0.781 -0.117,-0.25 -0.215,-0.559 -0.297,-0.922 l -0.546,-2.532 h -1.016 l 0.844,3.719 c 0.093,0.375 0.14,0.66 0.14,0.86 0,0.156 -0.027,0.269 -0.078,0.343 -0.055,0.071 -0.137,0.11 -0.25,0.11 -0.117,0 -0.242,-0.055 -0.375,-0.157 -0.137,-0.093 -0.324,-0.273 -0.562,-0.531 l -0.328,0.328 c 0.343,0.352 0.64,0.614 0.89,0.782 0.25,0.164 0.52,0.25 0.813,0.25 0.25,0 0.441,-0.086 0.578,-0.25 0.144,-0.157 0.219,-0.368 0.219,-0.625 0,-0.219 -0.043,-0.45 -0.125,-0.688 z"
         style="fill:#000000;fill-opacity:1;fill-rule:nonzero;stroke:none"
         id="path5689"
         inkscape:connector-curvature="0" /><path
         d="m 187.938,115.609 c 0.132,0 0.242,0.004 0.328,0.016 0.082,0.007 0.148,0.031 0.203,0.062 0.062,0.039 0.109,0.094 0.14,0.156 0.039,0.071 0.086,0.172 0.141,0.297 h 0.406 c -0.023,-0.211 -0.039,-0.418 -0.047,-0.625 -0.011,-0.211 -0.027,-0.418 -0.046,-0.625 h -3.719 v 0.235 c 0.07,0.156 0.156,0.304 0.25,0.453 0.094,0.156 0.195,0.312 0.312,0.468 0.125,0.164 0.258,0.332 0.407,0.5 0.144,0.164 0.312,0.344 0.5,0.532 0.269,0.269 0.488,0.5 0.656,0.687 0.176,0.195 0.312,0.375 0.406,0.531 0.102,0.157 0.172,0.297 0.203,0.422 0.039,0.125 0.063,0.258 0.063,0.407 0,0.156 -0.024,0.296 -0.063,0.421 -0.043,0.125 -0.105,0.227 -0.187,0.313 -0.075,0.094 -0.172,0.16 -0.297,0.203 -0.117,0.051 -0.25,0.078 -0.406,0.078 -0.282,0 -0.516,-0.074 -0.704,-0.219 -0.179,-0.148 -0.32,-0.359 -0.421,-0.64 h -0.579 v 0.859 c 0.375,0.156 0.719,0.266 1.032,0.328 0.32,0.071 0.609,0.11 0.859,0.11 0.301,0 0.563,-0.039 0.781,-0.11 0.219,-0.062 0.391,-0.152 0.516,-0.265 0.133,-0.118 0.234,-0.258 0.297,-0.422 0.062,-0.168 0.094,-0.344 0.094,-0.531 0,-0.118 -0.012,-0.227 -0.032,-0.329 -0.011,-0.093 -0.039,-0.187 -0.078,-0.281 -0.043,-0.094 -0.094,-0.195 -0.156,-0.297 -0.063,-0.093 -0.141,-0.195 -0.234,-0.297 -0.075,-0.093 -0.172,-0.203 -0.297,-0.328 -0.118,-0.125 -0.246,-0.261 -0.391,-0.406 l -0.437,-0.437 c -0.149,-0.149 -0.293,-0.297 -0.438,-0.454 -0.137,-0.148 -0.266,-0.293 -0.391,-0.437 -0.125,-0.137 -0.226,-0.262 -0.296,-0.375 z"
         style="fill:#000000;fill-opacity:1;fill-rule:nonzero;stroke:none"
         id="path5691"
         inkscape:connector-curvature="0" /><path
         d="m 191.707,116.792 c -0.074,-0.093 -0.137,-0.179 -0.187,-0.265 -0.055,-0.094 -0.09,-0.18 -0.11,-0.266 -0.023,-0.082 -0.031,-0.176 -0.031,-0.281 0,-0.301 0.101,-0.516 0.312,-0.641 0.207,-0.132 0.524,-0.203 0.954,-0.203 0.476,0 0.863,0.11 1.156,0.328 0.289,0.211 0.539,0.555 0.75,1.032 0.207,0.48 0.41,1.207 0.609,2.187 l -0.078,0.016 c -0.387,-0.524 -0.742,-0.903 -1.062,-1.141 -0.325,-0.242 -0.672,-0.359 -1.047,-0.359 -0.43,0 -0.762,0.16 -1,0.484 -0.231,0.32 -0.344,0.781 -0.344,1.375 0,0.664 0.129,1.305 0.391,1.922 0.257,0.613 0.617,1.102 1.078,1.469 0.468,0.363 0.988,0.547 1.562,0.547 0.25,0 0.485,-0.032 0.703,-0.094 0.219,-0.055 0.438,-0.152 0.657,-0.297 l 0.531,0.391 0.375,-0.094 -0.594,-2.735 c -0.043,-0.187 -0.141,-0.667 -0.297,-1.437 -0.156,-0.824 -0.289,-1.406 -0.39,-1.75 -0.094,-0.344 -0.219,-0.648 -0.375,-0.922 -0.149,-0.281 -0.34,-0.523 -0.579,-0.734 -0.23,-0.207 -0.511,-0.367 -0.843,-0.485 -0.336,-0.113 -0.731,-0.172 -1.188,-0.172 -1.48,0 -2.219,0.434 -2.219,1.297 0,0.219 0.067,0.418 0.204,0.594 0.132,0.18 0.347,0.367 0.64,0.563 z m 1.688,1.11 c 0.195,0 0.394,0.066 0.593,0.203 0.196,0.133 0.407,0.348 0.625,0.641 0.227,0.3 0.407,0.586 0.532,0.859 0.125,0.27 0.226,0.602 0.312,1 0.094,0.406 0.141,0.754 0.141,1.047 0,0.312 -0.071,0.535 -0.203,0.672 -0.125,0.133 -0.34,0.203 -0.641,0.203 -0.399,0 -0.758,-0.164 -1.078,-0.485 -0.313,-0.324 -0.563,-0.761 -0.75,-1.312 -0.18,-0.543 -0.266,-1.086 -0.266,-1.625 0,-0.406 0.055,-0.711 0.172,-0.906 0.125,-0.199 0.313,-0.297 0.563,-0.297 z"
         style="fill:#000000;fill-opacity:1;fill-rule:nonzero;stroke:none"
         id="path5693"
         inkscape:connector-curvature="0" /></g></g></svg>