<?xml version="1.0" encoding="utf-8"?>
<!-- Generator: Adobe Illustrator 24.1.3, SVG Export Plug-In . SVG Version: 6.00 Build 0)  -->
<svg version="1.1"
	 id="svg5623" inkscape:version="0.92.3 (2405546, 2018-03-11)" sodipodi:docname="cartpole.svg" xmlns:cc="http://creativecommons.org/ns#" xmlns:dc="http://purl.org/dc/elements/1.1/" xmlns:inkscape="http://www.inkscape.org/namespaces/inkscape" xmlns:rdf="http://www.w3.org/1999/02/22-rdf-syntax-ns#" xmlns:sodipodi="http://sodipodi.sourceforge.net/DTD/sodipodi-0.dtd" xmlns:svg="http://www.w3.org/2000/svg"
	 xmlns="http://www.w3.org/2000/svg" xmlns:xlink="http://www.w3.org/1999/xlink" x="0px" y="0px" viewBox="0 0 348.6 198.4"
	 style="enable-background:new 0 0 348.6 198.4;" xml:space="preserve" width="348.64062" height="198.40041" >
<style type="text/css">
	.st0{fill-rule:evenodd;clip-rule:evenodd;fill:#FFBF00;stroke:#000000;stroke-width:1.28;stroke-miterlimit:13.3333;}
	.st1{fill-rule:evenodd;clip-rule:evenodd;fill:#F3B082;}
	.st2{fill-rule:evenodd;clip-rule:evenodd;fill:#D9D9D9;stroke:#000000;stroke-width:1.28;stroke-miterlimit:13.3333;}
	.st3{fill-rule:evenodd;clip-rule:evenodd;fill:#3F3F3F;stroke:#000000;stroke-width:3.04;stroke-miterlimit:13.3333;}
	.st4{fill:none;stroke:#000000;stroke-width:4;stroke-miterlimit:13.3333;}
	.st5{fill-rule:evenodd;clip-rule:evenodd;fill:#FF0000;stroke:#000000;stroke-width:1.28;stroke-miterlimit:13.3333;}
	.st6{fill:none;stroke:#000000;stroke-width:0.64;stroke-miterlimit:13.3333;stroke-dasharray:2.56,1.92;}
	.st7{fill:none;stroke:#000000;stroke-width:0.64;stroke-miterlimit:13.3333;}
	.st8{fill-rule:evenodd;clip-rule:evenodd;fill:#FFFF00;stroke:#000000;stroke-width:1.28;stroke-miterlimit:13.3333;}
</style>
<sodipodi:namedview  bordercolor="#666666" borderopacity="1" gridtolerance="10" guidetolerance="10" id="namedview5625" inkscape:current-layer="g5631" inkscape:cx="174.32031" inkscape:cy="99.200203" inkscape:pageopacity="0" inkscape:pageshadow="2" inkscape:window-height="480" inkscape:window-maximized="0" inkscape:window-width="909" inkscape:window-x="0" inkscape:window-y="0" inkscape:zoom="0.97234796" objecttolerance="10" pagecolor="#ffffff" showgrid="false">
	</sodipodi:namedview>
<g id="g5631" transform="matrix(1.3333333,0,0,-1.3333333,0,198.40041)" inkscape:groupmode="layer" inkscape:label="cartpole">
	<g id="g5633">
		<path id="path5635" inkscape:connector-curvature="0" class="st0" d="M168.5,143v-16.8h2.7l-5.5-12.1l-5.5,12.1h2.7V143H168.5z"/>
		<path id="path5637" inkscape:connector-curvature="0" class="st1" d="M0,36.6h261.5V0H0V36.6z"/>
		<path id="path5639" inkscape:connector-curvature="0" d="M12.6,63h243.8v-1H12.6V63z M13.6,59.5l-6,3l6,3V59.5z M255.4,65.5l6-3
			l-6-3L255.4,65.5z"/>
		<path id="path5641" inkscape:connector-curvature="0" class="st2" d="M97.4,76.3H160V46.6H97.4L97.4,76.3z"/>
		<path id="path5643" inkscape:connector-curvature="0" class="st3" d="M102.5,44.6c0,3.8,3.1,6.9,7,6.9s7-3.1,7-6.9
			c0-3.8-3.1-6.9-7-6.9S102.5,40.8,102.5,44.6z"/>
		<path id="path5645" inkscape:connector-curvature="0" class="st3" d="M138.9,44.6c0,3.8,3.1,6.9,7,6.9c3.8,0,7-3.1,7-6.9
			c0-3.8-3.1-6.9-7-6.9C142,37.7,138.9,40.8,138.9,44.6z"/>
		<path id="path5647" inkscape:connector-curvature="0" d="M144.1,60.1C144,60.1,144,60.1,144.1,60.1C144,60,144,60,143.9,60
			c0,0-0.1,0-0.2,0c-0.1,0-0.1,0-0.2,0c-0.1,0-0.2,0-0.2,0c-0.1,0-0.1,0-0.1,0c0,0-0.1,0-0.1,0.1c0,0,0,0,0,0.1l0.6,3.3
			c0,0.1,0,0.2,0,0.3c0,0.1,0,0.2,0,0.3c0,0.2,0,0.4-0.1,0.6c-0.1,0.2-0.3,0.2-0.5,0.2c-0.2,0-0.4-0.1-0.6-0.2
			c-0.2-0.1-0.4-0.3-0.6-0.5c-0.2-0.2-0.4-0.5-0.5-0.8c-0.1-0.3-0.2-0.6-0.3-0.9l-0.5-2.4c0,0,0-0.1,0-0.1c0,0-0.1,0-0.1-0.1
			c0,0-0.1,0-0.2,0c-0.1,0-0.1,0-0.2,0c-0.1,0-0.2,0-0.2,0c-0.1,0-0.1,0-0.1,0c0,0-0.1,0-0.1,0.1c0,0,0,0,0,0.1l0.7,3.3
			c0,0.1,0.1,0.2,0.1,0.3c0,0.1,0,0.2,0,0.3c0,0.2-0.1,0.4-0.2,0.6c-0.1,0.1-0.3,0.2-0.5,0.2c-0.2,0-0.4-0.1-0.6-0.2
			c-0.2-0.1-0.4-0.3-0.6-0.5c-0.2-0.2-0.4-0.5-0.5-0.8c-0.1-0.3-0.2-0.6-0.3-0.9l-0.5-2.4c0,0,0-0.1,0-0.1c0,0-0.1,0-0.1-0.1
			c0,0-0.1,0-0.2,0c-0.1,0-0.1,0-0.2,0c-0.1,0-0.2,0-0.2,0c-0.1,0-0.1,0-0.1,0c0,0-0.1,0-0.1,0.1c0,0,0,0,0,0.1l1.1,5.3
			c0,0,0,0.1,0,0.1c0,0,0,0,0.1,0c0,0,0.1,0,0.1,0c0.1,0,0.1,0,0.2,0c0.1,0,0.1,0,0.2,0c0.1,0,0.1,0,0.1,0c0,0,0.1,0,0.1,0
			c0,0,0,0,0-0.1l-0.2-1c0.1,0.1,0.1,0.3,0.3,0.4c0.1,0.1,0.3,0.3,0.5,0.4c0.2,0.1,0.4,0.2,0.6,0.3c0.2,0.1,0.4,0.1,0.7,0.1
			c0.2,0,0.4,0,0.6-0.1c0.2-0.1,0.3-0.2,0.4-0.3c0.1-0.1,0.2-0.2,0.2-0.4c0.1-0.2,0.1-0.3,0.1-0.5c0.1,0.1,0.2,0.3,0.3,0.4
			c0.1,0.1,0.3,0.3,0.5,0.4c0.2,0.1,0.4,0.2,0.6,0.3c0.2,0.1,0.4,0.1,0.7,0.1c0.3,0,0.5,0,0.7-0.1c0.2-0.1,0.3-0.2,0.4-0.3
			c0.1-0.1,0.2-0.3,0.2-0.5c0.1-0.2,0.1-0.4,0.1-0.6c0-0.1,0-0.3,0-0.4c0-0.1,0-0.3-0.1-0.4L144.1,60.1z"/>
		<path id="path5649" inkscape:connector-curvature="0" d="M149,57.4c0-0.1,0-0.1,0-0.1c0,0,0-0.1,0-0.1c0,0,0,0,0,0c0,0,0,0,0,0
			h-2.6c0,0,0,0-0.1,0c0,0,0,0,0,0c0,0,0,0,0,0.1v0.2c0,0,0,0.1,0,0.1l0,0c0,0,0,0,0.1,0h1v3.8l-1-0.6c-0.1,0-0.1,0-0.1,0
			c0,0-0.1,0-0.1,0c0,0,0,0,0,0.1v0.3c0,0,0,0.1,0,0.1c0,0,0,0,0,0c0,0,0,0,0.1,0l1.2,0.8c0,0,0,0,0,0c0,0,0,0,0.1,0
			c0,0,0.1,0,0.1,0h0.1c0.1,0,0.1,0,0.2,0c0,0,0.1,0,0.1,0c0,0,0,0,0,0c0,0,0,0,0,0v-4.4h0.9c0,0,0,0,0,0c0,0,0,0,0,0c0,0,0,0,0-0.1
			C149,57.5,149,57.4,149,57.4L149,57.4z"/>
		<path id="path5651" inkscape:connector-curvature="0" d="M66.4,104.9c-0.1,0.3-0.1,0.6-0.2,0.9c-0.1,0.3-0.1,0.6-0.2,0.8
			c-0.1,0.2-0.1,0.4-0.2,0.5c0,0.1-0.1,0.1-0.1,0.2c0,0-0.1,0-0.2,0c-0.1,0-0.2,0-0.2-0.1c-0.1,0-0.1-0.1-0.2-0.2
			c-0.1-0.1-0.2-0.2-0.3-0.4l-0.4,0.2c0.2,0.4,0.5,0.6,0.7,0.8c0.2,0.2,0.5,0.3,0.8,0.3c0.1,0,0.2,0,0.3,0c0.1,0,0.2-0.1,0.2-0.1
			c0.1-0.1,0.1-0.1,0.2-0.2c0.1-0.1,0.1-0.2,0.2-0.4c0.1-0.2,0.1-0.4,0.1-0.6c0.1-0.2,0.1-0.5,0.1-0.7h0.1c0.4,0.5,0.7,0.9,0.8,1.2
			c0.2,0.2,0.4,0.4,0.5,0.5c0.1,0.1,0.3,0.2,0.4,0.2c0.1,0.1,0.3,0.1,0.5,0.1c0.2,0,0.3,0,0.5-0.1l-0.2-1.1h-0.4
			c0,0.2-0.1,0.2-0.2,0.2c0,0-0.1,0-0.1,0c0,0-0.1,0-0.2-0.1c-0.1,0-0.1-0.1-0.2-0.2c-0.1-0.1-0.2-0.3-0.4-0.4
			c-0.1-0.2-0.3-0.3-0.4-0.5l-0.4-0.5c0.1-0.4,0.1-0.7,0.2-1c0.1-0.3,0.1-0.5,0.2-0.7c0.1-0.2,0.1-0.3,0.1-0.4
			c0-0.1,0.1-0.2,0.1-0.2c0-0.1,0.1-0.1,0.1-0.1c0.1,0,0.1,0,0.2,0c0.1,0,0.2,0,0.3,0.1c0.1,0.1,0.2,0.3,0.4,0.6l0.4-0.2
			c-0.3-0.4-0.5-0.7-0.7-0.9c-0.2-0.2-0.5-0.2-0.8-0.2c-0.2,0-0.3,0-0.4,0.1c-0.1,0.1-0.2,0.2-0.3,0.3c-0.1,0.1-0.2,0.3-0.2,0.6
			c-0.1,0.5-0.2,0.9-0.2,1.2h-0.1c-0.4-0.6-0.7-1-0.9-1.3c-0.2-0.2-0.4-0.4-0.5-0.6c-0.1-0.1-0.2-0.2-0.4-0.2
			c-0.1-0.1-0.3-0.1-0.5-0.1c-0.2,0-0.3,0-0.5,0.1l0.2,1.1h0.4c0-0.2,0.1-0.2,0.2-0.2c0.1,0,0.1,0,0.2,0c0.1,0,0.1,0.1,0.2,0.2
			c0.1,0.1,0.3,0.3,0.5,0.5C65.8,104.1,66,104.4,66.4,104.9L66.4,104.9z"/>
		<path id="path5653" inkscape:connector-curvature="0" d="M74.6,106.5v0.8h7.2v-0.8H74.6z M74.6,104.1v0.8h7.2v-0.8H74.6z"/>
		<path id="path5655" inkscape:connector-curvature="0" d="M90.1,103.6c-0.3-0.5-0.7-0.8-1-1.1c-0.3-0.2-0.7-0.4-1-0.4
			c-0.4,0-0.8,0.2-1,0.5c-0.2,0.3-0.4,0.8-0.4,1.4c0,0.7,0.1,1.3,0.4,1.9c0.3,0.6,0.6,1.1,1.1,1.5c0.5,0.4,1,0.5,1.5,0.5
			c0.2,0,0.5,0,0.7-0.1c0.2-0.1,0.4-0.2,0.7-0.3l0.5,0.4l0.4-0.1l-1.5-6.7c-0.1-0.3-0.1-0.5-0.1-0.7c0-0.2,0-0.3,0.1-0.4
			c0.1-0.1,0.3-0.1,0.5-0.1l0-0.3h-1.8L90.1,103.6L90.1,103.6z M90.6,105.8c0.1,0.3,0.1,0.5,0.1,0.8c0,0.3-0.1,0.5-0.2,0.7
			c-0.1,0.1-0.3,0.2-0.6,0.2c-0.4,0-0.8-0.2-1.1-0.5c-0.3-0.3-0.6-0.8-0.8-1.3c-0.2-0.5-0.3-1.1-0.3-1.6c0-0.4,0.1-0.7,0.2-0.9
			c0.1-0.2,0.3-0.3,0.6-0.3c0.1,0,0.2,0,0.4,0.1c0.1,0.1,0.3,0.1,0.4,0.2c0.1,0.1,0.3,0.3,0.4,0.4c0.1,0.2,0.3,0.3,0.4,0.5
			c0.1,0.2,0.2,0.4,0.3,0.6c0.1,0.2,0.2,0.5,0.2,0.8L90.6,105.8z"/>
		<path id="path5657" inkscape:connector-curvature="0" d="M95.3,101v-0.2c0-0.1,0-0.1,0-0.2c0,0,0-0.1,0-0.1c0,0,0-0.1,0.1-0.1
			c0,0,0.1-0.1,0.1-0.1c0.1,0,0.1,0,0.2,0c0.1,0,0.2,0,0.3,0c0.1,0,0.3,0,0.5,0v-0.4h-3.5v0.4c0.2,0,0.3,0,0.4,0c0.1,0,0.2,0,0.3,0
			c0.1,0,0.1,0,0.2,0c0.1,0,0.1,0,0.1,0.1c0,0,0.1,0.1,0.1,0.1s0.1,0.1,0.1,0.1c0,0.1,0,0.1,0,0.2c0,0.1,0,0.2,0,0.2v3.2
			c0,0.1,0,0.2-0.1,0.2c0,0.1-0.1,0.1-0.2,0.1c-0.1,0-0.2,0-0.4-0.1c-0.2-0.1-0.4-0.2-0.7-0.4c0,0.1-0.1,0.1-0.1,0.2
			c0,0.1-0.1,0.1-0.1,0.2c0.4,0.2,0.7,0.4,1.1,0.6c0.4,0.2,0.7,0.4,1.1,0.6h0.3c0-0.2,0-0.3,0-0.4L95.3,101z"/>
		<path id="path5659" inkscape:connector-curvature="0" d="M176.9,146.9c0.4,0.5,0.7,0.9,1.1,1.2c0.4,0.3,0.7,0.4,1.1,0.4
			c0.4,0,0.7-0.1,0.8-0.3c0.2-0.2,0.3-0.5,0.3-0.9v-0.2c0.3,0.5,0.7,0.8,1,1.1c0.3,0.2,0.7,0.4,1,0.4c0.4,0,0.6-0.1,0.8-0.3
			c0.2-0.2,0.3-0.5,0.3-0.9c0-0.2-0.1-0.6-0.2-1l-0.4-1.5c-0.1-0.4-0.2-0.7-0.2-0.9c0-0.2,0-0.3,0.1-0.3c0.1-0.1,0.1-0.1,0.2-0.1
			c0.1,0,0.2,0,0.4,0.1c0.1,0.1,0.3,0.3,0.6,0.5l0.3-0.3c-0.3-0.4-0.6-0.6-0.9-0.8c-0.2-0.2-0.5-0.2-0.9-0.2c-0.2,0-0.5,0.1-0.6,0.3
			c-0.2,0.2-0.2,0.4-0.2,0.7c0,0.2,0.1,0.6,0.2,1.1l0.2,1c0.1,0.4,0.2,0.6,0.2,0.8c0,0.2,0,0.3,0,0.4c0,0.3,0,0.5-0.1,0.6
			c-0.1,0.1-0.2,0.2-0.4,0.2c-0.2,0-0.3-0.1-0.5-0.2c-0.2-0.1-0.4-0.3-0.6-0.6c-0.2-0.3-0.4-0.5-0.5-0.8c-0.1-0.2-0.2-0.6-0.3-0.9
			l-0.5-2.6h-1l0.7,3c0.1,0.4,0.1,0.6,0.2,0.8c0,0.2,0,0.3,0,0.5c0,0.3-0.1,0.5-0.2,0.6c-0.1,0.1-0.3,0.2-0.5,0.2
			c-0.1,0-0.3-0.1-0.5-0.2c-0.2-0.1-0.4-0.3-0.6-0.6c-0.2-0.3-0.4-0.5-0.5-0.8c-0.1-0.2-0.2-0.6-0.3-0.9l-0.5-2.5h-1l0.8,3.7
			c0.1,0.4,0.1,0.7,0.1,0.9c0,0.2,0,0.3-0.1,0.3c-0.1,0.1-0.1,0.1-0.2,0.1c-0.1,0-0.2-0.1-0.4-0.2c-0.1-0.1-0.3-0.3-0.6-0.5
			l-0.3,0.3c0.3,0.4,0.6,0.6,0.9,0.8c0.2,0.2,0.5,0.2,0.8,0.2c0.2,0,0.4-0.1,0.6-0.2c0.1-0.2,0.2-0.4,0.2-0.6
			C177,147.4,176.9,147.2,176.9,146.9L176.9,146.9z"/>
		<path id="path5661" inkscape:connector-curvature="0" d="M187.6,141.1c0.1,0,0.2,0,0.3,0c0.1,0,0.1,0,0.2,0.1
			c0.1,0,0.1,0.1,0.1,0.2c0,0.1,0.1,0.2,0.1,0.3h0.4c0-0.2,0-0.4,0-0.6c0-0.2,0-0.4,0-0.6H185v0.2c0.1,0.2,0.2,0.3,0.2,0.5
			c0.1,0.2,0.2,0.3,0.3,0.5c0.1,0.2,0.3,0.3,0.4,0.5c0.1,0.2,0.3,0.3,0.5,0.5c0.3,0.3,0.5,0.5,0.7,0.7c0.2,0.2,0.3,0.4,0.4,0.5
			c0.1,0.2,0.2,0.3,0.2,0.4c0,0.1,0.1,0.3,0.1,0.4c0,0.2,0,0.3-0.1,0.4c0,0.1-0.1,0.2-0.2,0.3c-0.1,0.1-0.2,0.2-0.3,0.2
			c-0.1,0.1-0.2,0.1-0.4,0.1c-0.3,0-0.5-0.1-0.7-0.2c-0.2-0.1-0.3-0.4-0.4-0.6h-0.6v0.9c0.4,0.2,0.7,0.3,1,0.3
			c0.3,0.1,0.6,0.1,0.9,0.1c0.3,0,0.6,0,0.8-0.1c0.2-0.1,0.4-0.2,0.5-0.3c0.1-0.1,0.2-0.3,0.3-0.4c0.1-0.2,0.1-0.3,0.1-0.5
			c0-0.1,0-0.2,0-0.3c0-0.1,0-0.2-0.1-0.3c0-0.1-0.1-0.2-0.2-0.3c-0.1-0.1-0.1-0.2-0.2-0.3c-0.1-0.1-0.2-0.2-0.3-0.3
			c-0.1-0.1-0.2-0.3-0.4-0.4l-0.4-0.4c-0.1-0.1-0.3-0.3-0.4-0.5c-0.1-0.1-0.3-0.3-0.4-0.4c-0.1-0.1-0.2-0.3-0.3-0.4H187.6z"/>
		<path id="path5663" inkscape:connector-curvature="0" class="st4" d="M128.8,63.9l37.1,80"/>
		<path id="path5665" inkscape:connector-curvature="0" class="st5" d="M124.3,62.6c0,2.4,2,4.4,4.4,4.4c2.4,0,4.4-2,4.4-4.4
			c0-2.4-2-4.4-4.4-4.4C126.3,58.2,124.3,60.2,124.3,62.6L124.3,62.6z"/>
		<path id="path5667" inkscape:connector-curvature="0" class="st5" d="M161,144c0,2.4,2,4.3,4.4,4.3c2.4,0,4.4-1.9,4.4-4.3
			c0-2.4-2-4.3-4.4-4.3C163,139.7,161,141.6,161,144z"/>
		<path id="path5669" inkscape:connector-curvature="0" class="st6" d="M153,117.8c22-9.6,36.1-31.3,36.1-55.3"/>
		<path id="path5671" inkscape:connector-curvature="0" d="M196.1,79.2c-0.6,0-1,0.2-1.3,0.5c-0.3,0.4-0.4,0.9-0.4,1.6
			c0,0.4,0,0.9,0.1,1.4c0.1,0.6,0.2,1.1,0.4,1.7c0.2,0.6,0.4,1.1,0.8,1.6c0.3,0.5,0.7,0.8,1.1,1.1c0.4,0.2,0.8,0.4,1.3,0.4
			c1.1,0,1.7-0.7,1.7-2.2c0-0.4,0-0.9-0.1-1.5c-0.1-0.6-0.2-1.1-0.4-1.7c-0.2-0.6-0.4-1.1-0.8-1.6c-0.3-0.4-0.7-0.8-1.1-1
			C197,79.3,196.6,79.2,196.1,79.2L196.1,79.2z M195.7,83.7h2.8c0.2,0.8,0.3,1.5,0.3,2.1c0,0.4-0.1,0.7-0.2,0.9
			c-0.1,0.2-0.3,0.3-0.6,0.3c-0.5,0-0.9-0.3-1.3-0.9C196.3,85.6,196,84.8,195.7,83.7L195.7,83.7z M198.4,83.1h-2.8
			c-0.2-0.9-0.3-1.6-0.3-2.1c0-0.4,0.1-0.8,0.2-1c0.1-0.2,0.3-0.3,0.6-0.3c0.4,0,0.9,0.3,1.2,0.9C197.8,81.2,198.1,82,198.4,83.1z"
			/>
		<path id="path5673" inkscape:connector-curvature="0" d="M205,83.6v0.8h7.2v-0.8H205z M205,81.1v0.8h7.2v-0.8H205z"/>
		<path id="path5675" inkscape:connector-curvature="0" d="M220.5,80.7c-0.3-0.5-0.7-0.8-1-1.1c-0.3-0.2-0.7-0.4-1-0.4
			c-0.4,0-0.8,0.2-1,0.5c-0.2,0.3-0.4,0.8-0.4,1.4c0,0.7,0.1,1.3,0.4,1.9c0.3,0.6,0.6,1.1,1.1,1.5c0.5,0.4,1,0.5,1.5,0.5
			c0.2,0,0.5,0,0.7-0.1c0.2-0.1,0.4-0.2,0.7-0.3L222,85l0.4-0.1l-1.5-6.7c-0.1-0.3-0.1-0.5-0.1-0.7c0-0.2,0-0.3,0.1-0.4
			c0.1-0.1,0.3-0.1,0.5-0.1l0-0.3h-1.8L220.5,80.7L220.5,80.7z M221,82.9c0.1,0.3,0.1,0.5,0.1,0.8c0,0.3-0.1,0.5-0.2,0.7
			c-0.1,0.1-0.3,0.2-0.6,0.2c-0.4,0-0.8-0.2-1.1-0.5c-0.3-0.3-0.6-0.8-0.8-1.3c-0.2-0.5-0.3-1.1-0.3-1.6c0-0.4,0.1-0.7,0.2-0.9
			c0.1-0.2,0.3-0.3,0.6-0.3c0.1,0,0.2,0,0.4,0.1c0.1,0.1,0.3,0.1,0.4,0.2c0.1,0.1,0.3,0.3,0.4,0.4c0.1,0.2,0.3,0.3,0.4,0.5
			c0.1,0.2,0.2,0.4,0.3,0.6c0.1,0.2,0.2,0.5,0.2,0.8L221,82.9z"/>
		<path id="path5679" inkscape:connector-curvature="0" class="st7" d="M28,69.5V55.7"/>
		<path id="path5681" inkscape:connector-curvature="0" class="st7" d="M28,77.3c0,4.7,3.3,8.5,7.3,8.5h35.8c4,0,7.3,3.8,7.3,8.5
			c0-4.7,3.3-8.5,7.3-8.5h35.8c4,0,7.3-3.8,7.3-8.5"/>
		<path id="path5683" inkscape:connector-curvature="0" class="st8" d="M166.2,53.9h37.3v3.5l7-7l-7-7v3.5h-37.3V53.9z"/>
		<path id="path5685" inkscape:connector-curvature="0" d="M223.1,51.5c-0.1-0.4-0.1-0.7-0.1-0.9c0-0.2,0-0.3,0.1-0.3
			c0.1-0.1,0.1-0.1,0.2-0.1c0.1,0,0.2,0,0.4,0.1c0.1,0.1,0.3,0.3,0.6,0.5l0.3-0.3c-0.4-0.4-0.7-0.6-0.9-0.8
			c-0.2-0.2-0.5-0.2-0.8-0.2c-0.2,0-0.4,0.1-0.6,0.2c-0.1,0.2-0.2,0.4-0.2,0.6c0,0.2,0,0.5,0.1,0.7l-0.1,0c-0.4-0.5-0.8-0.9-1.1-1.2
			c-0.3-0.3-0.7-0.4-1.1-0.4c-0.4,0-0.6,0.1-0.8,0.3c-0.2,0.2-0.3,0.5-0.3,0.9c0,0.2,0.1,0.6,0.2,1l0.4,1.5c0.1,0.4,0.2,0.7,0.2,0.9
			c0,0.2,0,0.3-0.1,0.3c-0.1,0.1-0.1,0.1-0.2,0.1c-0.1,0-0.2-0.1-0.4-0.2c-0.1-0.1-0.3-0.3-0.6-0.5l-0.3,0.3
			c0.3,0.3,0.6,0.6,0.8,0.7c0.2,0.1,0.3,0.2,0.5,0.3c0.2,0.1,0.3,0.1,0.5,0.1c0.2,0,0.4-0.1,0.6-0.2c0.1-0.2,0.2-0.4,0.2-0.7
			c0-0.3-0.1-0.7-0.2-1.2l-0.2-1c-0.1-0.3-0.1-0.5-0.2-0.6c0-0.1,0-0.3-0.1-0.4c0-0.1,0-0.2,0-0.3c0-0.3,0-0.5,0.1-0.6
			c0.1-0.1,0.2-0.2,0.5-0.2c0.2,0,0.3,0.1,0.5,0.2c0.2,0.1,0.4,0.3,0.6,0.6c0.2,0.3,0.4,0.5,0.5,0.8c0.1,0.2,0.2,0.6,0.3,0.9
			l0.5,2.5h1L223.1,51.5z"/>
		<path id="path5687" inkscape:connector-curvature="0" d="M227.7,48.4v-0.2c0-0.1,0-0.1,0-0.2c0,0,0-0.1,0-0.1c0,0,0-0.1,0.1-0.1
			c0,0,0.1-0.1,0.1-0.1c0.1,0,0.1,0,0.2,0c0.1,0,0.2,0,0.3,0c0.1,0,0.3,0,0.5,0v-0.4h-3.5v0.4c0.2,0,0.3,0,0.4,0c0.1,0,0.2,0,0.3,0
			c0.1,0,0.1,0,0.2,0c0.1,0,0.1,0,0.1,0.1c0,0,0.1,0.1,0.1,0.1c0,0,0.1,0.1,0.1,0.1c0,0.1,0,0.1,0,0.2c0,0.1,0,0.2,0,0.2v3.2
			c0,0.1,0,0.2-0.1,0.2c0,0.1-0.1,0.1-0.2,0.1c-0.1,0-0.2,0-0.4-0.1c-0.2-0.1-0.4-0.2-0.7-0.4c0,0.1-0.1,0.1-0.1,0.2
			c0,0.1-0.1,0.1-0.1,0.2c0.4,0.2,0.7,0.4,1.1,0.6c0.4,0.2,0.7,0.4,1.1,0.6h0.3c0-0.2,0-0.3,0-0.4L227.7,48.4z"/>
		<path id="path5689" inkscape:connector-curvature="0" d="M177.3,121.4c0.4,0.5,0.7,0.9,1.1,1.2c0.4,0.3,0.7,0.4,1.1,0.4
			c0.4,0,0.7-0.1,0.8-0.3c0.2-0.2,0.3-0.5,0.3-0.9v-0.2c0.3,0.5,0.7,0.8,1,1.1c0.3,0.2,0.7,0.4,1,0.4c0.4,0,0.6-0.1,0.8-0.3
			c0.2-0.2,0.3-0.5,0.3-0.9c0-0.2-0.1-0.6-0.2-1l-0.4-1.5c-0.1-0.4-0.2-0.7-0.2-0.9c0-0.2,0-0.3,0.1-0.3c0.1-0.1,0.1-0.1,0.2-0.1
			c0.1,0,0.2,0,0.4,0.1c0.1,0.1,0.3,0.3,0.6,0.5l0.3-0.3c-0.3-0.4-0.6-0.6-0.9-0.8s-0.5-0.2-0.9-0.2c-0.2,0-0.5,0.1-0.6,0.3
			c-0.2,0.2-0.2,0.4-0.2,0.7c0,0.2,0.1,0.6,0.2,1.1l0.2,1c0.1,0.4,0.2,0.6,0.2,0.8c0,0.2,0,0.3,0,0.4c0,0.3,0,0.5-0.1,0.6
			c-0.1,0.1-0.2,0.2-0.4,0.2c-0.2,0-0.3-0.1-0.5-0.2c-0.2-0.1-0.4-0.3-0.6-0.6c-0.2-0.3-0.4-0.5-0.5-0.8c-0.1-0.2-0.2-0.6-0.3-0.9
			l-0.5-2.6h-1l0.7,3c0.1,0.4,0.1,0.6,0.2,0.8c0,0.2,0,0.3,0,0.5c0,0.3-0.1,0.5-0.2,0.6c-0.1,0.1-0.3,0.2-0.5,0.2
			c-0.1,0-0.3-0.1-0.5-0.2c-0.2-0.1-0.4-0.3-0.6-0.6c-0.2-0.3-0.4-0.5-0.5-0.8c-0.1-0.2-0.2-0.6-0.3-0.9l-0.5-2.5h-1l0.8,3.7
			c0.1,0.4,0.1,0.7,0.1,0.9c0,0.2,0,0.3-0.1,0.3c-0.1,0.1-0.1,0.1-0.2,0.1c-0.1,0-0.2-0.1-0.4-0.2c-0.1-0.1-0.3-0.3-0.6-0.5
			l-0.3,0.3c0.3,0.4,0.6,0.6,0.9,0.8c0.2,0.2,0.5,0.2,0.8,0.2c0.2,0,0.4-0.1,0.6-0.2c0.1-0.2,0.2-0.4,0.2-0.6
			C177.3,121.9,177.3,121.7,177.3,121.4L177.3,121.4z"/>
		<path id="path5691" inkscape:connector-curvature="0" d="M187.9,115.6c0.1,0,0.2,0,0.3,0c0.1,0,0.1,0,0.2,0.1
			c0.1,0,0.1,0.1,0.1,0.2c0,0.1,0.1,0.2,0.1,0.3h0.4c0-0.2,0-0.4,0-0.6c0-0.2,0-0.4,0-0.6h-3.7v0.2c0.1,0.2,0.2,0.3,0.2,0.5
			c0.1,0.2,0.2,0.3,0.3,0.5c0.1,0.2,0.3,0.3,0.4,0.5c0.1,0.2,0.3,0.3,0.5,0.5c0.3,0.3,0.5,0.5,0.7,0.7c0.2,0.2,0.3,0.4,0.4,0.5
			c0.1,0.2,0.2,0.3,0.2,0.4c0,0.1,0.1,0.3,0.1,0.4c0,0.2,0,0.3-0.1,0.4c0,0.1-0.1,0.2-0.2,0.3c-0.1,0.1-0.2,0.2-0.3,0.2
			c-0.1,0.1-0.2,0.1-0.4,0.1c-0.3,0-0.5-0.1-0.7-0.2c-0.2-0.1-0.3-0.4-0.4-0.6h-0.6v0.9c0.4,0.2,0.7,0.3,1,0.3
			c0.3,0.1,0.6,0.1,0.9,0.1c0.3,0,0.6,0,0.8-0.1c0.2-0.1,0.4-0.2,0.5-0.3c0.1-0.1,0.2-0.3,0.3-0.4c0.1-0.2,0.1-0.3,0.1-0.5
			c0-0.1,0-0.2,0-0.3c0-0.1,0-0.2-0.1-0.3c0-0.1-0.1-0.2-0.2-0.3c-0.1-0.1-0.1-0.2-0.2-0.3c-0.1-0.1-0.2-0.2-0.3-0.3
			c-0.1-0.1-0.2-0.3-0.4-0.4l-0.4-0.4c-0.1-0.1-0.3-0.3-0.4-0.5c-0.1-0.1-0.3-0.3-0.4-0.4c-0.1-0.1-0.2-0.3-0.3-0.4L187.9,115.6z"/>
		<path id="path5691_1_" inkscape:connector-curvature="0" d="M226,77.6c0.1,0,0.2,0,0.3,0c0.1,0,0.1,0,0.2,0.1
			c0.1,0,0.1,0.1,0.1,0.2c0,0.1,0.1,0.2,0.1,0.3h0.4c0-0.2,0-0.4,0-0.6c0-0.2,0-0.4,0-0.6h-3.7v0.2c0.1,0.2,0.2,0.3,0.2,0.5
			c0.1,0.2,0.2,0.3,0.3,0.5c0.1,0.2,0.3,0.3,0.4,0.5c0.1,0.2,0.3,0.3,0.5,0.5c0.3,0.3,0.5,0.5,0.7,0.7c0.2,0.2,0.3,0.4,0.4,0.5
			c0.1,0.2,0.2,0.3,0.2,0.4c0,0.1,0.1,0.3,0.1,0.4c0,0.2,0,0.3-0.1,0.4c0,0.1-0.1,0.2-0.2,0.3c-0.1,0.1-0.2,0.2-0.3,0.2
			c-0.1,0.1-0.2,0.1-0.4,0.1c-0.3,0-0.5-0.1-0.7-0.2c-0.2-0.1-0.3-0.4-0.4-0.6h-0.6v0.9c0.4,0.2,0.7,0.3,1,0.3
			c0.3,0.1,0.6,0.1,0.9,0.1c0.3,0,0.6,0,0.8-0.1c0.2-0.1,0.4-0.2,0.5-0.3c0.1-0.1,0.2-0.3,0.3-0.4c0.1-0.2,0.1-0.3,0.1-0.5
			c0-0.1,0-0.2,0-0.3c0-0.1,0-0.2-0.1-0.3c0-0.1-0.1-0.2-0.2-0.3c-0.1-0.1-0.1-0.2-0.2-0.3c-0.1-0.1-0.2-0.2-0.3-0.3
			c-0.1-0.1-0.2-0.3-0.4-0.4l-0.4-0.4c-0.1-0.1-0.3-0.3-0.4-0.5c-0.1-0.1-0.3-0.3-0.4-0.4c-0.1-0.1-0.2-0.3-0.3-0.4L226,77.6z"/>
		<path id="path5693" inkscape:connector-curvature="0" d="M191.7,116.8c-0.1-0.1-0.1-0.2-0.2-0.3c-0.1-0.1-0.1-0.2-0.1-0.3
			c0-0.1,0-0.2,0-0.3c0-0.3,0.1-0.5,0.3-0.6c0.2-0.1,0.5-0.2,1-0.2c0.5,0,0.9,0.1,1.2,0.3c0.3,0.2,0.5,0.6,0.8,1
			c0.2,0.5,0.4,1.2,0.6,2.2l-0.1,0c-0.4-0.5-0.7-0.9-1.1-1.1c-0.3-0.2-0.7-0.4-1-0.4c-0.4,0-0.8,0.2-1,0.5c-0.2,0.3-0.3,0.8-0.3,1.4
			c0,0.7,0.1,1.3,0.4,1.9c0.3,0.6,0.6,1.1,1.1,1.5c0.5,0.4,1,0.5,1.6,0.5c0.2,0,0.5,0,0.7-0.1c0.2-0.1,0.4-0.2,0.7-0.3l0.5,0.4
			l0.4-0.1l-0.6-2.7c0-0.2-0.1-0.7-0.3-1.4c-0.2-0.8-0.3-1.4-0.4-1.8c-0.1-0.3-0.2-0.6-0.4-0.9c-0.1-0.3-0.3-0.5-0.6-0.7
			c-0.2-0.2-0.5-0.4-0.8-0.5c-0.3-0.1-0.7-0.2-1.2-0.2c-1.5,0-2.2,0.4-2.2,1.3c0,0.2,0.1,0.4,0.2,0.6c0.1,0.2,0.3,0.4,0.6,0.6
			L191.7,116.8z M193.4,117.9c0.2,0,0.4,0.1,0.6,0.2c0.2,0.1,0.4,0.3,0.6,0.6c0.2,0.3,0.4,0.6,0.5,0.9c0.1,0.3,0.2,0.6,0.3,1
			c0.1,0.4,0.1,0.8,0.1,1c0,0.3-0.1,0.5-0.2,0.7c-0.1,0.1-0.3,0.2-0.6,0.2c-0.4,0-0.8-0.2-1.1-0.5c-0.3-0.3-0.6-0.8-0.8-1.3
			c-0.2-0.5-0.3-1.1-0.3-1.6c0-0.4,0.1-0.7,0.2-0.9C193,118,193.1,117.9,193.4,117.9L193.4,117.9z"/>
	</g>
</g>
</svg>
