<?xml version="1.0" encoding="UTF-8" standalone="no"?>
<!-- Created with Inkscape (http://www.inkscape.org/) -->

<svg
   xmlns:dc="http://purl.org/dc/elements/1.1/"
   xmlns:cc="http://creativecommons.org/ns#"
   xmlns:rdf="http://www.w3.org/1999/02/22-rdf-syntax-ns#"
   xmlns:svg="http://www.w3.org/2000/svg"
   xmlns="http://www.w3.org/2000/svg"
   xmlns:sodipodi="http://sodipodi.sourceforge.net/DTD/sodipodi-0.dtd"
   xmlns:inkscape="http://www.inkscape.org/namespaces/inkscape"
   version="1.1"
   id="svg10170"
   xml:space="preserve"
   width="384"
   height="288"
   viewBox="0 0 384 288"
   sodipodi:docname="cartpole_nospin.svg"
   inkscape:version="0.92.3 (2405546, 2018-03-11)"><metadata
     id="metadata10176"><rdf:RDF><cc:Work
         rdf:about=""><dc:format>image/svg+xml</dc:format><dc:type
           rdf:resource="http://purl.org/dc/dcmitype/StillImage" /><dc:title></dc:title></cc:Work></rdf:RDF></metadata><defs
     id="defs10174"><clipPath
       clipPathUnits="userSpaceOnUse"
       id="clipPath10272"><path
         d="M 22.781335,39.511353 H 274.68 V 202.68 H 22.781335 Z"
         id="path10270"
         inkscape:connector-curvature="0" /></clipPath><clipPath
       clipPathUnits="userSpaceOnUse"
       id="clipPath10282"><path
         d="M 22.781335,39.511353 H 274.68 V 202.68 H 22.781335 Z"
         id="path10280"
         inkscape:connector-curvature="0" /></clipPath><clipPath
       clipPathUnits="userSpaceOnUse"
       id="clipPath10292"><path
         d="M 22.781335,39.511353 H 274.68 V 202.68 H 22.781335 Z"
         id="path10290"
         inkscape:connector-curvature="0" /></clipPath></defs><sodipodi:namedview
     pagecolor="#ffffff"
     bordercolor="#666666"
     borderopacity="1"
     objecttolerance="10"
     gridtolerance="10"
     guidetolerance="10"
     inkscape:pageopacity="0"
     inkscape:pageshadow="2"
     inkscape:window-width="909"
     inkscape:window-height="480"
     id="namedview10172"
     showgrid="false"
     inkscape:zoom="0.81944444"
     inkscape:cx="192"
     inkscape:cy="144"
     inkscape:window-x="0"
     inkscape:window-y="0"
     inkscape:window-maximized="0"
     inkscape:current-layer="g10178" /><g
     id="g10178"
     inkscape:groupmode="layer"
     inkscape:label="cartpole_nospin"
     transform="matrix(1.3333333,0,0,-1.3333333,0,288)"><path
       d="M 0,0 H 288 V 216 H 0 Z"
       style="fill:#ffffff;fill-opacity:1;fill-rule:nonzero;stroke:none"
       id="path10180"
       inkscape:connector-curvature="0" /><path
       d="M 22.781335,39.511353 H 274.68 V 202.68 H 22.781335 Z"
       style="fill:#ffffff;fill-opacity:1;fill-rule:nonzero;stroke:none"
       id="path10182"
       inkscape:connector-curvature="0" /><path
       d="m 34.231275,39.511353 v -3.5"
       style="fill:#000000;fill-opacity:1;fill-rule:nonzero;stroke:#000000;stroke-width:0.80000001;stroke-linecap:butt;stroke-linejoin:round;stroke-miterlimit:10;stroke-dasharray:none;stroke-opacity:1"
       id="path10184"
       inkscape:connector-curvature="0" /><text
       transform="matrix(1,0,0,-1,31.740607,25.592855)"
       style="font-variant:normal;font-weight:normal;font-size:9.96263981px;font-family:'Computer Modern';-inkscape-font-specification:CMR10;writing-mode:lr-tb;fill:#000000;fill-opacity:1;fill-rule:nonzero;stroke:none"
       id="text10188"><tspan
         x="0"
         y="0"
         id="tspan10186">0</tspan></text>
<path
       d="m 80.040194,39.511353 v -3.5"
       style="fill:#000000;fill-opacity:1;fill-rule:nonzero;stroke:#000000;stroke-width:0.80000001;stroke-linecap:butt;stroke-linejoin:round;stroke-miterlimit:10;stroke-dasharray:none;stroke-opacity:1"
       id="path10190"
       inkscape:connector-curvature="0" /><text
       transform="matrix(1,0,0,-1,77.549526,25.592855)"
       style="font-variant:normal;font-weight:normal;font-size:9.96263981px;font-family:'Computer Modern';-inkscape-font-specification:CMR10;writing-mode:lr-tb;fill:#000000;fill-opacity:1;fill-rule:nonzero;stroke:none"
       id="text10194"><tspan
         x="0"
         y="0"
         id="tspan10192">1</tspan></text>
<path
       d="m 125.84911,39.511353 v -3.5"
       style="fill:#000000;fill-opacity:1;fill-rule:nonzero;stroke:#000000;stroke-width:0.80000001;stroke-linecap:butt;stroke-linejoin:round;stroke-miterlimit:10;stroke-dasharray:none;stroke-opacity:1"
       id="path10196"
       inkscape:connector-curvature="0" /><text
       transform="matrix(1,0,0,-1,123.35844,25.592855)"
       style="font-variant:normal;font-weight:normal;font-size:9.96263981px;font-family:'Computer Modern';-inkscape-font-specification:CMR10;writing-mode:lr-tb;fill:#000000;fill-opacity:1;fill-rule:nonzero;stroke:none"
       id="text10200"><tspan
         x="0"
         y="0"
         id="tspan10198">2</tspan></text>
<path
       d="m 171.65803,39.511353 v -3.5"
       style="fill:#000000;fill-opacity:1;fill-rule:nonzero;stroke:#000000;stroke-width:0.80000001;stroke-linecap:butt;stroke-linejoin:round;stroke-miterlimit:10;stroke-dasharray:none;stroke-opacity:1"
       id="path10202"
       inkscape:connector-curvature="0" /><text
       transform="matrix(1,0,0,-1,169.16736,25.592855)"
       style="font-variant:normal;font-weight:normal;font-size:9.96263981px;font-family:'Computer Modern';-inkscape-font-specification:CMR10;writing-mode:lr-tb;fill:#000000;fill-opacity:1;fill-rule:nonzero;stroke:none"
       id="text10206"><tspan
         x="0"
         y="0"
         id="tspan10204">3</tspan></text>
<path
       d="m 217.46695,39.511353 v -3.5"
       style="fill:#000000;fill-opacity:1;fill-rule:nonzero;stroke:#000000;stroke-width:0.80000001;stroke-linecap:butt;stroke-linejoin:round;stroke-miterlimit:10;stroke-dasharray:none;stroke-opacity:1"
       id="path10208"
       inkscape:connector-curvature="0" /><text
       transform="matrix(1,0,0,-1,214.97628,25.592855)"
       style="font-variant:normal;font-weight:normal;font-size:9.96263981px;font-family:'Computer Modern';-inkscape-font-specification:CMR10;writing-mode:lr-tb;fill:#000000;fill-opacity:1;fill-rule:nonzero;stroke:none"
       id="text10212"><tspan
         x="0"
         y="0"
         id="tspan10210">4</tspan></text>
<path
       d="m 263.27587,39.511353 v -3.5"
       style="fill:#000000;fill-opacity:1;fill-rule:nonzero;stroke:#000000;stroke-width:0.80000001;stroke-linecap:butt;stroke-linejoin:round;stroke-miterlimit:10;stroke-dasharray:none;stroke-opacity:1"
       id="path10214"
       inkscape:connector-curvature="0" /><text
       transform="matrix(1,0,0,-1,260.7852,25.592855)"
       style="font-variant:normal;font-weight:normal;font-size:9.96263981px;font-family:'Computer Modern';-inkscape-font-specification:CMR10;writing-mode:lr-tb;fill:#000000;fill-opacity:1;fill-rule:nonzero;stroke:none"
       id="text10218"><tspan
         x="0"
         y="0"
         id="tspan10216">5</tspan></text>
<text
       transform="matrix(1,0,0,-1,146.93186,12.737178)"
       style="font-variant:normal;font-weight:normal;font-size:9.96263981px;font-family:'Computer Modern';-inkscape-font-specification:CMSS10;writing-mode:lr-tb;fill:#000000;fill-opacity:1;fill-rule:nonzero;stroke:none"
       id="text10222"><tspan
         x="0"
         y="0"
         id="tspan10220">t</tspan></text>
<path
       d="m 22.781335,46.92811 h -3.5"
       style="fill:#000000;fill-opacity:1;fill-rule:nonzero;stroke:#000000;stroke-width:0.80000001;stroke-linecap:butt;stroke-linejoin:round;stroke-miterlimit:10;stroke-dasharray:none;stroke-opacity:1"
       id="path10224"
       inkscape:connector-curvature="0" /><text
       transform="matrix(1,0,0,-1,10.8,43.468861)"
       style="font-variant:normal;font-weight:normal;font-size:9.96263981px;font-family:'Computer Modern';-inkscape-font-specification:CMR10;writing-mode:lr-tb;fill:#000000;fill-opacity:1;fill-rule:nonzero;stroke:none"
       id="text10228"><tspan
         x="0"
         y="0"
         id="tspan10226">0</tspan></text>
<path
       d="m 22.781335,72.319047 h -3.5"
       style="fill:#000000;fill-opacity:1;fill-rule:nonzero;stroke:#000000;stroke-width:0.80000001;stroke-linecap:butt;stroke-linejoin:round;stroke-miterlimit:10;stroke-dasharray:none;stroke-opacity:1"
       id="path10230"
       inkscape:connector-curvature="0" /><text
       transform="matrix(1,0,0,-1,10.8,68.859798)"
       style="font-variant:normal;font-weight:normal;font-size:9.96263981px;font-family:'Computer Modern';-inkscape-font-specification:CMR10;writing-mode:lr-tb;fill:#000000;fill-opacity:1;fill-rule:nonzero;stroke:none"
       id="text10234"><tspan
         x="0"
         y="0"
         id="tspan10232">1</tspan></text>
<path
       d="m 22.781335,97.709984 h -3.5"
       style="fill:#000000;fill-opacity:1;fill-rule:nonzero;stroke:#000000;stroke-width:0.80000001;stroke-linecap:butt;stroke-linejoin:round;stroke-miterlimit:10;stroke-dasharray:none;stroke-opacity:1"
       id="path10236"
       inkscape:connector-curvature="0" /><text
       transform="matrix(1,0,0,-1,10.8,94.250735)"
       style="font-variant:normal;font-weight:normal;font-size:9.96263981px;font-family:'Computer Modern';-inkscape-font-specification:CMR10;writing-mode:lr-tb;fill:#000000;fill-opacity:1;fill-rule:nonzero;stroke:none"
       id="text10240"><tspan
         x="0"
         y="0"
         id="tspan10238">2</tspan></text>
<path
       d="m 22.781335,123.10092 h -3.5"
       style="fill:#000000;fill-opacity:1;fill-rule:nonzero;stroke:#000000;stroke-width:0.80000001;stroke-linecap:butt;stroke-linejoin:round;stroke-miterlimit:10;stroke-dasharray:none;stroke-opacity:1"
       id="path10242"
       inkscape:connector-curvature="0" /><text
       transform="matrix(1,0,0,-1,10.8,119.64167)"
       style="font-variant:normal;font-weight:normal;font-size:9.96263981px;font-family:'Computer Modern';-inkscape-font-specification:CMR10;writing-mode:lr-tb;fill:#000000;fill-opacity:1;fill-rule:nonzero;stroke:none"
       id="text10246"><tspan
         x="0"
         y="0"
         id="tspan10244">3</tspan></text>
<path
       d="m 22.781335,148.49186 h -3.5"
       style="fill:#000000;fill-opacity:1;fill-rule:nonzero;stroke:#000000;stroke-width:0.80000001;stroke-linecap:butt;stroke-linejoin:round;stroke-miterlimit:10;stroke-dasharray:none;stroke-opacity:1"
       id="path10248"
       inkscape:connector-curvature="0" /><text
       transform="matrix(1,0,0,-1,10.8,145.03261)"
       style="font-variant:normal;font-weight:normal;font-size:9.96263981px;font-family:'Computer Modern';-inkscape-font-specification:CMR10;writing-mode:lr-tb;fill:#000000;fill-opacity:1;fill-rule:nonzero;stroke:none"
       id="text10252"><tspan
         x="0"
         y="0"
         id="tspan10250">4</tspan></text>
<path
       d="m 22.781335,173.8828 h -3.5"
       style="fill:#000000;fill-opacity:1;fill-rule:nonzero;stroke:#000000;stroke-width:0.80000001;stroke-linecap:butt;stroke-linejoin:round;stroke-miterlimit:10;stroke-dasharray:none;stroke-opacity:1"
       id="path10254"
       inkscape:connector-curvature="0" /><text
       transform="matrix(1,0,0,-1,10.8,170.42355)"
       style="font-variant:normal;font-weight:normal;font-size:9.96263981px;font-family:'Computer Modern';-inkscape-font-specification:CMR10;writing-mode:lr-tb;fill:#000000;fill-opacity:1;fill-rule:nonzero;stroke:none"
       id="text10258"><tspan
         x="0"
         y="0"
         id="tspan10256">5</tspan></text>
<path
       d="m 22.781335,199.27373 h -3.5"
       style="fill:#000000;fill-opacity:1;fill-rule:nonzero;stroke:#000000;stroke-width:0.80000001;stroke-linecap:butt;stroke-linejoin:round;stroke-miterlimit:10;stroke-dasharray:none;stroke-opacity:1"
       id="path10260"
       inkscape:connector-curvature="0" /><text
       transform="matrix(1,0,0,-1,10.8,195.81448)"
       style="font-variant:normal;font-weight:normal;font-size:9.96263981px;font-family:'Computer Modern';-inkscape-font-specification:CMR10;writing-mode:lr-tb;fill:#000000;fill-opacity:1;fill-rule:nonzero;stroke:none"
       id="text10264"><tspan
         x="0"
         y="0"
         id="tspan10262">6</tspan></text>
<g
       id="g10266"><g
         id="g10268"
         clip-path="url(#clipPath10272)"><path
           d="m 34.231275,46.92811 1.557503,0.109684 1.557503,0.333775 1.603312,0.571431 1.69493,0.843556 1.832357,1.168535 2.015592,1.559575 2.290446,2.063292 2.885962,2.921289 9.986345,10.396747 2.290446,1.903688 1.969783,1.359333 1.832357,0.997733 1.69493,0.671975 1.603312,0.400457 1.557503,0.16273 1.557503,-0.06317 1.557504,-0.287888 1.603312,-0.525584 1.69493,-0.797429 1.786548,-1.091152 1.969783,-1.470727 2.244637,-1.965682 2.748535,-2.72367 4.580892,-4.917946 4.076994,-4.24708 2.611109,-2.403576 2.153019,-1.691621 1.923978,-1.238516 1.78654,-0.888215 1.64913,-0.577353 1.60331,-0.326645 1.5575,-0.08975 1.5575,0.136223 1.55751,0.359828 1.60331,0.597254 1.69493,0.86922 1.83236,1.193779 2.01559,1.583621 2.33625,2.129305 2.93177,2.991902 9.34502,9.773184 2.33626,1.989119 2.01559,1.43371 1.83236,1.038134 1.69493,0.712255 1.60331,0.440346 1.5575,0.202415 2.29045,0.01781 h 117.31664 v 0"
           style="fill:none;stroke:#000000;stroke-width:1.5;stroke-linecap:square;stroke-linejoin:round;stroke-miterlimit:10;stroke-dasharray:none;stroke-opacity:1"
           id="path10274"
           inkscape:connector-curvature="0" /></g></g><g
       id="g10276"><g
         id="g10278"
         clip-path="url(#clipPath10282)"><path
           d="m 34.231275,166.58008 1.099414,-0.10783 1.099414,-0.32964 1.191032,-0.59545 1.328458,-0.92982 1.511695,-1.34447 1.969783,-2.07411 4.947363,-5.34491 1.511695,-1.22726 1.23684,-0.73267 1.099415,-0.40598 1.007796,-0.14524 0.961987,0.0798 0.961987,0.30477 0.961988,0.5377 1.007796,0.81812 1.099414,1.19102 1.191032,1.63633 1.328458,2.2316 1.465886,2.91828 1.740739,3.99037 2.336255,5.97075 4.6267,11.92969 1.69493,3.68972 1.374268,2.49512 1.191032,1.73095 1.053605,1.16009 0.961987,0.73436 0.87037,0.38609 0.778751,0.11573 0.778752,-0.10417 0.778752,-0.32523 0.82456,-0.58486 0.916179,-0.93708 1.007796,-1.37306 1.099414,-1.8931 1.236841,-2.5966 1.374267,-3.41757 1.603312,-4.60387 1.969784,-6.36552 3.298242,-11.55543 3.023389,-10.28088 1.878165,-5.6192 1.511695,-3.8625 1.328457,-2.80768 1.14522,-1.93028 1.0078,-1.29801 0.91618,-0.84132 0.82456,-0.4748 0.77875,-0.19961 0.73294,0.0339 0.73295,0.24858 0.77875,0.49726 0.87037,0.83528 0.96198,1.25684 1.05361,1.76074 1.19103,2.44115 1.37427,3.34813 1.64912,4.63982 2.19883,6.91287 5.54288,17.73048 1.78655,4.83747 1.51169,3.49592 1.32846,2.55234 1.19103,1.84156 1.09941,1.30827 1.0078,0.86145 0.91618,0.50062 0.87037,0.22731 0.82456,-0.005 0.87037,-0.23237 0.91618,-0.48819 0.96198,-0.76833 1.09942,-1.17609 1.23684,-1.6632 1.46588,-2.36125 1.92398,-3.56074 4.26023,-8.52628 6.77972,-13.96924 1.51169,-2.39519 1.28265,-1.6458 1.14523,-1.13044 1.0536,-0.73604 0.96199,-0.40623 0.91618,-0.14534 0.87037,0.0821 0.91617,0.31729 0.96199,0.58376 1.0078,0.87812 1.14522,1.3116 1.28265,1.83236 1.46589,2.50202 1.83235,3.60229 2.97758,6.43949 2.93177,6.15793 1.78655,3.24496 1.46589,2.21319 1.23684,1.48744 1.09941,0.99784 1.0078,0.62928 0.91618,0.32637 0.91617,0.0879 0.87037,-0.13859 0.91618,-0.37804 0.96199,-0.64814 1.0536,-0.9945 1.14523,-1.39892 1.32846,-1.99956 1.51169,-2.6956 1.92397,-3.91362 6.77972,-14.23955 1.5117,-2.44426 1.28265,-1.681 1.14522,-1.15626 1.05361,-0.75476 0.96198,-0.41893 0.91618,-0.15341 0.87037,0.0781 0.87037,0.29557 0.91618,0.54245 1.0078,0.86267 1.09941,1.24349 1.23684,1.74714 1.42008,2.40566 1.74074,3.41405 2.5653,5.59087 3.6189,7.83118 1.78655,3.33086 1.46588,2.28118 1.23684,1.54124 1.09942,1.04189 1.00779,0.66589 0.91618,0.35609 0.87037,0.11395 0.87037,-0.10609 0.87037,-0.32507 0.96199,-0.60973 1.0078,-0.91187 1.14522,-1.35756 1.28265,-1.89261 1.46588,-2.58062 1.83236,-3.71141 3.02339,-6.73033 2.88596,-6.2265 1.74074,-3.25375 1.46589,-2.28553 1.23684,-1.53941 1.09941,-1.03623 1.0078,-0.65754 0.91618,-0.34603 0.87036,-0.10237 0.87037,0.11953 0.87037,0.34021 0.96199,0.62825 1.0078,0.93304 1.14522,1.38349 1.28265,1.92341 1.46589,2.61714 1.83235,3.75711 0.0458,0.0991 v 0"
           style="fill:none;stroke:#008000;stroke-width:1.5;stroke-linecap:butt;stroke-linejoin:round;stroke-miterlimit:10;stroke-dasharray:5.6, 2.4;stroke-dashoffset:0;stroke-opacity:1"
           id="path10284"
           inkscape:connector-curvature="0" /></g></g><g
       id="g10286"><g
         id="g10288"
         clip-path="url(#clipPath10292)"><path
           d="M 34.231275,86.812101 H 263.23006 v 0"
           style="fill:none;stroke:#ff0000;stroke-width:1.5;stroke-linecap:butt;stroke-linejoin:round;stroke-miterlimit:10;stroke-dasharray:2.2, 2.2;stroke-dashoffset:0;stroke-opacity:1"
           id="path10294"
           inkscape:connector-curvature="0" /></g></g><g
       id="g10296"><path
         d="M 22.781335,39.511353 V 202.68"
         style="fill:none;stroke:#000000;stroke-width:0.80000001;stroke-linecap:square;stroke-linejoin:miter;stroke-miterlimit:10;stroke-dasharray:none;stroke-opacity:1"
         id="path10298"
         inkscape:connector-curvature="0" /><path
         d="M 274.68,39.511353 V 202.68"
         style="fill:none;stroke:#000000;stroke-width:0.80000001;stroke-linecap:square;stroke-linejoin:miter;stroke-miterlimit:10;stroke-dasharray:none;stroke-opacity:1"
         id="path10300"
         inkscape:connector-curvature="0" /><path
         d="M 22.781335,39.511353 H 274.68"
         style="fill:none;stroke:#000000;stroke-width:0.80000001;stroke-linecap:square;stroke-linejoin:miter;stroke-miterlimit:10;stroke-dasharray:none;stroke-opacity:1"
         id="path10302"
         inkscape:connector-curvature="0" /><path
         d="M 22.781335,202.68 H 274.68"
         style="fill:none;stroke:#000000;stroke-width:0.80000001;stroke-linecap:square;stroke-linejoin:miter;stroke-miterlimit:10;stroke-dasharray:none;stroke-opacity:1"
         id="path10304"
         inkscape:connector-curvature="0" /><path
         d="M 217.11073,98.689909 H 267.68 c 1.33333,0 2,0.666667 2,2.000001 v 40.81153 c 0,1.33334 -0.66667,2 -2,2 h -50.56927 c -1.33333,0 -2,-0.66666 -2,-2 v -40.81153 c 0,-1.333334 0.66667,-2.000001 2,-2.000001 z"
         style="fill:#ffffff;fill-opacity:0.8;fill-rule:nonzero;stroke:#cccccc;stroke-width:1;stroke-linecap:butt;stroke-linejoin:miter;stroke-miterlimit:10;stroke-dasharray:none;stroke-opacity:0.8"
         id="path10306"
         inkscape:connector-curvature="0" /><path
         d="m 219.11073,136.00144 h 20"
         style="fill:none;stroke:#000000;stroke-width:1.5;stroke-linecap:square;stroke-linejoin:round;stroke-miterlimit:10;stroke-dasharray:none;stroke-opacity:1"
         id="path10308"
         inkscape:connector-curvature="0" /><text
         transform="matrix(1,0,0,-1,247.11073,132.50144)"
         style="font-variant:normal;font-weight:normal;font-size:9.96263981px;font-family:'Computer Modern';-inkscape-font-specification:CMSS10;writing-mode:lr-tb;fill:#000000;fill-opacity:1;fill-rule:nonzero;stroke:none"
         id="text10312"><tspan
           x="0"
           y="0"
           id="tspan10310">x</tspan></text>
<path
         d="m 219.11073,122.06427 h 20"
         style="fill:none;stroke:#008000;stroke-width:1.5;stroke-linecap:butt;stroke-linejoin:round;stroke-miterlimit:10;stroke-dasharray:5.6, 2.4;stroke-dashoffset:0;stroke-opacity:1"
         id="path10314"
         inkscape:connector-curvature="0" /><text
         transform="matrix(1,0,0,-1,247.11073,118.56427)"
         style="font-style:italic;font-variant:normal;font-weight:normal;font-size:9.96263981px;font-family:'Computer Modern';-inkscape-font-specification:CMMI10;writing-mode:lr-tb;fill:#000000;fill-opacity:1;fill-rule:nonzero;stroke:none"
         id="text10318"><tspan
           x="0"
           y="0"
           id="tspan10316">θ</tspan></text>
<path
         d="m 219.11073,108.12709 h 20"
         style="fill:none;stroke:#ff0000;stroke-width:1.5;stroke-linecap:butt;stroke-linejoin:round;stroke-miterlimit:10;stroke-dasharray:2.2, 2.2;stroke-dashoffset:0;stroke-opacity:1"
         id="path10320"
         inkscape:connector-curvature="0" /><text
         transform="matrix(1,0,0,-1,247.11073,104.62709)"
         style="font-style:italic;font-variant:normal;font-weight:normal;font-size:9.96263981px;font-family:'Computer Modern';-inkscape-font-specification:CMMI10;writing-mode:lr-tb;fill:#000000;fill-opacity:1;fill-rule:nonzero;stroke:none"
         id="text10324"><tspan
           x="0"
           y="0"
           id="tspan10322">θ</tspan></text>
<text
         transform="matrix(1,0,0,-1,255.38526,104.62709)"
         style="font-variant:normal;font-weight:normal;font-size:9.96263981px;font-family:'Computer Modern';-inkscape-font-specification:CMSS10;writing-mode:lr-tb;fill:#000000;fill-opacity:1;fill-rule:nonzero;stroke:none"
         id="text10328"><tspan
           x="0 5.1407223"
           y="0"
           sodipodi:role="line"
           id="tspan10326">up</tspan></text>
</g></g></svg>