<?xml version="1.0" encoding="UTF-8" standalone="no"?>
<!-- Created with Inkscape (http://www.inkscape.org/) -->

<svg
   xmlns:dc="http://purl.org/dc/elements/1.1/"
   xmlns:cc="http://creativecommons.org/ns#"
   xmlns:rdf="http://www.w3.org/1999/02/22-rdf-syntax-ns#"
   xmlns:svg="http://www.w3.org/2000/svg"
   xmlns="http://www.w3.org/2000/svg"
   xmlns:sodipodi="http://sodipodi.sourceforge.net/DTD/sodipodi-0.dtd"
   xmlns:inkscape="http://www.inkscape.org/namespaces/inkscape"
   version="1.1"
   id="svg19440"
   xml:space="preserve"
   width="576"
   height="576"
   viewBox="0 0 576 576"
   sodipodi:docname="coupled_pid_instability.svg"
   inkscape:version="0.92.3 (2405546, 2018-03-11)"><metadata
     id="metadata19446"><rdf:RDF><cc:Work
         rdf:about=""><dc:format>image/svg+xml</dc:format><dc:type
           rdf:resource="http://purl.org/dc/dcmitype/StillImage" /><dc:title></dc:title></cc:Work></rdf:RDF></metadata><defs
     id="defs19444"><clipPath
       clipPathUnits="userSpaceOnUse"
       id="clipPath19470"><path
         d="M -1021,-463 H 1794 V 1233 H -1021 Z"
         id="path19468"
         inkscape:connector-curvature="0" /></clipPath><clipPath
       clipPathUnits="userSpaceOnUse"
       id="clipPath19490"><path
         d="M -1021,-463 H 1794 V 1233 H -1021 Z"
         id="path19488"
         inkscape:connector-curvature="0" /></clipPath><clipPath
       clipPathUnits="userSpaceOnUse"
       id="clipPath19522"><path
         d="M -1021,-463 H 1794 V 1233 H -1021 Z"
         id="path19520"
         inkscape:connector-curvature="0" /></clipPath><clipPath
       clipPathUnits="userSpaceOnUse"
       id="clipPath19542"><path
         d="M -1021,-463 H 1794 V 1233 H -1021 Z"
         id="path19540"
         inkscape:connector-curvature="0" /></clipPath><clipPath
       clipPathUnits="userSpaceOnUse"
       id="clipPath19562"><path
         d="M -1021,-463 H 1794 V 1233 H -1021 Z"
         id="path19560"
         inkscape:connector-curvature="0" /></clipPath><clipPath
       clipPathUnits="userSpaceOnUse"
       id="clipPath19602"><path
         d="M 54,47.52 H 388.8 V 380.16 H 54 Z"
         id="path19600"
         inkscape:connector-curvature="0" /></clipPath><clipPath
       clipPathUnits="userSpaceOnUse"
       id="clipPath19612"><path
         d="M 54,47.52 H 388.8 V 380.16 H 54 Z"
         id="path19610"
         inkscape:connector-curvature="0" /></clipPath><clipPath
       clipPathUnits="userSpaceOnUse"
       id="clipPath19622"><path
         d="M 54,47.52 H 388.8 V 380.16 H 54 Z"
         id="path19620"
         inkscape:connector-curvature="0" /></clipPath></defs><sodipodi:namedview
     pagecolor="#ffffff"
     bordercolor="#666666"
     borderopacity="1"
     objecttolerance="10"
     gridtolerance="10"
     guidetolerance="10"
     inkscape:pageopacity="0"
     inkscape:pageshadow="2"
     inkscape:window-width="909"
     inkscape:window-height="480"
     id="namedview19442"
     showgrid="false"
     inkscape:zoom="0.40972222"
     inkscape:cx="288"
     inkscape:cy="288"
     inkscape:window-x="0"
     inkscape:window-y="0"
     inkscape:window-maximized="0"
     inkscape:current-layer="g19448" /><g
     id="g19448"
     inkscape:groupmode="layer"
     inkscape:label="coupled_pid_instability"
     transform="matrix(1.3333333,0,0,-1.3333333,0,576)"><path
       d="M 0,0 H 432 V 432 H 0 Z"
       style="fill:#ffffff;fill-opacity:1;fill-rule:nonzero;stroke:none"
       id="path19450"
       inkscape:connector-curvature="0" /><path
       d="M 54,47.52 H 388.8 V 380.16 H 54 Z"
       style="fill:#ffffff;fill-opacity:1;fill-rule:nonzero;stroke:none"
       id="path19452"
       inkscape:connector-curvature="0" /><path
       d="m 93.412968,47.52 v -3.5"
       style="fill:#000000;fill-opacity:1;fill-rule:nonzero;stroke:#000000;stroke-width:0.80000001;stroke-linecap:butt;stroke-linejoin:round;stroke-miterlimit:10;stroke-dasharray:none;stroke-opacity:1"
       id="path19454"
       inkscape:connector-curvature="0" /><g
       id="g19456"
       transform="translate(86.045781,32.92625)"><text
         transform="matrix(1,0,0,-1,8.3789063,0)"
         style="font-variant:normal;font-weight:normal;font-size:10px;font-family:DejaVuSans;-inkscape-font-specification:DejaVuSans;writing-mode:lr-tb;fill:#000000;fill-opacity:1;fill-rule:nonzero;stroke:none"
         id="text19460"><tspan
           x="0"
           y="0"
           id="tspan19458">2</tspan></text>
<g
         id="g19462"
         transform="scale(0.01)"><g
           id="g19464"><g
             id="g19466"
             clip-path="url(#clipPath19470)"><path
               d="M 106,355 H 732 V 272 H 106 v 83"
               style="fill:#000000;fill-opacity:1;fill-rule:nonzero;stroke:none"
               id="path19472"
               inkscape:connector-curvature="0" /></g></g></g></g><path
       d="m 167.53486,47.52 v -3.5"
       style="fill:#000000;fill-opacity:1;fill-rule:nonzero;stroke:#000000;stroke-width:0.80000001;stroke-linecap:butt;stroke-linejoin:round;stroke-miterlimit:10;stroke-dasharray:none;stroke-opacity:1"
       id="path19474"
       inkscape:connector-curvature="0" /><g
       id="g19476"
       transform="translate(160.16768,32.92625)"><text
         transform="matrix(1,0,0,-1,8.3789063,0)"
         style="font-variant:normal;font-weight:normal;font-size:10px;font-family:DejaVuSans;-inkscape-font-specification:DejaVuSans;writing-mode:lr-tb;fill:#000000;fill-opacity:1;fill-rule:nonzero;stroke:none"
         id="text19480"><tspan
           x="0"
           y="0"
           id="tspan19478">1</tspan></text>
<g
         id="g19482"
         transform="scale(0.01)"><g
           id="g19484"><g
             id="g19486"
             clip-path="url(#clipPath19490)"><path
               d="M 106,355 H 732 V 272 H 106 v 83"
               style="fill:#000000;fill-opacity:1;fill-rule:nonzero;stroke:none"
               id="path19492"
               inkscape:connector-curvature="0" /></g></g></g></g><path
       d="m 241.65676,47.52 v -3.5"
       style="fill:#000000;fill-opacity:1;fill-rule:nonzero;stroke:#000000;stroke-width:0.80000001;stroke-linecap:butt;stroke-linejoin:round;stroke-miterlimit:10;stroke-dasharray:none;stroke-opacity:1"
       id="path19494"
       inkscape:connector-curvature="0" /><text
       transform="matrix(1,0,0,-1,238.47707,32.92625)"
       style="font-variant:normal;font-weight:normal;font-size:10px;font-family:DejaVuSans;-inkscape-font-specification:DejaVuSans;writing-mode:lr-tb;fill:#000000;fill-opacity:1;fill-rule:nonzero;stroke:none"
       id="text19498"><tspan
         x="0"
         y="0"
         id="tspan19496">0</tspan></text>
<path
       d="m 315.77865,47.52 v -3.5"
       style="fill:#000000;fill-opacity:1;fill-rule:nonzero;stroke:#000000;stroke-width:0.80000001;stroke-linecap:butt;stroke-linejoin:round;stroke-miterlimit:10;stroke-dasharray:none;stroke-opacity:1"
       id="path19500"
       inkscape:connector-curvature="0" /><text
       transform="matrix(1,0,0,-1,312.59896,32.92625)"
       style="font-variant:normal;font-weight:normal;font-size:10px;font-family:DejaVuSans;-inkscape-font-specification:DejaVuSans;writing-mode:lr-tb;fill:#000000;fill-opacity:1;fill-rule:nonzero;stroke:none"
       id="text19504"><tspan
         x="0"
         y="0"
         id="tspan19502">1</tspan></text>
<path
       d="M 54,67.41718 H 50.5"
       style="fill:#000000;fill-opacity:1;fill-rule:nonzero;stroke:#000000;stroke-width:0.80000001;stroke-linecap:butt;stroke-linejoin:round;stroke-miterlimit:10;stroke-dasharray:none;stroke-opacity:1"
       id="path19506"
       inkscape:connector-curvature="0" /><g
       id="g19508"
       transform="translate(22.71875,63.620305)"><text
         transform="matrix(1,0,0,-1,8.3789063,0)"
         style="font-variant:normal;font-weight:normal;font-size:10px;font-family:DejaVuSans;-inkscape-font-specification:DejaVuSans;writing-mode:lr-tb;fill:#000000;fill-opacity:1;fill-rule:nonzero;stroke:none"
         id="text19512"><tspan
           x="0 6.3600001 9.54"
           y="0"
           sodipodi:role="line"
           id="tspan19510">1.5</tspan></text>
<g
         id="g19514"
         transform="scale(0.01)"><g
           id="g19516"><g
             id="g19518"
             clip-path="url(#clipPath19522)"><path
               d="M 106,355 H 732 V 272 H 106 v 83"
               style="fill:#000000;fill-opacity:1;fill-rule:nonzero;stroke:none"
               id="path19524"
               inkscape:connector-curvature="0" /></g></g></g></g><path
       d="M 54,109.51552 H 50.5"
       style="fill:#000000;fill-opacity:1;fill-rule:nonzero;stroke:#000000;stroke-width:0.80000001;stroke-linecap:butt;stroke-linejoin:round;stroke-miterlimit:10;stroke-dasharray:none;stroke-opacity:1"
       id="path19526"
       inkscape:connector-curvature="0" /><g
       id="g19528"
       transform="translate(22.71875,105.71865)"><text
         transform="matrix(1,0,0,-1,8.3789063,0)"
         style="font-variant:normal;font-weight:normal;font-size:10px;font-family:DejaVuSans;-inkscape-font-specification:DejaVuSans;writing-mode:lr-tb;fill:#000000;fill-opacity:1;fill-rule:nonzero;stroke:none"
         id="text19532"><tspan
           x="0 6.3600001 9.54"
           y="0"
           sodipodi:role="line"
           id="tspan19530">1.0</tspan></text>
<g
         id="g19534"
         transform="scale(0.01)"><g
           id="g19536"><g
             id="g19538"
             clip-path="url(#clipPath19542)"><path
               d="M 106,355 H 732 V 272 H 106 v 83"
               style="fill:#000000;fill-opacity:1;fill-rule:nonzero;stroke:none"
               id="path19544"
               inkscape:connector-curvature="0" /></g></g></g></g><path
       d="M 54,151.61386 H 50.5"
       style="fill:#000000;fill-opacity:1;fill-rule:nonzero;stroke:#000000;stroke-width:0.80000001;stroke-linecap:butt;stroke-linejoin:round;stroke-miterlimit:10;stroke-dasharray:none;stroke-opacity:1"
       id="path19546"
       inkscape:connector-curvature="0" /><g
       id="g19548"
       transform="translate(22.71875,147.81699)"><text
         transform="matrix(1,0,0,-1,8.3789063,0)"
         style="font-variant:normal;font-weight:normal;font-size:10px;font-family:DejaVuSans;-inkscape-font-specification:DejaVuSans;writing-mode:lr-tb;fill:#000000;fill-opacity:1;fill-rule:nonzero;stroke:none"
         id="text19552"><tspan
           x="0 6.3600001 9.54"
           y="0"
           sodipodi:role="line"
           id="tspan19550">0.5</tspan></text>
<g
         id="g19554"
         transform="scale(0.01)"><g
           id="g19556"><g
             id="g19558"
             clip-path="url(#clipPath19562)"><path
               d="M 106,355 H 732 V 272 H 106 v 83"
               style="fill:#000000;fill-opacity:1;fill-rule:nonzero;stroke:none"
               id="path19564"
               inkscape:connector-curvature="0" /></g></g></g></g><path
       d="M 54,193.71221 H 50.5"
       style="fill:#000000;fill-opacity:1;fill-rule:nonzero;stroke:#000000;stroke-width:0.80000001;stroke-linecap:butt;stroke-linejoin:round;stroke-miterlimit:10;stroke-dasharray:none;stroke-opacity:1"
       id="path19566"
       inkscape:connector-curvature="0" /><text
       transform="matrix(1,0,0,-1,31.09375,189.91533)"
       style="font-variant:normal;font-weight:normal;font-size:10px;font-family:DejaVuSans;-inkscape-font-specification:DejaVuSans;writing-mode:lr-tb;fill:#000000;fill-opacity:1;fill-rule:nonzero;stroke:none"
       id="text19570"><tspan
         x="0 6.3600001 9.54"
         y="0"
         sodipodi:role="line"
         id="tspan19568">0.0</tspan></text>
<path
       d="M 54,235.81055 H 50.5"
       style="fill:#000000;fill-opacity:1;fill-rule:nonzero;stroke:#000000;stroke-width:0.80000001;stroke-linecap:butt;stroke-linejoin:round;stroke-miterlimit:10;stroke-dasharray:none;stroke-opacity:1"
       id="path19572"
       inkscape:connector-curvature="0" /><text
       transform="matrix(1,0,0,-1,31.09375,232.01367)"
       style="font-variant:normal;font-weight:normal;font-size:10px;font-family:DejaVuSans;-inkscape-font-specification:DejaVuSans;writing-mode:lr-tb;fill:#000000;fill-opacity:1;fill-rule:nonzero;stroke:none"
       id="text19576"><tspan
         x="0 6.3600001 9.54"
         y="0"
         sodipodi:role="line"
         id="tspan19574">0.5</tspan></text>
<path
       d="M 54,277.90889 H 50.5"
       style="fill:#000000;fill-opacity:1;fill-rule:nonzero;stroke:#000000;stroke-width:0.80000001;stroke-linecap:butt;stroke-linejoin:round;stroke-miterlimit:10;stroke-dasharray:none;stroke-opacity:1"
       id="path19578"
       inkscape:connector-curvature="0" /><text
       transform="matrix(1,0,0,-1,31.09375,274.11202)"
       style="font-variant:normal;font-weight:normal;font-size:10px;font-family:DejaVuSans;-inkscape-font-specification:DejaVuSans;writing-mode:lr-tb;fill:#000000;fill-opacity:1;fill-rule:nonzero;stroke:none"
       id="text19582"><tspan
         x="0 6.3600001 9.54"
         y="0"
         sodipodi:role="line"
         id="tspan19580">1.0</tspan></text>
<path
       d="M 54,320.00723 H 50.5"
       style="fill:#000000;fill-opacity:1;fill-rule:nonzero;stroke:#000000;stroke-width:0.80000001;stroke-linecap:butt;stroke-linejoin:round;stroke-miterlimit:10;stroke-dasharray:none;stroke-opacity:1"
       id="path19584"
       inkscape:connector-curvature="0" /><text
       transform="matrix(1,0,0,-1,31.09375,316.21036)"
       style="font-variant:normal;font-weight:normal;font-size:10px;font-family:DejaVuSans;-inkscape-font-specification:DejaVuSans;writing-mode:lr-tb;fill:#000000;fill-opacity:1;fill-rule:nonzero;stroke:none"
       id="text19588"><tspan
         x="0 6.3600001 9.54"
         y="0"
         sodipodi:role="line"
         id="tspan19586">1.5</tspan></text>
<path
       d="M 54,362.10557 H 50.5"
       style="fill:#000000;fill-opacity:1;fill-rule:nonzero;stroke:#000000;stroke-width:0.80000001;stroke-linecap:butt;stroke-linejoin:round;stroke-miterlimit:10;stroke-dasharray:none;stroke-opacity:1"
       id="path19590"
       inkscape:connector-curvature="0" /><text
       transform="matrix(1,0,0,-1,31.09375,358.3087)"
       style="font-variant:normal;font-weight:normal;font-size:10px;font-family:DejaVuSans;-inkscape-font-specification:DejaVuSans;writing-mode:lr-tb;fill:#000000;fill-opacity:1;fill-rule:nonzero;stroke:none"
       id="text19594"><tspan
         x="0 6.3600001 9.54"
         y="0"
         sodipodi:role="line"
         id="tspan19592">2.0</tspan></text>
<g
       id="g19596"><g
         id="g19598"
         clip-path="url(#clipPath19602)"><path
           d="m 315.77865,193.71221 -4.94742,5.45466 -4.22694,4.33393 -3.89149,3.67926 -3.75799,3.24876 -3.59935,2.82068 -3.5344,2.48798 -3.44115,2.15252 -3.39787,1.8643 -3.33791,1.57925 -3.26412,1.30286 -3.24255,1.05716 -3.20483,0.81065 -3.15128,0.56633 -3.08239,0.32686 -2.99871,0.0945 -2.90093,-0.12869 -2.83822,-0.34879 -2.70873,-0.55496 -2.60975,-0.76016 -2.4908,-0.95673 -2.35306,-1.1415 -2.19805,-1.31142 -2.05575,-1.486 -1.86529,-1.62046 -1.68547,-1.75574 -1.488,-1.86717 -1.29095,-1.97583 -1.06359,-2.02967 -0.83983,-2.07423 -0.61334,-2.10447 -0.37504,-2.07205 -0.14317,-2.02005 0.0836,-1.94255 0.29688,-1.80367 0.49099,-1.64131 0.66307,-1.45292 0.80186,-1.22958 0.89994,-0.98197 0.96546,-0.73047 0.98178,-0.46995 0.9587,-0.21826 0.8977,0.0188 0.79731,0.23539 0.6547,0.42092 0.47244,0.56211 0.25377,0.63863 0.014,0.61267 -0.0442,0.17284 v 0"
           style="fill:none;stroke:#000000;stroke-width:1.5;stroke-linecap:square;stroke-linejoin:round;stroke-miterlimit:10;stroke-dasharray:none;stroke-opacity:1"
           id="path19604"
           inkscape:connector-curvature="0" /></g></g><g
       id="g19606"><g
         id="g19608"
         clip-path="url(#clipPath19612)"><path
           d="m 315.77865,193.71221 -5.36115,5.92361 -4.86292,5.04751 -4.58648,4.44962 -4.39307,3.96349 -4.32333,3.60438 -4.14572,3.17193 -4.01524,2.79984 -3.96204,2.49391 -3.87709,2.17584 -3.76657,1.8571 -3.63582,1.54631 -3.48937,1.24993 -3.45372,1.00403 -3.40395,0.75415 -3.22256,0.48943 -3.15209,0.25709 -3.07056,0.0279 -2.97857,-0.19641 -2.8767,-0.41414 -2.7656,-0.62387 -2.64592,-0.82433 -2.51837,-1.01438 -2.38365,-1.19305 -2.3228,-1.41291 -2.16477,-1.57755 -2.00139,-1.72715 -1.8959,-1.92999 -1.71203,-2.05619 -1.57465,-2.24086 -1.3731,-2.33688 -1.20649,-2.49455 -0.99133,-2.55423 -0.7998,-2.67666 -0.57641,-2.69483 -0.36587,-2.77481 -0.14085,-2.7477 0.0812,-2.77956 0.30029,-2.7052 0.52516,-2.68522 0.72992,-2.56376 0.91898,-2.42367 1.09136,-2.26711 1.28394,-2.15353 1.42808,-1.95974 1.55199,-1.75539 1.65544,-1.54298 1.73832,-1.32495 1.85151,-1.13118 1.89566,-0.89653 1.91854,-0.66339 1.92088,-0.4341 1.95464,-0.21349 1.91636,0.0132 1.90734,0.23806 1.8287,0.45188 1.77626,0.66942 1.65976,0.85984 1.56578,1.05839 1.44879,1.2469 1.30946,1.4214 1.14902,1.57785 0.96927,1.71236 0.77265,1.82124 0.56213,1.90113 0.34128,1.94912 0.11409,1.92333 -0.10591,1.90436 -0.3237,1.85068 -0.53456,1.76215 -0.71791,1.60969 -0.89456,1.46222 -1.03055,1.26398 -1.16006,1.07137 -1.23976,0.84454 -1.28863,0.61502 -1.33233,0.39287 -1.34643,0.16508 -1.3299,-0.0629 -1.28264,-0.28546 -1.20535,-0.4967 -1.09969,-0.69092 -0.98302,-0.87823 -0.83516,-1.04373 -0.65931,-1.17946 -0.46038,-1.27806 -0.24483,-1.33321 -0.0207,-1.34014 0.19864,-1.27908 0.40648,-1.18772 0.58608,-1.03639 0.73204,-0.85088 0.83916,-0.64004 0.90405,-0.41377 0.92526,-0.18264 0.91427,0.0446 0.85937,0.26311 0.77093,0.46746 0.64619,0.65259 0.47867,0.80013 0.27771,0.89472 0.0573,0.92416 -0.16467,0.8814 -0.36381,0.76014 -0.0667,0.0962 v 0"
           style="fill:none;stroke:#008000;stroke-width:1.5;stroke-linecap:square;stroke-linejoin:round;stroke-miterlimit:10;stroke-dasharray:none;stroke-opacity:1"
           id="path19614"
           inkscape:connector-curvature="0" /></g></g><g
       id="g19616"><g
         id="g19618"
         clip-path="url(#clipPath19622)"><path
           d="m 315.77865,193.71221 -5.60087,6.19496 -5.28501,5.51837 -5.11785,5.02895 -5.01255,4.61889 -4.89258,4.21154 -4.75466,3.80866 -4.67109,3.46604 -4.69143,3.20305 -4.48564,2.79879 -4.41493,2.4994 -4.31353,2.19352 -4.18595,1.88955 -4.22939,1.66484 -4.06359,1.36256 -4.07562,1.12657 -3.88008,0.84187 -3.86629,0.60676 -3.649,0.35126 -3.6148,0.12605 -3.56983,-0.10368 -3.33068,-0.31317 -3.27141,-0.52418 -3.20295,-0.73607 -3.1253,-0.94787 -3.03853,-1.15865 -2.94273,-1.36745 -2.83802,-1.57338 -2.72453,-1.77552 -2.60246,-1.973 -2.47201,-2.16494 -2.33344,-2.35053 -2.187,-2.52895 -2.03302,-2.69942 -1.87185,-2.8612 -1.70384,-3.01359 -1.52942,-3.15588 -1.34901,-3.28748 -1.16308,-3.40776 -0.97212,-3.51618 -0.77667,-3.61223 -0.57726,-3.69544 -0.38926,-3.97636 -0.16005,-4.03827 0.0716,-4.08373 0.30506,-4.11246 0.53935,-4.12415 0.77372,-4.11864 1.00731,-4.09578 1.16828,-3.84338 1.37436,-3.79249 1.57763,-3.72689 1.77739,-3.6467 1.97292,-3.55211 2.16357,-3.44333 2.34859,-3.32065 2.52735,-3.18439 2.69915,-3.03495 2.86334,-2.87274 3.01929,-2.69826 2.98677,-2.37756 3.11002,-2.20202 3.22485,-2.01755 3.33086,-1.82465 3.42758,-1.62391 3.51468,-1.41588 3.59176,-1.20119 3.65848,-0.98046 3.71456,-0.75435 3.7597,-0.52356 3.56976,-0.27834 3.59033,-0.0676 3.60126,0.14529 3.60242,0.35978 3.59371,0.57525 3.57508,0.7911 3.54647,1.00674 3.50787,1.22153 3.4593,1.43487 3.40078,1.64614 3.33241,1.85473 3.25425,2.06003 3.16646,2.26141 3.06916,2.45829 2.96255,2.65006 2.84684,2.83616 2.72223,3.016 2.58904,3.189 2.4475,3.35465 2.29796,3.51239 2.14075,3.66173 1.97622,3.80215 1.80479,3.93321 1.62683,4.05444 1.44281,4.16541 1.25315,4.26573 1.05835,4.355 0.85888,4.43291 0.65527,4.49912 0.44803,4.55333 0.2377,4.5953 0.0249,4.62481 -0.18996,4.64163 -0.40615,4.64564 -0.62315,4.63671 -0.84034,4.61471 -1.05714,4.57965 -1.27295,4.53145 -1.48713,4.47017 -1.6991,4.39583 -1.90824,4.30857 -2.11394,4.20847 -2.31562,4.09571 -2.51266,3.97051 -2.70448,3.83309 -2.70451,3.4581 -2.86276,3.31722 -3.01537,3.16704 -3.16187,3.0078 -3.30189,2.83985 -3.43501,2.66352 -3.56086,2.47917 -3.67906,2.28717 -3.78927,2.08796 -3.89113,1.88195 -3.98435,1.66957 -4.06862,1.45131 -4.14363,1.22766 -3.92671,0.9397 -3.97587,0.73703 -4.01697,0.53118 -4.04983,0.32258 -4.07433,0.11165 -4.09034,-0.10118 -4.09778,-0.31547 -4.09653,-0.53077 -4.08657,-0.74664 -4.06782,-0.96262 -4.04026,-1.17825 -4.00388,-1.39305 -3.95869,-1.60658 -3.90471,-1.81837 -3.84199,-2.02793 -3.7706,-2.23483 -3.69061,-2.4386 -3.60215,-2.63875 -3.5053,-2.83487 -3.40024,-3.02647 -3.2871,-3.21314 -3.16608,-3.39442 -3.03737,-3.56989 -2.90116,-3.73913 -2.75772,-3.90173 -2.60727,-4.05728 -2.45008,-4.20542 -2.28644,-4.34574 -2.11665,-4.47792 -1.94102,-4.60158 -1.75986,-4.7164 -1.57353,-4.82207 -1.3824,-4.9183 -1.18682,-5.00479 -0.98716,-5.0813 -0.78384,-5.14757 -0.57726,-5.2034 -0.36781,-5.24857 -0.15594,-5.28291 0.0579,-5.30625 0.27334,-5.31847 0.48987,-5.31944 0.70707,-5.30909 0.92445,-5.28734 1.14157,-5.25414 1.35798,-5.20949 1.57317,-5.15337 1.78673,-5.08584 1.99813,-5.00693 2.20695,-4.91673 2.41271,-4.81534 2.61493,-4.70289 2.81318,-4.57953 3.00699,-4.44544 3.19591,-4.30083 3.13214,-3.85511 3.28585,-3.713476 3.43466,-3.563976 3.57822,-3.406837 3.71627,-3.242294 3.84849,-3.070592 3.97461,-2.891996 4.09436,-2.706783 4.20744,-2.515246 4.31363,-2.317689 4.41267,-2.114433 4.50432,-1.905809 4.58836,-1.692162 4.6646,-1.473846 4.73282,-1.25123 4.79283,-1.024691 4.8445,-0.794616 4.88762,-0.561402 4.92209,-0.325456 4.94777,-0.08719 4.96454,0.152974 4.58977,0.35565 4.58925,0.562375 4.58155,0.769611 4.56664,0.977039 4.54448,1.184334 4.51505,1.391171 4.47836,1.597223 4.43441,1.802163 4.38324,2.005662 4.32486,2.207392 4.2593,2.407026 4.18666,2.604237 4.10696,2.7987 4.02031,2.990092 3.92678,3.178093 3.82647,3.362385 3.71951,3.542658 3.60599,3.718599 3.77097,4.22164 3.62229,4.4164 3.46585,4.60445 3.30192,4.78542 3.13073,4.95893 2.95253,5.12457 2.7676,5.28203 2.57625,5.43092 2.37877,5.57093 2.17547,5.70171 1.96669,5.82298 1.75279,5.93444 1.5341,6.0358 1.31099,6.12681 1.08385,6.20724 0.85306,6.27685 0.61903,6.33542 0.38214,6.3828 0.14038,5.92402 -0.0651,5.94562 -0.27192,5.95807 -0.47967,5.96127 -0.68808,5.95516 -0.89681,5.9397 -1.10554,5.91483 -1.31396,5.88054 -1.5217,5.83681 -1.72848,5.78367 -1.93394,5.7211 -2.13775,5.64917 -2.3396,5.5679 -2.53913,5.47738 -2.73604,5.37768 -2.93,5.26888 -3.12067,5.15112 -3.30774,5.02449 -3.4909,4.88915 -3.66983,4.74525 -3.84421,4.59295 -4.01375,4.43244 -4.17817,4.26392 -4.33713,4.08757 -4.49039,3.90366 -4.63765,3.71239 -4.37519,3.22894 -4.48865,3.05697 -4.59691,2.87994 -4.69978,2.69803 -4.79712,2.51144 -4.88875,2.3204 -4.97452,2.12513 -5.05427,1.92587 -5.12787,1.72284 -5.19519,1.51629 -5.25609,1.30649 -5.31046,1.09366 -5.35818,0.87808 -5.39915,0.66002 -5.43328,0.43975 -5.46046,0.21754 -5.48065,-0.006 -5.49376,-0.23157 -5.49971,-0.45789 -5.49848,-0.68501 -5.49,-0.91262 -5.47427,-1.14046 -5.45124,-1.36818 -5.42089,-1.59552 -5.38323,-1.82216 -5.33827,-2.0478 -5.286,-2.27215 -5.22647,-2.49489 -5.1597,-2.71572 -5.08574,-2.93436 -5.00462,-3.15047 -4.91643,-3.36377 -4.82124,-3.57399 -4.71911,-3.78078 -4.61016,-3.98389 -4.49446,-4.18301 -4.37216,-4.37787 -4.24333,-4.56816 -4.10815,-4.75362 -3.96673,-4.93399 -3.81922,-5.10898 -3.66577,-5.27832 -3.506565,-5.44179 -3.341765,-5.59909 -3.171555,-5.75001 -2.996126,-5.8943 -2.815674,-6.03173 -2.630408,-6.16208 -2.440541,-6.28513 -2.246294,-6.40069 -2.047895,-6.50853 -1.84558,-6.60849 -1.639591,-6.70036 -1.430176,-6.78402 -1.217587,-6.85925 -1.002087,-6.92594 -0.78394,-6.98393 -0.563417,-7.0331 -0.340792,-7.07332 -0.116345,-7.1045 0.109638,-7.12652 0.336872,-7.13932 0.565065,-7.1428 0.793923,-7.13692 1.023149,-7.12162 1.252444,-7.09686 1.481507,-7.06262 1.710035,-7.01888 1.937726,-6.96564 0.567844,-1.88923 v 0"
           style="fill:none;stroke:#ff0000;stroke-width:1.5;stroke-linecap:square;stroke-linejoin:round;stroke-miterlimit:10;stroke-dasharray:none;stroke-opacity:1"
           id="path19624"
           inkscape:connector-curvature="0" /></g></g><g
       id="g19626"><path
         d="M 54,47.52 V 380.16"
         style="fill:none;stroke:#000000;stroke-width:0.80000001;stroke-linecap:square;stroke-linejoin:miter;stroke-miterlimit:10;stroke-dasharray:none;stroke-opacity:1"
         id="path19628"
         inkscape:connector-curvature="0" /><path
         d="M 388.8,47.52 V 380.16"
         style="fill:none;stroke:#000000;stroke-width:0.80000001;stroke-linecap:square;stroke-linejoin:miter;stroke-miterlimit:10;stroke-dasharray:none;stroke-opacity:1"
         id="path19630"
         inkscape:connector-curvature="0" /><path
         d="M 54,47.52 H 388.8"
         style="fill:none;stroke:#000000;stroke-width:0.80000001;stroke-linecap:square;stroke-linejoin:miter;stroke-miterlimit:10;stroke-dasharray:none;stroke-opacity:1"
         id="path19632"
         inkscape:connector-curvature="0" /><path
         d="M 54,380.16 H 388.8"
         style="fill:none;stroke:#000000;stroke-width:0.80000001;stroke-linecap:square;stroke-linejoin:miter;stroke-miterlimit:10;stroke-dasharray:none;stroke-opacity:1"
         id="path19634"
         inkscape:connector-curvature="0" /><path
         d="m 61,52.52 h 76.14062 c 1.33334,0 2,0.666667 2,2 v 43.015625 c 0,1.333333 -0.66666,2 -2,2 H 61 c -1.333333,0 -2,-0.666667 -2,-2 L 59,54.52 c 0,-1.333333 0.666667,-2 2,-2 z"
         style="fill:#ffffff;fill-opacity:0.8;fill-rule:nonzero;stroke:#cccccc;stroke-width:1;stroke-linecap:butt;stroke-linejoin:miter;stroke-miterlimit:10;stroke-dasharray:none;stroke-opacity:0.8"
         id="path19636"
         inkscape:connector-curvature="0" /><path
         d="M 63,91.441875 H 83"
         style="fill:none;stroke:#000000;stroke-width:1.5;stroke-linecap:square;stroke-linejoin:round;stroke-miterlimit:10;stroke-dasharray:none;stroke-opacity:1"
         id="path19638"
         inkscape:connector-curvature="0" /><text
         transform="matrix(1,0,0,-1,91,87.941875)"
         style="font-variant:normal;font-weight:normal;font-size:10px;font-family:DejaVuSans;-inkscape-font-specification:DejaVuSans;writing-mode:lr-tb;fill:#000000;fill-opacity:1;fill-rule:nonzero;stroke:none"
         id="text19642"><tspan
           x="0 5.79 13.49 21.870001"
           y="0"
           sodipodi:role="line"
           id="tspan19640">kD=1</tspan></text>
<path
         d="M 63,76.77 H 83"
         style="fill:none;stroke:#008000;stroke-width:1.5;stroke-linecap:square;stroke-linejoin:round;stroke-miterlimit:10;stroke-dasharray:none;stroke-opacity:1"
         id="path19644"
         inkscape:connector-curvature="0" /><text
         transform="matrix(1,0,0,-1,91,73.27)"
         style="font-variant:normal;font-weight:normal;font-size:10px;font-family:DejaVuSans;-inkscape-font-specification:DejaVuSans;writing-mode:lr-tb;fill:#000000;fill-opacity:1;fill-rule:nonzero;stroke:none"
         id="text19648"><tspan
           x="0 5.79 13.49 21.870001 28.23 31.41"
           y="0"
           sodipodi:role="line"
           id="tspan19646">kD=0.5</tspan></text>
<path
         d="M 63,62.098125 H 83"
         style="fill:none;stroke:#ff0000;stroke-width:1.5;stroke-linecap:square;stroke-linejoin:round;stroke-miterlimit:10;stroke-dasharray:none;stroke-opacity:1"
         id="path19650"
         inkscape:connector-curvature="0" /><text
         transform="matrix(1,0,0,-1,91,58.598125)"
         style="font-variant:normal;font-weight:normal;font-size:10px;font-family:DejaVuSans;-inkscape-font-specification:DejaVuSans;writing-mode:lr-tb;fill:#000000;fill-opacity:1;fill-rule:nonzero;stroke:none"
         id="text19654"><tspan
           x="0 5.79 13.49 21.870001 28.23 31.41 37.77"
           y="0"
           sodipodi:role="line"
           id="tspan19652">kD=0.25</tspan></text>
</g></g></svg>