<?xml version="1.0" encoding="UTF-8" standalone="no"?>
<!-- Created with Inkscape (http://www.inkscape.org/) -->

<svg
   xmlns:dc="http://purl.org/dc/elements/1.1/"
   xmlns:cc="http://creativecommons.org/ns#"
   xmlns:rdf="http://www.w3.org/1999/02/22-rdf-syntax-ns#"
   xmlns:svg="http://www.w3.org/2000/svg"
   xmlns="http://www.w3.org/2000/svg"
   xmlns:sodipodi="http://sodipodi.sourceforge.net/DTD/sodipodi-0.dtd"
   xmlns:inkscape="http://www.inkscape.org/namespaces/inkscape"
   version="1.1"
   id="svg24131"
   xml:space="preserve"
   width="926.79889"
   height="270.10788"
   viewBox="0 0 926.79889 270.10788"
   sodipodi:docname="linear_interpolation.svg"
   inkscape:version="0.92.3 (2405546, 2018-03-11)"><metadata
     id="metadata24137"><rdf:RDF><cc:Work
         rdf:about=""><dc:format>image/svg+xml</dc:format><dc:type
           rdf:resource="http://purl.org/dc/dcmitype/StillImage" /><dc:title></dc:title></cc:Work></rdf:RDF></metadata><defs
     id="defs24135" /><sodipodi:namedview
     pagecolor="#ffffff"
     bordercolor="#666666"
     borderopacity="1"
     objecttolerance="10"
     gridtolerance="10"
     guidetolerance="10"
     inkscape:pageopacity="0"
     inkscape:pageshadow="2"
     inkscape:window-width="909"
     inkscape:window-height="480"
     id="namedview24133"
     showgrid="false"
     inkscape:zoom="0.42080327"
     inkscape:cx="463.39944"
     inkscape:cy="135.05394"
     inkscape:window-x="0"
     inkscape:window-y="0"
     inkscape:window-maximized="0"
     inkscape:current-layer="g24139" /><g
     id="g24139"
     inkscape:groupmode="layer"
     inkscape:label="linear_interpolation"
     transform="matrix(1.3333333,0,0,-1.3333333,0,270.10789)"><g
       id="g24141"><g
         id="g24143"
         transform="matrix(1,0,0,-1,0,202.58092)"><path
           d="M 97.441,146.281 240.031,25.199 h 89.489"
           style="fill:none;stroke:#ff0000;stroke-width:1.55999994;stroke-linecap:butt;stroke-linejoin:miter;stroke-miterlimit:10;stroke-dasharray:none;stroke-opacity:1"
           id="path24145"
           inkscape:connector-curvature="0" /></g><path
         d="m 49.441,32.362 h 285 V 30.8 h -285 z m 279.391,3.391 7.16,-4.172 -7.16,-4.168 c -0.371,-0.223 -0.852,-0.102 -1.062,0.277 -0.219,0.371 -0.09,0.852 0.281,1.063 l 6,3.5 v -1.34 l -6,3.5 c -0.371,0.207 -0.5,0.687 -0.281,1.059 0.21,0.378 0.691,0.5 1.062,0.281 z"
         style="fill:#000000;fill-opacity:1;fill-rule:nonzero;stroke:none"
         id="path24147"
         inkscape:connector-curvature="0" /><path
         d="M 50.223,31.671 V 201.042 H 48.66 V 31.671 Z m 3.394,163.761 -4.176,7.149 -4.175,-7.149 c -0.215,-0.371 -0.09,-0.851 0.281,-1.07 0.375,-0.222 0.851,-0.09 1.07,0.278 l 3.5,6 h -1.351 l 3.5,-6 c 0.218,-0.368 0.695,-0.5 1.07,-0.278 0.371,0.219 0.496,0.699 0.281,1.07 z"
         style="fill:#000000;fill-opacity:1;fill-rule:nonzero;stroke:none"
         id="path24149"
         inkscape:connector-curvature="0" /><path
         d="M 320.074,18.061 V 7.811 h -1.031 v 10.25 h -3.234 v 0.954 h 7.5 v -0.954 z"
         style="fill:#000000;fill-opacity:1;fill-rule:nonzero;stroke:none"
         id="path24151"
         inkscape:connector-curvature="0" /><path
         d="m 325.469,17.843 c -0.188,0 -0.356,0.066 -0.5,0.203 -0.137,0.133 -0.203,0.304 -0.203,0.515 0,0.196 0.066,0.364 0.203,0.5 0.144,0.133 0.312,0.204 0.5,0.204 0.101,0 0.195,-0.024 0.281,-0.063 0.094,-0.031 0.172,-0.078 0.234,-0.141 0.063,-0.062 0.114,-0.136 0.157,-0.218 0.039,-0.086 0.062,-0.18 0.062,-0.282 0,-0.105 -0.023,-0.203 -0.062,-0.296 -0.032,-0.086 -0.086,-0.157 -0.157,-0.219 -0.062,-0.063 -0.14,-0.117 -0.234,-0.156 -0.086,-0.032 -0.18,-0.047 -0.281,-0.047 z M 324.984,7.811 v 8 h 1 v -8 z"
         style="fill:#000000;fill-opacity:1;fill-rule:nonzero;stroke:none"
         id="path24153"
         inkscape:connector-curvature="0" /><path
         d="m 338.605,7.811 v 4.704 c 0,0.476 -0.039,0.882 -0.109,1.218 -0.074,0.332 -0.187,0.602 -0.344,0.813 -0.148,0.207 -0.339,0.359 -0.578,0.453 -0.242,0.094 -0.523,0.141 -0.844,0.141 -0.292,0 -0.57,-0.075 -0.828,-0.219 -0.261,-0.137 -0.492,-0.324 -0.687,-0.563 -0.199,-0.242 -0.356,-0.527 -0.469,-0.859 -0.105,-0.324 -0.156,-0.68 -0.156,-1.063 V 7.811 h -1 v 4.813 c 0,1.676 -0.649,2.516 -1.938,2.516 -0.293,0 -0.57,-0.071 -0.828,-0.204 -0.25,-0.136 -0.476,-0.324 -0.672,-0.562 -0.187,-0.242 -0.336,-0.527 -0.437,-0.859 -0.106,-0.336 -0.156,-0.704 -0.156,-1.11 V 7.811 h -1 v 8 h 1 v -1.296 h 0.031 c 0.562,0.988 1.379,1.484 2.453,1.484 0.281,0 0.547,-0.043 0.797,-0.125 0.25,-0.086 0.473,-0.203 0.672,-0.359 0.195,-0.157 0.367,-0.344 0.515,-0.563 0.145,-0.211 0.254,-0.437 0.328,-0.687 0.282,0.562 0.645,0.988 1.094,1.281 0.446,0.301 0.957,0.453 1.531,0.453 1.75,0 2.625,-1.086 2.625,-3.25 V 7.811 Z"
         style="fill:#000000;fill-opacity:1;fill-rule:nonzero;stroke:none"
         id="path24155"
         inkscape:connector-curvature="0" /><path
         d="m 342.48,11.64 c 0.008,-0.493 0.079,-0.934 0.204,-1.329 0.125,-0.386 0.3,-0.714 0.531,-0.984 0.238,-0.273 0.523,-0.48 0.859,-0.625 0.332,-0.148 0.711,-0.219 1.141,-0.219 0.894,0 1.742,0.317 2.547,0.953 V 8.452 C 347,7.897 346.074,7.624 344.98,7.624 c -0.531,0 -1.015,0.094 -1.453,0.281 -0.437,0.188 -0.812,0.457 -1.125,0.813 -0.304,0.363 -0.539,0.804 -0.703,1.328 -0.168,0.519 -0.25,1.113 -0.25,1.781 0,0.594 0.086,1.145 0.266,1.656 0.187,0.508 0.441,0.953 0.765,1.328 0.321,0.375 0.704,0.664 1.141,0.875 0.445,0.207 0.93,0.313 1.453,0.313 0.52,0 0.977,-0.09 1.375,-0.266 0.395,-0.179 0.723,-0.433 0.985,-0.765 0.269,-0.336 0.472,-0.743 0.609,-1.219 0.145,-0.481 0.219,-1.016 0.219,-1.609 v -0.5 z m 4.75,0.875 c -0.011,0.832 -0.21,1.476 -0.593,1.937 -0.375,0.457 -0.903,0.688 -1.578,0.688 -0.344,0 -0.664,-0.063 -0.954,-0.188 -0.281,-0.117 -0.531,-0.289 -0.75,-0.516 -0.218,-0.23 -0.402,-0.507 -0.546,-0.828 -0.149,-0.324 -0.246,-0.687 -0.297,-1.093 z"
         style="fill:#000000;fill-opacity:1;fill-rule:nonzero;stroke:none"
         id="path24157"
         inkscape:connector-curvature="0" /><path
         d="m 7.906,82.179 c 1.399,0 2.434,-0.262 3.11,-0.782 0.679,-0.511 1.015,-1.242 1.015,-2.187 0,-0.18 -0.011,-0.352 -0.031,-0.516 -0.023,-0.156 -0.059,-0.304 -0.109,-0.437 h -1.032 c 0.157,0.289 0.235,0.613 0.235,0.968 0,0.665 -0.258,1.149 -0.781,1.454 -0.52,0.3 -1.321,0.453 -2.407,0.453 H 0.641 v 1.047 z"
         style="fill:#000000;fill-opacity:1;fill-rule:nonzero;stroke:none"
         id="path24159"
         inkscape:connector-curvature="0" /><path
         d="m 12.031,88.089 c 0,-0.594 -0.101,-1.125 -0.297,-1.594 -0.195,-0.469 -0.476,-0.871 -0.843,-1.203 -0.364,-0.336 -0.797,-0.59 -1.297,-0.766 -0.508,-0.179 -1.071,-0.265 -1.688,-0.265 -0.664,0 -1.258,0.093 -1.781,0.281 -0.531,0.187 -0.977,0.453 -1.344,0.797 -0.363,0.343 -0.64,0.758 -0.828,1.25 -0.195,0.488 -0.297,1.035 -0.297,1.64 0,0.582 0.094,1.102 0.282,1.563 0.187,0.469 0.464,0.863 0.828,1.187 0.355,0.321 0.793,0.567 1.312,0.735 0.512,0.176 1.094,0.265 1.75,0.265 0.625,0 1.199,-0.093 1.719,-0.281 0.512,-0.18 0.953,-0.433 1.328,-0.766 0.367,-0.335 0.652,-0.742 0.859,-1.218 0.196,-0.481 0.297,-1.024 0.297,-1.625 z m -7.515,0.078 c 0,-0.438 0.078,-0.836 0.234,-1.188 0.148,-0.355 0.367,-0.656 0.656,-0.906 0.293,-0.25 0.649,-0.445 1.063,-0.578 0.418,-0.137 0.89,-0.203 1.422,-0.203 0.5,0 0.953,0.066 1.359,0.203 0.398,0.133 0.742,0.32 1.031,0.562 0.282,0.25 0.5,0.551 0.657,0.907 0.156,0.351 0.234,0.75 0.234,1.187 0,0.446 -0.07,0.844 -0.219,1.188 -0.156,0.343 -0.375,0.633 -0.656,0.875 -0.281,0.238 -0.625,0.422 -1.031,0.547 -0.414,0.125 -0.891,0.187 -1.422,0.187 -1.071,0 -1.895,-0.242 -2.469,-0.719 -0.57,-0.48 -0.859,-1.168 -0.859,-2.062 z"
         style="fill:#000000;fill-opacity:1;fill-rule:nonzero;stroke:none"
         id="path24161"
         inkscape:connector-curvature="0" /><path
         d="m 1.813,94.405 c 0,-0.187 -0.067,-0.355 -0.204,-0.5 -0.132,-0.137 -0.304,-0.203 -0.515,-0.203 -0.196,0 -0.364,0.066 -0.5,0.203 -0.133,0.145 -0.203,0.313 -0.203,0.5 0,0.102 0.023,0.195 0.062,0.281 0.031,0.094 0.078,0.172 0.141,0.235 0.062,0.062 0.136,0.113 0.219,0.156 0.085,0.039 0.179,0.063 0.281,0.063 0.105,0 0.203,-0.024 0.297,-0.063 C 1.477,95.046 1.547,94.991 1.609,94.921 1.672,94.858 1.727,94.78 1.766,94.686 1.797,94.6 1.813,94.507 1.813,94.405 Z m 10.031,-0.484 h -8 v 1 h 8 z"
         style="fill:#000000;fill-opacity:1;fill-rule:nonzero;stroke:none"
         id="path24163"
         inkscape:connector-curvature="0" /><path
         d="m 11.844,102.886 h -4.61 c -1.812,0 -2.718,-0.657 -2.718,-1.969 0,-0.344 0.074,-0.668 0.218,-0.969 0.137,-0.293 0.329,-0.547 0.579,-0.766 0.242,-0.218 0.527,-0.39 0.859,-0.515 0.336,-0.117 0.699,-0.172 1.094,-0.172 h 4.578 v -1 h -8 v 1 h 1.39 v 0.031 c -1.05,0.594 -1.578,1.485 -1.578,2.672 0,0.875 0.289,1.539 0.86,2 0.562,0.457 1.382,0.688 2.453,0.688 h 4.875 z"
         style="fill:#000000;fill-opacity:1;fill-rule:nonzero;stroke:none"
         id="path24165"
         inkscape:connector-curvature="0" /><path
         d="m 11.75,109.714 c 0.176,-0.344 0.266,-0.719 0.266,-1.125 0,-1.293 -0.75,-1.938 -2.25,-1.938 H 4.719 v -1.406 H 3.844 v 1.406 H 1.828 l -0.328,1 h 2.344 v 2.063 h 0.875 v -2.063 h 4.89 c 0.543,0 0.934,0.086 1.172,0.266 0.242,0.176 0.36,0.473 0.36,0.89 0,0.313 -0.094,0.614 -0.282,0.907 z"
         style="fill:#000000;fill-opacity:1;fill-rule:nonzero;stroke:none"
         id="path24167"
         inkscape:connector-curvature="0" /><path
         d="m 11.844,118.71 v -0.953 l -8,-3.063 v 1.11 l 6.094,2.203 c 0.367,0.133 0.687,0.222 0.968,0.265 v 0.032 c -0.375,0.062 -0.687,0.14 -0.937,0.234 l -6.125,2.297 v 1.062 z"
         style="fill:#000000;fill-opacity:1;fill-rule:nonzero;stroke:none"
         id="path24169"
         inkscape:connector-curvature="0" /><path
         d="m 11.844,127.675 h -1.422 v -0.032 c 0.512,-0.261 0.906,-0.621 1.187,-1.078 0.282,-0.449 0.422,-0.953 0.422,-1.515 0,-0.387 -0.058,-0.735 -0.172,-1.047 -0.101,-0.313 -0.254,-0.578 -0.453,-0.797 -0.207,-0.211 -0.453,-0.375 -0.734,-0.5 -0.281,-0.117 -0.586,-0.172 -0.922,-0.172 -0.727,0 -1.305,0.223 -1.734,0.672 -0.426,0.445 -0.707,1.125 -0.844,2.031 l -0.344,2.438 c -1.539,0 -2.312,-0.602 -2.312,-1.797 0,-0.93 0.343,-1.793 1.031,-2.594 H 4.453 c -0.125,0.164 -0.234,0.352 -0.328,0.563 -0.094,0.218 -0.176,0.441 -0.25,0.671 -0.07,0.239 -0.125,0.477 -0.156,0.719 -0.039,0.25 -0.063,0.492 -0.063,0.735 0,0.882 0.25,1.554 0.75,2.015 0.5,0.457 1.246,0.688 2.235,0.688 h 5.203 z m -3.891,-2.063 c 0.055,-0.367 0.121,-0.68 0.203,-0.937 0.074,-0.25 0.18,-0.461 0.313,-0.625 0.136,-0.168 0.304,-0.293 0.5,-0.375 0.187,-0.075 0.429,-0.11 0.719,-0.11 0.21,0 0.406,0.035 0.593,0.11 0.18,0.082 0.336,0.191 0.469,0.328 0.137,0.144 0.242,0.32 0.313,0.531 0.074,0.207 0.109,0.441 0.109,0.703 0,0.352 -0.067,0.676 -0.203,0.969 -0.133,0.301 -0.321,0.555 -0.563,0.766 -0.238,0.218 -0.523,0.39 -0.859,0.515 -0.332,0.125 -0.695,0.188 -1.094,0.188 H 7.672 Z"
         style="fill:#000000;fill-opacity:1;fill-rule:nonzero;stroke:none"
         id="path24171"
         inkscape:connector-curvature="0" /><path
         d="m 0,132.061 h 11.844 v -1 H 0 Z"
         style="fill:#000000;fill-opacity:1;fill-rule:nonzero;stroke:none"
         id="path24173"
         inkscape:connector-curvature="0" /><path
         d="m 11.844,139.917 h -1.36 v -0.031 c 1.032,-0.543 1.547,-1.387 1.547,-2.532 0,-1.898 -1.16,-2.843 -3.484,-2.843 H 3.844 v 1 h 4.515 c 0.961,0 1.668,0.164 2.125,0.5 0.461,0.343 0.688,0.867 0.688,1.578 0,0.343 -0.067,0.656 -0.203,0.937 -0.133,0.281 -0.321,0.524 -0.563,0.735 -0.238,0.207 -0.523,0.367 -0.859,0.484 -0.344,0.113 -0.723,0.172 -1.141,0.172 H 3.844 v 1 h 8 z"
         style="fill:#000000;fill-opacity:1;fill-rule:nonzero;stroke:none"
         id="path24175"
         inkscape:connector-curvature="0" /><path
         d="m 8.016,143.948 c 0.492,0.008 0.933,0.078 1.328,0.203 0.386,0.125 0.715,0.301 0.984,0.531 0.274,0.239 0.481,0.524 0.625,0.86 0.149,0.332 0.219,0.711 0.219,1.14 0,0.895 -0.317,1.743 -0.953,2.547 h 0.984 c 0.555,-0.761 0.828,-1.687 0.828,-2.781 0,-0.531 -0.093,-1.016 -0.281,-1.453 -0.187,-0.438 -0.457,-0.813 -0.812,-1.125 -0.364,-0.305 -0.805,-0.539 -1.329,-0.703 -0.519,-0.168 -1.113,-0.25 -1.781,-0.25 -0.594,0 -1.144,0.086 -1.656,0.265 -0.508,0.188 -0.953,0.442 -1.328,0.766 -0.375,0.32 -0.664,0.703 -0.875,1.141 -0.207,0.445 -0.313,0.929 -0.313,1.453 0,0.519 0.09,0.976 0.266,1.375 0.18,0.394 0.433,0.723 0.766,0.984 0.335,0.27 0.742,0.473 1.218,0.61 0.481,0.144 1.016,0.218 1.61,0.218 h 0.5 z m -0.875,4.75 c -0.832,-0.012 -1.477,-0.211 -1.938,-0.594 -0.457,-0.375 -0.687,-0.902 -0.687,-1.578 0,-0.344 0.062,-0.664 0.187,-0.953 0.117,-0.281 0.289,-0.531 0.516,-0.75 0.23,-0.219 0.508,-0.402 0.828,-0.547 0.324,-0.148 0.687,-0.246 1.094,-0.297 z"
         style="fill:#000000;fill-opacity:1;fill-rule:nonzero;stroke:none"
         id="path24177"
         inkscape:connector-curvature="0" /><path
         d="m 11.969,158.104 c 0,-0.773 -0.235,-1.351 -0.703,-1.734 -0.477,-0.375 -1.192,-0.563 -2.141,-0.563 -0.52,0 -1.156,0.055 -1.906,0.172 -0.758,0.114 -1.531,0.301 -2.313,0.563 -0.789,0.258 -1.492,0.598 -2.109,1.015 -0.613,0.415 -1.082,0.891 -1.406,1.422 -0.332,0.539 -0.5,1.129 -0.5,1.766 0,1.508 0.961,2.266 2.875,2.266 0.543,0 1.187,-0.063 1.937,-0.188 0.75,-0.125 1.516,-0.324 2.297,-0.594 0.781,-0.261 1.477,-0.593 2.078,-1 0.606,-0.406 1.074,-0.875 1.406,-1.406 0.325,-0.531 0.485,-1.105 0.485,-1.719 z m -5.985,-0.468 v 3.734 c -1.093,0.25 -2.035,0.375 -2.828,0.375 -0.551,0 -0.961,-0.09 -1.234,-0.266 -0.27,-0.179 -0.406,-0.453 -0.406,-0.828 0,-0.617 0.386,-1.183 1.156,-1.703 0.773,-0.512 1.875,-0.949 3.312,-1.312 z m 0.797,3.562 v -3.75 c 1.137,-0.25 2.09,-0.375 2.86,-0.375 0.586,0 1.011,0.086 1.281,0.266 0.273,0.176 0.406,0.461 0.406,0.859 0,0.582 -0.39,1.133 -1.172,1.656 -0.781,0.532 -1.906,0.977 -3.375,1.344 z"
         style="fill:#000000;fill-opacity:1;fill-rule:nonzero;stroke:none"
         id="path24179"
         inkscape:connector-curvature="0" /><g
         id="g24181"
         transform="matrix(1,0,0,-1,0,202.58092)"><path
           d="M 43.68,25.199 H 54.59"
           style="fill:none;stroke:#000000;stroke-width:1.55999994;stroke-linecap:butt;stroke-linejoin:miter;stroke-miterlimit:10;stroke-dasharray:none;stroke-opacity:1"
           id="path24183"
           inkscape:connector-curvature="0" /></g><path
         d="m 27.957,50.241 c -0.875,0 -1.527,0.266 -1.953,0.797 -0.43,0.531 -0.641,1.332 -0.641,2.406 0,0.571 0.063,1.285 0.188,2.141 0.125,0.851 0.332,1.722 0.625,2.609 0.301,0.883 0.687,1.672 1.156,2.36 0.469,0.687 1.004,1.218 1.609,1.593 0.602,0.375 1.258,0.563 1.969,0.563 1.695,0 2.547,-1.078 2.547,-3.235 0,-0.617 -0.07,-1.343 -0.203,-2.187 -0.137,-0.844 -0.356,-1.711 -0.656,-2.594 -0.293,-0.875 -0.668,-1.652 -1.125,-2.328 -0.461,-0.68 -0.993,-1.203 -1.594,-1.578 -0.594,-0.367 -1.234,-0.547 -1.922,-0.547 z M 27.41,56.96 h 4.219 c 0.269,1.238 0.406,2.305 0.406,3.203 0,0.613 -0.101,1.07 -0.297,1.375 -0.199,0.301 -0.511,0.453 -0.937,0.453 -0.68,0 -1.309,-0.434 -1.891,-1.297 -0.586,-0.867 -1.086,-2.109 -1.5,-3.734 z m 4.016,-0.891 h -4.219 c -0.281,-1.273 -0.422,-2.34 -0.422,-3.203 0,-0.656 0.098,-1.141 0.297,-1.453 0.207,-0.305 0.531,-0.453 0.969,-0.453 0.656,0 1.273,0.437 1.859,1.312 0.594,0.883 1.098,2.149 1.516,3.797 z"
         style="fill:#000000;fill-opacity:1;fill-rule:nonzero;stroke:none"
         id="path24185"
         inkscape:connector-curvature="0" /><path
         d="m 38.395,51.413 c -0.055,0.375 -0.184,0.648 -0.391,0.828 -0.199,0.188 -0.516,0.281 -0.953,0.281 -0.168,0 -0.328,-0.027 -0.485,-0.078 -0.148,-0.043 -0.273,-0.105 -0.375,-0.187 -0.105,-0.075 -0.187,-0.168 -0.25,-0.282 -0.062,-0.117 -0.093,-0.242 -0.093,-0.375 0,-0.125 0.015,-0.242 0.047,-0.343 0.031,-0.106 0.085,-0.203 0.171,-0.297 0.094,-0.094 0.219,-0.199 0.375,-0.313 0.157,-0.105 0.364,-0.226 0.625,-0.359 0.27,-0.148 0.493,-0.289 0.672,-0.422 0.188,-0.137 0.332,-0.277 0.438,-0.422 0.101,-0.137 0.176,-0.281 0.219,-0.437 0.039,-0.157 0.062,-0.336 0.062,-0.532 0,-0.304 -0.062,-0.574 -0.187,-0.812 -0.125,-0.242 -0.297,-0.445 -0.516,-0.609 -0.219,-0.157 -0.481,-0.282 -0.781,-0.375 -0.293,-0.082 -0.618,-0.125 -0.969,-0.125 -0.399,0 -0.781,0.027 -1.156,0.078 -0.375,0.039 -0.774,0.125 -1.188,0.25 l 0.328,1.453 h 0.547 c 0.02,-0.399 0.145,-0.695 0.375,-0.891 0.227,-0.199 0.578,-0.297 1.047,-0.297 0.426,0 0.758,0.086 1,0.266 0.25,0.187 0.375,0.445 0.375,0.781 0,0.145 -0.016,0.27 -0.047,0.375 -0.031,0.102 -0.094,0.203 -0.187,0.297 -0.086,0.102 -0.2,0.207 -0.344,0.313 -0.149,0.101 -0.344,0.222 -0.594,0.359 -0.25,0.133 -0.465,0.269 -0.64,0.406 -0.18,0.133 -0.325,0.27 -0.438,0.406 -0.117,0.145 -0.203,0.297 -0.266,0.454 -0.054,0.156 -0.078,0.316 -0.078,0.484 0,0.269 0.055,0.516 0.172,0.734 0.113,0.227 0.27,0.426 0.469,0.594 0.207,0.164 0.457,0.297 0.75,0.391 0.289,0.093 0.617,0.14 0.984,0.14 0.414,0 0.797,-0.027 1.141,-0.078 0.344,-0.054 0.676,-0.125 1,-0.219 l -0.297,-1.437 z"
         style="fill:#000000;fill-opacity:1;fill-rule:nonzero;stroke:none"
         id="path24187"
         inkscape:connector-curvature="0" /><path
         d="m 28.078,171.112 c -0.875,0 -1.527,0.266 -1.953,0.797 -0.43,0.531 -0.641,1.332 -0.641,2.406 0,0.571 0.063,1.285 0.188,2.141 0.125,0.851 0.332,1.723 0.625,2.609 0.301,0.883 0.687,1.672 1.156,2.36 0.469,0.687 1.004,1.218 1.61,1.593 0.601,0.375 1.257,0.563 1.968,0.563 1.696,0 2.547,-1.078 2.547,-3.234 0,-0.618 -0.07,-1.344 -0.203,-2.188 -0.137,-0.844 -0.355,-1.711 -0.656,-2.594 -0.293,-0.875 -0.668,-1.652 -1.125,-2.328 -0.461,-0.68 -0.992,-1.203 -1.594,-1.578 -0.594,-0.367 -1.234,-0.547 -1.922,-0.547 z m -0.547,6.719 h 4.219 c 0.27,1.238 0.406,2.305 0.406,3.203 0,0.613 -0.101,1.07 -0.297,1.375 -0.199,0.301 -0.511,0.453 -0.937,0.453 -0.68,0 -1.309,-0.433 -1.891,-1.297 -0.586,-0.867 -1.086,-2.109 -1.5,-3.734 z m 4.016,-0.891 h -4.219 c -0.281,-1.273 -0.422,-2.34 -0.422,-3.203 0,-0.656 0.098,-1.14 0.297,-1.453 0.207,-0.305 0.531,-0.453 0.969,-0.453 0.656,0 1.273,0.437 1.859,1.312 0.594,0.883 1.098,2.149 1.516,3.797 z"
         style="fill:#000000;fill-opacity:1;fill-rule:nonzero;stroke:none"
         id="path24189"
         inkscape:connector-curvature="0" /><path
         d="m 38.293,169.061 c -0.219,-0.293 -0.434,-0.543 -0.641,-0.75 -0.199,-0.211 -0.398,-0.382 -0.593,-0.515 -0.2,-0.137 -0.399,-0.231 -0.594,-0.281 -0.199,-0.063 -0.406,-0.094 -0.625,-0.094 -0.492,0 -0.875,0.176 -1.156,0.531 -0.274,0.363 -0.407,0.891 -0.407,1.578 0,0.395 0.039,0.781 0.125,1.156 0.094,0.375 0.219,0.727 0.375,1.063 0.157,0.344 0.336,0.648 0.547,0.922 0.219,0.281 0.457,0.519 0.719,0.719 0.27,0.195 0.555,0.347 0.859,0.453 0.301,0.113 0.61,0.172 0.922,0.172 0.332,0 0.625,-0.043 0.875,-0.125 0.258,-0.075 0.492,-0.18 0.703,-0.313 l 0.625,0.438 0.469,-0.141 c -0.117,-0.543 -0.23,-1.078 -0.344,-1.609 -0.105,-0.524 -0.218,-1.055 -0.343,-1.594 -0.137,-0.637 -0.258,-1.227 -0.36,-1.766 -0.094,-0.543 -0.203,-1.023 -0.328,-1.437 -0.125,-0.414 -0.277,-0.774 -0.453,-1.078 -0.168,-0.313 -0.387,-0.567 -0.656,-0.766 -0.262,-0.207 -0.59,-0.363 -0.985,-0.469 -0.398,-0.113 -0.882,-0.172 -1.453,-0.172 -0.875,0 -1.539,0.11 -1.984,0.328 -0.449,0.211 -0.672,0.532 -0.672,0.969 0,0.117 0.016,0.227 0.047,0.328 0.039,0.106 0.098,0.203 0.172,0.297 0.082,0.094 0.179,0.188 0.297,0.281 0.125,0.086 0.269,0.18 0.437,0.282 l 0.563,-0.438 c -0.149,-0.125 -0.246,-0.242 -0.297,-0.359 -0.055,-0.114 -0.078,-0.235 -0.078,-0.36 0,-0.238 0.117,-0.421 0.359,-0.546 0.238,-0.125 0.617,-0.188 1.141,-0.188 0.257,0 0.492,0.023 0.703,0.063 0.207,0.042 0.398,0.109 0.578,0.203 0.176,0.086 0.336,0.211 0.484,0.375 0.145,0.156 0.274,0.355 0.391,0.593 0.125,0.243 0.238,0.543 0.344,0.907 0.113,0.375 0.226,0.812 0.343,1.312 z m 0.422,2.063 c 0.051,0.238 0.098,0.473 0.14,0.703 0.04,0.227 0.063,0.43 0.063,0.609 0,0.344 -0.086,0.586 -0.25,0.735 -0.156,0.144 -0.398,0.219 -0.719,0.219 -0.25,0 -0.484,-0.059 -0.703,-0.172 -0.211,-0.118 -0.402,-0.266 -0.578,-0.453 -0.18,-0.18 -0.34,-0.391 -0.484,-0.641 -0.137,-0.25 -0.25,-0.516 -0.344,-0.797 -0.094,-0.281 -0.168,-0.574 -0.219,-0.875 -0.055,-0.293 -0.078,-0.574 -0.078,-0.844 0,-0.906 0.27,-1.359 0.812,-1.359 0.227,0 0.458,0.066 0.688,0.203 0.227,0.145 0.473,0.379 0.734,0.703 0.133,0.164 0.254,0.32 0.36,0.469 0.101,0.144 0.187,0.289 0.25,0.437 0.07,0.157 0.133,0.317 0.187,0.485 0.051,0.176 0.098,0.367 0.141,0.578 z"
         style="fill:#000000;fill-opacity:1;fill-rule:nonzero;stroke:none"
         id="path24191"
         inkscape:connector-curvature="0" /><g
         id="g24193"
         transform="matrix(1,0,0,-1,0,202.58092)"><path
           d="M 97.391,146.219 96.66,176.77"
           style="fill:none;stroke:#5999d4;stroke-width:0.47999999;stroke-linecap:butt;stroke-linejoin:miter;stroke-miterlimit:10;stroke-dasharray:1.92, 1.44;stroke-dashoffset:0;stroke-opacity:1"
           id="path24195"
           inkscape:connector-curvature="0" /></g><g
         id="g24197"
         transform="matrix(1,0,0,-1,0,202.58092)"><path
           d="m 239.941,25.141 v 151.64"
           style="fill:none;stroke:#5999d4;stroke-width:0.47999999;stroke-linecap:butt;stroke-linejoin:miter;stroke-miterlimit:10;stroke-dasharray:1.92, 1.44;stroke-dashoffset:0;stroke-opacity:1"
           id="path24199"
           inkscape:connector-curvature="0" /></g><g
         id="g24201"
         transform="matrix(1,0,0,-1,0,202.58092)"><path
           d="M 97.441,176.789 V 161.52"
           style="fill:none;stroke:#000000;stroke-width:1.55999994;stroke-linecap:butt;stroke-linejoin:miter;stroke-miterlimit:10;stroke-dasharray:none;stroke-opacity:1"
           id="path24203"
           inkscape:connector-curvature="0" /></g><g
         id="g24205"
         transform="matrix(1,0,0,-1,0,202.58092)"><path
           d="M 240,176.789 V 161.52"
           style="fill:none;stroke:#000000;stroke-width:1.55999994;stroke-linecap:butt;stroke-linejoin:miter;stroke-miterlimit:10;stroke-dasharray:none;stroke-opacity:1"
           id="path24207"
           inkscape:connector-curvature="0" /></g><path
         d="M 95.93,8.147 C 95.418,7.53 94.922,7.077 94.445,6.788 93.977,6.495 93.484,6.35 92.977,6.35 c -1.231,0 -1.844,0.618 -1.844,1.86 0,0.383 0.051,0.797 0.156,1.234 l 1.031,4.563 h -1.468 l 0.125,0.609 c 0.343,0 0.601,0.02 0.781,0.063 0.187,0.05 0.336,0.117 0.453,0.203 0.125,0.082 0.234,0.195 0.328,0.343 0.102,0.157 0.203,0.352 0.297,0.594 0.094,0.238 0.234,0.656 0.422,1.25 h 1.219 l -0.485,-2.172 h 2.672 l -0.203,-0.89 H 93.789 L 93.008,10.6 C 92.859,9.932 92.766,9.452 92.727,9.163 92.684,8.87 92.664,8.64 92.664,8.475 c 0,-0.73 0.301,-1.093 0.906,-1.093 0.25,0 0.52,0.097 0.813,0.297 0.289,0.195 0.633,0.531 1.031,1 z"
         style="fill:#000000;fill-opacity:1;fill-rule:nonzero;stroke:none"
         id="path24209"
         inkscape:connector-curvature="0" /><path
         d="m 100.348,2.632 c -0.938,0 -1.637,0.336 -2.094,1.015 -0.449,0.688 -0.672,1.723 -0.672,3.11 0,0.726 0.066,1.351 0.203,1.875 0.145,0.531 0.344,0.968 0.594,1.312 0.258,0.352 0.562,0.613 0.906,0.781 0.352,0.176 0.742,0.266 1.172,0.266 0.5,0 0.926,-0.094 1.281,-0.281 0.364,-0.188 0.657,-0.461 0.875,-0.813 0.227,-0.343 0.395,-0.773 0.5,-1.281 0.102,-0.5 0.157,-1.07 0.157,-1.703 0,-1.406 -0.25,-2.477 -0.75,-3.203 -0.5,-0.719 -1.227,-1.078 -2.172,-1.078 z m -1.453,4.281 c 0,-0.637 0.023,-1.184 0.078,-1.641 0.062,-0.461 0.156,-0.84 0.281,-1.14 0.133,-0.293 0.301,-0.508 0.5,-0.641 0.195,-0.137 0.43,-0.203 0.703,-0.203 0.25,0 0.469,0.062 0.656,0.187 0.188,0.133 0.344,0.336 0.469,0.61 0.125,0.281 0.219,0.633 0.281,1.062 0.071,0.426 0.11,0.926 0.11,1.5 0,0.657 -0.039,1.219 -0.11,1.688 -0.074,0.469 -0.172,0.851 -0.297,1.156 -0.125,0.301 -0.289,0.524 -0.484,0.672 -0.187,0.144 -0.406,0.219 -0.656,0.219 -0.305,0 -0.555,-0.078 -0.75,-0.235 C 99.477,9.991 99.32,9.761 99.207,9.46 99.09,9.167 99.008,8.804 98.957,8.366 98.914,7.936 98.895,7.452 98.895,6.913 Z"
         style="fill:#000000;fill-opacity:1;fill-rule:nonzero;stroke:none"
         id="path24211"
         inkscape:connector-curvature="0" /><path
         d="m 221.758,7.909 c -0.512,-0.617 -1.008,-1.07 -1.485,-1.359 -0.468,-0.293 -0.96,-0.438 -1.468,-0.438 -1.231,0 -1.844,0.617 -1.844,1.86 0,0.382 0.051,0.796 0.156,1.234 l 1.031,4.562 h -1.468 l 0.125,0.61 c 0.343,0 0.601,0.019 0.781,0.062 0.187,0.051 0.336,0.117 0.453,0.203 0.125,0.082 0.234,0.196 0.328,0.344 0.102,0.156 0.203,0.352 0.297,0.594 0.094,0.238 0.234,0.656 0.422,1.25 h 1.219 l -0.485,-2.172 h 2.672 l -0.203,-0.891 h -2.672 l -0.781,-3.406 c -0.148,-0.668 -0.242,-1.148 -0.281,-1.437 -0.043,-0.293 -0.063,-0.524 -0.063,-0.688 0,-0.73 0.301,-1.094 0.906,-1.094 0.25,0 0.52,0.098 0.813,0.297 0.289,0.196 0.633,0.532 1.031,1 z"
         style="fill:#000000;fill-opacity:1;fill-rule:nonzero;stroke:none"
         id="path24213"
         inkscape:connector-curvature="0" /><path
         d="m 226.176,2.39 c -0.938,0 -1.637,0.335 -2.094,1.015 -0.449,0.688 -0.672,1.723 -0.672,3.11 0,0.726 0.067,1.351 0.203,1.875 0.145,0.531 0.344,0.968 0.594,1.312 0.258,0.352 0.563,0.613 0.906,0.781 0.352,0.176 0.742,0.266 1.172,0.266 0.5,0 0.926,-0.094 1.281,-0.281 0.364,-0.188 0.657,-0.461 0.875,-0.813 0.227,-0.344 0.395,-0.773 0.5,-1.281 0.102,-0.5 0.157,-1.07 0.157,-1.703 0,-1.406 -0.25,-2.477 -0.75,-3.203 -0.5,-0.719 -1.227,-1.078 -2.172,-1.078 z m -1.453,4.281 c 0,-0.637 0.023,-1.184 0.078,-1.641 0.062,-0.461 0.156,-0.84 0.281,-1.14 0.133,-0.293 0.301,-0.508 0.5,-0.641 0.195,-0.137 0.43,-0.203 0.703,-0.203 0.25,0 0.469,0.062 0.656,0.187 0.188,0.133 0.344,0.336 0.469,0.61 0.125,0.281 0.219,0.632 0.281,1.062 0.071,0.426 0.11,0.926 0.11,1.5 0,0.656 -0.039,1.219 -0.11,1.688 -0.074,0.468 -0.171,0.851 -0.296,1.156 -0.125,0.301 -0.29,0.523 -0.485,0.672 -0.187,0.144 -0.406,0.219 -0.656,0.219 -0.305,0 -0.555,-0.079 -0.75,-0.235 -0.199,-0.156 -0.356,-0.387 -0.469,-0.687 -0.117,-0.293 -0.199,-0.657 -0.25,-1.094 -0.043,-0.43 -0.062,-0.914 -0.062,-1.453 z"
         style="fill:#000000;fill-opacity:1;fill-rule:nonzero;stroke:none"
         id="path24215"
         inkscape:connector-curvature="0" /><path
         d="M 242.195,10.815 V 5.753 h -1.25 v 5.062 h -4.781 v 1.172 h 4.781 v 5.063 h 1.25 v -5.063 h 4.797 v -1.172 z"
         style="fill:#000000;fill-opacity:1;fill-rule:nonzero;stroke:none"
         id="path24217"
         inkscape:connector-curvature="0" /><path
         d="m 258.48,7.909 c -0.511,-0.617 -1.007,-1.07 -1.484,-1.359 -0.469,-0.293 -0.961,-0.438 -1.469,-0.438 -1.23,0 -1.843,0.617 -1.843,1.86 0,0.382 0.05,0.796 0.156,1.234 l 1.031,4.562 h -1.469 l 0.125,0.61 c 0.344,0 0.602,0.019 0.782,0.062 0.187,0.051 0.336,0.117 0.453,0.203 0.125,0.082 0.234,0.196 0.328,0.344 0.101,0.156 0.203,0.352 0.297,0.594 0.093,0.238 0.234,0.656 0.422,1.25 h 1.218 l -0.484,-2.172 h 2.672 l -0.203,-0.891 h -2.672 l -0.781,-3.406 c -0.149,-0.668 -0.243,-1.148 -0.282,-1.437 -0.043,-0.293 -0.062,-0.524 -0.062,-0.688 0,-0.73 0.301,-1.094 0.906,-1.094 0.25,0 0.52,0.098 0.813,0.297 0.289,0.196 0.632,0.532 1.031,1 z"
         style="fill:#000000;fill-opacity:1;fill-rule:nonzero;stroke:none"
         id="path24219"
         inkscape:connector-curvature="0" /><path
         d="m 261.395,2.733 c -0.2,-0.926 -0.524,-1.613 -0.969,-2.062 -0.449,-0.446 -1.043,-0.672 -1.781,-0.672 -0.2,0 -0.344,0.016 -0.438,0.047 0.031,0.105 0.055,0.215 0.078,0.328 0.02,0.105 0.047,0.215 0.078,0.328 0.02,-0.008 0.051,-0.016 0.094,-0.016 h 0.203 c 0.164,0 0.317,0.028 0.453,0.079 0.133,0.054 0.258,0.148 0.375,0.281 0.114,0.136 0.219,0.324 0.313,0.562 0.101,0.242 0.195,0.547 0.281,0.922 l 1.266,5.641 h -1.094 l 0.109,0.484 c 0.239,0.02 0.426,0.035 0.563,0.047 0.133,0.02 0.25,0.055 0.344,0.109 0.093,0.063 0.164,0.161 0.218,0.297 0.239,0.77 0.602,1.344 1.094,1.719 0.5,0.383 1.145,0.578 1.938,0.578 0.226,0 0.429,-0.015 0.609,-0.047 0.187,-0.023 0.359,-0.047 0.516,-0.078 l -0.25,-1.172 h -0.625 c -0.032,0.239 -0.106,0.41 -0.219,0.516 -0.117,0.113 -0.274,0.172 -0.469,0.172 -0.219,0 -0.402,-0.047 -0.547,-0.141 -0.148,-0.094 -0.277,-0.242 -0.39,-0.437 -0.118,-0.188 -0.215,-0.414 -0.297,-0.672 -0.075,-0.25 -0.125,-0.477 -0.157,-0.672 h 1.75 l -0.14,-0.703 h -1.766 z"
         style="fill:#000000;fill-opacity:1;fill-rule:nonzero;stroke:none"
         id="path24221"
         inkscape:connector-curvature="0" /><g
         id="g24223"
         transform="matrix(1,0,0,-1,0,202.58092)"><path
           d="m 149.82,100.859 h 42.91"
           style="fill:none;stroke:#5999d4;stroke-width:0.47999999;stroke-linecap:butt;stroke-linejoin:miter;stroke-miterlimit:10;stroke-dasharray:none;stroke-opacity:1"
           id="path24225"
           inkscape:connector-curvature="0" /></g><g
         id="g24227"
         transform="matrix(1,0,0,-1,0,202.58092)"><path
           d="M 192.66,100.918 V 64.738"
           style="fill:none;stroke:#5999d4;stroke-width:0.47999999;stroke-linecap:butt;stroke-linejoin:miter;stroke-miterlimit:10;stroke-dasharray:none;stroke-opacity:1"
           id="path24229"
           inkscape:connector-curvature="0" /></g><path
         d="m 200.395,100.585 c -0.168,0 -0.309,0.047 -0.422,0.14 -0.118,0.082 -0.211,0.204 -0.282,0.36 -0.062,0.156 -0.109,0.336 -0.14,0.547 -0.031,0.207 -0.047,0.437 -0.047,0.687 0,0.332 0.019,0.688 0.062,1.063 0.039,0.383 0.094,0.773 0.157,1.172 l 0.375,2.421 c 0.019,0.145 0.035,0.282 0.047,0.407 0.019,0.125 0.031,0.218 0.031,0.281 0,0.176 -0.031,0.32 -0.094,0.437 -0.062,0.125 -0.164,0.188 -0.297,0.188 -0.117,0 -0.242,-0.039 -0.375,-0.109 -0.125,-0.063 -0.258,-0.153 -0.39,-0.266 -0.125,-0.106 -0.25,-0.219 -0.375,-0.344 -0.118,-0.117 -0.231,-0.226 -0.344,-0.328 l -0.422,0.5 c 0.187,0.188 0.379,0.367 0.578,0.547 0.207,0.187 0.426,0.352 0.656,0.5 0.227,0.156 0.469,0.273 0.719,0.359 0.25,0.094 0.508,0.141 0.781,0.141 0.219,0 0.395,-0.039 0.532,-0.109 0.144,-0.075 0.253,-0.172 0.328,-0.297 0.082,-0.117 0.14,-0.246 0.172,-0.391 0.031,-0.137 0.046,-0.277 0.046,-0.422 0,-0.086 -0.007,-0.164 -0.015,-0.234 0,-0.074 -0.008,-0.149 -0.016,-0.219 l -0.5,-3.172 c -0.055,-0.336 -0.101,-0.664 -0.14,-0.984 -0.032,-0.324 -0.047,-0.606 -0.047,-0.844 0,-0.25 0.015,-0.453 0.047,-0.609 0.031,-0.149 0.085,-0.219 0.171,-0.219 0.188,0 0.426,0.078 0.719,0.234 0.301,0.157 0.613,0.368 0.938,0.641 0.32,0.269 0.64,0.594 0.953,0.969 0.32,0.375 0.613,0.773 0.875,1.203 0.258,0.437 0.469,0.894 0.625,1.375 0.164,0.476 0.25,0.961 0.25,1.453 0,0.207 -0.047,0.367 -0.141,0.484 -0.094,0.114 -0.234,0.172 -0.422,0.172 -0.25,0 -0.48,-0.101 -0.687,-0.297 -0.211,-0.187 -0.422,-0.433 -0.641,-0.734 l -0.5,0.437 c 0.133,0.207 0.297,0.411 0.485,0.61 0.195,0.195 0.398,0.367 0.609,0.515 0.219,0.145 0.441,0.258 0.672,0.344 0.226,0.094 0.453,0.141 0.672,0.141 0.414,0 0.718,-0.117 0.906,-0.344 0.187,-0.219 0.281,-0.512 0.281,-0.875 0,-0.281 -0.055,-0.605 -0.156,-0.969 -0.094,-0.367 -0.234,-0.75 -0.422,-1.156 -0.18,-0.398 -0.391,-0.809 -0.641,-1.234 -0.25,-0.43 -0.531,-0.844 -0.843,-1.25 -0.305,-0.399 -0.625,-0.774 -0.969,-1.125 -0.344,-0.356 -0.703,-0.668 -1.078,-0.938 -0.367,-0.262 -0.742,-0.469 -1.125,-0.625 -0.387,-0.156 -0.774,-0.234 -1.156,-0.234 z"
         style="fill:#000000;fill-opacity:1;fill-rule:nonzero;stroke:none"
         id="path24231"
         inkscape:connector-curvature="0" /><path
         d="m 212.094,97.022 h -1.235 c 0.051,0.27 0.114,0.563 0.188,0.875 0.082,0.313 0.16,0.625 0.234,0.938 0.071,0.32 0.145,0.633 0.219,0.937 0.07,0.313 0.133,0.602 0.188,0.875 0.05,0.27 0.093,0.508 0.125,0.719 0.039,0.219 0.062,0.391 0.062,0.516 0,0.258 -0.055,0.453 -0.156,0.578 -0.106,0.125 -0.274,0.187 -0.5,0.187 -0.211,0 -0.43,-0.078 -0.656,-0.234 -0.231,-0.148 -0.45,-0.344 -0.657,-0.594 -0.211,-0.242 -0.398,-0.515 -0.562,-0.828 -0.168,-0.312 -0.289,-0.633 -0.36,-0.953 l -0.64,-3.016 h -1.25 l 0.953,4.141 c 0.051,0.227 0.086,0.426 0.109,0.594 0.032,0.164 0.047,0.304 0.047,0.422 0,0.312 -0.125,0.468 -0.375,0.468 -0.074,0 -0.152,-0.023 -0.234,-0.062 -0.074,-0.031 -0.156,-0.078 -0.25,-0.141 -0.086,-0.062 -0.18,-0.14 -0.281,-0.234 -0.094,-0.094 -0.204,-0.211 -0.329,-0.344 l -0.437,0.406 c 0.207,0.219 0.394,0.399 0.562,0.547 0.176,0.156 0.348,0.281 0.516,0.375 0.164,0.102 0.328,0.18 0.484,0.235 0.157,0.05 0.317,0.078 0.485,0.078 0.312,0 0.551,-0.106 0.719,-0.313 0.175,-0.211 0.265,-0.48 0.265,-0.812 0,-0.094 -0.012,-0.188 -0.031,-0.282 -0.012,-0.085 -0.031,-0.168 -0.063,-0.25 l 0.079,-0.031 c 0.406,0.563 0.804,0.985 1.203,1.266 0.406,0.281 0.816,0.422 1.234,0.422 0.457,0 0.797,-0.117 1.016,-0.344 0.218,-0.231 0.328,-0.574 0.328,-1.031 v -0.11 c 0,-0.031 -0.008,-0.07 -0.016,-0.109 h 0.031 c 0.395,0.539 0.786,0.941 1.172,1.203 0.395,0.258 0.801,0.391 1.219,0.391 0.445,0 0.781,-0.125 1,-0.375 0.227,-0.242 0.344,-0.575 0.344,-1 0,-0.137 -0.024,-0.321 -0.063,-0.547 -0.043,-0.219 -0.093,-0.465 -0.156,-0.735 -0.062,-0.261 -0.133,-0.539 -0.203,-0.828 -0.074,-0.281 -0.141,-0.547 -0.203,-0.797 -0.043,-0.168 -0.074,-0.304 -0.094,-0.406 -0.023,-0.105 -0.043,-0.195 -0.062,-0.265 -0.012,-0.063 -0.016,-0.122 -0.016,-0.172 V 98.21 c 0,-0.156 0.023,-0.274 0.078,-0.344 0.063,-0.074 0.16,-0.109 0.297,-0.109 0.07,0 0.144,0.015 0.219,0.047 0.082,0.031 0.164,0.078 0.25,0.14 0.082,0.063 0.175,0.141 0.281,0.235 0.101,0.101 0.219,0.226 0.344,0.375 l 0.437,-0.422 c -0.199,-0.219 -0.387,-0.407 -0.562,-0.563 -0.18,-0.148 -0.352,-0.273 -0.516,-0.375 -0.156,-0.094 -0.32,-0.164 -0.484,-0.203 -0.157,-0.051 -0.325,-0.078 -0.5,-0.078 -0.168,0 -0.321,0.031 -0.453,0.094 -0.125,0.05 -0.235,0.129 -0.329,0.234 -0.086,0.102 -0.152,0.223 -0.203,0.359 -0.054,0.145 -0.078,0.301 -0.078,0.469 0,0.352 0.07,0.801 0.219,1.344 0.082,0.281 0.156,0.547 0.219,0.797 0.07,0.25 0.129,0.476 0.172,0.687 0.05,0.219 0.085,0.41 0.109,0.578 0.031,0.165 0.047,0.305 0.047,0.422 0,0.258 -0.055,0.446 -0.156,0.563 -0.094,0.125 -0.25,0.187 -0.469,0.187 -0.125,0 -0.266,-0.039 -0.422,-0.109 -0.149,-0.063 -0.293,-0.156 -0.438,-0.281 -0.148,-0.117 -0.293,-0.258 -0.437,-0.422 -0.149,-0.156 -0.281,-0.336 -0.406,-0.531 -0.125,-0.188 -0.235,-0.391 -0.328,-0.61 -0.094,-0.211 -0.168,-0.422 -0.219,-0.64 z"
         style="fill:#000000;fill-opacity:1;fill-rule:nonzero;stroke:none"
         id="path24233"
         inkscape:connector-curvature="0" /><path
         d="m 223.23,98.6 c -0.218,-0.304 -0.433,-0.562 -0.64,-0.781 -0.199,-0.211 -0.399,-0.383 -0.594,-0.515 -0.199,-0.137 -0.402,-0.235 -0.609,-0.297 -0.199,-0.063 -0.407,-0.094 -0.625,-0.094 -0.5,0 -0.891,0.176 -1.172,0.531 -0.274,0.363 -0.406,0.891 -0.406,1.578 0,0.414 0.039,0.813 0.125,1.188 0.093,0.383 0.218,0.738 0.375,1.062 0.156,0.332 0.343,0.633 0.562,0.907 0.219,0.281 0.457,0.515 0.719,0.703 0.269,0.195 0.551,0.347 0.844,0.453 0.3,0.113 0.609,0.172 0.921,0.172 0.333,0 0.625,-0.043 0.875,-0.125 0.258,-0.075 0.5,-0.18 0.719,-0.313 l 0.61,0.438 0.515,-0.141 -0.953,-4.156 c -0.062,-0.242 -0.105,-0.438 -0.125,-0.594 -0.023,-0.148 -0.031,-0.281 -0.031,-0.406 0,-0.156 0.031,-0.274 0.094,-0.344 0.07,-0.074 0.171,-0.109 0.296,-0.109 0.071,0 0.145,0.015 0.219,0.047 0.071,0.031 0.149,0.078 0.235,0.14 0.093,0.063 0.191,0.141 0.296,0.235 0.102,0.101 0.219,0.226 0.344,0.375 0.071,-0.075 0.145,-0.149 0.219,-0.219 0.07,-0.074 0.141,-0.141 0.203,-0.203 -0.211,-0.219 -0.402,-0.407 -0.578,-0.563 -0.168,-0.156 -0.336,-0.289 -0.5,-0.39 -0.168,-0.094 -0.328,-0.161 -0.484,-0.204 -0.157,-0.039 -0.321,-0.062 -0.485,-0.062 -0.304,0 -0.543,0.094 -0.719,0.281 -0.167,0.196 -0.25,0.469 -0.25,0.813 0,0.195 0.032,0.379 0.094,0.547 z m 0.422,2.016 c 0.051,0.258 0.094,0.492 0.125,0.703 0.039,0.219 0.063,0.422 0.063,0.61 0,0.343 -0.086,0.586 -0.25,0.734 -0.156,0.144 -0.406,0.219 -0.75,0.219 -0.25,0 -0.485,-0.059 -0.703,-0.172 -0.211,-0.117 -0.403,-0.266 -0.578,-0.453 -0.18,-0.188 -0.34,-0.407 -0.485,-0.657 -0.136,-0.25 -0.25,-0.515 -0.344,-0.796 -0.093,-0.282 -0.167,-0.571 -0.218,-0.86 -0.043,-0.293 -0.063,-0.574 -0.063,-0.844 0,-0.46 0.063,-0.804 0.188,-1.031 0.133,-0.219 0.343,-0.328 0.625,-0.328 0.144,0 0.285,0.024 0.422,0.078 0.132,0.051 0.273,0.133 0.421,0.25 0.375,0.289 0.692,0.645 0.954,1.063 0.257,0.414 0.457,0.91 0.593,1.484 z"
         style="fill:#000000;fill-opacity:1;fill-rule:nonzero;stroke:none"
         id="path24235"
         inkscape:connector-curvature="0" /><path
         d="m 229.914,100.085 c -0.074,0.351 -0.141,0.66 -0.203,0.922 -0.055,0.258 -0.106,0.484 -0.156,0.672 -0.055,0.187 -0.106,0.336 -0.157,0.453 -0.043,0.125 -0.089,0.222 -0.14,0.297 -0.043,0.07 -0.094,0.117 -0.156,0.14 -0.055,0.031 -0.118,0.051 -0.188,0.063 -0.074,0 -0.141,-0.016 -0.203,-0.047 -0.063,-0.024 -0.133,-0.063 -0.203,-0.125 -0.063,-0.055 -0.137,-0.133 -0.219,-0.235 -0.074,-0.105 -0.156,-0.246 -0.25,-0.421 l -0.5,0.328 c 0.176,0.25 0.332,0.461 0.469,0.64 0.144,0.188 0.285,0.332 0.422,0.438 0.133,0.101 0.273,0.176 0.422,0.219 0.156,0.05 0.328,0.078 0.515,0.078 0.238,0 0.43,-0.055 0.578,-0.157 0.145,-0.105 0.266,-0.257 0.36,-0.453 0.101,-0.187 0.187,-0.429 0.25,-0.718 0.062,-0.282 0.129,-0.606 0.203,-0.969 h 0.078 c 0.258,0.332 0.477,0.617 0.656,0.859 0.188,0.25 0.352,0.457 0.5,0.625 0.145,0.164 0.274,0.301 0.391,0.406 0.125,0.114 0.238,0.196 0.344,0.25 0.113,0.063 0.226,0.102 0.343,0.125 0.114,0.02 0.243,0.032 0.391,0.032 0.207,0 0.398,-0.043 0.578,-0.125 l -0.312,-1.25 h -0.532 c -0.011,0.187 -0.078,0.281 -0.203,0.281 -0.054,0 -0.105,-0.012 -0.156,-0.031 -0.055,-0.012 -0.121,-0.043 -0.203,-0.094 -0.074,-0.055 -0.164,-0.125 -0.266,-0.219 -0.094,-0.094 -0.211,-0.215 -0.344,-0.359 -0.136,-0.149 -0.293,-0.324 -0.468,-0.531 -0.168,-0.211 -0.367,-0.461 -0.594,-0.75 0.113,-0.586 0.211,-1.055 0.297,-1.407 0.082,-0.343 0.16,-0.609 0.234,-0.797 0.082,-0.187 0.16,-0.312 0.235,-0.375 0.07,-0.054 0.16,-0.078 0.265,-0.078 0.071,0 0.133,0.004 0.188,0.016 0.062,0.019 0.125,0.055 0.187,0.109 0.071,0.063 0.145,0.145 0.219,0.25 0.082,0.114 0.18,0.258 0.297,0.438 l 0.484,-0.313 c -0.187,-0.281 -0.355,-0.511 -0.5,-0.687 -0.148,-0.18 -0.289,-0.32 -0.422,-0.422 -0.136,-0.094 -0.277,-0.156 -0.422,-0.188 -0.148,-0.039 -0.308,-0.062 -0.484,-0.062 -0.168,0 -0.312,0.023 -0.437,0.062 -0.125,0.043 -0.235,0.125 -0.329,0.25 -0.062,0.071 -0.125,0.165 -0.187,0.282 -0.055,0.125 -0.106,0.254 -0.156,0.39 -0.043,0.133 -0.086,0.274 -0.125,0.422 -0.032,0.156 -0.063,0.301 -0.094,0.438 -0.023,0.133 -0.043,0.25 -0.063,0.343 -0.011,0.102 -0.015,0.18 -0.015,0.235 h -0.078 c -0.25,-0.336 -0.469,-0.633 -0.657,-0.891 -0.187,-0.25 -0.359,-0.465 -0.515,-0.64 -0.156,-0.18 -0.297,-0.325 -0.422,-0.438 -0.117,-0.117 -0.234,-0.211 -0.359,-0.281 -0.118,-0.063 -0.235,-0.102 -0.36,-0.125 -0.125,-0.031 -0.262,-0.047 -0.406,-0.047 -0.231,0 -0.422,0.039 -0.578,0.109 l 0.297,1.235 h 0.547 c 0.007,-0.188 0.078,-0.282 0.203,-0.282 0.05,0.008 0.097,0.02 0.14,0.032 0.039,0.008 0.086,0.035 0.141,0.078 0.062,0.039 0.141,0.101 0.234,0.187 0.094,0.094 0.207,0.211 0.344,0.36 0.145,0.156 0.316,0.347 0.516,0.578 0.207,0.238 0.453,0.531 0.734,0.875 z"
         style="fill:#000000;fill-opacity:1;fill-rule:nonzero;stroke:none"
         id="path24237"
         inkscape:connector-curvature="0" /><g
         id="g24239"
         transform="matrix(1,0,0,-1,0,202.58092)"><path
           d="m 554.16,51.719 52.27,46.922 h 74.929"
           style="fill:none;stroke:#ff0000;stroke-width:1.55999994;stroke-linecap:butt;stroke-linejoin:miter;stroke-miterlimit:10;stroke-dasharray:none;stroke-opacity:1"
           id="path24241"
           inkscape:connector-curvature="0" /></g><path
         d="m 396.242,32.362 h 285 V 30.8 h -285 z m 279.391,3.391 7.16,-4.172 -7.16,-4.168 c -0.371,-0.223 -0.852,-0.102 -1.063,0.277 -0.218,0.371 -0.09,0.852 0.282,1.063 l 6,3.5 v -1.34 l -6,3.5 c -0.372,0.207 -0.5,0.687 -0.282,1.059 0.211,0.378 0.692,0.5 1.063,0.281 z"
         style="fill:#000000;fill-opacity:1;fill-rule:nonzero;stroke:none"
         id="path24243"
         inkscape:connector-curvature="0" /><path
         d="m 397.02,31.671 v 169.371 h -1.559 V 31.671 Z m 3.39,163.761 -4.168,7.149 -4.172,-7.149 c -0.218,-0.371 -0.097,-0.851 0.282,-1.07 0.371,-0.222 0.851,-0.09 1.058,0.278 l 3.5,6 h -1.34 l 3.5,-6 c 0.211,-0.368 0.692,-0.5 1.063,-0.278 0.379,0.219 0.5,0.699 0.277,1.07 z"
         style="fill:#000000;fill-opacity:1;fill-rule:nonzero;stroke:none"
         id="path24245"
         inkscape:connector-curvature="0" /><path
         d="M 666.895,18.061 V 7.811 h -1.032 v 10.25 h -3.234 v 0.954 h 7.5 v -0.954 z"
         style="fill:#000000;fill-opacity:1;fill-rule:nonzero;stroke:none"
         id="path24247"
         inkscape:connector-curvature="0" /><path
         d="m 672.289,17.843 c -0.187,0 -0.355,0.066 -0.5,0.203 -0.137,0.133 -0.203,0.304 -0.203,0.515 0,0.196 0.066,0.364 0.203,0.5 0.145,0.133 0.313,0.204 0.5,0.204 0.102,0 0.195,-0.024 0.281,-0.063 0.094,-0.031 0.172,-0.078 0.235,-0.141 0.062,-0.062 0.113,-0.136 0.156,-0.218 0.039,-0.086 0.062,-0.18 0.062,-0.282 0,-0.105 -0.023,-0.203 -0.062,-0.296 -0.031,-0.086 -0.086,-0.157 -0.156,-0.219 -0.063,-0.063 -0.141,-0.117 -0.235,-0.156 -0.086,-0.032 -0.179,-0.047 -0.281,-0.047 z M 671.805,7.811 v 8 h 1 v -8 z"
         style="fill:#000000;fill-opacity:1;fill-rule:nonzero;stroke:none"
         id="path24249"
         inkscape:connector-curvature="0" /><path
         d="m 685.473,7.811 v 4.704 c 0,0.476 -0.039,0.882 -0.11,1.218 -0.074,0.332 -0.187,0.602 -0.343,0.813 -0.149,0.207 -0.34,0.359 -0.579,0.453 -0.242,0.094 -0.523,0.141 -0.843,0.141 -0.293,0 -0.571,-0.075 -0.828,-0.219 -0.262,-0.137 -0.493,-0.324 -0.688,-0.563 -0.199,-0.242 -0.355,-0.527 -0.469,-0.859 -0.105,-0.324 -0.156,-0.68 -0.156,-1.063 V 7.811 h -1 v 4.813 c 0,1.676 -0.648,2.516 -1.937,2.516 -0.293,0 -0.571,-0.071 -0.829,-0.204 -0.25,-0.136 -0.476,-0.324 -0.671,-0.562 -0.188,-0.242 -0.336,-0.527 -0.438,-0.859 -0.105,-0.336 -0.156,-0.704 -0.156,-1.11 V 7.811 h -1 v 8 h 1 v -1.296 h 0.031 c 0.563,0.988 1.379,1.484 2.453,1.484 0.281,0 0.547,-0.043 0.797,-0.125 0.25,-0.086 0.473,-0.203 0.672,-0.359 0.195,-0.157 0.367,-0.344 0.516,-0.563 0.144,-0.211 0.253,-0.437 0.328,-0.687 0.281,0.562 0.644,0.988 1.093,1.281 0.446,0.301 0.957,0.453 1.532,0.453 1.75,0 2.625,-1.086 2.625,-3.25 V 7.811 Z"
         style="fill:#000000;fill-opacity:1;fill-rule:nonzero;stroke:none"
         id="path24251"
         inkscape:connector-curvature="0" /><path
         d="m 689.316,11.64 c 0.008,-0.493 0.079,-0.934 0.204,-1.329 0.125,-0.386 0.3,-0.714 0.531,-0.984 0.238,-0.273 0.523,-0.48 0.859,-0.625 0.332,-0.148 0.711,-0.219 1.141,-0.219 0.894,0 1.742,0.317 2.547,0.953 V 8.452 c -0.762,-0.555 -1.688,-0.828 -2.782,-0.828 -0.531,0 -1.015,0.094 -1.453,0.281 -0.437,0.188 -0.812,0.457 -1.125,0.813 -0.304,0.363 -0.539,0.804 -0.703,1.328 -0.168,0.519 -0.25,1.113 -0.25,1.781 0,0.594 0.086,1.145 0.266,1.656 0.187,0.508 0.441,0.953 0.765,1.328 0.321,0.375 0.704,0.664 1.141,0.875 0.445,0.207 0.93,0.313 1.453,0.313 0.52,0 0.977,-0.09 1.375,-0.266 0.395,-0.179 0.723,-0.433 0.985,-0.765 0.269,-0.336 0.472,-0.743 0.609,-1.219 0.144,-0.481 0.219,-1.016 0.219,-1.609 v -0.5 z m 4.75,0.875 c -0.011,0.832 -0.211,1.476 -0.593,1.937 -0.375,0.457 -0.903,0.688 -1.578,0.688 -0.344,0 -0.665,-0.063 -0.954,-0.188 -0.281,-0.117 -0.531,-0.289 -0.75,-0.516 -0.218,-0.23 -0.402,-0.507 -0.546,-0.828 -0.149,-0.324 -0.247,-0.687 -0.297,-1.093 z"
         style="fill:#000000;fill-opacity:1;fill-rule:nonzero;stroke:none"
         id="path24253"
         inkscape:connector-curvature="0" /><g
         id="g24255"
         transform="matrix(1,0,0,-1,0,202.58092)"><path
           d="m 390.48,98.641 h 10.911"
           style="fill:none;stroke:#000000;stroke-width:1.55999994;stroke-linecap:butt;stroke-linejoin:miter;stroke-miterlimit:10;stroke-dasharray:none;stroke-opacity:1"
           id="path24257"
           inkscape:connector-curvature="0" /></g><path
         d="m 367.289,94.311 c -0.875,0 -1.527,0.266 -1.953,0.797 -0.43,0.532 -0.641,1.332 -0.641,2.407 0,0.57 0.063,1.285 0.188,2.14 0.125,0.852 0.332,1.723 0.625,2.61 0.301,0.882 0.687,1.671 1.156,2.359 0.469,0.687 1.004,1.219 1.609,1.594 0.602,0.375 1.258,0.562 1.969,0.562 1.696,0 2.547,-1.078 2.547,-3.234 0,-0.617 -0.07,-1.344 -0.203,-2.188 -0.137,-0.843 -0.356,-1.711 -0.656,-2.593 -0.293,-0.875 -0.668,-1.653 -1.125,-2.329 -0.461,-0.679 -0.992,-1.203 -1.594,-1.578 -0.594,-0.367 -1.234,-0.547 -1.922,-0.547 z m -0.547,6.719 h 4.219 c 0.269,1.238 0.406,2.305 0.406,3.203 0,0.614 -0.101,1.071 -0.297,1.375 -0.199,0.301 -0.511,0.453 -0.937,0.453 -0.68,0 -1.309,-0.433 -1.891,-1.296 -0.586,-0.868 -1.086,-2.11 -1.5,-3.735 z m 4.016,-0.89 h -4.219 c -0.281,-1.274 -0.422,-2.34 -0.422,-3.204 0,-0.656 0.098,-1.14 0.297,-1.453 0.207,-0.304 0.531,-0.453 0.969,-0.453 0.656,0 1.273,0.438 1.859,1.313 0.594,0.882 1.098,2.148 1.516,3.797 z"
         style="fill:#000000;fill-opacity:1;fill-rule:nonzero;stroke:none"
         id="path24259"
         inkscape:connector-curvature="0" /><path
         d="m 377.988,92.261 c -0.218,-0.293 -0.433,-0.543 -0.64,-0.75 -0.2,-0.211 -0.399,-0.383 -0.594,-0.516 -0.199,-0.137 -0.399,-0.23 -0.594,-0.281 -0.199,-0.063 -0.406,-0.094 -0.625,-0.094 -0.492,0 -0.875,0.176 -1.156,0.531 -0.274,0.364 -0.406,0.891 -0.406,1.578 0,0.395 0.039,0.782 0.125,1.157 0.093,0.375 0.218,0.726 0.375,1.062 0.156,0.344 0.336,0.649 0.547,0.922 0.218,0.281 0.457,0.52 0.718,0.719 0.27,0.195 0.555,0.347 0.86,0.453 0.3,0.113 0.609,0.172 0.922,0.172 0.332,0 0.625,-0.043 0.875,-0.125 0.257,-0.074 0.492,-0.18 0.703,-0.313 l 0.625,0.438 0.468,-0.141 c -0.117,-0.543 -0.23,-1.078 -0.343,-1.609 -0.106,-0.524 -0.219,-1.055 -0.344,-1.594 -0.137,-0.637 -0.258,-1.227 -0.359,-1.766 -0.094,-0.543 -0.204,-1.023 -0.329,-1.437 -0.125,-0.414 -0.277,-0.774 -0.453,-1.078 -0.168,-0.313 -0.386,-0.567 -0.656,-0.766 -0.262,-0.207 -0.59,-0.363 -0.984,-0.469 -0.399,-0.113 -0.883,-0.172 -1.453,-0.172 -0.875,0 -1.54,0.11 -1.985,0.329 -0.449,0.211 -0.672,0.531 -0.672,0.968 0,0.118 0.016,0.227 0.047,0.328 0.039,0.106 0.098,0.204 0.172,0.297 0.082,0.094 0.18,0.188 0.297,0.282 0.125,0.086 0.269,0.179 0.437,0.281 l 0.563,-0.438 c -0.149,-0.125 -0.246,-0.242 -0.297,-0.359 -0.055,-0.113 -0.078,-0.234 -0.078,-0.359 0,-0.239 0.117,-0.422 0.359,-0.547 0.239,-0.125 0.617,-0.188 1.141,-0.188 0.258,0 0.492,0.024 0.703,0.063 0.207,0.043 0.398,0.109 0.578,0.203 0.176,0.086 0.336,0.211 0.485,0.375 0.144,0.156 0.273,0.355 0.39,0.594 0.125,0.242 0.238,0.543 0.344,0.906 0.113,0.375 0.226,0.812 0.344,1.312 z m 0.422,2.062 c 0.051,0.238 0.098,0.473 0.141,0.703 0.039,0.227 0.062,0.43 0.062,0.61 0,0.343 -0.086,0.586 -0.25,0.734 -0.156,0.145 -0.398,0.219 -0.718,0.219 -0.25,0 -0.485,-0.059 -0.704,-0.172 -0.211,-0.117 -0.402,-0.266 -0.578,-0.453 -0.179,-0.18 -0.34,-0.391 -0.484,-0.641 -0.137,-0.25 -0.25,-0.516 -0.344,-0.797 -0.094,-0.281 -0.168,-0.574 -0.219,-0.875 -0.054,-0.293 -0.078,-0.574 -0.078,-0.844 0,-0.906 0.27,-1.359 0.813,-1.359 0.226,0 0.457,0.067 0.687,0.203 0.227,0.145 0.473,0.379 0.735,0.703 0.132,0.164 0.254,0.321 0.359,0.469 0.102,0.145 0.188,0.289 0.25,0.438 0.07,0.156 0.133,0.316 0.188,0.484 0.05,0.176 0.097,0.367 0.14,0.578 z"
         style="fill:#000000;fill-opacity:1;fill-rule:nonzero;stroke:none"
         id="path24261"
         inkscape:connector-curvature="0" /><path
         d="m 385.688,91.761 c 0.195,0 0.351,0.004 0.468,0.015 0.125,0.02 0.223,0.055 0.297,0.11 0.082,0.05 0.149,0.129 0.203,0.234 0.051,0.102 0.114,0.242 0.188,0.422 h 0.594 c -0.024,-0.305 -0.043,-0.606 -0.063,-0.906 -0.023,-0.305 -0.043,-0.606 -0.062,-0.907 h -5.375 v 0.328 c 0.101,0.227 0.222,0.454 0.359,0.672 0.133,0.227 0.285,0.457 0.453,0.688 0.176,0.226 0.367,0.461 0.578,0.703 0.219,0.238 0.457,0.492 0.719,0.766 0.394,0.394 0.719,0.734 0.969,1.015 0.25,0.281 0.445,0.531 0.593,0.75 0.145,0.219 0.243,0.422 0.297,0.61 0.051,0.187 0.078,0.382 0.078,0.593 0,0.219 -0.031,0.414 -0.093,0.594 -0.063,0.188 -0.153,0.344 -0.266,0.469 -0.117,0.125 -0.262,0.223 -0.437,0.297 -0.168,0.07 -0.368,0.109 -0.594,0.109 -0.399,0 -0.731,-0.109 -1,-0.328 -0.262,-0.211 -0.469,-0.516 -0.625,-0.922 h -0.828 v 1.234 c 0.539,0.227 1.039,0.391 1.5,0.485 0.457,0.101 0.867,0.156 1.234,0.156 0.438,0 0.813,-0.055 1.125,-0.156 0.313,-0.094 0.563,-0.227 0.75,-0.391 0.195,-0.168 0.336,-0.371 0.422,-0.609 0.094,-0.242 0.141,-0.496 0.141,-0.766 0,-0.168 -0.016,-0.324 -0.047,-0.469 -0.024,-0.136 -0.063,-0.277 -0.125,-0.421 -0.055,-0.137 -0.125,-0.278 -0.219,-0.422 -0.094,-0.137 -0.211,-0.282 -0.344,-0.438 -0.105,-0.136 -0.246,-0.293 -0.422,-0.469 -0.168,-0.179 -0.351,-0.371 -0.547,-0.578 -0.199,-0.199 -0.414,-0.406 -0.64,-0.625 -0.219,-0.218 -0.434,-0.437 -0.641,-0.656 -0.199,-0.219 -0.387,-0.433 -0.562,-0.641 -0.18,-0.199 -0.321,-0.382 -0.422,-0.546 z"
         style="fill:#000000;fill-opacity:1;fill-rule:nonzero;stroke:none"
         id="path24263"
         inkscape:connector-curvature="0" /><g
         id="g24265"
         transform="matrix(1,0,0,-1,0,202.58092)"><path
           d="m 554.102,51.66 1.058,125.09"
           style="fill:none;stroke:#5999d4;stroke-width:0.47999999;stroke-linecap:butt;stroke-linejoin:miter;stroke-miterlimit:10;stroke-dasharray:1.92, 1.44;stroke-dashoffset:0;stroke-opacity:1"
           id="path24267"
           inkscape:connector-curvature="0" /></g><g
         id="g24269"
         transform="matrix(1,0,0,-1,0,202.58092)"><path
           d="M 555.961,176.789 V 161.52"
           style="fill:none;stroke:#000000;stroke-width:1.55999994;stroke-linecap:butt;stroke-linejoin:miter;stroke-miterlimit:10;stroke-dasharray:none;stroke-opacity:1"
           id="path24271"
           inkscape:connector-curvature="0" /></g><path
         d="M 554.738,8.147 C 554.227,7.53 553.73,7.077 553.254,6.788 552.785,6.495 552.293,6.35 551.785,6.35 c -1.23,0 -1.844,0.618 -1.844,1.86 0,0.383 0.051,0.797 0.157,1.234 l 1.031,4.563 h -1.469 l 0.125,0.609 c 0.344,0 0.602,0.02 0.781,0.063 0.188,0.05 0.336,0.117 0.454,0.203 0.125,0.082 0.234,0.195 0.328,0.343 0.101,0.157 0.203,0.352 0.297,0.594 0.093,0.238 0.234,0.656 0.421,1.25 h 1.219 l -0.484,-2.172 h 2.672 l -0.203,-0.89 h -2.672 L 551.816,10.6 c -0.148,-0.668 -0.242,-1.148 -0.281,-1.437 -0.043,-0.293 -0.062,-0.523 -0.062,-0.688 0,-0.73 0.3,-1.093 0.906,-1.093 0.25,0 0.519,0.097 0.812,0.297 0.289,0.195 0.633,0.531 1.032,1 z"
         style="fill:#000000;fill-opacity:1;fill-rule:nonzero;stroke:none"
         id="path24273"
         inkscape:connector-curvature="0" /><path
         d="m 559.75,4.444 c 0,-0.125 0.004,-0.242 0.016,-0.344 0.007,-0.093 0.019,-0.171 0.031,-0.234 0.019,-0.062 0.047,-0.121 0.078,-0.172 0.031,-0.043 0.066,-0.078 0.109,-0.109 0.051,-0.055 0.118,-0.094 0.204,-0.125 0.093,-0.031 0.203,-0.059 0.328,-0.078 0.132,-0.012 0.289,-0.024 0.468,-0.032 0.188,-0.011 0.411,-0.023 0.672,-0.031 V 2.772 h -5.031 v 0.547 c 0.25,0.008 0.457,0.02 0.625,0.031 0.176,0.008 0.328,0.024 0.453,0.047 0.125,0.02 0.223,0.039 0.297,0.063 0.07,0.019 0.133,0.051 0.188,0.094 0.062,0.031 0.113,0.066 0.156,0.109 0.039,0.051 0.07,0.109 0.094,0.172 0.031,0.07 0.05,0.156 0.062,0.25 0.02,0.094 0.031,0.211 0.031,0.359 v 4.563 c 0,0.156 -0.039,0.265 -0.109,0.328 -0.063,0.07 -0.152,0.109 -0.266,0.109 -0.136,0 -0.336,-0.07 -0.593,-0.203 -0.25,-0.137 -0.586,-0.336 -1,-0.594 -0.055,0.094 -0.106,0.188 -0.157,0.282 -0.043,0.101 -0.09,0.207 -0.14,0.312 0.531,0.281 1.05,0.563 1.562,0.844 0.508,0.289 1.031,0.578 1.563,0.859 h 0.39 c -0.011,-0.23 -0.023,-0.437 -0.031,-0.625 z"
         style="fill:#000000;fill-opacity:1;fill-rule:nonzero;stroke:none"
         id="path24275"
         inkscape:connector-curvature="0" /><g
         id="g24277"
         transform="matrix(1,0,0,-1,0,202.58092)"><path
           d="m 606.352,98.578 -0.289,78.18"
           style="fill:none;stroke:#5999d4;stroke-width:0.47999999;stroke-linecap:butt;stroke-linejoin:miter;stroke-miterlimit:10;stroke-dasharray:1.92, 1.44;stroke-dashoffset:0;stroke-opacity:1"
           id="path24279"
           inkscape:connector-curvature="0" /></g><g
         id="g24281"
         transform="matrix(1,0,0,-1,0,202.58092)"><path
           d="M 606.84,176.789 V 161.52"
           style="fill:none;stroke:#000000;stroke-width:1.55999994;stroke-linecap:butt;stroke-linejoin:miter;stroke-miterlimit:10;stroke-dasharray:none;stroke-opacity:1"
           id="path24283"
           inkscape:connector-curvature="0" /></g><path
         d="m 594.527,7.909 c -0.511,-0.617 -1.007,-1.07 -1.484,-1.359 -0.469,-0.293 -0.961,-0.438 -1.469,-0.438 -1.23,0 -1.844,0.617 -1.844,1.86 0,0.382 0.051,0.796 0.157,1.234 l 1.031,4.562 h -1.469 l 0.125,0.61 c 0.344,0 0.602,0.019 0.781,0.062 0.188,0.051 0.336,0.117 0.454,0.203 0.125,0.082 0.234,0.196 0.328,0.344 0.101,0.156 0.203,0.352 0.297,0.594 0.093,0.238 0.234,0.656 0.421,1.25 h 1.219 l -0.484,-2.172 h 2.672 l -0.203,-0.891 h -2.672 l -0.782,-3.406 c -0.148,-0.668 -0.242,-1.148 -0.281,-1.437 -0.043,-0.293 -0.062,-0.524 -0.062,-0.688 0,-0.73 0.301,-1.094 0.906,-1.094 0.25,0 0.52,0.098 0.812,0.297 0.29,0.196 0.633,0.532 1.032,1 z"
         style="fill:#000000;fill-opacity:1;fill-rule:nonzero;stroke:none"
         id="path24285"
         inkscape:connector-curvature="0" /><path
         d="m 599.539,4.202 c 0,-0.125 0.004,-0.242 0.016,-0.344 0.008,-0.093 0.019,-0.172 0.031,-0.234 0.019,-0.063 0.047,-0.121 0.078,-0.172 0.031,-0.043 0.066,-0.078 0.109,-0.109 0.051,-0.055 0.118,-0.094 0.204,-0.125 0.093,-0.032 0.203,-0.059 0.328,-0.078 0.133,-0.012 0.289,-0.024 0.468,-0.032 0.188,-0.011 0.411,-0.023 0.672,-0.031 V 2.53 h -5.031 v 0.547 c 0.25,0.008 0.457,0.02 0.625,0.031 0.176,0.008 0.328,0.024 0.453,0.047 0.125,0.02 0.223,0.039 0.297,0.063 0.07,0.019 0.133,0.05 0.188,0.093 0.062,0.032 0.113,0.067 0.156,0.11 0.039,0.051 0.07,0.109 0.094,0.172 0.031,0.07 0.05,0.156 0.062,0.25 0.02,0.093 0.031,0.211 0.031,0.359 v 4.563 c 0,0.156 -0.039,0.265 -0.109,0.328 -0.063,0.07 -0.152,0.109 -0.266,0.109 -0.136,0 -0.336,-0.07 -0.593,-0.203 -0.25,-0.137 -0.586,-0.336 -1,-0.594 -0.055,0.094 -0.106,0.188 -0.157,0.281 -0.043,0.102 -0.09,0.207 -0.14,0.313 0.531,0.281 1.05,0.562 1.562,0.844 0.508,0.289 1.031,0.578 1.563,0.859 h 0.39 c -0.011,-0.23 -0.023,-0.437 -0.031,-0.625 z"
         style="fill:#000000;fill-opacity:1;fill-rule:nonzero;stroke:none"
         id="path24287"
         inkscape:connector-curvature="0" /><path
         d="M 614.602,10.815 V 5.753 h -1.25 v 5.062 h -4.782 v 1.172 h 4.782 v 5.063 h 1.25 v -5.063 h 4.796 v -1.172 z"
         style="fill:#000000;fill-opacity:1;fill-rule:nonzero;stroke:none"
         id="path24289"
         inkscape:connector-curvature="0" /><path
         d="m 630.891,7.909 c -0.512,-0.617 -1.008,-1.07 -1.485,-1.359 -0.468,-0.293 -0.961,-0.438 -1.468,-0.438 -1.231,0 -1.844,0.617 -1.844,1.86 0,0.382 0.051,0.796 0.156,1.234 l 1.031,4.562 h -1.468 l 0.125,0.61 c 0.343,0 0.601,0.019 0.781,0.062 0.187,0.051 0.336,0.117 0.453,0.203 0.125,0.082 0.234,0.196 0.328,0.344 0.102,0.156 0.203,0.352 0.297,0.594 0.094,0.238 0.234,0.656 0.422,1.25 h 1.219 l -0.485,-2.172 h 2.672 l -0.203,-0.891 h -2.672 l -0.781,-3.406 c -0.149,-0.668 -0.242,-1.148 -0.281,-1.437 -0.043,-0.293 -0.063,-0.524 -0.063,-0.688 0,-0.73 0.301,-1.094 0.906,-1.094 0.25,0 0.52,0.098 0.813,0.297 0.289,0.196 0.633,0.532 1.031,1 z"
         style="fill:#000000;fill-opacity:1;fill-rule:nonzero;stroke:none"
         id="path24291"
         inkscape:connector-curvature="0" /><path
         d="m 633.805,2.733 c -0.2,-0.926 -0.524,-1.613 -0.969,-2.062 -0.449,-0.446 -1.043,-0.672 -1.781,-0.672 -0.2,0 -0.344,0.016 -0.438,0.047 0.031,0.105 0.055,0.215 0.078,0.328 0.02,0.105 0.047,0.215 0.078,0.328 0.02,-0.008 0.051,-0.016 0.094,-0.016 h 0.203 c 0.164,0 0.317,0.028 0.453,0.079 0.133,0.054 0.258,0.148 0.375,0.281 0.114,0.136 0.219,0.324 0.313,0.562 0.102,0.242 0.195,0.547 0.281,0.922 l 1.266,5.641 h -1.094 l 0.109,0.484 c 0.239,0.02 0.426,0.035 0.563,0.047 0.133,0.02 0.25,0.055 0.344,0.109 0.093,0.063 0.164,0.161 0.218,0.297 0.239,0.77 0.602,1.344 1.094,1.719 0.5,0.383 1.145,0.578 1.938,0.578 0.226,0 0.429,-0.015 0.609,-0.047 0.188,-0.023 0.359,-0.047 0.516,-0.078 l -0.25,-1.172 h -0.625 c -0.032,0.239 -0.106,0.41 -0.219,0.516 -0.117,0.113 -0.273,0.172 -0.469,0.172 -0.219,0 -0.402,-0.047 -0.547,-0.141 -0.148,-0.094 -0.277,-0.242 -0.39,-0.437 -0.117,-0.188 -0.215,-0.414 -0.297,-0.672 -0.074,-0.25 -0.125,-0.477 -0.156,-0.672 h 1.75 l -0.141,-0.703 h -1.766 z"
         style="fill:#000000;fill-opacity:1;fill-rule:nonzero;stroke:none"
         id="path24293"
         inkscape:connector-curvature="0" /><path
         d="m 643.07,3.561 c 0.196,0 0.352,0.004 0.469,0.016 0.125,0.02 0.223,0.055 0.297,0.109 0.082,0.051 0.148,0.129 0.203,0.235 0.051,0.101 0.113,0.242 0.188,0.422 h 0.593 C 644.797,4.038 644.777,3.737 644.758,3.436 644.734,3.132 644.715,2.831 644.695,2.53 h -5.375 v 0.328 c 0.102,0.227 0.223,0.453 0.36,0.672 0.133,0.227 0.285,0.457 0.453,0.688 0.176,0.226 0.367,0.461 0.578,0.703 0.219,0.238 0.457,0.492 0.719,0.765 0.394,0.395 0.718,0.735 0.968,1.016 0.25,0.281 0.446,0.531 0.594,0.75 0.145,0.219 0.242,0.422 0.297,0.609 0.051,0.188 0.078,0.383 0.078,0.594 0,0.219 -0.031,0.414 -0.094,0.594 -0.062,0.187 -0.152,0.344 -0.265,0.469 -0.117,0.125 -0.262,0.222 -0.438,0.297 -0.168,0.07 -0.367,0.109 -0.593,0.109 -0.399,0 -0.731,-0.109 -1,-0.328 -0.262,-0.211 -0.469,-0.516 -0.625,-0.922 h -0.829 v 1.234 c 0.54,0.227 1.04,0.391 1.5,0.485 0.457,0.101 0.868,0.156 1.235,0.156 0.437,0 0.812,-0.055 1.125,-0.156 0.312,-0.094 0.562,-0.227 0.75,-0.391 0.195,-0.168 0.336,-0.371 0.422,-0.609 0.093,-0.243 0.14,-0.496 0.14,-0.766 0,-0.168 -0.015,-0.324 -0.047,-0.469 C 644.625,8.222 644.586,8.081 644.523,7.936 644.469,7.8 644.398,7.659 644.305,7.515 644.211,7.378 644.094,7.233 643.961,7.077 643.855,6.94 643.715,6.784 643.539,6.608 643.371,6.429 643.188,6.237 642.992,6.03 642.793,5.831 642.578,5.624 642.352,5.405 642.133,5.186 641.918,4.968 641.711,4.749 641.512,4.53 641.324,4.315 641.148,4.108 640.969,3.909 640.828,3.725 640.727,3.561 Z"
         style="fill:#000000;fill-opacity:1;fill-rule:nonzero;stroke:none"
         id="path24295"
         inkscape:connector-curvature="0" /><g
         id="g24297"
         transform="matrix(1,0,0,-1,0,202.58092)"><path
           d="M 97.52,146.281 H 50.402"
           style="fill:none;stroke:#aeabab;stroke-width:1.55999994;stroke-linecap:butt;stroke-linejoin:miter;stroke-miterlimit:10;stroke-dasharray:none;stroke-opacity:1"
           id="path24299"
           inkscape:connector-curvature="0" /></g><g
         id="g24301"
         transform="matrix(1,0,0,-1,0,202.58092)"><path
           d="M 43.68,146.281 H 54.59"
           style="fill:none;stroke:#000000;stroke-width:1.55999994;stroke-linecap:butt;stroke-linejoin:miter;stroke-miterlimit:10;stroke-dasharray:none;stroke-opacity:1"
           id="path24303"
           inkscape:connector-curvature="0" /></g><g
         id="g24305"
         transform="matrix(1,0,0,-1,0,202.58092)"><path
           d="M 446,146.281 H 398.883"
           style="fill:none;stroke:#aeabab;stroke-width:1.55999994;stroke-linecap:butt;stroke-linejoin:miter;stroke-miterlimit:10;stroke-dasharray:none;stroke-opacity:1"
           id="path24307"
           inkscape:connector-curvature="0" /></g><g
         id="g24309"
         transform="matrix(1,0,0,-1,0,202.58092)"><path
           d="m 390.48,146.281 h 10.911"
           style="fill:none;stroke:#000000;stroke-width:1.55999994;stroke-linecap:butt;stroke-linejoin:miter;stroke-miterlimit:10;stroke-dasharray:none;stroke-opacity:1"
           id="path24311"
           inkscape:connector-curvature="0" /></g><g
         id="g24313"
         transform="matrix(1,0,0,-1,0,202.58092)"><path
           d="M 554.25,51.719 446.043,146.27"
           style="fill:none;stroke:#aeabab;stroke-width:1.55999994;stroke-linecap:butt;stroke-linejoin:miter;stroke-miterlimit:10;stroke-dasharray:none;stroke-opacity:1"
           id="path24315"
           inkscape:connector-curvature="0" /></g></g></g></svg>