<?xml version="1.0" encoding="UTF-8" standalone="no"?>
<!-- Created with Inkscape (http://www.inkscape.org/) -->

<svg
   xmlns:dc="http://purl.org/dc/elements/1.1/"
   xmlns:cc="http://creativecommons.org/ns#"
   xmlns:rdf="http://www.w3.org/1999/02/22-rdf-syntax-ns#"
   xmlns:svg="http://www.w3.org/2000/svg"
   xmlns="http://www.w3.org/2000/svg"
   xmlns:sodipodi="http://sodipodi.sourceforge.net/DTD/sodipodi-0.dtd"
   xmlns:inkscape="http://www.inkscape.org/namespaces/inkscape"
   version="1.1"
   id="svg33972"
   xml:space="preserve"
   width="701.12006"
   height="252.15999"
   viewBox="0 0 701.12006 252.15999"
   sodipodi:docname="motor_controller_diagram.svg"
   inkscape:version="0.92.3 (2405546, 2018-03-11)"><metadata
     id="metadata33978"><rdf:RDF><cc:Work
         rdf:about=""><dc:format>image/svg+xml</dc:format><dc:type
           rdf:resource="http://purl.org/dc/dcmitype/StillImage" /><dc:title></dc:title></cc:Work></rdf:RDF></metadata><defs
     id="defs33976"><clipPath
       clipPathUnits="userSpaceOnUse"
       id="clipPath33992"><path
         d="m 335,46 h 78 v 52 h -78 z"
         id="path33990"
         inkscape:connector-curvature="0" /></clipPath><clipPath
       clipPathUnits="userSpaceOnUse"
       id="clipPath34006"><path
         d="m 334,45 h 80 v 54 h -80 z"
         id="path34004"
         inkscape:connector-curvature="0" /></clipPath><clipPath
       clipPathUnits="userSpaceOnUse"
       id="clipPath34020"><path
         d="m 321,113 h 81 v 47 h -81 z"
         id="path34018"
         inkscape:connector-curvature="0" /></clipPath><clipPath
       clipPathUnits="userSpaceOnUse"
       id="clipPath34034"><path
         d="m 320,112 h 83 v 49 h -83 z"
         id="path34032"
         inkscape:connector-curvature="0" /></clipPath><clipPath
       clipPathUnits="userSpaceOnUse"
       id="clipPath34050"><path
         d="m 438,155 h 54 v 14 h -54 z"
         id="path34048"
         inkscape:connector-curvature="0" /></clipPath><clipPath
       clipPathUnits="userSpaceOnUse"
       id="clipPath34070"><path
         d="m 129,148 h 101 v 15 H 129 Z"
         id="path34068"
         inkscape:connector-curvature="0" /></clipPath><clipPath
       clipPathUnits="userSpaceOnUse"
       id="clipPath34086"><path
         d="m 128,131 h 65 v 15 h -65 z"
         id="path34084"
         inkscape:connector-curvature="0" /></clipPath><clipPath
       clipPathUnits="userSpaceOnUse"
       id="clipPath34102"><path
         d="m 117,59 h 44 v 11 h -44 z"
         id="path34100"
         inkscape:connector-curvature="0" /></clipPath><clipPath
       clipPathUnits="userSpaceOnUse"
       id="clipPath34118"><path
         d="m 117,39 h 84 v 15 h -84 z"
         id="path34116"
         inkscape:connector-curvature="0" /></clipPath><clipPath
       clipPathUnits="userSpaceOnUse"
       id="clipPath34134"><path
         d="M 117,24 H 217 V 37 H 117 Z"
         id="path34132"
         inkscape:connector-curvature="0" /></clipPath><clipPath
       clipPathUnits="userSpaceOnUse"
       id="clipPath34150"><path
         d="m 117,5 h 61 v 15 h -61 z"
         id="path34148"
         inkscape:connector-curvature="0" /></clipPath><clipPath
       clipPathUnits="userSpaceOnUse"
       id="clipPath34168"><path
         d="m 416,92 h 65 v 15 h -65 z"
         id="path34166"
         inkscape:connector-curvature="0" /></clipPath><clipPath
       clipPathUnits="userSpaceOnUse"
       id="clipPath34184"><path
         d="m 415,71 h 85 v 15 h -85 z"
         id="path34182"
         inkscape:connector-curvature="0" /></clipPath><clipPath
       clipPathUnits="userSpaceOnUse"
       id="clipPath34200"><path
         d="m 415,52 h 54 v 12 h -54 z"
         id="path34198"
         inkscape:connector-curvature="0" /></clipPath><clipPath
       clipPathUnits="userSpaceOnUse"
       id="clipPath34216"><path
         d="m 415,36 h 51 v 11 h -51 z"
         id="path34214"
         inkscape:connector-curvature="0" /></clipPath><clipPath
       clipPathUnits="userSpaceOnUse"
       id="clipPath34232"><path
         d="m 415,15 h 76 v 15 h -76 z"
         id="path34230"
         inkscape:connector-curvature="0" /></clipPath><clipPath
       clipPathUnits="userSpaceOnUse"
       id="clipPath34250"><path
         d="m 45,100 h 32 v 14 H 45 Z"
         id="path34248"
         inkscape:connector-curvature="0" /></clipPath><clipPath
       clipPathUnits="userSpaceOnUse"
       id="clipPath34268"><path
         d="m 247,111 h 47 v 14 h -47 z"
         id="path34266"
         inkscape:connector-curvature="0" /></clipPath><clipPath
       clipPathUnits="userSpaceOnUse"
       id="clipPath34284"><path
         d="m 233,89 h 74 v 15 h -74 z"
         id="path34282"
         inkscape:connector-curvature="0" /></clipPath></defs><sodipodi:namedview
     pagecolor="#ffffff"
     bordercolor="#666666"
     borderopacity="1"
     objecttolerance="10"
     gridtolerance="10"
     guidetolerance="10"
     inkscape:pageopacity="0"
     inkscape:pageshadow="2"
     inkscape:window-width="909"
     inkscape:window-height="480"
     id="namedview33974"
     showgrid="false"
     inkscape:zoom="0.62186211"
     inkscape:cx="350.56003"
     inkscape:cy="126.07999"
     inkscape:window-x="0"
     inkscape:window-y="0"
     inkscape:window-maximized="0"
     inkscape:current-layer="g33980" /><g
     id="g33980"
     inkscape:groupmode="layer"
     inkscape:label="motor_controller_diagram"
     transform="matrix(1.3333333,0,0,-1.3333333,0,252.15999)"><g
       id="g33982"><g
         id="g33984"
         transform="translate(0,-0.880005)"><g
           id="g33986"><g
             id="g33988"
             clip-path="url(#clipPath33992)"><g
               id="g33994"><path
                 d="m 407.66,46.512 -60.531,38.379 -2.527,-4 -8.731,16.73 18.859,-0.762 -2.539,-3.988 60.528,-38.383 z"
                 style="fill:#ffc000;fill-opacity:1;fill-rule:evenodd;stroke:none"
                 id="path33996"
                 inkscape:connector-curvature="0" /></g></g></g></g><g
         id="g33998"
         transform="translate(0,-0.880005)"><g
           id="g34000"><g
             id="g34002"
             clip-path="url(#clipPath34006)"><g
               id="g34008"><path
                 d="m 407.66,46.512 -60.531,38.379 -2.527,-4 -8.731,16.73 18.859,-0.762 -2.539,-3.988 60.528,-38.383 z"
                 style="fill:none;stroke:#000000;stroke-width:1.5;stroke-linecap:butt;stroke-linejoin:miter;stroke-miterlimit:10;stroke-dasharray:none;stroke-opacity:1"
                 id="path34010"
                 inkscape:connector-curvature="0" /></g></g></g></g><g
         id="g34012"
         transform="translate(0,-0.880005)"><g
           id="g34014"><g
             id="g34016"
             clip-path="url(#clipPath34020)"><g
               id="g34022"><path
                 d="m 321.5,121.461 63.102,33.98 -2.243,4.168 18.86,-0.578 -9.891,-16.07 -2.25,4.16 -63.09,-33.992 z"
                 style="fill:#ffff00;fill-opacity:1;fill-rule:evenodd;stroke:none"
                 id="path34024"
                 inkscape:connector-curvature="0" /></g></g></g></g><g
         id="g34026"
         transform="translate(0,-0.880005)"><g
           id="g34028"><g
             id="g34030"
             clip-path="url(#clipPath34034)"><g
               id="g34036"><path
                 d="m 321.5,121.461 63.102,33.98 -2.243,4.168 18.86,-0.578 -9.891,-16.07 -2.25,4.16 -63.09,-33.992 z"
                 style="fill:none;stroke:#000000;stroke-width:1.5;stroke-linecap:butt;stroke-linejoin:miter;stroke-miterlimit:10;stroke-dasharray:none;stroke-opacity:1"
                 id="path34038"
                 inkscape:connector-curvature="0" /></g></g></g></g><path
         d="m 404.34,176.589 c 0,6.492 5.262,11.75 11.75,11.75 h 97.219 c 6.492,0 11.75,-5.258 11.75,-11.75 V 147.05 c 0,-6.489 -5.258,-11.75 -11.75,-11.75 H 416.09 c -6.488,0 -11.75,5.261 -11.75,11.75 z"
         style="fill:#ffffff;fill-opacity:1;fill-rule:evenodd;stroke:#000000;stroke-width:1.55999994;stroke-linecap:butt;stroke-linejoin:miter;stroke-miterlimit:10;stroke-dasharray:none;stroke-opacity:1"
         id="path34040"
         inkscape:connector-curvature="0" /><g
         id="g34042"
         transform="translate(0,-0.880005)"><g
           id="g34044"><g
             id="g34046"
             clip-path="url(#clipPath34050)"><g
               id="g34052"><text
                 transform="matrix(1,0,0,-1,436.94,155.99)"
                 style="font-variant:normal;font-weight:normal;font-size:18px;font-family:'Segoe UI';-inkscape-font-specification:SegoeUI;writing-mode:lr-tb;fill:#000000;fill-opacity:1;fill-rule:nonzero;stroke:none"
                 id="text34056"><tspan
                   x="0 15.552 25.92 31.535999 41.832001 48.077999"
                   y="0"
                   sodipodi:role="line"
                   id="tspan34054">Motors</tspan></text>
</g></g></g></g><path
         d="m 117.898,122.069 h 71.692 v 4.711 l 16.269,-9.422 -16.269,-9.418 v 4.711 h -71.692 z"
         style="fill:#ffff00;fill-opacity:1;fill-rule:evenodd;stroke:#000000;stroke-width:1.55999994;stroke-linecap:butt;stroke-linejoin:miter;stroke-miterlimit:10;stroke-dasharray:none;stroke-opacity:1"
         id="path34058"
         inkscape:connector-curvature="0" /><path
         d="m 212.461,89.37 h -71.813 v -4.711 l -16.269,9.422 16.269,9.418 v -4.707 h 71.813 z"
         style="fill:#ffc000;fill-opacity:1;fill-rule:evenodd;stroke:#000000;stroke-width:1.55999994;stroke-linecap:butt;stroke-linejoin:miter;stroke-miterlimit:10;stroke-dasharray:none;stroke-opacity:1"
         id="path34060"
         inkscape:connector-curvature="0" /><g
         id="g34062"
         transform="translate(0,-0.880005)"><g
           id="g34064"><g
             id="g34066"
             clip-path="url(#clipPath34070)"><g
               id="g34072"><text
                 transform="matrix(1,0,0,-1,128.66,151.91)"
                 style="font-variant:normal;font-weight:normal;font-size:14.03999996px;font-family:'Segoe UI';-inkscape-font-specification:SegoeUI;writing-mode:lr-tb;fill:#000000;fill-opacity:1;fill-rule:nonzero;stroke:none"
                 id="text34076"><tspan
                   x="0 8.7469196 16.7778 28.52928 40.280762 47.328838 55.050838 63.0396 68.767921 72.348122 76.4478 83.650322 86.682961 94.755959 97.788597 100.9476"
                   y="0"
                   sodipodi:role="line"
                   id="tspan34074">Commands (e.g., </tspan></text>
</g></g></g></g><g
         id="g34078"
         transform="translate(0,-0.880005)"><g
           id="g34080"><g
             id="g34082"
             clip-path="url(#clipPath34086)"><g
               id="g34088"><text
                 transform="matrix(1,0,0,-1,128.66,135.11)"
                 style="font-variant:normal;font-weight:normal;font-size:14.03999996px;font-family:'Segoe UI';-inkscape-font-specification:SegoeUI;writing-mode:lr-tb;fill:#000000;fill-opacity:1;fill-rule:nonzero;stroke:none"
                 id="text34092"><tspan
                   x="0 9.8139601 16.89012 23.4468 31.49172 39.522598 42.667561 50.319359 54.770039 60.47028"
                   y="0"
                   sodipodi:role="line"
                   id="tspan34090">waypoints)</tspan></text>
</g></g></g></g><g
         id="g34094"
         transform="translate(0,-0.880005)"><g
           id="g34096"><g
             id="g34098"
             clip-path="url(#clipPath34102)"><g
               id="g34104"><text
                 transform="matrix(1,0,0,-1,117.02,59.54)"
                 style="font-variant:normal;font-weight:normal;font-size:14.03999996px;font-family:'Segoe UI';-inkscape-font-specification:SegoeUI;writing-mode:lr-tb;fill:#000000;fill-opacity:1;fill-rule:nonzero;stroke:none"
                 id="text34108"><tspan
                   x="0 7.2165599 14.41908 22.056841 27.7992 35.00172 43.046638"
                   y="0"
                   sodipodi:role="line"
                   id="tspan34106">Sensed </tspan></text>
</g></g></g></g><g
         id="g34110"
         transform="translate(0,-0.880005)"><g
           id="g34112"><g
             id="g34114"
             clip-path="url(#clipPath34118)"><g
               id="g34120"><text
                 transform="matrix(1,0,0,-1,117.02,42.74)"
                 style="font-variant:normal;font-weight:normal;font-size:14.03999996px;font-family:'Segoe UI';-inkscape-font-specification:SegoeUI;writing-mode:lr-tb;fill:#000000;fill-opacity:1;fill-rule:nonzero;stroke:none"
                 id="text34124"><tspan
                   x="0 6.3460798 14.37696 22.042801 26.114401 29.259359 37.262161 44.928001 49.687561 56.77776 61.228439 64.317238 72.348122 80.013962 83.10276"
                   y="0"
                   sodipodi:role="line"
                   id="tspan34122">configuration, </tspan></text>
</g></g></g></g><g
         id="g34126"
         transform="translate(0,-0.880005)"><g
           id="g34128"><g
             id="g34130"
             clip-path="url(#clipPath34134)"><g
               id="g34136"><text
                 transform="matrix(1,0,0,-1,117.02,25.94)"
                 style="font-variant:normal;font-weight:normal;font-size:14.03999996px;font-family:'Segoe UI';-inkscape-font-specification:SegoeUI;writing-mode:lr-tb;fill:#000000;fill-opacity:1;fill-rule:nonzero;stroke:none"
                 id="text34140"><tspan
                   x="0 6.3460798 14.37696 22.042801 26.493481 31.0284 39.05928 42.204239 45.278999 52.481522 57.241081 61.200359 66.942719 71.393402 78.413399 82.864082 90.529922 96.272278 99.361076"
                   y="0"
                   sodipodi:role="line"
                   id="tspan34138">controller status, </tspan></text>
</g></g></g></g><g
         id="g34142"
         transform="translate(0,-0.880005)"><g
           id="g34144"><g
             id="g34146"
             clip-path="url(#clipPath34150)"><g
               id="g34152"><text
                 transform="matrix(1,0,0,-1,117.02,9.14)"
                 style="font-variant:normal;font-weight:normal;font-size:14.06400013px;font-family:'Segoe UI';-inkscape-font-specification:SegoeUI;writing-mode:lr-tb;fill:#000000;fill-opacity:1;fill-rule:nonzero;stroke:none"
                 id="text34156"><tspan
                   x="0 7.2148318 11.968464 16.5252 24.569807 29.323441 33.16291 37.227409 40.377743 47.409744 55.468414"
                   y="0"
                   sodipodi:role="line"
                   id="tspan34154">error flags</tspan></text>
</g></g></g></g><path
         d="m 404.34,108.979 c 0,6.653 5.39,12.039 12.039,12.039 h 96.641 c 6.652,0 12.039,-5.386 12.039,-12.039 V 12.819 C 525.059,6.171 519.672,0.78 513.02,0.78 h -96.641 c -6.649,0 -12.039,5.391 -12.039,12.039 z"
         style="fill:#ffffff;fill-opacity:1;fill-rule:evenodd;stroke:#000000;stroke-width:1.55999994;stroke-linecap:butt;stroke-linejoin:miter;stroke-miterlimit:10;stroke-dasharray:none;stroke-opacity:1"
         id="path34158"
         inkscape:connector-curvature="0" /><g
         id="g34160"
         transform="translate(0,-0.880005)"><g
           id="g34162"><g
             id="g34164"
             clip-path="url(#clipPath34168)"><g
               id="g34170"><text
                 transform="matrix(1,0,0,-1,415.03,94.22)"
                 style="font-variant:normal;font-weight:normal;font-size:15.98400021px;font-family:'Segoe UI';-inkscape-font-specification:SegoeUI;writing-mode:lr-tb;fill:#000000;fill-opacity:1;fill-rule:nonzero;stroke:none"
                 id="text34174"><tspan
                   x="0 8.0239677 16.799185 23.960016 33.102863 42.181774 50.333614 55.816128 62.305634 65.758179"
                   y="0"
                   sodipodi:role="line"
                   id="tspan34172">Encoders, </tspan></text>
</g></g></g></g><g
         id="g34176"
         transform="translate(0,-0.880005)"><g
           id="g34178"><g
             id="g34180"
             clip-path="url(#clipPath34184)"><g
               id="g34186"><text
                 transform="matrix(1,0,0,-1,415.03,74.99)"
                 style="font-variant:normal;font-weight:normal;font-size:15.96000004px;font-family:'Segoe UI';-inkscape-font-specification:SegoeUI;writing-mode:lr-tb;fill:#000000;fill-opacity:1;fill-rule:nonzero;stroke:none"
                 id="text34190"><tspan
                   x="0 4.8997202 13.0872 26.50956 35.590801 43.778278 49.124882 57.120838 62.180161 70.95816 76.081322 84.268799"
                   y="0"
                   sodipodi:role="line"
                   id="tspan34188">temperature </tspan></text>
</g></g></g></g><g
         id="g34192"
         transform="translate(0,-0.880005)"><g
           id="g34194"><g
             id="g34196"
             clip-path="url(#clipPath34200)"><g
               id="g34202"><text
                 transform="matrix(1,0,0,-1,415.03,55.79)"
                 style="font-variant:normal;font-weight:normal;font-size:15.96000004px;font-family:'Segoe UI';-inkscape-font-specification:SegoeUI;writing-mode:lr-tb;fill:#000000;fill-opacity:1;fill-rule:nonzero;stroke:none"
                 id="text34206"><tspan
                   x="0 9.1450796 17.12508 25.90308 34.984322 43.171799 49.635601 53.082958"
                   y="0"
                   sodipodi:role="line"
                   id="tspan34204">gauges, </tspan></text>
</g></g></g></g><g
         id="g34208"
         transform="translate(0,-0.880005)"><g
           id="g34210"><g
             id="g34212"
             clip-path="url(#clipPath34216)"><g
               id="g34218"><text
                 transform="matrix(1,0,0,-1,415.03,36.59)"
                 style="font-variant:normal;font-weight:normal;font-size:15.96000004px;font-family:'Segoe UI';-inkscape-font-specification:SegoeUI;writing-mode:lr-tb;fill:#000000;fill-opacity:1;fill-rule:nonzero;stroke:none"
                 id="text34222"><tspan
                   x="0 7.2139201 16.29516 25.057199 30.06864 38.064602 45.278519 50.337841"
                   y="0"
                   sodipodi:role="line"
                   id="tspan34220">contact </tspan></text>
</g></g></g></g><g
         id="g34224"
         transform="translate(0,-0.880005)"><g
           id="g34226"><g
             id="g34228"
             clip-path="url(#clipPath34232)"><g
               id="g34234"><text
                 transform="matrix(1,0,0,-1,415.03,17.39)"
                 style="font-variant:normal;font-weight:normal;font-size:15.96000004px;font-family:'Segoe UI';-inkscape-font-specification:SegoeUI;writing-mode:lr-tb;fill:#000000;fill-opacity:1;fill-rule:nonzero;stroke:none"
                 id="text34238"><tspan
                   x="0 6.4797602 17.635799 21.21084 26.014799 33.228722 41.942879 50.13036 56.610119 60.05748 64.7976"
                   y="0"
                   sodipodi:role="line"
                   id="tspan34236">switches, …</tspan></text>
</g></g></g></g><path
         d="m 0.781,124.518 c 0,4.891 3.965,8.864 8.86,8.864 h 103 c 4.89,0 8.859,-3.973 8.859,-8.864 V 89.081 c 0,-4.891 -3.969,-8.859 -8.859,-8.859 h -103 c -4.895,0 -8.86,3.968 -8.86,8.859 z"
         style="fill:#ffffff;fill-opacity:1;fill-rule:evenodd;stroke:#000000;stroke-width:1.55999994;stroke-linecap:butt;stroke-linejoin:miter;stroke-miterlimit:10;stroke-dasharray:none;stroke-opacity:1"
         id="path34240"
         inkscape:connector-curvature="0" /><g
         id="g34242"
         transform="translate(0,-0.880005)"><g
           id="g34244"><g
             id="g34246"
             clip-path="url(#clipPath34250)"><g
               id="g34252"><text
                 transform="matrix(1,0,0,-1,44.5,101.01)"
                 style="font-variant:normal;font-weight:normal;font-size:18px;font-family:'Segoe UI';-inkscape-font-specification:SegoeUI;writing-mode:lr-tb;fill:#000000;fill-opacity:1;fill-rule:nonzero;stroke:none"
                 id="text34256"><tspan
                   x="0 11.142 21.096001"
                   y="0"
                   sodipodi:role="line"
                   id="tspan34254">CPU</tspan></text>
</g></g></g></g><path
         d="m 209.461,124.518 c 0,4.891 3.969,8.864 8.859,8.864 h 103 c 4.891,0 8.86,-3.973 8.86,-8.864 V 89.081 c 0,-4.891 -3.969,-8.859 -8.86,-8.859 h -103 c -4.89,0 -8.859,3.968 -8.859,8.859 z"
         style="fill:#bdd7ee;fill-opacity:1;fill-rule:evenodd;stroke:#000000;stroke-width:1.55999994;stroke-linecap:butt;stroke-linejoin:miter;stroke-miterlimit:10;stroke-dasharray:none;stroke-opacity:1"
         id="path34258"
         inkscape:connector-curvature="0" /><g
         id="g34260"
         transform="translate(0,-0.880005)"><g
           id="g34262"><g
             id="g34264"
             clip-path="url(#clipPath34268)"><g
               id="g34270"><text
                 transform="matrix(1,0,0,-1,245.81,111.81)"
                 style="font-variant:normal;font-weight:normal;font-size:18px;font-family:'Segoe UI';-inkscape-font-specification:SegoeUI;writing-mode:lr-tb;fill:#000000;fill-opacity:1;fill-rule:nonzero;stroke:none"
                 id="text34274"><tspan
                   x="0 15.552 25.848 31.554001 41.849998 47.952"
                   y="0"
                   sodipodi:role="line"
                   id="tspan34272">Motor </tspan></text>
</g></g></g></g><g
         id="g34276"
         transform="translate(0,-0.880005)"><g
           id="g34278"><g
             id="g34280"
             clip-path="url(#clipPath34284)"><g
               id="g34286"><text
                 transform="matrix(1,0,0,-1,232.85,90.21)"
                 style="font-variant:normal;font-weight:normal;font-size:18px;font-family:'Segoe UI';-inkscape-font-specification:SegoeUI;writing-mode:lr-tb;fill:#000000;fill-opacity:1;fill-rule:nonzero;stroke:none"
                 id="text34290"><tspan
                   x="0 8.1359997 18.431999 28.368 34.074001 39.995998 50.292 54.324001 58.428001 67.662003"
                   y="0"
                   sodipodi:role="line"
                   id="tspan34288">controller</tspan></text>
</g></g></g></g></g></g></svg>