<?xml version="1.0" encoding="UTF-8" standalone="no"?>
<!-- Created with Inkscape (http://www.inkscape.org/) -->

<svg
   xmlns:dc="http://purl.org/dc/elements/1.1/"
   xmlns:cc="http://creativecommons.org/ns#"
   xmlns:rdf="http://www.w3.org/1999/02/22-rdf-syntax-ns#"
   xmlns:svg="http://www.w3.org/2000/svg"
   xmlns="http://www.w3.org/2000/svg"
   xmlns:sodipodi="http://sodipodi.sourceforge.net/DTD/sodipodi-0.dtd"
   xmlns:inkscape="http://www.inkscape.org/namespaces/inkscape"
   version="1.1"
   id="svg100248"
   xml:space="preserve"
   width="614.40002"
   height="460.79999"
   viewBox="0 0 614.40002 460.79999"
   sodipodi:docname="pid_p.svg"
   inkscape:version="0.92.3 (2405546, 2018-03-11)"><metadata
     id="metadata100254"><rdf:RDF><cc:Work
         rdf:about=""><dc:format>image/svg+xml</dc:format><dc:type
           rdf:resource="http://purl.org/dc/dcmitype/StillImage" /><dc:title></dc:title></cc:Work></rdf:RDF></metadata><defs
     id="defs100252"><clipPath
       clipPathUnits="userSpaceOnUse"
       id="clipPath100268"><path
         d="M 57.6,38.016 H 414.72 V 304.128 H 57.6 Z"
         id="path100266"
         inkscape:connector-curvature="0" /></clipPath><clipPath
       clipPathUnits="userSpaceOnUse"
       id="clipPath100278"><path
         d="M 57.6,38.016 H 414.72 V 304.128 H 57.6 Z"
         id="path100276"
         inkscape:connector-curvature="0" /></clipPath><clipPath
       clipPathUnits="userSpaceOnUse"
       id="clipPath100288"><path
         d="M 57.6,38.016 H 414.72 V 304.128 H 57.6 Z"
         id="path100286"
         inkscape:connector-curvature="0" /></clipPath><clipPath
       clipPathUnits="userSpaceOnUse"
       id="clipPath100298"><path
         d="M 57.6,38.016 H 414.72 V 304.128 H 57.6 Z"
         id="path100296"
         inkscape:connector-curvature="0" /></clipPath><clipPath
       clipPathUnits="userSpaceOnUse"
       id="clipPath100308"><path
         d="M 57.6,38.016 H 414.72 V 304.128 H 57.6 Z"
         id="path100306"
         inkscape:connector-curvature="0" /></clipPath><clipPath
       clipPathUnits="userSpaceOnUse"
       id="clipPath100318"><path
         d="M 57.6,38.016 H 414.72 V 304.128 H 57.6 Z"
         id="path100316"
         inkscape:connector-curvature="0" /></clipPath><clipPath
       clipPathUnits="userSpaceOnUse"
       id="clipPath100328"><path
         d="M 57.6,38.016 H 414.72 V 304.128 H 57.6 Z"
         id="path100326"
         inkscape:connector-curvature="0" /></clipPath><clipPath
       clipPathUnits="userSpaceOnUse"
       id="clipPath100338"><path
         d="M 57.6,38.016 H 414.72 V 304.128 H 57.6 Z"
         id="path100336"
         inkscape:connector-curvature="0" /></clipPath><clipPath
       clipPathUnits="userSpaceOnUse"
       id="clipPath100348"><path
         d="M 57.6,38.016 H 414.72 V 304.128 H 57.6 Z"
         id="path100346"
         inkscape:connector-curvature="0" /></clipPath><clipPath
       clipPathUnits="userSpaceOnUse"
       id="clipPath100358"><path
         d="M 57.6,38.016 H 414.72 V 304.128 H 57.6 Z"
         id="path100356"
         inkscape:connector-curvature="0" /></clipPath><clipPath
       clipPathUnits="userSpaceOnUse"
       id="clipPath100368"><path
         d="M 57.6,38.016 H 414.72 V 304.128 H 57.6 Z"
         id="path100366"
         inkscape:connector-curvature="0" /></clipPath><clipPath
       clipPathUnits="userSpaceOnUse"
       id="clipPath100378"><path
         d="M 57.6,38.016 H 414.72 V 304.128 H 57.6 Z"
         id="path100376"
         inkscape:connector-curvature="0" /></clipPath><clipPath
       clipPathUnits="userSpaceOnUse"
       id="clipPath100388"><path
         d="M 57.6,38.016 H 414.72 V 304.128 H 57.6 Z"
         id="path100386"
         inkscape:connector-curvature="0" /></clipPath><clipPath
       clipPathUnits="userSpaceOnUse"
       id="clipPath100398"><path
         d="M 57.6,38.016 H 414.72 V 304.128 H 57.6 Z"
         id="path100396"
         inkscape:connector-curvature="0" /></clipPath><clipPath
       clipPathUnits="userSpaceOnUse"
       id="clipPath100408"><path
         d="M 57.6,38.016 H 414.72 V 304.128 H 57.6 Z"
         id="path100406"
         inkscape:connector-curvature="0" /></clipPath><clipPath
       clipPathUnits="userSpaceOnUse"
       id="clipPath100418"><path
         d="M 57.6,38.016 H 414.72 V 304.128 H 57.6 Z"
         id="path100416"
         inkscape:connector-curvature="0" /></clipPath><clipPath
       clipPathUnits="userSpaceOnUse"
       id="clipPath100428"><path
         d="M 57.6,38.016 H 414.72 V 304.128 H 57.6 Z"
         id="path100426"
         inkscape:connector-curvature="0" /></clipPath><clipPath
       clipPathUnits="userSpaceOnUse"
       id="clipPath100438"><path
         d="M 57.6,38.016 H 414.72 V 304.128 H 57.6 Z"
         id="path100436"
         inkscape:connector-curvature="0" /></clipPath><clipPath
       clipPathUnits="userSpaceOnUse"
       id="clipPath100448"><path
         d="M 57.6,38.016 H 414.72 V 304.128 H 57.6 Z"
         id="path100446"
         inkscape:connector-curvature="0" /></clipPath><clipPath
       clipPathUnits="userSpaceOnUse"
       id="clipPath100458"><path
         d="M 57.6,38.016 H 414.72 V 304.128 H 57.6 Z"
         id="path100456"
         inkscape:connector-curvature="0" /></clipPath><clipPath
       clipPathUnits="userSpaceOnUse"
       id="clipPath100468"><path
         d="M 57.6,38.016 H 414.72 V 304.128 H 57.6 Z"
         id="path100466"
         inkscape:connector-curvature="0" /></clipPath><clipPath
       clipPathUnits="userSpaceOnUse"
       id="clipPath100516"><path
         d="M 57.6,38.016 H 414.72 V 304.128 H 57.6 Z"
         id="path100514"
         inkscape:connector-curvature="0" /></clipPath><clipPath
       clipPathUnits="userSpaceOnUse"
       id="clipPath100538"><path
         d="M -1021,-463 H 1794 V 1233 H -1021 Z"
         id="path100536"
         inkscape:connector-curvature="0" /></clipPath><clipPath
       clipPathUnits="userSpaceOnUse"
       id="clipPath100548"><path
         d="M 57.6,38.016 H 414.72 V 304.128 H 57.6 Z"
         id="path100546"
         inkscape:connector-curvature="0" /></clipPath><clipPath
       clipPathUnits="userSpaceOnUse"
       id="clipPath100570"><path
         d="M -1021,-463 H 1794 V 1233 H -1021 Z"
         id="path100568"
         inkscape:connector-curvature="0" /></clipPath><clipPath
       clipPathUnits="userSpaceOnUse"
       id="clipPath100580"><path
         d="M 57.6,38.016 H 414.72 V 304.128 H 57.6 Z"
         id="path100578"
         inkscape:connector-curvature="0" /></clipPath><clipPath
       clipPathUnits="userSpaceOnUse"
       id="clipPath100602"><path
         d="M -1021,-463 H 1794 V 1233 H -1021 Z"
         id="path100600"
         inkscape:connector-curvature="0" /></clipPath><clipPath
       clipPathUnits="userSpaceOnUse"
       id="clipPath100612"><path
         d="M 57.6,38.016 H 414.72 V 304.128 H 57.6 Z"
         id="path100610"
         inkscape:connector-curvature="0" /></clipPath><clipPath
       clipPathUnits="userSpaceOnUse"
       id="clipPath100630"><path
         d="M 57.6,38.016 H 414.72 V 304.128 H 57.6 Z"
         id="path100628"
         inkscape:connector-curvature="0" /></clipPath><clipPath
       clipPathUnits="userSpaceOnUse"
       id="clipPath100648"><path
         d="M 57.6,38.016 H 414.72 V 304.128 H 57.6 Z"
         id="path100646"
         inkscape:connector-curvature="0" /></clipPath><clipPath
       clipPathUnits="userSpaceOnUse"
       id="clipPath100666"><path
         d="M 57.6,38.016 H 414.72 V 304.128 H 57.6 Z"
         id="path100664"
         inkscape:connector-curvature="0" /></clipPath><clipPath
       clipPathUnits="userSpaceOnUse"
       id="clipPath100684"><path
         d="M 57.6,38.016 H 414.72 V 304.128 H 57.6 Z"
         id="path100682"
         inkscape:connector-curvature="0" /></clipPath></defs><sodipodi:namedview
     pagecolor="#ffffff"
     bordercolor="#666666"
     borderopacity="1"
     objecttolerance="10"
     gridtolerance="10"
     guidetolerance="10"
     inkscape:pageopacity="0"
     inkscape:pageshadow="2"
     inkscape:window-width="909"
     inkscape:window-height="480"
     id="namedview100250"
     showgrid="false"
     inkscape:zoom="0.51215279"
     inkscape:cx="307.20001"
     inkscape:cy="230.39999"
     inkscape:window-x="0"
     inkscape:window-y="0"
     inkscape:window-maximized="0"
     inkscape:current-layer="g100256" /><g
     id="g100256"
     inkscape:groupmode="layer"
     inkscape:label="pid_p"
     transform="matrix(1.3333333,0,0,-1.3333333,0,460.8)"><path
       d="M 0,0 H 460.8 V 345.6 H 0 Z"
       style="fill:#ffffff;fill-opacity:1;fill-rule:nonzero;stroke:none"
       id="path100258"
       inkscape:connector-curvature="0" /><path
       d="M 57.6,38.016 H 414.72 V 304.128 H 57.6 Z"
       style="fill:#ffffff;fill-opacity:1;fill-rule:nonzero;stroke:none"
       id="path100260"
       inkscape:connector-curvature="0" /><g
       id="g100262"><g
         id="g100264"
         clip-path="url(#clipPath100268)"><path
           d="m 73.832727,206.5536 -3.246545,4.4352 h 3.230313 l 0.03247,48.7872 v -48.7872 h 3.230313 l -3.246546,-4.4352 z"
           style="fill:#ff0000;fill-opacity:1;fill-rule:nonzero;stroke:#ff0000;stroke-width:1;stroke-linecap:butt;stroke-linejoin:miter;stroke-miterlimit:10;stroke-dasharray:none;stroke-opacity:1"
           id="path100270"
           inkscape:connector-curvature="0" /></g></g><g
       id="g100272"><g
         id="g100274"
         clip-path="url(#clipPath100278)"><path
           d="m 90.065455,193.86924 -3.246546,4.4352 h 3.230313 l 0.03247,29.76065 v -29.76065 h 3.230313 l -3.246545,-4.4352 z"
           style="fill:#ff0000;fill-opacity:1;fill-rule:nonzero;stroke:#ff0000;stroke-width:1;stroke-linecap:butt;stroke-linejoin:miter;stroke-miterlimit:10;stroke-dasharray:none;stroke-opacity:1"
           id="path100280"
           inkscape:connector-curvature="0" /></g></g><g
       id="g100282"><g
         id="g100284"
         clip-path="url(#clipPath100288)"><path
           d="m 106.29818,164.03903 3.24655,-4.4352 h -3.23031 l -0.0325,-6.11426 v 6.11426 h -3.23031 l 3.24654,4.4352 z"
           style="fill:#ff0000;fill-opacity:1;fill-rule:nonzero;stroke:#ff0000;stroke-width:1;stroke-linecap:butt;stroke-linejoin:miter;stroke-miterlimit:10;stroke-dasharray:none;stroke-opacity:1"
           id="path100290"
           inkscape:connector-curvature="0" /></g></g><g
       id="g100292"><g
         id="g100294"
         clip-path="url(#clipPath100298)"><path
           d="m 122.53091,137.71511 3.24655,-4.4352 h -3.23032 l -0.0325,-45.600122 v 45.600122 h -3.23032 l 3.24655,4.4352 z"
           style="fill:#ff0000;fill-opacity:1;fill-rule:nonzero;stroke:#ff0000;stroke-width:1;stroke-linecap:butt;stroke-linejoin:miter;stroke-miterlimit:10;stroke-dasharray:none;stroke-opacity:1"
           id="path100300"
           inkscape:connector-curvature="0" /></g></g><g
       id="g100302"><g
         id="g100304"
         clip-path="url(#clipPath100308)"><path
           d="m 138.76364,134.10704 3.24654,-4.4352 h -3.23031 l -0.0325,-51.01223 v 51.01223 h -3.23031 l 3.24655,4.4352 z"
           style="fill:#ff0000;fill-opacity:1;fill-rule:nonzero;stroke:#ff0000;stroke-width:1;stroke-linecap:butt;stroke-linejoin:miter;stroke-miterlimit:10;stroke-dasharray:none;stroke-opacity:1"
           id="path100310"
           inkscape:connector-curvature="0" /></g></g><g
       id="g100312"><g
         id="g100314"
         clip-path="url(#clipPath100318)"><path
           d="m 154.99636,157.02281 3.24655,-4.4352 h -3.23031 l -0.0325,-16.63858 v 16.63858 h -3.23031 l 3.24654,4.4352 z"
           style="fill:#ff0000;fill-opacity:1;fill-rule:nonzero;stroke:#ff0000;stroke-width:1;stroke-linecap:butt;stroke-linejoin:miter;stroke-miterlimit:10;stroke-dasharray:none;stroke-opacity:1"
           id="path100320"
           inkscape:connector-curvature="0" /></g></g><g
       id="g100322"><g
         id="g100324"
         clip-path="url(#clipPath100328)"><path
           d="m 171.22909,191.30292 -3.24654,4.4352 h 3.23031 l 0.0325,25.91118 v -25.91118 h 3.23032 l -3.24655,-4.4352 z"
           style="fill:#ff0000;fill-opacity:1;fill-rule:nonzero;stroke:#ff0000;stroke-width:1;stroke-linecap:butt;stroke-linejoin:miter;stroke-miterlimit:10;stroke-dasharray:none;stroke-opacity:1"
           id="path100330"
           inkscape:connector-curvature="0" /></g></g><g
       id="g100332"><g
         id="g100334"
         clip-path="url(#clipPath100338)"><path
           d="m 187.46182,212.77376 -3.24655,4.4352 h 3.23031 l 0.0325,58.11743 v -58.11743 h 3.23031 l -3.24654,-4.4352 z"
           style="fill:#ff0000;fill-opacity:1;fill-rule:nonzero;stroke:#ff0000;stroke-width:1;stroke-linecap:butt;stroke-linejoin:miter;stroke-miterlimit:10;stroke-dasharray:none;stroke-opacity:1"
           id="path100340"
           inkscape:connector-curvature="0" /></g></g><g
       id="g100342"><g
         id="g100344"
         clip-path="url(#clipPath100348)"><path
           d="m 203.69454,205.24146 -3.24654,4.4352 h 3.23031 l 0.0325,46.81899 v -46.81899 h 3.23031 l -3.24655,-4.4352 z"
           style="fill:#ff0000;fill-opacity:1;fill-rule:nonzero;stroke:#ff0000;stroke-width:1;stroke-linecap:butt;stroke-linejoin:miter;stroke-miterlimit:10;stroke-dasharray:none;stroke-opacity:1"
           id="path100350"
           inkscape:connector-curvature="0" /></g></g><g
       id="g100352"><g
         id="g100354"
         clip-path="url(#clipPath100358)"><path
           d="m 219.92727,170.41034 -3.24654,4.4352 h 3.23031 l 0.0325,0.0887 v -0.0887 h 3.23032 l -3.24655,-4.4352 z"
           style="fill:#ff0000;fill-opacity:1;fill-rule:nonzero;stroke:#ff0000;stroke-width:1;stroke-linecap:butt;stroke-linejoin:miter;stroke-miterlimit:10;stroke-dasharray:none;stroke-opacity:1"
           id="path100360"
           inkscape:connector-curvature="0" /></g></g><g
       id="g100362"><g
         id="g100364"
         clip-path="url(#clipPath100368)"><path
           d="m 236.16,137.15175 3.24654,-4.4352 h -3.23031 l -0.0325,-46.445172 v 46.445172 h -3.23032 l 3.24655,4.4352 z"
           style="fill:#ff0000;fill-opacity:1;fill-rule:nonzero;stroke:#ff0000;stroke-width:1;stroke-linecap:butt;stroke-linejoin:miter;stroke-miterlimit:10;stroke-dasharray:none;stroke-opacity:1"
           id="path100370"
           inkscape:connector-curvature="0" /></g></g><g
       id="g100372"><g
         id="g100374"
         clip-path="url(#clipPath100378)"><path
           d="m 252.39273,124.3265 3.24654,-4.43519 h -3.23031 l -0.0325,-65.683047 v 65.683047 h -3.23031 l 3.24655,4.43519 z"
           style="fill:#ff0000;fill-opacity:1;fill-rule:nonzero;stroke:#ff0000;stroke-width:1;stroke-linecap:butt;stroke-linejoin:miter;stroke-miterlimit:10;stroke-dasharray:none;stroke-opacity:1"
           id="path100380"
           inkscape:connector-curvature="0" /></g></g><g
       id="g100382"><g
         id="g100384"
         clip-path="url(#clipPath100388)"><path
           d="m 268.62545,144.60638 3.24655,-4.4352 h -3.23031 l -0.0325,-35.26323 v 35.26323 h -3.23031 l 3.24654,4.4352 z"
           style="fill:#ff0000;fill-opacity:1;fill-rule:nonzero;stroke:#ff0000;stroke-width:1;stroke-linecap:butt;stroke-linejoin:miter;stroke-miterlimit:10;stroke-dasharray:none;stroke-opacity:1"
           id="path100390"
           inkscape:connector-curvature="0" /></g></g><g
       id="g100392"><g
         id="g100394"
         clip-path="url(#clipPath100398)"><path
           d="m 284.85818,185.08463 -3.24654,4.4352 h 3.23031 l 0.0325,16.58375 v -16.58375 h 3.23032 l -3.24655,-4.4352 z"
           style="fill:#ff0000;fill-opacity:1;fill-rule:nonzero;stroke:#ff0000;stroke-width:1;stroke-linecap:butt;stroke-linejoin:miter;stroke-miterlimit:10;stroke-dasharray:none;stroke-opacity:1"
           id="path100400"
           inkscape:connector-curvature="0" /></g></g><g
       id="g100402"><g
         id="g100404"
         clip-path="url(#clipPath100408)"><path
           d="m 301.09091,217.57511 -3.24655,4.4352 h 3.23032 l 0.0325,65.31946 v -65.31946 h 3.23031 l -3.24654,-4.4352 z"
           style="fill:#ff0000;fill-opacity:1;fill-rule:nonzero;stroke:#ff0000;stroke-width:1;stroke-linecap:butt;stroke-linejoin:miter;stroke-miterlimit:10;stroke-dasharray:none;stroke-opacity:1"
           id="path100410"
           inkscape:connector-curvature="0" /></g></g><g
       id="g100412"><g
         id="g100414"
         clip-path="url(#clipPath100418)"><path
           d="m 317.32364,218.17487 -3.24655,4.4352 h 3.23031 l 0.0325,66.21911 v -66.21911 h 3.23031 l -3.24654,-4.4352 z"
           style="fill:#ff0000;fill-opacity:1;fill-rule:nonzero;stroke:#ff0000;stroke-width:1;stroke-linecap:butt;stroke-linejoin:miter;stroke-miterlimit:10;stroke-dasharray:none;stroke-opacity:1"
           id="path100420"
           inkscape:connector-curvature="0" /></g></g><g
       id="g100422"><g
         id="g100424"
         clip-path="url(#clipPath100428)"><path
           d="m 333.55636,184.76516 -3.24654,4.4352 h 3.23031 l 0.0325,16.10454 v -16.10454 h 3.23031 l -3.24655,-4.4352 z"
           style="fill:#ff0000;fill-opacity:1;fill-rule:nonzero;stroke:#ff0000;stroke-width:1;stroke-linecap:butt;stroke-linejoin:miter;stroke-miterlimit:10;stroke-dasharray:none;stroke-opacity:1"
           id="path100430"
           inkscape:connector-curvature="0" /></g></g><g
       id="g100432"><g
         id="g100434"
         clip-path="url(#clipPath100438)"><path
           d="m 349.78909,139.69384 3.24655,-4.4352 h -3.23032 l -0.0325,-42.632027 v 42.632027 h -3.23031 l 3.24654,4.4352 z"
           style="fill:#ff0000;fill-opacity:1;fill-rule:nonzero;stroke:#ff0000;stroke-width:1;stroke-linecap:butt;stroke-linejoin:miter;stroke-miterlimit:10;stroke-dasharray:none;stroke-opacity:1"
           id="path100440"
           inkscape:connector-curvature="0" /></g></g><g
       id="g100442"><g
         id="g100444"
         clip-path="url(#clipPath100448)"><path
           d="m 366.02182,114.91761 3.24654,-4.4352 h -3.23031 l -0.0325,-79.79638 v 79.79638 h -3.23031 l 3.24655,4.4352 z"
           style="fill:#ff0000;fill-opacity:1;fill-rule:nonzero;stroke:#ff0000;stroke-width:1;stroke-linecap:butt;stroke-linejoin:miter;stroke-miterlimit:10;stroke-dasharray:none;stroke-opacity:1"
           id="path100450"
           inkscape:connector-curvature="0" /></g></g><g
       id="g100452"><g
         id="g100454"
         clip-path="url(#clipPath100458)"><path
           d="m 382.25454,129.41473 3.24655,-4.4352 h -3.23031 l -0.0325,-58.050715 v 58.050715 h -3.23031 l 3.24654,4.4352 z"
           style="fill:#ff0000;fill-opacity:1;fill-rule:nonzero;stroke:#ff0000;stroke-width:1;stroke-linecap:butt;stroke-linejoin:miter;stroke-miterlimit:10;stroke-dasharray:none;stroke-opacity:1"
           id="path100460"
           inkscape:connector-curvature="0" /></g></g><g
       id="g100462"><g
         id="g100464"
         clip-path="url(#clipPath100468)"><path
           d="m 398.48727,174.7836 -3.24654,4.4352 h 3.23031 l 0.0325,1.13221 v -1.13221 h 3.23032 l -3.24655,-4.4352 z"
           style="fill:#ff0000;fill-opacity:1;fill-rule:nonzero;stroke:#ff0000;stroke-width:1;stroke-linecap:butt;stroke-linejoin:miter;stroke-miterlimit:10;stroke-dasharray:none;stroke-opacity:1"
           id="path100470"
           inkscape:connector-curvature="0" /></g></g><g
       id="g100472"><path
         d="m 73.832727,38.016 v -3.5"
         style="fill:#000000;fill-opacity:1;fill-rule:nonzero;stroke:#000000;stroke-width:0.80000001;stroke-linecap:butt;stroke-linejoin:round;stroke-miterlimit:10;stroke-dasharray:none;stroke-opacity:1"
         id="path100474"
         inkscape:connector-curvature="0" /><text
         transform="matrix(1,0,0,-1,70.65304,23.42225)"
         style="font-variant:normal;font-weight:normal;font-size:10px;font-family:DejaVuSans;-inkscape-font-specification:DejaVuSans;writing-mode:lr-tb;fill:#000000;fill-opacity:1;fill-rule:nonzero;stroke:none"
         id="text100478"><tspan
           x="0"
           y="0"
           id="tspan100476">0</tspan></text>
<path
         d="m 138.76364,38.016 v -3.5"
         style="fill:#000000;fill-opacity:1;fill-rule:nonzero;stroke:#000000;stroke-width:0.80000001;stroke-linecap:butt;stroke-linejoin:round;stroke-miterlimit:10;stroke-dasharray:none;stroke-opacity:1"
         id="path100480"
         inkscape:connector-curvature="0" /><text
         transform="matrix(1,0,0,-1,135.58395,23.42225)"
         style="font-variant:normal;font-weight:normal;font-size:10px;font-family:DejaVuSans;-inkscape-font-specification:DejaVuSans;writing-mode:lr-tb;fill:#000000;fill-opacity:1;fill-rule:nonzero;stroke:none"
         id="text100484"><tspan
           x="0"
           y="0"
           id="tspan100482">2</tspan></text>
<path
         d="m 203.69454,38.016 v -3.5"
         style="fill:#000000;fill-opacity:1;fill-rule:nonzero;stroke:#000000;stroke-width:0.80000001;stroke-linecap:butt;stroke-linejoin:round;stroke-miterlimit:10;stroke-dasharray:none;stroke-opacity:1"
         id="path100486"
         inkscape:connector-curvature="0" /><text
         transform="matrix(1,0,0,-1,200.51486,23.42225)"
         style="font-variant:normal;font-weight:normal;font-size:10px;font-family:DejaVuSans;-inkscape-font-specification:DejaVuSans;writing-mode:lr-tb;fill:#000000;fill-opacity:1;fill-rule:nonzero;stroke:none"
         id="text100490"><tspan
           x="0"
           y="0"
           id="tspan100488">4</tspan></text>
<path
         d="m 268.62545,38.016 v -3.5"
         style="fill:#000000;fill-opacity:1;fill-rule:nonzero;stroke:#000000;stroke-width:0.80000001;stroke-linecap:butt;stroke-linejoin:round;stroke-miterlimit:10;stroke-dasharray:none;stroke-opacity:1"
         id="path100492"
         inkscape:connector-curvature="0" /><text
         transform="matrix(1,0,0,-1,265.44577,23.42225)"
         style="font-variant:normal;font-weight:normal;font-size:10px;font-family:DejaVuSans;-inkscape-font-specification:DejaVuSans;writing-mode:lr-tb;fill:#000000;fill-opacity:1;fill-rule:nonzero;stroke:none"
         id="text100496"><tspan
           x="0"
           y="0"
           id="tspan100494">6</tspan></text>
<path
         d="m 333.55636,38.016 v -3.5"
         style="fill:#000000;fill-opacity:1;fill-rule:nonzero;stroke:#000000;stroke-width:0.80000001;stroke-linecap:butt;stroke-linejoin:round;stroke-miterlimit:10;stroke-dasharray:none;stroke-opacity:1"
         id="path100498"
         inkscape:connector-curvature="0" /><text
         transform="matrix(1,0,0,-1,330.37668,23.42225)"
         style="font-variant:normal;font-weight:normal;font-size:10px;font-family:DejaVuSans;-inkscape-font-specification:DejaVuSans;writing-mode:lr-tb;fill:#000000;fill-opacity:1;fill-rule:nonzero;stroke:none"
         id="text100502"><tspan
           x="0"
           y="0"
           id="tspan100500">8</tspan></text>
<path
         d="m 398.48727,38.016 v -3.5"
         style="fill:#000000;fill-opacity:1;fill-rule:nonzero;stroke:#000000;stroke-width:0.80000001;stroke-linecap:butt;stroke-linejoin:round;stroke-miterlimit:10;stroke-dasharray:none;stroke-opacity:1"
         id="path100504"
         inkscape:connector-curvature="0" /><text
         transform="matrix(1,0,0,-1,392.1279,23.42225)"
         style="font-variant:normal;font-weight:normal;font-size:10px;font-family:DejaVuSans;-inkscape-font-specification:DejaVuSans;writing-mode:lr-tb;fill:#000000;fill-opacity:1;fill-rule:nonzero;stroke:none"
         id="text100508"><tspan
           x="0 6.3600001"
           y="0"
           sodipodi:role="line"
           id="tspan100506">10</tspan></text>
</g><g
       id="g100510"><g
         id="g100512"
         clip-path="url(#clipPath100516)"><path
           d="M 57.6,38.016 H 414.72"
           style="fill:none;stroke:#808080;stroke-width:0.80000001;stroke-linecap:butt;stroke-linejoin:round;stroke-miterlimit:10;stroke-dasharray:2.2, 2.2;stroke-dashoffset:0;stroke-opacity:1"
           id="path100518"
           inkscape:connector-curvature="0" /></g></g><g
       id="g100520"><path
         d="M 57.6,38.016 H 54.1"
         style="fill:#000000;fill-opacity:1;fill-rule:nonzero;stroke:#000000;stroke-width:0.80000001;stroke-linecap:butt;stroke-linejoin:round;stroke-miterlimit:10;stroke-dasharray:none;stroke-opacity:1"
         id="path100522"
         inkscape:connector-curvature="0" /><g
         id="g100524"
         transform="translate(26.31875,34.219125)"><text
           transform="matrix(1,0,0,-1,8.3789063,0)"
           style="font-variant:normal;font-weight:normal;font-size:10px;font-family:DejaVuSans;-inkscape-font-specification:DejaVuSans;writing-mode:lr-tb;fill:#000000;fill-opacity:1;fill-rule:nonzero;stroke:none"
           id="text100528"><tspan
             x="0 6.3600001 9.54"
             y="0"
             sodipodi:role="line"
             id="tspan100526">1.5</tspan></text>
<g
           id="g100530"
           transform="scale(0.01)"><g
             id="g100532"><g
               id="g100534"
               clip-path="url(#clipPath100538)"><path
                 d="M 106,355 H 732 V 272 H 106 v 83"
                 style="fill:#000000;fill-opacity:1;fill-rule:nonzero;stroke:none"
                 id="path100540"
                 inkscape:connector-curvature="0" /></g></g></g></g></g><g
       id="g100542"><g
         id="g100544"
         clip-path="url(#clipPath100548)"><path
           d="M 57.6,82.368 H 414.72"
           style="fill:none;stroke:#808080;stroke-width:0.80000001;stroke-linecap:butt;stroke-linejoin:round;stroke-miterlimit:10;stroke-dasharray:2.2, 2.2;stroke-dashoffset:0;stroke-opacity:1"
           id="path100550"
           inkscape:connector-curvature="0" /></g></g><g
       id="g100552"><path
         d="M 57.6,82.368 H 54.1"
         style="fill:#000000;fill-opacity:1;fill-rule:nonzero;stroke:#000000;stroke-width:0.80000001;stroke-linecap:butt;stroke-linejoin:round;stroke-miterlimit:10;stroke-dasharray:none;stroke-opacity:1"
         id="path100554"
         inkscape:connector-curvature="0" /><g
         id="g100556"
         transform="translate(26.31875,78.571125)"><text
           transform="matrix(1,0,0,-1,8.3789063,0)"
           style="font-variant:normal;font-weight:normal;font-size:10px;font-family:DejaVuSans;-inkscape-font-specification:DejaVuSans;writing-mode:lr-tb;fill:#000000;fill-opacity:1;fill-rule:nonzero;stroke:none"
           id="text100560"><tspan
             x="0 6.3600001 9.54"
             y="0"
             sodipodi:role="line"
             id="tspan100558">1.0</tspan></text>
<g
           id="g100562"
           transform="scale(0.01)"><g
             id="g100564"><g
               id="g100566"
               clip-path="url(#clipPath100570)"><path
                 d="M 106,355 H 732 V 272 H 106 v 83"
                 style="fill:#000000;fill-opacity:1;fill-rule:nonzero;stroke:none"
                 id="path100572"
                 inkscape:connector-curvature="0" /></g></g></g></g></g><g
       id="g100574"><g
         id="g100576"
         clip-path="url(#clipPath100580)"><path
           d="M 57.6,126.72 H 414.72"
           style="fill:none;stroke:#808080;stroke-width:0.80000001;stroke-linecap:butt;stroke-linejoin:round;stroke-miterlimit:10;stroke-dasharray:2.2, 2.2;stroke-dashoffset:0;stroke-opacity:1"
           id="path100582"
           inkscape:connector-curvature="0" /></g></g><g
       id="g100584"><path
         d="M 57.6,126.72 H 54.1"
         style="fill:#000000;fill-opacity:1;fill-rule:nonzero;stroke:#000000;stroke-width:0.80000001;stroke-linecap:butt;stroke-linejoin:round;stroke-miterlimit:10;stroke-dasharray:none;stroke-opacity:1"
         id="path100586"
         inkscape:connector-curvature="0" /><g
         id="g100588"
         transform="translate(26.31875,122.92313)"><text
           transform="matrix(1,0,0,-1,8.3789063,0)"
           style="font-variant:normal;font-weight:normal;font-size:10px;font-family:DejaVuSans;-inkscape-font-specification:DejaVuSans;writing-mode:lr-tb;fill:#000000;fill-opacity:1;fill-rule:nonzero;stroke:none"
           id="text100592"><tspan
             x="0 6.3600001 9.54"
             y="0"
             sodipodi:role="line"
             id="tspan100590">0.5</tspan></text>
<g
           id="g100594"
           transform="scale(0.01)"><g
             id="g100596"><g
               id="g100598"
               clip-path="url(#clipPath100602)"><path
                 d="M 106,355 H 732 V 272 H 106 v 83"
                 style="fill:#000000;fill-opacity:1;fill-rule:nonzero;stroke:none"
                 id="path100604"
                 inkscape:connector-curvature="0" /></g></g></g></g></g><g
       id="g100606"><g
         id="g100608"
         clip-path="url(#clipPath100612)"><path
           d="M 57.6,171.072 H 414.72"
           style="fill:none;stroke:#808080;stroke-width:0.80000001;stroke-linecap:butt;stroke-linejoin:round;stroke-miterlimit:10;stroke-dasharray:2.2, 2.2;stroke-dashoffset:0;stroke-opacity:1"
           id="path100614"
           inkscape:connector-curvature="0" /></g></g><g
       id="g100616"><path
         d="M 57.6,171.072 H 54.1"
         style="fill:#000000;fill-opacity:1;fill-rule:nonzero;stroke:#000000;stroke-width:0.80000001;stroke-linecap:butt;stroke-linejoin:round;stroke-miterlimit:10;stroke-dasharray:none;stroke-opacity:1"
         id="path100618"
         inkscape:connector-curvature="0" /><text
         transform="matrix(1,0,0,-1,34.69375,167.27512)"
         style="font-variant:normal;font-weight:normal;font-size:10px;font-family:DejaVuSans;-inkscape-font-specification:DejaVuSans;writing-mode:lr-tb;fill:#000000;fill-opacity:1;fill-rule:nonzero;stroke:none"
         id="text100622"><tspan
           x="0 6.3600001 9.54"
           y="0"
           sodipodi:role="line"
           id="tspan100620">0.0</tspan></text>
</g><g
       id="g100624"><g
         id="g100626"
         clip-path="url(#clipPath100630)"><path
           d="M 57.6,215.424 H 414.72"
           style="fill:none;stroke:#808080;stroke-width:0.80000001;stroke-linecap:butt;stroke-linejoin:round;stroke-miterlimit:10;stroke-dasharray:2.2, 2.2;stroke-dashoffset:0;stroke-opacity:1"
           id="path100632"
           inkscape:connector-curvature="0" /></g></g><g
       id="g100634"><path
         d="M 57.6,215.424 H 54.1"
         style="fill:#000000;fill-opacity:1;fill-rule:nonzero;stroke:#000000;stroke-width:0.80000001;stroke-linecap:butt;stroke-linejoin:round;stroke-miterlimit:10;stroke-dasharray:none;stroke-opacity:1"
         id="path100636"
         inkscape:connector-curvature="0" /><text
         transform="matrix(1,0,0,-1,34.69375,211.62712)"
         style="font-variant:normal;font-weight:normal;font-size:10px;font-family:DejaVuSans;-inkscape-font-specification:DejaVuSans;writing-mode:lr-tb;fill:#000000;fill-opacity:1;fill-rule:nonzero;stroke:none"
         id="text100640"><tspan
           x="0 6.3600001 9.54"
           y="0"
           sodipodi:role="line"
           id="tspan100638">0.5</tspan></text>
</g><g
       id="g100642"><g
         id="g100644"
         clip-path="url(#clipPath100648)"><path
           d="M 57.6,259.776 H 414.72"
           style="fill:none;stroke:#808080;stroke-width:0.80000001;stroke-linecap:butt;stroke-linejoin:round;stroke-miterlimit:10;stroke-dasharray:2.2, 2.2;stroke-dashoffset:0;stroke-opacity:1"
           id="path100650"
           inkscape:connector-curvature="0" /></g></g><g
       id="g100652"><path
         d="M 57.6,259.776 H 54.1"
         style="fill:#000000;fill-opacity:1;fill-rule:nonzero;stroke:#000000;stroke-width:0.80000001;stroke-linecap:butt;stroke-linejoin:round;stroke-miterlimit:10;stroke-dasharray:none;stroke-opacity:1"
         id="path100654"
         inkscape:connector-curvature="0" /><text
         transform="matrix(1,0,0,-1,34.69375,255.97912)"
         style="font-variant:normal;font-weight:normal;font-size:10px;font-family:DejaVuSans;-inkscape-font-specification:DejaVuSans;writing-mode:lr-tb;fill:#000000;fill-opacity:1;fill-rule:nonzero;stroke:none"
         id="text100658"><tspan
           x="0 6.3600001 9.54"
           y="0"
           sodipodi:role="line"
           id="tspan100656">1.0</tspan></text>
</g><g
       id="g100660"><g
         id="g100662"
         clip-path="url(#clipPath100666)"><path
           d="M 57.6,304.128 H 414.72"
           style="fill:none;stroke:#808080;stroke-width:0.80000001;stroke-linecap:butt;stroke-linejoin:round;stroke-miterlimit:10;stroke-dasharray:2.2, 2.2;stroke-dashoffset:0;stroke-opacity:1"
           id="path100668"
           inkscape:connector-curvature="0" /></g></g><g
       id="g100670"><path
         d="M 57.6,304.128 H 54.1"
         style="fill:#000000;fill-opacity:1;fill-rule:nonzero;stroke:#000000;stroke-width:0.80000001;stroke-linecap:butt;stroke-linejoin:round;stroke-miterlimit:10;stroke-dasharray:none;stroke-opacity:1"
         id="path100672"
         inkscape:connector-curvature="0" /><text
         transform="matrix(1,0,0,-1,34.69375,300.33112)"
         style="font-variant:normal;font-weight:normal;font-size:10px;font-family:DejaVuSans;-inkscape-font-specification:DejaVuSans;writing-mode:lr-tb;fill:#000000;fill-opacity:1;fill-rule:nonzero;stroke:none"
         id="text100676"><tspan
           x="0 6.3600001 9.54"
           y="0"
           sodipodi:role="line"
           id="tspan100674">1.5</tspan></text>
</g><g
       id="g100678"><g
         id="g100680"
         clip-path="url(#clipPath100684)"><path
           d="m 73.832727,259.776 0.941498,-0.10812 0.941499,-0.33225 0.973963,-0.57937 1.038895,-0.88122 1.103825,-1.23199 1.201222,-1.68315 1.298618,-2.2148 1.396015,-2.82875 1.525876,-3.60681 1.655738,-4.49789 1.818066,-5.60184 2.012858,-6.95388 2.240116,-8.57834 2.532306,-10.61947 2.986822,-13.53713 3.895856,-18.77048 9.80457,-47.69701 2.98682,-13.17943 2.5323,-10.20429 2.20765,-8.008098 1.9804,-6.378132 1.7856,-5.031563 1.62327,-3.938715 1.49341,-3.059851 1.36355,-2.302562 1.23369,-1.666869 1.13629,-1.177395 1.03889,-0.771242 0.97396,-0.455145 0.90904,-0.189044 0.90903,0.03973 0.90903,0.269059 0.9415,0.52046 0.97396,0.796694 1.07136,1.178129 1.1363,1.591939 1.23368,2.122188 1.33109,2.740938 1.46094,3.533571 1.59081,4.45106 1.72067,5.48982 1.91546,6.885938 2.11025,8.45287 2.36998,10.45376 2.7271,13.08465 3.34394,17.20615 5.29187,28.59097 5.55159,29.61375 3.21408,15.9547 2.62971,11.97696 2.30504,9.49202 2.04533,7.50708 1.85053,5.967 1.65574,4.6208 1.52587,3.62204 1.39602,2.7553 1.26615,2.02209 1.13629,1.41892 1.0389,0.96385 0.97396,0.61058 0.90903,0.31174 0.87657,0.0631 0.8441,-0.1603 0.87657,-0.39636 0.90903,-0.65821 0.97396,-0.98352 1.07137,-1.41231 1.16875,-1.93151 1.26615,-2.54584 1.36355,-3.25798 1.49341,-4.16518 1.62328,-5.2083 1.7856,-6.50686 1.94792,-7.96505 2.17519,-9.86616 2.43491,-12.10943 2.85696,-15.38586 3.60366,-20.70305 11.8499,-69.0895 2.79202,-14.42372 2.40245,-11.281871 2.11025,-8.88493 1.91546,-7.129415 1.72067,-5.576801 1.55834,-4.32987 1.42848,-3.33745 1.29862,-2.490424 1.16876,-1.786547 1.07136,-1.251478 0.97396,-0.812462 0.90904,-0.475918 0.8441,-0.196069 0.81163,0.03574 0.81164,0.256118 0.8441,0.50023 0.90903,0.80494 0.97397,1.167568 1.07136,1.646319 1.16875,2.223761 1.26616,2.904817 1.39601,3.787133 1.52588,4.819349 1.65574,6.000357 1.81806,7.462976 1.9804,9.096277 2.20765,11.21427 2.49984,13.88422 2.95435,17.71726 3.86339,24.62337 9.93443,63.94704 2.98682,17.41193 2.49984,13.30727 2.20765,10.58106 1.94793,8.29424 1.7856,6.65878 1.59081,5.11624 1.46094,3.98445 1.33109,3.01096 1.20122,2.19497 1.10382,1.57037 0.97397,1.02462 0.90903,0.64738 0.8441,0.33192 0.77917,0.075 0.77917,-0.14775 0.81164,-0.39114 0.8441,-0.66344 0.90903,-1.00639 1.00643,-1.46553 1.10383,-2.02829 1.20122,-2.70128 1.29862,-3.48914 1.42848,-4.50382 1.55834,-5.68223 1.6882,-7.02107 1.85054,-8.66932 2.04532,-10.67338 2.30505,-13.2562 2.6297,-16.47436 3.18161,-21.42346 4.54517,-32.29318 6.9476,-49.2751 3.21408,-21.133132 2.62971,-15.869772 2.27258,-12.414023 2.04532,-9.973596 1.81807,-7.805029 1.65573,-6.169501 1.49342,-4.751433 1.36355,-3.634641 1.23368,-2.690487 1.13629,-1.962979 1.00643,-1.318628 0.90903,-0.847431 0.84411,-0.4922 0.77917,-0.200875 0.7467,0.03674 0.74671,0.26159 0.77917,0.512814 0.8441,0.831635 0.90903,1.215666 1.00643,1.730789 1.10383,2.359006 1.20122,3.107337 1.33108,4.088204 1.46095,5.246854 1.59081,6.585185 1.72067,8.097521 1.91546,10.130424 2.11025,12.406961 2.36998,15.311431 2.7271,19.12609 3.37641,25.3484 4.38283,34.40552 v 0"
           style="fill:none;stroke:#1f77b4;stroke-width:1.5;stroke-linecap:square;stroke-linejoin:round;stroke-miterlimit:10;stroke-dasharray:none;stroke-opacity:1"
           id="path100686"
           inkscape:connector-curvature="0" /></g></g><g
       id="g100688"><path
         d="M 57.6,38.016 V 304.128"
         style="fill:none;stroke:#000000;stroke-width:0.80000001;stroke-linecap:square;stroke-linejoin:miter;stroke-miterlimit:10;stroke-dasharray:none;stroke-opacity:1"
         id="path100690"
         inkscape:connector-curvature="0" /><path
         d="M 414.72,38.016 V 304.128"
         style="fill:none;stroke:#000000;stroke-width:0.80000001;stroke-linecap:square;stroke-linejoin:miter;stroke-miterlimit:10;stroke-dasharray:none;stroke-opacity:1"
         id="path100692"
         inkscape:connector-curvature="0" /><path
         d="M 57.6,38.016 H 414.72"
         style="fill:none;stroke:#000000;stroke-width:0.80000001;stroke-linecap:square;stroke-linejoin:miter;stroke-miterlimit:10;stroke-dasharray:none;stroke-opacity:1"
         id="path100694"
         inkscape:connector-curvature="0" /><path
         d="M 57.6,304.128 H 414.72"
         style="fill:none;stroke:#000000;stroke-width:0.80000001;stroke-linecap:square;stroke-linejoin:miter;stroke-miterlimit:10;stroke-dasharray:none;stroke-opacity:1"
         id="path100696"
         inkscape:connector-curvature="0" /></g></g></svg>