<?xml version="1.0" encoding="UTF-8" standalone="no"?>
<!-- Created with Inkscape (http://www.inkscape.org/) -->

<svg
   xmlns:dc="http://purl.org/dc/elements/1.1/"
   xmlns:cc="http://creativecommons.org/ns#"
   xmlns:rdf="http://www.w3.org/1999/02/22-rdf-syntax-ns#"
   xmlns:svg="http://www.w3.org/2000/svg"
   xmlns="http://www.w3.org/2000/svg"
   xmlns:sodipodi="http://sodipodi.sourceforge.net/DTD/sodipodi-0.dtd"
   xmlns:inkscape="http://www.inkscape.org/namespaces/inkscape"
   version="1.1"
   id="svg95593"
   xml:space="preserve"
   width="614.40002"
   height="460.79999"
   viewBox="0 0 614.40002 460.79999"
   sodipodi:docname="pid_kp.svg"
   inkscape:version="0.92.3 (2405546, 2018-03-11)"><metadata
     id="metadata95599"><rdf:RDF><cc:Work
         rdf:about=""><dc:format>image/svg+xml</dc:format><dc:type
           rdf:resource="http://purl.org/dc/dcmitype/StillImage" /><dc:title></dc:title></cc:Work></rdf:RDF></metadata><defs
     id="defs95597"><clipPath
       clipPathUnits="userSpaceOnUse"
       id="clipPath95703"><path
         d="M 57.6,38.016 H 414.72 V 304.128 H 57.6 Z"
         id="path95701"
         inkscape:connector-curvature="0" /></clipPath><clipPath
       clipPathUnits="userSpaceOnUse"
       id="clipPath95713"><path
         d="M 57.6,38.016 H 414.72 V 304.128 H 57.6 Z"
         id="path95711"
         inkscape:connector-curvature="0" /></clipPath><clipPath
       clipPathUnits="userSpaceOnUse"
       id="clipPath95723"><path
         d="M 57.6,38.016 H 414.72 V 304.128 H 57.6 Z"
         id="path95721"
         inkscape:connector-curvature="0" /></clipPath><clipPath
       clipPathUnits="userSpaceOnUse"
       id="clipPath95733"><path
         d="M 57.6,38.016 H 414.72 V 304.128 H 57.6 Z"
         id="path95731"
         inkscape:connector-curvature="0" /></clipPath></defs><sodipodi:namedview
     pagecolor="#ffffff"
     bordercolor="#666666"
     borderopacity="1"
     objecttolerance="10"
     gridtolerance="10"
     guidetolerance="10"
     inkscape:pageopacity="0"
     inkscape:pageshadow="2"
     inkscape:window-width="909"
     inkscape:window-height="480"
     id="namedview95595"
     showgrid="false"
     inkscape:zoom="0.51215279"
     inkscape:cx="307.20001"
     inkscape:cy="230.39999"
     inkscape:window-x="0"
     inkscape:window-y="0"
     inkscape:window-maximized="0"
     inkscape:current-layer="g95601" /><g
     id="g95601"
     inkscape:groupmode="layer"
     inkscape:label="pid_kp"
     transform="matrix(1.3333333,0,0,-1.3333333,0,460.8)"><path
       d="M 0,0 H 460.8 V 345.6 H 0 Z"
       style="fill:#ffffff;fill-opacity:1;fill-rule:nonzero;stroke:none"
       id="path95603"
       inkscape:connector-curvature="0" /><path
       d="M 57.6,38.016 H 414.72 V 304.128 H 57.6 Z"
       style="fill:#ffffff;fill-opacity:1;fill-rule:nonzero;stroke:none"
       id="path95605"
       inkscape:connector-curvature="0" /><path
       d="m 73.832727,38.016 v -3.5"
       style="fill:#000000;fill-opacity:1;fill-rule:nonzero;stroke:#000000;stroke-width:0.80000001;stroke-linecap:butt;stroke-linejoin:round;stroke-miterlimit:10;stroke-dasharray:none;stroke-opacity:1"
       id="path95607"
       inkscape:connector-curvature="0" /><text
       transform="matrix(1,0,0,-1,70.65304,23.42225)"
       style="font-variant:normal;font-weight:normal;font-size:10px;font-family:DejaVuSans;-inkscape-font-specification:DejaVuSans;writing-mode:lr-tb;fill:#000000;fill-opacity:1;fill-rule:nonzero;stroke:none"
       id="text95611"><tspan
         x="0"
         y="0"
         id="tspan95609">0</tspan></text>
<path
       d="m 138.76364,38.016 v -3.5"
       style="fill:#000000;fill-opacity:1;fill-rule:nonzero;stroke:#000000;stroke-width:0.80000001;stroke-linecap:butt;stroke-linejoin:round;stroke-miterlimit:10;stroke-dasharray:none;stroke-opacity:1"
       id="path95613"
       inkscape:connector-curvature="0" /><text
       transform="matrix(1,0,0,-1,135.58395,23.42225)"
       style="font-variant:normal;font-weight:normal;font-size:10px;font-family:DejaVuSans;-inkscape-font-specification:DejaVuSans;writing-mode:lr-tb;fill:#000000;fill-opacity:1;fill-rule:nonzero;stroke:none"
       id="text95617"><tspan
         x="0"
         y="0"
         id="tspan95615">2</tspan></text>
<path
       d="m 203.69454,38.016 v -3.5"
       style="fill:#000000;fill-opacity:1;fill-rule:nonzero;stroke:#000000;stroke-width:0.80000001;stroke-linecap:butt;stroke-linejoin:round;stroke-miterlimit:10;stroke-dasharray:none;stroke-opacity:1"
       id="path95619"
       inkscape:connector-curvature="0" /><text
       transform="matrix(1,0,0,-1,200.51486,23.42225)"
       style="font-variant:normal;font-weight:normal;font-size:10px;font-family:DejaVuSans;-inkscape-font-specification:DejaVuSans;writing-mode:lr-tb;fill:#000000;fill-opacity:1;fill-rule:nonzero;stroke:none"
       id="text95623"><tspan
         x="0"
         y="0"
         id="tspan95621">4</tspan></text>
<path
       d="m 268.62545,38.016 v -3.5"
       style="fill:#000000;fill-opacity:1;fill-rule:nonzero;stroke:#000000;stroke-width:0.80000001;stroke-linecap:butt;stroke-linejoin:round;stroke-miterlimit:10;stroke-dasharray:none;stroke-opacity:1"
       id="path95625"
       inkscape:connector-curvature="0" /><text
       transform="matrix(1,0,0,-1,265.44577,23.42225)"
       style="font-variant:normal;font-weight:normal;font-size:10px;font-family:DejaVuSans;-inkscape-font-specification:DejaVuSans;writing-mode:lr-tb;fill:#000000;fill-opacity:1;fill-rule:nonzero;stroke:none"
       id="text95629"><tspan
         x="0"
         y="0"
         id="tspan95627">6</tspan></text>
<path
       d="m 333.55636,38.016 v -3.5"
       style="fill:#000000;fill-opacity:1;fill-rule:nonzero;stroke:#000000;stroke-width:0.80000001;stroke-linecap:butt;stroke-linejoin:round;stroke-miterlimit:10;stroke-dasharray:none;stroke-opacity:1"
       id="path95631"
       inkscape:connector-curvature="0" /><text
       transform="matrix(1,0,0,-1,330.37668,23.42225)"
       style="font-variant:normal;font-weight:normal;font-size:10px;font-family:DejaVuSans;-inkscape-font-specification:DejaVuSans;writing-mode:lr-tb;fill:#000000;fill-opacity:1;fill-rule:nonzero;stroke:none"
       id="text95635"><tspan
         x="0"
         y="0"
         id="tspan95633">8</tspan></text>
<path
       d="m 398.48727,38.016 v -3.5"
       style="fill:#000000;fill-opacity:1;fill-rule:nonzero;stroke:#000000;stroke-width:0.80000001;stroke-linecap:butt;stroke-linejoin:round;stroke-miterlimit:10;stroke-dasharray:none;stroke-opacity:1"
       id="path95637"
       inkscape:connector-curvature="0" /><text
       transform="matrix(1,0,0,-1,392.1279,23.42225)"
       style="font-variant:normal;font-weight:normal;font-size:10px;font-family:DejaVuSans;-inkscape-font-specification:DejaVuSans;writing-mode:lr-tb;fill:#000000;fill-opacity:1;fill-rule:nonzero;stroke:none"
       id="text95641"><tspan
         x="0 6.3600001"
         y="0"
         sodipodi:role="line"
         id="tspan95639">10</tspan></text>
<path
       d="M 57.6,50.112 H 54.1"
       style="fill:#000000;fill-opacity:1;fill-rule:nonzero;stroke:#000000;stroke-width:0.80000001;stroke-linecap:butt;stroke-linejoin:round;stroke-miterlimit:10;stroke-dasharray:none;stroke-opacity:1"
       id="path95643"
       inkscape:connector-curvature="0" /><text
       transform="matrix(1,0,0,-1,34.69375,46.315125)"
       style="font-variant:normal;font-weight:normal;font-size:10px;font-family:DejaVuSans;-inkscape-font-specification:DejaVuSans;writing-mode:lr-tb;fill:#000000;fill-opacity:1;fill-rule:nonzero;stroke:none"
       id="text95647"><tspan
         x="0 6.3600001 9.54"
         y="0"
         sodipodi:role="line"
         id="tspan95645">0.0</tspan></text>
<path
       d="M 57.6,81.36274 H 54.1"
       style="fill:#000000;fill-opacity:1;fill-rule:nonzero;stroke:#000000;stroke-width:0.80000001;stroke-linecap:butt;stroke-linejoin:round;stroke-miterlimit:10;stroke-dasharray:none;stroke-opacity:1"
       id="path95649"
       inkscape:connector-curvature="0" /><text
       transform="matrix(1,0,0,-1,34.69375,77.565865)"
       style="font-variant:normal;font-weight:normal;font-size:10px;font-family:DejaVuSans;-inkscape-font-specification:DejaVuSans;writing-mode:lr-tb;fill:#000000;fill-opacity:1;fill-rule:nonzero;stroke:none"
       id="text95653"><tspan
         x="0 6.3600001 9.54"
         y="0"
         sodipodi:role="line"
         id="tspan95651">0.2</tspan></text>
<path
       d="M 57.6,112.61348 H 54.1"
       style="fill:#000000;fill-opacity:1;fill-rule:nonzero;stroke:#000000;stroke-width:0.80000001;stroke-linecap:butt;stroke-linejoin:round;stroke-miterlimit:10;stroke-dasharray:none;stroke-opacity:1"
       id="path95655"
       inkscape:connector-curvature="0" /><text
       transform="matrix(1,0,0,-1,34.69375,108.81661)"
       style="font-variant:normal;font-weight:normal;font-size:10px;font-family:DejaVuSans;-inkscape-font-specification:DejaVuSans;writing-mode:lr-tb;fill:#000000;fill-opacity:1;fill-rule:nonzero;stroke:none"
       id="text95659"><tspan
         x="0 6.3600001 9.54"
         y="0"
         sodipodi:role="line"
         id="tspan95657">0.4</tspan></text>
<path
       d="M 57.6,143.86422 H 54.1"
       style="fill:#000000;fill-opacity:1;fill-rule:nonzero;stroke:#000000;stroke-width:0.80000001;stroke-linecap:butt;stroke-linejoin:round;stroke-miterlimit:10;stroke-dasharray:none;stroke-opacity:1"
       id="path95661"
       inkscape:connector-curvature="0" /><text
       transform="matrix(1,0,0,-1,34.69375,140.06735)"
       style="font-variant:normal;font-weight:normal;font-size:10px;font-family:DejaVuSans;-inkscape-font-specification:DejaVuSans;writing-mode:lr-tb;fill:#000000;fill-opacity:1;fill-rule:nonzero;stroke:none"
       id="text95665"><tspan
         x="0 6.3600001 9.54"
         y="0"
         sodipodi:role="line"
         id="tspan95663">0.6</tspan></text>
<path
       d="M 57.6,175.11496 H 54.1"
       style="fill:#000000;fill-opacity:1;fill-rule:nonzero;stroke:#000000;stroke-width:0.80000001;stroke-linecap:butt;stroke-linejoin:round;stroke-miterlimit:10;stroke-dasharray:none;stroke-opacity:1"
       id="path95667"
       inkscape:connector-curvature="0" /><text
       transform="matrix(1,0,0,-1,34.69375,171.31809)"
       style="font-variant:normal;font-weight:normal;font-size:10px;font-family:DejaVuSans;-inkscape-font-specification:DejaVuSans;writing-mode:lr-tb;fill:#000000;fill-opacity:1;fill-rule:nonzero;stroke:none"
       id="text95671"><tspan
         x="0 6.3600001 9.54"
         y="0"
         sodipodi:role="line"
         id="tspan95669">0.8</tspan></text>
<path
       d="M 57.6,206.3657 H 54.1"
       style="fill:#000000;fill-opacity:1;fill-rule:nonzero;stroke:#000000;stroke-width:0.80000001;stroke-linecap:butt;stroke-linejoin:round;stroke-miterlimit:10;stroke-dasharray:none;stroke-opacity:1"
       id="path95673"
       inkscape:connector-curvature="0" /><text
       transform="matrix(1,0,0,-1,34.69375,202.56883)"
       style="font-variant:normal;font-weight:normal;font-size:10px;font-family:DejaVuSans;-inkscape-font-specification:DejaVuSans;writing-mode:lr-tb;fill:#000000;fill-opacity:1;fill-rule:nonzero;stroke:none"
       id="text95677"><tspan
         x="0 6.3600001 9.54"
         y="0"
         sodipodi:role="line"
         id="tspan95675">1.0</tspan></text>
<path
       d="M 57.6,237.61644 H 54.1"
       style="fill:#000000;fill-opacity:1;fill-rule:nonzero;stroke:#000000;stroke-width:0.80000001;stroke-linecap:butt;stroke-linejoin:round;stroke-miterlimit:10;stroke-dasharray:none;stroke-opacity:1"
       id="path95679"
       inkscape:connector-curvature="0" /><text
       transform="matrix(1,0,0,-1,34.69375,233.81957)"
       style="font-variant:normal;font-weight:normal;font-size:10px;font-family:DejaVuSans;-inkscape-font-specification:DejaVuSans;writing-mode:lr-tb;fill:#000000;fill-opacity:1;fill-rule:nonzero;stroke:none"
       id="text95683"><tspan
         x="0 6.3600001 9.54"
         y="0"
         sodipodi:role="line"
         id="tspan95681">1.2</tspan></text>
<path
       d="M 57.6,268.86718 H 54.1"
       style="fill:#000000;fill-opacity:1;fill-rule:nonzero;stroke:#000000;stroke-width:0.80000001;stroke-linecap:butt;stroke-linejoin:round;stroke-miterlimit:10;stroke-dasharray:none;stroke-opacity:1"
       id="path95685"
       inkscape:connector-curvature="0" /><text
       transform="matrix(1,0,0,-1,34.69375,265.07031)"
       style="font-variant:normal;font-weight:normal;font-size:10px;font-family:DejaVuSans;-inkscape-font-specification:DejaVuSans;writing-mode:lr-tb;fill:#000000;fill-opacity:1;fill-rule:nonzero;stroke:none"
       id="text95689"><tspan
         x="0 6.3600001 9.54"
         y="0"
         sodipodi:role="line"
         id="tspan95687">1.4</tspan></text>
<path
       d="M 57.6,300.11792 H 54.1"
       style="fill:#000000;fill-opacity:1;fill-rule:nonzero;stroke:#000000;stroke-width:0.80000001;stroke-linecap:butt;stroke-linejoin:round;stroke-miterlimit:10;stroke-dasharray:none;stroke-opacity:1"
       id="path95691"
       inkscape:connector-curvature="0" /><text
       transform="matrix(1,0,0,-1,34.69375,296.32105)"
       style="font-variant:normal;font-weight:normal;font-size:10px;font-family:DejaVuSans;-inkscape-font-specification:DejaVuSans;writing-mode:lr-tb;fill:#000000;fill-opacity:1;fill-rule:nonzero;stroke:none"
       id="text95695"><tspan
         x="0 6.3600001 9.54"
         y="0"
         sodipodi:role="line"
         id="tspan95693">1.6</tspan></text>
<g
       id="g95697"><g
         id="g95699"
         clip-path="url(#clipPath95703)"><path
           d="m 73.832727,50.112 h 32.432993 l 0.12986,156.2537 h 292.09169 v 0"
           style="fill:none;stroke:#000000;stroke-width:1.5;stroke-linecap:square;stroke-linejoin:round;stroke-miterlimit:10;stroke-dasharray:none;stroke-opacity:1"
           id="path95705"
           inkscape:connector-curvature="0" /></g></g><g
       id="g95707"><g
         id="g95709"
         clip-path="url(#clipPath95713)"><path
           d="m 73.832727,50.112 32.757643,0.107654 0.35712,0.423555 0.48698,0.992169 0.64931,1.879324 0.9415,3.480167 1.42848,6.234544 2.69463,12.949947 8.11637,39.3028 4.3179,19.68636 3.86339,16.60023 3.53873,14.25178 3.31148,12.44181 3.14915,10.98631 2.98682,9.63248 2.85696,8.4822 2.75957,7.50802 2.66216,6.60498 2.56477,5.77468 2.46738,5.01699 2.40244,4.38642 2.30505,3.75608 2.24012,3.23626 2.17518,2.76286 2.14272,2.36724 2.07779,1.97089 2.04532,1.63924 2.01286,1.33302 2.01286,1.06657 1.98039,0.80073 2.01286,0.57309 2.01286,0.34257 2.04532,0.12482 2.11026,-0.0932 2.20765,-0.32316 2.30505,-0.56589 2.4349,-0.83068 2.59724,-1.12547 2.79203,-1.45611 3.05175,-1.8467 3.40888,-2.32978 3.89585,-2.94103 4.70749,-3.84661 6.52556,-5.6468 13.79782,-11.99849 5.61652,-4.54235 4.90228,-3.68411 4.5127,-3.11874 4.28544,-2.69585 4.15558,-2.35293 4.05818,-2.04247 3.99325,-1.76154 3.96079,-1.50593 3.99325,-1.28044 4.02572,-1.0576 4.12311,-0.85206 4.22051,-0.64471 4.38283,-0.44431 4.6101,-0.24248 4.90228,-0.0333 5.32434,0.18989 5.90871,0.43826 6.81774,0.73506 8.60335,1.16356 17.23916,2.62228 12.56413,1.78087 9.83703,1.17075 9.18772,0.87061 9.1228,0.64044 9.41498,0.43591 5.68145,0.16206 v 0"
           style="fill:none;stroke:#008000;stroke-width:1.5;stroke-linecap:square;stroke-linejoin:round;stroke-miterlimit:10;stroke-dasharray:none;stroke-opacity:1"
           id="path95715"
           inkscape:connector-curvature="0" /></g></g><g
       id="g95717"><g
         id="g95719"
         clip-path="url(#clipPath95723)"><path
           d="m 73.832727,50.112 32.660253,0.09135 0.25972,0.435167 0.35712,1.093929 0.51945,2.400632 0.7467,4.639148 1.16876,8.876795 6.68788,53.299609 2.11026,14.01815 2.07779,12.33191 2.04532,10.82593 2.04532,9.63898 2.01286,8.43417 2.01286,7.4886 1.98039,6.53166 1.98039,5.78047 1.9804,5.1003 1.94792,4.4161 1.94793,3.87714 1.94793,3.38966 1.94792,2.94918 1.94793,2.5516 1.94793,2.19316 1.98039,1.89905 2.01286,1.62352 2.04532,1.3664 2.11026,1.14313 2.17518,0.92705 2.27259,0.72869 2.40244,0.53767 2.56477,0.34622 2.79203,0.14962 3.05175,-0.0622 3.40888,-0.29552 3.92831,-0.57086 4.64256,-0.90713 5.94118,-1.39984 9.54485,-2.51065 14.96657,-3.91005 9.05786,-2.12283 8.53842,-1.7728 8.50595,-1.53813 8.7332,-1.35238 9.18773,-1.19606 9.83703,-1.05384 10.7136,-0.92105 11.91482,-0.79688 13.5381,-0.67693 15.77821,-0.55975 19.12215,-0.4473 24.38156,-0.33682 33.9264,-0.23032 3.24654,-0.0134 v 0"
           style="fill:none;stroke:#ff0000;stroke-width:1.5;stroke-linecap:butt;stroke-linejoin:round;stroke-miterlimit:10;stroke-dasharray:5.6, 2.4;stroke-dashoffset:0;stroke-opacity:1"
           id="path95725"
           inkscape:connector-curvature="0" /></g></g><g
       id="g95727"><g
         id="g95729"
         clip-path="url(#clipPath95733)"><path
           d="m 73.832727,50.112 32.855043,0.0972 0.48698,0.377774 0.61684,0.791653 0.8441,1.490351 1.1363,2.500061 1.5908,4.087488 2.14272,6.167397 2.66217,8.376224 3.08422,10.463874 3.5712,12.933748 4.28544,16.4005 5.84378,23.32549 12.4018,49.70084 4.67503,17.67317 3.96078,14.13087 3.53874,11.82593 3.24654,10.09358 3.01929,8.67568 2.8245,7.45283 2.66216,6.40857 2.49984,5.45421 2.36998,4.65412 2.27258,3.98247 2.14272,3.31971 2.04533,2.77287 1.98039,2.31622 1.883,1.86711 1.81806,1.49481 1.75314,1.15767 1.6882,0.85468 1.65574,0.59395 1.62327,0.35135 1.62327,0.12699 1.65574,-0.0967 1.65574,-0.31957 1.72067,-0.56187 1.7856,-0.82304 1.85053,-1.10179 1.94793,-1.42234 2.07779,-1.80012 2.20765,-2.21524 2.36998,-2.70285 2.5323,-3.23125 2.75956,-3.88796 3.05176,-4.69466 3.40887,-5.66416 3.92832,-6.97207 4.86982,-9.12101 7.9865,-15.51403 8.01897,-15.40864 4.96721,-9.0659 4.18805,-7.19233 3.73352,-5.98077 3.44134,-5.10055 3.21408,-4.37153 3.01929,-3.7376 2.85696,-3.1913 2.7271,-2.72212 2.6297,-2.31809 2.5323,-1.94343 2.46738,-1.61915 2.40244,-1.31611 2.36998,-1.04785 2.33751,-0.79231 2.33751,-0.55645 2.30505,-0.32237 2.33751,-0.10312 2.36998,0.11859 2.43491,0.34745 2.49984,0.58447 2.59724,0.83943 2.69463,1.10627 2.85696,1.41639 3.05175,1.76654 3.27902,2.1601 3.60366,2.64697 4.05818,3.26635 4.77242,4.13972 6.33077,5.81028 15.32369,14.17597 5.22694,4.46143 4.5127,3.56692 4.12311,2.98141 3.86339,2.52283 3.6686,2.13288 3.53873,1.80124 3.40887,1.48864 3.34395,1.22031 3.31147,0.97228 3.27901,0.73176 3.27901,0.50487 2.7271,0.25069 v 0"
           style="fill:none;stroke:#0000ff;stroke-width:1.5;stroke-linecap:butt;stroke-linejoin:round;stroke-miterlimit:10;stroke-dasharray:2.2, 2.2;stroke-dashoffset:0;stroke-opacity:1"
           id="path95735"
           inkscape:connector-curvature="0" /></g></g><g
       id="g95737"><path
         d="M 57.6,38.016 V 304.128"
         style="fill:none;stroke:#000000;stroke-width:0.80000001;stroke-linecap:square;stroke-linejoin:miter;stroke-miterlimit:10;stroke-dasharray:none;stroke-opacity:1"
         id="path95739"
         inkscape:connector-curvature="0" /><path
         d="M 414.72,38.016 V 304.128"
         style="fill:none;stroke:#000000;stroke-width:0.80000001;stroke-linecap:square;stroke-linejoin:miter;stroke-miterlimit:10;stroke-dasharray:none;stroke-opacity:1"
         id="path95741"
         inkscape:connector-curvature="0" /><path
         d="M 57.6,38.016 H 414.72"
         style="fill:none;stroke:#000000;stroke-width:0.80000001;stroke-linecap:square;stroke-linejoin:miter;stroke-miterlimit:10;stroke-dasharray:none;stroke-opacity:1"
         id="path95743"
         inkscape:connector-curvature="0" /><path
         d="M 57.6,304.128 H 414.72"
         style="fill:none;stroke:#000000;stroke-width:0.80000001;stroke-linecap:square;stroke-linejoin:miter;stroke-miterlimit:10;stroke-dasharray:none;stroke-opacity:1"
         id="path95745"
         inkscape:connector-curvature="0" /><path
         d="M 284.68875,237.4405 H 407.72 c 1.33333,0 2,0.66667 2,2 v 57.6875 c 0,1.33333 -0.66667,2 -2,2 H 284.68875 c -1.33333,0 -2,-0.66667 -2,-2 v -57.6875 c 0,-1.33333 0.66667,-2 2,-2 z"
         style="fill:#ffffff;fill-opacity:0.8;fill-rule:nonzero;stroke:#cccccc;stroke-width:1;stroke-linecap:butt;stroke-linejoin:miter;stroke-miterlimit:10;stroke-dasharray:none;stroke-opacity:0.8"
         id="path95747"
         inkscape:connector-curvature="0" /><path
         d="m 286.68875,291.03425 h 20"
         style="fill:none;stroke:#000000;stroke-width:1.5;stroke-linecap:square;stroke-linejoin:round;stroke-miterlimit:10;stroke-dasharray:none;stroke-opacity:1"
         id="path95749"
         inkscape:connector-curvature="0" /><text
         transform="matrix(1,0,0,-1,314.68875,287.53425)"
         style="font-variant:normal;font-weight:normal;font-size:10px;font-family:DejaVuSans;-inkscape-font-specification:DejaVuSans;writing-mode:lr-tb;fill:#000000;fill-opacity:1;fill-rule:nonzero;stroke:none"
         id="text95753"><tspan
           x="0 5.9200001"
           y="0"
           sodipodi:role="line"
           id="tspan95751">xd</tspan></text>
<path
         d="m 286.68875,276.36237 h 20"
         style="fill:none;stroke:#008000;stroke-width:1.5;stroke-linecap:square;stroke-linejoin:round;stroke-miterlimit:10;stroke-dasharray:none;stroke-opacity:1"
         id="path95755"
         inkscape:connector-curvature="0" /><text
         transform="matrix(1,0,0,-1,314.68875,272.86237)"
         style="font-variant:normal;font-weight:normal;font-size:10px;font-family:DejaVuSans;-inkscape-font-specification:DejaVuSans;writing-mode:lr-tb;fill:#000000;fill-opacity:1;fill-rule:nonzero;stroke:none"
         id="text95759"><tspan
           x="0 5.79 11.82 20.200001 26.559999 29.74 32.919998 38.709999 41.66 50.040001 56.400002 59.580002 62.759998 68.550003 76.25 84.629997"
           y="0"
           sodipodi:role="line"
           id="tspan95757">kP=1, kI=1, kD=1</tspan></text>
<path
         d="m 286.68875,261.6905 h 20"
         style="fill:none;stroke:#ff0000;stroke-width:1.5;stroke-linecap:butt;stroke-linejoin:round;stroke-miterlimit:10;stroke-dasharray:5.6, 2.4;stroke-dashoffset:0;stroke-opacity:1"
         id="path95761"
         inkscape:connector-curvature="0" /><text
         transform="matrix(1,0,0,-1,314.68875,258.1905)"
         style="font-variant:normal;font-weight:normal;font-size:10px;font-family:DejaVuSans;-inkscape-font-specification:DejaVuSans;writing-mode:lr-tb;fill:#000000;fill-opacity:1;fill-rule:nonzero;stroke:none"
         id="text95765"><tspan
           x="0 5.79 11.82 20.200001"
           y="0"
           sodipodi:role="line"
           id="tspan95763">kP=2</tspan></text>
<path
         d="m 286.68875,247.01862 h 20"
         style="fill:none;stroke:#0000ff;stroke-width:1.5;stroke-linecap:butt;stroke-linejoin:round;stroke-miterlimit:10;stroke-dasharray:2.2, 2.2;stroke-dashoffset:0;stroke-opacity:1"
         id="path95767"
         inkscape:connector-curvature="0" /><text
         transform="matrix(1,0,0,-1,314.68875,243.51862)"
         style="font-variant:normal;font-weight:normal;font-size:10px;font-family:DejaVuSans;-inkscape-font-specification:DejaVuSans;writing-mode:lr-tb;fill:#000000;fill-opacity:1;fill-rule:nonzero;stroke:none"
         id="text95771"><tspan
           x="0 5.79 11.82 20.200001 26.559999 29.74"
           y="0"
           sodipodi:role="line"
           id="tspan95769">kP=0.5</tspan></text>
</g></g></svg>