<?xml version="1.0" encoding="UTF-8" standalone="no"?>
<!-- Created with Inkscape (http://www.inkscape.org/) -->

<svg
   xmlns:dc="http://purl.org/dc/elements/1.1/"
   xmlns:cc="http://creativecommons.org/ns#"
   xmlns:rdf="http://www.w3.org/1999/02/22-rdf-syntax-ns#"
   xmlns:svg="http://www.w3.org/2000/svg"
   xmlns="http://www.w3.org/2000/svg"
   xmlns:sodipodi="http://sodipodi.sourceforge.net/DTD/sodipodi-0.dtd"
   xmlns:inkscape="http://www.inkscape.org/namespaces/inkscape"
   version="1.1"
   id="svg65543"
   xml:space="preserve"
   width="576"
   height="576"
   viewBox="0 0 576 576"
   sodipodi:docname="pid_coupled.svg"
   inkscape:version="0.92.3 (2405546, 2018-03-11)"><metadata
     id="metadata65549"><rdf:RDF><cc:Work
         rdf:about=""><dc:format>image/svg+xml</dc:format><dc:type
           rdf:resource="http://purl.org/dc/dcmitype/StillImage" /><dc:title></dc:title></cc:Work></rdf:RDF></metadata><defs
     id="defs65547"><clipPath
       clipPathUnits="userSpaceOnUse"
       id="clipPath65573"><path
         d="M -1021,-463 H 1794 V 1233 H -1021 Z"
         id="path65571"
         inkscape:connector-curvature="0" /></clipPath><clipPath
       clipPathUnits="userSpaceOnUse"
       id="clipPath65593"><path
         d="M -1021,-463 H 1794 V 1233 H -1021 Z"
         id="path65591"
         inkscape:connector-curvature="0" /></clipPath><clipPath
       clipPathUnits="userSpaceOnUse"
       id="clipPath65613"><path
         d="M -1021,-463 H 1794 V 1233 H -1021 Z"
         id="path65611"
         inkscape:connector-curvature="0" /></clipPath><clipPath
       clipPathUnits="userSpaceOnUse"
       id="clipPath65663"><path
         d="M -1021,-463 H 1794 V 1233 H -1021 Z"
         id="path65661"
         inkscape:connector-curvature="0" /></clipPath><clipPath
       clipPathUnits="userSpaceOnUse"
       id="clipPath65683"><path
         d="M -1021,-463 H 1794 V 1233 H -1021 Z"
         id="path65681"
         inkscape:connector-curvature="0" /></clipPath><clipPath
       clipPathUnits="userSpaceOnUse"
       id="clipPath65703"><path
         d="M -1021,-463 H 1794 V 1233 H -1021 Z"
         id="path65701"
         inkscape:connector-curvature="0" /></clipPath><clipPath
       clipPathUnits="userSpaceOnUse"
       id="clipPath65743"><path
         d="M 54,47.52 H 388.8 V 380.16 H 54 Z"
         id="path65741"
         inkscape:connector-curvature="0" /></clipPath><clipPath
       clipPathUnits="userSpaceOnUse"
       id="clipPath65753"><path
         d="M 54,47.52 H 388.8 V 380.16 H 54 Z"
         id="path65751"
         inkscape:connector-curvature="0" /></clipPath><clipPath
       clipPathUnits="userSpaceOnUse"
       id="clipPath65763"><path
         d="M 54,47.52 H 388.8 V 380.16 H 54 Z"
         id="path65761"
         inkscape:connector-curvature="0" /></clipPath></defs><sodipodi:namedview
     pagecolor="#ffffff"
     bordercolor="#666666"
     borderopacity="1"
     objecttolerance="10"
     gridtolerance="10"
     guidetolerance="10"
     inkscape:pageopacity="0"
     inkscape:pageshadow="2"
     inkscape:window-width="909"
     inkscape:window-height="480"
     id="namedview65545"
     showgrid="false"
     inkscape:zoom="0.40972222"
     inkscape:cx="288"
     inkscape:cy="288"
     inkscape:window-x="0"
     inkscape:window-y="0"
     inkscape:window-maximized="0"
     inkscape:current-layer="g65551" /><g
     id="g65551"
     inkscape:groupmode="layer"
     inkscape:label="pid_coupled"
     transform="matrix(1.3333333,0,0,-1.3333333,0,576)"><path
       d="M 0,0 H 432 V 432 H 0 Z"
       style="fill:#ffffff;fill-opacity:1;fill-rule:nonzero;stroke:none"
       id="path65553"
       inkscape:connector-curvature="0" /><path
       d="M 54,47.52 H 388.8 V 380.16 H 54 Z"
       style="fill:#ffffff;fill-opacity:1;fill-rule:nonzero;stroke:none"
       id="path65555"
       inkscape:connector-curvature="0" /><path
       d="m 69.974761,47.52 v -3.5"
       style="fill:#000000;fill-opacity:1;fill-rule:nonzero;stroke:#000000;stroke-width:0.80000001;stroke-linecap:butt;stroke-linejoin:round;stroke-miterlimit:10;stroke-dasharray:none;stroke-opacity:1"
       id="path65557"
       inkscape:connector-curvature="0" /><g
       id="g65559"
       transform="translate(57.834136,32.92625)"><text
         transform="matrix(1,0,0,-1,8.3789063,0)"
         style="font-variant:normal;font-weight:normal;font-size:10px;font-family:DejaVuSans;-inkscape-font-specification:DejaVuSans;writing-mode:lr-tb;fill:#000000;fill-opacity:1;fill-rule:nonzero;stroke:none"
         id="text65563"><tspan
           x="0 6.3600001 9.54"
           y="0"
           sodipodi:role="line"
           id="tspan65561">1.5</tspan></text>
<g
         id="g65565"
         transform="scale(0.01)"><g
           id="g65567"><g
             id="g65569"
             clip-path="url(#clipPath65573)"><path
               d="M 106,355 H 732 V 272 H 106 v 83"
               style="fill:#000000;fill-opacity:1;fill-rule:nonzero;stroke:none"
               id="path65575"
               inkscape:connector-curvature="0" /></g></g></g></g><path
       d="m 115.1461,47.52 v -3.5"
       style="fill:#000000;fill-opacity:1;fill-rule:nonzero;stroke:#000000;stroke-width:0.80000001;stroke-linecap:butt;stroke-linejoin:round;stroke-miterlimit:10;stroke-dasharray:none;stroke-opacity:1"
       id="path65577"
       inkscape:connector-curvature="0" /><g
       id="g65579"
       transform="translate(103.00547,32.92625)"><text
         transform="matrix(1,0,0,-1,8.3789063,0)"
         style="font-variant:normal;font-weight:normal;font-size:10px;font-family:DejaVuSans;-inkscape-font-specification:DejaVuSans;writing-mode:lr-tb;fill:#000000;fill-opacity:1;fill-rule:nonzero;stroke:none"
         id="text65583"><tspan
           x="0 6.3600001 9.54"
           y="0"
           sodipodi:role="line"
           id="tspan65581">1.0</tspan></text>
<g
         id="g65585"
         transform="scale(0.01)"><g
           id="g65587"><g
             id="g65589"
             clip-path="url(#clipPath65593)"><path
               d="M 106,355 H 732 V 272 H 106 v 83"
               style="fill:#000000;fill-opacity:1;fill-rule:nonzero;stroke:none"
               id="path65595"
               inkscape:connector-curvature="0" /></g></g></g></g><path
       d="m 160.31744,47.52 v -3.5"
       style="fill:#000000;fill-opacity:1;fill-rule:nonzero;stroke:#000000;stroke-width:0.80000001;stroke-linecap:butt;stroke-linejoin:round;stroke-miterlimit:10;stroke-dasharray:none;stroke-opacity:1"
       id="path65597"
       inkscape:connector-curvature="0" /><g
       id="g65599"
       transform="translate(148.17681,32.92625)"><text
         transform="matrix(1,0,0,-1,8.3789063,0)"
         style="font-variant:normal;font-weight:normal;font-size:10px;font-family:DejaVuSans;-inkscape-font-specification:DejaVuSans;writing-mode:lr-tb;fill:#000000;fill-opacity:1;fill-rule:nonzero;stroke:none"
         id="text65603"><tspan
           x="0 6.3600001 9.54"
           y="0"
           sodipodi:role="line"
           id="tspan65601">0.5</tspan></text>
<g
         id="g65605"
         transform="scale(0.01)"><g
           id="g65607"><g
             id="g65609"
             clip-path="url(#clipPath65613)"><path
               d="M 106,355 H 732 V 272 H 106 v 83"
               style="fill:#000000;fill-opacity:1;fill-rule:nonzero;stroke:none"
               id="path65615"
               inkscape:connector-curvature="0" /></g></g></g></g><path
       d="m 205.48877,47.52 v -3.5"
       style="fill:#000000;fill-opacity:1;fill-rule:nonzero;stroke:#000000;stroke-width:0.80000001;stroke-linecap:butt;stroke-linejoin:round;stroke-miterlimit:10;stroke-dasharray:none;stroke-opacity:1"
       id="path65617"
       inkscape:connector-curvature="0" /><text
       transform="matrix(1,0,0,-1,197.53565,32.92625)"
       style="font-variant:normal;font-weight:normal;font-size:10px;font-family:DejaVuSans;-inkscape-font-specification:DejaVuSans;writing-mode:lr-tb;fill:#000000;fill-opacity:1;fill-rule:nonzero;stroke:none"
       id="text65621"><tspan
         x="0 6.3600001 9.54"
         y="0"
         sodipodi:role="line"
         id="tspan65619">0.0</tspan></text>
<path
       d="m 250.66011,47.52 v -3.5"
       style="fill:#000000;fill-opacity:1;fill-rule:nonzero;stroke:#000000;stroke-width:0.80000001;stroke-linecap:butt;stroke-linejoin:round;stroke-miterlimit:10;stroke-dasharray:none;stroke-opacity:1"
       id="path65623"
       inkscape:connector-curvature="0" /><text
       transform="matrix(1,0,0,-1,242.70699,32.92625)"
       style="font-variant:normal;font-weight:normal;font-size:10px;font-family:DejaVuSans;-inkscape-font-specification:DejaVuSans;writing-mode:lr-tb;fill:#000000;fill-opacity:1;fill-rule:nonzero;stroke:none"
       id="text65627"><tspan
         x="0 6.3600001 9.54"
         y="0"
         sodipodi:role="line"
         id="tspan65625">0.5</tspan></text>
<path
       d="m 295.83145,47.52 v -3.5"
       style="fill:#000000;fill-opacity:1;fill-rule:nonzero;stroke:#000000;stroke-width:0.80000001;stroke-linecap:butt;stroke-linejoin:round;stroke-miterlimit:10;stroke-dasharray:none;stroke-opacity:1"
       id="path65629"
       inkscape:connector-curvature="0" /><text
       transform="matrix(1,0,0,-1,287.87832,32.92625)"
       style="font-variant:normal;font-weight:normal;font-size:10px;font-family:DejaVuSans;-inkscape-font-specification:DejaVuSans;writing-mode:lr-tb;fill:#000000;fill-opacity:1;fill-rule:nonzero;stroke:none"
       id="text65633"><tspan
         x="0 6.3600001 9.54"
         y="0"
         sodipodi:role="line"
         id="tspan65631">1.0</tspan></text>
<path
       d="m 341.00279,47.52 v -3.5"
       style="fill:#000000;fill-opacity:1;fill-rule:nonzero;stroke:#000000;stroke-width:0.80000001;stroke-linecap:butt;stroke-linejoin:round;stroke-miterlimit:10;stroke-dasharray:none;stroke-opacity:1"
       id="path65635"
       inkscape:connector-curvature="0" /><text
       transform="matrix(1,0,0,-1,333.04966,32.92625)"
       style="font-variant:normal;font-weight:normal;font-size:10px;font-family:DejaVuSans;-inkscape-font-specification:DejaVuSans;writing-mode:lr-tb;fill:#000000;fill-opacity:1;fill-rule:nonzero;stroke:none"
       id="text65639"><tspan
         x="0 6.3600001 9.54"
         y="0"
         sodipodi:role="line"
         id="tspan65637">1.5</tspan></text>
<path
       d="m 386.17413,47.52 v -3.5"
       style="fill:#000000;fill-opacity:1;fill-rule:nonzero;stroke:#000000;stroke-width:0.80000001;stroke-linecap:butt;stroke-linejoin:round;stroke-miterlimit:10;stroke-dasharray:none;stroke-opacity:1"
       id="path65641"
       inkscape:connector-curvature="0" /><text
       transform="matrix(1,0,0,-1,378.221,32.92625)"
       style="font-variant:normal;font-weight:normal;font-size:10px;font-family:DejaVuSans;-inkscape-font-specification:DejaVuSans;writing-mode:lr-tb;fill:#000000;fill-opacity:1;fill-rule:nonzero;stroke:none"
       id="text65645"><tspan
         x="0 6.3600001 9.54"
         y="0"
         sodipodi:role="line"
         id="tspan65643">2.0</tspan></text>
<path
       d="M 54,76.693097 H 50.5"
       style="fill:#000000;fill-opacity:1;fill-rule:nonzero;stroke:#000000;stroke-width:0.80000001;stroke-linecap:butt;stroke-linejoin:round;stroke-miterlimit:10;stroke-dasharray:none;stroke-opacity:1"
       id="path65647"
       inkscape:connector-curvature="0" /><g
       id="g65649"
       transform="translate(22.71875,72.896222)"><text
         transform="matrix(1,0,0,-1,8.3789063,0)"
         style="font-variant:normal;font-weight:normal;font-size:10px;font-family:DejaVuSans;-inkscape-font-specification:DejaVuSans;writing-mode:lr-tb;fill:#000000;fill-opacity:1;fill-rule:nonzero;stroke:none"
         id="text65653"><tspan
           x="0 6.3600001 9.54"
           y="0"
           sodipodi:role="line"
           id="tspan65651">1.5</tspan></text>
<g
         id="g65655"
         transform="scale(0.01)"><g
           id="g65657"><g
             id="g65659"
             clip-path="url(#clipPath65663)"><path
               d="M 106,355 H 732 V 272 H 106 v 83"
               style="fill:#000000;fill-opacity:1;fill-rule:nonzero;stroke:none"
               id="path65665"
               inkscape:connector-curvature="0" /></g></g></g></g><path
       d="M 54,117.25077 H 50.5"
       style="fill:#000000;fill-opacity:1;fill-rule:nonzero;stroke:#000000;stroke-width:0.80000001;stroke-linecap:butt;stroke-linejoin:round;stroke-miterlimit:10;stroke-dasharray:none;stroke-opacity:1"
       id="path65667"
       inkscape:connector-curvature="0" /><g
       id="g65669"
       transform="translate(22.71875,113.4539)"><text
         transform="matrix(1,0,0,-1,8.3789063,0)"
         style="font-variant:normal;font-weight:normal;font-size:10px;font-family:DejaVuSans;-inkscape-font-specification:DejaVuSans;writing-mode:lr-tb;fill:#000000;fill-opacity:1;fill-rule:nonzero;stroke:none"
         id="text65673"><tspan
           x="0 6.3600001 9.54"
           y="0"
           sodipodi:role="line"
           id="tspan65671">1.0</tspan></text>
<g
         id="g65675"
         transform="scale(0.01)"><g
           id="g65677"><g
             id="g65679"
             clip-path="url(#clipPath65683)"><path
               d="M 106,355 H 732 V 272 H 106 v 83"
               style="fill:#000000;fill-opacity:1;fill-rule:nonzero;stroke:none"
               id="path65685"
               inkscape:connector-curvature="0" /></g></g></g></g><path
       d="M 54,157.80845 H 50.5"
       style="fill:#000000;fill-opacity:1;fill-rule:nonzero;stroke:#000000;stroke-width:0.80000001;stroke-linecap:butt;stroke-linejoin:round;stroke-miterlimit:10;stroke-dasharray:none;stroke-opacity:1"
       id="path65687"
       inkscape:connector-curvature="0" /><g
       id="g65689"
       transform="translate(22.71875,154.01157)"><text
         transform="matrix(1,0,0,-1,8.3789063,0)"
         style="font-variant:normal;font-weight:normal;font-size:10px;font-family:DejaVuSans;-inkscape-font-specification:DejaVuSans;writing-mode:lr-tb;fill:#000000;fill-opacity:1;fill-rule:nonzero;stroke:none"
         id="text65693"><tspan
           x="0 6.3600001 9.54"
           y="0"
           sodipodi:role="line"
           id="tspan65691">0.5</tspan></text>
<g
         id="g65695"
         transform="scale(0.01)"><g
           id="g65697"><g
             id="g65699"
             clip-path="url(#clipPath65703)"><path
               d="M 106,355 H 732 V 272 H 106 v 83"
               style="fill:#000000;fill-opacity:1;fill-rule:nonzero;stroke:none"
               id="path65705"
               inkscape:connector-curvature="0" /></g></g></g></g><path
       d="M 54,198.36612 H 50.5"
       style="fill:#000000;fill-opacity:1;fill-rule:nonzero;stroke:#000000;stroke-width:0.80000001;stroke-linecap:butt;stroke-linejoin:round;stroke-miterlimit:10;stroke-dasharray:none;stroke-opacity:1"
       id="path65707"
       inkscape:connector-curvature="0" /><text
       transform="matrix(1,0,0,-1,31.09375,194.56925)"
       style="font-variant:normal;font-weight:normal;font-size:10px;font-family:DejaVuSans;-inkscape-font-specification:DejaVuSans;writing-mode:lr-tb;fill:#000000;fill-opacity:1;fill-rule:nonzero;stroke:none"
       id="text65711"><tspan
         x="0 6.3600001 9.54"
         y="0"
         sodipodi:role="line"
         id="tspan65709">0.0</tspan></text>
<path
       d="M 54,238.9238 H 50.5"
       style="fill:#000000;fill-opacity:1;fill-rule:nonzero;stroke:#000000;stroke-width:0.80000001;stroke-linecap:butt;stroke-linejoin:round;stroke-miterlimit:10;stroke-dasharray:none;stroke-opacity:1"
       id="path65713"
       inkscape:connector-curvature="0" /><text
       transform="matrix(1,0,0,-1,31.09375,235.12693)"
       style="font-variant:normal;font-weight:normal;font-size:10px;font-family:DejaVuSans;-inkscape-font-specification:DejaVuSans;writing-mode:lr-tb;fill:#000000;fill-opacity:1;fill-rule:nonzero;stroke:none"
       id="text65717"><tspan
         x="0 6.3600001 9.54"
         y="0"
         sodipodi:role="line"
         id="tspan65715">0.5</tspan></text>
<path
       d="M 54,279.48148 H 50.5"
       style="fill:#000000;fill-opacity:1;fill-rule:nonzero;stroke:#000000;stroke-width:0.80000001;stroke-linecap:butt;stroke-linejoin:round;stroke-miterlimit:10;stroke-dasharray:none;stroke-opacity:1"
       id="path65719"
       inkscape:connector-curvature="0" /><text
       transform="matrix(1,0,0,-1,31.09375,275.6846)"
       style="font-variant:normal;font-weight:normal;font-size:10px;font-family:DejaVuSans;-inkscape-font-specification:DejaVuSans;writing-mode:lr-tb;fill:#000000;fill-opacity:1;fill-rule:nonzero;stroke:none"
       id="text65723"><tspan
         x="0 6.3600001 9.54"
         y="0"
         sodipodi:role="line"
         id="tspan65721">1.0</tspan></text>
<path
       d="M 54,320.03915 H 50.5"
       style="fill:#000000;fill-opacity:1;fill-rule:nonzero;stroke:#000000;stroke-width:0.80000001;stroke-linecap:butt;stroke-linejoin:round;stroke-miterlimit:10;stroke-dasharray:none;stroke-opacity:1"
       id="path65725"
       inkscape:connector-curvature="0" /><text
       transform="matrix(1,0,0,-1,31.09375,316.24228)"
       style="font-variant:normal;font-weight:normal;font-size:10px;font-family:DejaVuSans;-inkscape-font-specification:DejaVuSans;writing-mode:lr-tb;fill:#000000;fill-opacity:1;fill-rule:nonzero;stroke:none"
       id="text65729"><tspan
         x="0 6.3600001 9.54"
         y="0"
         sodipodi:role="line"
         id="tspan65727">1.5</tspan></text>
<path
       d="M 54,360.59683 H 50.5"
       style="fill:#000000;fill-opacity:1;fill-rule:nonzero;stroke:#000000;stroke-width:0.80000001;stroke-linecap:butt;stroke-linejoin:round;stroke-miterlimit:10;stroke-dasharray:none;stroke-opacity:1"
       id="path65731"
       inkscape:connector-curvature="0" /><text
       transform="matrix(1,0,0,-1,31.09375,356.79995)"
       style="font-variant:normal;font-weight:normal;font-size:10px;font-family:DejaVuSans;-inkscape-font-specification:DejaVuSans;writing-mode:lr-tb;fill:#000000;fill-opacity:1;fill-rule:nonzero;stroke:none"
       id="text65735"><tspan
         x="0 6.3600001 9.54"
         y="0"
         sodipodi:role="line"
         id="tspan65733">2.0</tspan></text>
<g
       id="g65737"><g
         id="g65739"
         clip-path="url(#clipPath65743)"><path
           d="m 295.83145,198.36612 -6.47066,2.20705 -7.80891,2.43517 -7.35819,2.06855 -7.09246,1.77435 -6.8955,1.50416 -6.52992,1.20894 -6.46999,0.97529 -6.3335,0.72287 -5.75959,0.44143 -5.54668,0.21343 -5.30255,-0.008 -5.03416,-0.21949 -4.74743,-0.41675 -4.733,-0.64345 -4.38104,-0.82718 -4.02323,-0.98745 -3.66378,-1.12355 -3.30631,-1.23536 -3.12704,-1.40831 -2.73877,-1.4797 -2.36292,-1.52463 -2.00196,-1.54473 -1.65794,-1.5419 -1.40121,-1.60633 -1.06007,-1.55756 -0.74382,-1.48936 -0.45323,-1.4045 -0.18875,-1.30571 0.0495,-1.19564 0.26175,-1.07682 0.47835,-1.00078 0.65716,-0.85663 0.85409,-0.74363 1.04255,-0.60665 1.21616,-0.44781 1.36879,-0.27028 1.55806,-0.0772 1.65385,0.14027 1.77292,0.37634 1.78309,0.60298 1.80433,0.84303 1.76792,1.07247 1.67312,1.27599 1.52407,1.43857 1.36023,1.58653 1.16586,1.70302 0.9324,1.75928 0.67483,1.74722 0.41474,1.68656 0.16437,1.5987 0.0842,0.489 0.0453,-0.0173 0.37257,-0.36725 1.11749,-0.99833 1.36169,-0.92566 v 0"
           style="fill:none;stroke:#000000;stroke-width:1.5;stroke-linecap:square;stroke-linejoin:round;stroke-miterlimit:10;stroke-dasharray:none;stroke-opacity:1"
           id="path65745"
           inkscape:connector-curvature="0" /></g></g><g
       id="g65747"><g
         id="g65749"
         clip-path="url(#clipPath65753)"><path
           d="m 295.83145,198.36612 -6.68037,2.28775 -8.68569,2.75416 -8.59103,2.49906 -8.62099,2.27929 -8.09307,1.92174 -7.82411,1.64463 -7.99405,1.44768 -7.42826,1.11645 -6.7743,0.80798 -6.67639,0.58015 -6.52032,0.33629 -5.74685,0.0847 -5.53642,-0.13097 -5.29222,-0.34822 -5.01756,-0.564 -4.2585,-0.68848 -3.99659,-0.85453 -3.71948,-1.01371 -3.4294,-1.16444 -3.12855,-1.30526 -2.8191,-1.4349 -2.24086,-1.37435 -1.98816,-1.45771 -1.73366,-1.53121 -1.47863,-1.59438 -1.2243,-1.64689 -0.97187,-1.68845 -0.7225,-1.71889 -0.4773,-1.7381 -0.23731,-1.74605 -0.004,-1.74282 0.223,-1.72856 0.44148,-1.70344 0.65106,-1.6678 0.85093,-1.62194 1.18327,-1.75772 1.40733,-1.67412 1.61473,-1.57814 1.80471,-1.47073 2.20605,-1.49555 2.39273,-1.33738 2.55329,-1.1682 2.68738,-0.9898 2.79484,-0.80403 2.87573,-0.61277 3.22533,-0.44889 3.25698,-0.21097 3.25522,0.0264 3.22126,0.26067 3.15662,0.48921 3.06303,0.70965 2.94245,0.91974 2.79703,1.11738 2.62908,1.3007 2.44107,1.46801 2.23556,1.61783 2.01521,1.74894 1.78274,1.86033 1.54086,1.95124 1.29236,2.02116 1.03994,2.0698 0.78628,2.09712 0.53396,2.10333 0.28551,2.08881 0.0433,2.05421 -0.19041,2.00033 -0.41356,1.9282 -0.62419,1.83897 -0.82059,1.73397 -1.00122,1.61468 -1.16476,1.48263 -1.43573,1.45385 -1.58379,1.27154 -1.70607,1.07975 -1.80198,0.88107 -1.87125,0.67807 -1.91398,0.47334 -2.09137,0.28275 -2.07849,0.0477 -2.03469,-0.17998 -1.96171,-0.39723 -1.86167,-0.60136 -1.73701,-0.78987 -1.59043,-0.96065 -1.42481,-1.11181 -1.24324,-1.24191 -1.04892,-1.34978 -0.84509,-1.43462 -0.63505,-1.49602 -0.42206,-1.53389 -0.20929,-1.54848 0.009,-1.65791 0.24374,-1.62135 0.46724,-1.55921 0.6759,-1.47344 0.86677,-1.36635 1.03732,-1.24047 1.27516,-1.17129 1.41549,-0.99254 1.52462,-0.80188 1.60163,-0.60341 1.75688,-0.42077 1.76901,-0.19127 1.74371,0.0328 1.68307,0.24683 1.58983,0.44658 1.55437,0.67315 1.38575,0.85275 1.19218,1.00357 0.9794,1.12319 0.75339,1.21004 0.52021,1.26346 0.28576,1.28359 0.0558,1.27139 -0.16439,1.22858 -0.36987,1.15753 -0.59444,1.12013 -0.77649,0.98638 -0.92792,0.83168 -1.10698,0.6927 -1.19759,0.49074 -1.31266,0.29258 -1.319,0.0645 -1.27983,-0.15456 -1.25599,-0.38044 -1.12428,-0.57871 -0.9573,-0.74551 -0.76319,-0.87641 -0.55065,-0.9685 -0.32856,-1.02051 -0.10567,-1.03266 0.12004,-1.05335 0.33877,-0.98458 0.53207,-0.88056 0.72827,-0.77795 0.90263,-0.62986 0.99738,-0.42646 1.08251,-0.22035 1.06929,0.004 1.03992,0.22553 0.91425,0.42296 0.74618,0.58274 0.36203,0.41911 v 0"
           style="fill:none;stroke:#008000;stroke-width:1.5;stroke-linecap:butt;stroke-linejoin:round;stroke-miterlimit:10;stroke-dasharray:5.6, 2.4;stroke-dashoffset:0;stroke-opacity:1"
           id="path65755"
           inkscape:connector-curvature="0" /></g></g><g
       id="g65757"><g
         id="g65759"
         clip-path="url(#clipPath65763)"><path
           d="m 295.83145,198.36612 -7.10394,2.43375 -9.27811,2.95567 -9.35879,2.75609 -9.58727,2.59241 -9.13878,2.24891 -8.98064,1.98997 -8.58189,1.6868 -8.81456,1.49955 -8.1309,1.15803 -8.16489,0.92642 -7.31527,0.60974 -7.2276,0.37653 -6.30779,0.12487 -6.15973,-0.0832 -5.97603,-0.29935 -5.75782,-0.5215 -4.83299,-0.64162 -4.61926,-0.81587 -4.38522,-0.98999 -4.13195,-1.1627 -3.86058,-1.33267 -3.57231,-1.49862 -2.82068,-1.41261 -2.58838,-1.52657 -2.34779,-1.63581 -2.0997,-1.73966 -1.84495,-1.83754 -1.58435,-1.92883 -1.31875,-2.01297 -0.89308,-1.73624 -0.70386,-1.78463 -0.51315,-1.8281 -0.3214,-1.86641 -0.12907,-1.89937 0.0634,-1.92681 0.25563,-1.94856 0.4471,-1.96446 0.78754,-2.36995 1.05863,-2.37373 1.3259,-2.36683 1.58846,-2.34909 1.8454,-2.32045 2.09584,-2.28084 2.33893,-2.2303 2.57382,-2.16889 2.79968,-2.09673 3.01573,-2.01396 3.77728,-2.2312 4.03887,-2.08841 4.28114,-1.93018 4.50288,-1.75721 4.70298,-1.57027 4.88042,-1.37025 5.0343,-1.1581 5.16378,-0.9349 5.26816,-0.70175 5.34686,-0.45986 5.39941,-0.2105 5.42542,0.045 4.65079,0.24558 4.63334,0.439 4.59898,0.6338 4.54775,0.8292 4.47978,1.02435 4.39525,1.21849 4.29441,1.41076 4.17752,1.60033 4.04495,1.78642 3.89712,1.96818 3.73449,2.14483 3.55757,2.31555 3.36695,2.47959 3.16326,2.6362 2.94714,2.78462 2.71938,2.92417 2.48068,3.05415 1.87761,2.63708 1.69945,2.71406 1.51634,2.7845 1.3287,2.8482 1.137,2.90487 0.94173,2.95429 0.74334,2.99627 0.54233,3.03059 0.3392,3.0571 0.13447,3.07565 -0.0714,3.0861 -0.27778,3.08835 -0.48424,3.08231 -0.69023,3.06792 -0.89522,3.04514 -1.09867,3.01395 -1.30006,2.97436 -1.49887,2.92639 -1.69456,2.87011 -1.88665,2.80559 -2.07458,2.73291 -2.25789,2.65223 -2.43606,2.56366 -2.60862,2.4674 -2.77508,2.36361 -2.93502,2.25254 -3.08794,2.1344 -3.89694,2.39578 -4.09285,2.20465 -4.27436,2.00293 -4.44068,1.79128 -4.59112,1.57045 -4.725,1.34116 -4.84173,1.10426 -4.94076,0.86055 -5.02161,0.61095 -5.08387,0.35635 -5.12718,0.0977 -5.15125,-0.1641 -5.15587,-0.42799 -5.14092,-0.69299 -4.25848,-0.78002 -4.22305,-0.96364 -4.17627,-1.1463 -4.1182,-1.32744 -4.04892,-1.50663 -3.96855,-1.68332 -3.87726,-1.85705 -3.77519,-2.0273 -3.66258,-2.19362 -3.53964,-2.3555 -3.40664,-2.51249 -3.26388,-2.66412 -3.11166,-2.80995 -2.95034,-2.94954 -2.78029,-3.08245 -2.60188,-3.20829 -2.41557,-3.32668 -2.22176,-3.4372 -2.02094,-3.53953 -1.81358,-3.63332 -1.60021,-3.71825 -1.38133,-3.79402 -1.15747,-3.86037 -0.92924,-3.91703 -0.69715,-3.96378 -0.46184,-4.00042 -0.22386,-4.02678 0.0161,-4.0427 0.25756,-4.04805 0.49978,-4.04274 0.74216,-4.02671 0.98406,-3.99991 1.22484,-3.96233 1.46388,-3.91399 1.70052,-3.85493 1.93413,-3.78522 2.16408,-3.70497 2.38973,-3.61433 2.61047,-3.51344 2.82569,-3.40248 3.03478,-3.28171 3.23717,-3.15132 3.43226,-3.01163 3.6195,-2.86292 3.79836,-2.70553 3.9683,-2.53979 4.12882,-2.36609 4.27945,-2.18484 4.41971,-1.99644 4.54918,-1.80137 4.66745,-1.60008 4.77412,-1.39304 4.86886,-1.18078 4.95132,-0.96382 5.02122,-0.7427 5.0783,-0.51798 5.12231,-0.2902 5.15305,-0.06 5.17038,0.1721 5.17414,0.40545 5.16424,0.63945 5.14063,0.87348 5.10326,1.10695 5.05217,1.33919 4.98737,1.56961 4.90898,1.79758 4.81709,2.02247 4.71187,2.24367 4.59351,2.46055 4.46222,2.67254 4.31828,2.87899 4.16199,3.07937 3.99366,3.27307 3.81368,3.45952 3.62244,3.63821 3.42036,3.80858 3.20791,3.97013 2.9856,4.12237 2.75393,4.26482 2.51344,4.39705 2.26475,4.5186 1.62759,3.695 1.45992,3.7599 1.28888,3.81883 1.11478,3.87164 0.93787,3.91822 0.75845,3.95845 0.57679,3.99223 0.3932,4.01946 0.20797,4.04005 0.0214,4.05393 -0.16615,4.06107 -0.35442,4.06136 -0.5431,4.05481 -0.73186,4.04138 -0.92037,4.02103 -1.10832,3.99378 -1.29539,3.95963 -1.48126,3.91859 -1.66561,3.87071 -1.84812,3.81601 -2.02846,3.75455 -2.20632,3.68641 -2.38141,3.61165 -2.55338,3.53036 -2.72194,3.44265 -2.88681,3.34862 -3.04764,3.24841 -3.20418,3.14213 -3.35614,3.02995 -3.5032,2.91201 -3.64514,2.78848 -3.78164,2.65955 -3.91249,2.52538 -4.03739,2.3862 -4.15613,2.2422 -4.26846,2.09359 -4.37418,1.9406 -4.47303,1.78347 -4.56486,1.62244 -4.64943,1.45776 -4.72658,1.28968 -4.79616,1.11848 -4.85796,0.94442 -4.91188,0.76779 -4.95776,0.58885 -4.9955,0.40792 -5.02498,0.22527 -5.04609,0.0412 -5.05877,-0.14394 -5.06297,-0.32991 -5.05858,-0.51636 -5.04563,-0.70299 -5.02404,-0.88948 -4.99383,-1.07552 -4.955,-1.26079 -4.90756,-1.44497 -4.85155,-1.62775 -4.78701,-1.80881 -4.71403,-1.98782 -4.63264,-2.16448 -4.54299,-2.33849 -4.44513,-2.50951 -4.33923,-2.67725 -4.22538,-2.84143 -4.10378,-3.0017 -3.97455,-3.15783 -3.83789,-3.30947 -3.69397,-3.4564 -3.54303,-3.59829 -3.385255,-3.7349 -3.220885,-3.86598 -3.050164,-3.99126 -2.873345,-4.11048 -2.690695,-4.22344 -2.502488,-4.3299 -2.309016,-4.42963 -2.110576,-4.52244 -1.907475,-4.60813 -1.700035,-4.68652 -1.48858,-4.75742 -1.273447,-4.82068 -1.05498,-4.87615 -0.83353,-4.9237 -0.609456,-4.96319 -0.383122,-4.99453 -0.1549,-5.01758 0.07484,-5.03231 0.305705,-5.03861 0.537322,-5.03643 0.769299,-5.02573 1.001248,-5.00648 1.232773,-4.97867 1.463483,-4.94229 1.69298,-4.89736 1.920873,-4.84391 2.146763,-4.78197 2.370262,-4.71161 2.590975,-4.63291 2.808515,-4.54592 3.022497,-4.45079 3.232538,-4.3476 3.438261,-4.23649 3.639295,-4.11761 3.83528,-3.99111 4.02584,-3.85717 4.21065,-3.715956 4.38933,-3.567691 4.56159,-3.412572 4.72705,-3.250824 4.88544,-3.082687 5.03642,-2.908408 5.17972,-2.728248 5.31504,-2.542478 5.4421,-2.351382 5.56066,-2.155253 5.67047,-1.954394 5.77127,-1.74912 5.86287,-1.539752 5.94505,-1.326622 6.01763,-1.110069 6.08043,-0.89044 6.13327,-0.66809 6.17604,-0.443379 6.2086,-0.216674 6.23081,0.01165 6.24262,0.241223 6.24394,0.471658 6.23468,0.702571 6.21484,0.933574 6.18437,1.164279 6.14327,1.394293 6.09155,1.623223 6.02924,1.850675 5.95639,2.07626 5.87306,2.299582 5.77934,2.520252 5.67532,2.737885 5.56113,2.952092 5.4369,3.162495 5.3028,3.368716 5.15898,3.570383 5.00564,3.767129 4.843,3.958599 4.67126,4.14443 4.49068,4.32429 4.30151,4.49782 4.10401,4.66472 3.8985,4.82466 3.68525,4.97731 3.4646,5.12241 3.23687,5.25963 3.00241,5.38874 2.76158,5.50944 2.51476,5.6215 2.26232,5.72467 2.00466,5.81873 1.74221,5.90347 1.47535,5.97871 1.20452,6.04425 0.93018,6.09994 0.65275,6.14561 0.37268,6.18116 0.0905,6.20644 -0.1935,6.22137 -0.47867,6.22586 -0.76462,6.21987 -1.05083,6.2033 -1.33686,6.17617 -1.62218,6.13844 -1.90635,6.09012 -2.18885,6.03124 -2.46919,5.96184 -2.74692,5.88197 -3.02152,5.79171 -3.29252,5.69116 -3.55945,5.58043 -3.82182,5.45966 -4.07917,5.32899 -4.33105,5.18858 -4.57699,5.03862 -4.81652,4.87931 -5.04925,4.71088 -5.2747,4.53354 -5.49247,4.34756 -5.70217,4.1532 -5.90336,3.95075 -6.09567,3.74049 -6.27874,3.52274 -6.45219,3.29784 -6.61569,3.06611 -6.76889,2.82792 -6.91148,2.58363 -7.04318,2.33363 -7.16368,2.07829 -7.27273,1.81802 -7.37008,1.55325 -7.45549,1.28438 -7.52877,1.01186 -1.8922,0.21 v 0"
           style="fill:none;stroke:#ff0000;stroke-width:1.5;stroke-linecap:butt;stroke-linejoin:round;stroke-miterlimit:10;stroke-dasharray:2.2, 2.2;stroke-dashoffset:0;stroke-opacity:1"
           id="path65765"
           inkscape:connector-curvature="0" /></g></g><g
       id="g65767"><path
         d="M 54,47.52 V 380.16"
         style="fill:none;stroke:#000000;stroke-width:0.80000001;stroke-linecap:square;stroke-linejoin:miter;stroke-miterlimit:10;stroke-dasharray:none;stroke-opacity:1"
         id="path65769"
         inkscape:connector-curvature="0" /><path
         d="M 388.8,47.52 V 380.16"
         style="fill:none;stroke:#000000;stroke-width:0.80000001;stroke-linecap:square;stroke-linejoin:miter;stroke-miterlimit:10;stroke-dasharray:none;stroke-opacity:1"
         id="path65771"
         inkscape:connector-curvature="0" /><path
         d="M 54,47.52 H 388.8"
         style="fill:none;stroke:#000000;stroke-width:0.80000001;stroke-linecap:square;stroke-linejoin:miter;stroke-miterlimit:10;stroke-dasharray:none;stroke-opacity:1"
         id="path65773"
         inkscape:connector-curvature="0" /><path
         d="M 54,380.16 H 388.8"
         style="fill:none;stroke:#000000;stroke-width:0.80000001;stroke-linecap:square;stroke-linejoin:miter;stroke-miterlimit:10;stroke-dasharray:none;stroke-opacity:1"
         id="path65775"
         inkscape:connector-curvature="0" /><path
         d="m 61,328.14438 h 69.78125 c 1.33333,0 2,0.66666 2,2 V 373.16 c 0,1.33333 -0.66667,2 -2,2 H 61 c -1.333333,0 -2,-0.66667 -2,-2 v -43.01562 c 0,-1.33334 0.666667,-2 2,-2 z"
         style="fill:#ffffff;fill-opacity:0.8;fill-rule:nonzero;stroke:#cccccc;stroke-width:1;stroke-linecap:butt;stroke-linejoin:miter;stroke-miterlimit:10;stroke-dasharray:none;stroke-opacity:0.8"
         id="path65777"
         inkscape:connector-curvature="0" /><path
         d="M 63,367.06625 H 83"
         style="fill:none;stroke:#000000;stroke-width:1.5;stroke-linecap:square;stroke-linejoin:round;stroke-miterlimit:10;stroke-dasharray:none;stroke-opacity:1"
         id="path65779"
         inkscape:connector-curvature="0" /><text
         transform="matrix(1,0,0,-1,91,363.56625)"
         style="font-variant:normal;font-weight:normal;font-size:10px;font-family:DejaVuSans;-inkscape-font-specification:DejaVuSans;writing-mode:lr-tb;fill:#000000;fill-opacity:1;fill-rule:nonzero;stroke:none"
         id="text65783"><tspan
           x="0 5.79 13.49 21.870001"
           y="0"
           sodipodi:role="line"
           id="tspan65781">kD=2</tspan></text>
<path
         d="M 63,352.39437 H 83"
         style="fill:none;stroke:#008000;stroke-width:1.5;stroke-linecap:butt;stroke-linejoin:round;stroke-miterlimit:10;stroke-dasharray:5.6, 2.4;stroke-dashoffset:0;stroke-opacity:1"
         id="path65785"
         inkscape:connector-curvature="0" /><text
         transform="matrix(1,0,0,-1,91,348.89437)"
         style="font-variant:normal;font-weight:normal;font-size:10px;font-family:DejaVuSans;-inkscape-font-specification:DejaVuSans;writing-mode:lr-tb;fill:#000000;fill-opacity:1;fill-rule:nonzero;stroke:none"
         id="text65789"><tspan
           x="0 5.79 13.49 21.870001"
           y="0"
           sodipodi:role="line"
           id="tspan65787">kD=1</tspan></text>
<path
         d="M 63,337.7225 H 83"
         style="fill:none;stroke:#ff0000;stroke-width:1.5;stroke-linecap:butt;stroke-linejoin:round;stroke-miterlimit:10;stroke-dasharray:2.2, 2.2;stroke-dashoffset:0;stroke-opacity:1"
         id="path65791"
         inkscape:connector-curvature="0" /><text
         transform="matrix(1,0,0,-1,91,334.2225)"
         style="font-variant:normal;font-weight:normal;font-size:10px;font-family:DejaVuSans;-inkscape-font-specification:DejaVuSans;writing-mode:lr-tb;fill:#000000;fill-opacity:1;fill-rule:nonzero;stroke:none"
         id="text65795"><tspan
           x="0 5.79 13.49 21.870001 28.23 31.41"
           y="0"
           sodipodi:role="line"
           id="tspan65793">kD=0.5</tspan></text>
</g></g></svg>