<?xml version="1.0" encoding="UTF-8" standalone="no"?>
<!-- Created with Inkscape (http://www.inkscape.org/) -->

<svg
   xmlns:dc="http://purl.org/dc/elements/1.1/"
   xmlns:cc="http://creativecommons.org/ns#"
   xmlns:rdf="http://www.w3.org/1999/02/22-rdf-syntax-ns#"
   xmlns:svg="http://www.w3.org/2000/svg"
   xmlns="http://www.w3.org/2000/svg"
   xmlns:sodipodi="http://sodipodi.sourceforge.net/DTD/sodipodi-0.dtd"
   xmlns:inkscape="http://www.inkscape.org/namespaces/inkscape"
   version="1.1"
   id="svg90944"
   xml:space="preserve"
   width="614.40002"
   height="460.79999"
   viewBox="0 0 614.40002 460.79999"
   sodipodi:docname="pid_kd.svg"
   inkscape:version="0.92.3 (2405546, 2018-03-11)"><metadata
     id="metadata90950"><rdf:RDF><cc:Work
         rdf:about=""><dc:format>image/svg+xml</dc:format><dc:type
           rdf:resource="http://purl.org/dc/dcmitype/StillImage" /><dc:title></dc:title></cc:Work></rdf:RDF></metadata><defs
     id="defs90948"><clipPath
       clipPathUnits="userSpaceOnUse"
       id="clipPath91048"><path
         d="M 57.6,38.016 H 414.72 V 304.128 H 57.6 Z"
         id="path91046"
         inkscape:connector-curvature="0" /></clipPath><clipPath
       clipPathUnits="userSpaceOnUse"
       id="clipPath91058"><path
         d="M 57.6,38.016 H 414.72 V 304.128 H 57.6 Z"
         id="path91056"
         inkscape:connector-curvature="0" /></clipPath><clipPath
       clipPathUnits="userSpaceOnUse"
       id="clipPath91068"><path
         d="M 57.6,38.016 H 414.72 V 304.128 H 57.6 Z"
         id="path91066"
         inkscape:connector-curvature="0" /></clipPath><clipPath
       clipPathUnits="userSpaceOnUse"
       id="clipPath91078"><path
         d="M 57.6,38.016 H 414.72 V 304.128 H 57.6 Z"
         id="path91076"
         inkscape:connector-curvature="0" /></clipPath></defs><sodipodi:namedview
     pagecolor="#ffffff"
     bordercolor="#666666"
     borderopacity="1"
     objecttolerance="10"
     gridtolerance="10"
     guidetolerance="10"
     inkscape:pageopacity="0"
     inkscape:pageshadow="2"
     inkscape:window-width="909"
     inkscape:window-height="480"
     id="namedview90946"
     showgrid="false"
     inkscape:zoom="0.51215279"
     inkscape:cx="307.20001"
     inkscape:cy="230.39999"
     inkscape:window-x="0"
     inkscape:window-y="0"
     inkscape:window-maximized="0"
     inkscape:current-layer="g90952" /><g
     id="g90952"
     inkscape:groupmode="layer"
     inkscape:label="pid_kd"
     transform="matrix(1.3333333,0,0,-1.3333333,0,460.8)"><path
       d="M 0,0 H 460.8 V 345.6 H 0 Z"
       style="fill:#ffffff;fill-opacity:1;fill-rule:nonzero;stroke:none"
       id="path90954"
       inkscape:connector-curvature="0" /><path
       d="M 57.6,38.016 H 414.72 V 304.128 H 57.6 Z"
       style="fill:#ffffff;fill-opacity:1;fill-rule:nonzero;stroke:none"
       id="path90956"
       inkscape:connector-curvature="0" /><path
       d="m 73.832727,38.016 v -3.5"
       style="fill:#000000;fill-opacity:1;fill-rule:nonzero;stroke:#000000;stroke-width:0.80000001;stroke-linecap:butt;stroke-linejoin:round;stroke-miterlimit:10;stroke-dasharray:none;stroke-opacity:1"
       id="path90958"
       inkscape:connector-curvature="0" /><text
       transform="matrix(1,0,0,-1,70.65304,23.42225)"
       style="font-variant:normal;font-weight:normal;font-size:10px;font-family:DejaVuSans;-inkscape-font-specification:DejaVuSans;writing-mode:lr-tb;fill:#000000;fill-opacity:1;fill-rule:nonzero;stroke:none"
       id="text90962"><tspan
         x="0"
         y="0"
         id="tspan90960">0</tspan></text>
<path
       d="m 138.76364,38.016 v -3.5"
       style="fill:#000000;fill-opacity:1;fill-rule:nonzero;stroke:#000000;stroke-width:0.80000001;stroke-linecap:butt;stroke-linejoin:round;stroke-miterlimit:10;stroke-dasharray:none;stroke-opacity:1"
       id="path90964"
       inkscape:connector-curvature="0" /><text
       transform="matrix(1,0,0,-1,135.58395,23.42225)"
       style="font-variant:normal;font-weight:normal;font-size:10px;font-family:DejaVuSans;-inkscape-font-specification:DejaVuSans;writing-mode:lr-tb;fill:#000000;fill-opacity:1;fill-rule:nonzero;stroke:none"
       id="text90968"><tspan
         x="0"
         y="0"
         id="tspan90966">2</tspan></text>
<path
       d="m 203.69454,38.016 v -3.5"
       style="fill:#000000;fill-opacity:1;fill-rule:nonzero;stroke:#000000;stroke-width:0.80000001;stroke-linecap:butt;stroke-linejoin:round;stroke-miterlimit:10;stroke-dasharray:none;stroke-opacity:1"
       id="path90970"
       inkscape:connector-curvature="0" /><text
       transform="matrix(1,0,0,-1,200.51486,23.42225)"
       style="font-variant:normal;font-weight:normal;font-size:10px;font-family:DejaVuSans;-inkscape-font-specification:DejaVuSans;writing-mode:lr-tb;fill:#000000;fill-opacity:1;fill-rule:nonzero;stroke:none"
       id="text90974"><tspan
         x="0"
         y="0"
         id="tspan90972">4</tspan></text>
<path
       d="m 268.62545,38.016 v -3.5"
       style="fill:#000000;fill-opacity:1;fill-rule:nonzero;stroke:#000000;stroke-width:0.80000001;stroke-linecap:butt;stroke-linejoin:round;stroke-miterlimit:10;stroke-dasharray:none;stroke-opacity:1"
       id="path90976"
       inkscape:connector-curvature="0" /><text
       transform="matrix(1,0,0,-1,265.44577,23.42225)"
       style="font-variant:normal;font-weight:normal;font-size:10px;font-family:DejaVuSans;-inkscape-font-specification:DejaVuSans;writing-mode:lr-tb;fill:#000000;fill-opacity:1;fill-rule:nonzero;stroke:none"
       id="text90980"><tspan
         x="0"
         y="0"
         id="tspan90978">6</tspan></text>
<path
       d="m 333.55636,38.016 v -3.5"
       style="fill:#000000;fill-opacity:1;fill-rule:nonzero;stroke:#000000;stroke-width:0.80000001;stroke-linecap:butt;stroke-linejoin:round;stroke-miterlimit:10;stroke-dasharray:none;stroke-opacity:1"
       id="path90982"
       inkscape:connector-curvature="0" /><text
       transform="matrix(1,0,0,-1,330.37668,23.42225)"
       style="font-variant:normal;font-weight:normal;font-size:10px;font-family:DejaVuSans;-inkscape-font-specification:DejaVuSans;writing-mode:lr-tb;fill:#000000;fill-opacity:1;fill-rule:nonzero;stroke:none"
       id="text90986"><tspan
         x="0"
         y="0"
         id="tspan90984">8</tspan></text>
<path
       d="m 398.48727,38.016 v -3.5"
       style="fill:#000000;fill-opacity:1;fill-rule:nonzero;stroke:#000000;stroke-width:0.80000001;stroke-linecap:butt;stroke-linejoin:round;stroke-miterlimit:10;stroke-dasharray:none;stroke-opacity:1"
       id="path90988"
       inkscape:connector-curvature="0" /><text
       transform="matrix(1,0,0,-1,392.1279,23.42225)"
       style="font-variant:normal;font-weight:normal;font-size:10px;font-family:DejaVuSans;-inkscape-font-specification:DejaVuSans;writing-mode:lr-tb;fill:#000000;fill-opacity:1;fill-rule:nonzero;stroke:none"
       id="text90992"><tspan
         x="0 6.3600001"
         y="0"
         sodipodi:role="line"
         id="tspan90990">10</tspan></text>
<path
       d="M 57.6,50.112 H 54.1"
       style="fill:#000000;fill-opacity:1;fill-rule:nonzero;stroke:#000000;stroke-width:0.80000001;stroke-linecap:butt;stroke-linejoin:round;stroke-miterlimit:10;stroke-dasharray:none;stroke-opacity:1"
       id="path90994"
       inkscape:connector-curvature="0" /><text
       transform="matrix(1,0,0,-1,34.69375,46.315125)"
       style="font-variant:normal;font-weight:normal;font-size:10px;font-family:DejaVuSans;-inkscape-font-specification:DejaVuSans;writing-mode:lr-tb;fill:#000000;fill-opacity:1;fill-rule:nonzero;stroke:none"
       id="text90998"><tspan
         x="0 6.3600001 9.54"
         y="0"
         sodipodi:role="line"
         id="tspan90996">0.0</tspan></text>
<path
       d="M 57.6,84.373532 H 54.1"
       style="fill:#000000;fill-opacity:1;fill-rule:nonzero;stroke:#000000;stroke-width:0.80000001;stroke-linecap:butt;stroke-linejoin:round;stroke-miterlimit:10;stroke-dasharray:none;stroke-opacity:1"
       id="path91000"
       inkscape:connector-curvature="0" /><text
       transform="matrix(1,0,0,-1,34.69375,80.576657)"
       style="font-variant:normal;font-weight:normal;font-size:10px;font-family:DejaVuSans;-inkscape-font-specification:DejaVuSans;writing-mode:lr-tb;fill:#000000;fill-opacity:1;fill-rule:nonzero;stroke:none"
       id="text91004"><tspan
         x="0 6.3600001 9.54"
         y="0"
         sodipodi:role="line"
         id="tspan91002">0.2</tspan></text>
<path
       d="M 57.6,118.63506 H 54.1"
       style="fill:#000000;fill-opacity:1;fill-rule:nonzero;stroke:#000000;stroke-width:0.80000001;stroke-linecap:butt;stroke-linejoin:round;stroke-miterlimit:10;stroke-dasharray:none;stroke-opacity:1"
       id="path91006"
       inkscape:connector-curvature="0" /><text
       transform="matrix(1,0,0,-1,34.69375,114.83819)"
       style="font-variant:normal;font-weight:normal;font-size:10px;font-family:DejaVuSans;-inkscape-font-specification:DejaVuSans;writing-mode:lr-tb;fill:#000000;fill-opacity:1;fill-rule:nonzero;stroke:none"
       id="text91010"><tspan
         x="0 6.3600001 9.54"
         y="0"
         sodipodi:role="line"
         id="tspan91008">0.4</tspan></text>
<path
       d="M 57.6,152.89659 H 54.1"
       style="fill:#000000;fill-opacity:1;fill-rule:nonzero;stroke:#000000;stroke-width:0.80000001;stroke-linecap:butt;stroke-linejoin:round;stroke-miterlimit:10;stroke-dasharray:none;stroke-opacity:1"
       id="path91012"
       inkscape:connector-curvature="0" /><text
       transform="matrix(1,0,0,-1,34.69375,149.09972)"
       style="font-variant:normal;font-weight:normal;font-size:10px;font-family:DejaVuSans;-inkscape-font-specification:DejaVuSans;writing-mode:lr-tb;fill:#000000;fill-opacity:1;fill-rule:nonzero;stroke:none"
       id="text91016"><tspan
         x="0 6.3600001 9.54"
         y="0"
         sodipodi:role="line"
         id="tspan91014">0.6</tspan></text>
<path
       d="M 57.6,187.15813 H 54.1"
       style="fill:#000000;fill-opacity:1;fill-rule:nonzero;stroke:#000000;stroke-width:0.80000001;stroke-linecap:butt;stroke-linejoin:round;stroke-miterlimit:10;stroke-dasharray:none;stroke-opacity:1"
       id="path91018"
       inkscape:connector-curvature="0" /><text
       transform="matrix(1,0,0,-1,34.69375,183.36125)"
       style="font-variant:normal;font-weight:normal;font-size:10px;font-family:DejaVuSans;-inkscape-font-specification:DejaVuSans;writing-mode:lr-tb;fill:#000000;fill-opacity:1;fill-rule:nonzero;stroke:none"
       id="text91022"><tspan
         x="0 6.3600001 9.54"
         y="0"
         sodipodi:role="line"
         id="tspan91020">0.8</tspan></text>
<path
       d="M 57.6,221.41966 H 54.1"
       style="fill:#000000;fill-opacity:1;fill-rule:nonzero;stroke:#000000;stroke-width:0.80000001;stroke-linecap:butt;stroke-linejoin:round;stroke-miterlimit:10;stroke-dasharray:none;stroke-opacity:1"
       id="path91024"
       inkscape:connector-curvature="0" /><text
       transform="matrix(1,0,0,-1,34.69375,217.62278)"
       style="font-variant:normal;font-weight:normal;font-size:10px;font-family:DejaVuSans;-inkscape-font-specification:DejaVuSans;writing-mode:lr-tb;fill:#000000;fill-opacity:1;fill-rule:nonzero;stroke:none"
       id="text91028"><tspan
         x="0 6.3600001 9.54"
         y="0"
         sodipodi:role="line"
         id="tspan91026">1.0</tspan></text>
<path
       d="M 57.6,255.68119 H 54.1"
       style="fill:#000000;fill-opacity:1;fill-rule:nonzero;stroke:#000000;stroke-width:0.80000001;stroke-linecap:butt;stroke-linejoin:round;stroke-miterlimit:10;stroke-dasharray:none;stroke-opacity:1"
       id="path91030"
       inkscape:connector-curvature="0" /><text
       transform="matrix(1,0,0,-1,34.69375,251.88432)"
       style="font-variant:normal;font-weight:normal;font-size:10px;font-family:DejaVuSans;-inkscape-font-specification:DejaVuSans;writing-mode:lr-tb;fill:#000000;fill-opacity:1;fill-rule:nonzero;stroke:none"
       id="text91034"><tspan
         x="0 6.3600001 9.54"
         y="0"
         sodipodi:role="line"
         id="tspan91032">1.2</tspan></text>
<path
       d="M 57.6,289.94272 H 54.1"
       style="fill:#000000;fill-opacity:1;fill-rule:nonzero;stroke:#000000;stroke-width:0.80000001;stroke-linecap:butt;stroke-linejoin:round;stroke-miterlimit:10;stroke-dasharray:none;stroke-opacity:1"
       id="path91036"
       inkscape:connector-curvature="0" /><text
       transform="matrix(1,0,0,-1,34.69375,286.14585)"
       style="font-variant:normal;font-weight:normal;font-size:10px;font-family:DejaVuSans;-inkscape-font-specification:DejaVuSans;writing-mode:lr-tb;fill:#000000;fill-opacity:1;fill-rule:nonzero;stroke:none"
       id="text91040"><tspan
         x="0 6.3600001 9.54"
         y="0"
         sodipodi:role="line"
         id="tspan91038">1.4</tspan></text>
<g
       id="g91042"><g
         id="g91044"
         clip-path="url(#clipPath91048)"><path
           d="m 73.832727,50.112 h 32.432993 l 0.12986,171.30766 h 292.09169 v 0"
           style="fill:none;stroke:#000000;stroke-width:1.5;stroke-linecap:square;stroke-linejoin:round;stroke-miterlimit:10;stroke-dasharray:none;stroke-opacity:1"
           id="path91050"
           inkscape:connector-curvature="0" /></g></g><g
       id="g91052"><g
         id="g91054"
         clip-path="url(#clipPath91058)"><path
           d="m 73.832727,50.112 32.725183,0.09237 0.32465,0.382292 0.45452,0.941838 0.61684,1.856515 0.87657,3.423352 1.29861,6.060073 2.30505,11.988614 9.9669,52.717786 4.18804,20.63729 3.76599,17.46361 3.47381,15.08122 3.27901,13.2633 3.08422,11.57226 2.95435,10.23951 2.8245,9.00302 2.69463,7.8679 2.59724,6.91804 2.5323,6.12117 2.43491,5.31261 2.33751,4.58097 2.27258,3.97682 2.20766,3.42431 2.14272,2.92162 2.07778,2.46661 2.04533,2.0874 1.98039,1.71053 1.94793,1.39567 1.91546,1.10612 1.91546,0.85325 1.91547,0.61181 1.91546,0.38195 1.94792,0.16484 2.01286,-0.0533 2.07779,-0.27901 2.17519,-0.51942 2.27258,-0.77249 2.43491,-1.06621 2.59723,-1.38298 2.8245,-1.75932 3.11668,-2.20852 3.50627,-2.76406 4.09065,-3.5185 5.09707,-4.69312 8.66828,-8.34056 8.60335,-8.16359 5.58405,-4.99368 4.83736,-4.03468 4.44776,-3.42542 4.18805,-2.94997 4.02571,-2.56831 3.92832,-2.24515 3.86339,-1.95334 3.83093,-1.68829 3.83092,-1.44486 3.83092,-1.20848 3.89586,-0.99636 3.99325,-0.7906 4.12311,-0.58719 4.28544,-0.38312 4.5127,-0.17705 4.80489,0.0372 5.22694,0.26727 5.81131,0.5249 6.75282,0.84006 8.63581,1.3117 33.0823,5.24736 9.02539,1.07576 8.70074,0.81387 8.76568,0.59589 9.12279,0.39568 3.05175,0.0857 v 0"
           style="fill:none;stroke:#008000;stroke-width:1.5;stroke-linecap:square;stroke-linejoin:round;stroke-miterlimit:10;stroke-dasharray:none;stroke-opacity:1"
           id="path91060"
           inkscape:connector-curvature="0" /></g></g><g
       id="g91062"><g
         id="g91064"
         clip-path="url(#clipPath91068)"><path
           d="m 73.832727,50.112 32.725183,0.08881 0.35712,0.385822 0.55191,0.975687 0.9415,2.195401 1.94792,5.231117 4.05819,11.601249 5.2594,15.723311 6.98007,21.623353 18.11572,56.43686 5.84379,17.2885 5.06461,14.30695 4.57763,12.28246 4.25297,10.7883 3.99325,9.53433 3.76599,8.42954 3.60367,7.5312 3.44134,6.68682 3.31147,5.95724 3.18162,5.27548 3.08422,4.69059 2.98682,4.14338 2.88942,3.63464 2.8245,3.19924 2.7271,2.75964 2.66217,2.38523 2.6297,2.06076 2.56477,1.73169 2.5323,1.44529 2.49984,1.17444 2.49984,0.92965 2.49984,0.69123 2.49984,0.45966 2.49984,0.23538 2.56477,0.0164 2.59724,-0.20689 2.66217,-0.43574 2.75956,-0.67962 2.85696,-0.93548 2.98682,-1.21559 3.11669,-1.51046 3.31147,-1.85546 3.53874,-2.24355 3.79846,-2.67754 4.12311,-3.1837 4.57763,-3.82219 5.22694,-4.66299 6.33076,-5.95964 9.31758,-9.11315 13.70043,-13.36997 6.98007,-6.48569 5.94118,-5.22412 5.38926,-4.44857 5.03215,-3.86977 4.77242,-3.39317 4.57763,-2.98537 4.44777,-2.63718 4.3179,-2.30475 4.25298,-2.02015 4.18804,-1.74545 4.15558,-1.49341 4.15558,-1.25836 4.15557,-1.02757 4.18805,-0.80804 4.25297,-0.59448 4.35037,-0.38199 4.44777,-0.16581 4.57763,0.0527 4.77242,0.27924 4.99968,0.51774 5.29187,0.774 2.56477,0.45062 v 0"
           style="fill:none;stroke:#ff0000;stroke-width:1.5;stroke-linecap:butt;stroke-linejoin:round;stroke-miterlimit:10;stroke-dasharray:5.6, 2.4;stroke-dashoffset:0;stroke-opacity:1"
           id="path91070"
           inkscape:connector-curvature="0" /></g></g><g
       id="g91072"><g
         id="g91074"
         clip-path="url(#clipPath91078)"><path
           d="m 73.832727,50.112 32.725183,0.09422 0.32465,0.405536 0.42205,0.96204 0.55191,1.91324 0.68178,3.235274 0.87657,5.302868 1.16875,8.564215 1.62328,13.729605 2.92188,27.006552 3.8634,35.16404 2.5323,20.99639 2.24012,16.78443 2.11025,14.18093 2.01286,12.04986 1.91546,10.16225 1.85053,8.65859 1.7856,7.32861 1.72067,6.16183 1.6882,5.23857 1.62328,4.33111 1.55834,3.54954 1.52587,2.93714 1.46095,2.34722 1.42848,1.88612 1.39601,1.48046 1.36355,1.12502 1.33109,0.81497 1.33108,0.55646 1.33108,0.31833 1.36355,0.0997 1.42848,-0.11955 1.52588,-0.35623 1.62327,-0.61006 1.7856,-0.91224 2.01286,-1.28757 2.27258,-1.72634 2.69464,-2.33919 3.3764,-3.2453 5.12954,-5.27999 8.1813,-8.40052 4.35037,-4.12893 3.83092,-3.33284 3.5712,-2.81501 3.44134,-2.43058 3.34394,-2.0927 3.34395,-1.83118 3.34394,-1.57901 3.40887,-1.36418 3.50627,-1.16301 3.63613,-0.97167 3.83092,-0.79318 4.12312,-0.62344 4.48023,-0.44889 4.99968,-0.27335 5.81132,-0.0882 7.17486,0.12364 10.51881,0.42655 26.55674,1.14276 14.41466,0.34452 16.9145,0.17075 26.06976,0.011 55.22374,-0.0845 v 0"
           style="fill:none;stroke:#0000ff;stroke-width:1.5;stroke-linecap:butt;stroke-linejoin:round;stroke-miterlimit:10;stroke-dasharray:2.2, 2.2;stroke-dashoffset:0;stroke-opacity:1"
           id="path91080"
           inkscape:connector-curvature="0" /></g></g><g
       id="g91082"><path
         d="M 57.6,38.016 V 304.128"
         style="fill:none;stroke:#000000;stroke-width:0.80000001;stroke-linecap:square;stroke-linejoin:miter;stroke-miterlimit:10;stroke-dasharray:none;stroke-opacity:1"
         id="path91084"
         inkscape:connector-curvature="0" /><path
         d="M 414.72,38.016 V 304.128"
         style="fill:none;stroke:#000000;stroke-width:0.80000001;stroke-linecap:square;stroke-linejoin:miter;stroke-miterlimit:10;stroke-dasharray:none;stroke-opacity:1"
         id="path91086"
         inkscape:connector-curvature="0" /><path
         d="M 57.6,38.016 H 414.72"
         style="fill:none;stroke:#000000;stroke-width:0.80000001;stroke-linecap:square;stroke-linejoin:miter;stroke-miterlimit:10;stroke-dasharray:none;stroke-opacity:1"
         id="path91088"
         inkscape:connector-curvature="0" /><path
         d="M 57.6,304.128 H 414.72"
         style="fill:none;stroke:#000000;stroke-width:0.80000001;stroke-linecap:square;stroke-linejoin:miter;stroke-miterlimit:10;stroke-dasharray:none;stroke-opacity:1"
         id="path91090"
         inkscape:connector-curvature="0" /><path
         d="M 284.68875,43.016 H 407.72 c 1.33333,0 2,0.666667 2,2 v 57.6875 c 0,1.33333 -0.66667,2 -2,2 H 284.68875 c -1.33333,0 -2,-0.66667 -2,-2 V 45.016 c 0,-1.333333 0.66667,-2 2,-2 z"
         style="fill:#ffffff;fill-opacity:0.8;fill-rule:nonzero;stroke:#cccccc;stroke-width:1;stroke-linecap:butt;stroke-linejoin:miter;stroke-miterlimit:10;stroke-dasharray:none;stroke-opacity:0.8"
         id="path91092"
         inkscape:connector-curvature="0" /><path
         d="m 286.68875,96.60975 h 20"
         style="fill:none;stroke:#000000;stroke-width:1.5;stroke-linecap:square;stroke-linejoin:round;stroke-miterlimit:10;stroke-dasharray:none;stroke-opacity:1"
         id="path91094"
         inkscape:connector-curvature="0" /><text
         transform="matrix(1,0,0,-1,314.68875,93.10975)"
         style="font-variant:normal;font-weight:normal;font-size:10px;font-family:DejaVuSans;-inkscape-font-specification:DejaVuSans;writing-mode:lr-tb;fill:#000000;fill-opacity:1;fill-rule:nonzero;stroke:none"
         id="text91098"><tspan
           x="0 5.9200001"
           y="0"
           sodipodi:role="line"
           id="tspan91096">xd</tspan></text>
<path
         d="m 286.68875,81.937875 h 20"
         style="fill:none;stroke:#008000;stroke-width:1.5;stroke-linecap:square;stroke-linejoin:round;stroke-miterlimit:10;stroke-dasharray:none;stroke-opacity:1"
         id="path91100"
         inkscape:connector-curvature="0" /><text
         transform="matrix(1,0,0,-1,314.68875,78.437875)"
         style="font-variant:normal;font-weight:normal;font-size:10px;font-family:DejaVuSans;-inkscape-font-specification:DejaVuSans;writing-mode:lr-tb;fill:#000000;fill-opacity:1;fill-rule:nonzero;stroke:none"
         id="text91104"><tspan
           x="0 5.79 11.82 20.200001 26.559999 29.74 32.919998 38.709999 41.66 50.040001 56.400002 59.580002 62.759998 68.550003 76.25 84.629997"
           y="0"
           sodipodi:role="line"
           id="tspan91102">kP=1, kI=1, kD=1</tspan></text>
<path
         d="m 286.68875,67.266 h 20"
         style="fill:none;stroke:#ff0000;stroke-width:1.5;stroke-linecap:butt;stroke-linejoin:round;stroke-miterlimit:10;stroke-dasharray:5.6, 2.4;stroke-dashoffset:0;stroke-opacity:1"
         id="path91106"
         inkscape:connector-curvature="0" /><text
         transform="matrix(1,0,0,-1,314.68875,63.766)"
         style="font-variant:normal;font-weight:normal;font-size:10px;font-family:DejaVuSans;-inkscape-font-specification:DejaVuSans;writing-mode:lr-tb;fill:#000000;fill-opacity:1;fill-rule:nonzero;stroke:none"
         id="text91110"><tspan
           x="0 5.79 13.49 21.870001"
           y="0"
           sodipodi:role="line"
           id="tspan91108">kD=2</tspan></text>
<path
         d="m 286.68875,52.594125 h 20"
         style="fill:none;stroke:#0000ff;stroke-width:1.5;stroke-linecap:butt;stroke-linejoin:round;stroke-miterlimit:10;stroke-dasharray:2.2, 2.2;stroke-dashoffset:0;stroke-opacity:1"
         id="path91112"
         inkscape:connector-curvature="0" /><text
         transform="matrix(1,0,0,-1,314.68875,49.094125)"
         style="font-variant:normal;font-weight:normal;font-size:10px;font-family:DejaVuSans;-inkscape-font-specification:DejaVuSans;writing-mode:lr-tb;fill:#000000;fill-opacity:1;fill-rule:nonzero;stroke:none"
         id="text91116"><tspan
           x="0 5.79 13.49 21.870001 28.23 31.41"
           y="0"
           sodipodi:role="line"
           id="tspan91114">kD=0.5</tspan></text>
</g></g></svg>