<?xml version="1.0" encoding="UTF-8" standalone="no"?>
<!-- Created with Inkscape (http://www.inkscape.org/) -->

<svg
   xmlns:dc="http://purl.org/dc/elements/1.1/"
   xmlns:cc="http://creativecommons.org/ns#"
   xmlns:rdf="http://www.w3.org/1999/02/22-rdf-syntax-ns#"
   xmlns:svg="http://www.w3.org/2000/svg"
   xmlns="http://www.w3.org/2000/svg"
   xmlns:sodipodi="http://sodipodi.sourceforge.net/DTD/sodipodi-0.dtd"
   xmlns:inkscape="http://www.inkscape.org/namespaces/inkscape"
   version="1.1"
   id="svg81164"
   xml:space="preserve"
   width="991.93732"
   height="269.85468"
   viewBox="0 0 991.93732 269.85468"
   sodipodi:docname="trapezoidal_velocity_profile.svg"
   inkscape:version="0.92.3 (2405546, 2018-03-11)"><metadata
     id="metadata81170"><rdf:RDF><cc:Work
         rdf:about=""><dc:format>image/svg+xml</dc:format><dc:type
           rdf:resource="http://purl.org/dc/dcmitype/StillImage" /><dc:title></dc:title></cc:Work></rdf:RDF></metadata><defs
     id="defs81168" /><sodipodi:namedview
     pagecolor="#ffffff"
     bordercolor="#666666"
     borderopacity="1"
     objecttolerance="10"
     gridtolerance="10"
     guidetolerance="10"
     inkscape:pageopacity="0"
     inkscape:pageshadow="2"
     inkscape:window-width="909"
     inkscape:window-height="480"
     id="namedview81166"
     showgrid="false"
     inkscape:zoom="0.44357642"
     inkscape:cx="495.96866"
     inkscape:cy="134.92734"
     inkscape:window-x="0"
     inkscape:window-y="0"
     inkscape:window-maximized="0"
     inkscape:current-layer="g81172" /><g
     id="g81172"
     inkscape:groupmode="layer"
     inkscape:label="trapezoidal_velocity_profile"
     transform="matrix(1.3333333,0,0,-1.3333333,0,269.85467)"><g
       id="g81174"><path
         d="m 445.082,32.293 h 285 v -1.562 h -285 z m 279.391,3.395 7.16,-4.176 -7.16,-4.176 c -0.371,-0.215 -0.852,-0.09 -1.063,0.282 -0.219,0.375 -0.09,0.851 0.281,1.07 l 6,3.5 v -1.352 l -6,3.5 c -0.371,0.219 -0.5,0.696 -0.281,1.071 0.211,0.371 0.692,0.496 1.063,0.281 z"
         style="fill:#000000;fill-opacity:1;fill-rule:nonzero;stroke:none"
         id="path81176"
         inkscape:connector-curvature="0" /><path
         d="m 493.082,31.879 49.461,89.512 h 69.816 l 50.192,-90.238 h 56.73"
         style="fill:none;stroke:#ff0000;stroke-width:1.55999994;stroke-linecap:butt;stroke-linejoin:miter;stroke-miterlimit:10;stroke-dasharray:none;stroke-opacity:1"
         id="path81178"
         inkscape:connector-curvature="0" /><path
         d="m 97.441,56.231 c 22.309,0.379 38.071,16.762 50.93,27.32 l 70.57,64.723 c 14.551,12.59 26.192,28.808 48.739,29.039 h 61.84"
         style="fill:none;stroke:#ff0000;stroke-width:1.55999994;stroke-linecap:butt;stroke-linejoin:miter;stroke-miterlimit:10;stroke-dasharray:none;stroke-opacity:1"
         id="path81180"
         inkscape:connector-curvature="0" /><path
         d="m 49.441,32.293 h 285 v -1.562 h -285 z m 279.391,3.395 7.16,-4.176 -7.16,-4.176 c -0.371,-0.215 -0.852,-0.09 -1.062,0.282 -0.219,0.375 -0.09,0.851 0.281,1.07 l 6,3.5 v -1.352 l -6,3.5 c -0.371,0.219 -0.5,0.696 -0.281,1.071 0.21,0.371 0.691,0.496 1.062,0.281 z"
         style="fill:#000000;fill-opacity:1;fill-rule:nonzero;stroke:none"
         id="path81182"
         inkscape:connector-curvature="0" /><path
         d="M 50.223,31.485 V 200.852 H 48.66 V 31.485 Z m 3.394,163.758 -4.176,7.148 -4.175,-7.148 c -0.215,-0.372 -0.09,-0.852 0.281,-1.071 0.375,-0.218 0.851,-0.09 1.07,0.282 l 3.5,6 h -1.351 l 3.5,-6 c 0.218,-0.372 0.695,-0.5 1.07,-0.282 0.371,0.219 0.496,0.699 0.281,1.071 z"
         style="fill:#000000;fill-opacity:1;fill-rule:nonzero;stroke:none"
         id="path81184"
         inkscape:connector-curvature="0" /><path
         d="M 320.074,17.918 V 7.668 h -1.031 v 10.25 h -3.234 v 0.953 h 7.5 v -0.953 z"
         style="fill:#000000;fill-opacity:1;fill-rule:nonzero;stroke:none"
         id="path81186"
         inkscape:connector-curvature="0" /><path
         d="m 325.469,17.7 c -0.188,0 -0.356,0.066 -0.5,0.203 -0.137,0.133 -0.203,0.304 -0.203,0.515 0,0.196 0.066,0.364 0.203,0.5 0.144,0.133 0.312,0.203 0.5,0.203 0.101,0 0.195,-0.023 0.281,-0.062 0.094,-0.031 0.172,-0.078 0.234,-0.141 0.063,-0.062 0.114,-0.136 0.157,-0.218 0.039,-0.086 0.062,-0.18 0.062,-0.282 0,-0.105 -0.023,-0.203 -0.062,-0.297 -0.032,-0.085 -0.086,-0.156 -0.157,-0.218 -0.062,-0.063 -0.14,-0.117 -0.234,-0.157 -0.086,-0.031 -0.18,-0.046 -0.281,-0.046 z M 324.984,7.668 v 8 h 1 v -8 z"
         style="fill:#000000;fill-opacity:1;fill-rule:nonzero;stroke:none"
         id="path81188"
         inkscape:connector-curvature="0" /><path
         d="m 338.605,7.668 v 4.703 c 0,0.477 -0.039,0.883 -0.109,1.219 -0.074,0.332 -0.187,0.602 -0.344,0.813 -0.148,0.207 -0.339,0.359 -0.578,0.453 -0.242,0.094 -0.523,0.14 -0.844,0.14 -0.292,0 -0.57,-0.074 -0.828,-0.218 -0.261,-0.137 -0.492,-0.324 -0.687,-0.563 -0.199,-0.242 -0.356,-0.527 -0.469,-0.859 -0.105,-0.324 -0.156,-0.68 -0.156,-1.063 V 7.668 h -1 v 4.813 c 0,1.676 -0.649,2.515 -1.938,2.515 -0.293,0 -0.57,-0.07 -0.828,-0.203 -0.25,-0.136 -0.476,-0.324 -0.672,-0.562 -0.187,-0.242 -0.336,-0.527 -0.437,-0.86 -0.106,-0.335 -0.156,-0.703 -0.156,-1.109 V 7.668 h -1 v 8 h 1 v -1.297 h 0.031 c 0.562,0.989 1.379,1.485 2.453,1.485 0.281,0 0.547,-0.043 0.797,-0.125 0.25,-0.086 0.473,-0.203 0.672,-0.36 0.195,-0.156 0.367,-0.343 0.515,-0.562 0.145,-0.211 0.254,-0.438 0.328,-0.688 0.282,0.563 0.645,0.989 1.094,1.282 0.446,0.301 0.957,0.453 1.531,0.453 1.75,0 2.625,-1.086 2.625,-3.25 V 7.668 Z"
         style="fill:#000000;fill-opacity:1;fill-rule:nonzero;stroke:none"
         id="path81190"
         inkscape:connector-curvature="0" /><path
         d="m 342.48,11.496 c 0.008,-0.492 0.079,-0.933 0.204,-1.328 0.125,-0.386 0.3,-0.714 0.531,-0.984 0.238,-0.273 0.523,-0.48 0.859,-0.625 0.332,-0.148 0.711,-0.219 1.141,-0.219 0.894,0 1.742,0.317 2.547,0.953 V 8.309 C 347,7.754 346.074,7.481 344.98,7.481 c -0.531,0 -1.015,0.094 -1.453,0.281 -0.437,0.188 -0.812,0.457 -1.125,0.813 -0.304,0.363 -0.539,0.804 -0.703,1.328 -0.168,0.519 -0.25,1.113 -0.25,1.781 0,0.594 0.086,1.145 0.266,1.656 0.187,0.508 0.441,0.953 0.765,1.328 0.321,0.375 0.704,0.664 1.141,0.875 0.445,0.207 0.93,0.313 1.453,0.313 0.52,0 0.977,-0.09 1.375,-0.266 0.395,-0.179 0.723,-0.433 0.985,-0.765 0.269,-0.336 0.472,-0.743 0.609,-1.219 0.145,-0.481 0.219,-1.016 0.219,-1.61 v -0.5 z m 4.75,0.875 c -0.011,0.833 -0.21,1.477 -0.593,1.938 -0.375,0.457 -0.903,0.687 -1.578,0.687 -0.344,0 -0.664,-0.062 -0.954,-0.187 -0.281,-0.117 -0.531,-0.289 -0.75,-0.516 -0.218,-0.23 -0.402,-0.507 -0.546,-0.828 -0.149,-0.324 -0.246,-0.687 -0.297,-1.094 z"
         style="fill:#000000;fill-opacity:1;fill-rule:nonzero;stroke:none"
         id="path81192"
         inkscape:connector-curvature="0" /><path
         d="m 7.906,82.039 c 1.399,0 2.434,-0.261 3.11,-0.781 0.679,-0.512 1.015,-1.242 1.015,-2.187 0,-0.18 -0.011,-0.352 -0.031,-0.516 -0.023,-0.156 -0.059,-0.305 -0.109,-0.437 h -1.032 c 0.157,0.289 0.235,0.613 0.235,0.968 0,0.664 -0.258,1.149 -0.781,1.453 -0.52,0.301 -1.321,0.454 -2.407,0.454 H 0.641 v 1.046 z"
         style="fill:#000000;fill-opacity:1;fill-rule:nonzero;stroke:none"
         id="path81194"
         inkscape:connector-curvature="0" /><path
         d="m 12.031,87.95 c 0,-0.594 -0.101,-1.125 -0.297,-1.594 -0.195,-0.469 -0.476,-0.871 -0.843,-1.203 -0.364,-0.336 -0.797,-0.59 -1.297,-0.766 -0.508,-0.18 -1.071,-0.266 -1.688,-0.266 -0.664,0 -1.258,0.094 -1.781,0.282 -0.531,0.187 -0.977,0.453 -1.344,0.797 -0.363,0.343 -0.64,0.757 -0.828,1.25 -0.195,0.488 -0.297,1.035 -0.297,1.64 0,0.582 0.094,1.102 0.282,1.563 0.187,0.468 0.464,0.863 0.828,1.187 0.355,0.321 0.793,0.567 1.312,0.735 0.512,0.175 1.094,0.265 1.75,0.265 0.625,0 1.199,-0.094 1.719,-0.281 0.512,-0.18 0.953,-0.434 1.328,-0.766 0.367,-0.336 0.652,-0.742 0.859,-1.218 0.196,-0.481 0.297,-1.024 0.297,-1.625 z m -7.515,0.078 c 0,-0.438 0.078,-0.836 0.234,-1.188 0.148,-0.355 0.367,-0.656 0.656,-0.906 0.293,-0.25 0.649,-0.445 1.063,-0.578 0.418,-0.137 0.89,-0.203 1.422,-0.203 0.5,0 0.953,0.066 1.359,0.203 0.398,0.133 0.742,0.32 1.031,0.562 0.282,0.25 0.5,0.551 0.657,0.907 0.156,0.351 0.234,0.75 0.234,1.187 0,0.445 -0.07,0.844 -0.219,1.188 -0.156,0.343 -0.375,0.632 -0.656,0.875 -0.281,0.238 -0.625,0.421 -1.031,0.546 -0.414,0.125 -0.891,0.188 -1.422,0.188 -1.071,0 -1.895,-0.242 -2.469,-0.719 -0.57,-0.48 -0.859,-1.168 -0.859,-2.062 z"
         style="fill:#000000;fill-opacity:1;fill-rule:nonzero;stroke:none"
         id="path81196"
         inkscape:connector-curvature="0" /><path
         d="m 1.813,94.266 c 0,-0.187 -0.067,-0.355 -0.204,-0.5 -0.132,-0.137 -0.304,-0.203 -0.515,-0.203 -0.196,0 -0.364,0.066 -0.5,0.203 -0.133,0.145 -0.203,0.313 -0.203,0.5 0,0.102 0.023,0.195 0.062,0.281 0.031,0.094 0.078,0.172 0.141,0.235 0.062,0.062 0.136,0.113 0.219,0.156 C 0.898,94.977 0.992,95 1.094,95 1.199,95 1.297,94.977 1.391,94.938 1.477,94.907 1.547,94.852 1.609,94.782 1.672,94.719 1.727,94.641 1.766,94.547 1.797,94.461 1.813,94.368 1.813,94.266 Z m 10.031,-0.484 h -8 v 1 h 8 z"
         style="fill:#000000;fill-opacity:1;fill-rule:nonzero;stroke:none"
         id="path81198"
         inkscape:connector-curvature="0" /><path
         d="m 11.844,102.75 h -4.61 c -1.812,0 -2.718,-0.656 -2.718,-1.968 0,-0.344 0.074,-0.668 0.218,-0.969 C 4.871,99.52 5.063,99.266 5.313,99.047 5.555,98.829 5.84,98.657 6.172,98.532 6.508,98.414 6.871,98.36 7.266,98.36 h 4.578 v -1 h -8 v 1 h 1.39 v 0.031 c -1.05,0.594 -1.578,1.484 -1.578,2.672 0,0.875 0.289,1.539 0.86,2 0.562,0.457 1.382,0.687 2.453,0.687 h 4.875 z"
         style="fill:#000000;fill-opacity:1;fill-rule:nonzero;stroke:none"
         id="path81200"
         inkscape:connector-curvature="0" /><path
         d="m 11.75,109.575 c 0.176,-0.344 0.266,-0.719 0.266,-1.125 0,-1.293 -0.75,-1.938 -2.25,-1.938 H 4.719 v -1.406 H 3.844 v 1.406 H 1.828 l -0.328,1 h 2.344 v 2.063 h 0.875 v -2.063 h 4.89 c 0.543,0 0.934,0.086 1.172,0.266 0.242,0.176 0.36,0.472 0.36,0.89 0,0.313 -0.094,0.614 -0.282,0.907 z"
         style="fill:#000000;fill-opacity:1;fill-rule:nonzero;stroke:none"
         id="path81202"
         inkscape:connector-curvature="0" /><path
         d="m 11.844,118.571 v -0.953 l -8,-3.063 v 1.109 l 6.094,2.204 c 0.367,0.132 0.687,0.222 0.968,0.265 v 0.031 c -0.375,0.063 -0.687,0.141 -0.937,0.235 l -6.125,2.297 v 1.062 z"
         style="fill:#000000;fill-opacity:1;fill-rule:nonzero;stroke:none"
         id="path81204"
         inkscape:connector-curvature="0" /><path
         d="m 11.844,127.536 h -1.422 v -0.032 c 0.512,-0.261 0.906,-0.621 1.187,-1.078 0.282,-0.449 0.422,-0.953 0.422,-1.515 0,-0.387 -0.058,-0.735 -0.172,-1.047 -0.101,-0.313 -0.254,-0.578 -0.453,-0.797 -0.207,-0.211 -0.453,-0.375 -0.734,-0.5 -0.281,-0.117 -0.586,-0.172 -0.922,-0.172 -0.727,0 -1.305,0.223 -1.734,0.672 -0.426,0.445 -0.707,1.125 -0.844,2.031 l -0.344,2.438 c -1.539,0 -2.312,-0.602 -2.312,-1.797 0,-0.93 0.343,-1.793 1.031,-2.594 H 4.453 c -0.125,0.164 -0.234,0.351 -0.328,0.562 -0.094,0.219 -0.176,0.442 -0.25,0.672 -0.07,0.239 -0.125,0.477 -0.156,0.719 -0.039,0.25 -0.063,0.492 -0.063,0.734 0,0.883 0.25,1.555 0.75,2.016 0.5,0.457 1.246,0.688 2.235,0.688 h 5.203 z m -3.891,-2.063 c 0.055,-0.367 0.121,-0.68 0.203,-0.937 0.074,-0.25 0.18,-0.461 0.313,-0.625 0.136,-0.168 0.304,-0.293 0.5,-0.375 0.187,-0.075 0.429,-0.11 0.719,-0.11 0.21,0 0.406,0.035 0.593,0.11 0.18,0.082 0.336,0.191 0.469,0.328 0.137,0.144 0.242,0.32 0.313,0.531 0.074,0.207 0.109,0.441 0.109,0.703 0,0.352 -0.067,0.676 -0.203,0.969 -0.133,0.301 -0.321,0.554 -0.563,0.765 -0.238,0.219 -0.523,0.391 -0.859,0.516 -0.332,0.125 -0.695,0.188 -1.094,0.188 H 7.672 Z"
         style="fill:#000000;fill-opacity:1;fill-rule:nonzero;stroke:none"
         id="path81206"
         inkscape:connector-curvature="0" /><path
         d="m 0,131.922 h 11.844 v -1 H 0 Z"
         style="fill:#000000;fill-opacity:1;fill-rule:nonzero;stroke:none"
         id="path81208"
         inkscape:connector-curvature="0" /><path
         d="m 11.844,139.778 h -1.36 v -0.032 c 1.032,-0.542 1.547,-1.386 1.547,-2.531 0,-1.898 -1.16,-2.844 -3.484,-2.844 H 3.844 v 1 h 4.515 c 0.961,0 1.668,0.165 2.125,0.5 0.461,0.344 0.688,0.868 0.688,1.579 0,0.343 -0.067,0.656 -0.203,0.937 -0.133,0.281 -0.321,0.524 -0.563,0.734 -0.238,0.208 -0.523,0.368 -0.859,0.485 -0.344,0.113 -0.723,0.172 -1.141,0.172 H 3.844 v 1 h 8 z"
         style="fill:#000000;fill-opacity:1;fill-rule:nonzero;stroke:none"
         id="path81210"
         inkscape:connector-curvature="0" /><path
         d="m 8.016,143.809 c 0.492,0.008 0.933,0.078 1.328,0.203 0.386,0.125 0.715,0.301 0.984,0.531 0.274,0.239 0.481,0.524 0.625,0.86 0.149,0.332 0.219,0.711 0.219,1.14 0,0.895 -0.317,1.743 -0.953,2.547 h 0.984 c 0.555,-0.761 0.828,-1.687 0.828,-2.781 0,-0.531 -0.093,-1.016 -0.281,-1.453 -0.187,-0.438 -0.457,-0.813 -0.812,-1.125 -0.364,-0.305 -0.805,-0.539 -1.329,-0.703 -0.519,-0.168 -1.113,-0.25 -1.781,-0.25 -0.594,0 -1.144,0.086 -1.656,0.265 -0.508,0.188 -0.953,0.442 -1.328,0.766 -0.375,0.32 -0.664,0.703 -0.875,1.141 -0.207,0.445 -0.313,0.929 -0.313,1.453 0,0.519 0.09,0.976 0.266,1.375 0.18,0.394 0.433,0.722 0.766,0.984 0.335,0.27 0.742,0.473 1.218,0.609 0.481,0.145 1.016,0.219 1.61,0.219 h 0.5 z m -0.875,4.75 c -0.832,-0.012 -1.477,-0.211 -1.938,-0.594 -0.457,-0.375 -0.687,-0.902 -0.687,-1.578 0,-0.344 0.062,-0.664 0.187,-0.953 0.117,-0.281 0.289,-0.531 0.516,-0.75 0.23,-0.219 0.508,-0.402 0.828,-0.547 0.324,-0.148 0.687,-0.246 1.094,-0.297 z"
         style="fill:#000000;fill-opacity:1;fill-rule:nonzero;stroke:none"
         id="path81212"
         inkscape:connector-curvature="0" /><path
         d="m 11.969,157.996 c 0,-0.773 -0.235,-1.351 -0.703,-1.734 -0.477,-0.375 -1.192,-0.562 -2.141,-0.562 -0.52,0 -1.156,0.054 -1.906,0.171 -0.758,0.114 -1.531,0.301 -2.313,0.563 -0.789,0.258 -1.492,0.598 -2.109,1.016 -0.613,0.414 -1.082,0.89 -1.406,1.421 -0.332,0.54 -0.5,1.129 -0.5,1.766 0,1.508 0.961,2.266 2.875,2.266 0.543,0 1.187,-0.063 1.937,-0.188 0.75,-0.125 1.516,-0.324 2.297,-0.594 0.781,-0.261 1.477,-0.593 2.078,-1 0.606,-0.406 1.074,-0.875 1.406,-1.406 0.325,-0.531 0.485,-1.105 0.485,-1.719 z m -5.985,-0.468 v 3.734 c -1.093,0.25 -2.035,0.375 -2.828,0.375 -0.551,0 -0.961,-0.09 -1.234,-0.266 -0.27,-0.179 -0.406,-0.453 -0.406,-0.828 0,-0.617 0.386,-1.183 1.156,-1.703 0.773,-0.511 1.875,-0.949 3.312,-1.312 z m 0.797,3.562 v -3.75 c 1.137,-0.25 2.09,-0.375 2.86,-0.375 0.586,0 1.011,0.086 1.281,0.266 0.273,0.176 0.406,0.461 0.406,0.859 0,0.582 -0.39,1.133 -1.172,1.656 -0.781,0.532 -1.906,0.977 -3.375,1.344 z"
         style="fill:#000000;fill-opacity:1;fill-rule:nonzero;stroke:none"
         id="path81214"
         inkscape:connector-curvature="0" /><path
         d="M 43.68,177.313 H 54.59"
         style="fill:none;stroke:#000000;stroke-width:1.55999994;stroke-linecap:butt;stroke-linejoin:miter;stroke-miterlimit:10;stroke-dasharray:none;stroke-opacity:1"
         id="path81216"
         inkscape:connector-curvature="0" /><path
         d="m 27.957,50.102 c -0.875,0 -1.527,0.266 -1.953,0.797 -0.43,0.531 -0.641,1.332 -0.641,2.406 0,0.57 0.063,1.285 0.188,2.141 0.125,0.851 0.332,1.722 0.625,2.609 0.301,0.883 0.687,1.672 1.156,2.359 0.469,0.688 1.004,1.219 1.609,1.594 0.602,0.375 1.258,0.563 1.969,0.563 1.695,0 2.547,-1.078 2.547,-3.235 0,-0.617 -0.07,-1.343 -0.203,-2.187 -0.137,-0.844 -0.356,-1.711 -0.656,-2.594 -0.293,-0.875 -0.668,-1.652 -1.125,-2.328 -0.461,-0.68 -0.993,-1.203 -1.594,-1.578 -0.594,-0.367 -1.234,-0.547 -1.922,-0.547 z m -0.547,6.719 h 4.219 c 0.269,1.238 0.406,2.304 0.406,3.203 0,0.613 -0.101,1.07 -0.297,1.375 -0.199,0.301 -0.511,0.453 -0.937,0.453 -0.68,0 -1.309,-0.434 -1.891,-1.297 -0.586,-0.867 -1.086,-2.109 -1.5,-3.734 z m 4.016,-0.891 h -4.219 c -0.281,-1.273 -0.422,-2.34 -0.422,-3.203 0,-0.656 0.098,-1.141 0.297,-1.453 0.207,-0.305 0.531,-0.453 0.969,-0.453 0.656,0 1.273,0.437 1.859,1.312 0.594,0.883 1.098,2.149 1.516,3.797 z"
         style="fill:#000000;fill-opacity:1;fill-rule:nonzero;stroke:none"
         id="path81218"
         inkscape:connector-curvature="0" /><path
         d="m 38.395,51.274 c -0.055,0.375 -0.184,0.648 -0.391,0.828 -0.199,0.187 -0.516,0.281 -0.953,0.281 -0.168,0 -0.328,-0.027 -0.485,-0.078 -0.148,-0.043 -0.273,-0.105 -0.375,-0.187 -0.105,-0.075 -0.187,-0.168 -0.25,-0.282 -0.062,-0.117 -0.093,-0.242 -0.093,-0.375 0,-0.125 0.015,-0.242 0.047,-0.343 0.031,-0.106 0.085,-0.204 0.171,-0.297 0.094,-0.094 0.219,-0.2 0.375,-0.313 0.157,-0.105 0.364,-0.226 0.625,-0.359 0.27,-0.149 0.493,-0.289 0.672,-0.422 0.188,-0.137 0.332,-0.277 0.438,-0.422 0.101,-0.137 0.176,-0.281 0.219,-0.437 0.039,-0.157 0.062,-0.336 0.062,-0.532 0,-0.304 -0.062,-0.574 -0.187,-0.812 -0.125,-0.242 -0.297,-0.445 -0.516,-0.61 -0.219,-0.156 -0.481,-0.281 -0.781,-0.375 -0.293,-0.082 -0.618,-0.125 -0.969,-0.125 -0.399,0 -0.781,0.028 -1.156,0.079 -0.375,0.039 -0.774,0.125 -1.188,0.25 l 0.328,1.453 h 0.547 c 0.02,-0.399 0.145,-0.696 0.375,-0.891 0.227,-0.199 0.578,-0.297 1.047,-0.297 0.426,0 0.758,0.086 1,0.266 0.25,0.187 0.375,0.445 0.375,0.781 0,0.145 -0.016,0.27 -0.047,0.375 -0.031,0.102 -0.094,0.203 -0.187,0.297 -0.086,0.102 -0.2,0.207 -0.344,0.312 -0.149,0.102 -0.344,0.223 -0.594,0.36 -0.25,0.133 -0.465,0.269 -0.64,0.406 -0.18,0.133 -0.325,0.27 -0.438,0.406 -0.117,0.145 -0.203,0.297 -0.266,0.453 -0.054,0.157 -0.078,0.317 -0.078,0.485 0,0.269 0.055,0.515 0.172,0.734 0.113,0.227 0.27,0.426 0.469,0.594 0.207,0.164 0.457,0.297 0.75,0.391 0.289,0.093 0.617,0.14 0.984,0.14 0.414,0 0.797,-0.027 1.141,-0.078 0.344,-0.055 0.676,-0.125 1,-0.219 l -0.297,-1.437 z"
         style="fill:#000000;fill-opacity:1;fill-rule:nonzero;stroke:none"
         id="path81220"
         inkscape:connector-curvature="0" /><path
         d="m 28.078,170.973 c -0.875,0 -1.527,0.266 -1.953,0.797 -0.43,0.531 -0.641,1.332 -0.641,2.406 0,0.57 0.063,1.285 0.188,2.141 0.125,0.851 0.332,1.722 0.625,2.609 0.301,0.883 0.687,1.672 1.156,2.36 0.469,0.687 1.004,1.218 1.61,1.593 0.601,0.375 1.257,0.563 1.968,0.563 1.696,0 2.547,-1.078 2.547,-3.235 0,-0.617 -0.07,-1.343 -0.203,-2.187 -0.137,-0.844 -0.355,-1.711 -0.656,-2.594 -0.293,-0.875 -0.668,-1.652 -1.125,-2.328 -0.461,-0.68 -0.992,-1.203 -1.594,-1.578 -0.594,-0.367 -1.234,-0.547 -1.922,-0.547 z m -0.547,6.719 h 4.219 c 0.27,1.238 0.406,2.304 0.406,3.203 0,0.613 -0.101,1.07 -0.297,1.375 -0.199,0.301 -0.511,0.453 -0.937,0.453 -0.68,0 -1.309,-0.434 -1.891,-1.297 -0.586,-0.867 -1.086,-2.109 -1.5,-3.734 z m 4.016,-0.891 h -4.219 c -0.281,-1.273 -0.422,-2.34 -0.422,-3.203 0,-0.656 0.098,-1.141 0.297,-1.453 0.207,-0.305 0.531,-0.453 0.969,-0.453 0.656,0 1.273,0.437 1.859,1.312 0.594,0.883 1.098,2.149 1.516,3.797 z"
         style="fill:#000000;fill-opacity:1;fill-rule:nonzero;stroke:none"
         id="path81222"
         inkscape:connector-curvature="0" /><path
         d="m 38.293,168.922 c -0.219,-0.293 -0.434,-0.543 -0.641,-0.75 -0.199,-0.211 -0.398,-0.383 -0.593,-0.515 -0.2,-0.137 -0.399,-0.231 -0.594,-0.282 -0.199,-0.062 -0.406,-0.093 -0.625,-0.093 -0.492,0 -0.875,0.175 -1.156,0.531 -0.274,0.363 -0.407,0.891 -0.407,1.578 0,0.395 0.039,0.781 0.125,1.156 0.094,0.375 0.219,0.727 0.375,1.063 0.157,0.344 0.336,0.648 0.547,0.922 0.219,0.281 0.457,0.519 0.719,0.718 0.27,0.196 0.555,0.348 0.859,0.454 0.301,0.113 0.61,0.171 0.922,0.171 0.332,0 0.625,-0.043 0.875,-0.125 0.258,-0.074 0.492,-0.179 0.703,-0.312 l 0.625,0.437 0.469,-0.14 c -0.117,-0.543 -0.23,-1.078 -0.344,-1.61 -0.105,-0.523 -0.218,-1.054 -0.343,-1.593 -0.137,-0.637 -0.258,-1.227 -0.36,-1.766 -0.094,-0.543 -0.203,-1.023 -0.328,-1.437 -0.125,-0.415 -0.277,-0.774 -0.453,-1.079 -0.168,-0.312 -0.387,-0.566 -0.656,-0.765 -0.262,-0.207 -0.59,-0.364 -0.985,-0.469 -0.398,-0.113 -0.882,-0.172 -1.453,-0.172 -0.875,0 -1.539,0.11 -1.984,0.328 -0.449,0.211 -0.672,0.532 -0.672,0.969 0,0.117 0.016,0.227 0.047,0.328 0.039,0.106 0.098,0.203 0.172,0.297 0.082,0.094 0.179,0.188 0.297,0.281 0.125,0.086 0.269,0.18 0.437,0.282 l 0.563,-0.438 c -0.149,-0.125 -0.246,-0.242 -0.297,-0.359 -0.055,-0.114 -0.078,-0.235 -0.078,-0.36 0,-0.238 0.117,-0.422 0.359,-0.547 0.238,-0.125 0.617,-0.187 1.141,-0.187 0.257,0 0.492,0.023 0.703,0.062 0.207,0.043 0.398,0.11 0.578,0.204 0.176,0.085 0.336,0.21 0.484,0.375 0.145,0.156 0.274,0.355 0.391,0.593 0.125,0.242 0.238,0.543 0.344,0.907 0.113,0.375 0.226,0.812 0.343,1.312 z m 0.422,2.063 c 0.051,0.238 0.098,0.472 0.14,0.703 0.04,0.226 0.063,0.43 0.063,0.609 0,0.344 -0.086,0.586 -0.25,0.735 -0.156,0.144 -0.398,0.218 -0.719,0.218 -0.25,0 -0.484,-0.058 -0.703,-0.171 -0.211,-0.118 -0.402,-0.266 -0.578,-0.454 -0.18,-0.179 -0.34,-0.39 -0.484,-0.64 -0.137,-0.25 -0.25,-0.516 -0.344,-0.797 -0.094,-0.281 -0.168,-0.574 -0.219,-0.875 -0.055,-0.293 -0.078,-0.574 -0.078,-0.844 0,-0.906 0.27,-1.359 0.812,-1.359 0.227,0 0.458,0.066 0.688,0.203 0.227,0.144 0.473,0.379 0.734,0.703 0.133,0.164 0.254,0.32 0.36,0.469 0.101,0.144 0.187,0.289 0.25,0.437 0.07,0.157 0.133,0.317 0.187,0.485 0.051,0.175 0.098,0.367 0.141,0.578 z"
         style="fill:#000000;fill-opacity:1;fill-rule:nonzero;stroke:none"
         id="path81224"
         inkscape:connector-curvature="0" /><path
         d="M 97.391,56.293 96.66,25.746"
         style="fill:none;stroke:#5999d4;stroke-width:0.47999999;stroke-linecap:butt;stroke-linejoin:miter;stroke-miterlimit:10;stroke-dasharray:1.92, 1.44;stroke-dashoffset:0;stroke-opacity:1"
         id="path81226"
         inkscape:connector-curvature="0" /><path
         d="M 267.551,177.371 266.82,26.95"
         style="fill:none;stroke:#5999d4;stroke-width:0.47999999;stroke-linecap:butt;stroke-linejoin:miter;stroke-miterlimit:10;stroke-dasharray:1.92, 1.44;stroke-dashoffset:0;stroke-opacity:1"
         id="path81228"
         inkscape:connector-curvature="0" /><path
         d="M 97.441,25.719 V 40.993"
         style="fill:none;stroke:#000000;stroke-width:1.55999994;stroke-linecap:butt;stroke-linejoin:miter;stroke-miterlimit:10;stroke-dasharray:none;stroke-opacity:1"
         id="path81230"
         inkscape:connector-curvature="0" /><path
         d="M 267.602,25.719 V 40.993"
         style="fill:none;stroke:#000000;stroke-width:1.55999994;stroke-linecap:butt;stroke-linejoin:miter;stroke-miterlimit:10;stroke-dasharray:none;stroke-opacity:1"
         id="path81232"
         inkscape:connector-curvature="0" /><path
         d="M 95.93,8.004 C 95.418,7.387 94.922,6.934 94.445,6.645 93.977,6.352 93.484,6.207 92.977,6.207 c -1.231,0 -1.844,0.618 -1.844,1.86 0,0.383 0.051,0.797 0.156,1.234 l 1.031,4.563 h -1.468 l 0.125,0.609 c 0.343,0 0.601,0.02 0.781,0.063 0.187,0.05 0.336,0.117 0.453,0.203 0.125,0.082 0.234,0.195 0.328,0.343 0.102,0.157 0.203,0.352 0.297,0.594 0.094,0.238 0.234,0.656 0.422,1.25 h 1.219 l -0.485,-2.172 h 2.672 l -0.203,-0.89 H 93.789 L 93.008,10.457 C 92.859,9.789 92.766,9.309 92.727,9.02 92.684,8.727 92.664,8.496 92.664,8.332 c 0,-0.73 0.301,-1.093 0.906,-1.093 0.25,0 0.52,0.097 0.813,0.297 0.289,0.195 0.633,0.531 1.031,1 z"
         style="fill:#000000;fill-opacity:1;fill-rule:nonzero;stroke:none"
         id="path81234"
         inkscape:connector-curvature="0" /><path
         d="m 100.348,2.489 c -0.938,0 -1.637,0.336 -2.094,1.015 -0.449,0.688 -0.672,1.723 -0.672,3.11 0,0.726 0.066,1.351 0.203,1.875 0.145,0.531 0.344,0.968 0.594,1.312 0.258,0.352 0.562,0.613 0.906,0.781 0.352,0.176 0.742,0.266 1.172,0.266 0.5,0 0.926,-0.094 1.281,-0.281 0.364,-0.188 0.657,-0.461 0.875,-0.813 0.227,-0.343 0.395,-0.773 0.5,-1.281 0.102,-0.5 0.157,-1.07 0.157,-1.703 0,-1.406 -0.25,-2.477 -0.75,-3.203 -0.5,-0.719 -1.227,-1.078 -2.172,-1.078 z M 98.895,6.77 c 0,-0.637 0.023,-1.184 0.078,-1.641 0.062,-0.461 0.156,-0.84 0.281,-1.14 0.133,-0.293 0.301,-0.508 0.5,-0.641 0.195,-0.137 0.43,-0.203 0.703,-0.203 0.25,0 0.469,0.062 0.656,0.187 0.188,0.133 0.344,0.336 0.469,0.61 0.125,0.281 0.219,0.633 0.281,1.062 0.071,0.426 0.11,0.926 0.11,1.5 0,0.657 -0.039,1.219 -0.11,1.688 -0.074,0.469 -0.172,0.851 -0.297,1.156 -0.125,0.301 -0.289,0.523 -0.484,0.672 -0.187,0.144 -0.406,0.219 -0.656,0.219 -0.305,0 -0.555,-0.078 -0.75,-0.235 C 99.477,9.848 99.32,9.618 99.207,9.317 99.09,9.024 99.008,8.661 98.957,8.223 98.914,7.793 98.895,7.309 98.895,6.77 Z"
         style="fill:#000000;fill-opacity:1;fill-rule:nonzero;stroke:none"
         id="path81236"
         inkscape:connector-curvature="0" /><path
         d="m 247.199,7.911 c -0.511,-0.618 -1.008,-1.071 -1.484,-1.36 -0.469,-0.293 -0.961,-0.437 -1.469,-0.437 -1.23,0 -1.844,0.617 -1.844,1.859 0,0.383 0.051,0.797 0.157,1.234 l 1.031,4.563 h -1.469 l 0.125,0.609 c 0.344,0 0.602,0.02 0.781,0.063 0.188,0.051 0.336,0.117 0.453,0.203 0.125,0.082 0.235,0.195 0.329,0.344 0.101,0.156 0.203,0.351 0.296,0.593 0.094,0.239 0.235,0.657 0.422,1.25 h 1.219 l -0.484,-2.171 h 2.672 L 247.73,13.77 h -2.671 l -0.782,-3.406 c -0.148,-0.668 -0.242,-1.149 -0.281,-1.438 -0.043,-0.293 -0.062,-0.523 -0.062,-0.687 0,-0.731 0.3,-1.094 0.906,-1.094 0.25,0 0.519,0.098 0.812,0.297 0.289,0.195 0.633,0.531 1.032,1 z"
         style="fill:#000000;fill-opacity:1;fill-rule:nonzero;stroke:none"
         id="path81238"
         inkscape:connector-curvature="0" /><path
         d="m 251.617,2.391 c -0.937,0 -1.637,0.336 -2.094,1.016 -0.449,0.687 -0.671,1.722 -0.671,3.109 0,0.727 0.066,1.352 0.203,1.875 0.144,0.531 0.343,0.969 0.593,1.313 0.258,0.351 0.563,0.613 0.907,0.781 0.351,0.176 0.742,0.265 1.172,0.265 0.5,0 0.925,-0.093 1.281,-0.281 0.363,-0.187 0.656,-0.461 0.875,-0.812 0.226,-0.344 0.394,-0.774 0.5,-1.282 0.101,-0.5 0.156,-1.07 0.156,-1.703 0,-1.406 -0.25,-2.476 -0.75,-3.203 -0.5,-0.719 -1.226,-1.078 -2.172,-1.078 z m -1.453,4.281 c 0,-0.636 0.024,-1.183 0.078,-1.64 0.063,-0.461 0.156,-0.84 0.281,-1.141 0.133,-0.293 0.301,-0.508 0.5,-0.641 0.196,-0.136 0.43,-0.203 0.704,-0.203 0.25,0 0.468,0.063 0.656,0.188 0.187,0.133 0.344,0.336 0.469,0.609 0.125,0.281 0.218,0.633 0.281,1.063 0.07,0.425 0.109,0.925 0.109,1.5 0,0.656 -0.039,1.218 -0.109,1.687 -0.074,0.469 -0.172,0.852 -0.297,1.156 -0.125,0.301 -0.289,0.524 -0.484,0.672 -0.188,0.145 -0.407,0.219 -0.657,0.219 -0.304,0 -0.554,-0.078 -0.75,-0.234 -0.199,-0.157 -0.355,-0.387 -0.468,-0.688 -0.118,-0.293 -0.2,-0.656 -0.25,-1.094 -0.043,-0.429 -0.063,-0.914 -0.063,-1.453 z"
         style="fill:#000000;fill-opacity:1;fill-rule:nonzero;stroke:none"
         id="path81240"
         inkscape:connector-curvature="0" /><path
         d="M 267.664,10.817 V 5.754 h -1.25 v 5.063 h -4.781 v 1.172 h 4.781 v 5.062 h 1.25 v -5.062 h 4.797 v -1.172 z"
         style="fill:#000000;fill-opacity:1;fill-rule:nonzero;stroke:none"
         id="path81242"
         inkscape:connector-curvature="0" /><path
         d="m 283.949,7.911 c -0.511,-0.618 -1.008,-1.071 -1.484,-1.36 -0.469,-0.293 -0.961,-0.437 -1.469,-0.437 -1.23,0 -1.844,0.617 -1.844,1.859 0,0.383 0.051,0.797 0.157,1.234 l 1.031,4.563 h -1.469 l 0.125,0.609 c 0.344,0 0.602,0.02 0.781,0.063 0.188,0.051 0.336,0.117 0.453,0.203 0.125,0.082 0.235,0.195 0.329,0.344 0.101,0.156 0.203,0.351 0.296,0.593 0.094,0.239 0.235,0.657 0.422,1.25 h 1.219 l -0.484,-2.171 h 2.672 L 284.48,13.77 h -2.671 l -0.782,-3.406 c -0.148,-0.668 -0.242,-1.149 -0.281,-1.438 -0.043,-0.293 -0.062,-0.523 -0.062,-0.687 0,-0.731 0.3,-1.094 0.906,-1.094 0.25,0 0.519,0.098 0.812,0.297 0.289,0.195 0.633,0.531 1.032,1 z"
         style="fill:#000000;fill-opacity:1;fill-rule:nonzero;stroke:none"
         id="path81244"
         inkscape:connector-curvature="0" /><path
         d="M 286.867,2.735 C 286.668,1.809 286.344,1.121 285.898,0.672 285.449,0.227 284.855,0 284.117,0 c -0.199,0 -0.344,0.016 -0.437,0.047 0.031,0.106 0.054,0.215 0.078,0.328 0.019,0.106 0.047,0.215 0.078,0.329 0.019,-0.008 0.051,-0.016 0.094,-0.016 h 0.203 c 0.164,0 0.316,0.027 0.453,0.078 0.133,0.055 0.258,0.148 0.375,0.281 0.113,0.137 0.219,0.324 0.312,0.563 0.102,0.242 0.196,0.547 0.282,0.922 l 1.265,5.64 h -1.093 l 0.109,0.485 c 0.238,0.019 0.426,0.035 0.562,0.047 0.133,0.019 0.25,0.054 0.344,0.109 0.094,0.062 0.164,0.16 0.219,0.297 0.238,0.769 0.602,1.344 1.094,1.719 0.5,0.382 1.144,0.578 1.937,0.578 0.227,0 0.43,-0.016 0.61,-0.047 0.187,-0.024 0.359,-0.047 0.515,-0.078 l -0.25,-1.172 h -0.625 c -0.031,0.238 -0.105,0.41 -0.219,0.515 -0.117,0.114 -0.273,0.172 -0.468,0.172 -0.219,0 -0.403,-0.047 -0.547,-0.14 -0.149,-0.094 -0.278,-0.243 -0.391,-0.438 -0.117,-0.187 -0.215,-0.414 -0.297,-0.672 -0.074,-0.25 -0.125,-0.476 -0.156,-0.672 h 1.75 l -0.141,-0.703 h -1.765 z"
         style="fill:#000000;fill-opacity:1;fill-rule:nonzero;stroke:none"
         id="path81246"
         inkscape:connector-curvature="0" /><path
         d="m 163.383,99.493 h 42.91"
         style="fill:none;stroke:#5999d4;stroke-width:0.47999999;stroke-linecap:butt;stroke-linejoin:miter;stroke-miterlimit:10;stroke-dasharray:none;stroke-opacity:1"
         id="path81248"
         inkscape:connector-curvature="0" /><path
         d="m 206.34,99.551 v 36.18"
         style="fill:none;stroke:#5999d4;stroke-width:0.47999999;stroke-linecap:butt;stroke-linejoin:miter;stroke-miterlimit:10;stroke-dasharray:none;stroke-opacity:1"
         id="path81250"
         inkscape:connector-curvature="0" /><path
         d="m 214.043,98.395 c -0.168,0 -0.309,0.047 -0.422,0.141 -0.117,0.082 -0.211,0.203 -0.281,0.359 -0.063,0.156 -0.11,0.336 -0.141,0.547 -0.031,0.207 -0.047,0.437 -0.047,0.687 0,0.332 0.02,0.688 0.063,1.063 0.039,0.383 0.094,0.773 0.156,1.172 l 0.375,2.422 c 0.02,0.144 0.035,0.281 0.047,0.406 0.02,0.125 0.031,0.219 0.031,0.281 0,0.176 -0.031,0.32 -0.094,0.438 -0.062,0.125 -0.164,0.187 -0.296,0.187 -0.118,0 -0.243,-0.039 -0.375,-0.109 -0.125,-0.063 -0.258,-0.153 -0.391,-0.266 -0.125,-0.105 -0.25,-0.219 -0.375,-0.344 -0.117,-0.117 -0.23,-0.226 -0.344,-0.328 l -0.422,0.5 c 0.188,0.188 0.379,0.367 0.578,0.547 0.208,0.188 0.426,0.352 0.657,0.5 0.226,0.156 0.468,0.273 0.718,0.359 0.25,0.094 0.508,0.141 0.782,0.141 0.218,0 0.394,-0.039 0.531,-0.109 0.145,-0.075 0.254,-0.172 0.328,-0.297 0.082,-0.117 0.141,-0.246 0.172,-0.391 0.031,-0.137 0.047,-0.277 0.047,-0.422 0,-0.086 -0.008,-0.164 -0.016,-0.234 0,-0.074 -0.008,-0.149 -0.015,-0.219 l -0.5,-3.172 c -0.055,-0.336 -0.102,-0.664 -0.141,-0.984 -0.031,-0.324 -0.047,-0.606 -0.047,-0.844 0,-0.25 0.016,-0.453 0.047,-0.609 0.031,-0.149 0.086,-0.219 0.172,-0.219 0.187,0 0.426,0.078 0.719,0.234 0.3,0.157 0.613,0.368 0.937,0.641 0.32,0.27 0.641,0.594 0.953,0.969 0.321,0.375 0.614,0.773 0.875,1.203 0.258,0.437 0.469,0.894 0.625,1.375 0.164,0.476 0.25,0.961 0.25,1.453 0,0.207 -0.047,0.367 -0.14,0.484 -0.094,0.114 -0.235,0.172 -0.422,0.172 -0.25,0 -0.481,-0.101 -0.688,-0.297 -0.211,-0.187 -0.422,-0.433 -0.64,-0.734 l -0.5,0.438 c 0.132,0.207 0.296,0.41 0.484,0.609 0.195,0.195 0.398,0.367 0.609,0.516 0.219,0.144 0.442,0.257 0.672,0.343 0.227,0.094 0.453,0.141 0.672,0.141 0.414,0 0.719,-0.117 0.906,-0.344 0.188,-0.219 0.282,-0.512 0.282,-0.875 0,-0.281 -0.055,-0.605 -0.157,-0.969 -0.093,-0.367 -0.234,-0.75 -0.422,-1.156 -0.179,-0.398 -0.39,-0.808 -0.64,-1.234 -0.25,-0.43 -0.531,-0.844 -0.844,-1.25 -0.305,-0.399 -0.625,-0.774 -0.969,-1.125 -0.343,-0.356 -0.703,-0.668 -1.078,-0.938 -0.367,-0.261 -0.742,-0.468 -1.125,-0.625 -0.386,-0.156 -0.773,-0.234 -1.156,-0.234 z"
         style="fill:#000000;fill-opacity:1;fill-rule:nonzero;stroke:none"
         id="path81252"
         inkscape:connector-curvature="0" /><path
         d="m 225.742,94.832 h -1.234 c 0.051,0.27 0.113,0.563 0.187,0.875 0.082,0.313 0.16,0.625 0.235,0.938 0.07,0.32 0.144,0.633 0.218,0.937 0.071,0.313 0.133,0.602 0.188,0.875 0.051,0.27 0.094,0.508 0.125,0.719 0.039,0.219 0.062,0.391 0.062,0.516 0,0.258 -0.054,0.453 -0.156,0.578 -0.105,0.125 -0.273,0.187 -0.5,0.187 -0.211,0 -0.429,-0.078 -0.656,-0.234 -0.231,-0.148 -0.449,-0.344 -0.656,-0.594 -0.211,-0.242 -0.399,-0.515 -0.563,-0.828 -0.168,-0.312 -0.289,-0.633 -0.359,-0.953 l -0.641,-3.016 h -1.25 l 0.953,4.141 c 0.051,0.227 0.086,0.426 0.11,0.594 0.031,0.164 0.047,0.304 0.047,0.422 0,0.312 -0.125,0.468 -0.375,0.468 -0.075,0 -0.153,-0.023 -0.235,-0.062 -0.074,-0.031 -0.156,-0.078 -0.25,-0.141 -0.086,-0.062 -0.179,-0.14 -0.281,-0.234 -0.094,-0.094 -0.203,-0.211 -0.328,-0.344 l -0.438,0.406 c 0.207,0.219 0.395,0.399 0.563,0.547 0.176,0.157 0.347,0.282 0.515,0.375 0.165,0.102 0.329,0.18 0.485,0.235 0.156,0.05 0.316,0.078 0.484,0.078 0.313,0 0.551,-0.106 0.719,-0.313 0.176,-0.211 0.266,-0.48 0.266,-0.812 0,-0.094 -0.012,-0.188 -0.032,-0.281 -0.011,-0.086 -0.031,-0.168 -0.062,-0.25 l 0.078,-0.032 c 0.406,0.563 0.805,0.985 1.203,1.266 0.406,0.281 0.816,0.422 1.234,0.422 0.457,0 0.797,-0.117 1.016,-0.344 0.219,-0.23 0.328,-0.574 0.328,-1.031 v -0.11 c 0,-0.031 -0.008,-0.07 -0.015,-0.109 h 0.031 c 0.394,0.539 0.785,0.941 1.172,1.203 0.394,0.258 0.8,0.391 1.218,0.391 0.446,0 0.782,-0.125 1,-0.375 0.227,-0.242 0.344,-0.574 0.344,-1 0,-0.137 -0.023,-0.321 -0.062,-0.547 -0.043,-0.219 -0.094,-0.465 -0.157,-0.734 -0.062,-0.262 -0.132,-0.54 -0.203,-0.829 -0.074,-0.281 -0.14,-0.546 -0.203,-0.796 -0.043,-0.168 -0.074,-0.305 -0.094,-0.407 -0.023,-0.105 -0.043,-0.195 -0.062,-0.265 -0.012,-0.063 -0.016,-0.121 -0.016,-0.172 V 96.02 c 0,-0.156 0.024,-0.274 0.078,-0.344 0.063,-0.074 0.161,-0.109 0.297,-0.109 0.071,0 0.145,0.015 0.219,0.047 0.082,0.031 0.164,0.078 0.25,0.14 0.082,0.063 0.176,0.141 0.281,0.235 0.102,0.101 0.219,0.226 0.344,0.375 l 0.438,-0.422 c -0.2,-0.219 -0.387,-0.406 -0.563,-0.563 -0.18,-0.148 -0.351,-0.273 -0.516,-0.375 -0.156,-0.093 -0.32,-0.164 -0.484,-0.203 -0.156,-0.051 -0.324,-0.078 -0.5,-0.078 -0.168,0 -0.32,0.031 -0.453,0.094 -0.125,0.051 -0.234,0.129 -0.328,0.234 -0.086,0.102 -0.153,0.223 -0.203,0.36 -0.055,0.144 -0.078,0.3 -0.078,0.468 0,0.352 0.07,0.801 0.218,1.344 0.082,0.281 0.157,0.547 0.219,0.797 0.07,0.25 0.129,0.476 0.172,0.687 0.051,0.219 0.086,0.411 0.109,0.579 0.032,0.164 0.047,0.304 0.047,0.421 0,0.258 -0.054,0.446 -0.156,0.563 -0.094,0.125 -0.25,0.187 -0.469,0.187 -0.125,0 -0.265,-0.039 -0.422,-0.109 -0.148,-0.062 -0.293,-0.156 -0.437,-0.281 -0.149,-0.117 -0.293,-0.258 -0.438,-0.422 -0.148,-0.156 -0.281,-0.336 -0.406,-0.531 -0.125,-0.188 -0.234,-0.391 -0.328,-0.61 -0.094,-0.211 -0.168,-0.422 -0.219,-0.64 z"
         style="fill:#000000;fill-opacity:1;fill-rule:nonzero;stroke:none"
         id="path81254"
         inkscape:connector-curvature="0" /><path
         d="m 236.902,96.411 c -0.218,-0.305 -0.433,-0.563 -0.64,-0.782 -0.199,-0.211 -0.399,-0.383 -0.594,-0.515 -0.199,-0.137 -0.402,-0.235 -0.609,-0.297 -0.2,-0.063 -0.407,-0.094 -0.625,-0.094 -0.5,0 -0.891,0.176 -1.172,0.531 -0.274,0.364 -0.407,0.891 -0.407,1.578 0,0.414 0.04,0.813 0.125,1.188 0.094,0.383 0.219,0.738 0.375,1.062 0.157,0.332 0.344,0.633 0.563,0.907 0.219,0.281 0.457,0.515 0.719,0.703 0.269,0.195 0.551,0.347 0.843,0.453 0.301,0.113 0.61,0.172 0.922,0.172 0.332,0 0.625,-0.043 0.875,-0.125 0.258,-0.074 0.5,-0.18 0.719,-0.313 l 0.609,0.438 0.516,-0.141 -0.953,-4.156 c -0.063,-0.242 -0.105,-0.438 -0.125,-0.594 -0.023,-0.148 -0.031,-0.281 -0.031,-0.406 0,-0.156 0.031,-0.274 0.093,-0.344 0.071,-0.074 0.172,-0.109 0.297,-0.109 0.071,0 0.145,0.015 0.219,0.047 0.07,0.031 0.149,0.078 0.234,0.14 0.094,0.063 0.192,0.141 0.297,0.235 0.102,0.101 0.219,0.226 0.344,0.375 0.07,-0.075 0.145,-0.149 0.219,-0.219 0.07,-0.074 0.14,-0.141 0.203,-0.203 -0.211,-0.219 -0.402,-0.406 -0.578,-0.563 -0.168,-0.156 -0.336,-0.289 -0.5,-0.39 -0.168,-0.094 -0.328,-0.16 -0.485,-0.203 -0.156,-0.04 -0.32,-0.063 -0.484,-0.063 -0.305,0 -0.543,0.094 -0.719,0.281 -0.168,0.196 -0.25,0.469 -0.25,0.813 0,0.195 0.032,0.379 0.094,0.547 z m 0.422,2.015 c 0.051,0.258 0.094,0.492 0.125,0.703 0.039,0.219 0.063,0.422 0.063,0.61 0,0.343 -0.086,0.586 -0.25,0.734 -0.157,0.145 -0.407,0.219 -0.75,0.219 -0.25,0 -0.485,-0.059 -0.703,-0.172 -0.211,-0.117 -0.403,-0.266 -0.579,-0.453 -0.179,-0.188 -0.339,-0.406 -0.484,-0.656 -0.137,-0.25 -0.25,-0.516 -0.344,-0.797 -0.093,-0.282 -0.168,-0.571 -0.218,-0.86 -0.043,-0.293 -0.063,-0.574 -0.063,-0.843 0,-0.461 0.063,-0.805 0.188,-1.032 0.132,-0.218 0.343,-0.328 0.625,-0.328 0.144,0 0.285,0.024 0.421,0.078 0.133,0.051 0.274,0.133 0.422,0.25 0.375,0.289 0.692,0.645 0.953,1.063 0.258,0.414 0.458,0.91 0.594,1.484 z"
         style="fill:#000000;fill-opacity:1;fill-rule:nonzero;stroke:none"
         id="path81256"
         inkscape:connector-curvature="0" /><path
         d="m 243.563,97.895 c -0.075,0.351 -0.141,0.66 -0.204,0.922 -0.054,0.258 -0.105,0.484 -0.156,0.672 -0.055,0.187 -0.105,0.336 -0.156,0.453 -0.043,0.125 -0.09,0.222 -0.141,0.297 -0.043,0.07 -0.093,0.117 -0.156,0.14 -0.055,0.032 -0.117,0.051 -0.187,0.063 -0.075,0 -0.141,-0.016 -0.204,-0.047 -0.062,-0.024 -0.132,-0.063 -0.203,-0.125 -0.062,-0.055 -0.136,-0.133 -0.218,-0.234 -0.075,-0.106 -0.157,-0.247 -0.25,-0.422 l -0.5,0.328 c 0.175,0.25 0.332,0.461 0.468,0.64 0.145,0.188 0.285,0.332 0.422,0.438 0.133,0.101 0.274,0.176 0.422,0.219 0.156,0.05 0.328,0.078 0.516,0.078 0.238,0 0.429,-0.055 0.578,-0.156 0.144,-0.106 0.265,-0.258 0.359,-0.454 0.102,-0.187 0.188,-0.429 0.25,-0.718 0.063,-0.282 0.129,-0.606 0.203,-0.969 h 0.078 c 0.258,0.332 0.477,0.617 0.657,0.859 0.187,0.25 0.351,0.457 0.5,0.625 0.144,0.164 0.273,0.301 0.39,0.407 0.125,0.113 0.239,0.195 0.344,0.25 0.113,0.062 0.227,0.101 0.344,0.125 0.113,0.019 0.242,0.031 0.39,0.031 0.207,0 0.399,-0.043 0.579,-0.125 l -0.313,-1.25 h -0.531 c -0.012,0.187 -0.078,0.281 -0.203,0.281 -0.055,0 -0.106,-0.012 -0.157,-0.031 -0.054,-0.012 -0.121,-0.043 -0.203,-0.094 -0.074,-0.055 -0.164,-0.125 -0.265,-0.219 -0.094,-0.093 -0.211,-0.215 -0.344,-0.359 -0.137,-0.149 -0.293,-0.324 -0.469,-0.531 -0.168,-0.211 -0.367,-0.461 -0.594,-0.75 0.114,-0.586 0.211,-1.055 0.297,-1.407 0.082,-0.343 0.16,-0.609 0.235,-0.796 0.082,-0.188 0.16,-0.313 0.234,-0.375 0.07,-0.055 0.16,-0.079 0.266,-0.079 0.07,0 0.132,0.004 0.187,0.016 0.063,0.02 0.125,0.055 0.188,0.109 0.07,0.063 0.144,0.145 0.218,0.25 0.082,0.114 0.18,0.258 0.297,0.438 l 0.485,-0.313 c -0.188,-0.281 -0.356,-0.511 -0.5,-0.687 -0.149,-0.18 -0.289,-0.32 -0.422,-0.422 -0.137,-0.094 -0.278,-0.156 -0.422,-0.187 -0.149,-0.04 -0.309,-0.063 -0.484,-0.063 -0.168,0 -0.313,0.023 -0.438,0.063 -0.125,0.043 -0.234,0.125 -0.328,0.25 -0.063,0.07 -0.125,0.164 -0.188,0.281 -0.054,0.125 -0.105,0.254 -0.156,0.39 -0.043,0.133 -0.086,0.274 -0.125,0.422 -0.031,0.157 -0.062,0.301 -0.094,0.438 -0.023,0.133 -0.043,0.25 -0.062,0.344 -0.012,0.101 -0.016,0.179 -0.016,0.234 h -0.078 c -0.25,-0.336 -0.469,-0.633 -0.656,-0.891 -0.188,-0.25 -0.359,-0.465 -0.516,-0.64 -0.156,-0.18 -0.297,-0.325 -0.422,-0.438 -0.117,-0.117 -0.234,-0.211 -0.359,-0.281 -0.117,-0.063 -0.234,-0.102 -0.359,-0.125 -0.125,-0.031 -0.262,-0.047 -0.407,-0.047 -0.23,0 -0.421,0.039 -0.578,0.109 l 0.297,1.235 h 0.547 c 0.008,-0.188 0.078,-0.281 0.203,-0.281 0.051,0.007 0.098,0.019 0.141,0.031 0.039,0.008 0.086,0.035 0.14,0.078 0.063,0.039 0.141,0.101 0.235,0.187 0.094,0.094 0.207,0.211 0.344,0.36 0.144,0.156 0.316,0.347 0.515,0.578 0.207,0.238 0.453,0.531 0.735,0.875 z"
         style="fill:#000000;fill-opacity:1;fill-rule:nonzero;stroke:none"
         id="path81258"
         inkscape:connector-curvature="0" /><path
         d="m 148.441,83.563 66.45,61.348"
         style="fill:none;stroke:#c5590f;stroke-width:1.55999994;stroke-linecap:butt;stroke-linejoin:miter;stroke-miterlimit:10;stroke-dasharray:none;stroke-opacity:1"
         id="path81260"
         inkscape:connector-curvature="0" /><path
         d="m 213.543,147.852 c 0,2.25 1.848,4.082 4.137,4.082 2.293,0 4.14,-1.832 4.14,-4.082 0,-2.25 -1.847,-4.078 -4.14,-4.078 -2.289,0 -4.137,1.828 -4.137,4.078 z"
         style="fill:#000000;fill-opacity:1;fill-rule:evenodd;stroke:none"
         id="path81262"
         inkscape:connector-curvature="0" /><path
         d="m 144.902,84.793 c 0,2.289 1.848,4.141 4.141,4.141 2.289,0 4.137,-1.852 4.137,-4.141 0,-2.293 -1.848,-4.14 -4.137,-4.14 -2.293,0 -4.141,1.847 -4.141,4.14 z"
         style="fill:#000000;fill-opacity:1;fill-rule:evenodd;stroke:none"
         id="path81264"
         inkscape:connector-curvature="0" /><path
         d="M 97.52,56.231 H 50.402"
         style="fill:none;stroke:#aeabab;stroke-width:1.55999994;stroke-linecap:butt;stroke-linejoin:miter;stroke-miterlimit:10;stroke-dasharray:none;stroke-opacity:1"
         id="path81266"
         inkscape:connector-curvature="0" /><path
         d="M 43.68,56.231 H 54.59"
         style="fill:none;stroke:#000000;stroke-width:1.55999994;stroke-linecap:butt;stroke-linejoin:miter;stroke-miterlimit:10;stroke-dasharray:none;stroke-opacity:1"
         id="path81268"
         inkscape:connector-curvature="0" /><path
         d="m 445.859,31.485 v 169.367 h -1.558 V 31.485 Z m 3.391,163.758 -4.168,7.148 -4.172,-7.148 c -0.219,-0.372 -0.097,-0.852 0.281,-1.071 0.372,-0.218 0.852,-0.09 1.059,0.282 l 3.5,6 h -1.34 l 3.5,-6 c 0.211,-0.372 0.692,-0.5 1.063,-0.282 0.379,0.219 0.5,0.699 0.277,1.071 z"
         style="fill:#000000;fill-opacity:1;fill-rule:nonzero;stroke:none"
         id="path81270"
         inkscape:connector-curvature="0" /><path
         d="M 715.766,17.918 V 7.668 h -1.032 v 10.25 H 711.5 v 0.953 h 7.5 v -0.953 z"
         style="fill:#000000;fill-opacity:1;fill-rule:nonzero;stroke:none"
         id="path81272"
         inkscape:connector-curvature="0" /><path
         d="m 721.16,17.7 c -0.187,0 -0.355,0.066 -0.5,0.203 -0.137,0.133 -0.203,0.304 -0.203,0.515 0,0.196 0.066,0.364 0.203,0.5 0.145,0.133 0.313,0.203 0.5,0.203 0.102,0 0.195,-0.023 0.281,-0.062 0.094,-0.031 0.172,-0.078 0.235,-0.141 0.062,-0.062 0.113,-0.136 0.156,-0.218 0.039,-0.086 0.063,-0.18 0.063,-0.282 0,-0.105 -0.024,-0.203 -0.063,-0.297 -0.031,-0.085 -0.086,-0.156 -0.156,-0.218 -0.063,-0.063 -0.141,-0.117 -0.235,-0.157 C 721.355,17.715 721.262,17.7 721.16,17.7 Z M 720.676,7.668 v 8 h 1 v -8 z"
         style="fill:#000000;fill-opacity:1;fill-rule:nonzero;stroke:none"
         id="path81274"
         inkscape:connector-curvature="0" /><path
         d="m 734.297,7.668 v 4.703 c 0,0.477 -0.039,0.883 -0.109,1.219 -0.075,0.332 -0.188,0.602 -0.344,0.813 -0.149,0.207 -0.34,0.359 -0.578,0.453 -0.243,0.094 -0.524,0.14 -0.844,0.14 -0.293,0 -0.57,-0.074 -0.828,-0.218 -0.262,-0.137 -0.492,-0.324 -0.688,-0.563 -0.199,-0.242 -0.355,-0.527 -0.468,-0.859 -0.106,-0.324 -0.157,-0.68 -0.157,-1.063 V 7.668 h -1 v 4.813 c 0,1.676 -0.648,2.515 -1.937,2.515 -0.293,0 -0.571,-0.07 -0.828,-0.203 -0.25,-0.136 -0.477,-0.324 -0.672,-0.562 -0.188,-0.242 -0.336,-0.527 -0.438,-0.86 -0.105,-0.335 -0.156,-0.703 -0.156,-1.109 V 7.668 h -1 v 8 h 1 v -1.297 h 0.031 c 0.563,0.989 1.379,1.485 2.453,1.485 0.282,0 0.547,-0.043 0.797,-0.125 0.25,-0.086 0.473,-0.203 0.672,-0.36 0.195,-0.156 0.367,-0.343 0.516,-0.562 0.144,-0.211 0.254,-0.438 0.328,-0.688 0.281,0.563 0.644,0.989 1.094,1.282 0.445,0.301 0.957,0.453 1.531,0.453 1.75,0 2.625,-1.086 2.625,-3.25 V 7.668 Z"
         style="fill:#000000;fill-opacity:1;fill-rule:nonzero;stroke:none"
         id="path81276"
         inkscape:connector-curvature="0" /><path
         d="m 738.172,11.496 c 0.008,-0.492 0.078,-0.933 0.203,-1.328 0.125,-0.386 0.301,-0.714 0.531,-0.984 0.239,-0.273 0.524,-0.48 0.86,-0.625 0.332,-0.148 0.711,-0.219 1.14,-0.219 0.895,0 1.742,0.317 2.547,0.953 V 8.309 c -0.762,-0.555 -1.687,-0.828 -2.781,-0.828 -0.531,0 -1.016,0.094 -1.453,0.281 -0.438,0.188 -0.813,0.457 -1.125,0.813 -0.305,0.363 -0.539,0.804 -0.703,1.328 -0.168,0.519 -0.25,1.113 -0.25,1.781 0,0.594 0.086,1.145 0.265,1.656 0.188,0.508 0.442,0.953 0.766,1.328 0.32,0.375 0.703,0.664 1.141,0.875 0.445,0.207 0.929,0.313 1.453,0.313 0.519,0 0.976,-0.09 1.375,-0.266 0.394,-0.179 0.722,-0.433 0.984,-0.765 0.27,-0.336 0.473,-0.743 0.609,-1.219 0.145,-0.481 0.219,-1.016 0.219,-1.61 v -0.5 z m 4.75,0.875 c -0.012,0.833 -0.211,1.477 -0.594,1.938 -0.375,0.457 -0.902,0.687 -1.578,0.687 -0.344,0 -0.664,-0.062 -0.953,-0.187 -0.281,-0.117 -0.531,-0.289 -0.75,-0.516 -0.219,-0.23 -0.402,-0.507 -0.547,-0.828 -0.148,-0.324 -0.246,-0.687 -0.297,-1.094 z"
         style="fill:#000000;fill-opacity:1;fill-rule:nonzero;stroke:none"
         id="path81278"
         inkscape:connector-curvature="0" /><path
         d="m 377.652,61.594 c 1.399,0 2.434,-0.262 3.11,-0.781 0.679,-0.512 1.015,-1.242 1.015,-2.188 0,-0.179 -0.011,-0.351 -0.031,-0.515 -0.023,-0.156 -0.058,-0.305 -0.109,-0.438 h -1.032 c 0.157,0.289 0.235,0.614 0.235,0.969 0,0.664 -0.258,1.148 -0.781,1.453 -0.52,0.301 -1.321,0.453 -2.407,0.453 h -7.265 v 1.047 z"
         style="fill:#000000;fill-opacity:1;fill-rule:nonzero;stroke:none"
         id="path81280"
         inkscape:connector-curvature="0" /><path
         d="m 381.777,67.504 c 0,-0.593 -0.101,-1.125 -0.297,-1.593 -0.195,-0.469 -0.476,-0.872 -0.843,-1.204 -0.364,-0.336 -0.797,-0.589 -1.297,-0.765 -0.508,-0.18 -1.07,-0.266 -1.688,-0.266 -0.664,0 -1.257,0.094 -1.781,0.281 -0.531,0.188 -0.976,0.454 -1.344,0.797 -0.363,0.344 -0.64,0.758 -0.828,1.25 -0.195,0.489 -0.297,1.035 -0.297,1.641 0,0.582 0.094,1.101 0.282,1.562 0.187,0.469 0.464,0.864 0.828,1.188 0.355,0.32 0.793,0.566 1.312,0.734 0.512,0.176 1.094,0.266 1.75,0.266 0.625,0 1.199,-0.094 1.719,-0.281 0.512,-0.18 0.953,-0.434 1.328,-0.766 0.367,-0.336 0.652,-0.742 0.859,-1.219 0.196,-0.48 0.297,-1.023 0.297,-1.625 z m -7.515,0.078 c 0,-0.437 0.078,-0.836 0.234,-1.187 0.149,-0.356 0.367,-0.656 0.656,-0.906 0.293,-0.25 0.649,-0.446 1.063,-0.578 0.418,-0.137 0.89,-0.204 1.422,-0.204 0.5,0 0.953,0.067 1.359,0.204 0.399,0.132 0.742,0.32 1.031,0.562 0.282,0.25 0.5,0.551 0.657,0.906 0.156,0.352 0.234,0.75 0.234,1.188 0,0.445 -0.07,0.844 -0.219,1.187 -0.156,0.344 -0.375,0.633 -0.656,0.875 -0.281,0.239 -0.625,0.422 -1.031,0.547 -0.414,0.125 -0.891,0.188 -1.422,0.188 -1.07,0 -1.895,-0.243 -2.469,-0.719 -0.57,-0.481 -0.859,-1.168 -0.859,-2.063 z"
         style="fill:#000000;fill-opacity:1;fill-rule:nonzero;stroke:none"
         id="path81282"
         inkscape:connector-curvature="0" /><path
         d="m 371.559,73.821 c 0,-0.188 -0.067,-0.356 -0.204,-0.5 -0.132,-0.137 -0.304,-0.203 -0.515,-0.203 -0.195,0 -0.363,0.066 -0.5,0.203 -0.133,0.144 -0.203,0.312 -0.203,0.5 0,0.101 0.023,0.195 0.062,0.281 0.031,0.094 0.078,0.172 0.141,0.234 0.062,0.063 0.137,0.114 0.219,0.157 0.086,0.039 0.179,0.062 0.281,0.062 0.105,0 0.203,-0.023 0.297,-0.062 0.086,-0.032 0.156,-0.086 0.218,-0.157 0.063,-0.062 0.118,-0.14 0.157,-0.234 0.031,-0.086 0.047,-0.18 0.047,-0.281 z m 10.031,-0.485 h -8 v 1 h 8 z"
         style="fill:#000000;fill-opacity:1;fill-rule:nonzero;stroke:none"
         id="path81284"
         inkscape:connector-curvature="0" /><path
         d="m 381.59,82.301 h -4.61 c -1.812,0 -2.718,-0.656 -2.718,-1.969 0,-0.343 0.074,-0.668 0.218,-0.968 0.137,-0.293 0.329,-0.547 0.579,-0.766 0.242,-0.219 0.527,-0.391 0.859,-0.516 0.336,-0.117 0.699,-0.171 1.094,-0.171 h 4.578 v -1 h -8 v 1 h 1.39 v 0.031 c -1.05,0.594 -1.578,1.484 -1.578,2.672 0,0.875 0.289,1.539 0.86,2 0.562,0.457 1.383,0.687 2.453,0.687 h 4.875 z"
         style="fill:#000000;fill-opacity:1;fill-rule:nonzero;stroke:none"
         id="path81286"
         inkscape:connector-curvature="0" /><path
         d="m 381.496,89.129 c 0.176,-0.343 0.266,-0.718 0.266,-1.125 0,-1.293 -0.75,-1.937 -2.25,-1.937 h -5.047 v -1.406 h -0.875 v 1.406 h -2.016 l -0.328,1 h 2.344 v 2.062 h 0.875 v -2.062 h 4.89 c 0.543,0 0.934,0.086 1.172,0.265 0.243,0.176 0.36,0.473 0.36,0.891 0,0.313 -0.094,0.613 -0.282,0.906 z"
         style="fill:#000000;fill-opacity:1;fill-rule:nonzero;stroke:none"
         id="path81288"
         inkscape:connector-curvature="0" /><path
         d="m 381.59,98.125 v -0.953 l -8,-3.062 v 1.109 l 6.094,2.203 c 0.367,0.133 0.687,0.223 0.968,0.266 v 0.031 c -0.375,0.063 -0.687,0.141 -0.937,0.235 l -6.125,2.296 v 1.063 z"
         style="fill:#000000;fill-opacity:1;fill-rule:nonzero;stroke:none"
         id="path81290"
         inkscape:connector-curvature="0" /><path
         d="m 377.762,103.075 c 0.492,0.007 0.933,0.078 1.328,0.203 0.387,0.125 0.715,0.301 0.984,0.531 0.274,0.238 0.481,0.523 0.625,0.859 0.149,0.332 0.219,0.711 0.219,1.141 0,0.895 -0.316,1.742 -0.953,2.547 h 0.984 c 0.555,-0.762 0.828,-1.688 0.828,-2.781 0,-0.532 -0.093,-1.016 -0.281,-1.454 -0.187,-0.437 -0.457,-0.812 -0.812,-1.125 -0.364,-0.304 -0.805,-0.539 -1.329,-0.703 -0.519,-0.168 -1.113,-0.25 -1.781,-0.25 -0.594,0 -1.144,0.086 -1.656,0.266 -0.508,0.187 -0.953,0.441 -1.328,0.766 -0.375,0.32 -0.664,0.703 -0.875,1.14 -0.207,0.446 -0.313,0.93 -0.313,1.453 0,0.52 0.09,0.977 0.266,1.375 0.18,0.395 0.434,0.723 0.766,0.985 0.336,0.269 0.742,0.472 1.218,0.609 0.481,0.145 1.016,0.219 1.61,0.219 h 0.5 z m -0.875,4.75 c -0.832,-0.012 -1.477,-0.211 -1.938,-0.594 -0.457,-0.375 -0.687,-0.902 -0.687,-1.578 0,-0.344 0.062,-0.664 0.187,-0.953 0.117,-0.282 0.289,-0.532 0.516,-0.75 0.23,-0.219 0.508,-0.403 0.828,-0.547 0.324,-0.149 0.687,-0.246 1.094,-0.297 z"
         style="fill:#000000;fill-opacity:1;fill-rule:nonzero;stroke:none"
         id="path81292"
         inkscape:connector-curvature="0" /><path
         d="m 369.746,111.813 h 11.844 v -1 h -11.844 z"
         style="fill:#000000;fill-opacity:1;fill-rule:nonzero;stroke:none"
         id="path81294"
         inkscape:connector-curvature="0" /><path
         d="m 381.777,117.653 c 0,-0.594 -0.101,-1.125 -0.297,-1.594 -0.195,-0.469 -0.476,-0.871 -0.843,-1.203 -0.364,-0.336 -0.797,-0.59 -1.297,-0.766 -0.508,-0.179 -1.07,-0.265 -1.688,-0.265 -0.664,0 -1.257,0.093 -1.781,0.281 -0.531,0.187 -0.976,0.453 -1.344,0.797 -0.363,0.343 -0.64,0.758 -0.828,1.25 -0.195,0.488 -0.297,1.035 -0.297,1.64 0,0.582 0.094,1.102 0.282,1.563 0.187,0.469 0.464,0.863 0.828,1.187 0.355,0.321 0.793,0.567 1.312,0.735 0.512,0.176 1.094,0.265 1.75,0.265 0.625,0 1.199,-0.093 1.719,-0.281 0.512,-0.18 0.953,-0.433 1.328,-0.766 0.367,-0.335 0.652,-0.742 0.859,-1.218 0.196,-0.481 0.297,-1.024 0.297,-1.625 z m -7.515,0.078 c 0,-0.438 0.078,-0.836 0.234,-1.188 0.149,-0.355 0.367,-0.656 0.656,-0.906 0.293,-0.25 0.649,-0.445 1.063,-0.578 0.418,-0.137 0.89,-0.203 1.422,-0.203 0.5,0 0.953,0.066 1.359,0.203 0.399,0.133 0.742,0.32 1.031,0.562 0.282,0.25 0.5,0.551 0.657,0.907 0.156,0.351 0.234,0.75 0.234,1.187 0,0.446 -0.07,0.844 -0.219,1.188 -0.156,0.343 -0.375,0.633 -0.656,0.875 -0.281,0.238 -0.625,0.422 -1.031,0.547 -0.414,0.125 -0.891,0.187 -1.422,0.187 -1.07,0 -1.895,-0.242 -2.469,-0.719 -0.57,-0.48 -0.859,-1.168 -0.859,-2.062 z"
         style="fill:#000000;fill-opacity:1;fill-rule:nonzero;stroke:none"
         id="path81296"
         inkscape:connector-curvature="0" /><path
         d="m 381.23,128.844 c 0.364,-0.594 0.551,-1.312 0.563,-2.156 0,-0.574 -0.102,-1.09 -0.297,-1.547 -0.207,-0.461 -0.492,-0.852 -0.859,-1.172 -0.364,-0.324 -0.789,-0.574 -1.282,-0.75 -0.488,-0.168 -1.023,-0.25 -1.609,-0.25 -0.594,0 -1.156,0.086 -1.687,0.266 -0.532,0.187 -0.989,0.453 -1.375,0.797 -0.395,0.351 -0.707,0.781 -0.938,1.281 -0.226,0.508 -0.344,1.094 -0.344,1.75 0,0.656 0.125,1.258 0.375,1.812 h 1.063 c -0.383,-0.586 -0.578,-1.214 -0.578,-1.89 0,-0.481 0.093,-0.906 0.281,-1.281 0.18,-0.368 0.422,-0.672 0.734,-0.922 0.305,-0.25 0.664,-0.446 1.078,-0.578 0.418,-0.137 0.856,-0.204 1.313,-0.204 0.43,0 0.84,0.055 1.234,0.172 0.387,0.114 0.731,0.285 1.032,0.516 0.304,0.226 0.543,0.519 0.718,0.875 0.18,0.351 0.266,0.769 0.266,1.25 0,0.75 -0.223,1.426 -0.672,2.031 z"
         style="fill:#000000;fill-opacity:1;fill-rule:nonzero;stroke:none"
         id="path81298"
         inkscape:connector-curvature="0" /><path
         d="m 371.559,131.164 c 0,-0.187 -0.067,-0.355 -0.204,-0.5 -0.132,-0.136 -0.304,-0.203 -0.515,-0.203 -0.195,0 -0.363,0.067 -0.5,0.203 -0.133,0.145 -0.203,0.313 -0.203,0.5 0,0.102 0.023,0.196 0.062,0.282 0.031,0.093 0.078,0.172 0.141,0.234 0.062,0.063 0.137,0.113 0.219,0.156 0.086,0.039 0.179,0.063 0.281,0.063 0.105,0 0.203,-0.024 0.297,-0.063 0.086,-0.031 0.156,-0.086 0.218,-0.156 0.063,-0.062 0.118,-0.141 0.157,-0.234 0.031,-0.086 0.047,-0.18 0.047,-0.282 z m 10.031,-0.484 h -8 v 1 h 8 z"
         style="fill:#000000;fill-opacity:1;fill-rule:nonzero;stroke:none"
         id="path81300"
         inkscape:connector-curvature="0" /><path
         d="m 381.496,137.692 c 0.176,-0.344 0.266,-0.719 0.266,-1.125 0,-1.293 -0.75,-1.938 -2.25,-1.938 h -5.047 v -1.406 h -0.875 v 1.406 h -2.016 l -0.328,1 h 2.344 v 2.063 h 0.875 v -2.063 h 4.89 c 0.543,0 0.934,0.086 1.172,0.266 0.243,0.176 0.36,0.473 0.36,0.891 0,0.312 -0.094,0.613 -0.282,0.906 z"
         style="fill:#000000;fill-opacity:1;fill-rule:nonzero;stroke:none"
         id="path81302"
         inkscape:connector-curvature="0" /><path
         d="m 383.043,141.645 c 0.781,-0.313 1.359,-0.672 1.734,-1.078 0.383,-0.406 0.578,-0.899 0.578,-1.469 0,-0.293 -0.039,-0.539 -0.109,-0.734 h -0.937 c 0.039,0.113 0.07,0.226 0.093,0.343 0.02,0.125 0.032,0.243 0.032,0.36 0,0.332 -0.106,0.617 -0.313,0.859 -0.199,0.238 -0.508,0.445 -0.922,0.625 l -1.656,0.703 -7.953,-3.078 v 1.11 l 6.328,2.281 c 0.086,0.031 0.184,0.062 0.297,0.094 0.105,0.031 0.211,0.054 0.312,0.078 v 0.047 c -0.093,0.019 -0.179,0.039 -0.265,0.062 -0.094,0.031 -0.196,0.066 -0.313,0.109 l -6.359,2.422 v 1.063 z"
         style="fill:#000000;fill-opacity:1;fill-rule:nonzero;stroke:none"
         id="path81304"
         inkscape:connector-curvature="0" /><path
         d="m 369.199,156.094 c 0,-0.25 -0.082,-0.457 -0.25,-0.625 -0.176,-0.164 -0.398,-0.25 -0.672,-0.25 -0.257,0 -0.476,0.086 -0.656,0.25 -0.176,0.168 -0.266,0.375 -0.266,0.625 0,0.242 0.09,0.445 0.266,0.61 0.18,0.167 0.399,0.25 0.656,0.25 0.274,0 0.496,-0.083 0.672,-0.25 0.168,-0.165 0.25,-0.368 0.25,-0.61 z"
         style="fill:#000000;fill-opacity:1;fill-rule:nonzero;stroke:none"
         id="path81306"
         inkscape:connector-curvature="0" /><path
         d="m 381.715,153.504 c 0,-0.773 -0.235,-1.351 -0.703,-1.734 -0.477,-0.375 -1.192,-0.563 -2.141,-0.563 -0.519,0 -1.156,0.055 -1.906,0.172 -0.758,0.114 -1.531,0.301 -2.313,0.563 -0.789,0.258 -1.492,0.597 -2.109,1.015 -0.613,0.414 -1.082,0.891 -1.406,1.422 -0.332,0.539 -0.5,1.129 -0.5,1.766 0,1.508 0.961,2.266 2.875,2.266 0.543,0 1.187,-0.063 1.937,-0.188 0.75,-0.125 1.516,-0.324 2.297,-0.594 0.781,-0.261 1.477,-0.593 2.078,-1 0.606,-0.406 1.074,-0.875 1.406,-1.406 0.325,-0.531 0.485,-1.105 0.485,-1.719 z m -5.985,-0.468 v 3.734 c -1.093,0.25 -2.035,0.375 -2.828,0.375 -0.55,0 -0.961,-0.09 -1.234,-0.266 -0.27,-0.179 -0.406,-0.453 -0.406,-0.828 0,-0.617 0.386,-1.183 1.156,-1.703 0.773,-0.512 1.875,-0.949 3.312,-1.312 z m 0.797,3.562 v -3.75 c 1.137,-0.25 2.09,-0.375 2.86,-0.375 0.586,0 1.011,0.086 1.281,0.266 0.273,0.175 0.406,0.461 0.406,0.859 0,0.582 -0.39,1.133 -1.172,1.656 -0.781,0.532 -1.906,0.977 -3.375,1.344 z"
         style="fill:#000000;fill-opacity:1;fill-rule:nonzero;stroke:none"
         id="path81308"
         inkscape:connector-curvature="0" /><path
         d="m 439.32,122.114 h 10.91"
         style="fill:none;stroke:#000000;stroke-width:1.55999994;stroke-linecap:butt;stroke-linejoin:miter;stroke-miterlimit:10;stroke-dasharray:none;stroke-opacity:1"
         id="path81310"
         inkscape:connector-curvature="0" /><path
         d="m 399.043,121.227 c -0.168,0 -0.309,0.047 -0.422,0.141 -0.117,0.082 -0.211,0.203 -0.281,0.359 -0.063,0.156 -0.11,0.336 -0.141,0.547 -0.031,0.207 -0.047,0.437 -0.047,0.687 0,0.332 0.02,0.688 0.063,1.063 0.039,0.383 0.094,0.773 0.156,1.172 l 0.375,2.422 c 0.02,0.144 0.035,0.281 0.047,0.406 0.02,0.125 0.031,0.219 0.031,0.281 0,0.176 -0.031,0.32 -0.094,0.438 -0.062,0.125 -0.164,0.187 -0.296,0.187 -0.118,0 -0.243,-0.039 -0.375,-0.109 -0.125,-0.063 -0.258,-0.153 -0.391,-0.266 -0.125,-0.105 -0.25,-0.219 -0.375,-0.344 -0.117,-0.117 -0.23,-0.226 -0.344,-0.328 l -0.422,0.5 c 0.188,0.188 0.379,0.367 0.578,0.547 0.208,0.188 0.426,0.352 0.657,0.5 0.226,0.156 0.468,0.274 0.718,0.359 0.25,0.094 0.508,0.141 0.782,0.141 0.218,0 0.394,-0.039 0.531,-0.109 0.145,-0.075 0.254,-0.172 0.328,-0.297 0.082,-0.117 0.141,-0.246 0.172,-0.391 0.031,-0.137 0.047,-0.277 0.047,-0.422 0,-0.086 -0.008,-0.164 -0.016,-0.234 0,-0.074 -0.008,-0.148 -0.015,-0.219 l -0.5,-3.172 c -0.055,-0.336 -0.102,-0.664 -0.141,-0.984 -0.031,-0.324 -0.047,-0.606 -0.047,-0.844 0,-0.25 0.016,-0.453 0.047,-0.609 0.031,-0.149 0.086,-0.219 0.172,-0.219 0.187,0 0.426,0.078 0.719,0.234 0.3,0.157 0.613,0.368 0.937,0.641 0.32,0.27 0.641,0.594 0.953,0.969 0.321,0.375 0.614,0.773 0.875,1.203 0.258,0.437 0.469,0.894 0.625,1.375 0.164,0.477 0.25,0.961 0.25,1.453 0,0.207 -0.047,0.367 -0.14,0.484 -0.094,0.114 -0.235,0.172 -0.422,0.172 -0.25,0 -0.481,-0.101 -0.688,-0.297 -0.211,-0.187 -0.422,-0.433 -0.64,-0.734 l -0.5,0.438 c 0.132,0.207 0.296,0.41 0.484,0.609 0.195,0.195 0.398,0.367 0.609,0.516 0.219,0.144 0.442,0.257 0.672,0.343 0.227,0.094 0.453,0.141 0.672,0.141 0.414,0 0.719,-0.117 0.906,-0.344 0.188,-0.219 0.282,-0.512 0.282,-0.875 0,-0.281 -0.055,-0.605 -0.157,-0.969 -0.093,-0.367 -0.234,-0.75 -0.422,-1.156 -0.179,-0.398 -0.39,-0.808 -0.64,-1.234 -0.25,-0.43 -0.531,-0.844 -0.844,-1.25 -0.305,-0.399 -0.625,-0.774 -0.969,-1.125 -0.343,-0.356 -0.703,-0.668 -1.078,-0.938 -0.367,-0.261 -0.742,-0.468 -1.125,-0.625 -0.386,-0.156 -0.773,-0.234 -1.156,-0.234 z"
         style="fill:#000000;fill-opacity:1;fill-rule:nonzero;stroke:none"
         id="path81312"
         inkscape:connector-curvature="0" /><path
         d="m 410.742,117.661 h -1.234 c 0.051,0.269 0.113,0.562 0.187,0.875 0.082,0.312 0.16,0.625 0.235,0.937 0.07,0.32 0.144,0.633 0.218,0.938 0.071,0.312 0.133,0.601 0.188,0.875 0.051,0.269 0.094,0.507 0.125,0.718 0.039,0.219 0.062,0.391 0.062,0.516 0,0.258 -0.054,0.453 -0.156,0.578 -0.105,0.125 -0.273,0.188 -0.5,0.188 -0.211,0 -0.429,-0.079 -0.656,-0.235 -0.231,-0.148 -0.449,-0.344 -0.656,-0.594 -0.211,-0.242 -0.399,-0.515 -0.563,-0.828 -0.168,-0.312 -0.289,-0.633 -0.359,-0.953 l -0.641,-3.015 h -1.25 l 0.953,4.14 c 0.051,0.227 0.086,0.426 0.11,0.594 0.031,0.164 0.047,0.305 0.047,0.422 0,0.312 -0.125,0.469 -0.375,0.469 -0.075,0 -0.153,-0.024 -0.235,-0.063 -0.074,-0.031 -0.156,-0.078 -0.25,-0.141 -0.086,-0.062 -0.179,-0.14 -0.281,-0.234 -0.094,-0.094 -0.203,-0.211 -0.328,-0.344 l -0.438,0.407 c 0.207,0.218 0.395,0.398 0.563,0.546 0.176,0.157 0.347,0.282 0.515,0.375 0.165,0.102 0.329,0.18 0.485,0.235 0.156,0.051 0.316,0.078 0.484,0.078 0.313,0 0.551,-0.106 0.719,-0.313 0.176,-0.211 0.266,-0.48 0.266,-0.812 0,-0.094 -0.012,-0.188 -0.032,-0.281 -0.011,-0.086 -0.031,-0.168 -0.062,-0.25 l 0.078,-0.032 c 0.406,0.563 0.805,0.985 1.203,1.266 0.406,0.281 0.816,0.422 1.234,0.422 0.457,0 0.797,-0.117 1.016,-0.344 0.219,-0.23 0.328,-0.574 0.328,-1.031 v -0.109 c 0,-0.032 -0.008,-0.071 -0.015,-0.11 h 0.031 c 0.394,0.539 0.785,0.942 1.172,1.203 0.394,0.258 0.8,0.391 1.218,0.391 0.446,0 0.782,-0.125 1,-0.375 0.227,-0.242 0.344,-0.574 0.344,-1 0,-0.137 -0.023,-0.32 -0.062,-0.547 -0.043,-0.219 -0.094,-0.465 -0.157,-0.734 -0.062,-0.262 -0.132,-0.539 -0.203,-0.828 -0.074,-0.282 -0.14,-0.547 -0.203,-0.797 -0.043,-0.168 -0.074,-0.305 -0.094,-0.407 -0.023,-0.105 -0.043,-0.195 -0.062,-0.265 -0.012,-0.063 -0.016,-0.121 -0.016,-0.172 v -0.172 c 0,-0.156 0.024,-0.273 0.078,-0.344 0.063,-0.074 0.161,-0.109 0.297,-0.109 0.071,0 0.145,0.016 0.219,0.047 0.082,0.031 0.164,0.078 0.25,0.14 0.082,0.063 0.176,0.141 0.281,0.235 0.102,0.101 0.219,0.226 0.344,0.375 l 0.438,-0.422 c -0.2,-0.219 -0.387,-0.406 -0.563,-0.563 -0.18,-0.148 -0.351,-0.273 -0.516,-0.375 -0.156,-0.093 -0.32,-0.164 -0.484,-0.203 -0.156,-0.05 -0.324,-0.078 -0.5,-0.078 -0.168,0 -0.32,0.031 -0.453,0.094 -0.125,0.051 -0.234,0.129 -0.328,0.234 -0.086,0.102 -0.153,0.223 -0.203,0.36 -0.055,0.144 -0.078,0.3 -0.078,0.468 0,0.352 0.07,0.801 0.218,1.344 0.082,0.281 0.157,0.547 0.219,0.797 0.07,0.25 0.129,0.477 0.172,0.688 0.051,0.218 0.086,0.41 0.109,0.578 0.032,0.164 0.047,0.304 0.047,0.422 0,0.257 -0.054,0.445 -0.156,0.562 -0.094,0.125 -0.25,0.188 -0.469,0.188 -0.125,0 -0.265,-0.04 -0.422,-0.11 -0.148,-0.062 -0.293,-0.156 -0.437,-0.281 -0.149,-0.117 -0.293,-0.258 -0.438,-0.422 -0.148,-0.156 -0.281,-0.336 -0.406,-0.531 -0.125,-0.188 -0.234,-0.391 -0.328,-0.61 -0.094,-0.211 -0.168,-0.421 -0.219,-0.64 z"
         style="fill:#000000;fill-opacity:1;fill-rule:nonzero;stroke:none"
         id="path81314"
         inkscape:connector-curvature="0" /><path
         d="m 421.898,119.239 c -0.218,-0.305 -0.433,-0.563 -0.64,-0.782 -0.199,-0.211 -0.399,-0.382 -0.594,-0.515 -0.199,-0.137 -0.402,-0.235 -0.609,-0.297 -0.2,-0.063 -0.407,-0.094 -0.625,-0.094 -0.5,0 -0.891,0.176 -1.172,0.531 -0.274,0.364 -0.406,0.891 -0.406,1.579 0,0.414 0.039,0.812 0.125,1.187 0.093,0.383 0.218,0.738 0.375,1.063 0.156,0.332 0.343,0.632 0.562,0.906 0.219,0.281 0.457,0.515 0.719,0.703 0.269,0.195 0.551,0.348 0.844,0.453 0.3,0.113 0.609,0.172 0.921,0.172 0.332,0 0.625,-0.043 0.875,-0.125 0.258,-0.074 0.5,-0.18 0.719,-0.313 l 0.61,0.438 0.515,-0.141 -0.953,-4.156 c -0.062,-0.242 -0.105,-0.437 -0.125,-0.594 -0.023,-0.148 -0.031,-0.281 -0.031,-0.406 0,-0.156 0.031,-0.273 0.094,-0.344 0.07,-0.074 0.171,-0.109 0.296,-0.109 0.071,0 0.145,0.016 0.219,0.047 0.071,0.031 0.149,0.078 0.235,0.14 0.093,0.063 0.191,0.141 0.296,0.235 0.102,0.101 0.219,0.226 0.344,0.375 0.071,-0.074 0.145,-0.149 0.219,-0.219 0.07,-0.074 0.141,-0.141 0.203,-0.203 -0.211,-0.219 -0.402,-0.406 -0.578,-0.563 -0.168,-0.156 -0.336,-0.289 -0.5,-0.39 -0.168,-0.094 -0.328,-0.16 -0.484,-0.203 -0.157,-0.039 -0.321,-0.063 -0.485,-0.063 -0.304,0 -0.543,0.094 -0.719,0.281 -0.168,0.196 -0.25,0.469 -0.25,0.813 0,0.195 0.032,0.379 0.094,0.547 z m 0.422,2.015 c 0.051,0.258 0.094,0.492 0.125,0.703 0.039,0.219 0.063,0.422 0.063,0.61 0,0.344 -0.086,0.586 -0.25,0.734 -0.156,0.145 -0.406,0.219 -0.75,0.219 -0.25,0 -0.485,-0.059 -0.703,-0.172 -0.211,-0.117 -0.403,-0.266 -0.578,-0.453 -0.18,-0.188 -0.34,-0.406 -0.485,-0.656 -0.137,-0.25 -0.25,-0.516 -0.344,-0.797 -0.093,-0.281 -0.168,-0.571 -0.218,-0.86 -0.043,-0.293 -0.063,-0.574 -0.063,-0.843 0,-0.461 0.063,-0.805 0.188,-1.032 0.133,-0.218 0.343,-0.328 0.625,-0.328 0.144,0 0.285,0.024 0.422,0.078 0.132,0.051 0.273,0.133 0.421,0.25 0.375,0.289 0.692,0.645 0.954,1.063 0.257,0.414 0.457,0.91 0.593,1.484 z"
         style="fill:#000000;fill-opacity:1;fill-rule:nonzero;stroke:none"
         id="path81316"
         inkscape:connector-curvature="0" /><path
         d="m 428.559,120.723 c -0.075,0.352 -0.141,0.66 -0.204,0.922 -0.054,0.258 -0.105,0.484 -0.156,0.672 -0.054,0.187 -0.105,0.336 -0.156,0.453 -0.043,0.125 -0.09,0.223 -0.141,0.297 -0.043,0.07 -0.093,0.117 -0.156,0.14 -0.055,0.032 -0.117,0.051 -0.187,0.063 -0.075,0 -0.141,-0.016 -0.204,-0.047 -0.062,-0.023 -0.132,-0.062 -0.203,-0.125 -0.062,-0.055 -0.136,-0.133 -0.218,-0.234 -0.075,-0.106 -0.157,-0.246 -0.25,-0.422 l -0.5,0.328 c 0.175,0.25 0.332,0.461 0.468,0.641 0.145,0.187 0.286,0.332 0.422,0.437 0.133,0.102 0.274,0.176 0.422,0.219 0.156,0.051 0.328,0.078 0.516,0.078 0.238,0 0.429,-0.055 0.578,-0.156 0.144,-0.106 0.265,-0.258 0.359,-0.453 0.102,-0.188 0.188,-0.43 0.25,-0.719 0.063,-0.281 0.129,-0.606 0.203,-0.969 h 0.078 c 0.258,0.332 0.477,0.617 0.657,0.859 0.187,0.25 0.351,0.457 0.5,0.625 0.144,0.164 0.273,0.301 0.39,0.407 0.125,0.113 0.239,0.195 0.344,0.25 0.113,0.062 0.227,0.101 0.344,0.125 0.113,0.019 0.242,0.031 0.39,0.031 0.208,0 0.399,-0.043 0.579,-0.125 l -0.313,-1.25 h -0.531 c -0.012,0.187 -0.078,0.281 -0.203,0.281 -0.055,0 -0.106,-0.012 -0.157,-0.031 -0.054,-0.012 -0.121,-0.043 -0.203,-0.094 -0.074,-0.055 -0.164,-0.125 -0.265,-0.219 -0.094,-0.093 -0.211,-0.214 -0.344,-0.359 -0.137,-0.148 -0.293,-0.324 -0.469,-0.531 -0.168,-0.211 -0.367,-0.461 -0.594,-0.75 0.114,-0.586 0.211,-1.055 0.297,-1.406 0.082,-0.344 0.161,-0.61 0.235,-0.797 0.082,-0.188 0.16,-0.313 0.234,-0.375 0.07,-0.055 0.16,-0.078 0.266,-0.078 0.07,0 0.133,0.003 0.187,0.015 0.063,0.02 0.125,0.055 0.188,0.11 0.07,0.062 0.144,0.144 0.218,0.25 0.083,0.113 0.18,0.257 0.297,0.437 l 0.485,-0.312 c -0.188,-0.282 -0.356,-0.512 -0.5,-0.688 -0.149,-0.18 -0.289,-0.32 -0.422,-0.422 -0.137,-0.094 -0.277,-0.156 -0.422,-0.187 -0.148,-0.039 -0.309,-0.063 -0.484,-0.063 -0.168,0 -0.313,0.024 -0.438,0.063 -0.125,0.043 -0.234,0.125 -0.328,0.25 -0.063,0.07 -0.125,0.164 -0.188,0.281 -0.054,0.125 -0.105,0.254 -0.156,0.391 -0.043,0.132 -0.086,0.273 -0.125,0.421 -0.031,0.157 -0.062,0.301 -0.094,0.438 -0.023,0.133 -0.042,0.25 -0.062,0.344 -0.012,0.101 -0.016,0.179 -0.016,0.234 h -0.078 c -0.25,-0.336 -0.469,-0.633 -0.656,-0.891 -0.188,-0.25 -0.359,-0.464 -0.516,-0.64 -0.156,-0.18 -0.297,-0.324 -0.422,-0.438 -0.117,-0.117 -0.234,-0.211 -0.359,-0.281 -0.117,-0.062 -0.234,-0.102 -0.359,-0.125 -0.125,-0.031 -0.262,-0.047 -0.407,-0.047 -0.23,0 -0.421,0.039 -0.578,0.11 l 0.297,1.234 h 0.547 c 0.008,-0.188 0.078,-0.281 0.203,-0.281 0.051,0.007 0.098,0.019 0.141,0.031 0.039,0.008 0.086,0.035 0.14,0.078 0.063,0.039 0.141,0.102 0.235,0.188 0.094,0.093 0.207,0.21 0.344,0.359 0.144,0.156 0.316,0.348 0.515,0.578 0.207,0.238 0.453,0.531 0.735,0.875 z"
         style="fill:#000000;fill-opacity:1;fill-rule:nonzero;stroke:none"
         id="path81318"
         inkscape:connector-curvature="0" /><path
         d="M 493.082,25.719 V 40.993"
         style="fill:none;stroke:#000000;stroke-width:1.55999994;stroke-linecap:butt;stroke-linejoin:miter;stroke-miterlimit:10;stroke-dasharray:none;stroke-opacity:1"
         id="path81320"
         inkscape:connector-curvature="0" /><path
         d="M 663.242,25.719 V 40.993"
         style="fill:none;stroke:#000000;stroke-width:1.55999994;stroke-linecap:butt;stroke-linejoin:miter;stroke-miterlimit:10;stroke-dasharray:none;stroke-opacity:1"
         id="path81322"
         inkscape:connector-curvature="0" /><path
         d="m 491.617,8.004 c -0.512,-0.617 -1.008,-1.07 -1.484,-1.359 -0.469,-0.293 -0.961,-0.438 -1.469,-0.438 -1.23,0 -1.844,0.618 -1.844,1.86 0,0.383 0.051,0.797 0.157,1.234 l 1.031,4.563 h -1.469 l 0.125,0.609 c 0.344,0 0.602,0.02 0.781,0.063 0.188,0.05 0.336,0.117 0.453,0.203 0.125,0.082 0.235,0.195 0.329,0.343 0.101,0.157 0.203,0.352 0.296,0.594 0.094,0.238 0.235,0.656 0.422,1.25 h 1.219 l -0.484,-2.172 h 2.672 l -0.204,-0.89 h -2.671 l -0.782,-3.407 c -0.148,-0.668 -0.242,-1.148 -0.281,-1.437 -0.043,-0.293 -0.062,-0.524 -0.062,-0.688 0,-0.73 0.3,-1.093 0.906,-1.093 0.25,0 0.519,0.097 0.812,0.297 0.289,0.195 0.633,0.531 1.032,1 z"
         style="fill:#000000;fill-opacity:1;fill-rule:nonzero;stroke:none"
         id="path81324"
         inkscape:connector-curvature="0" /><path
         d="m 496.039,2.489 c -0.937,0 -1.637,0.336 -2.094,1.015 -0.449,0.688 -0.672,1.723 -0.672,3.11 0,0.726 0.067,1.351 0.204,1.875 0.144,0.531 0.343,0.968 0.593,1.312 0.258,0.352 0.563,0.613 0.907,0.781 0.351,0.176 0.742,0.266 1.171,0.266 0.5,0 0.926,-0.094 1.282,-0.281 0.363,-0.188 0.656,-0.461 0.875,-0.813 0.226,-0.343 0.394,-0.773 0.5,-1.281 0.101,-0.5 0.156,-1.07 0.156,-1.703 0,-1.406 -0.25,-2.477 -0.75,-3.203 -0.5,-0.719 -1.227,-1.078 -2.172,-1.078 z m -1.453,4.281 c 0,-0.637 0.023,-1.184 0.078,-1.641 0.063,-0.461 0.156,-0.84 0.281,-1.14 0.133,-0.293 0.301,-0.508 0.5,-0.641 0.196,-0.137 0.43,-0.203 0.703,-0.203 0.25,0 0.469,0.062 0.657,0.187 0.187,0.133 0.343,0.336 0.468,0.61 0.125,0.281 0.219,0.633 0.282,1.062 0.07,0.426 0.109,0.926 0.109,1.5 0,0.657 -0.039,1.219 -0.109,1.688 -0.075,0.469 -0.172,0.851 -0.297,1.156 -0.125,0.301 -0.289,0.523 -0.485,0.672 -0.187,0.144 -0.406,0.219 -0.656,0.219 -0.304,0 -0.554,-0.078 -0.75,-0.235 -0.199,-0.156 -0.355,-0.386 -0.469,-0.687 -0.117,-0.293 -0.199,-0.656 -0.25,-1.094 -0.043,-0.43 -0.062,-0.914 -0.062,-1.453 z"
         style="fill:#000000;fill-opacity:1;fill-rule:nonzero;stroke:none"
         id="path81326"
         inkscape:connector-curvature="0" /><path
         d="m 642.891,7.911 c -0.512,-0.618 -1.008,-1.071 -1.485,-1.36 -0.468,-0.293 -0.961,-0.437 -1.468,-0.437 -1.231,0 -1.844,0.617 -1.844,1.859 0,0.383 0.051,0.797 0.156,1.234 l 1.031,4.563 h -1.468 l 0.125,0.609 c 0.343,0 0.601,0.02 0.781,0.063 0.187,0.051 0.336,0.117 0.453,0.203 0.125,0.082 0.234,0.195 0.328,0.344 0.102,0.156 0.203,0.351 0.297,0.593 0.094,0.239 0.234,0.657 0.422,1.25 h 1.219 l -0.485,-2.171 h 2.672 l -0.203,-0.891 h -2.672 l -0.781,-3.406 c -0.149,-0.668 -0.242,-1.149 -0.281,-1.438 -0.043,-0.293 -0.063,-0.523 -0.063,-0.687 0,-0.731 0.301,-1.094 0.906,-1.094 0.25,0 0.52,0.098 0.813,0.297 0.289,0.195 0.633,0.531 1.031,1 z"
         style="fill:#000000;fill-opacity:1;fill-rule:nonzero;stroke:none"
         id="path81328"
         inkscape:connector-curvature="0" /><path
         d="m 647.309,2.391 c -0.938,0 -1.637,0.336 -2.094,1.016 -0.449,0.687 -0.672,1.722 -0.672,3.109 0,0.727 0.066,1.352 0.203,1.875 0.145,0.531 0.344,0.969 0.594,1.313 0.258,0.351 0.562,0.613 0.906,0.781 0.352,0.176 0.742,0.265 1.172,0.265 0.5,0 0.926,-0.093 1.281,-0.281 0.364,-0.187 0.656,-0.461 0.875,-0.812 0.227,-0.344 0.395,-0.774 0.5,-1.282 0.102,-0.5 0.156,-1.07 0.156,-1.703 0,-1.406 -0.25,-2.476 -0.75,-3.203 -0.5,-0.719 -1.226,-1.078 -2.171,-1.078 z m -1.454,4.281 c 0,-0.636 0.024,-1.183 0.079,-1.64 0.062,-0.461 0.156,-0.84 0.281,-1.141 0.133,-0.293 0.301,-0.508 0.5,-0.641 0.195,-0.136 0.43,-0.203 0.703,-0.203 0.25,0 0.469,0.063 0.656,0.188 0.188,0.133 0.344,0.336 0.469,0.609 0.125,0.281 0.219,0.633 0.281,1.063 0.071,0.425 0.11,0.925 0.11,1.5 0,0.656 -0.039,1.218 -0.11,1.687 -0.074,0.469 -0.172,0.852 -0.297,1.156 -0.125,0.301 -0.289,0.524 -0.484,0.672 -0.188,0.145 -0.406,0.219 -0.656,0.219 -0.305,0 -0.555,-0.078 -0.75,-0.234 -0.199,-0.157 -0.356,-0.387 -0.469,-0.688 -0.117,-0.293 -0.199,-0.656 -0.25,-1.094 -0.043,-0.429 -0.063,-0.914 -0.063,-1.453 z"
         style="fill:#000000;fill-opacity:1;fill-rule:nonzero;stroke:none"
         id="path81330"
         inkscape:connector-curvature="0" /><path
         d="M 663.324,10.817 V 5.754 h -1.25 v 5.063 h -4.781 v 1.172 h 4.781 v 5.062 h 1.25 v -5.062 h 4.797 v -1.172 z"
         style="fill:#000000;fill-opacity:1;fill-rule:nonzero;stroke:none"
         id="path81332"
         inkscape:connector-curvature="0" /><path
         d="m 679.629,7.911 c -0.512,-0.618 -1.008,-1.071 -1.484,-1.36 -0.469,-0.293 -0.961,-0.437 -1.469,-0.437 -1.231,0 -1.844,0.617 -1.844,1.859 0,0.383 0.051,0.797 0.156,1.234 l 1.032,4.563 h -1.469 l 0.125,0.609 c 0.344,0 0.601,0.02 0.781,0.063 0.188,0.051 0.336,0.117 0.453,0.203 0.125,0.082 0.235,0.195 0.328,0.344 0.102,0.156 0.203,0.351 0.297,0.593 0.094,0.239 0.235,0.657 0.422,1.25 h 1.219 l -0.485,-2.171 h 2.672 L 680.16,13.77 h -2.672 l -0.781,-3.406 c -0.148,-0.668 -0.242,-1.149 -0.281,-1.438 -0.043,-0.293 -0.063,-0.523 -0.063,-0.687 0,-0.731 0.301,-1.094 0.907,-1.094 0.25,0 0.519,0.098 0.812,0.297 0.289,0.195 0.633,0.531 1.031,1 z"
         style="fill:#000000;fill-opacity:1;fill-rule:nonzero;stroke:none"
         id="path81334"
         inkscape:connector-curvature="0" /><path
         d="M 682.547,2.735 C 682.348,1.809 682.023,1.121 681.578,0.672 681.129,0.227 680.535,0 679.797,0 c -0.199,0 -0.344,0.016 -0.438,0.047 0.032,0.106 0.055,0.215 0.079,0.328 0.019,0.106 0.046,0.215 0.078,0.329 0.019,-0.008 0.05,-0.016 0.093,-0.016 h 0.204 c 0.164,0 0.316,0.027 0.453,0.078 0.132,0.055 0.257,0.148 0.375,0.281 0.113,0.137 0.218,0.324 0.312,0.563 0.102,0.242 0.195,0.547 0.281,0.922 l 1.266,5.64 h -1.094 l 0.11,0.485 c 0.238,0.019 0.425,0.035 0.562,0.047 0.133,0.019 0.25,0.054 0.344,0.109 0.094,0.062 0.164,0.16 0.219,0.297 0.238,0.769 0.601,1.344 1.093,1.719 0.5,0.382 1.145,0.578 1.938,0.578 0.226,0 0.43,-0.016 0.609,-0.047 0.188,-0.024 0.36,-0.047 0.516,-0.078 l -0.25,-1.172 h -0.625 c -0.031,0.238 -0.106,0.41 -0.219,0.515 -0.117,0.114 -0.273,0.172 -0.469,0.172 -0.218,0 -0.402,-0.047 -0.546,-0.14 -0.149,-0.094 -0.278,-0.243 -0.391,-0.438 C 684.18,10.032 684.082,9.805 684,9.547 683.926,9.297 683.875,9.071 683.844,8.875 h 1.75 l -0.141,-0.703 h -1.765 z"
         style="fill:#000000;fill-opacity:1;fill-rule:nonzero;stroke:none"
         id="path81336"
         inkscape:connector-curvature="0" /><path
         d="m 505.859,56.293 h 21.352"
         style="fill:none;stroke:#5999d4;stroke-width:0.47999999;stroke-linecap:butt;stroke-linejoin:miter;stroke-miterlimit:10;stroke-dasharray:none;stroke-opacity:1"
         id="path81338"
         inkscape:connector-curvature="0" /><path
         d="m 527.223,56.352 v 36.18"
         style="fill:none;stroke:#5999d4;stroke-width:0.47999999;stroke-linecap:butt;stroke-linejoin:miter;stroke-miterlimit:10;stroke-dasharray:none;stroke-opacity:1"
         id="path81340"
         inkscape:connector-curvature="0" /><path
         d="m 542.016,68.055 0.812,0.578 0.563,-0.14 -1.297,-5.563 c -0.125,-0.562 -0.188,-1 -0.188,-1.312 0,-0.231 0.035,-0.399 0.11,-0.5 0.082,-0.106 0.203,-0.157 0.359,-0.157 0.176,0 0.363,0.067 0.563,0.203 0.195,0.145 0.476,0.422 0.843,0.829 l 0.5,-0.485 c -0.523,-0.562 -0.968,-0.965 -1.343,-1.203 -0.375,-0.238 -0.778,-0.359 -1.204,-0.359 -0.367,0 -0.656,0.121 -0.875,0.359 -0.218,0.238 -0.328,0.555 -0.328,0.953 0,0.321 0.067,0.664 0.203,1.031 l -0.109,0.032 c -0.562,-0.813 -1.102,-1.414 -1.609,-1.797 -0.5,-0.375 -1.032,-0.563 -1.594,-0.563 -0.649,0 -1.149,0.239 -1.5,0.719 -0.356,0.488 -0.531,1.172 -0.531,2.047 0,1.008 0.195,1.977 0.593,2.906 0.395,0.926 0.938,1.656 1.625,2.188 0.696,0.539 1.469,0.812 2.313,0.812 0.383,0 0.738,-0.043 1.062,-0.125 0.332,-0.086 0.676,-0.234 1.032,-0.453 z m -0.766,-2.609 c 0.051,0.238 0.082,0.441 0.094,0.609 0.019,0.176 0.031,0.367 0.031,0.578 0,0.446 -0.102,0.774 -0.297,0.985 -0.187,0.218 -0.512,0.328 -0.969,0.328 -0.605,0 -1.152,-0.246 -1.64,-0.735 -0.481,-0.48 -0.856,-1.132 -1.125,-1.953 -0.262,-0.812 -0.391,-1.633 -0.391,-2.453 0,-0.605 0.082,-1.059 0.25,-1.359 0.164,-0.305 0.442,-0.453 0.828,-0.453 0.395,0 0.774,0.164 1.141,0.5 0.375,0.332 0.758,0.804 1.156,1.421 0.395,0.625 0.676,1.336 0.844,2.141 z"
         style="fill:#000000;fill-opacity:1;fill-rule:nonzero;stroke:none"
         id="path81342"
         inkscape:connector-curvature="0" /><path
         d="m 550.613,56.364 h -1.234 c 0.051,0.269 0.113,0.562 0.187,0.875 0.082,0.312 0.161,0.625 0.235,0.937 0.07,0.32 0.144,0.633 0.219,0.938 0.07,0.312 0.132,0.601 0.187,0.875 0.051,0.269 0.094,0.507 0.125,0.718 0.039,0.219 0.063,0.391 0.063,0.516 0,0.258 -0.055,0.453 -0.157,0.578 -0.105,0.125 -0.273,0.188 -0.5,0.188 -0.211,0 -0.429,-0.078 -0.656,-0.235 -0.23,-0.148 -0.449,-0.343 -0.656,-0.593 -0.211,-0.243 -0.399,-0.516 -0.563,-0.829 -0.168,-0.312 -0.289,-0.632 -0.359,-0.953 l -0.641,-3.015 h -1.25 l 0.953,4.14 c 0.051,0.227 0.086,0.426 0.11,0.594 0.031,0.164 0.047,0.305 0.047,0.422 0,0.312 -0.125,0.469 -0.375,0.469 -0.075,0 -0.153,-0.024 -0.235,-0.063 -0.074,-0.031 -0.156,-0.078 -0.25,-0.14 -0.086,-0.063 -0.179,-0.141 -0.281,-0.235 -0.094,-0.094 -0.203,-0.211 -0.328,-0.344 l -0.438,0.407 c 0.207,0.218 0.395,0.398 0.563,0.547 0.176,0.156 0.348,0.281 0.516,0.375 0.164,0.101 0.328,0.179 0.484,0.234 0.156,0.051 0.316,0.078 0.484,0.078 0.313,0 0.551,-0.105 0.719,-0.312 0.176,-0.211 0.266,-0.481 0.266,-0.813 0,-0.094 -0.012,-0.187 -0.032,-0.281 -0.011,-0.086 -0.031,-0.168 -0.062,-0.25 l 0.078,-0.031 c 0.406,0.562 0.805,0.984 1.203,1.265 0.406,0.281 0.817,0.422 1.235,0.422 0.457,0 0.796,-0.117 1.015,-0.344 0.219,-0.23 0.328,-0.574 0.328,-1.031 v -0.109 c 0,-0.032 -0.008,-0.071 -0.015,-0.11 h 0.031 c 0.394,0.539 0.785,0.942 1.172,1.203 0.394,0.258 0.801,0.391 1.219,0.391 0.445,0 0.781,-0.125 1,-0.375 0.226,-0.242 0.343,-0.574 0.343,-1 0,-0.137 -0.023,-0.32 -0.062,-0.547 -0.043,-0.219 -0.094,-0.465 -0.156,-0.734 -0.063,-0.262 -0.133,-0.539 -0.204,-0.828 -0.074,-0.282 -0.14,-0.547 -0.203,-0.797 -0.043,-0.168 -0.074,-0.305 -0.093,-0.406 -0.024,-0.106 -0.043,-0.196 -0.063,-0.266 -0.012,-0.063 -0.016,-0.121 -0.016,-0.172 v -0.172 c 0,-0.156 0.024,-0.273 0.079,-0.344 0.062,-0.074 0.16,-0.109 0.296,-0.109 0.071,0 0.145,0.016 0.219,0.047 0.082,0.031 0.164,0.078 0.25,0.141 0.082,0.062 0.176,0.14 0.281,0.234 0.102,0.101 0.219,0.226 0.344,0.375 l 0.438,-0.422 c -0.2,-0.219 -0.387,-0.406 -0.563,-0.562 -0.18,-0.149 -0.351,-0.274 -0.515,-0.375 -0.157,-0.094 -0.321,-0.165 -0.485,-0.204 -0.156,-0.05 -0.324,-0.078 -0.5,-0.078 -0.168,0 -0.32,0.032 -0.453,0.094 -0.125,0.051 -0.234,0.129 -0.328,0.234 -0.086,0.102 -0.152,0.223 -0.203,0.36 -0.055,0.144 -0.078,0.301 -0.078,0.469 0,0.351 0.07,0.8 0.218,1.343 0.082,0.282 0.157,0.547 0.219,0.797 0.07,0.25 0.129,0.477 0.172,0.688 0.051,0.218 0.086,0.41 0.109,0.578 0.032,0.164 0.047,0.304 0.047,0.422 0,0.257 -0.054,0.445 -0.156,0.562 -0.094,0.125 -0.25,0.188 -0.469,0.188 -0.125,0 -0.265,-0.039 -0.422,-0.11 -0.148,-0.062 -0.293,-0.156 -0.437,-0.281 -0.149,-0.117 -0.293,-0.258 -0.438,-0.422 -0.148,-0.156 -0.281,-0.336 -0.406,-0.531 -0.125,-0.188 -0.234,-0.391 -0.328,-0.609 -0.094,-0.211 -0.168,-0.422 -0.219,-0.641 z"
         style="fill:#000000;fill-opacity:1;fill-rule:nonzero;stroke:none"
         id="path81344"
         inkscape:connector-curvature="0" /><path
         d="m 561.777,57.942 c -0.218,-0.305 -0.433,-0.563 -0.64,-0.781 -0.199,-0.211 -0.399,-0.383 -0.594,-0.516 -0.199,-0.137 -0.402,-0.234 -0.609,-0.297 -0.2,-0.062 -0.407,-0.094 -0.625,-0.094 -0.5,0 -0.891,0.176 -1.172,0.532 -0.274,0.363 -0.407,0.89 -0.407,1.578 0,0.414 0.04,0.812 0.125,1.187 0.094,0.383 0.219,0.738 0.375,1.063 0.157,0.332 0.344,0.632 0.563,0.906 0.219,0.281 0.457,0.516 0.719,0.703 0.269,0.195 0.551,0.348 0.843,0.453 0.301,0.113 0.61,0.172 0.922,0.172 0.332,0 0.625,-0.043 0.875,-0.125 0.258,-0.074 0.5,-0.18 0.719,-0.312 l 0.609,0.437 0.516,-0.141 -0.953,-4.156 c -0.063,-0.242 -0.105,-0.437 -0.125,-0.594 -0.023,-0.148 -0.031,-0.281 -0.031,-0.406 0,-0.156 0.031,-0.273 0.093,-0.344 0.071,-0.074 0.172,-0.109 0.297,-0.109 0.071,0 0.145,0.016 0.219,0.047 0.07,0.031 0.149,0.078 0.234,0.141 0.094,0.062 0.192,0.14 0.297,0.234 0.102,0.101 0.219,0.226 0.344,0.375 0.07,-0.074 0.145,-0.149 0.219,-0.219 0.07,-0.074 0.14,-0.14 0.203,-0.203 -0.211,-0.219 -0.402,-0.406 -0.578,-0.562 -0.168,-0.157 -0.336,-0.29 -0.5,-0.391 -0.168,-0.094 -0.328,-0.16 -0.485,-0.203 -0.156,-0.039 -0.32,-0.063 -0.484,-0.063 -0.305,0 -0.543,0.094 -0.719,0.282 -0.168,0.195 -0.25,0.468 -0.25,0.812 0,0.195 0.032,0.379 0.094,0.547 z m 0.422,2.015 c 0.051,0.258 0.094,0.493 0.125,0.704 0.039,0.218 0.063,0.421 0.063,0.609 0,0.344 -0.086,0.586 -0.25,0.734 -0.157,0.145 -0.407,0.219 -0.75,0.219 -0.25,0 -0.485,-0.059 -0.703,-0.172 -0.211,-0.117 -0.403,-0.265 -0.579,-0.453 -0.179,-0.187 -0.339,-0.406 -0.484,-0.656 -0.137,-0.25 -0.25,-0.516 -0.344,-0.797 -0.093,-0.281 -0.168,-0.57 -0.218,-0.859 -0.043,-0.293 -0.063,-0.575 -0.063,-0.844 0,-0.461 0.063,-0.805 0.188,-1.031 0.132,-0.219 0.343,-0.329 0.625,-0.329 0.144,0 0.285,0.024 0.421,0.079 0.133,0.05 0.274,0.132 0.422,0.25 0.375,0.289 0.692,0.644 0.953,1.062 0.258,0.414 0.458,0.91 0.594,1.484 z"
         style="fill:#000000;fill-opacity:1;fill-rule:nonzero;stroke:none"
         id="path81346"
         inkscape:connector-curvature="0" /><path
         d="m 568.566,59.426 c -0.074,0.352 -0.14,0.66 -0.203,0.922 -0.054,0.258 -0.105,0.484 -0.156,0.672 -0.055,0.187 -0.105,0.336 -0.156,0.453 -0.043,0.125 -0.09,0.223 -0.141,0.297 -0.043,0.07 -0.094,0.117 -0.156,0.141 -0.055,0.031 -0.117,0.05 -0.188,0.062 -0.074,0 -0.14,-0.016 -0.203,-0.047 -0.062,-0.023 -0.133,-0.062 -0.203,-0.125 -0.062,-0.055 -0.137,-0.133 -0.219,-0.234 -0.074,-0.106 -0.156,-0.246 -0.25,-0.422 l -0.5,0.328 c 0.176,0.25 0.332,0.461 0.469,0.641 0.145,0.187 0.285,0.332 0.422,0.437 0.133,0.102 0.273,0.176 0.422,0.219 0.156,0.051 0.328,0.078 0.516,0.078 0.238,0 0.429,-0.055 0.578,-0.156 0.144,-0.106 0.265,-0.258 0.359,-0.453 0.102,-0.188 0.188,-0.43 0.25,-0.719 0.063,-0.281 0.129,-0.606 0.203,-0.969 h 0.078 c 0.258,0.332 0.477,0.617 0.657,0.86 0.187,0.25 0.351,0.457 0.5,0.625 0.144,0.164 0.273,0.3 0.39,0.406 0.125,0.113 0.238,0.195 0.344,0.25 0.113,0.062 0.226,0.101 0.344,0.125 0.113,0.019 0.242,0.031 0.39,0.031 0.207,0 0.399,-0.043 0.578,-0.125 l -0.312,-1.25 h -0.531 c -0.012,0.188 -0.078,0.281 -0.203,0.281 -0.055,0 -0.106,-0.011 -0.157,-0.031 -0.054,-0.012 -0.121,-0.043 -0.203,-0.094 -0.074,-0.054 -0.164,-0.125 -0.265,-0.218 -0.094,-0.094 -0.211,-0.215 -0.344,-0.36 -0.137,-0.148 -0.293,-0.324 -0.469,-0.531 -0.168,-0.211 -0.367,-0.461 -0.594,-0.75 0.114,-0.586 0.211,-1.055 0.297,-1.406 0.082,-0.344 0.16,-0.61 0.235,-0.797 0.082,-0.188 0.16,-0.313 0.234,-0.375 0.07,-0.055 0.16,-0.078 0.266,-0.078 0.07,0 0.132,0.004 0.187,0.015 0.063,0.02 0.125,0.055 0.188,0.11 0.07,0.062 0.144,0.144 0.218,0.25 0.082,0.113 0.18,0.257 0.297,0.437 l 0.485,-0.312 c -0.188,-0.282 -0.356,-0.512 -0.5,-0.688 -0.149,-0.18 -0.29,-0.32 -0.422,-0.422 -0.137,-0.093 -0.278,-0.156 -0.422,-0.187 -0.149,-0.039 -0.309,-0.063 -0.485,-0.063 -0.168,0 -0.312,0.024 -0.437,0.063 -0.125,0.043 -0.234,0.125 -0.328,0.25 -0.063,0.07 -0.125,0.164 -0.188,0.281 -0.054,0.125 -0.105,0.254 -0.156,0.391 -0.043,0.132 -0.086,0.273 -0.125,0.422 -0.031,0.156 -0.062,0.3 -0.094,0.437 -0.023,0.133 -0.043,0.25 -0.062,0.344 -0.012,0.101 -0.016,0.179 -0.016,0.234 h -0.078 c -0.25,-0.336 -0.469,-0.633 -0.656,-0.89 -0.188,-0.25 -0.36,-0.465 -0.516,-0.641 -0.156,-0.18 -0.297,-0.324 -0.422,-0.438 -0.117,-0.117 -0.234,-0.211 -0.359,-0.281 -0.117,-0.062 -0.234,-0.101 -0.359,-0.125 -0.125,-0.031 -0.262,-0.047 -0.407,-0.047 -0.23,0 -0.422,0.039 -0.578,0.11 l 0.297,1.234 h 0.547 c 0.008,-0.187 0.078,-0.281 0.203,-0.281 0.051,0.008 0.098,0.019 0.141,0.031 0.039,0.008 0.086,0.035 0.14,0.078 0.063,0.039 0.141,0.102 0.235,0.188 0.093,0.093 0.207,0.211 0.343,0.359 0.145,0.156 0.317,0.348 0.516,0.578 0.207,0.238 0.453,0.531 0.734,0.875 z"
         style="fill:#000000;fill-opacity:1;fill-rule:nonzero;stroke:none"
         id="path81348"
         inkscape:connector-curvature="0" /><path
         d="m 542.52,121.391 h 69.82"
         style="fill:none;stroke:#c5590f;stroke-width:1.55999994;stroke-linecap:butt;stroke-linejoin:miter;stroke-miterlimit:10;stroke-dasharray:none;stroke-opacity:1"
         id="path81350"
         inkscape:connector-curvature="0" /><path
         d="M 493.16,31.512 H 446.043"
         style="fill:none;stroke:#aeabab;stroke-width:1.55999994;stroke-linecap:butt;stroke-linejoin:miter;stroke-miterlimit:10;stroke-dasharray:none;stroke-opacity:1"
         id="path81352"
         inkscape:connector-curvature="0" /></g></g></svg>