<?xml version="1.0" encoding="UTF-8" standalone="no"?>
<!-- Created with Inkscape (http://www.inkscape.org/) -->

<svg
   xmlns:dc="http://purl.org/dc/elements/1.1/"
   xmlns:cc="http://creativecommons.org/ns#"
   xmlns:rdf="http://www.w3.org/1999/02/22-rdf-syntax-ns#"
   xmlns:svg="http://www.w3.org/2000/svg"
   xmlns="http://www.w3.org/2000/svg"
   xmlns:sodipodi="http://sodipodi.sourceforge.net/DTD/sodipodi-0.dtd"
   xmlns:inkscape="http://www.inkscape.org/namespaces/inkscape"
   version="1.1"
   id="svg879"
   xml:space="preserve"
   width="515.64062"
   height="255.92188"
   viewBox="0 0 515.64062 255.92188"
   sodipodi:docname="axis_angle_rotation.svg"
   inkscape:version="0.92.4 (5da689c313, 2019-01-14)"><metadata
     id="metadata885"><rdf:RDF><cc:Work
         rdf:about=""><dc:format>image/svg+xml</dc:format><dc:type
           rdf:resource="http://purl.org/dc/dcmitype/StillImage" /><dc:title></dc:title></cc:Work></rdf:RDF></metadata><defs
     id="defs883" /><sodipodi:namedview
     pagecolor="#ffffff"
     bordercolor="#666666"
     borderopacity="1"
     objecttolerance="10"
     gridtolerance="10"
     guidetolerance="10"
     inkscape:pageopacity="0"
     inkscape:pageshadow="2"
     inkscape:window-width="1920"
     inkscape:window-height="1001"
     id="namedview881"
     showgrid="false"
     inkscape:zoom="0.76603739"
     inkscape:cx="98.559157"
     inkscape:cy="127.96094"
     inkscape:window-x="-9"
     inkscape:window-y="-9"
     inkscape:window-maximized="1"
     inkscape:current-layer="g887" /><g
     id="g887"
     inkscape:groupmode="layer"
     inkscape:label="axis_angle_rotation"
     transform="matrix(1.3333333,0,0,-1.3333333,0,255.92187)"><g
       id="g889"><path
         d="m 271.922,78.16 -27.762,-55.519 0.891,-0.45 27.769,55.532 z M 242.371,24.652 v -6.711 l 5.371,4.032 z"
         style="fill:#006ebf;fill-opacity:1;fill-rule:nonzero;stroke:none"
         id="path891"
         inkscape:connector-curvature="0" /><path
         d="m 272.25,77.961 h 109.48 v -1 H 272.25 Z m 108.48,2.5 6,-3 -6,-3 z"
         style="fill:#ff0000;fill-opacity:1;fill-rule:nonzero;stroke:none"
         id="path893"
         inkscape:connector-curvature="0" /><path
         d="m 272.512,77.461 v 109.48 h -1 V 77.461 Z m 2.5,108.48 -3,6 -3,-6 z"
         style="fill:#00ae4f;fill-opacity:1;fill-rule:nonzero;stroke:none"
         id="path895"
         inkscape:connector-curvature="0" /><path
         d="m 270.563,75.16 -59.231,33.082 1.469,2.617 59.23,-33.078 z m -59.379,29.731 -5.661,8.32 10.047,-0.461 z"
         style="fill:#00ae4f;fill-opacity:1;fill-rule:nonzero;stroke:none"
         id="path897"
         inkscape:connector-curvature="0" /><path
         d="m 270.363,77.652 83.879,66.508 1.86,-2.347 -83.872,-66.512 z m 80.84,67.93 9.848,2.059 -4.258,-9.11 z"
         style="fill:#ff0000;fill-opacity:1;fill-rule:nonzero;stroke:none"
         id="path899"
         inkscape:connector-curvature="0" /><path
         d="m 273.551,78.141 12.16,-70.489 -2.949,-0.511 -12.168,70.48 z M 288.41,9.633 285.512,0 279.543,8.102 Z"
         style="fill:#006ebf;fill-opacity:1;fill-rule:nonzero;stroke:none"
         id="path901"
         inkscape:connector-curvature="0" /><path
         d="m 316.594,128.02 c -0.086,-0.375 -0.125,-0.715 -0.125,-1.016 0,-0.188 0.031,-0.336 0.094,-0.438 0.062,-0.105 0.175,-0.156 0.343,-0.156 0.176,0 0.367,0.078 0.578,0.235 0.219,0.164 0.469,0.41 0.75,0.734 l 0.625,-0.625 c -0.617,-0.625 -1.148,-1.055 -1.593,-1.281 -0.45,-0.227 -0.918,-0.344 -1.407,-0.344 -0.492,0 -0.882,0.137 -1.171,0.406 -0.282,0.27 -0.422,0.629 -0.422,1.078 0,0.145 0.015,0.285 0.047,0.422 l -0.125,0.016 c -0.43,-0.5 -0.797,-0.883 -1.11,-1.141 -0.305,-0.25 -0.625,-0.445 -0.969,-0.578 -0.343,-0.133 -0.73,-0.203 -1.156,-0.203 -0.699,0 -1.23,0.238 -1.594,0.719 -0.367,0.476 -0.546,1.172 -0.546,2.078 0,0.789 0.113,1.578 0.343,2.359 0.227,0.781 0.555,1.453 0.985,2.016 0.425,0.57 0.961,1.019 1.609,1.344 0.645,0.32 1.379,0.484 2.203,0.484 0.875,0 1.617,-0.211 2.235,-0.625 l 0.859,0.625 0.984,-0.141 z m -1.735,2.718 c 0.094,0.438 0.141,0.867 0.141,1.297 0,0.383 -0.074,0.676 -0.219,0.875 -0.148,0.207 -0.386,0.313 -0.718,0.313 -0.543,0 -1.028,-0.278 -1.454,-0.828 -0.418,-0.555 -0.757,-1.293 -1.015,-2.219 -0.262,-0.918 -0.391,-1.746 -0.391,-2.485 0,-0.429 0.063,-0.746 0.188,-0.953 0.125,-0.211 0.32,-0.312 0.593,-0.312 0.383,0 0.774,0.187 1.172,0.562 0.407,0.375 0.727,0.817 0.969,1.328 0.25,0.508 0.473,1.207 0.672,2.094 z"
         style="fill:#000000;fill-opacity:1;fill-rule:nonzero;stroke:none"
         id="path903"
         inkscape:connector-curvature="0" /><path
         d="m 271.75,76.68 -1.648,3.64 -0.911,-0.41 1.653,-3.64 z m -2.887,6.383 -1.652,3.636 -0.91,-0.41 1.652,-3.648 z m -2.883,6.367 -1.648,3.652 -0.91,-0.41 1.648,-3.652 z m -2.886,6.383 -1.653,3.648 -0.91,-0.422 1.653,-3.637 z m -2.883,6.378 -1.648,3.641 -0.922,-0.41 1.652,-3.641 z m -2.891,6.379 -1.648,3.641 -0.91,-0.41 1.648,-3.649 z m -2.886,6.371 -1.653,3.649 -0.91,-0.418 1.652,-3.641 z m -2.883,6.379 -1.649,3.641 -0.91,-0.41 1.649,-3.641 z m -2.891,6.379 -1.648,3.641 -0.91,-0.41 1.648,-3.641 z m -2.887,6.371 -1.652,3.653 -0.91,-0.41 1.652,-3.653 z m -2.882,6.379 -1.649,3.653 -0.91,-0.422 1.648,-3.641 z m -2.891,6.383 -1.648,3.641 -0.911,-0.41 1.653,-3.641 z m -2.887,6.379 -1.64,3.641 -0.922,-0.411 1.652,-3.652 z m -2.883,6.371 -0.007,0.02 -0.91,-0.422 0.007,-0.008 z m 2.68,0.141 -5.199,4.226 -0.258,-6.707 z"
         style="fill:#00ae4f;fill-opacity:1;fill-rule:nonzero;stroke:none"
         id="path905"
         inkscape:connector-curvature="0" /><path
         d="m 271.141,76.949 3.793,1.262 0.316,-0.949 L 271.453,76 Z m 6.64,2.211 3.789,1.262 0.321,-0.949 -3.797,-1.262 z m 6.641,2.211 3.801,1.262 0.308,-0.953 -3.789,-1.258 z m 6.641,2.211 3.8,1.258 0.309,-0.949 -3.789,-1.258 z m 6.64,2.207 3.797,1.262 0.32,-0.949 -3.797,-1.262 z m 6.649,2.211 3.789,1.262 0.32,-0.949 -3.801,-1.262 z m 6.64,2.211 3.789,1.262 0.321,-0.953 -3.801,-1.258 z m 6.641,2.211 3.801,1.258 0.308,-0.938 -3.789,-1.269 z m 6.64,2.211 3.797,1.258 0.313,-0.942 -3.789,-1.269 z m 6.637,2.207 3.801,1.262 0.312,-0.942 -3.793,-1.269 z m 6.653,2.211 3.789,1.269 0.32,-0.949 -3.801,-1.269 z m 6.64,2.211 3.789,1.269 0.321,-0.949 -3.801,-1.269 z m 6.641,2.211 3.789,1.269 0.32,-0.953 -3.801,-1.269 z m 6.636,2.207 3.801,1.269 0.313,-0.949 -3.793,-1.27 z m 6.641,2.211 3.801,1.269 0.308,-0.949 -3.789,-1.262 z m 6.641,2.211 3.801,1.269 0.32,-0.949 -3.801,-1.262 z m 2.199,3.371 6.641,-0.953 -4.75,-4.739 z"
         style="fill:#ff0000;fill-opacity:1;fill-rule:nonzero;stroke:none"
         id="path907"
         inkscape:connector-curvature="0" /><path
         d="m 271.512,78 -0.481,-3.969 1,-0.121 0.481,3.973 z m -0.84,-6.949 -0.481,-3.969 1,-0.121 0.481,3.969 z m -0.84,-6.949 -0.48,-3.969 1,-0.121 0.48,3.968 z m -0.84,-6.95 -0.48,-3.972 1,-0.117 0.48,3.968 z m -0.84,-6.953 -0.48,-3.969 1,-0.121 0.48,3.973 z m -0.839,-6.949 -0.481,-3.969 1,-0.121 0.481,3.973 z m -0.84,-6.949 -0.481,-3.969 1,-0.121 0.481,3.969 z m -0.84,-6.949 -0.481,-3.969 1,-0.121 0.481,3.968 z m -0.84,-6.95 -0.48,-3.972 1,-0.117 0.48,3.968 z m -0.84,-6.941 -0.48,-3.981 1,-0.121 0.48,3.981 z m -2.961,-3.68 2.258,-6.32 3.703,5.602 z"
         style="fill:#006ebf;fill-opacity:1;fill-rule:nonzero;stroke:none"
         id="path909"
         inkscape:connector-curvature="0" /><path
         d="M 361.262,146.68 C 376.48,130.34 385.41,104.91 385.41,77.941"
         style="fill:none;stroke:#000000;stroke-width:0.47999999;stroke-linecap:butt;stroke-linejoin:miter;stroke-miterlimit:10;stroke-dasharray:none;stroke-opacity:1"
         id="path911"
         inkscape:connector-curvature="0" /><path
         d="m 274.57,104.41 0.172,0.172 0.988,0.84 1.043,0.75 1.098,0.648 1.152,0.563 1.18,0.457 1.219,0.351 1.238,0.258 1.262,0.153 1.269,0.05 1.282,-0.05 1.277,-0.172 1.273,-0.27 1.258,-0.379 1.192,-0.492 -0.86,-2.109 -1.14,0.472 0.097,-0.043 -1.168,0.352 0.09,-0.02 -1.172,0.258 0.09,-0.019 -1.18,0.152 0.09,-0.012 -1.179,0.051 h 0.089 l -1.179,-0.039 0.101,0.008 -1.16,-0.149 0.09,0.02 -1.16,-0.238 0.09,0.019 -1.121,-0.332 0.089,0.031 -1.097,-0.421 0.09,0.043 -1.051,-0.524 0.078,0.051 -1.02,-0.61 0.083,0.051 -0.969,-0.691 0.078,0.062 -0.922,-0.781 0.07,0.07 -0.129,-0.128 z m 7.844,-1.715 -8.543,-0.765 2.621,7.683 c 0.121,0.621 0.731,1.012 1.34,0.891 0.621,-0.129 1.02,-0.738 0.891,-1.348 l -2.223,-5.773 -1.457,1.308 6.68,0.176 c 0.601,0.188 1.238,-0.14 1.429,-0.742 0.192,-0.598 -0.14,-1.238 -0.738,-1.43 z"
         style="fill:#000000;fill-opacity:1;fill-rule:nonzero;stroke:none"
         id="path913"
         inkscape:connector-curvature="0" /><path
         d="m 204.402,115.152 c 7.539,35.02 33.36,63.707 68.149,75.739"
         style="fill:none;stroke:#000000;stroke-width:0.47999999;stroke-linecap:butt;stroke-linejoin:miter;stroke-miterlimit:10;stroke-dasharray:none;stroke-opacity:1"
         id="path915"
         inkscape:connector-curvature="0" /><path
         d="m 283.453,0.652 c -15.312,1.887 -29.551,8.2 -40.601,18"
         style="fill:none;stroke:#000000;stroke-width:0.47999999;stroke-linecap:butt;stroke-linejoin:miter;stroke-miterlimit:10;stroke-dasharray:none;stroke-opacity:1"
         id="path917"
         inkscape:connector-curvature="0" /><path
         d="m 273.051,78.422 3.949,0.59 0.152,-0.992 -3.961,-0.59 z m 6.922,1.039 3.961,0.59 0.136,-0.988 -3.949,-0.59 z m 6.918,1.031 3.961,0.59 L 291,80.09 287.043,79.5 Z m 6.929,1.039 3.953,0.59 0.149,-0.988 -3.961,-0.594 z m 6.922,1.032 3.949,0.589 0.153,-0.992 -3.953,-0.59 z m 6.918,1.027 3.961,0.601 0.152,-0.992 -3.96,-0.59 z m 6.922,1.043 3.961,0.59 0.148,-0.993 -3.961,-0.589 z m 6.93,1.027 3.949,0.59 0.152,-0.988 -3.953,-0.59 z m 6.922,1.039 3.957,0.59 0.14,-0.988 -3.949,-0.59 z m 6.918,1.031 3.961,0.59 0.148,-0.988 -3.961,-0.59 z m 6.929,1.04 3.949,0.589 0.153,-0.988 -3.949,-0.59 z m 6.922,1.031 3.957,0.59 0.141,-0.989 -3.949,-0.589 z m 6.918,1.031 3.961,0.598 0.148,-0.989 -3.957,-0.589 z m 6.93,1.039 3.949,0.59 0.152,-0.988 -3.961,-0.59 z m 6.922,1.031 3.961,0.59 0.136,-0.98 -3.949,-0.602 z m 6.918,1.039 3.402,0.5 0.141,-0.98 -3.391,-0.512 z m 2.043,2.829 6.367,-2.079 -5.488,-3.851 z"
         style="fill:#ff0000;fill-opacity:1;fill-rule:nonzero;stroke:none"
         id="path919"
         inkscape:connector-curvature="0" /><path
         d="m 279.203,114.98 c -0.875,0 -1.527,0.266 -1.953,0.797 -0.43,0.532 -0.641,1.332 -0.641,2.407 0,0.57 0.063,1.285 0.188,2.14 0.125,0.852 0.332,1.723 0.625,2.61 0.301,0.882 0.687,1.671 1.156,2.359 0.469,0.687 1.004,1.219 1.61,1.594 0.601,0.375 1.257,0.562 1.968,0.562 1.696,0 2.547,-1.078 2.547,-3.234 0,-0.617 -0.07,-1.344 -0.203,-2.188 -0.137,-0.843 -0.355,-1.711 -0.656,-2.593 -0.293,-0.875 -0.668,-1.653 -1.125,-2.329 -0.461,-0.679 -0.992,-1.203 -1.594,-1.578 -0.594,-0.367 -1.234,-0.547 -1.922,-0.547 z m -0.547,6.719 h 4.219 c 0.27,1.239 0.406,2.305 0.406,3.203 0,0.614 -0.101,1.071 -0.297,1.375 -0.199,0.301 -0.511,0.453 -0.937,0.453 -0.68,0 -1.309,-0.433 -1.891,-1.296 -0.586,-0.868 -1.086,-2.11 -1.5,-3.735 z m 4.016,-0.89 h -4.219 c -0.281,-1.274 -0.422,-2.34 -0.422,-3.204 0,-0.656 0.098,-1.14 0.297,-1.453 0.207,-0.304 0.531,-0.453 0.969,-0.453 0.656,0 1.273,0.438 1.859,1.313 0.594,0.883 1.098,2.148 1.516,3.797 z"
         style="fill:#000000;fill-opacity:1;fill-rule:nonzero;stroke:none"
         id="path921"
         inkscape:connector-curvature="0" /><path
         d="m 272.473,76.91 3.527,1.903 0.473,-0.883 -3.52,-1.899 z m 6.168,3.32 3.519,1.903 0.473,-0.883 -3.52,-1.898 z m 6.16,3.321 3.519,1.89 0.481,-0.878 -3.52,-1.891 z m 6.172,3.308 3.519,1.903 0.469,-0.879 -3.52,-1.903 z m 6.16,3.321 3.519,1.902 0.481,-0.883 -3.531,-1.898 z m 6.16,3.32 3.527,1.891 0.473,-0.879 -3.52,-1.891 z m 6.168,3.32 3.519,1.891 0.481,-0.879 -3.527,-1.891 z m 6.16,3.313 3.531,1.898 0.469,-0.879 -3.519,-1.902 z m 6.172,3.316 3.52,1.903 0.468,-0.891 -3.519,-1.891 z m 6.16,3.321 3.52,1.89 0.48,-0.879 -3.519,-1.89 z m 6.168,3.312 3.52,1.898 0.472,-0.878 -3.519,-1.903 z m 6.16,3.32 3.52,1.899 0.48,-0.879 -3.531,-1.902 z m 6.16,3.321 3.532,1.886 0.468,-0.879 -3.519,-1.89 z m 6.172,3.308 3.52,1.899 0.469,-0.879 -3.52,-1.899 z m 6.16,3.321 3.528,1.898 0.472,-0.879 -3.523,-1.898 z m 6.168,3.32 3.422,1.84 0.469,-0.879 -3.422,-1.844 z m 1.352,3.57 6.707,0.199 -3.859,-5.492 z"
         style="fill:#ff0000;fill-opacity:1;fill-rule:nonzero;stroke:none"
         id="path923"
         inkscape:connector-curvature="0" /><path
         d="m 269.813,77.59 -2.692,2.961 0.731,0.672 2.699,-2.961 z m -4.719,5.172 -2.692,2.961 0.739,0.668 2.691,-2.95 z m -4.711,5.179 -2.699,2.95 0.738,0.679 2.699,-2.961 z m -4.723,5.168 -2.687,2.954 0.738,0.679 2.691,-2.961 z m -4.719,5.172 -2.691,2.961 0.742,0.668 2.692,-2.949 z m -4.711,5.168 -2.699,2.961 0.742,0.672 2.7,-2.949 z m -4.718,5.184 -2.692,2.949 0.743,0.68 2.687,-2.961 z m -4.711,5.168 -2.699,2.961 0.742,0.668 2.699,-2.957 z m -4.719,5.172 -2.699,2.957 0.738,0.672 2.699,-2.95 z m -4.719,5.179 -2.691,2.95 0.738,0.668 2.692,-2.95 z m -4.711,5.168 -2.699,2.95 0.738,0.679 2.7,-2.957 z m -4.718,5.172 -0.961,1.047 0.738,0.684 0.961,-1.063 z m -2.133,-1.371 -1.828,6.449 6.257,-2.41 z"
         style="fill:#00ae4f;fill-opacity:1;fill-rule:nonzero;stroke:none"
         id="path925"
         inkscape:connector-curvature="0" /><path
         d="m 272.191,79.43 -0.82,3.91 -0.98,-0.199 0.82,-3.918 z m -1.441,6.851 -0.828,3.91 -0.969,-0.199 0.82,-3.922 z m -1.437,6.852 -0.833,3.906 -0.98,-0.199 0.832,-3.918 z m -1.45,6.847 -0.82,3.911 -0.98,-0.2 0.82,-3.921 z m -1.441,6.852 -0.828,3.91 -0.981,-0.203 0.828,-3.918 z m -1.449,6.848 -0.821,3.91 -0.98,-0.207 0.82,-3.91 z m -1.442,6.851 -0.828,3.91 -0.973,-0.211 0.821,-3.91 z m -1.437,6.852 -0.832,3.906 -0.981,-0.207 0.832,-3.91 z m -1.453,6.847 -0.821,3.911 -0.976,-0.211 0.816,-3.91 z m -1.438,6.84 -0.832,3.922 -0.98,-0.211 0.832,-3.91 z m -1.453,6.852 -0.816,3.918 -0.981,-0.207 0.82,-3.91 z m -1.437,6.848 -0.833,3.921 -0.968,-0.211 0.82,-3.91 z m -1.442,6.851 -0.828,3.918 -0.98,-0.207 0.828,-3.91 z m -1.449,6.852 -0.82,3.918 -0.981,-0.211 0.82,-3.91 z m 1.441,5.308 -4.179,5.25 -1.692,-6.492 z"
         style="fill:#00ae4f;fill-opacity:1;fill-rule:nonzero;stroke:none"
         id="path927"
         inkscape:connector-curvature="0" /><path
         d="m 270.813,76.16 -1.11,-3.84 0.957,-0.281 1.113,3.844 z m -1.942,-6.73 -1.109,-3.84 0.961,-0.277 1.109,3.847 z m -1.937,-6.719 -1.114,-3.852 0.961,-0.269 1.11,3.84 z m -1.942,-6.731 -1.109,-3.839 0.961,-0.282 1.109,3.852 z m -1.949,-6.718 -1.109,-3.852 0.968,-0.269 1.098,3.839 z m -1.941,-6.731 -1.11,-3.84 0.961,-0.281 1.11,3.84 z m -1.942,-6.718 -1.109,-3.852 0.961,-0.27 1.109,3.84 z m -1.937,-6.731 -1.11,-3.84 0.957,-0.281 1.114,3.84 z m -1.942,-6.723 -1.109,-3.847 0.961,-0.27 1.109,3.84 z m -3.57,-3.339 1.223,-6.598 4.546,4.93 z"
         style="fill:#006ebf;fill-opacity:1;fill-rule:nonzero;stroke:none"
         id="path929"
         inkscape:connector-curvature="0" /><path
         d="m 272.75,76.02 0.031,-4 h -1 l -0.031,4 z m 0.063,-7 0.031,-4 h -1 l -0.031,4 z m 0.05,-7 0.039,-4 h -1 l -0.039,4 z m 0.059,-7 0.031,-3.989 -1,-0.011 -0.031,4 z m 0.058,-6.989 0.032,-4 -1,-0.011 -0.032,4 z m 0.063,-7 0.027,-4 -1,-0.011 -0.027,4 z m 0.051,-7 0.039,-4 -1,-0.011 -0.039,4 z m 0.058,-7 0.032,-4 -1,-0.011 -0.032,4 z m 0.059,-7 0.031,-4 -1,-0.011 -0.031,4 z m 0.062,-7 0.028,-4 -1,-0.011 -0.028,4 z m 2.528,-4.191 -2.949,-6.02 -3.051,5.981 z"
         style="fill:#006ebf;fill-opacity:1;fill-rule:nonzero;stroke:none"
         id="path931"
         inkscape:connector-curvature="0" /><path
         d="m 273.012,75.031 29.218,33.5 -3.437,3 -29.223,-33.5 z m 31.148,28.782 3.84,14.808 -14.148,-5.808 z"
         style="fill:#7d7d7d;fill-opacity:1;fill-rule:nonzero;stroke:none"
         id="path933"
         inkscape:connector-curvature="0" /><path
         d="m 286.652,92.27 -12.839,9.793"
         style="fill:none;stroke:#000000;stroke-width:0.47999999;stroke-linecap:butt;stroke-linejoin:miter;stroke-miterlimit:10;stroke-dasharray:none;stroke-opacity:1"
         id="path935"
         inkscape:connector-curvature="0" /><path
         d="m 285.934,91.742 5.019,14.641"
         style="fill:none;stroke:#000000;stroke-width:0.47999999;stroke-linecap:butt;stroke-linejoin:miter;stroke-miterlimit:10;stroke-dasharray:none;stroke-opacity:1"
         id="path937"
         inkscape:connector-curvature="0" /><path
         d="M 66.363,78.16 38.602,22.641 39.496,22.191 67.262,77.723 Z M 36.813,24.652 v -6.711 l 5.367,4.032 z"
         style="fill:#006ebf;fill-opacity:1;fill-rule:nonzero;stroke:none"
         id="path939"
         inkscape:connector-curvature="0" /><path
         d="m 66.691,77.961 h 109.602 v -1 H 66.691 Z m 108.602,2.5 6,-3 -6,-3 z"
         style="fill:#ff0000;fill-opacity:1;fill-rule:nonzero;stroke:none"
         id="path941"
         inkscape:connector-curvature="0" /><path
         d="m 67.07,77.461 v 109.48 h -1 V 77.461 Z m 2.5,108.48 -3,6 -3,-6 z"
         style="fill:#00ae4f;fill-opacity:1;fill-rule:nonzero;stroke:none"
         id="path943"
         inkscape:connector-curvature="0" /><path
         d="M 65.043,75.16 5.816,108.242 7.277,110.859 66.512,77.781 Z M 5.664,104.891 0,113.211 10.051,112.75 Z"
         style="fill:#00ae4f;fill-opacity:1;fill-rule:nonzero;stroke:none"
         id="path945"
         inkscape:connector-curvature="0" /><path
         d="m 64.844,77.652 83.879,66.508 1.859,-2.347 -83.871,-66.512 z m 80.84,67.93 9.847,2.059 -4.258,-9.11 z"
         style="fill:#ff0000;fill-opacity:1;fill-rule:nonzero;stroke:none"
         id="path947"
         inkscape:connector-curvature="0" /><path
         d="M 68.113,78.133 80.16,7.652 77.211,7.141 65.152,77.633 Z M 82.871,9.633 79.953,0 74,8.109 Z"
         style="fill:#006ebf;fill-opacity:1;fill-rule:nonzero;stroke:none"
         id="path949"
         inkscape:connector-curvature="0" /></g></g></svg>