<?xml version="1.0" encoding="UTF-8" standalone="no"?>
<!-- Created with Inkscape (http://www.inkscape.org/) -->

<svg
   xmlns:dc="http://purl.org/dc/elements/1.1/"
   xmlns:cc="http://creativecommons.org/ns#"
   xmlns:rdf="http://www.w3.org/1999/02/22-rdf-syntax-ns#"
   xmlns:svg="http://www.w3.org/2000/svg"
   xmlns="http://www.w3.org/2000/svg"
   xmlns:sodipodi="http://sodipodi.sourceforge.net/DTD/sodipodi-0.dtd"
   xmlns:inkscape="http://www.inkscape.org/namespaces/inkscape"
   version="1.1"
   id="svg815"
   xml:space="preserve"
   width="627.63446"
   height="229.15775"
   viewBox="0 0 627.63446 229.15774"
   sodipodi:docname="axis_aligned_rotations.svg"
   inkscape:version="0.92.4 (5da689c313, 2019-01-14)"><metadata
     id="metadata821"><rdf:RDF><cc:Work
         rdf:about=""><dc:format>image/svg+xml</dc:format><dc:type
           rdf:resource="http://purl.org/dc/dcmitype/StillImage" /><dc:title></dc:title></cc:Work></rdf:RDF></metadata><defs
     id="defs819" /><sodipodi:namedview
     pagecolor="#ffffff"
     bordercolor="#666666"
     borderopacity="1"
     objecttolerance="10"
     gridtolerance="10"
     guidetolerance="10"
     inkscape:pageopacity="0"
     inkscape:pageshadow="2"
     inkscape:window-width="1920"
     inkscape:window-height="1001"
     id="namedview817"
     showgrid="false"
     fit-margin-top="0"
     fit-margin-left="0"
     fit-margin-right="0"
     fit-margin-bottom="0"
     inkscape:zoom="1.8158956"
     inkscape:cx="379.42709"
     inkscape:cy="90.624204"
     inkscape:window-x="-9"
     inkscape:window-y="-9"
     inkscape:window-maximized="1"
     inkscape:current-layer="g823" /><g
     id="g823"
     inkscape:groupmode="layer"
     inkscape:label="axis_aligned_rotations"
     transform="matrix(1.3333333,0,0,-1.3333333,0,277.06666)"><g
       id="g825"
       transform="matrix(0.82708128,0,0,0.82708128,0,35.93251)"
       style="stroke-width:1.20907104"><path
         d="m 271.691,90.542 -1.789,-3.57 0.899,-0.454 1.789,3.582 z m -3.128,-6.262 -1.793,-3.57 0.902,-0.449 1.789,3.578 z m -3.133,-6.262 -1.789,-3.578 0.898,-0.441 1.793,3.57 z m -3.129,-6.257 -1.789,-3.582 0.898,-0.438 1.789,3.57 z m -3.129,-6.262 -1.789,-3.578 0.898,-0.449 1.789,3.578 z m -3.133,-6.258 -1.789,-3.582 0.902,-0.449 1.778,3.582 z m -3.129,-6.262 -1.789,-3.578 0.899,-0.453 1.781,3.582 z m -3.129,-6.257 -1.789,-3.582 0.891,-0.45 1.789,3.578 z m -3.129,-6.262 -1.793,-3.578 0.891,-0.453 1.789,3.582 z m -4.511,-3.43 v -6.711 l 5.371,4.031 z"
         style="fill:#006ebf;fill-opacity:1;fill-rule:nonzero;stroke:none;stroke-width:1.20907104"
         id="path827"
         inkscape:connector-curvature="0" /><path
         d="m 454.332,90.901 -1.793,-3.57 0.902,-0.449 1.789,3.578 z m -3.133,-6.261 -1.789,-3.571 0.903,-0.449 1.789,3.578 z m -3.129,-6.258 -1.789,-3.582 0.899,-0.442 1.793,3.571 z m -3.129,-6.262 -1.789,-3.578 0.899,-0.442 1.789,3.571 z m -3.128,-6.262 -1.793,-3.578 0.902,-0.449 1.789,3.578 z m -3.133,-6.258 -1.789,-3.582 0.898,-0.449 1.781,3.582 z m -3.129,-6.261 -1.789,-3.578 0.898,-0.45 1.781,3.579 z m -3.129,-6.258 -1.789,-3.582 0.887,-0.449 1.793,3.582 z m -3.133,-6.262 -1.789,-3.578 0.891,-0.449 1.789,3.578 z m -4.508,-3.429 v -6.711 l 5.371,4.031 z"
         style="fill:#006ebf;fill-opacity:1;fill-rule:nonzero;stroke:none;stroke-width:1.20907104"
         id="path829"
         inkscape:connector-curvature="0" /><path
         d="m 72.359,91.761 v 4 h -1 v -4 z m 0,7 v 4 h -1 v -4 z m 0,7 v 4 h -1 v -4 z m 0,7 v 4 h -1 v -4 z m 0,7 v 4 h -1 v -4 z m 0,7 v 4 h -1 v -4 z m 0,7 v 4 h -1 v -4 z m 0,7 v 4 h -1 v -4 z m 0,7 v 4 h -1 v -4 z m 0,7 v 4 h -1 v -4 z m 0,7 v 4 h -1 v -4 z m 0,7 v 4 h -1 v -4 z m 0,7 v 4 h -1 v -4 z m 0,7 v 4 h -1 v -4 z m 0,7 v 4 h -1 v -4 z m 0,7 v 4 h -1 v -4 z m 2.5,5.039 -3,6 -3,-6 z"
         style="fill:#00ae4f;fill-opacity:1;fill-rule:nonzero;stroke:none;stroke-width:1.20907104"
         id="path831"
         inkscape:connector-curvature="0" /><path
         d="m 71.859,93.698 h 4 v -1 h -4 z m 7,0 h 4 v -1 h -4 z m 7,0 h 4 v -1 h -4 z m 7,0 h 4 v -1 h -4 z m 7,0 h 4 v -1 h -4 z m 7,0 h 4 v -1 h -4 z m 7,0 h 4 v -1 h -4 z m 7,0 h 4 v -1 h -4 z m 7,0 h 4 v -1 h -4 z m 7,0 h 4 v -1 h -4 z m 7,0 h 4 v -1 h -4 z m 7,0 h 4 v -1 h -4 z m 7,0 h 4 v -1 h -4 z m 7,0 h 4 v -1 h -4 z m 7,0 h 4 v -1 h -4 z m 7,0 h 4 v -1 h -4 z m 3.602,2.5 6,-3 -6,-3 z"
         style="fill:#ff0000;fill-opacity:1;fill-rule:nonzero;stroke:none;stroke-width:1.20907104"
         id="path833"
         inkscape:connector-curvature="0" /><path
         d="M 72.352,92.722 5.832,176.6 3.48,174.729 69.992,90.858 Z M 9.121,177.292 0,181.542 2.063,171.69 Z"
         style="fill:#00ae4f;fill-opacity:1;fill-rule:nonzero;stroke:none;stroke-width:1.20907104"
         id="path835"
         inkscape:connector-curvature="0" /><path
         d="m 70.242,92.972 83.867,66.507 1.871,-2.347 L 72.102,90.62 Z m 80.828,67.929 9.852,2.059 -4.25,-9.121 z"
         style="fill:#ff0000;fill-opacity:1;fill-rule:nonzero;stroke:none;stroke-width:1.20907104"
         id="path837"
         inkscape:connector-curvature="0" /><path
         d="M 70.582,93.811 43.93,40.518 46.621,39.179 73.262,92.472 Z M 41.922,43.198 V 33.14 l 8.051,6.039 z"
         style="fill:#006ebf;fill-opacity:1;fill-rule:nonzero;stroke:none;stroke-width:1.20907104"
         id="path839"
         inkscape:connector-curvature="0" /><path
         d="m 165.152,161.12 1.809,-2.52 2.57,-3.89 2.399,-3.981 2.23,-4.058 2.063,-4.153 1.898,-4.218 1.719,-4.282 1.551,-4.359 1.359,-4.41 1.199,-4.457 1.024,-4.5 0.429,-2.281 0.399,-2.282 0.351,-2.289 0.297,-2.3 0.262,-2.309 0.211,-2.313 0.168,-2.32 0.109,-2.328 0.082,-2.34 0.02,-2.32 -1.559,-0.02 -0.019,2.321 v -0.02 l -0.082,2.32 V 97.8 l -0.11,2.308 V 100.1 l -0.16,2.301 v -0.019 l -0.211,2.297 v -0.02 l -0.258,2.301 0.008,-0.02 -0.301,2.289 v -0.007 l -0.347,2.269 0.008,-0.019 -0.399,2.269 v -0.019 l -0.43,2.257 v -0.019 l -1,4.469 v -0.028 l -1.191,4.43 0.012,-0.02 -1.36,4.379 0.008,-0.031 -1.539,4.32 0.02,-0.031 -1.711,4.262 0.011,-0.031 -1.878,4.191 0.007,-0.031 -2.05,4.121 0.019,-0.031 -2.219,4.043 0.012,-0.032 -2.383,3.95 0.024,-0.02 -2.551,3.859 0.019,-0.031 -1.808,2.512 z m -0.75,-7.441 -0.793,8.25 7.571,-3.379 c 0.39,-0.168 0.57,-0.629 0.39,-1.032 -0.168,-0.386 -0.629,-0.57 -1.031,-0.386 l -6.34,2.828 1.09,0.781 0.66,-6.91 c 0.051,-0.43 -0.269,-0.813 -0.699,-0.852 -0.43,-0.039 -0.809,0.27 -0.848,0.7 z"
         style="fill:#000000;fill-opacity:1;fill-rule:nonzero;stroke:none;stroke-width:1.20907104"
         id="path841"
         inkscape:connector-curvature="0" /><path
         d="m 160.09,116.151 c -0.875,0 -1.527,0.266 -1.953,0.797 -0.43,0.531 -0.641,1.332 -0.641,2.406 0,0.571 0.063,1.286 0.188,2.141 0.125,0.852 0.332,1.723 0.625,2.609 0.3,0.883 0.687,1.672 1.156,2.36 0.469,0.687 1.004,1.218 1.609,1.593 0.602,0.375 1.258,0.563 1.969,0.563 1.695,0 2.547,-1.078 2.547,-3.234 0,-0.618 -0.07,-1.344 -0.203,-2.188 -0.137,-0.844 -0.356,-1.711 -0.657,-2.594 -0.292,-0.875 -0.667,-1.652 -1.125,-2.328 -0.46,-0.679 -0.992,-1.203 -1.593,-1.578 -0.594,-0.367 -1.235,-0.547 -1.922,-0.547 z m -0.547,6.719 h 4.219 c 0.269,1.238 0.406,2.305 0.406,3.203 0,0.613 -0.102,1.07 -0.297,1.375 -0.199,0.301 -0.512,0.453 -0.937,0.453 -0.68,0 -1.309,-0.433 -1.891,-1.297 -0.586,-0.867 -1.086,-2.109 -1.5,-3.734 z m 4.016,-0.891 h -4.219 c -0.281,-1.273 -0.422,-2.339 -0.422,-3.203 0,-0.656 0.098,-1.14 0.297,-1.453 0.207,-0.305 0.531,-0.453 0.969,-0.453 0.656,0 1.273,0.437 1.859,1.312 0.594,0.883 1.098,2.149 1.516,3.797 z"
         style="fill:#000000;fill-opacity:1;fill-rule:nonzero;stroke:none;stroke-width:1.20907104"
         id="path843"
         inkscape:connector-curvature="0" /><path
         d="m 171.277,114.475 -0.406,-1.906 h -5.031 l -0.172,0.375 c 0.406,0.446 0.828,0.91 1.266,1.391 0.437,0.488 0.867,0.961 1.296,1.422 0.426,0.468 0.833,0.914 1.219,1.343 0.395,0.426 0.754,0.813 1.078,1.157 -0.023,0.008 -0.039,0.019 -0.047,0.031 h -1.625 c -0.187,0 -0.351,-0.016 -0.484,-0.047 -0.125,-0.031 -0.246,-0.09 -0.359,-0.172 -0.106,-0.086 -0.215,-0.203 -0.328,-0.359 -0.106,-0.156 -0.227,-0.36 -0.36,-0.61 h -0.656 l 0.406,1.813 h 4.938 l 0.14,-0.375 c -0.273,-0.313 -0.539,-0.609 -0.797,-0.891 -0.25,-0.273 -0.5,-0.543 -0.75,-0.812 -0.242,-0.274 -0.484,-0.543 -0.734,-0.813 -0.25,-0.273 -0.512,-0.554 -0.781,-0.843 -0.262,-0.293 -0.539,-0.602 -0.828,-0.922 -0.293,-0.313 -0.606,-0.653 -0.938,-1.016 0.008,-0.023 0.02,-0.031 0.031,-0.031 h 1.985 c 0.113,0 0.211,0.008 0.297,0.031 0.093,0.02 0.176,0.051 0.25,0.094 0.082,0.051 0.156,0.125 0.218,0.219 0.071,0.101 0.149,0.226 0.235,0.375 0.082,0.144 0.176,0.328 0.281,0.546 z"
         style="fill:#000000;fill-opacity:1;fill-rule:nonzero;stroke:none;stroke-width:1.20907104"
         id="path845"
         inkscape:connector-curvature="0" /><path
         d="m 455.16,88.761 v 4 h -1 v -4 z m 0,7 v 4 h -1 v -4 z m 0,7 v 4 h -1 v -4 z m 0,7 v 4 h -1 v -4 z m 0,7 v 4 h -1 v -4 z m 0,7 v 4 h -1 v -4 z m 0,7 v 4 h -1 v -4 z m 0,7 v 4 h -1 v -4 z m 0,7 v 4 h -1 v -4 z m 0,7 v 4 h -1 v -4 z m 0,7 v 4 h -1 v -4 z m 0,7 v 4 h -1 v -4 z m 0,7 v 4 h -1 v -4 z m 0,7 v 4 h -1 v -4 z m 0,7 v 4 h -1 v -4 z m 0,7 v 4 h -1 v -4 z m 2.5,5.039 -3,6 -3,-6 z"
         style="fill:#00ae4f;fill-opacity:1;fill-rule:nonzero;stroke:none;stroke-width:1.20907104"
         id="path847"
         inkscape:connector-curvature="0" /><path
         d="m 454.66,90.698 h 4 v -1 h -4 z m 7,0 h 4 v -1 h -4 z m 7,0 h 4 v -1 h -4 z m 7,0 h 4 v -1 h -4 z m 7,0 h 4 v -1 h -4 z m 7,0 h 4 v -1 h -4 z m 7,0 h 4 v -1 h -4 z m 7,0 h 4 v -1 h -4 z m 7,0 h 4 v -1 h -4 z m 7,0 h 4 v -1 h -4 z m 7,0 h 4 v -1 h -4 z m 7,0 h 4 v -1 h -4 z m 7,0 h 4 v -1 h -4 z m 7,0 h 4 v -1 h -4 z m 7,0 h 4 v -1 h -4 z m 7,0 h 4 v -1 h -4 z m 3.481,2.5 6,-3 -6,-3 z"
         style="fill:#ff0000;fill-opacity:1;fill-rule:nonzero;stroke:none;stroke-width:1.20907104"
         id="path849"
         inkscape:connector-curvature="0" /><path
         d="m 455.98,90.14 v 107.101 h -3 V 90.14 Z m 3,105.601 -4.5,9 -4.5,-9 z"
         style="fill:#00ae4f;fill-opacity:1;fill-rule:nonzero;stroke:none;stroke-width:1.20907104"
         id="path851"
         inkscape:connector-curvature="0" /><path
         d="m 454.832,88.679 93.52,22.711 -0.711,2.921 L 454.133,91.6 Z m 92.77,19.441 7.679,6.5 -9.808,2.25 z"
         style="fill:#ff0000;fill-opacity:1;fill-rule:nonzero;stroke:none;stroke-width:1.20907104"
         id="path853"
         inkscape:connector-curvature="0" /><path
         d="m 456.172,90.53 14.25,-53.121 -2.891,-0.777 -14.261,53.117 z m 16.758,-50.89 -2.008,-9.86 -6.68,7.531 z"
         style="fill:#006ebf;fill-opacity:1;fill-rule:nonzero;stroke:none;stroke-width:1.20907104"
         id="path855"
         inkscape:connector-curvature="0" /><path
         d="m 471.301,30.21 -4.371,-0.32 -5.938,-0.29 -5.953,-0.121 -5.949,0.039 -5.938,0.192 -5.922,0.359 -5.878,0.512 -5.832,0.668 0.179,1.551 5.813,-0.668 h -0.02 l 5.867,-0.512 h -0.019 l 5.89,-0.352 h -0.019 l 5.922,-0.187 h -0.024 l 5.93,-0.039 h -0.019 l 5.929,0.117 h -0.019 l 5.922,0.281 h -0.02 l 4.348,0.321 z m -5.961,4.531 7.441,-3.641 -6.82,-4.691 c -0.359,-0.238 -0.852,-0.148 -1.09,0.199 -0.238,0.364 -0.148,0.84 0.199,1.09 l 5.731,3.934 0.101,-1.34 -6.242,3.039 c -0.39,0.187 -0.551,0.66 -0.359,1.051 0.191,0.379 0.648,0.547 1.039,0.359 z"
         style="fill:#000000;fill-opacity:1;fill-rule:nonzero;stroke:none;stroke-width:1.20907104"
         id="path857"
         inkscape:connector-curvature="0" /><path
         d="m 452.891,6.081 c -0.875,0 -1.528,0.266 -1.953,0.797 -0.43,0.531 -0.641,1.332 -0.641,2.406 0,0.57 0.062,1.285 0.187,2.141 0.125,0.851 0.332,1.722 0.625,2.609 0.301,0.883 0.688,1.672 1.157,2.359 0.468,0.688 1.004,1.219 1.609,1.594 0.602,0.375 1.258,0.563 1.969,0.563 1.695,0 2.547,-1.078 2.547,-3.235 0,-0.617 -0.071,-1.343 -0.203,-2.187 -0.137,-0.844 -0.356,-1.711 -0.657,-2.594 -0.293,-0.875 -0.668,-1.652 -1.125,-2.328 -0.461,-0.68 -0.992,-1.203 -1.593,-1.578 -0.594,-0.367 -1.235,-0.547 -1.922,-0.547 z m -0.547,6.719 h 4.219 c 0.269,1.238 0.406,2.304 0.406,3.203 0,0.613 -0.102,1.07 -0.297,1.375 -0.199,0.301 -0.512,0.453 -0.938,0.453 -0.679,0 -1.308,-0.434 -1.89,-1.297 -0.586,-0.867 -1.086,-2.109 -1.5,-3.734 z m 4.015,-0.891 h -4.218 c -0.282,-1.273 -0.422,-2.34 -0.422,-3.203 0,-0.656 0.097,-1.141 0.297,-1.453 0.207,-0.305 0.531,-0.453 0.968,-0.453 0.657,0 1.274,0.437 1.86,1.312 0.594,0.883 1.097,2.149 1.515,3.797 z"
         style="fill:#000000;fill-opacity:1;fill-rule:nonzero;stroke:none;stroke-width:1.20907104"
         id="path859"
         inkscape:connector-curvature="0" /><path
         d="m 461.766,2.53 c -0.137,0.813 -0.258,1.508 -0.36,2.094 -0.105,0.582 -0.203,1.078 -0.297,1.484 -0.086,0.414 -0.164,0.754 -0.234,1.016 -0.074,0.258 -0.148,0.461 -0.219,0.609 -0.062,0.145 -0.133,0.242 -0.203,0.297 -0.062,0.051 -0.137,0.078 -0.219,0.078 -0.074,0 -0.14,-0.011 -0.203,-0.031 -0.062,-0.023 -0.133,-0.062 -0.203,-0.125 -0.062,-0.055 -0.137,-0.137 -0.219,-0.25 -0.074,-0.105 -0.168,-0.246 -0.281,-0.422 l -0.5,0.328 c 0.188,0.258 0.352,0.477 0.5,0.657 0.156,0.175 0.305,0.316 0.453,0.421 0.157,0.102 0.313,0.176 0.469,0.219 0.156,0.051 0.328,0.078 0.516,0.078 0.144,0 0.273,-0.015 0.39,-0.047 0.114,-0.031 0.211,-0.086 0.297,-0.156 0.094,-0.062 0.172,-0.152 0.235,-0.265 0.07,-0.106 0.144,-0.235 0.218,-0.391 0.039,-0.094 0.082,-0.231 0.125,-0.406 0.039,-0.168 0.082,-0.368 0.125,-0.594 0.051,-0.231 0.098,-0.484 0.141,-0.766 0.051,-0.273 0.098,-0.558 0.141,-0.859 0.05,-0.293 0.097,-0.602 0.14,-0.922 0.039,-0.312 0.078,-0.621 0.11,-0.922 0.32,0.414 0.609,0.832 0.859,1.25 0.258,0.426 0.473,0.828 0.641,1.203 0.175,0.383 0.312,0.735 0.406,1.047 0.094,0.313 0.14,0.563 0.14,0.75 0,0.188 -0.054,0.317 -0.156,0.391 -0.094,0.082 -0.258,0.129 -0.484,0.14 l 0.078,0.407 h 1.812 l 0.219,-0.36 C 465.785,7.429 465.289,6.421 464.719,5.452 464.156,4.483 463.52,3.538 462.813,2.624 462.5,2.261 462.219,1.948 461.969,1.686 c -0.242,-0.269 -0.465,-0.5 -0.672,-0.687 -0.211,-0.195 -0.406,-0.359 -0.594,-0.484 -0.18,-0.125 -0.351,-0.223 -0.515,-0.297 -0.168,-0.071 -0.336,-0.125 -0.5,-0.157 -0.168,-0.031 -0.344,-0.05 -0.532,-0.062 -0.093,0 -0.215,0.012 -0.359,0.031 -0.137,0.024 -0.258,0.047 -0.359,0.078 l 0.312,1.391 h 0.578 V 1.468 c 0,-0.289 0.117,-0.438 0.36,-0.438 0.3,0 0.609,0.121 0.921,0.36 0.321,0.242 0.707,0.621 1.157,1.14 z"
         style="fill:#000000;fill-opacity:1;fill-rule:nonzero;stroke:none;stroke-width:1.20907104"
         id="path861"
         inkscape:connector-curvature="0" /><path
         d="m 272.883,90.319 v 4 h -1 v -4 z m 0,7 v 4 h -1 v -4 z m 0,7 v 4 h -1 v -4 z m 0,7 v 4 h -1 v -4 z m 0,7 v 4 h -1 v -4 z m 0,7 v 4 h -1 v -4 z m 0,7 v 4 h -1 v -4 z m 0,7 v 4 h -1 v -4 z m 0,7 v 4 h -1 v -4 z m 0,7 v 4 h -1 v -4 z m 0,7 v 4 h -1 v -4 z m 0,7 v 4 h -1 v -4 z m 0,7 v 4 h -1 v -4 z m 0,7 v 4 h -1 v -4 z m 0,7 v 4 h -1 v -4 z m 0,7 v 4 h -1 v -4 z m 2.5,5.039 -3,6 -3,-6 z"
         style="fill:#00ae4f;fill-opacity:1;fill-rule:nonzero;stroke:none;stroke-width:1.20907104"
         id="path863"
         inkscape:connector-curvature="0" /><path
         d="m 272.383,92.261 h 4 v -1 h -4 z m 7,0 h 4 v -1 h -4 z m 7,0 h 4 v -1 h -4 z m 7,0 h 4 v -1 h -4 z m 7,0 h 4 v -1 h -4 z m 7,0 h 4 v -1 h -4 z m 7,0 h 4 v -1 h -4 z m 7,0 h 4 v -1 h -4 z m 7,0 h 4 v -1 h -4 z m 7,0 h 4 v -1 h -4 z m 7,0 h 4 v -1 h -4 z m 7,0 h 4 v -1 h -4 z m 7,0 h 4 v -1 h -4 z m 7,0 h 4 v -1 h -4 z m 7,0 h 4 v -1 h -4 z m 7,0 h 4 v -1 h -4 z m 3.476,2.5 6,-3 -6,-3 z"
         style="fill:#ff0000;fill-opacity:1;fill-rule:nonzero;stroke:none;stroke-width:1.20907104"
         id="path865"
         inkscape:connector-curvature="0" /><path
         d="m 271.102,91.018 -26.25,51.872 2.679,1.359 26.25,-51.867 z m -28.25,49.18 -0.051,10.063 8.082,-6 z"
         style="fill:#00ae4f;fill-opacity:1;fill-rule:nonzero;stroke:none;stroke-width:1.20907104"
         id="path867"
         inkscape:connector-curvature="0" /><path
         d="m 272.441,93.198 h 106.981 v -3 H 272.441 Z m 105.481,3 9,-4.5 -9,-4.5 z"
         style="fill:#ff0000;fill-opacity:1;fill-rule:nonzero;stroke:none;stroke-width:1.20907104"
         id="path869"
         inkscape:connector-curvature="0" /><path
         d="M 270.98,92.061 251.051,11.018 253.973,10.3 273.902,91.339 Z M 248.5,13.19 l 2.223,-9.808 6.519,7.668 z"
         style="fill:#006ebf;fill-opacity:1;fill-rule:nonzero;stroke:none;stroke-width:1.20907104"
         id="path871"
         inkscape:connector-curvature="0" /><path
         d="m 240.801,149.421 0.262,1.09 0.648,2.558 0.672,2.52 0.687,2.472 0.719,2.418 0.75,2.371 0.774,2.309 0.789,2.27 0.82,2.222 0.84,2.149 0.859,2.121 0.879,2.039 0.91,2 0.922,1.941 0.949,1.891 0.969,1.816 0.992,1.774 0.988,1.699 1.032,1.648 1.039,1.582 1.07,1.528 1.07,1.461 1.098,1.39 1.113,1.321 1.129,1.257 1.141,1.192 1.16,1.14 1.18,1.051 1.199,0.989 1.199,0.91 1.223,0.84 1.219,0.761 0.82,-1.32 -1.199,-0.75 0.027,0.008 -1.187,-0.809 0.027,0.02 -1.18,-0.891 0.031,0.02 -1.171,-0.969 0.019,0.019 -1.148,-1.039 0.019,0.032 -1.14,-1.114 0.019,0.012 -1.129,-1.172 0.02,0.031 -1.11,-1.25 0.02,0.02 -1.098,-1.309 0.02,0.02 -1.082,-1.371 0.011,0.019 -1.058,-1.437 0.008,0.019 -1.051,-1.511 0.012,0.019 -1.032,-1.566 0.012,0.019 -1.019,-1.633 0.019,0.024 -0.992,-1.692 v 0.008 l -0.981,-1.75 0.012,0.012 -0.961,-1.809 0.012,0.02 -0.942,-1.871 0.012,0.019 -0.922,-1.929 0.012,0.011 -0.902,-1.98 v 0.008 l -0.867,-2.028 v 0.008 l -0.852,-2.097 v 0.007 l -0.828,-2.14 v 0.011 l -0.813,-2.21 v 0.019 l -0.789,-2.258 0.008,0.008 -0.769,-2.301 0.011,0.012 -0.75,-2.352 0.008,0.012 -0.719,-2.41 v 0.012 l -0.687,-2.461 v 0.008 l -0.66,-2.5 v 0.011 l -0.653,-2.55 0.012,0.011 -0.262,-1.09 z m 6.109,4.308 -5.711,-6 -2.41,7.922 c -0.129,0.418 0.113,0.848 0.524,0.981 0.41,0.117 0.847,-0.114 0.968,-0.524 l 2.02,-6.648 -1.309,0.308 4.789,5.032 c 0.301,0.32 0.789,0.332 1.11,0.031 0.308,-0.301 0.32,-0.789 0.019,-1.102 z"
         style="fill:#000000;fill-opacity:1;fill-rule:nonzero;stroke:none;stroke-width:1.20907104"
         id="path873"
         inkscape:connector-curvature="0" /><path
         d="m 233.289,188.46 c -0.875,0 -1.527,0.265 -1.953,0.797 -0.43,0.531 -0.641,1.332 -0.641,2.406 0,0.57 0.063,1.285 0.188,2.141 0.125,0.851 0.332,1.722 0.625,2.609 0.301,0.883 0.687,1.672 1.156,2.359 0.469,0.688 1.004,1.219 1.609,1.594 0.602,0.375 1.258,0.563 1.969,0.563 1.696,0 2.547,-1.079 2.547,-3.235 0,-0.617 -0.07,-1.344 -0.203,-2.187 -0.137,-0.844 -0.356,-1.711 -0.656,-2.594 -0.293,-0.875 -0.668,-1.652 -1.125,-2.328 -0.461,-0.68 -0.992,-1.203 -1.594,-1.578 -0.594,-0.367 -1.234,-0.547 -1.922,-0.547 z m -0.547,6.719 h 4.219 c 0.269,1.238 0.406,2.304 0.406,3.203 0,0.613 -0.101,1.07 -0.297,1.375 -0.199,0.3 -0.511,0.453 -0.937,0.453 -0.68,0 -1.309,-0.434 -1.891,-1.297 -0.586,-0.867 -1.086,-2.109 -1.5,-3.734 z m 4.016,-0.891 h -4.219 c -0.281,-1.273 -0.422,-2.34 -0.422,-3.203 0,-0.656 0.098,-1.141 0.297,-1.453 0.207,-0.305 0.531,-0.453 0.969,-0.453 0.656,0 1.273,0.437 1.859,1.312 0.594,0.883 1.098,2.149 1.516,3.797 z"
         style="fill:#000000;fill-opacity:1;fill-rule:nonzero;stroke:none;stroke-width:1.20907104"
         id="path875"
         inkscape:connector-curvature="0" /><path
         d="m 242.039,187.944 c -0.074,0.352 -0.141,0.66 -0.203,0.922 -0.055,0.258 -0.106,0.484 -0.156,0.672 -0.055,0.187 -0.106,0.336 -0.157,0.453 -0.043,0.125 -0.089,0.223 -0.14,0.297 -0.043,0.07 -0.094,0.117 -0.156,0.141 -0.055,0.031 -0.118,0.05 -0.188,0.062 -0.074,0 -0.141,-0.016 -0.203,-0.047 -0.063,-0.023 -0.133,-0.062 -0.203,-0.125 -0.063,-0.054 -0.137,-0.133 -0.219,-0.234 -0.074,-0.106 -0.156,-0.246 -0.25,-0.422 l -0.5,0.328 c 0.176,0.25 0.332,0.461 0.469,0.641 0.144,0.187 0.285,0.332 0.422,0.437 0.133,0.102 0.273,0.176 0.422,0.219 0.156,0.051 0.328,0.078 0.515,0.078 0.238,0 0.43,-0.055 0.578,-0.156 0.145,-0.106 0.266,-0.258 0.36,-0.453 0.101,-0.188 0.187,-0.43 0.25,-0.719 0.062,-0.281 0.129,-0.606 0.203,-0.969 h 0.078 c 0.258,0.332 0.477,0.617 0.656,0.86 0.188,0.25 0.352,0.457 0.5,0.625 0.145,0.164 0.274,0.3 0.391,0.406 0.125,0.113 0.238,0.195 0.344,0.25 0.113,0.062 0.226,0.101 0.343,0.125 0.114,0.019 0.243,0.031 0.391,0.031 0.207,0 0.398,-0.043 0.578,-0.125 l -0.312,-1.25 h -0.532 c -0.011,0.188 -0.078,0.281 -0.203,0.281 -0.054,0 -0.105,-0.011 -0.156,-0.031 -0.055,-0.012 -0.121,-0.043 -0.203,-0.094 -0.074,-0.054 -0.164,-0.125 -0.266,-0.218 -0.094,-0.094 -0.211,-0.215 -0.344,-0.36 -0.136,-0.148 -0.293,-0.324 -0.468,-0.531 -0.168,-0.211 -0.367,-0.461 -0.594,-0.75 0.113,-0.586 0.211,-1.055 0.297,-1.406 0.082,-0.344 0.16,-0.61 0.234,-0.797 0.082,-0.188 0.16,-0.313 0.235,-0.375 0.07,-0.055 0.16,-0.078 0.265,-0.078 0.071,0 0.133,0.004 0.188,0.015 0.062,0.02 0.125,0.055 0.187,0.11 0.071,0.062 0.145,0.144 0.219,0.25 0.082,0.113 0.18,0.258 0.297,0.437 l 0.484,-0.312 c -0.187,-0.282 -0.355,-0.512 -0.5,-0.688 -0.148,-0.179 -0.289,-0.32 -0.422,-0.422 -0.136,-0.093 -0.277,-0.156 -0.422,-0.187 -0.148,-0.039 -0.308,-0.063 -0.484,-0.063 -0.168,0 -0.312,0.024 -0.437,0.063 -0.125,0.043 -0.235,0.125 -0.329,0.25 -0.062,0.07 -0.125,0.164 -0.187,0.281 -0.055,0.125 -0.106,0.254 -0.156,0.391 -0.043,0.133 -0.086,0.273 -0.125,0.422 -0.032,0.156 -0.063,0.3 -0.094,0.437 -0.023,0.133 -0.043,0.25 -0.063,0.344 -0.011,0.101 -0.015,0.18 -0.015,0.234 h -0.078 c -0.25,-0.336 -0.469,-0.633 -0.657,-0.89 -0.187,-0.25 -0.359,-0.465 -0.515,-0.641 -0.156,-0.18 -0.297,-0.324 -0.422,-0.438 -0.117,-0.117 -0.234,-0.21 -0.359,-0.281 -0.118,-0.062 -0.235,-0.101 -0.36,-0.125 -0.125,-0.031 -0.262,-0.047 -0.406,-0.047 -0.231,0 -0.422,0.039 -0.578,0.11 l 0.297,1.234 h 0.547 c 0.007,-0.187 0.078,-0.281 0.203,-0.281 0.05,0.008 0.097,0.019 0.14,0.031 0.039,0.008 0.086,0.035 0.141,0.078 0.062,0.039 0.141,0.102 0.234,0.188 0.094,0.093 0.207,0.211 0.344,0.359 0.145,0.156 0.316,0.348 0.516,0.578 0.207,0.238 0.453,0.531 0.734,0.875 z"
         style="fill:#000000;fill-opacity:1;fill-rule:nonzero;stroke:none;stroke-width:1.20907104"
         id="path877"
         inkscape:connector-curvature="0" /></g></g></svg>