<?xml version="1.0" encoding="UTF-8" standalone="no"?>
<!-- Created with Inkscape (http://www.inkscape.org/) -->

<svg
   xmlns:dc="http://purl.org/dc/elements/1.1/"
   xmlns:cc="http://creativecommons.org/ns#"
   xmlns:rdf="http://www.w3.org/1999/02/22-rdf-syntax-ns#"
   xmlns:svg="http://www.w3.org/2000/svg"
   xmlns="http://www.w3.org/2000/svg"
   xmlns:sodipodi="http://sodipodi.sourceforge.net/DTD/sodipodi-0.dtd"
   xmlns:inkscape="http://www.inkscape.org/namespaces/inkscape"
   width="151.5932mm"
   height="24.928179mm"
   viewBox="0 0 151.5932 24.928179"
   version="1.1"
   id="svg8"
   inkscape:version="0.92.4 (5da689c313, 2019-01-14)"
   sodipodi:docname="contact.svg">
  <defs
     id="defs2">
    <marker
       inkscape:stockid="Arrow1Mend"
       orient="auto"
       refY="0"
       refX="0"
       id="Arrow1Mend"
       style="overflow:visible"
       inkscape:isstock="true">
      <path
         id="path854"
         d="M 0,0 5,-5 -12.5,0 5,5 Z"
         style="fill:#ff0000;fill-opacity:1;fill-rule:evenodd;stroke:#ff0000;stroke-width:1.00000003pt;stroke-opacity:1"
         transform="matrix(-0.4,0,0,-0.4,-4,0)"
         inkscape:connector-curvature="0" />
    </marker>
    <marker
       inkscape:stockid="Arrow1Lend"
       orient="auto"
       refY="0"
       refX="0"
       id="Arrow1Lend"
       style="overflow:visible"
       inkscape:isstock="true">
      <path
         id="path848"
         d="M 0,0 5,-5 -12.5,0 5,5 Z"
         style="fill:#000000;fill-opacity:1;fill-rule:evenodd;stroke:#000000;stroke-width:1.00000003pt;stroke-opacity:1"
         transform="matrix(-0.8,0,0,-0.8,-10,0)"
         inkscape:connector-curvature="0" />
    </marker>
    <marker
       inkscape:stockid="Arrow1Lend"
       orient="auto"
       refY="0"
       refX="0"
       id="Arrow1Lend-2"
       style="overflow:visible"
       inkscape:isstock="true">
      <path
         inkscape:connector-curvature="0"
         id="path848-4"
         d="M 0,0 5,-5 -12.5,0 5,5 Z"
         style="fill:#000000;fill-opacity:1;fill-rule:evenodd;stroke:#000000;stroke-width:1.00000003pt;stroke-opacity:1"
         transform="matrix(-0.8,0,0,-0.8,-10,0)" />
    </marker>
    <marker
       inkscape:stockid="Arrow1Mend"
       orient="auto"
       refY="0"
       refX="0"
       id="Arrow1Mend-5"
       style="overflow:visible"
       inkscape:isstock="true">
      <path
         inkscape:connector-curvature="0"
         id="path854-1"
         d="M 0,0 5,-5 -12.5,0 5,5 Z"
         style="fill:#ff0000;fill-opacity:1;fill-rule:evenodd;stroke:#ff0000;stroke-width:1.00000003pt;stroke-opacity:1"
         transform="matrix(-0.4,0,0,-0.4,-4,0)" />
    </marker>
    <marker
       inkscape:stockid="Arrow1Mend"
       orient="auto"
       refY="0"
       refX="0"
       id="Arrow1Mend-5-7"
       style="overflow:visible"
       inkscape:isstock="true">
      <path
         inkscape:connector-curvature="0"
         id="path854-1-4"
         d="M 0,0 5,-5 -12.5,0 5,5 Z"
         style="fill:#ff0000;fill-opacity:1;fill-rule:evenodd;stroke:#ff0000;stroke-width:1.00000003pt;stroke-opacity:1"
         transform="matrix(-0.4,0,0,-0.4,-4,0)" />
    </marker>
    <marker
       inkscape:stockid="Arrow1Mend"
       orient="auto"
       refY="0"
       refX="0"
       id="Arrow1Mend-5-2"
       style="overflow:visible"
       inkscape:isstock="true">
      <path
         inkscape:connector-curvature="0"
         id="path854-1-7"
         d="M 0,0 5,-5 -12.5,0 5,5 Z"
         style="fill:#ff0000;fill-opacity:1;fill-rule:evenodd;stroke:#ff0000;stroke-width:1.00000003pt;stroke-opacity:1"
         transform="matrix(-0.4,0,0,-0.4,-4,0)" />
    </marker>
    <marker
       inkscape:stockid="Arrow1Mend"
       orient="auto"
       refY="0"
       refX="0"
       id="Arrow1Mend-5-0"
       style="overflow:visible"
       inkscape:isstock="true">
      <path
         inkscape:connector-curvature="0"
         id="path854-1-46"
         d="M 0,0 5,-5 -12.5,0 5,5 Z"
         style="fill:#ff0000;fill-opacity:1;fill-rule:evenodd;stroke:#ff0000;stroke-width:1.00000003pt;stroke-opacity:1"
         transform="matrix(-0.4,0,0,-0.4,-4,0)" />
    </marker>
    <marker
       inkscape:stockid="Arrow1Mend"
       orient="auto"
       refY="0"
       refX="0"
       id="Arrow1Mend-5-1"
       style="overflow:visible"
       inkscape:isstock="true">
      <path
         inkscape:connector-curvature="0"
         id="path854-1-48"
         d="M 0,0 5,-5 -12.5,0 5,5 Z"
         style="fill:#ff0000;fill-opacity:1;fill-rule:evenodd;stroke:#ff0000;stroke-width:1.00000003pt;stroke-opacity:1"
         transform="matrix(-0.4,0,0,-0.4,-4,0)" />
    </marker>
    <marker
       inkscape:stockid="Arrow1Mend"
       orient="auto"
       refY="0"
       refX="0"
       id="Arrow1Mend-5-17"
       style="overflow:visible"
       inkscape:isstock="true">
      <path
         inkscape:connector-curvature="0"
         id="path854-1-1"
         d="M 0,0 5,-5 -12.5,0 5,5 Z"
         style="fill:#ff0000;fill-opacity:1;fill-rule:evenodd;stroke:#ff0000;stroke-width:1.00000003pt;stroke-opacity:1"
         transform="matrix(-0.4,0,0,-0.4,-4,0)" />
    </marker>
    <marker
       inkscape:stockid="Arrow1Mend"
       orient="auto"
       refY="0"
       refX="0"
       id="Arrow1Mend-5-2-6"
       style="overflow:visible"
       inkscape:isstock="true">
      <path
         inkscape:connector-curvature="0"
         id="path854-1-7-2"
         d="M 0,0 5,-5 -12.5,0 5,5 Z"
         style="fill:#ff0000;fill-opacity:1;fill-rule:evenodd;stroke:#ff0000;stroke-width:1.00000003pt;stroke-opacity:1"
         transform="matrix(-0.4,0,0,-0.4,-4,0)" />
    </marker>
    <marker
       inkscape:stockid="Arrow1Mend"
       orient="auto"
       refY="0"
       refX="0"
       id="Arrow1Mend-5-2-6-7"
       style="overflow:visible"
       inkscape:isstock="true">
      <path
         inkscape:connector-curvature="0"
         id="path854-1-7-2-7"
         d="M 0,0 5,-5 -12.5,0 5,5 Z"
         style="fill:#ff0000;fill-opacity:1;fill-rule:evenodd;stroke:#ff0000;stroke-width:1.00000003pt;stroke-opacity:1"
         transform="matrix(-0.4,0,0,-0.4,-4,0)" />
    </marker>
  </defs>
  <sodipodi:namedview
     id="base"
     pagecolor="#ffffff"
     bordercolor="#666666"
     borderopacity="1.0"
     inkscape:pageopacity="0.0"
     inkscape:pageshadow="2"
     inkscape:zoom="2"
     inkscape:cx="226.48911"
     inkscape:cy="106.80294"
     inkscape:document-units="mm"
     inkscape:current-layer="layer1"
     showgrid="false"
     inkscape:snap-global="false"
     fit-margin-top="0"
     fit-margin-left="0"
     fit-margin-right="0"
     fit-margin-bottom="0" />
  <metadata
     id="metadata5">
    <rdf:RDF>
      <cc:Work
         rdf:about="">
        <dc:format>image/svg+xml</dc:format>
        <dc:type
           rdf:resource="http://purl.org/dc/dcmitype/StillImage" />
        <dc:title></dc:title>
      </cc:Work>
    </rdf:RDF>
  </metadata>
  <g
     inkscape:label="Layer 1"
     inkscape:groupmode="layer"
     id="layer1"
     transform="translate(-5.955694,-0.21113405)">
    <path
       style="fill:#999999;stroke:#000000;stroke-width:0.26458332px;stroke-linecap:butt;stroke-linejoin:miter;stroke-opacity:1"
       d="m 13.096876,23.553126 2.513541,-2.513542 4.7625,1.058333 -0.264583,-2.116667 h 3.307291 l 0.926042,2.645834 h 4.7625 l -2.38125,-1.852084 2.116667,-0.79375 2.38125,1.322917 1.852083,-0.79375 2.778125,1.984375 1.455208,-3.042708 1.852083,1.058334 0.529167,1.587499 -1.5875,0.79375 h 4.233333 l -0.79375,-2.248958 2.38125,-0.396875 1.322917,2.38125 2.910417,-0.264584 2.116666,-1.719791 2.38125,2.116667 4.233334,-0.661459 -1.322917,-0.926041 2.778125,-1.322917 4.101041,1.719791 h -3.439583 l 2.645834,1.322917 3.439582,-0.264583 1e-6,-1.984375 3.042708,-0.79375 1.587499,1.455209 2.381251,0.926041 3.174999,2.513542"
       id="path817"
       inkscape:connector-curvature="0"
       sodipodi:nodetypes="ccccccccccccccccccccccccccccccccccc" />
    <path
       style="fill:#ff9955;stroke:#000000;stroke-width:0.26458332px;stroke-linecap:butt;stroke-linejoin:miter;stroke-opacity:1"
       d="m 6.0854166,11.911458 0.2645833,1.322917 1.7197917,1.058333 -0.6614584,1.455209 2.3812495,1.058333 0.7937503,-1.719792 2.116667,0.661459 -0.264583,1.719791 2.381249,0.661459 0.529167,-1.322917 2.38125,0.661458 -0.529167,1.719792 3.175,0.529167 0.529167,-1.719792 2.778125,0.264584 -0.396875,1.322916 2.248959,0.529167 0.529166,-1.455208 h 1.984375 l -0.132291,1.322917 h 2.778125 l -0.132292,-1.322917 2.910417,0.529167 -0.396875,1.322916 h 2.116666 l 0.529167,-1.322916 2.116667,-0.264584 0.926041,1.5875 h 1.852083 l -0.264583,-1.190625 h 2.248958 v 0.926042 l 2.910417,-0.529167 -0.661458,-0.79375 2.248958,0.396875 v 1.322917 l 2.248958,-0.264583 0.132292,-1.190625 2.116667,0.264583 v 1.190625 l 2.116666,-0.264583 v -1.322917 l 2.116667,0.132292 0.661458,1.058333 2.513542,-0.396875 v -1.058333 l 2.645833,0.132291 v 1.455208 l 3.042709,-0.529166 -0.264584,-1.5875 2.645833,0.132291 0.132292,1.5875 2.645833,-0.79375 -0.132292,-1.455208 2.910417,-1.058333 0.79375,1.5875 2.38125,-0.529167 -0.79375,-1.719792 2.116667,-0.926041 1.719792,-2.910417"
       id="path821"
       inkscape:connector-curvature="0"
       sodipodi:nodetypes="cccccccccccccccccccccccccccccccccccccccccccccccccccccccccccc" />
    <path
       style="fill:#999999;stroke:#000000;stroke-width:0.26458332px;stroke-linecap:butt;stroke-linejoin:miter;stroke-opacity:1"
       d="m 91.686041,23.844966 2.513541,-2.513542 4.7625,1.058333 -0.264583,-2.116667 h 3.307291 l 0.92604,2.645834 h 4.7625 l -2.38125,-1.852084 2.11667,-0.79375 2.38125,1.322917 1.85208,-0.79375 2.77813,1.984375 1.4552,-3.042708 1.85209,1.058334 0.52916,1.587499 -1.5875,0.79375 h 4.23334 l -0.79375,-2.248958 2.38125,-0.396875 1.32291,2.38125 2.91042,-0.264584 2.11667,-1.719791 2.38125,2.116667 4.23333,-0.661459 -1.32292,-0.926042 2.77813,-1.322916 4.10104,1.719791 h -3.43958 l 2.64583,1.322917 3.43958,-0.264583 v -1.984375 l 3.04271,-0.79375 1.5875,1.455209 2.38125,0.926041 3.175,2.513542"
       id="path817-2"
       inkscape:connector-curvature="0"
       sodipodi:nodetypes="ccccccccccccccccccccccccccccccccccc" />
    <path
       style="fill:#ff9955;stroke:#000000;stroke-width:0.26458332px;stroke-linecap:butt;stroke-linejoin:miter;stroke-opacity:1"
       d="m 84.674582,12.203297 0.264583,1.322917 1.719791,1.058333 -0.661458,1.45521 2.381249,1.058332 0.793751,-1.719792 2.116667,0.66146 -0.264583,1.71979 2.381249,0.66146 0.529167,-1.322918 2.38125,0.661458 -0.529167,1.719793 3.175,0.529167 0.529167,-1.719792 2.778122,0.264584 -0.39687,1.322916 2.24896,0.529167 0.52916,-1.455208 h 1.98438 l -0.13229,1.322916 h 2.77812 l -0.13229,-1.322916 2.91042,0.529166 -0.39688,1.322917 h 2.11667 l 0.52916,-1.322917 2.11667,-0.264583 0.92604,1.5875 h 1.85209 l -0.26459,-1.190625 h 2.24896 v 0.926042 l 2.91042,-0.529167 -0.66146,-0.79375 2.24896,0.396875 v 1.322917 l 2.24896,-0.264584 0.13229,-1.190625 2.11666,0.264584 v 1.190625 l 2.11667,-0.264584 v -1.322916 l 2.11667,0.132291 0.66146,1.058334 2.51354,-0.396875 v -1.058334 l 2.64583,0.132292 v 1.455208 l 3.04271,-0.529166 -0.26458,-1.5875 3.0427,-10e-7 0.1323,1.5875 2.64583,-0.79375 -0.13229,-1.455208 2.51354,-0.926041 0.79375,1.5875 2.38125,-0.529167 -0.79375,-1.719793 2.11667,-0.92604 1.71979,-2.910417"
       id="path821-0"
       inkscape:connector-curvature="0"
       sodipodi:nodetypes="cccccccccccccccccccccccccccccccccccccccccccccccccccccccccccc" />
    <path
       style="fill:none;stroke:#000000;stroke-width:0.26458332px;stroke-linecap:butt;stroke-linejoin:miter;stroke-opacity:1;marker-end:url(#Arrow1Lend)"
       d="M 99.086458,19.584376 V 5.4291683"
       id="path843"
       inkscape:connector-curvature="0" />
    <path
       style="fill:none;stroke:#d45500;stroke-width:0.26458332px;stroke-linecap:butt;stroke-linejoin:miter;stroke-opacity:1"
       d="m 92.736458,5.4291683 6.35,14.2874987"
       id="path1127"
       inkscape:connector-curvature="0" />
    <path
       style="fill:none;stroke:#ff0000;stroke-width:0.26458332px;stroke-linecap:butt;stroke-linejoin:miter;stroke-opacity:1;marker-end:url(#Arrow1Mend-5-2-6)"
       d="M 99.104857,19.611972 103.86736,5.192179"
       id="path1400-3-5-0"
       inkscape:connector-curvature="0"
       sodipodi:nodetypes="cc" />
    <path
       style="fill:none;stroke:#d45500;stroke-width:0.26458332px;stroke-linecap:butt;stroke-linejoin:miter;stroke-opacity:1"
       d="M 105.43646,5.4291673 99.086458,19.716667"
       id="path1127-8"
       inkscape:connector-curvature="0" />
    <path
       style="fill:none;stroke:#ff0000;stroke-width:0.26458332px;stroke-linecap:butt;stroke-linejoin:miter;stroke-opacity:1;marker-end:url(#Arrow1Mend-5-2-6-7)"
       d="M 144.39991,20.287256 150.61762,0.70808663"
       id="path1400-3-5-0-8"
       inkscape:connector-curvature="0"
       sodipodi:nodetypes="cc" />
    <circle
       style="opacity:1;vector-effect:none;fill:#ffcc00;fill-opacity:1;stroke:#000000;stroke-width:0.5;stroke-linecap:butt;stroke-linejoin:round;stroke-miterlimit:10;stroke-dasharray:none;stroke-dashoffset:0;stroke-opacity:1"
       id="path841"
       cx="99.21875"
       cy="19.452082"
       r="1.5875" />
    <path
       style="fill:none;stroke:#000000;stroke-width:0.26458332px;stroke-linecap:butt;stroke-linejoin:miter;stroke-opacity:1;marker-end:url(#Arrow1Lend-2)"
       d="M 144.06562,20.245369 V 6.0901613"
       id="path843-4"
       inkscape:connector-curvature="0" />
    <path
       style="fill:none;stroke:#d45500;stroke-width:0.26458332px;stroke-linecap:butt;stroke-linejoin:miter;stroke-opacity:1"
       d="m 137.71562,6.0901613 6.35,14.2874987"
       id="path1127-7"
       inkscape:connector-curvature="0" />
    <path
       style="fill:none;stroke:#d45500;stroke-width:0.26458332px;stroke-linecap:butt;stroke-linejoin:miter;stroke-opacity:1"
       d="m 150.41562,6.0901603 -6.35,14.2874997"
       id="path1127-8-5"
       inkscape:connector-curvature="0" />
    <circle
       style="opacity:1;vector-effect:none;fill:#ffcc00;fill-opacity:1;stroke:#000000;stroke-width:0.5;stroke-linecap:butt;stroke-linejoin:round;stroke-miterlimit:10;stroke-dasharray:none;stroke-dashoffset:0;stroke-opacity:1"
       id="path841-0"
       cx="144.19792"
       cy="20.113077"
       r="1.5875" />
    <path
       style="fill:none;stroke:#ff0000;stroke-width:0.26458332px;stroke-linecap:butt;stroke-linejoin:miter;stroke-opacity:1;marker-end:url(#Arrow1Mend)"
       d="M 20.6375,19.584375 23.415625,9.7947915"
       id="path1400"
       inkscape:connector-curvature="0"
       sodipodi:nodetypes="cc" />
    <path
       style="fill:none;stroke:#ff0000;stroke-width:0.26458332px;stroke-linecap:butt;stroke-linejoin:miter;stroke-opacity:1;marker-end:url(#Arrow1Mend-5)"
       d="M 28.82696,19.771875 31.340501,11.4375"
       id="path1400-3"
       inkscape:connector-curvature="0"
       sodipodi:nodetypes="cc" />
    <path
       style="fill:none;stroke:#ff0000;stroke-width:0.26458332px;stroke-linecap:butt;stroke-linejoin:miter;stroke-opacity:1;marker-end:url(#Arrow1Mend-5-7)"
       d="m 33.986335,20.565625 1.322916,-3.042709"
       id="path1400-3-2"
       inkscape:connector-curvature="0"
       sodipodi:nodetypes="cc" />
    <path
       style="fill:none;stroke:#ff0000;stroke-width:0.26458332px;stroke-linecap:butt;stroke-linejoin:miter;stroke-opacity:1;marker-end:url(#Arrow1Mend-5-2)"
       d="m 38.748835,20.301041 9.525,-11.6416673"
       id="path1400-3-5"
       inkscape:connector-curvature="0"
       sodipodi:nodetypes="cc" />
    <path
       style="fill:none;stroke:#ff0000;stroke-width:0.26458332px;stroke-linecap:butt;stroke-linejoin:miter;stroke-opacity:1;marker-end:url(#Arrow1Mend-5-0)"
       d="m 43.90821,20.301042 1.5875,-6.350001"
       id="path1400-3-3"
       inkscape:connector-curvature="0"
       sodipodi:nodetypes="cc" />
    <path
       style="fill:none;stroke:#ff0000;stroke-width:0.26458332px;stroke-linecap:butt;stroke-linejoin:miter;stroke-opacity:1;marker-end:url(#Arrow1Mend-5-1)"
       d="M 58.460293,19.904166 59.518627,5.7489578"
       id="path1400-3-57"
       inkscape:connector-curvature="0"
       sodipodi:nodetypes="cc" />
    <path
       style="fill:none;stroke:#ff0000;stroke-width:0.26458332px;stroke-linecap:butt;stroke-linejoin:miter;stroke-opacity:1;marker-end:url(#Arrow1Mend-5-17)"
       d="m 67.191543,19.904167 0.926042,-9.39271"
       id="path1400-3-27"
       inkscape:connector-curvature="0"
       sodipodi:nodetypes="cc" />
  </g>
</svg>
