<?xml version="1.0" encoding="UTF-8" standalone="no"?>
<!-- Created with Inkscape (http://www.inkscape.org/) -->

<svg
   xmlns:dc="http://purl.org/dc/elements/1.1/"
   xmlns:cc="http://creativecommons.org/ns#"
   xmlns:rdf="http://www.w3.org/1999/02/22-rdf-syntax-ns#"
   xmlns:svg="http://www.w3.org/2000/svg"
   xmlns="http://www.w3.org/2000/svg"
   xmlns:sodipodi="http://sodipodi.sourceforge.net/DTD/sodipodi-0.dtd"
   xmlns:inkscape="http://www.inkscape.org/namespaces/inkscape"
   width="135.30998mm"
   height="44.973564mm"
   viewBox="0 0 135.30998 44.973564"
   version="1.1"
   id="svg8"
   inkscape:version="0.92.4 (5da689c313, 2019-01-14)"
   sodipodi:docname="coordinate_axes_2d.svg">
  <defs
     id="defs2" />
  <sodipodi:namedview
     id="base"
     pagecolor="#ffffff"
     bordercolor="#666666"
     borderopacity="1.0"
     inkscape:pageopacity="0.0"
     inkscape:pageshadow="2"
     inkscape:zoom="1"
     inkscape:cx="181.90523"
     inkscape:cy="-89.224756"
     inkscape:document-units="mm"
     inkscape:current-layer="layer1"
     showgrid="false"
     fit-margin-top="0"
     fit-margin-left="0"
     fit-margin-right="0"
     fit-margin-bottom="0"
     inkscape:window-width="1920"
     inkscape:window-height="1001"
     inkscape:window-x="-9"
     inkscape:window-y="-9"
     inkscape:window-maximized="1" />
  <metadata
     id="metadata5">
    <rdf:RDF>
      <cc:Work
         rdf:about="">
        <dc:format>image/svg+xml</dc:format>
        <dc:type
           rdf:resource="http://purl.org/dc/dcmitype/StillImage" />
        <dc:title></dc:title>
      </cc:Work>
    </rdf:RDF>
  </metadata>
  <g
     inkscape:label="Layer 1"
     inkscape:groupmode="layer"
     id="layer1"
     transform="translate(-8.5673374,-80.252386)">
    <path
       inkscape:connector-curvature="0"
       id="path827"
       style="fill:#5999d4;fill-opacity:1;fill-rule:evenodd;stroke:#3f709c;stroke-width:0.33866665;stroke-linecap:butt;stroke-linejoin:miter;stroke-miterlimit:10;stroke-dasharray:none;stroke-opacity:1"
       d="m 67.127837,91.309808 c 0,-0.826456 0.672799,-1.498225 1.498225,-1.498225 0.826457,0 1.497968,0.671769 1.497968,1.498225 0,0.825426 -0.671511,1.497967 -1.497968,1.497967 -0.825426,0 -1.498225,-0.672541 -1.498225,-1.497967 z" />
    <path
       inkscape:connector-curvature="0"
       id="path829"
       style="fill:#ff0000;fill-opacity:1;fill-rule:nonzero;stroke:none;stroke-width:0.35277778"
       d="m 51.793487,111.18439 h 34.090348 v 0.40126 H 51.793487 Z m 33.832965,-0.57087 1.544296,0.77214 -1.544296,0.77215 z" />
    <path
       inkscape:connector-curvature="0"
       id="path831"
       style="fill:#00ae4f;fill-opacity:1;fill-rule:nonzero;stroke:none;stroke-width:0.35277778"
       d="M 52.08716,111.69916 V 81.719211 h -0.58709 v 29.979949 z m 0.586061,-29.686533 -0.879734,-1.760241 -0.880764,1.760241 z" />
    <path
       inkscape:connector-curvature="0"
       id="path833"
       style="fill:#5999d4;fill-opacity:1;fill-rule:evenodd;stroke:#3f709c;stroke-width:0.33866665;stroke-linecap:butt;stroke-linejoin:miter;stroke-miterlimit:10;stroke-dasharray:none;stroke-opacity:1"
       d="m 12.275194,91.309808 c 0,-0.826456 0.671769,-1.498225 1.498225,-1.498225 0.825426,0 1.496938,0.671769 1.496938,1.498225 0,0.825426 -0.671512,1.497967 -1.496938,1.497967 -0.826456,0 -1.498225,-0.672541 -1.498225,-1.497967 z" />
    <path
       inkscape:connector-curvature="0"
       id="path835"
       style="fill:#000000;fill-opacity:1;fill-rule:evenodd;stroke:#000000;stroke-width:0.33866665;stroke-linecap:butt;stroke-linejoin:miter;stroke-miterlimit:10;stroke-dasharray:none;stroke-opacity:1"
       d="m 50.264376,111.32312 c 0,-0.82646 0.671511,-1.49797 1.497967,-1.49797 0.826456,0 1.498225,0.67151 1.498225,1.49797 0,0.82646 -0.671769,1.49822 -1.498225,1.49822 -0.826456,0 -1.497967,-0.67176 -1.497967,-1.49822 z" />
    <path
       inkscape:connector-curvature="0"
       id="path837"
       style="fill:#000000;fill-opacity:1;fill-rule:nonzero;stroke:none;stroke-width:0.35277778"
       d="m 17.853193,84.655948 h 1.20661 c 0.31864,0 0.555947,0.06846 0.711664,0.205134 0.158033,0.136671 0.237307,0.303712 0.237307,0.498551 0,0.155974 -0.05122,0.30783 -0.152886,0.454538 -0.09935,0.144649 -0.247345,0.263302 -0.442183,0.353901 -0.196126,0.09137 -0.408209,0.13667 -0.635478,0.13667 -0.142848,0 -0.321729,-0.02497 -0.53896,-0.07644 l -0.245286,0.836494 c -0.05637,0.201273 -0.08442,0.332796 -0.08442,0.39431 0,0.04813 0.02008,0.08828 0.06023,0.120455 0.04041,0.03217 0.136928,0.05225 0.289556,0.06048 l -0.02008,0.08442 h -1.222568 l 0.02831,-0.08442 c 0.157776,0 0.267421,-0.02625 0.329707,-0.08056 0.06435,-0.05637 0.132553,-0.208995 0.205134,-0.458398 l 0.50653,-1.745313 c 0.05843,-0.209252 0.08854,-0.350041 0.08854,-0.422365 0,-0.05019 -0.02213,-0.09343 -0.06435,-0.128691 -0.04324,-0.03423 -0.136671,-0.05637 -0.281577,-0.06435 z m 0.422365,1.431563 c 0.170902,0.04324 0.309632,0.06435 0.414129,0.06435 0.162923,0 0.311691,-0.03295 0.446559,-0.100379 0.13667,-0.06949 0.242197,-0.170903 0.31761,-0.305771 0.07438,-0.13667 0.112477,-0.277459 0.112477,-0.422108 0,-0.152885 -0.0471,-0.273598 -0.140531,-0.362137 -0.09163,-0.09034 -0.232417,-0.136671 -0.422365,-0.136671 -0.102696,0 -0.227269,0.01416 -0.373978,0.04015 z" />
    <path
       inkscape:connector-curvature="0"
       id="path839"
       style="fill:#000000;fill-opacity:1;fill-rule:nonzero;stroke:none;stroke-width:0.35277778"
       d="m 74.580098,84.655948 h 1.206353 c 0.31864,0 0.555947,0.06846 0.711921,0.205134 0.157776,0.136671 0.237307,0.303712 0.237307,0.498551 0,0.155974 -0.05148,0.30783 -0.152886,0.454538 -0.09961,0.144649 -0.247344,0.263302 -0.442441,0.353901 -0.196125,0.09137 -0.408209,0.13667 -0.635478,0.13667 -0.14259,0 -0.321728,-0.02497 -0.538702,-0.07644 l -0.245543,0.836494 c -0.05611,0.201273 -0.08442,0.332796 -0.08442,0.39431 0,0.04813 0.02008,0.08828 0.06048,0.120455 0.04015,0.03217 0.136671,0.05225 0.289556,0.06048 l -0.02008,0.08442 h -1.222568 l 0.02805,-0.08442 c 0.157775,0 0.267421,-0.02625 0.329707,-0.08056 0.06435,-0.05637 0.13281,-0.208995 0.205134,-0.458398 l 0.506787,-1.745313 c 0.05817,-0.209252 0.08854,-0.350041 0.08854,-0.422365 0,-0.05019 -0.02213,-0.09343 -0.06435,-0.128691 -0.04324,-0.03423 -0.136928,-0.05637 -0.281577,-0.06435 z m 0.422108,1.431563 c 0.170902,0.04324 0.309631,0.06435 0.414386,0.06435 0.162666,0 0.311691,-0.03295 0.446302,-0.100379 0.13667,-0.06949 0.242197,-0.170903 0.31761,-0.305771 0.07438,-0.13667 0.112734,-0.277459 0.112734,-0.422108 0,-0.152885 -0.04736,-0.273598 -0.140789,-0.362137 -0.09163,-0.09034 -0.232159,-0.136671 -0.422365,-0.136671 -0.102438,0 -0.227011,0.01416 -0.373977,0.04015 z" />
    <path
       inkscape:connector-curvature="0"
       id="path841"
       style="fill:#000000;fill-opacity:1;fill-rule:nonzero;stroke:none;stroke-width:0.35277778"
       d="m 47.872518,113.04655 c 0.203075,0 0.382985,0.0443 0.538959,0.13256 0.157776,0.0885 0.281319,0.21929 0.369859,0.39019 0.08854,0.17193 0.13281,0.35184 0.13281,0.53896 0,0.32765 -0.09549,0.67151 -0.285695,1.03339 -0.190978,0.36214 -0.440125,0.63857 -0.747955,0.82852 -0.308601,0.18789 -0.627241,0.28157 -0.957206,0.28157 -0.236277,0 -0.434205,-0.0523 -0.595069,-0.157 -0.158805,-0.1045 -0.2754,-0.2422 -0.349783,-0.41413 -0.07541,-0.1709 -0.112734,-0.33769 -0.112734,-0.49855 0,-0.28672 0.06846,-0.56907 0.205134,-0.84859 0.13873,-0.28158 0.303712,-0.5158 0.49469,-0.70394 0.189948,-0.18686 0.394053,-0.33074 0.611284,-0.43035 0.217231,-0.10141 0.448361,-0.15263 0.695706,-0.15263 z m -0.08056,0.14465 c -0.150569,0 -0.297535,0.0384 -0.442184,0.11274 -0.142847,0.0723 -0.284665,0.19484 -0.426483,0.366 -0.14259,0.16884 -0.269222,0.38993 -0.381956,0.66353 -0.139759,0.33768 -0.208995,0.65735 -0.208995,0.95695 0,0.21517 0.05431,0.40538 0.164725,0.57113 0.109645,0.16395 0.278488,0.24529 0.506787,0.24529 0.13667,0 0.270509,-0.0332 0.402032,-0.10038 0.133839,-0.0664 0.271538,-0.183 0.414386,-0.35004 0.178881,-0.20617 0.329707,-0.46844 0.45042,-0.78811 0.122514,-0.32173 0.185058,-0.62029 0.185058,-0.89698 0,-0.20591 -0.05534,-0.3871 -0.164982,-0.54282 -0.110675,-0.15777 -0.27643,-0.23731 -0.498808,-0.23731 z" />
    <path
       inkscape:connector-curvature="0"
       id="path843"
       style="fill:#000000;fill-opacity:1;fill-rule:nonzero;stroke:none;stroke-width:0.35277778"
       d="m 85.983184,113.58243 h 1.037768 l -0.02419,0.0844 c -0.144907,0.0221 -0.272569,0.0664 -0.382214,0.13255 -0.110417,0.0674 -0.259184,0.20127 -0.446301,0.40229 l -0.796343,0.8123 0.221349,0.82053 c 0.02111,0.0803 0.06126,0.20308 0.120456,0.366 0.03423,0.1045 0.06949,0.17991 0.104754,0.22521 0.03706,0.0432 0.08236,0.0762 0.136671,0.10038 0.05637,0.0221 0.140788,0.0353 0.253264,0.0401 l -0.02394,0.0847 h -1.206611 l 0.02806,-0.0847 c 0.122772,-0.005 0.211311,-0.028 0.265619,-0.0682 0.04015,-0.0322 0.06023,-0.0723 0.06023,-0.12071 0,-0.0402 -0.01905,-0.13281 -0.05637,-0.27746 l -0.216974,-0.77215 -0.7199,0.72788 c -0.139758,0.14284 -0.223408,0.23627 -0.249403,0.28157 -0.01622,0.027 -0.02419,0.0543 -0.02419,0.0803 0,0.0463 0.02111,0.0836 0.06435,0.11273 0.02111,0.0111 0.08545,0.0232 0.193037,0.036 l -0.02008,0.0847 h -1.021552 l 0.02419,-0.0847 c 0.128692,-0.01 0.233189,-0.0401 0.31375,-0.0883 0.120712,-0.0695 0.285437,-0.21028 0.49469,-0.42236 l 0.892603,-0.89672 -0.245286,-0.88489 c -0.07541,-0.27051 -0.140788,-0.43626 -0.196898,-0.49855 -0.05431,-0.0643 -0.148767,-0.10063 -0.285695,-0.10861 l 0.02419,-0.0844 h 1.093877 l -0.02419,0.0844 c -0.102438,0 -0.170902,0.007 -0.205134,0.0201 -0.035,0.0142 -0.06229,0.0342 -0.0803,0.0602 -0.01905,0.0242 -0.02805,0.0543 -0.02805,0.0885 0,0.0353 0.01699,0.11968 0.05225,0.25326 l 0.208995,0.7562 0.482592,-0.4826 c 0.187118,-0.18995 0.317868,-0.34283 0.390193,-0.4584 0.02419,-0.0404 0.03603,-0.0764 0.03603,-0.10861 0,-0.0342 -0.0139,-0.0613 -0.04015,-0.0806 -0.04015,-0.026 -0.116594,-0.0422 -0.22907,-0.0481 z" />
    <path
       inkscape:connector-curvature="0"
       id="path845"
       style="fill:#000000;fill-opacity:1;fill-rule:nonzero;stroke:none;stroke-width:0.35277778"
       d="m 54.770633,83.458604 0.582972,-0.816419 c 0.149797,-0.211311 0.22521,-0.346952 0.22521,-0.40615 0,-0.03217 -0.01596,-0.05842 -0.04813,-0.08056 -0.03217,-0.02419 -0.124831,-0.04015 -0.277459,-0.04813 l 0.02394,-0.08468 h 0.961325 l -0.01622,0.08468 c -0.09446,0.0139 -0.158805,0.02703 -0.193037,0.04015 -0.05431,0.02213 -0.107586,0.05637 -0.160864,0.104497 -0.07027,0.06435 -0.171932,0.188919 -0.305514,0.373977 l -0.752072,1.03365 -0.22521,0.760051 c -0.05637,0.190978 -0.08442,0.321728 -0.08442,0.394053 0,0.04633 0.008,0.08056 0.02419,0.104497 0.01802,0.02419 0.04916,0.04427 0.0924,0.06048 0.05637,0.01905 0.142847,0.02805 0.261501,0.02805 l -0.02033,0.08442 h -1.290774 l 0.02419,-0.08442 c 0.128691,-0.0021 0.214142,-0.01313 0.257383,-0.03217 0.06615,-0.026 0.117624,-0.06229 0.152628,-0.108615 0.05045,-0.06924 0.102695,-0.194067 0.157003,-0.373978 l 0.26948,-0.89286 -0.329965,-1.061704 c -0.0592,-0.184801 -0.112476,-0.299594 -0.160864,-0.345665 -0.04813,-0.0453 -0.134611,-0.07335 -0.257383,-0.08442 l 0.02419,-0.08468 h 1.134029 l -0.02805,0.08468 c -0.142848,0.01107 -0.223151,0.02008 -0.241425,0.02806 -0.035,0.01107 -0.06332,0.03217 -0.08442,0.06434 -0.01905,0.03011 -0.02805,0.06641 -0.02805,0.108616 0,0.06229 0.0211,0.167814 0.06434,0.31761 z" />
    <path
       inkscape:connector-curvature="0"
       id="path847"
       style="fill:#000000;fill-opacity:1;fill-rule:nonzero;stroke:none;stroke-width:0.35277778"
       d="m 9.8179603,125.14535 v 0.0806 c -0.2280412,-0.11274 -0.418247,-0.24735 -0.570875,-0.40229 -0.2172311,-0.21698 -0.3850446,-0.47436 -0.5026686,-0.77215 -0.1186534,-0.29753 -0.1770793,-0.60511 -0.1770793,-0.92478 0,-0.46869 0.1145353,-0.89492 0.3459224,-1.27893 0.2301002,-0.38608 0.5317528,-0.66148 0.9047005,-0.82852 v 0.0965 c -0.1848008,0.1027 -0.3376862,0.24349 -0.4583987,0.42237 -0.1186535,0.17682 -0.2071932,0.40203 -0.2653617,0.67563 -0.059455,0.27154 -0.08854,0.55491 -0.08854,0.85245 0,0.32482 0.024194,0.61849 0.072324,0.88076 0.040409,0.20925 0.08854,0.37604 0.1449065,0.50267 0.056367,0.12586 0.1307505,0.24632 0.2252099,0.36214 0.09343,0.11453 0.2172311,0.22598 0.3698591,0.33357 z" />
    <path
       inkscape:connector-curvature="0"
       id="path849"
       style="fill:#000000;fill-opacity:1;fill-rule:nonzero;stroke:none;stroke-width:0.35277778"
       d="m 11.239743,123.93899 c -0.212084,0.16396 -0.345923,0.25945 -0.40229,0.28544 -0.0803,0.0373 -0.166784,0.0564 -0.257382,0.0564 -0.144649,0 -0.264332,-0.0481 -0.357762,-0.14465 -0.09163,-0.0986 -0.136928,-0.22933 -0.136928,-0.39019 0,-0.10167 0.02214,-0.18892 0.06846,-0.2615 0.06126,-0.1045 0.168843,-0.20102 0.321728,-0.28956 0.152886,-0.0903 0.40718,-0.20102 0.76417,-0.32971 v -0.0844 c 0,-0.20616 -0.03423,-0.34695 -0.100637,-0.42236 -0.06435,-0.0772 -0.159835,-0.1166 -0.285437,-0.1166 -0.09446,0 -0.168844,0.0263 -0.22521,0.0764 -0.05637,0.0512 -0.08442,0.11068 -0.08442,0.17708 l 0.0039,0.12869 c 0,0.0703 -0.01905,0.12355 -0.05611,0.16087 -0.03526,0.0381 -0.08056,0.0561 -0.136927,0.0561 -0.05611,0 -0.102439,-0.018 -0.136671,-0.0561 -0.03526,-0.0404 -0.05225,-0.0937 -0.05225,-0.16087 0,-0.12869 0.06538,-0.24631 0.197155,-0.3539 0.133582,-0.10964 0.319669,-0.16498 0.558778,-0.16498 0.185058,0 0.335884,0.0311 0.454538,0.0924 0.08854,0.0463 0.153915,0.11866 0.197155,0.21723 0.026,0.0643 0.04015,0.19716 0.04015,0.39817 v 0.70369 c 0,0.19921 0.0021,0.3207 0.008,0.366 0.008,0.0432 0.02008,0.0723 0.03629,0.0885 0.01802,0.0142 0.04015,0.0201 0.06434,0.0201 0.02419,0 0.0453,-0.005 0.06435,-0.016 0.02908,-0.0183 0.08931,-0.0736 0.18094,-0.16498 v 0.12869 c -0.168843,0.22521 -0.329707,0.33769 -0.482593,0.33769 -0.07541,0 -0.134611,-0.026 -0.177079,-0.0762 -0.04324,-0.0504 -0.06615,-0.13795 -0.06821,-0.2615 z m 0,-0.14876 v -0.78837 c -0.228299,0.0916 -0.376037,0.15598 -0.442441,0.19304 -0.118654,0.0643 -0.203075,0.13281 -0.253265,0.20513 -0.05148,0.0723 -0.07644,0.15186 -0.07644,0.23731 0,0.11068 0.03217,0.20102 0.09652,0.2736 0.06435,0.0703 0.1377,0.1045 0.221092,0.1045 0.114792,0 0.266391,-0.0744 0.454538,-0.22521 z" />
    <path
       inkscape:connector-curvature="0"
       id="path851"
       style="fill:#000000;fill-opacity:1;fill-rule:nonzero;stroke:none;stroke-width:0.35277778"
       d="m 12.096313,121.11576 v -0.0965 c 0.227269,0.11274 0.418247,0.24735 0.571132,0.40229 0.216974,0.22006 0.382985,0.47848 0.49855,0.77601 0.117624,0.29573 0.17708,0.60331 0.17708,0.92504 0,0.46663 -0.115823,0.89286 -0.345923,1.27893 -0.228298,0.38607 -0.528921,0.66044 -0.900839,0.8244 v -0.0806 c 0.185058,-0.1045 0.337686,-0.24529 0.458398,-0.42211 0.120713,-0.17708 0.209252,-0.40229 0.265362,-0.67563 0.05843,-0.2754 0.08854,-0.5611 0.08854,-0.85657 0,-0.32173 -0.026,-0.6154 -0.07644,-0.88076 -0.03809,-0.20926 -0.08442,-0.37501 -0.140788,-0.49881 -0.05611,-0.12561 -0.131523,-0.24632 -0.22521,-0.36188 -0.09446,-0.11763 -0.216974,-0.22933 -0.369859,-0.33383 z" />
    <path
       inkscape:connector-curvature="0"
       id="path853"
       style="fill:#000000;fill-opacity:1;fill-rule:nonzero;stroke:none;stroke-width:0.35277778"
       d="m 65.701165,125.14535 v 0.0806 c -0.228041,-0.11274 -0.418247,-0.24735 -0.570875,-0.40229 -0.217231,-0.21698 -0.385045,-0.47436 -0.502669,-0.77215 -0.118653,-0.29753 -0.177079,-0.60511 -0.177079,-0.92478 0,-0.46869 0.114535,-0.89492 0.345922,-1.27893 0.2301,-0.38608 0.531753,-0.66148 0.904701,-0.82852 v 0.0965 c -0.184801,0.1027 -0.337687,0.24349 -0.458399,0.42237 -0.118653,0.17682 -0.206936,0.40203 -0.265362,0.67563 -0.0592,0.27154 -0.08854,0.55491 -0.08854,0.85245 0,0.32482 0.02419,0.61849 0.07232,0.88076 0.04041,0.20925 0.08854,0.37604 0.144907,0.50267 0.05637,0.12586 0.13075,0.24632 0.22521,0.36214 0.09343,0.11453 0.217231,0.22598 0.369859,0.33357 z" />
    <path
       inkscape:connector-curvature="0"
       id="path855"
       style="fill:#000000;fill-opacity:1;fill-rule:nonzero;stroke:none;stroke-width:0.35277778"
       d="m 66.517583,122.52339 c 0.201273,-0.27849 0.418247,-0.41825 0.651693,-0.41825 0.211054,0 0.396112,0.0914 0.554917,0.27334 0.157776,0.18017 0.237307,0.42854 0.237307,0.7441 0,0.36805 -0.122771,0.66353 -0.365998,0.88874 -0.209252,0.19304 -0.442441,0.28955 -0.699824,0.28955 -0.120712,0 -0.244256,-0.0221 -0.369859,-0.0643 -0.123801,-0.0453 -0.251463,-0.11248 -0.382213,-0.20102 v -2.14348 c 0,-0.23525 -0.0059,-0.38016 -0.01596,-0.43446 -0.01107,-0.0561 -0.02831,-0.0934 -0.05225,-0.11248 -0.02419,-0.018 -0.05534,-0.0283 -0.09266,-0.0283 -0.04015,0 -0.0924,0.0121 -0.156746,0.0363 l -0.03217,-0.0803 0.623382,-0.25353 h 0.100379 z m 0,0.14465 v 1.23878 c 0.07747,0.0754 0.157003,0.13281 0.237307,0.17296 0.08262,0.0381 0.167041,0.0564 0.253522,0.0564 0.13667,0 0.263302,-0.0744 0.381956,-0.22521 0.120712,-0.15289 0.18094,-0.37218 0.18094,-0.65967 0,-0.26536 -0.06023,-0.46844 -0.18094,-0.61129 -0.118654,-0.14465 -0.252235,-0.21723 -0.402289,-0.21723 -0.0803,0 -0.159835,0.0221 -0.23705,0.0644 -0.06254,0.0304 -0.139759,0.0906 -0.233446,0.18094 z" />
    <path
       inkscape:connector-curvature="0"
       id="path857"
       style="fill:#000000;fill-opacity:1;fill-rule:nonzero;stroke:none;stroke-width:0.35277778"
       d="m 68.227891,121.11576 v -0.0965 c 0.227269,0.11274 0.418247,0.24735 0.571133,0.40229 0.216973,0.22006 0.382985,0.47848 0.49855,0.77601 0.117624,0.29573 0.177079,0.60331 0.177079,0.92504 0,0.46663 -0.115822,0.89286 -0.345922,1.27893 -0.228298,0.38607 -0.528922,0.66044 -0.90084,0.8244 v -0.0806 c 0.185059,-0.1045 0.337687,-0.24529 0.458399,-0.42211 0.120713,-0.17708 0.209252,-0.40229 0.265362,-0.67563 0.05843,-0.2754 0.08854,-0.5611 0.08854,-0.85657 0,-0.32173 -0.02599,-0.6154 -0.07644,-0.88076 -0.03809,-0.20926 -0.08442,-0.37501 -0.140789,-0.49881 -0.05611,-0.12561 -0.131522,-0.24632 -0.22521,-0.36188 -0.09446,-0.11763 -0.216973,-0.22933 -0.369859,-0.33383 z" />
    <path
       inkscape:connector-curvature="0"
       id="path859"
       style="fill:#5999d4;fill-opacity:1;fill-rule:evenodd;stroke:#3f709c;stroke-width:0.33866665;stroke-linecap:butt;stroke-linejoin:miter;stroke-miterlimit:10;stroke-dasharray:none;stroke-opacity:1"
       d="m 123.83467,91.309808 c 0,-0.826456 0.67151,-1.498225 1.49796,-1.498225 0.82646,0 1.49797,0.671769 1.49797,1.498225 0,0.825426 -0.67151,1.497967 -1.49797,1.497967 -0.82645,0 -1.49796,-0.672541 -1.49796,-1.497967 z" />
    <path
       inkscape:connector-curvature="0"
       id="path861"
       style="fill:#ff0000;fill-opacity:1;fill-rule:nonzero;stroke:none;stroke-width:0.35277778"
       d="m 108.50032,111.18439 h 34.09009 v 0.40126 h -34.09009 z m 33.8327,-0.57087 1.5443,0.77214 -1.5443,0.77215 z" />
    <path
       inkscape:connector-curvature="0"
       id="path863"
       style="fill:#00ae4f;fill-opacity:1;fill-rule:nonzero;stroke:none;stroke-width:0.35277778"
       d="M 108.79373,111.69916 V 81.719211 h -0.58709 v 29.979949 z m 0.58632,-29.686533 -0.87973,-1.760241 -0.88077,1.760241 z" />
    <path
       inkscape:connector-curvature="0"
       id="path865"
       style="fill:#000000;fill-opacity:1;fill-rule:evenodd;stroke:#000000;stroke-width:0.33866665;stroke-linecap:butt;stroke-linejoin:miter;stroke-miterlimit:10;stroke-dasharray:none;stroke-opacity:1"
       d="m 107.00209,111.32312 c 0,-0.82646 0.67177,-1.49797 1.49823,-1.49797 0.82645,0 1.49796,0.67151 1.49796,1.49797 0,0.82646 -0.67151,1.49822 -1.49796,1.49822 -0.82646,0 -1.49823,-0.67176 -1.49823,-1.49822 z" />
    <path
       inkscape:connector-curvature="0"
       id="path867"
       style="fill:#000000;fill-opacity:1;fill-rule:nonzero;stroke:none;stroke-width:0.35277778"
       d="m 131.30469,84.655948 h 1.20661 c 0.31864,0 0.55594,0.06846 0.71166,0.205134 0.15803,0.136671 0.23731,0.303712 0.23731,0.498551 0,0.155974 -0.0512,0.30783 -0.15289,0.454538 -0.0993,0.144649 -0.24709,0.263302 -0.44218,0.353901 -0.19613,0.09137 -0.40821,0.13667 -0.63548,0.13667 -0.14285,0 -0.32173,-0.02497 -0.53896,-0.07644 l -0.24528,0.836494 c -0.0564,0.201273 -0.0844,0.332796 -0.0844,0.39431 0,0.04813 0.0201,0.08828 0.0602,0.120455 0.0404,0.03217 0.13693,0.05225 0.28956,0.06048 l -0.0201,0.08442 h -1.22257 l 0.0283,-0.08442 c 0.15778,0 0.26743,-0.02625 0.32971,-0.08056 0.0643,-0.05637 0.13255,-0.208995 0.20514,-0.458398 l 0.50653,-1.745313 c 0.0584,-0.209252 0.0885,-0.350041 0.0885,-0.422365 0,-0.05019 -0.0221,-0.09343 -0.0643,-0.128691 -0.0432,-0.03423 -0.13667,-0.05637 -0.28158,-0.06435 z m 0.42236,1.431563 c 0.1709,0.04324 0.30963,0.06435 0.41413,0.06435 0.16292,0 0.31169,-0.03295 0.44656,-0.100379 0.13667,-0.06949 0.2422,-0.170903 0.31761,-0.305771 0.0744,-0.13667 0.11248,-0.277459 0.11248,-0.422108 0,-0.152885 -0.0471,-0.273598 -0.14053,-0.362137 -0.0916,-0.09034 -0.23242,-0.136671 -0.42237,-0.136671 -0.10244,0 -0.22727,0.01416 -0.37398,0.04015 z" />
    <path
       inkscape:connector-curvature="0"
       id="path869"
       style="fill:#000000;fill-opacity:1;fill-rule:nonzero;stroke:none;stroke-width:0.35277778"
       d="m 104.59736,113.04655 c 0.20308,0 0.38299,0.0443 0.53871,0.13256 0.15803,0.0885 0.28157,0.21929 0.37011,0.39019 0.0885,0.17193 0.13255,0.35184 0.13255,0.53896 0,0.32765 -0.0955,0.67151 -0.28543,1.03339 -0.19098,0.36214 -0.44039,0.63857 -0.74796,0.82852 -0.3086,0.18789 -0.6275,0.28157 -0.9572,0.28157 -0.23628,0 -0.43421,-0.0523 -0.59507,-0.157 -0.15907,-0.1045 -0.27566,-0.2422 -0.35004,-0.41413 -0.0754,-0.1709 -0.11248,-0.33769 -0.11248,-0.49855 0,-0.28672 0.0682,-0.56907 0.20513,-0.84859 0.13873,-0.28158 0.30346,-0.5158 0.49444,-0.70394 0.1902,-0.18686 0.39431,-0.33074 0.61128,-0.43035 0.21723,-0.10141 0.44862,-0.15263 0.69596,-0.15263 z m -0.0806,0.14465 c -0.15082,0 -0.29753,0.0384 -0.44244,0.11274 -0.14259,0.0723 -0.28441,0.19484 -0.42622,0.366 -0.14285,0.16884 -0.26948,0.38993 -0.38196,0.66353 -0.13976,0.33768 -0.20925,0.65735 -0.20925,0.95695 0,0.21517 0.0543,0.40538 0.16498,0.57113 0.10965,0.16395 0.27849,0.24529 0.50679,0.24529 0.13667,0 0.27025,-0.0332 0.40203,-0.10038 0.13384,-0.0664 0.27154,-0.183 0.41413,-0.35004 0.17914,-0.20617 0.32996,-0.46844 0.45042,-0.78811 0.12277,-0.32173 0.18506,-0.62029 0.18506,-0.89698 0,-0.20591 -0.0553,-0.3871 -0.16473,-0.54282 -0.11067,-0.15777 -0.27669,-0.23731 -0.49881,-0.23731 z" />
    <path
       inkscape:connector-curvature="0"
       id="path871"
       style="fill:#000000;fill-opacity:1;fill-rule:nonzero;stroke:none;stroke-width:0.35277778"
       d="m 142.70803,113.58243 h 1.03751 l -0.0242,0.0844 c -0.14465,0.0221 -0.27231,0.0664 -0.38196,0.13255 -0.11067,0.0674 -0.25944,0.20127 -0.4463,0.40229 l -0.79634,0.8123 0.22109,0.82053 c 0.0211,0.0803 0.0615,0.20308 0.12071,0.366 0.0342,0.1045 0.0695,0.17991 0.1045,0.22521 0.0373,0.0432 0.0826,0.0762 0.13693,0.10038 0.0561,0.0221 0.14053,0.0353 0.25326,0.0401 l -0.0242,0.0847 h -1.20636 l 0.0281,-0.0847 c 0.12277,-0.005 0.21105,-0.028 0.26536,-0.0682 0.0404,-0.0322 0.0605,-0.0723 0.0605,-0.12071 0,-0.0402 -0.0193,-0.13281 -0.0564,-0.27746 l -0.21723,-0.77215 -0.7199,0.72788 c -0.13976,0.14284 -0.22315,0.23627 -0.24915,0.28157 -0.0162,0.027 -0.0242,0.0543 -0.0242,0.0803 0,0.0463 0.0211,0.0836 0.0643,0.11273 0.0211,0.0111 0.0855,0.0232 0.19304,0.036 l -0.0201,0.0847 h -1.02155 l 0.0242,-0.0847 c 0.12869,-0.01 0.23318,-0.0401 0.31349,-0.0883 0.12071,-0.0695 0.28569,-0.21028 0.49469,-0.42236 l 0.89286,-0.89672 -0.24529,-0.88489 c -0.0754,-0.27051 -0.14079,-0.43626 -0.19715,-0.49855 -0.0543,-0.0643 -0.14877,-0.10063 -0.28544,-0.10861 l 0.0242,-0.0844 h 1.09388 l -0.0242,0.0844 c -0.1027,0 -0.17091,0.007 -0.20514,0.0201 -0.0353,0.0142 -0.0623,0.0342 -0.0803,0.0602 -0.0193,0.0242 -0.0283,0.0543 -0.0283,0.0885 0,0.0353 0.0172,0.11968 0.0523,0.25326 l 0.20925,0.7562 0.48259,-0.4826 c 0.18686,-0.18995 0.31761,-0.34283 0.38994,-0.4584 0.0242,-0.0404 0.0363,-0.0764 0.0363,-0.10861 0,-0.0342 -0.0142,-0.0613 -0.0402,-0.0806 -0.0402,-0.026 -0.11659,-0.0422 -0.22932,-0.0481 z" />
    <path
       inkscape:connector-curvature="0"
       id="path873"
       style="fill:#000000;fill-opacity:1;fill-rule:nonzero;stroke:none;stroke-width:0.35277778"
       d="m 111.49522,83.458604 0.58323,-0.816419 c 0.1498,-0.211311 0.22521,-0.346952 0.22521,-0.40615 0,-0.03217 -0.0162,-0.05842 -0.0484,-0.08056 -0.0322,-0.02419 -0.12457,-0.04015 -0.27746,-0.04813 l 0.0242,-0.08468 h 0.96107 l -0.016,0.08468 c -0.0945,0.0139 -0.15881,0.02703 -0.19304,0.04015 -0.0543,0.02213 -0.10758,0.05637 -0.16086,0.104497 -0.0703,0.06435 -0.17193,0.188919 -0.30577,0.373977 l -0.75182,1.03365 -0.22521,0.760051 c -0.0564,0.190978 -0.0847,0.321728 -0.0847,0.394053 0,0.04633 0.008,0.08056 0.0242,0.104497 0.0183,0.02419 0.0494,0.04427 0.0927,0.06048 0.0561,0.01905 0.14259,0.02805 0.26125,0.02805 l -0.0201,0.08442 h -1.29103 l 0.0242,-0.08442 c 0.12869,-0.0021 0.21415,-0.01313 0.25739,-0.03217 0.0664,-0.026 0.11762,-0.06229 0.15288,-0.108615 0.0502,-0.06924 0.10244,-0.194067 0.15675,-0.373978 l 0.26948,-0.89286 -0.32971,-1.061704 c -0.0592,-0.184801 -0.11273,-0.299594 -0.16086,-0.345665 -0.0484,-0.0453 -0.13462,-0.07335 -0.25739,-0.08442 l 0.0242,-0.08468 h 1.13403 l -0.0281,0.08468 c -0.14285,0.01107 -0.22341,0.02008 -0.24142,0.02806 -0.0353,0.01107 -0.0633,0.03217 -0.0844,0.06434 -0.019,0.03011 -0.028,0.06641 -0.028,0.108616 0,0.06229 0.0211,0.167814 0.0644,0.31761 z" />
    <path
       inkscape:connector-curvature="0"
       id="path875"
       style="fill:#000000;fill-opacity:1;fill-rule:nonzero;stroke:none;stroke-width:0.35277778"
       d="m 127.15336,125.14535 v 0.0806 c -0.22804,-0.11274 -0.41825,-0.24735 -0.57087,-0.40229 -0.21724,-0.21698 -0.38531,-0.47436 -0.50293,-0.77215 -0.11865,-0.29753 -0.17682,-0.60511 -0.17682,-0.92478 0,-0.46869 0.11453,-0.89492 0.34592,-1.27893 0.2301,-0.38608 0.53175,-0.66148 0.9047,-0.82852 v 0.0965 c -0.1848,0.1027 -0.33769,0.24349 -0.4584,0.42237 -0.11865,0.17682 -0.20719,0.40203 -0.26536,0.67563 -0.0595,0.27154 -0.0885,0.55491 -0.0885,0.85245 0,0.32482 0.0242,0.61849 0.0723,0.88076 0.0404,0.20925 0.0885,0.37604 0.14491,0.50267 0.0564,0.12586 0.13075,0.24632 0.22521,0.36214 0.0934,0.11453 0.21723,0.22598 0.36986,0.33357 z" />
    <path
       inkscape:connector-curvature="0"
       id="path877"
       style="fill:#000000;fill-opacity:1;fill-rule:nonzero;stroke:none;stroke-width:0.35277778"
       d="m 129.16326,123.44842 c -0.0564,0.27334 -0.16704,0.48465 -0.32971,0.63136 -0.16395,0.14774 -0.34386,0.22109 -0.53895,0.22109 -0.23628,0 -0.44245,-0.0986 -0.61927,-0.29753 -0.17502,-0.19819 -0.2615,-0.46458 -0.2615,-0.8002 0,-0.32688 0.0965,-0.59121 0.28956,-0.79249 0.19509,-0.20307 0.42828,-0.30551 0.69982,-0.30551 0.20308,0 0.37089,0.0543 0.50267,0.16087 0.13075,0.10758 0.19715,0.21929 0.19715,0.33382 0,0.0592 -0.0193,0.10656 -0.0564,0.14079 -0.0384,0.035 -0.0885,0.0522 -0.15289,0.0522 -0.0885,0 -0.15571,-0.0283 -0.20101,-0.0844 -0.0273,-0.0322 -0.0443,-0.0927 -0.0522,-0.18094 -0.008,-0.0885 -0.0394,-0.15701 -0.0927,-0.20514 -0.0512,-0.0453 -0.12354,-0.0685 -0.21697,-0.0685 -0.15289,0 -0.27566,0.0564 -0.366,0.16884 -0.12071,0.148 -0.18094,0.34387 -0.18094,0.58735 0,0.24734 0.0602,0.46535 0.18094,0.6553 0.12045,0.18814 0.28338,0.28157 0.49057,0.28157 0.14671,0 0.27952,-0.0502 0.39817,-0.15288 0.0824,-0.0692 0.16292,-0.19484 0.24117,-0.37784 z" />
    <path
       inkscape:connector-curvature="0"
       id="path879"
       style="fill:#000000;fill-opacity:1;fill-rule:nonzero;stroke:none;stroke-width:0.35277778"
       d="m 129.41859,121.11576 v -0.0965 c 0.22726,0.11274 0.41824,0.24735 0.57113,0.40229 0.21723,0.22006 0.38298,0.47848 0.49855,0.77601 0.11762,0.29573 0.17708,0.60331 0.17708,0.92504 0,0.46663 -0.11557,0.89286 -0.34592,1.27893 -0.2283,0.38607 -0.52893,0.66044 -0.90084,0.8244 v -0.0806 c 0.18505,-0.1045 0.33794,-0.24529 0.45839,-0.42211 0.12072,-0.17708 0.20926,-0.40229 0.26562,-0.67563 0.0582,-0.2754 0.0883,-0.5611 0.0883,-0.85657 0,-0.32173 -0.026,-0.6154 -0.0764,-0.88076 -0.0381,-0.20926 -0.0844,-0.37501 -0.14053,-0.49881 -0.0564,-0.12561 -0.13178,-0.24632 -0.22521,-0.36188 -0.0947,-0.11763 -0.21723,-0.22933 -0.37011,-0.33383 z" />
    <path
       inkscape:connector-curvature="0"
       id="path881"
       style="fill:none;stroke:#000000;stroke-width:0.33866665;stroke-linecap:butt;stroke-linejoin:miter;stroke-miterlimit:10;stroke-dasharray:none;stroke-opacity:1"
       d="m 106.6312,111.70919 c -0.98037,0 -1.77568,-0.40409 -1.77568,-0.90084 v -8.40612 c 0,-0.49675 -0.79506,-0.90084 -1.77646,-0.90084 0.9814,0 1.77646,-0.40409 1.77646,-0.90084 v -8.406118 c 0,-0.496749 0.79531,-0.900839 1.77568,-0.900839" />
    <path
       inkscape:connector-curvature="0"
       id="path883"
       style="fill:none;stroke:#000000;stroke-width:0.33866665;stroke-linecap:butt;stroke-linejoin:miter;stroke-miterlimit:10;stroke-dasharray:1.35466664, 1.01599998;stroke-dashoffset:0;stroke-opacity:1"
       d="M 123.83467,91.293593 H 108.4841" />
    <path
       inkscape:connector-curvature="0"
       id="path885"
       style="fill:none;stroke:#000000;stroke-width:0.33866665;stroke-linecap:butt;stroke-linejoin:miter;stroke-miterlimit:10;stroke-dasharray:1.35466664, 1.01599998;stroke-dashoffset:0;stroke-opacity:1"
       d="M 125.34885,111.71228 V 92.807775" />
    <path
       inkscape:connector-curvature="0"
       id="path887"
       style="fill:#000000;fill-opacity:1;fill-rule:nonzero;stroke:none;stroke-width:0.35277778"
       d="m 97.441865,100.65074 c 0.03217,-0.13873 0.04813,-0.25326 0.04813,-0.3418 0,-0.0582 -0.01107,-0.10141 -0.03217,-0.12869 -0.01905,-0.0291 -0.04813,-0.0443 -0.08828,-0.0443 -0.04839,0 -0.09961,0.0203 -0.152886,0.0605 -0.05122,0.0381 -0.120712,0.10759 -0.209252,0.209 l -0.128691,-0.12869 c 0.133839,-0.14156 0.247345,-0.24323 0.341804,-0.305517 0.09369,-0.06126 0.198185,-0.09266 0.31375,-0.09266 0.09343,0 0.167041,0.0314 0.221349,0.09266 0.05611,0.06229 0.08442,0.143617 0.08442,0.245287 0,0.0865 -0.01827,0.17502 -0.05225,0.26536 l 0.02805,0.0121 c 0.278489,-0.41027 0.555947,-0.615405 0.832376,-0.615405 0.162924,0 0.290585,0.06357 0.382214,0.189175 0.09034,0.12663 0.13667,0.30371 0.13667,0.53072 0,0.24735 -0.05019,0.49083 -0.148767,0.732 -0.09961,0.24143 -0.239366,0.43343 -0.418247,0.57499 -0.17708,0.13976 -0.376036,0.20926 -0.595327,0.20926 -0.201016,0 -0.368829,-0.0443 -0.502668,-0.13281 l -0.104498,0.4988 c -0.02213,0.10656 -0.03217,0.19407 -0.03217,0.26125 0,0.0664 0.01596,0.11376 0.04813,0.14079 0.03423,0.0293 0.101666,0.0484 0.201273,0.0564 l -0.02007,0.11274 h -0.695963 z m 0.229071,0.6396 c -0.01596,0.0803 -0.026,0.14285 -0.02805,0.18506 -0.0031,0.0432 -0.0041,0.0844 -0.0041,0.12457 0,0.11865 0.02419,0.20411 0.07258,0.25738 0.05019,0.0543 0.1377,0.0803 0.261244,0.0803 0.07747,0 0.148767,-0.0139 0.213112,-0.044 0.06435,-0.0322 0.125861,-0.0764 0.185059,-0.1328 0.05843,-0.0584 0.110674,-0.1287 0.157003,-0.20926 0.04813,-0.0803 0.08931,-0.17373 0.124573,-0.28132 0.03706,-0.10964 0.06538,-0.22135 0.08442,-0.33382 0.01802,-0.11454 0.02806,-0.22212 0.02806,-0.32173 0,-0.15778 -0.02291,-0.2754 -0.06821,-0.3539 -0.04324,-0.0775 -0.112733,-0.1166 -0.209252,-0.1166 -0.07824,0 -0.154687,0.027 -0.229071,0.0803 -0.07258,0.0512 -0.154944,0.13487 -0.245285,0.2494 -0.08854,0.11248 -0.159063,0.22521 -0.209253,0.33769 -0.04813,0.11273 -0.08751,0.24142 -0.116594,0.38607 z" />
    <path
       inkscape:connector-curvature="0"
       id="path889"
       style="fill:#000000;fill-opacity:1;fill-rule:nonzero;stroke:none;stroke-width:0.35277778"
       d="m 100.12817,103.02767 c -0.035,-0.20925 -0.0664,-0.38813 -0.0924,-0.53896 -0.0273,-0.14979 -0.05225,-0.27746 -0.07644,-0.38195 -0.02214,-0.10656 -0.04221,-0.19407 -0.06023,-0.2615 -0.0193,-0.0664 -0.03835,-0.11866 -0.05637,-0.15675 -0.01622,-0.0373 -0.03423,-0.0623 -0.05225,-0.0764 -0.01621,-0.0131 -0.03526,-0.0201 -0.05637,-0.0201 -0.01905,0 -0.03629,0.003 -0.05225,0.008 -0.01622,0.006 -0.03423,0.016 -0.05225,0.0322 -0.01622,0.0142 -0.03526,0.0353 -0.05637,0.0643 -0.01905,0.027 -0.04324,0.0633 -0.07232,0.10861 l -0.128691,-0.0844 c 0.04813,-0.0664 0.09034,-0.12277 0.128691,-0.1691 0.04015,-0.045 0.07824,-0.0813 0.116595,-0.10836 0.04015,-0.0262 0.0803,-0.0453 0.120712,-0.0564 0.04015,-0.0131 0.08442,-0.0201 0.132552,-0.0201 0.03732,0 0.07052,0.004 0.100637,0.0121 0.02909,0.008 0.05431,0.0221 0.07645,0.0402 0.0242,0.016 0.0443,0.0391 0.0602,0.0682 0.018,0.0273 0.0373,0.0605 0.0564,0.10063 0.01,0.0242 0.0211,0.0595 0.0322,0.1045 0.01,0.0432 0.0211,0.0947 0.0322,0.15289 0.0131,0.0594 0.0252,0.12457 0.0363,0.19715 0.0129,0.0703 0.025,0.14362 0.036,0.22109 0.0131,0.0754 0.0252,0.15495 0.0363,0.23731 0.01,0.0803 0.0201,0.15984 0.0281,0.23731 0.0824,-0.10656 0.157,-0.21415 0.22135,-0.32173 0.0661,-0.10965 0.12148,-0.21311 0.16472,-0.30963 0.0453,-0.0986 0.0806,-0.18918 0.1045,-0.26948 0.0242,-0.0806 0.0363,-0.14491 0.0363,-0.19304 0,-0.0484 -0.0142,-0.0816 -0.0402,-0.10064 -0.0242,-0.0211 -0.0664,-0.0332 -0.12483,-0.036 l 0.0203,-0.10475 h 0.46638 l 0.0564,0.0926 c -0.10758,0.27128 -0.23524,0.53073 -0.38221,0.78013 -0.14465,0.2494 -0.3086,0.49263 -0.49057,0.72788 -0.0803,0.0934 -0.15289,0.17399 -0.21723,0.24142 -0.0623,0.0692 -0.11943,0.1287 -0.17271,0.17683 -0.0543,0.0502 -0.104763,0.0924 -0.152893,0.12457 -0.04633,0.0322 -0.0906,0.0574 -0.13281,0.0764 -0.04324,0.0183 -0.08648,0.0322 -0.128691,0.0404 -0.04324,0.008 -0.08854,0.0129 -0.13667,0.016 -0.02419,0 -0.05534,-0.003 -0.0924,-0.008 -0.03526,-0.006 -0.0664,-0.0121 -0.09266,-0.0201 l 0.08056,-0.35802 h 0.148767 v 0.008 c 0,0.0744 0.03011,0.11274 0.0924,0.11274 0.07747,0 0.157003,-0.0311 0.237307,-0.0927 0.08236,-0.0623 0.18197,-0.15984 0.29754,-0.29342 z" />
    <path
       inkscape:connector-curvature="0"
       id="path891"
       style="fill:#000000;fill-opacity:1;fill-rule:nonzero;stroke:none;stroke-width:0.35277778"
       d="m 116.62795,118.44053 c 0.0322,-0.13873 0.0481,-0.25353 0.0481,-0.34181 0,-0.0584 -0.0111,-0.10167 -0.0322,-0.12869 -0.0191,-0.0293 -0.0481,-0.0443 -0.0883,-0.0443 -0.0484,0 -0.0996,0.0201 -0.15288,0.0602 -0.0512,0.0381 -0.12071,0.10758 -0.20925,0.20925 l -0.12869,-0.12869 c 0.13383,-0.14182 0.24734,-0.24349 0.3418,-0.30577 0.0937,-0.0613 0.19818,-0.0924 0.31375,-0.0924 0.0934,0 0.16704,0.0311 0.22135,0.0924 0.0561,0.0623 0.0844,0.14387 0.0844,0.24528 0,0.0865 -0.0183,0.17502 -0.0523,0.26536 l 0.0281,0.0121 c 0.27848,-0.41001 0.55594,-0.61514 0.83237,-0.61514 0.16293,0 0.29059,0.0633 0.38222,0.18892 0.0903,0.12663 0.13667,0.30371 0.13667,0.53098 0,0.24708 -0.0502,0.49057 -0.14877,0.73174 -0.0996,0.24142 -0.23937,0.43343 -0.41825,0.57525 -0.17708,0.13976 -0.37603,0.20899 -0.59532,0.20899 -0.20102,0 -0.36883,-0.0443 -0.50267,-0.13255 l -0.1045,0.49855 c -0.0221,0.10656 -0.0322,0.19407 -0.0322,0.2615 0,0.0661 0.016,0.11351 0.0481,0.14079 0.0342,0.0291 0.10166,0.0481 0.20127,0.0561 l -0.0201,0.11273 h -0.69596 z m 0.22907,0.63933 c -0.016,0.0806 -0.026,0.14285 -0.0281,0.18506 -0.003,0.0432 -0.004,0.0844 -0.004,0.12458 0,0.11865 0.0242,0.2041 0.0726,0.25738 0.0502,0.0543 0.1377,0.0806 0.26124,0.0806 0.0775,0 0.14877,-0.0142 0.21312,-0.0443 0.0643,-0.0322 0.12586,-0.0764 0.18505,-0.13281 0.0584,-0.0582 0.11068,-0.12869 0.15701,-0.20899 0.0481,-0.0806 0.0893,-0.174 0.12457,-0.28158 0.0371,-0.10965 0.0654,-0.22109 0.0844,-0.33383 0.018,-0.11453 0.0281,-0.22212 0.0281,-0.32173 0,-0.15777 -0.0229,-0.2754 -0.0682,-0.3539 -0.0432,-0.0775 -0.11273,-0.11659 -0.20925,-0.11659 -0.0782,0 -0.15469,0.027 -0.22907,0.0803 -0.0726,0.0515 -0.15495,0.13487 -0.24529,0.24941 -0.0885,0.11273 -0.15906,0.22521 -0.20925,0.33794 -0.0481,0.11248 -0.0875,0.24117 -0.1166,0.38607 z" />
    <path
       inkscape:connector-curvature="0"
       id="path893"
       style="fill:#000000;fill-opacity:1;fill-rule:nonzero;stroke:none;stroke-width:0.35277778"
       d="m 119.28208,120.0381 c -0.019,-0.0906 -0.036,-0.16987 -0.0522,-0.23731 -0.0142,-0.0664 -0.027,-0.12483 -0.0402,-0.17296 -0.0142,-0.0484 -0.0273,-0.0865 -0.0401,-0.11659 -0.0111,-0.0322 -0.0232,-0.0574 -0.0363,-0.0764 -0.0111,-0.018 -0.0242,-0.0301 -0.0402,-0.0363 -0.0142,-0.008 -0.0301,-0.0129 -0.0484,-0.016 -0.019,0 -0.036,0.004 -0.0523,0.0121 -0.016,0.006 -0.0342,0.016 -0.0523,0.0322 -0.016,0.0139 -0.0353,0.0342 -0.0564,0.0602 -0.019,0.0273 -0.0401,0.0633 -0.0643,0.10862 l -0.12869,-0.0844 c 0.0453,-0.0644 0.0854,-0.11866 0.12071,-0.16498 0.0373,-0.0481 0.0733,-0.0855 0.10861,-0.11248 0.0342,-0.0262 0.0703,-0.0453 0.10862,-0.0564 0.0401,-0.0131 0.0844,-0.0201 0.13255,-0.0201 0.0615,0 0.11068,0.0142 0.14903,0.0401 0.0371,0.0273 0.0682,0.0664 0.0924,0.11659 0.026,0.0484 0.0481,0.11068 0.0643,0.18506 0.016,0.0723 0.0332,0.15572 0.0523,0.2494 h 0.0201 c 0.0664,-0.0855 0.12277,-0.1588 0.16884,-0.22134 0.0484,-0.0643 0.0906,-0.11763 0.12869,-0.16087 0.0373,-0.0422 0.0705,-0.0772 0.10064,-0.1045 0.0322,-0.0291 0.0613,-0.0502 0.0885,-0.0643 0.0291,-0.016 0.0582,-0.026 0.0885,-0.0322 0.0291,-0.005 0.0623,-0.008 0.10038,-0.008 0.0533,0 0.10269,0.0111 0.14876,0.0322 l -0.0803,0.32173 h -0.13667 c -0.003,-0.0484 -0.0203,-0.0723 -0.0525,-0.0723 -0.0139,0 -0.027,0.003 -0.0401,0.008 -0.0142,0.003 -0.0311,0.0111 -0.0523,0.0242 -0.019,0.0139 -0.0422,0.0322 -0.0685,0.0561 -0.0239,0.0242 -0.0543,0.0553 -0.0883,0.0927 -0.0353,0.0381 -0.0754,0.0834 -0.12071,0.13667 -0.0432,0.0543 -0.0945,0.11866 -0.15289,0.19304 0.0291,0.15083 0.0543,0.27154 0.0764,0.36188 0.0211,0.0885 0.0412,0.157 0.0602,0.20513 0.0211,0.0484 0.0414,0.0806 0.0605,0.0965 0.018,0.0142 0.0412,0.0201 0.0682,0.0201 0.0183,0 0.0342,-0.001 0.0484,-0.004 0.016,-0.005 0.0322,-0.0142 0.0481,-0.0283 0.0183,-0.016 0.0373,-0.0371 0.0564,-0.0644 0.0211,-0.0291 0.0463,-0.0664 0.0764,-0.11248 l 0.12457,0.0803 c -0.0481,0.0723 -0.0914,0.13178 -0.12869,0.17708 -0.0381,0.0461 -0.0744,0.0824 -0.10836,0.10861 -0.0353,0.0239 -0.0716,0.0401 -0.10861,0.0481 -0.0383,0.01 -0.0795,0.0162 -0.12483,0.0162 -0.0432,0 -0.0803,-0.006 -0.11248,-0.0162 -0.0322,-0.0111 -0.0605,-0.0322 -0.0844,-0.0643 -0.0162,-0.018 -0.0322,-0.0422 -0.0484,-0.0723 -0.0142,-0.0322 -0.027,-0.0654 -0.0401,-0.10063 -0.0111,-0.0342 -0.0221,-0.0703 -0.0322,-0.10862 -0.008,-0.0401 -0.0162,-0.0772 -0.0242,-0.11248 -0.006,-0.0342 -0.0111,-0.0643 -0.016,-0.0885 -0.003,-0.026 -0.004,-0.0463 -0.004,-0.0602 h -0.0201 c -0.0643,0.0865 -0.12071,0.16292 -0.16884,0.22907 -0.0484,0.0643 -0.0927,0.11968 -0.13281,0.16498 -0.0402,0.0463 -0.0764,0.0834 -0.10862,0.11248 -0.0301,0.0304 -0.0602,0.0543 -0.0924,0.0726 -0.0301,0.016 -0.0605,0.026 -0.0927,0.0322 -0.0322,0.008 -0.0672,0.0121 -0.10449,0.0121 -0.0592,0 -0.10862,-0.01 -0.14877,-0.0283 l 0.0764,-0.31761 h 0.14079 c 0.002,0.0481 0.0201,0.0723 0.0523,0.0723 0.0131,-0.002 0.0252,-0.005 0.0363,-0.008 0.01,-0.002 0.0219,-0.009 0.036,-0.0201 0.0162,-0.01 0.0363,-0.0263 0.0605,-0.0484 0.0239,-0.0242 0.0533,-0.0543 0.0883,-0.0924 0.0373,-0.0401 0.0816,-0.0896 0.13281,-0.14877 0.0533,-0.0615 0.1166,-0.13693 0.18892,-0.22521 z" />
    <path
       inkscape:connector-curvature="0"
       id="path895"
       style="fill:none;stroke:#000000;stroke-width:0.33866665;stroke-linecap:butt;stroke-linejoin:miter;stroke-miterlimit:10;stroke-dasharray:none;stroke-opacity:1"
       d="m 125.34885,113.25349 c 0,0.81153 -0.45866,1.46708 -1.02464,1.46708 h -6.38335 c -0.56599,0 -1.02438,0.65633 -1.02438,1.46786 0,-0.81153 -0.4584,-1.46786 -1.02465,-1.46786 h -6.38309 c -0.56624,0 -1.02464,-0.65555 -1.02464,-1.46708" />
  </g>
</svg>
