<?xml version="1.0" encoding="UTF-8" standalone="no"?>
<!-- Created with Inkscape (http://www.inkscape.org/) -->

<svg
   xmlns:dc="http://purl.org/dc/elements/1.1/"
   xmlns:cc="http://creativecommons.org/ns#"
   xmlns:rdf="http://www.w3.org/1999/02/22-rdf-syntax-ns#"
   xmlns:svg="http://www.w3.org/2000/svg"
   xmlns="http://www.w3.org/2000/svg"
   xmlns:sodipodi="http://sodipodi.sourceforge.net/DTD/sodipodi-0.dtd"
   xmlns:inkscape="http://www.inkscape.org/namespaces/inkscape"
   width="155.48215mm"
   height="52.823181mm"
   viewBox="0 0 155.48215 52.823181"
   version="1.1"
   id="svg8"
   inkscape:version="0.92.4 (5da689c313, 2019-01-14)"
   sodipodi:docname="directional_quantities.svg">
  <defs
     id="defs2" />
  <sodipodi:namedview
     id="base"
     pagecolor="#ffffff"
     bordercolor="#666666"
     borderopacity="1.0"
     inkscape:pageopacity="0.0"
     inkscape:pageshadow="2"
     inkscape:zoom="0.35"
     inkscape:cx="-165.71668"
     inkscape:cy="116.56965"
     inkscape:document-units="mm"
     inkscape:current-layer="layer1"
     showgrid="false"
     fit-margin-top="0"
     fit-margin-left="0"
     fit-margin-right="0"
     fit-margin-bottom="0"
     inkscape:window-width="1920"
     inkscape:window-height="1001"
     inkscape:window-x="-9"
     inkscape:window-y="-9"
     inkscape:window-maximized="1" />
  <metadata
     id="metadata5">
    <rdf:RDF>
      <cc:Work
         rdf:about="">
        <dc:format>image/svg+xml</dc:format>
        <dc:type
           rdf:resource="http://purl.org/dc/dcmitype/StillImage" />
        <dc:title></dc:title>
      </cc:Work>
    </rdf:RDF>
  </metadata>
  <g
     inkscape:label="Layer 1"
     inkscape:groupmode="layer"
     id="layer1"
     transform="translate(-5.2923014,-126.85254)">
    <g
       transform="matrix(0.27125673,0,0,-0.27125673,5.3314315,179.67599)"
       inkscape:label="directional_quantities"
       id="g1137"
       style="stroke-width:1.30053091">
      <g
         id="g1139"
         style="stroke-width:1.30053091">
        <g
           transform="matrix(1,0,0,-1,0,194.73563)"
           id="g1141"
           style="stroke-width:1.30053091">
          <path
             inkscape:connector-curvature="0"
             id="path1143"
             style="fill:none;stroke:#f3b082;stroke-width:2.02882814;stroke-linecap:butt;stroke-linejoin:miter;stroke-miterlimit:10;stroke-dasharray:8.11531311, 6.08648483;stroke-dashoffset:0;stroke-opacity:1"
             d="m 409.258,57.914 c 7.332,-14.551 14.66,-29.101 30.531,-31.281 15.871,-2.18 51.012,4.851 64.699,18.191 13.692,13.328 6.063,47.641 17.442,61.821 11.39,14.187 31.14,18.73 50.89,23.277" />
        </g>
        <g
           transform="matrix(1,0,0,-1,0,194.73563)"
           id="g1145"
           style="stroke-width:1.30053091">
          <path
             inkscape:connector-curvature="0"
             id="path1147"
             style="fill:#5999d4;fill-opacity:1;fill-rule:evenodd;stroke:#3f709c;stroke-width:1.24850965;stroke-linecap:butt;stroke-linejoin:miter;stroke-miterlimit:10;stroke-dasharray:none;stroke-opacity:1"
             d="m 0.48,25.762 c 0,-3.207 2.606,-5.817 5.821,-5.817 3.211,0 5.82,2.61 5.82,5.817 0,3.211 -2.609,5.82 -5.82,5.82 -3.215,0 -5.821,-2.609 -5.821,-5.82 z" />
        </g>
        <path
           inkscape:connector-curvature="0"
           id="path1149"
           style="fill:#000000;fill-opacity:1;fill-rule:nonzero;stroke:none;stroke-width:1.30053091"
           d="m 22.105,194.736 h 4.688 c 1.238,0 2.16,-0.266 2.766,-0.797 0.613,-0.531 0.921,-1.18 0.921,-1.938 0,-0.605 -0.199,-1.195 -0.593,-1.765 -0.387,-0.563 -0.961,-1.024 -1.719,-1.375 -0.762,-0.356 -1.586,-0.532 -2.469,-0.532 -0.554,0 -1.25,0.098 -2.094,0.297 l -0.953,-3.25 c -0.218,-0.781 -0.328,-1.293 -0.328,-1.531 0,-0.187 0.078,-0.344 0.235,-0.469 0.156,-0.125 0.531,-0.203 1.125,-0.234 l -0.079,-0.328 h -4.75 l 0.11,0.328 c 0.613,0 1.039,0.101 1.281,0.312 0.25,0.219 0.516,0.813 0.797,1.782 l 1.969,6.781 c 0.226,0.812 0.343,1.359 0.343,1.641 0,0.195 -0.085,0.363 -0.25,0.5 -0.167,0.132 -0.531,0.218 -1.093,0.25 z m 1.641,-5.563 c 0.664,-0.168 1.203,-0.25 1.609,-0.25 0.633,0 1.211,0.129 1.735,0.391 0.531,0.269 0.941,0.664 1.234,1.187 0.289,0.532 0.438,1.078 0.438,1.641 0,0.594 -0.184,1.062 -0.547,1.406 -0.356,0.352 -0.902,0.531 -1.641,0.531 -0.398,0 -0.883,-0.054 -1.453,-0.156 z" />
        <path
           inkscape:connector-curvature="0"
           id="path1151"
           style="fill:#000000;fill-opacity:1;fill-rule:nonzero;stroke:none;stroke-width:1.30053091"
           d="M 67.254,0.314 V 0.001 c -0.887,0.438 -1.625,0.961 -2.219,1.563 -0.844,0.844 -1.496,1.844 -1.953,3 -0.461,1.156 -0.687,2.351 -0.687,3.594 0,1.82 0.445,3.476 1.343,4.968 0.895,1.5 2.067,2.571 3.516,3.219 V 15.97 C 66.535,15.572 65.941,15.025 65.473,14.329 65.012,13.642 64.668,12.767 64.441,11.704 64.211,10.65 64.098,9.548 64.098,8.392 64.098,7.13 64.191,5.99 64.379,4.97 64.535,4.158 64.723,3.509 64.941,3.017 65.16,2.529 65.449,2.06 65.816,1.611 66.18,1.165 66.66,0.732 67.254,0.314 Z" />
        <path
           inkscape:connector-curvature="0"
           id="path1153"
           style="fill:#000000;fill-opacity:1;fill-rule:nonzero;stroke:none;stroke-width:1.30053091"
           d="M 72.777,5.001 C 71.953,4.365 71.434,3.993 71.215,3.892 c -0.313,-0.145 -0.649,-0.219 -1,-0.219 -0.563,0 -1.027,0.188 -1.391,0.563 -0.355,0.382 -0.531,0.89 -0.531,1.515 0,0.395 0.086,0.735 0.266,1.016 0.238,0.406 0.656,0.781 1.25,1.125 0.593,0.351 1.582,0.781 2.968,1.281 v 0.328 c 0,0.801 -0.132,1.348 -0.39,1.641 -0.25,0.301 -0.621,0.453 -1.11,0.453 -0.367,0 -0.656,-0.102 -0.875,-0.297 -0.218,-0.199 -0.328,-0.43 -0.328,-0.687 l 0.016,-0.5 C 70.09,9.837 70.016,9.63 69.871,9.486 69.734,9.337 69.559,9.267 69.34,9.267 c -0.219,0 -0.399,0.07 -0.531,0.219 -0.137,0.156 -0.204,0.363 -0.204,0.625 0,0.5 0.254,0.957 0.766,1.375 0.52,0.425 1.242,0.64 2.172,0.64 0.719,0 1.305,-0.121 1.766,-0.359 0.343,-0.18 0.597,-0.461 0.765,-0.844 0.102,-0.25 0.156,-0.765 0.156,-1.547 V 6.642 c 0,-0.774 0.008,-1.246 0.032,-1.422 0.031,-0.168 0.078,-0.281 0.14,-0.344 0.071,-0.054 0.157,-0.078 0.25,-0.078 0.094,0 0.176,0.02 0.25,0.063 0.114,0.07 0.348,0.285 0.703,0.64 v -0.5 C 74.949,4.126 74.324,3.689 73.73,3.689 c -0.292,0 -0.523,0.101 -0.687,0.297 -0.168,0.195 -0.258,0.535 -0.266,1.015 z m 0,0.578 V 8.642 C 71.891,8.286 71.316,8.036 71.059,7.892 70.598,7.642 70.27,7.376 70.074,7.095 69.875,6.814 69.777,6.505 69.777,6.173 c 0,-0.43 0.125,-0.781 0.375,-1.062 0.25,-0.274 0.536,-0.407 0.86,-0.407 0.445,0 1.035,0.289 1.765,0.875 z" />
        <path
           inkscape:connector-curvature="0"
           id="path1155"
           style="fill:#000000;fill-opacity:1;fill-rule:nonzero;stroke:none;stroke-width:1.30053091"
           d="m 76.105,15.97 v 0.375 c 0.883,-0.437 1.625,-0.961 2.219,-1.562 0.844,-0.856 1.489,-1.86 1.938,-3.016 0.457,-1.149 0.687,-2.344 0.687,-3.594 0,-1.812 -0.449,-3.469 -1.344,-4.969 -0.886,-1.5 -2.054,-2.566 -3.5,-3.203 v 0.313 c 0.719,0.406 1.313,0.953 1.782,1.64 0.468,0.688 0.812,1.563 1.031,2.625 0.227,1.071 0.344,2.18 0.344,3.329 0,1.25 -0.102,2.39 -0.297,3.421 -0.149,0.813 -0.328,1.457 -0.547,1.938 -0.219,0.488 -0.512,0.957 -0.875,1.406 -0.367,0.457 -0.844,0.891 -1.438,1.297 z" />
        <path
           inkscape:connector-curvature="0"
           id="path1157"
           style="fill:#000000;fill-opacity:1;fill-rule:nonzero;stroke:none;stroke-width:1.30053091"
           d="M 284.371,0.314 V 0.001 c -0.887,0.438 -1.625,0.961 -2.219,1.563 -0.843,0.844 -1.496,1.844 -1.953,3 -0.461,1.156 -0.687,2.351 -0.687,3.594 0,1.82 0.445,3.476 1.343,4.968 0.895,1.5 2.067,2.571 3.516,3.219 V 15.97 c -0.719,-0.398 -1.312,-0.945 -1.781,-1.641 -0.461,-0.687 -0.805,-1.562 -1.031,-2.625 -0.231,-1.054 -0.344,-2.156 -0.344,-3.312 0,-1.262 0.094,-2.402 0.281,-3.422 0.156,-0.812 0.344,-1.461 0.563,-1.953 0.218,-0.488 0.507,-0.957 0.875,-1.406 0.363,-0.446 0.843,-0.879 1.437,-1.297 z" />
        <path
           inkscape:connector-curvature="0"
           id="path1159"
           style="fill:#000000;fill-opacity:1;fill-rule:nonzero;stroke:none;stroke-width:1.30053091"
           d="m 287.543,10.501 c 0.781,1.082 1.625,1.625 2.531,1.625 0.821,0 1.539,-0.355 2.156,-1.062 0.614,-0.699 0.922,-1.664 0.922,-2.891 0,-1.43 -0.476,-2.578 -1.422,-3.453 -0.812,-0.75 -1.718,-1.125 -2.718,-1.125 -0.469,0 -0.949,0.086 -1.438,0.25 -0.48,0.176 -0.976,0.438 -1.484,0.781 v 8.328 c 0,0.914 -0.024,1.477 -0.063,1.688 -0.043,0.219 -0.109,0.363 -0.203,0.437 -0.094,0.071 -0.215,0.11 -0.359,0.11 -0.156,0 -0.36,-0.047 -0.61,-0.141 l -0.125,0.313 2.422,0.984 h 0.391 z m 0,-0.562 V 5.126 c 0.301,-0.293 0.609,-0.515 0.922,-0.672 0.32,-0.148 0.648,-0.218 0.984,-0.218 0.531,0 1.024,0.289 1.485,0.875 0.468,0.593 0.703,1.445 0.703,2.562 0,1.031 -0.235,1.82 -0.703,2.375 -0.461,0.563 -0.981,0.844 -1.563,0.844 -0.312,0 -0.621,-0.086 -0.922,-0.25 -0.242,-0.117 -0.543,-0.352 -0.906,-0.703 z" />
        <path
           inkscape:connector-curvature="0"
           id="path1161"
           style="fill:#000000;fill-opacity:1;fill-rule:nonzero;stroke:none;stroke-width:1.30053091"
           d="m 294.191,15.97 v 0.375 c 0.883,-0.437 1.625,-0.961 2.219,-1.562 0.844,-0.856 1.488,-1.86 1.938,-3.016 0.457,-1.149 0.687,-2.344 0.687,-3.594 0,-1.812 -0.449,-3.469 -1.344,-4.969 -0.886,-1.5 -2.054,-2.566 -3.5,-3.203 v 0.313 c 0.719,0.406 1.313,0.953 1.782,1.64 0.468,0.688 0.812,1.563 1.031,2.625 0.226,1.071 0.344,2.18 0.344,3.329 0,1.25 -0.102,2.39 -0.297,3.421 -0.149,0.813 -0.328,1.457 -0.547,1.938 -0.219,0.488 -0.512,0.957 -0.875,1.406 -0.367,0.457 -0.844,0.891 -1.438,1.297 z" />
        <path
           inkscape:connector-curvature="0"
           id="path1163"
           style="fill:#000000;fill-opacity:1;fill-rule:nonzero;stroke:none;stroke-width:1.30053091"
           d="M 523.133,0.314 V 0.001 c -0.887,0.438 -1.625,0.961 -2.219,1.563 -0.844,0.844 -1.496,1.844 -1.953,3 -0.461,1.156 -0.688,2.351 -0.688,3.594 0,1.82 0.446,3.476 1.344,4.968 0.895,1.5 2.067,2.571 3.516,3.219 V 15.97 c -0.719,-0.398 -1.313,-0.945 -1.781,-1.641 -0.461,-0.687 -0.805,-1.562 -1.032,-2.625 -0.23,-1.054 -0.343,-2.156 -0.343,-3.312 0,-1.262 0.093,-2.402 0.281,-3.422 0.156,-0.812 0.344,-1.461 0.562,-1.953 0.219,-0.488 0.508,-0.957 0.875,-1.406 0.364,-0.446 0.844,-0.879 1.438,-1.297 z" />
        <path
           inkscape:connector-curvature="0"
           id="path1165"
           style="fill:#000000;fill-opacity:1;fill-rule:nonzero;stroke:none;stroke-width:1.30053091"
           d="M 530.938,6.908 C 530.719,5.845 530.289,5.025 529.656,4.454 529.02,3.88 528.32,3.595 527.563,3.595 c -0.918,0 -1.719,0.383 -2.407,1.156 -0.679,0.77 -1.015,1.805 -1.015,3.11 0,1.269 0.375,2.297 1.125,3.078 0.757,0.789 1.664,1.187 2.718,1.187 0.789,0 1.442,-0.211 1.954,-0.625 0.507,-0.418 0.765,-0.851 0.765,-1.297 0,-0.23 -0.074,-0.414 -0.219,-0.546 -0.148,-0.137 -0.343,-0.204 -0.593,-0.204 -0.344,0 -0.606,0.11 -0.782,0.329 -0.105,0.125 -0.171,0.359 -0.203,0.703 -0.031,0.343 -0.152,0.609 -0.359,0.797 -0.199,0.175 -0.481,0.265 -0.844,0.265 -0.594,0 -1.07,-0.219 -1.422,-0.656 -0.468,-0.574 -0.703,-1.336 -0.703,-2.281 0,-0.961 0.235,-1.809 0.703,-2.547 0.469,-0.731 1.102,-1.094 1.907,-1.094 0.57,0 1.085,0.195 1.546,0.594 0.321,0.269 0.633,0.758 0.938,1.469 z" />
        <path
           inkscape:connector-curvature="0"
           id="path1167"
           style="fill:#000000;fill-opacity:1;fill-rule:nonzero;stroke:none;stroke-width:1.30053091"
           d="m 531.93,15.97 v 0.375 c 0.883,-0.437 1.625,-0.961 2.218,-1.562 0.844,-0.856 1.489,-1.86 1.938,-3.016 0.457,-1.149 0.687,-2.344 0.687,-3.594 0,-1.812 -0.449,-3.469 -1.343,-4.969 -0.887,-1.5 -2.055,-2.566 -3.5,-3.203 v 0.313 c 0.718,0.406 1.312,0.953 1.781,1.64 0.469,0.688 0.812,1.563 1.031,2.625 0.227,1.071 0.344,2.18 0.344,3.329 0,1.25 -0.102,2.39 -0.297,3.421 -0.148,0.813 -0.328,1.457 -0.547,1.938 -0.219,0.488 -0.512,0.957 -0.875,1.406 -0.367,0.457 -0.844,0.891 -1.437,1.297 z" />
        <g
           transform="matrix(1,0,0,-1,0,194.73563)"
           id="g1169"
           style="stroke-width:1.30053091">
          <path
             inkscape:connector-curvature="0"
             id="path1171"
             style="fill:#5999d4;fill-opacity:1;fill-rule:evenodd;stroke:#3f709c;stroke-width:1.24850965;stroke-linecap:butt;stroke-linejoin:miter;stroke-miterlimit:10;stroke-dasharray:none;stroke-opacity:1"
             d="m 127.68,118.164 c 0,-3.211 2.609,-5.82 5.82,-5.82 3.211,0 5.82,2.609 5.82,5.82 0,3.211 -2.609,5.82 -5.82,5.82 -3.211,0 -5.82,-2.609 -5.82,-5.82 z" />
        </g>
        <path
           inkscape:connector-curvature="0"
           id="path1173"
           style="fill:#000000;fill-opacity:1;fill-rule:nonzero;stroke:none;stroke-width:1.30053091"
           d="m 153.293,89.427 -2.266,-1.844 c 0.352,0.063 0.68,0.094 0.985,0.094 0.301,0 0.57,-0.016 0.812,-0.047 0.25,-0.039 0.781,-0.148 1.594,-0.328 0.82,-0.187 1.539,-0.281 2.156,-0.281 0.645,0 1.192,0.117 1.641,0.344 0.457,0.218 0.898,0.593 1.328,1.125 l 0.297,-0.141 c -0.606,-0.863 -1.32,-1.488 -2.141,-1.875 -0.812,-0.383 -1.683,-0.578 -2.609,-0.578 -0.512,0 -1.211,0.101 -2.094,0.297 -1.355,0.304 -2.297,0.453 -2.828,0.453 -0.211,0 -0.383,-0.016 -0.516,-0.047 -0.125,-0.031 -0.312,-0.102 -0.562,-0.219 l -0.203,0.25 3.593,2.844 c -1.117,0.156 -1.96,0.644 -2.531,1.469 -0.574,0.82 -0.859,1.703 -0.859,2.64 0,1.282 0.383,2.61 1.156,3.985 0.781,1.375 1.774,2.437 2.984,3.187 1.208,0.75 2.395,1.125 3.563,1.125 0.875,0 1.613,-0.18 2.219,-0.531 0.613,-0.344 1.086,-0.856 1.422,-1.531 0.332,-0.668 0.5,-1.356 0.5,-2.063 0,-1.344 -0.387,-2.711 -1.157,-4.094 -0.761,-1.375 -1.714,-2.421 -2.859,-3.14 -1.137,-0.711 -2.344,-1.071 -3.625,-1.094 z m 3.297,11.891 c -0.586,0 -1.156,-0.149 -1.719,-0.438 -0.562,-0.281 -1.121,-0.758 -1.672,-1.422 -0.554,-0.656 -1.047,-1.515 -1.484,-2.578 -0.531,-1.312 -0.797,-2.555 -0.797,-3.719 0,-0.836 0.211,-1.574 0.641,-2.218 0.425,-0.637 1.082,-0.953 1.968,-0.953 0.532,0 1.051,0.128 1.563,0.39 0.519,0.258 1.055,0.707 1.609,1.344 0.696,0.812 1.281,1.836 1.75,3.078 0.477,1.25 0.719,2.41 0.719,3.484 0,0.789 -0.215,1.493 -0.641,2.11 -0.429,0.613 -1.074,0.922 -1.937,0.922 z" />
        <path
           inkscape:connector-curvature="0"
           id="path1175"
           style="fill:#000000;fill-opacity:1;fill-rule:nonzero;stroke:none;stroke-width:1.30053091"
           d="M 11.156,165.7 125.551,84.861 124.23,82.993 9.84,163.841 Z m 114.774,-78.32 3.609,-6.75 -7.559,1.16 z" />
        <path
           inkscape:connector-curvature="0"
           id="path1177"
           style="fill:#000000;fill-opacity:1;fill-rule:nonzero;stroke:none;stroke-width:1.30053091"
           d="m 83.758,142.396 0.109,0.328 h 3.797 c 1.613,0 2.805,-0.188 3.578,-0.563 0.781,-0.367 1.399,-0.949 1.86,-1.75 0.468,-0.793 0.703,-1.64 0.703,-2.546 0,-0.782 -0.137,-1.543 -0.407,-2.282 -0.261,-0.73 -0.562,-1.32 -0.906,-1.765 -0.336,-0.438 -0.851,-0.922 -1.547,-1.453 -0.699,-0.532 -1.453,-0.93 -2.265,-1.188 -0.813,-0.25 -1.828,-0.375 -3.047,-0.375 h -5.047 l 0.109,0.328 c 0.457,0.008 0.77,0.051 0.938,0.125 0.226,0.094 0.398,0.227 0.515,0.406 0.165,0.239 0.352,0.735 0.563,1.485 l 2.109,7.203 c 0.164,0.562 0.25,1.004 0.25,1.328 0,0.227 -0.078,0.406 -0.234,0.531 -0.148,0.125 -0.445,0.188 -0.891,0.188 z m 3.109,-0.328 -2.578,-8.922 c -0.187,-0.668 -0.281,-1.086 -0.281,-1.25 0,-0.094 0.023,-0.188 0.078,-0.281 0.062,-0.086 0.144,-0.137 0.25,-0.157 0.156,-0.054 0.406,-0.078 0.75,-0.078 0.914,0 1.766,0.094 2.547,0.281 0.789,0.188 1.441,0.469 1.953,0.844 0.707,0.539 1.273,1.289 1.703,2.25 0.426,0.957 0.641,2.047 0.641,3.266 0,1.375 -0.328,2.394 -0.985,3.062 -0.656,0.676 -1.609,1.016 -2.859,1.016 -0.313,0 -0.719,-0.012 -1.219,-0.031 z" />
        <g
           transform="matrix(1,0,0,-1,0,194.73563)"
           id="g1179"
           style="stroke-width:1.30053091">
          <path
             inkscape:connector-curvature="0"
             id="path1181"
             style="fill:#5999d4;fill-opacity:1;fill-rule:evenodd;stroke:#3f709c;stroke-width:1.24850965;stroke-linecap:butt;stroke-linejoin:miter;stroke-miterlimit:10;stroke-dasharray:none;stroke-opacity:1"
             d="m 216.719,25.762 c 0,-3.207 2.609,-5.817 5.82,-5.817 3.211,0 5.82,2.61 5.82,5.817 0,3.211 -2.609,5.82 -5.82,5.82 -3.211,0 -5.82,-2.609 -5.82,-5.82 z" />
        </g>
        <path
           inkscape:connector-curvature="0"
           id="path1183"
           style="fill:#000000;fill-opacity:1;fill-rule:nonzero;stroke:none;stroke-width:1.30053091"
           d="m 238.391,194.736 h 4.687 c 1.238,0 2.16,-0.266 2.766,-0.797 0.613,-0.531 0.922,-1.18 0.922,-1.938 0,-0.605 -0.2,-1.195 -0.594,-1.765 -0.387,-0.563 -0.961,-1.024 -1.719,-1.375 -0.762,-0.356 -1.586,-0.532 -2.469,-0.532 -0.554,0 -1.25,0.098 -2.093,0.297 l -0.953,-3.25 c -0.219,-0.781 -0.329,-1.293 -0.329,-1.531 0,-0.187 0.079,-0.344 0.235,-0.469 0.156,-0.125 0.531,-0.203 1.125,-0.234 l -0.078,-0.328 h -4.75 l 0.109,0.328 c 0.613,0 1.039,0.101 1.281,0.312 0.25,0.219 0.516,0.813 0.797,1.782 l 1.969,6.781 c 0.226,0.812 0.344,1.359 0.344,1.641 0,0.195 -0.086,0.363 -0.25,0.5 -0.168,0.132 -0.532,0.218 -1.094,0.25 z m 1.64,-5.563 c 0.664,-0.168 1.203,-0.25 1.61,-0.25 0.632,0 1.211,0.129 1.734,0.391 0.531,0.269 0.941,0.664 1.234,1.187 0.289,0.532 0.438,1.078 0.438,1.641 0,0.594 -0.184,1.062 -0.547,1.406 -0.355,0.352 -0.902,0.531 -1.641,0.531 -0.398,0 -0.882,-0.054 -1.453,-0.156 z" />
        <g
           transform="matrix(1,0,0,-1,0,194.73563)"
           id="g1185"
           style="stroke-width:1.30053091">
          <path
             inkscape:connector-curvature="0"
             id="path1187"
             style="fill:#5999d4;fill-opacity:1;fill-rule:evenodd;stroke:#3f709c;stroke-width:1.24850965;stroke-linecap:butt;stroke-linejoin:miter;stroke-miterlimit:10;stroke-dasharray:none;stroke-opacity:1"
             d="m 343.918,118.164 c 0,-3.211 2.613,-5.82 5.82,-5.82 3.211,0 5.821,2.609 5.821,5.82 0,3.211 -2.61,5.82 -5.821,5.82 -3.207,0 -5.82,-2.609 -5.82,-5.82 z" />
        </g>
        <path
           inkscape:connector-curvature="0"
           id="path1189"
           style="fill:#000000;fill-opacity:1;fill-rule:nonzero;stroke:none;stroke-width:1.30053091"
           d="m 369.586,89.427 -2.266,-1.844 c 0.352,0.063 0.68,0.094 0.985,0.094 0.3,0 0.57,-0.016 0.812,-0.047 0.25,-0.039 0.781,-0.148 1.594,-0.328 0.82,-0.187 1.539,-0.281 2.156,-0.281 0.645,0 1.192,0.117 1.641,0.344 0.457,0.218 0.898,0.593 1.328,1.125 l 0.297,-0.141 c -0.606,-0.863 -1.32,-1.488 -2.141,-1.875 -0.812,-0.383 -1.683,-0.578 -2.609,-0.578 -0.512,0 -1.211,0.101 -2.094,0.297 -1.355,0.304 -2.297,0.453 -2.828,0.453 -0.211,0 -0.383,-0.016 -0.516,-0.047 -0.125,-0.031 -0.312,-0.102 -0.562,-0.219 l -0.203,0.25 3.593,2.844 c -1.117,0.156 -1.96,0.644 -2.531,1.469 -0.574,0.82 -0.859,1.703 -0.859,2.64 0,1.282 0.383,2.61 1.156,3.985 0.781,1.375 1.774,2.437 2.984,3.187 1.207,0.75 2.395,1.125 3.563,1.125 0.875,0 1.613,-0.18 2.219,-0.531 0.613,-0.344 1.086,-0.856 1.422,-1.531 0.332,-0.668 0.5,-1.356 0.5,-2.063 0,-1.344 -0.387,-2.711 -1.157,-4.094 -0.761,-1.375 -1.715,-2.421 -2.859,-3.14 -1.137,-0.711 -2.344,-1.071 -3.625,-1.094 z m 3.297,11.891 c -0.586,0 -1.156,-0.149 -1.719,-0.438 -0.562,-0.281 -1.121,-0.758 -1.672,-1.422 -0.554,-0.656 -1.047,-1.515 -1.484,-2.578 -0.531,-1.312 -0.797,-2.555 -0.797,-3.719 0,-0.836 0.211,-1.574 0.641,-2.218 0.425,-0.637 1.082,-0.953 1.968,-0.953 0.532,0 1.051,0.128 1.563,0.39 0.519,0.258 1.055,0.707 1.609,1.344 0.696,0.812 1.281,1.836 1.75,3.078 0.477,1.25 0.719,2.41 0.719,3.484 0,0.789 -0.215,1.493 -0.641,2.11 -0.429,0.613 -1.074,0.922 -1.937,0.922 z" />
        <g
           transform="matrix(1,0,0,-1,0,194.73563)"
           id="g1191"
           style="stroke-width:1.30053091">
          <path
             inkscape:connector-curvature="0"
             id="path1193"
             style="fill:none;stroke:#f3b082;stroke-width:2.02882814;stroke-linecap:butt;stroke-linejoin:miter;stroke-miterlimit:10;stroke-dasharray:8.11531311, 6.08648483;stroke-dashoffset:0;stroke-opacity:1"
             d="m 226.738,29.965 119.043,84.14" />
        </g>
        <path
           inkscape:connector-curvature="0"
           id="path1195"
           style="fill:#000000;fill-opacity:1;fill-rule:nonzero;stroke:none;stroke-width:1.30053091"
           d="m 268.699,168.216 0.11,0.328 h 3.796 c 1.614,0 2.805,-0.187 3.579,-0.562 0.781,-0.367 1.398,-0.949 1.859,-1.75 0.469,-0.793 0.703,-1.641 0.703,-2.547 0,-0.781 -0.137,-1.543 -0.406,-2.281 -0.262,-0.731 -0.563,-1.321 -0.906,-1.766 -0.336,-0.438 -0.852,-0.922 -1.547,-1.453 -0.699,-0.531 -1.453,-0.93 -2.266,-1.188 -0.812,-0.25 -1.828,-0.375 -3.047,-0.375 h -5.047 l 0.11,0.328 c 0.457,0.008 0.769,0.051 0.937,0.125 0.227,0.094 0.399,0.227 0.516,0.407 0.164,0.238 0.351,0.734 0.562,1.484 l 2.11,7.203 c 0.164,0.563 0.25,1.004 0.25,1.328 0,0.227 -0.078,0.407 -0.235,0.532 -0.148,0.125 -0.445,0.187 -0.89,0.187 z m 3.11,-0.328 -2.579,-8.922 c -0.187,-0.668 -0.281,-1.086 -0.281,-1.25 0,-0.094 0.024,-0.187 0.078,-0.281 0.063,-0.086 0.145,-0.137 0.25,-0.156 0.157,-0.055 0.407,-0.079 0.75,-0.079 0.914,0 1.766,0.094 2.547,0.282 0.789,0.187 1.442,0.468 1.953,0.843 0.707,0.54 1.274,1.29 1.703,2.25 0.426,0.958 0.641,2.047 0.641,3.266 0,1.375 -0.328,2.395 -0.984,3.063 -0.657,0.675 -1.61,1.015 -2.86,1.015 -0.312,0 -0.718,-0.011 -1.218,-0.031 z" />
        <path
           inkscape:connector-curvature="0"
           id="path1197"
           style="fill:#000000;fill-opacity:1;fill-rule:nonzero;stroke:none;stroke-width:1.30053091"
           d="m 227.391,165.7 47.699,-33.339 -1.309,-1.868 -47.691,33.348 z m 48.07,-30.82 3.637,-6.719 -7.559,1.11 z" />
        <g
           transform="matrix(1,0,0,-1,0,194.73563)"
           id="g1199"
           style="stroke-width:1.30053091">
          <path
             inkscape:connector-curvature="0"
             id="path1201"
             style="fill:#5999d4;fill-opacity:1;fill-rule:evenodd;stroke:#3f709c;stroke-width:1.24850965;stroke-linecap:butt;stroke-linejoin:miter;stroke-miterlimit:10;stroke-dasharray:none;stroke-opacity:1"
             d="m 434.281,25.762 c 0,-3.207 2.61,-5.817 5.817,-5.817 3.211,0 5.82,2.61 5.82,5.817 0,3.211 -2.609,5.82 -5.82,5.82 -3.207,0 -5.817,-2.609 -5.817,-5.82 z" />
        </g>
        <path
           inkscape:connector-curvature="0"
           id="path1203"
           style="fill:#000000;fill-opacity:1;fill-rule:nonzero;stroke:none;stroke-width:1.30053091"
           d="m 455.98,194.736 h 4.688 c 1.238,0 2.16,-0.266 2.766,-0.797 0.613,-0.531 0.921,-1.18 0.921,-1.938 0,-0.605 -0.199,-1.195 -0.593,-1.765 -0.387,-0.563 -0.961,-1.024 -1.719,-1.375 -0.762,-0.356 -1.586,-0.532 -2.469,-0.532 -0.554,0 -1.25,0.098 -2.094,0.297 l -0.953,-3.25 c -0.218,-0.781 -0.328,-1.293 -0.328,-1.531 0,-0.187 0.078,-0.344 0.235,-0.469 0.156,-0.125 0.531,-0.203 1.125,-0.234 l -0.079,-0.328 h -4.75 l 0.11,0.328 c 0.613,0 1.039,0.101 1.281,0.312 0.25,0.219 0.516,0.813 0.797,1.782 l 1.969,6.781 c 0.226,0.812 0.343,1.359 0.343,1.641 0,0.195 -0.085,0.363 -0.25,0.5 -0.167,0.132 -0.531,0.218 -1.093,0.25 z m 1.641,-5.563 c 0.664,-0.168 1.203,-0.25 1.609,-0.25 0.633,0 1.211,0.129 1.735,0.391 0.531,0.269 0.941,0.664 1.234,1.187 0.289,0.532 0.438,1.078 0.438,1.641 0,0.594 -0.184,1.062 -0.547,1.406 -0.356,0.352 -0.902,0.531 -1.641,0.531 -0.398,0 -0.883,-0.054 -1.453,-0.156 z" />
        <path
           inkscape:connector-curvature="0"
           id="path1205"
           style="fill:#000000;fill-opacity:1;fill-rule:nonzero;stroke:none;stroke-width:1.30053091"
           d="m 544.418,184.466 0.109,0.328 h 3.797 c 1.614,0 2.805,-0.187 3.578,-0.562 0.782,-0.367 1.399,-0.949 1.86,-1.75 0.468,-0.793 0.703,-1.641 0.703,-2.547 0,-0.781 -0.137,-1.543 -0.406,-2.281 -0.262,-0.731 -0.563,-1.321 -0.907,-1.766 -0.336,-0.438 -0.851,-0.922 -1.547,-1.453 -0.699,-0.531 -1.453,-0.93 -2.265,-1.188 -0.813,-0.25 -1.828,-0.375 -3.047,-0.375 h -5.047 l 0.109,0.328 c 0.458,0.008 0.77,0.051 0.938,0.125 0.227,0.094 0.398,0.227 0.516,0.407 0.164,0.238 0.351,0.734 0.562,1.484 l 2.109,7.203 c 0.165,0.563 0.25,1.004 0.25,1.328 0,0.227 -0.078,0.407 -0.234,0.532 -0.148,0.125 -0.445,0.187 -0.891,0.187 z m 3.109,-0.328 -2.578,-8.922 c -0.187,-0.668 -0.281,-1.086 -0.281,-1.25 0,-0.094 0.023,-0.187 0.078,-0.281 0.063,-0.086 0.145,-0.137 0.25,-0.156 0.156,-0.055 0.406,-0.079 0.75,-0.079 0.914,0 1.766,0.094 2.547,0.282 0.789,0.187 1.441,0.468 1.953,0.843 0.707,0.54 1.274,1.29 1.703,2.25 0.426,0.958 0.641,2.047 0.641,3.266 0,1.375 -0.328,2.395 -0.985,3.063 -0.656,0.675 -1.609,1.015 -2.859,1.015 -0.312,0 -0.719,-0.011 -1.219,-0.031 z" />
        <path
           inkscape:connector-curvature="0"
           id="path1207"
           style="fill:#000000;fill-opacity:1;fill-rule:nonzero;stroke:none;stroke-width:1.30053091"
           d="m 446.098,167.751 77.172,8.129 -0.239,2.274 -77.172,-8.133 z m 76.281,5.742 6.441,4.118 -7.16,2.679 z" />
      </g>
    </g>
  </g>
</svg>
