<?xml version="1.0" encoding="UTF-8" standalone="no"?>
<!-- Created with Inkscape (http://www.inkscape.org/) -->

<svg
   xmlns:dc="http://purl.org/dc/elements/1.1/"
   xmlns:cc="http://creativecommons.org/ns#"
   xmlns:rdf="http://www.w3.org/1999/02/22-rdf-syntax-ns#"
   xmlns:svg="http://www.w3.org/2000/svg"
   xmlns="http://www.w3.org/2000/svg"
   xmlns:sodipodi="http://sodipodi.sourceforge.net/DTD/sodipodi-0.dtd"
   xmlns:inkscape="http://www.inkscape.org/namespaces/inkscape"
   width="92.469124mm"
   height="72.253616mm"
   viewBox="0 0 92.469124 72.253616"
   version="1.1"
   id="svg4014"
   inkscape:version="0.92.4 (5da689c313, 2019-01-14)"
   sodipodi:docname="friction_cones_2d.svg">
  <defs
     id="defs4008">
    <marker
       inkscape:stockid="Arrow1Lend"
       orient="auto"
       refY="0"
       refX="0"
       id="Arrow1Lend-4"
       style="overflow:visible"
       inkscape:isstock="true">
      <path
         inkscape:connector-curvature="0"
         id="path1025-9"
         d="M 0,0 5,-5 -12.5,0 5,5 Z"
         style="fill:#0000ff;fill-opacity:1;fill-rule:evenodd;stroke:#0000ff;stroke-width:1.00000003pt;stroke-opacity:1"
         transform="matrix(-0.8,0,0,-0.8,-10,0)" />
    </marker>
    <marker
       inkscape:stockid="Arrow1Lend"
       orient="auto"
       refY="0"
       refX="0"
       id="Arrow1Lend"
       style="overflow:visible"
       inkscape:isstock="true">
      <path
         inkscape:connector-curvature="0"
         id="path1025"
         d="M 0,0 5,-5 -12.5,0 5,5 Z"
         style="fill:#0000ff;fill-opacity:1;fill-rule:evenodd;stroke:#0000ff;stroke-width:1.00000003pt;stroke-opacity:1"
         transform="matrix(-0.8,0,0,-0.8,-10,0)" />
    </marker>
  </defs>
  <sodipodi:namedview
     id="base"
     pagecolor="#ffffff"
     bordercolor="#666666"
     borderopacity="1.0"
     inkscape:pageopacity="0.0"
     inkscape:pageshadow="2"
     inkscape:zoom="0.35"
     inkscape:cx="-299.54092"
     inkscape:cy="-166.31488"
     inkscape:document-units="mm"
     inkscape:current-layer="layer1"
     showgrid="false"
     fit-margin-top="0"
     fit-margin-left="0"
     fit-margin-right="0"
     fit-margin-bottom="0" />
  <metadata
     id="metadata4011">
    <rdf:RDF>
      <cc:Work
         rdf:about="">
        <dc:format>image/svg+xml</dc:format>
        <dc:type
           rdf:resource="http://purl.org/dc/dcmitype/StillImage" />
        <dc:title></dc:title>
      </cc:Work>
    </rdf:RDF>
  </metadata>
  <g
     inkscape:label="Layer 1"
     inkscape:groupmode="layer"
     id="layer1"
     transform="translate(-40.699963,-32.575569)">
    <path
       style="fill:none;stroke:#0000ff;stroke-width:0.26458332;stroke-linecap:butt;stroke-linejoin:miter;stroke-miterlimit:4;stroke-dasharray:1.05833329, 1.05833329;stroke-dashoffset:0;stroke-opacity:1"
       d="m 40.716108,97.136386 43.62189,-5.36381"
       id="path1003-4"
       inkscape:connector-curvature="0"
       sodipodi:nodetypes="cc" />
    <path
       style="fill:none;stroke:#0000ff;stroke-width:0.26458332;stroke-linecap:butt;stroke-linejoin:miter;stroke-miterlimit:4;stroke-dasharray:1.05833328, 1.05833328;stroke-dashoffset:0;stroke-opacity:1"
       d="M 43.172398,101.06843 73.291188,66.730146"
       id="path1003"
       inkscape:connector-curvature="0"
       sodipodi:nodetypes="cc" />
    <path
       style="fill:#2f2b20;stroke-width:0.26458332"
       inkscape:connector-curvature="0"
       d="m 43.674708,57.294906 34.87353,-16.83554 -0.16556,-0.35865 -34.87334,16.83556 z m 33.42647,-14.63228 1.71239,-2.55064 -3.01272,-0.26954 c -0.10674,-0.01 -0.20068,0.0712 -0.20998,0.18025 -0.009,0.10909 0.0695,0.20526 0.17626,0.21478 l 2.68182,0.23994 -0.14301,-0.30978 -1.52403,2.27046 c -0.0607,0.0903 -0.0384,0.2137 0.05,0.2757 0.0881,0.062 0.20882,0.0391 0.26928,-0.0512 z"
       id="path822" />
    <path
       style="fill:none;fill-rule:evenodd;stroke:#ff6600;stroke-width:0.4409731;stroke-linejoin:round;stroke-miterlimit:10"
       inkscape:connector-curvature="0"
       d="m 43.587958,57.710626 21.87812,-24.98982"
       stroke-miterlimit="10"
       id="path824" />
    <path
       style="fill:none;fill-rule:evenodd;stroke:#ff6600;stroke-width:0.4409731;stroke-linejoin:round;stroke-miterlimit:10"
       inkscape:connector-curvature="0"
       d="m 44.364418,57.347596 31.96128,-3.94097"
       stroke-miterlimit="10"
       id="path826" />
    <path
       style="fill:#2f2b20;stroke-width:0.26458332"
       inkscape:connector-curvature="0"
       d="m 101.11439,57.544976 21.09441,-22.63573 -0.30106,-0.234 -21.0944,22.63566 z m 20.6547,-20.25205 0.54355,-2.77367 -2.91086,0.93316 c -0.10302,0.0329 -0.15723,0.13606 -0.12108,0.23009 0.0361,0.0941 0.14897,0.14358 0.25199,0.11056 l 2.59114,-0.83074 -0.26005,-0.20215 -0.48384,2.46914 c -0.0193,0.0982 0.0523,0.19196 0.15975,0.20954 0.10746,0.0176 0.21016,-0.0478 0.2294,-0.14593 z"
       id="path830" />
    <path
       style="fill:#2f2b20;stroke-width:0.26458332"
       inkscape:connector-curvature="0"
       d="m 99.667858,59.167816 33.121782,-3.25301 -0.0307,-0.5097 -33.121642,3.25302 z m 30.939692,-1.27923 2.56154,-2.2674 -2.80144,-1.74066 c -0.0991,-0.0616 -0.21855,-0.009 -0.26644,0.11844 -0.0481,0.12701 -0.007,0.27991 0.0924,0.34149 l 2.49356,1.54948 -0.0264,-0.44026 -2.28026,2.01833 c -0.0904,0.0802 -0.11324,0.23943 -0.0507,0.35556 0.0627,0.11615 0.18696,0.14525 0.2777,0.065 z"
       id="path832" />
    <path
       style="fill:#ffc000;fill-rule:evenodd;stroke:#000000;stroke-width:0.60000002;stroke-linejoin:round;stroke-miterlimit:10;stroke-dasharray:none"
       inkscape:connector-curvature="0"
       d="m 98.255358,57.803596 c 0,-1.29557 1.05238,-2.34577 2.350642,-2.34577 1.29826,0 2.35064,1.0502 2.35064,2.34577 0,1.29556 -1.05238,2.34576 -2.35064,2.34576 -1.298262,0 -2.350642,-1.0502 -2.350642,-2.34576 z"
       stroke-miterlimit="10"
       id="path834" />
    <path
       style="fill:#ffc000;fill-rule:evenodd;stroke:#000000;stroke-width:0.60000002;stroke-linejoin:round;stroke-miterlimit:10;stroke-dasharray:none"
       inkscape:connector-curvature="0"
       d="m 98.725488,59.211046 c 0,-1.29556 1.05238,-2.34576 2.350642,-2.34576 1.29825,0 2.35064,1.0502 2.35064,2.34576 0,1.29557 -1.05239,2.34577 -2.35064,2.34577 -1.298262,0 -2.350642,-1.0502 -2.350642,-2.34577 z"
       stroke-miterlimit="10"
       id="path836" />
    <path
       style="fill:#ffff00;fill-rule:evenodd;stroke:#000000;stroke-width:0.40000001;stroke-miterlimit:8;stroke-dasharray:none"
       inkscape:connector-curvature="0"
       d="m 83.661398,44.023436 h 6.11166 v -2.1112 l 4.23115,4.22239 -4.23115,4.22239 v -2.1112 h -6.11166 z"
       stroke-miterlimit="8"
       id="path838" />
    <path
       style="fill:#ffc000;fill-rule:evenodd;stroke:#000000;stroke-width:0.60000002;stroke-linejoin:round;stroke-miterlimit:10;stroke-dasharray:none"
       inkscape:connector-curvature="0"
       d="m 41.684988,57.099856 c 0,-1.29556 1.05238,-2.34577 2.35064,-2.34577 1.29826,0 2.35064,1.05021 2.35064,2.34577 0,1.29557 -1.05238,2.34577 -2.35064,2.34577 -1.29826,0 -2.35064,-1.0502 -2.35064,-2.34577 z"
       stroke-miterlimit="10"
       id="path820" />
    <path
       style="fill:none;fill-rule:evenodd;stroke:#ff6600;stroke-width:0.4409731;stroke-linejoin:round;stroke-miterlimit:10"
       inkscape:connector-curvature="0"
       d="m 46.842318,96.679186 21.87812,-24.98981"
       stroke-miterlimit="10"
       id="path824-8" />
    <path
       style="fill:none;fill-rule:evenodd;stroke:#ff6600;stroke-width:0.4409731;stroke-linejoin:round;stroke-miterlimit:10"
       inkscape:connector-curvature="0"
       d="m 47.618778,96.316146 31.96127,-3.94096"
       stroke-miterlimit="10"
       id="path826-9" />
    <path
       style="fill:#ffc000;fill-rule:evenodd;stroke:#000000;stroke-width:0.60000002;stroke-linejoin:round;stroke-miterlimit:10;stroke-dasharray:none"
       inkscape:connector-curvature="0"
       d="m 45.817718,96.243286 c 0,-1.29557 1.05238,-2.34577 2.35064,-2.34577 1.29826,0 2.35064,1.0502 2.35064,2.34577 0,1.29557 -1.05238,2.34577 -2.35064,2.34577 -1.29826,0 -2.35064,-1.0502 -2.35064,-2.34577 z"
       stroke-miterlimit="10"
       id="path820-7" />
    <path
       style="fill:#ffff00;fill-rule:evenodd;stroke:#000000;stroke-width:0.40000001;stroke-miterlimit:8;stroke-dasharray:none"
       inkscape:connector-curvature="0"
       d="m 61.891078,60.390656 v 6.11166 h 2.1112 l -4.22239,4.23115 -4.22239,-4.23115 h 2.11119 v -6.11166 z"
       stroke-miterlimit="8"
       id="path838-3" />
    <path
       style="fill:none;stroke:#0000ff;stroke-width:0.26458332px;stroke-linecap:butt;stroke-linejoin:miter;stroke-opacity:1;marker-end:url(#Arrow1Lend)"
       d="m 58.668548,83.860196 -7.59973,-6.75532"
       id="path1020"
       inkscape:connector-curvature="0" />
    <path
       style="fill:none;stroke:#0000ff;stroke-width:0.26458332px;stroke-linecap:butt;stroke-linejoin:miter;stroke-opacity:1;marker-end:url(#Arrow1Lend-4)"
       d="m 63.270328,94.256246 0.80678,10.060934"
       id="path1020-7"
       inkscape:connector-curvature="0" />
  </g>
</svg>
