<?xml version="1.0" encoding="utf-8"?>
<!-- Generator: Adobe Illustrator 27.5.0, SVG Export Plug-In . SVG Version: 6.00 Build 0)  -->
<svg version="1.1" id="Layer_1" xmlns="http://www.w3.org/2000/svg" xmlns:xlink="http://www.w3.org/1999/xlink" x="0px" y="0px"
	 viewBox="0 0 445 280" style="enable-background:new 0 0 445 280;" xml:space="preserve">
<style type="text/css">
	.st0{fill:none;stroke:#939598;stroke-width:0.5;stroke-miterlimit:10;}
	.st1{fill:none;stroke:#020203;stroke-width:2;stroke-miterlimit:10;}
	.st2{fill:none;stroke:#30429B;stroke-miterlimit:10;}
	.st3{fill:none;stroke:#30429B;stroke-miterlimit:10;stroke-dasharray:6.0769,6.0769;}
	.st4{fill:none;stroke:#867FBC;stroke-miterlimit:10;}
	.st5{fill:none;stroke:#867FBC;stroke-miterlimit:10;stroke-dasharray:5.901,5.901;}
	.st6{fill:none;stroke:#AC1E23;stroke-miterlimit:10;}
	.st7{fill:none;stroke:#AC1E23;stroke-miterlimit:10;stroke-dasharray:5.9513,5.9513;}
	.st8{fill:none;stroke:#F48885;stroke-miterlimit:10;}
	.st9{fill:none;stroke:#F48885;stroke-miterlimit:10;stroke-dasharray:6.0217,6.0217;}
	.st10{fill:none;stroke:#F48885;stroke-miterlimit:10;stroke-dasharray:5.1268,5.1268;}
	.st11{fill:none;stroke:#939598;stroke-miterlimit:10;}
	.st12{fill:none;stroke:#000000;stroke-width:0.5;stroke-miterlimit:10;stroke-dasharray:3;}
	.st13{opacity:0.2;enable-background:new    ;}
	.st14{fill:#C43D92;stroke:#000000;stroke-miterlimit:10;}
	.st15{fill:#D72261;stroke:#000000;stroke-miterlimit:10;}
	.st16{fill:#414DA0;stroke:#000000;stroke-miterlimit:10;}
	.st17{fill:#4C4F9D;stroke:#020203;stroke-miterlimit:10;}
	.st18{fill:#714A98;stroke:#000000;stroke-miterlimit:10;}
	.st19{fill:#E81D46;stroke:#000000;stroke-miterlimit:10;}
	.st20{fill:none;stroke:#0481B0;stroke-width:2;stroke-miterlimit:10;}
	.st21{fill:#62AFE1;stroke:#020203;stroke-width:2;stroke-miterlimit:10;}
	.st22{opacity:0.5;fill:none;stroke:#020203;stroke-miterlimit:10;enable-background:new    ;}
	.st23{opacity:0.5;fill:#62AFE1;stroke:#020203;stroke-miterlimit:10;enable-background:new    ;}
</style>
<image style="overflow:visible;enable-background:new    ;" width="350" height="349" xlink:href="F27BB7BF.png"  transform="matrix(0.2 0 0 0.2 203.7404 7.5464)">
</image>
<image style="overflow:visible;enable-background:new    ;" width="349" height="347" xlink:href="F27BB7BD.png"  transform="matrix(0.2006 0 0 0.2006 165.3319 88.1649)">
</image>
<g>
	<line class="st0" x1="6.1" y1="14.1" x2="6.1" y2="158"/>
	<line class="st0" x1="30.1" y1="14.1" x2="30.1" y2="158"/>
	<line class="st0" x1="54" y1="14.1" x2="54" y2="158"/>
	<line class="st0" x1="78" y1="14.1" x2="78" y2="158"/>
	<line class="st0" x1="102" y1="14.1" x2="102" y2="158"/>
	<line class="st0" x1="126" y1="14.1" x2="126" y2="158"/>
	<line class="st0" x1="150" y1="14.1" x2="150" y2="158"/>
</g>
<g>
	<line class="st0" x1="6.1" y1="158" x2="150" y2="158"/>
	<line class="st0" x1="6.1" y1="134" x2="150" y2="134"/>
	<line class="st0" x1="6.1" y1="110" x2="150" y2="110"/>
	<line class="st0" x1="6.1" y1="86" x2="150" y2="86"/>
	<line class="st0" x1="6.1" y1="62.1" x2="150" y2="62.1"/>
	<line class="st0" x1="6.1" y1="38.1" x2="150" y2="38.1"/>
	<line class="st0" x1="6.1" y1="14.1" x2="150" y2="14.1"/>
</g>
<path class="st1" d="M92,158c-1.4-16.1-14.2-35-18.9-45.1c-4.7-10.1-17.9-38.4-4-58s29.2-26,45.5-29c14.1-2.6,28.2,3,35.3,9.1"/>
<g>
	<g>
		<path class="st2" d="M106.5,158c0.1-0.8,0.1-1.6,0.2-2.5"/>
		<path class="st3" d="M107.1,150.4c1.4-15.9,3.1-36.9-6.6-49C91.2,90,85.6,66.7,95.4,58.9s26-14.6,37.1-5.7
			c8.8,7,13.5,10.1,15.9,15.4"/>
		<path class="st2" d="M149.3,71c0.2,0.8,0.4,1.6,0.6,2.4"/>
	</g>
</g>
<g>
	<g>
		<path class="st4" d="M150,103.5c-0.3-0.8-0.5-1.6-0.9-2.4"/>
		<path class="st5" d="M146.9,96.8c-7.9-13.6-23.8-21.5-23.5-12.2c0.3,10.8,13.3,25.5,13.3,39.1c0,9.2-2.7,19.3-8.3,30"/>
		<path class="st4" d="M127.2,155.8c-0.4,0.7-0.8,1.4-1.3,2.2"/>
	</g>
</g>
<g>
	<g>
		<path class="st6" d="M71.8,158c-0.3-0.7-0.7-1.5-1.1-2.3"/>
		<path class="st7" d="M68.2,151.5c-9.4-13.9-29.8-33.5-36.5-51.4c-7.8-20.9-6.8-48.1,7.8-62c12.9-12.3,27.8-19.2,40.7-22.8"/>
		<path class="st6" d="M82.5,14.7c0.8-0.2,1.6-0.4,2.4-0.6"/>
	</g>
</g>
<g>
	<g>
		<path class="st8" d="M43.8,158c-0.4-0.7-0.9-1.4-1.4-2.1"/>
		<path class="st9" d="M39.2,152.1c-9.1-9.9-24.2-19.8-31.3-35.5"/>
		<path class="st8" d="M6.9,114.2c-0.3-0.8-0.6-1.6-0.8-2.4"/>
	</g>
</g>
<g>
	<g>
		<path class="st8" d="M6.1,40.7c0.3-0.8,0.6-1.6,0.9-2.3"/>
		<path class="st10" d="M8.6,34.4c3.1-7.3,7.2-14.1,14.1-18.3"/>
		<path class="st8" d="M24.6,15.1c0.7-0.4,1.5-0.7,2.3-1"/>
	</g>
</g>
<rect x="165.4" y="88.1" class="st11" width="69.9" height="69.9"/>
<rect x="203.5" y="7" class="st11" width="69.9" height="69.9"/>
<line class="st12" x1="78" y1="38.1" x2="203.5" y2="76.9"/>
<line class="st12" x1="78" y1="14.1" x2="203.5" y2="7"/>
<line class="st12" x1="54" y1="86" x2="165.4" y2="158"/>
<line class="st12" x1="78" y1="62.1" x2="235.3" y2="88.1"/>
<rect x="54" y="62.1" class="st13" width="24" height="24"/>
<rect x="78.3" y="14.6" class="st13" width="24" height="24"/>
<path class="st1" d="M218.5,76.9C236.3,62,254.5,53,273.4,49"/>
<path class="st1" d="M196.9,88.5c-7.4,19.7-14.5,43.4-6.1,69.4"/>
<circle class="st14" cx="165.4" cy="88.1" r="3.4"/>
<circle class="st15" cx="165.4" cy="158" r="3.4"/>
<circle class="st16" cx="235.3" cy="88.1" r="3.4"/>
<circle class="st17" cx="235.3" cy="158" r="3.4"/>
<circle class="st18" cx="273.6" cy="77.4" r="3.4"/>
<circle class="st15" cx="203.8" cy="76.9" r="3.4"/>
<circle class="st19" cx="273.6" cy="7" r="3.4"/>
<circle class="st19" cx="203.5" cy="7.5" r="3.4"/>
<line class="st20" x1="189.4" y1="158" x2="193.5" y2="88.5"/>
<line class="st20" x1="218.5" y1="76.9" x2="273.4" y2="51.5"/>
<circle class="st21" cx="273.4" cy="51.5" r="3.4"/>
<circle class="st21" cx="193.5" cy="88.5" r="3.4"/>
<circle class="st21" cx="189.4" cy="158" r="3.4"/>
<circle class="st21" cx="217.6" cy="77.4" r="3.4"/>
<g>
	<line class="st0" x1="294.2" y1="14.1" x2="294.2" y2="158"/>
	<line class="st0" x1="318.2" y1="14.1" x2="318.2" y2="158"/>
	<line class="st0" x1="342.2" y1="14.1" x2="342.2" y2="158"/>
	<line class="st0" x1="366.2" y1="14.1" x2="366.2" y2="158"/>
	<line class="st0" x1="390.1" y1="14.1" x2="390.1" y2="158"/>
	<line class="st0" x1="414.1" y1="14.1" x2="414.1" y2="158"/>
	<line class="st0" x1="438.1" y1="14.1" x2="438.1" y2="158"/>
</g>
<g>
	<line class="st0" x1="294.2" y1="158" x2="438.1" y2="158"/>
	<line class="st0" x1="294.2" y1="134" x2="438.1" y2="134"/>
	<line class="st0" x1="294.2" y1="110" x2="438.1" y2="110"/>
	<line class="st0" x1="294.2" y1="86" x2="438.1" y2="86"/>
	<line class="st0" x1="294.2" y1="62.1" x2="438.1" y2="62.1"/>
	<line class="st0" x1="294.2" y1="38.1" x2="438.1" y2="38.1"/>
	<line class="st0" x1="294.2" y1="14.1" x2="438.1" y2="14.1"/>
</g>
<polyline class="st20" points="376.6,158 374.2,134 366.2,123.3 358.4,110 354,86 354,62.1 365.3,45.1 371.2,38.1 390.1,29.2 
	414.1,25.4 438.1,32 "/>
<rect x="301.8" y="205.4" class="st22" width="65.7" height="65.7"/>
<rect x="334.6" y="187.6" class="st22" width="63.8" height="63.8"/>
<line class="st22" x1="301.8" y1="205.4" x2="334.6" y2="187.6"/>
<line class="st22" x1="301.8" y1="271.2" x2="334.6" y2="251.4"/>
<line class="st22" x1="367.5" y1="271.2" x2="398.4" y2="251.4"/>
<line class="st22" x1="367.5" y1="205.4" x2="398.4" y2="187.6"/>
<circle class="st17" cx="367.5" cy="271.2" r="3.4"/>
<circle class="st17" cx="367.5" cy="205.4" r="3.4"/>
<circle class="st15" cx="334.6" cy="187.6" r="2.7"/>
<circle class="st15" cx="301.8" cy="205.4" r="3.4"/>
<circle class="st14" cx="301.8" cy="271.2" r="3.4"/>
<circle class="st19" cx="334.6" cy="251.4" r="2.7"/>
<circle class="st18" cx="398.4" cy="187.6" r="2.7"/>
<circle class="st14" cx="398.4" cy="251.4" r="2.7"/>
<polygon class="st23" points="337.3,271.2 387.1,257.9 340.5,205.4 "/>
<polygon class="st23" points="398.4,226.3 340.5,205.4 379.5,187.6 "/>
<polygon class="st23" points="387.1,257.9 398.4,226.3 340.5,205.4 "/>
<circle class="st21" cx="379.5" cy="187.6" r="3.4"/>
<circle class="st21" cx="340.5" cy="205.4" r="3.4"/>
<circle class="st21" cx="337.3" cy="271.2" r="3.4"/>
<circle class="st21" cx="398.4" cy="226.3" r="3.4"/>
<circle class="st21" cx="387.1" cy="257.9" r="3.4"/>
<rect x="167.5" y="205.7" class="st22" width="65.7" height="65.7"/>
<rect x="200.4" y="187.9" class="st22" width="63.8" height="63.8"/>
<line class="st22" x1="167.5" y1="205.7" x2="200.4" y2="187.9"/>
<line class="st22" x1="167.5" y1="271.4" x2="200.4" y2="251.7"/>
<line class="st22" x1="233.3" y1="271.4" x2="264.2" y2="251.7"/>
<line class="st22" x1="233.3" y1="205.7" x2="264.2" y2="187.9"/>
<circle class="st15" cx="233.3" cy="271.4" r="3.4"/>
<circle class="st17" cx="233.3" cy="205.7" r="3.4"/>
<circle class="st15" cx="200.4" cy="187.9" r="2.7"/>
<circle class="st15" cx="167.5" cy="205.7" r="3.4"/>
<circle class="st14" cx="167.5" cy="271.4" r="3.4"/>
<circle class="st19" cx="200.4" cy="251.7" r="2.7"/>
<circle class="st18" cx="264.2" cy="187.9" r="2.7"/>
<circle class="st14" cx="264.2" cy="251.7" r="2.7"/>
<polygon class="st23" points="264.2,226.5 206.2,205.7 245.3,187.9 "/>
<polygon class="st23" points="233.3,238.6 264.2,226.5 206.2,205.7 "/>
<circle class="st21" cx="245.3" cy="187.9" r="3.4"/>
<circle class="st21" cx="206.2" cy="205.7" r="3.4"/>
<circle class="st21" cx="233.3" cy="238.6" r="3.4"/>
<circle class="st21" cx="264.2" cy="226.5" r="3.4"/>
<rect x="38.5" y="205.7" class="st22" width="65.7" height="65.7"/>
<rect x="71.4" y="187.9" class="st22" width="63.8" height="63.8"/>
<line class="st22" x1="38.5" y1="205.7" x2="71.4" y2="187.9"/>
<line class="st22" x1="38.5" y1="271.4" x2="71.4" y2="251.7"/>
<line class="st22" x1="104.3" y1="271.4" x2="135.2" y2="251.7"/>
<line class="st22" x1="104.3" y1="205.7" x2="135.2" y2="187.9"/>
<circle class="st15" cx="104.3" cy="271.4" r="3.4"/>
<circle class="st17" cx="104.3" cy="205.7" r="3.4"/>
<circle class="st15" cx="71.4" cy="187.9" r="2.7"/>
<circle class="st15" cx="38.5" cy="205.7" r="3.4"/>
<circle class="st14" cx="38.5" cy="271.4" r="3.4"/>
<circle class="st19" cx="71.4" cy="251.7" r="2.7"/>
<circle class="st15" cx="135.2" cy="187.9" r="2.7"/>
<circle class="st14" cx="135.2" cy="251.7" r="2.7"/>
<polygon class="st23" points="104.3,238.6 119.7,196.8 77.2,205.7 "/>
<circle class="st21" cx="119.7" cy="196.8" r="3.4"/>
<circle class="st21" cx="77.2" cy="205.7" r="3.4"/>
<circle class="st21" cx="104.3" cy="238.6" r="3.4"/>
</svg>
