<?xml version="1.0" encoding="UTF-8" standalone="no"?>
<!-- Created with Inkscape (http://www.inkscape.org/) -->

<svg
   xmlns:dc="http://purl.org/dc/elements/1.1/"
   xmlns:cc="http://creativecommons.org/ns#"
   xmlns:rdf="http://www.w3.org/1999/02/22-rdf-syntax-ns#"
   xmlns:svg="http://www.w3.org/2000/svg"
   xmlns="http://www.w3.org/2000/svg"
   xmlns:sodipodi="http://sodipodi.sourceforge.net/DTD/sodipodi-0.dtd"
   xmlns:inkscape="http://www.inkscape.org/namespaces/inkscape"
   width="70.61306mm"
   height="38.833584mm"
   viewBox="0 0 70.61306 38.833583"
   version="1.1"
   id="svg8"
   inkscape:version="0.92.4 (5da689c313, 2019-01-14)"
   sodipodi:docname="not_form_closure.svg">
  <defs
     id="defs2" />
  <sodipodi:namedview
     id="base"
     pagecolor="#ffffff"
     bordercolor="#666666"
     borderopacity="1.0"
     inkscape:pageopacity="0.0"
     inkscape:pageshadow="2"
     inkscape:zoom="1"
     inkscape:cx="-131.44715"
     inkscape:cy="65.679956"
     inkscape:document-units="mm"
     inkscape:current-layer="layer1"
     showgrid="false"
     inkscape:lockguides="true"
     fit-margin-top="0"
     fit-margin-left="0"
     fit-margin-right="0"
     fit-margin-bottom="0" />
  <metadata
     id="metadata5">
    <rdf:RDF>
      <cc:Work
         rdf:about="">
        <dc:format>image/svg+xml</dc:format>
        <dc:type
           rdf:resource="http://purl.org/dc/dcmitype/StillImage" />
        <dc:title></dc:title>
      </cc:Work>
    </rdf:RDF>
  </metadata>
  <g
     inkscape:label="Layer 1"
     inkscape:groupmode="layer"
     id="layer1"
     transform="translate(-39.916819,-74.254221)">
    <path
       style="fill:#ff9955;fill-rule:evenodd;stroke:#d45500;stroke-width:0.88194352;stroke-linejoin:round;stroke-miterlimit:10"
       inkscape:connector-curvature="0"
       d="M 42.862654,100.94788 58.85666,77.301577 74.850665,100.94788 Z"
       stroke-miterlimit="10"
       id="path822" />
    <path
       style="fill:#ffc000;fill-rule:evenodd;stroke:#000000;stroke-width:0.60000002;stroke-linejoin:round;stroke-miterlimit:10;stroke-dasharray:none"
       inkscape:connector-curvature="0"
       d="m 57.269159,76.243243 c 0,-0.932847 0.753739,-1.689022 1.683579,-1.689022 0.929841,0 1.68358,0.756175 1.68358,1.689022 0,0.932847 -0.753739,1.689022 -1.68358,1.689022 -0.92984,0 -1.683579,-0.756175 -1.683579,-1.689022 z"
       stroke-miterlimit="10"
       id="path824" />
    <path
       style="fill:#ffc000;fill-rule:evenodd;stroke:#000000;stroke-width:0.60000002;stroke-linejoin:round;stroke-miterlimit:10;stroke-dasharray:none"
       inkscape:connector-curvature="0"
       d="m 74.850665,100.94788 c 0,-0.93285 0.753739,-1.689022 1.68358,-1.689022 0.929841,0 1.683579,0.756172 1.683579,1.689022 0,0.93285 -0.753738,1.68902 -1.683579,1.68902 -0.929841,0 -1.68358,-0.75617 -1.68358,-1.68902 z"
       stroke-miterlimit="10"
       id="path826" />
    <path
       style="fill:#ffc000;fill-rule:evenodd;stroke:#000000;stroke-width:0.60000002;stroke-linejoin:round;stroke-miterlimit:10;stroke-dasharray:none"
       inkscape:connector-curvature="0"
       d="m 40.216819,101.47705 c 0,-0.93285 0.753739,-1.689037 1.68358,-1.689037 0.92984,0 1.683579,0.756187 1.683579,1.689037 0,0.93284 -0.753739,1.68902 -1.683579,1.68902 -0.929841,0 -1.68358,-0.75618 -1.68358,-1.68902 z"
       stroke-miterlimit="10"
       id="path828" />
    <path
       sodipodi:nodetypes="sssss"
       style="fill:#ffc000;fill-rule:evenodd;stroke:#000000;stroke-width:0.60000002;stroke-linejoin:round;stroke-miterlimit:10;stroke-dasharray:none"
       inkscape:connector-curvature="0"
       d="m 87.66992,92.285616 c 0,-0.932847 0.753739,-1.689022 1.68358,-1.689022 0.929844,0 1.683577,0.756175 1.683577,1.689022 0,0.932847 -0.753733,1.689022 -1.683577,1.689022 -0.929841,0 -1.68358,-0.756175 -1.68358,-1.689022 z"
       stroke-miterlimit="10"
       id="path830" />
    <path
       sodipodi:nodetypes="sssss"
       style="fill:#ffc000;fill-rule:evenodd;stroke:#000000;stroke-width:0.60000002;stroke-linejoin:round;stroke-miterlimit:10;stroke-dasharray:none"
       inkscape:connector-curvature="0"
       d="m 106.86273,92.043492 c 0,-0.932847 0.75374,-1.689022 1.68358,-1.689022 0.92983,0 1.68357,0.756175 1.68357,1.689022 0,0.932847 -0.75374,1.689022 -1.68357,1.689022 -0.92984,0 -1.68358,-0.756175 -1.68358,-1.689022 z"
       stroke-miterlimit="10"
       id="path832" />
    <ellipse
       style="opacity:1;vector-effect:none;fill:#ff9955;fill-opacity:1;stroke:#d45500;stroke-width:0.82200003;stroke-linecap:butt;stroke-linejoin:miter;stroke-miterlimit:10;stroke-dasharray:none;stroke-dashoffset:0;stroke-opacity:0.8627451"
       id="path866"
       cx="98.777962"
       cy="92.268478"
       rx="7.4083333"
       ry="17.330208" />
    <path
       style="fill:none;fill-rule:evenodd;stroke:#d45500;stroke-width:0.60000002;stroke-linejoin:round;stroke-miterlimit:10;stroke-dasharray:2.4, 1.2;stroke-dashoffset:0"
       inkscape:connector-curvature="0"
       d="M 42.067133,98.972518 60.954658,77.566506 73.792331,103.06456 Z"
       stroke-miterlimit="10"
       id="path822-2" />
    <ellipse
       style="opacity:1;vector-effect:none;fill:none;fill-opacity:1;stroke:#d45500;stroke-width:0.60000002;stroke-linecap:butt;stroke-linejoin:round;stroke-miterlimit:10;stroke-dasharray:2.4, 1.2;stroke-dashoffset:0;stroke-opacity:1"
       id="path866-7"
       cx="99.183487"
       cy="95.457596"
       rx="7.4083333"
       ry="17.330208" />
  </g>
</svg>
