<?xml version="1.0" encoding="UTF-8" standalone="no"?>
<!-- Created with Inkscape (http://www.inkscape.org/) -->

<svg
   xmlns:dc="http://purl.org/dc/elements/1.1/"
   xmlns:cc="http://creativecommons.org/ns#"
   xmlns:rdf="http://www.w3.org/1999/02/22-rdf-syntax-ns#"
   xmlns:svg="http://www.w3.org/2000/svg"
   xmlns="http://www.w3.org/2000/svg"
   xmlns:sodipodi="http://sodipodi.sourceforge.net/DTD/sodipodi-0.dtd"
   xmlns:inkscape="http://www.inkscape.org/namespaces/inkscape"
   version="1.1"
   id="svg4780"
   xml:space="preserve"
   width="357.87125"
   height="213.59785"
   viewBox="0 0 357.87125 213.59786"
   sodipodi:docname="planar_2R.svg"
   inkscape:version="0.92.3 (2405546, 2018-03-11)"><metadata
     id="metadata4786"><rdf:RDF><cc:Work
         rdf:about=""><dc:format>image/svg+xml</dc:format><dc:type
           rdf:resource="http://purl.org/dc/dcmitype/StillImage" /><dc:title></dc:title></cc:Work></rdf:RDF></metadata><defs
     id="defs4784"><clipPath
       clipPathUnits="userSpaceOnUse"
       id="clipPath4796"><path
         d="M 0,1.2207e-4 H 960 V 540.00012 H 0 Z"
         id="path4794"
         inkscape:connector-curvature="0"
         style="clip-rule:evenodd" /></clipPath><clipPath
       clipPathUnits="userSpaceOnUse"
       id="clipPath4820"><path
         d="M -3.0518e-5,540 H 960 V 1.8311e-4 L -6.1035e-5,1.2207e-4"
         id="path4818"
         inkscape:connector-curvature="0"
         style="clip-rule:evenodd" /></clipPath><clipPath
       clipPathUnits="userSpaceOnUse"
       id="clipPath4830"><path
         d="M -3.0518e-5,540 H 960 V 1.8311e-4 L -6.1035e-5,1.2207e-4"
         id="path4828"
         inkscape:connector-curvature="0"
         style="clip-rule:evenodd" /></clipPath><clipPath
       clipPathUnits="userSpaceOnUse"
       id="clipPath4840"><path
         d="M -3.0518e-5,540 H 960 V 1.2207e-4 L -3.0518e-5,6.1035e-5"
         id="path4838"
         inkscape:connector-curvature="0"
         style="clip-rule:evenodd" /></clipPath><clipPath
       clipPathUnits="userSpaceOnUse"
       id="clipPath4850"><path
         d="M -3.0518e-5,540 H 960 V 1.2207e-4 L -3.0518e-5,6.1035e-5"
         id="path4848"
         inkscape:connector-curvature="0"
         style="clip-rule:evenodd" /></clipPath><clipPath
       clipPathUnits="userSpaceOnUse"
       id="clipPath4878"><path
         d="M 1.4305e-5,0 H 960.00001 V 540 H 1.4305e-5 Z"
         id="path4876"
         inkscape:connector-curvature="0"
         style="clip-rule:evenodd" /></clipPath><clipPath
       clipPathUnits="userSpaceOnUse"
       id="clipPath4890"><path
         d="M 1.4305e-5,0 H 960.00001 V 540 H 1.4305e-5 Z"
         id="path4888"
         inkscape:connector-curvature="0"
         style="clip-rule:evenodd" /></clipPath><clipPath
       clipPathUnits="userSpaceOnUse"
       id="clipPath4902"><path
         d="M 1.4305e-5,0 H 960.00001 V 540 H 1.4305e-5 Z"
         id="path4900"
         inkscape:connector-curvature="0"
         style="clip-rule:evenodd" /></clipPath><clipPath
       clipPathUnits="userSpaceOnUse"
       id="clipPath4914"><path
         d="M 1.4305e-5,0 H 960.00001 V 540 H 1.4305e-5 Z"
         id="path4912"
         inkscape:connector-curvature="0"
         style="clip-rule:evenodd" /></clipPath><clipPath
       clipPathUnits="userSpaceOnUse"
       id="clipPath4926"><path
         d="M 1.4305e-5,0 H 960.00001 V 540 H 1.4305e-5 Z"
         id="path4924"
         inkscape:connector-curvature="0"
         style="clip-rule:evenodd" /></clipPath><clipPath
       clipPathUnits="userSpaceOnUse"
       id="clipPath4938"><path
         d="M 3.0518e-5,540 H 960 V 1.8311e-4 H 0"
         id="path4936"
         inkscape:connector-curvature="0"
         style="clip-rule:evenodd" /></clipPath><clipPath
       clipPathUnits="userSpaceOnUse"
       id="clipPath4948"><path
         d="M -6.1035e-5,540 H 960 V 1.2207e-4 H -6.1035e-5"
         id="path4946"
         inkscape:connector-curvature="0"
         style="clip-rule:evenodd" /></clipPath><clipPath
       clipPathUnits="userSpaceOnUse"
       id="clipPath4958"><path
         d="M 1.4305e-5,0 H 960.00001 V 540 H 1.4305e-5 Z"
         id="path4956"
         inkscape:connector-curvature="0"
         style="clip-rule:evenodd" /></clipPath><clipPath
       clipPathUnits="userSpaceOnUse"
       id="clipPath4982"><path
         d="M 1.4305e-5,0 H 960.00001 V 540 H 1.4305e-5 Z"
         id="path4980"
         inkscape:connector-curvature="0"
         style="clip-rule:evenodd" /></clipPath><clipPath
       clipPathUnits="userSpaceOnUse"
       id="clipPath4994"><path
         d="M 1.4305e-5,0 H 960.00001 V 540 H 1.4305e-5 Z"
         id="path4992"
         inkscape:connector-curvature="0"
         style="clip-rule:evenodd" /></clipPath><clipPath
       clipPathUnits="userSpaceOnUse"
       id="clipPath5006"><path
         d="M 1.4305e-5,0 H 960.00001 V 540 H 1.4305e-5 Z"
         id="path5004"
         inkscape:connector-curvature="0"
         style="clip-rule:evenodd" /></clipPath><clipPath
       clipPathUnits="userSpaceOnUse"
       id="clipPath5018"><path
         d="M 1.4305e-5,0 H 960.00001 V 540 H 1.4305e-5 Z"
         id="path5016"
         inkscape:connector-curvature="0"
         style="clip-rule:evenodd" /></clipPath></defs><sodipodi:namedview
     pagecolor="#ffffff"
     bordercolor="#666666"
     borderopacity="1"
     objecttolerance="10"
     gridtolerance="10"
     guidetolerance="10"
     inkscape:pageopacity="0"
     inkscape:pageshadow="2"
     inkscape:window-width="1920"
     inkscape:window-height="1001"
     id="namedview4782"
     showgrid="false"
     fit-margin-top="0"
     fit-margin-left="0"
     fit-margin-right="0"
     fit-margin-bottom="0"
     inkscape:zoom="0.26484375"
     inkscape:cx="201.52589"
     inkscape:cy="83.043966"
     inkscape:window-x="-9"
     inkscape:window-y="-9"
     inkscape:window-maximized="1"
     inkscape:current-layer="g4788" /><g
     id="g4788"
     inkscape:groupmode="layer"
     inkscape:label="planar_2R"
     transform="matrix(1.3333333,0,0,-1.3333333,-438.47411,490.5539)"><path
       d="m 339.78,222.78 h 81.7"
       style="fill:none;stroke:#000000;stroke-width:2.27999997;stroke-linecap:butt;stroke-linejoin:miter;stroke-miterlimit:10;stroke-dasharray:none;stroke-opacity:1"
       id="path4800"
       inkscape:connector-curvature="0" /><path
       d="m 356.23,222.78 -16.45,-14.2"
       style="fill:none;stroke:#000000;stroke-width:2.27999997;stroke-linecap:butt;stroke-linejoin:miter;stroke-miterlimit:10;stroke-dasharray:none;stroke-opacity:1"
       id="path4802"
       inkscape:connector-curvature="0" /><path
       d="m 366.07,222.78 -16.45,-14.2"
       style="fill:none;stroke:#000000;stroke-width:2.27999997;stroke-linecap:butt;stroke-linejoin:miter;stroke-miterlimit:10;stroke-dasharray:none;stroke-opacity:1"
       id="path4804"
       inkscape:connector-curvature="0" /><path
       d="m 377.23,222.78 -16.45,-14.2"
       style="fill:none;stroke:#000000;stroke-width:2.27999997;stroke-linecap:butt;stroke-linejoin:miter;stroke-miterlimit:10;stroke-dasharray:none;stroke-opacity:1"
       id="path4806"
       inkscape:connector-curvature="0" /><path
       d="m 387.07,222.78 -16.45,-14.2"
       style="fill:none;stroke:#000000;stroke-width:2.27999997;stroke-linecap:butt;stroke-linejoin:miter;stroke-miterlimit:10;stroke-dasharray:none;stroke-opacity:1"
       id="path4808"
       inkscape:connector-curvature="0" /><path
       d="m 399.79,222.78 -16.45,-14.2"
       style="fill:none;stroke:#000000;stroke-width:2.27999997;stroke-linecap:butt;stroke-linejoin:miter;stroke-miterlimit:10;stroke-dasharray:none;stroke-opacity:1"
       id="path4810"
       inkscape:connector-curvature="0" /><path
       d="m 409.51,222.78 -16.45,-14.2"
       style="fill:none;stroke:#000000;stroke-width:2.27999997;stroke-linecap:butt;stroke-linejoin:miter;stroke-miterlimit:10;stroke-dasharray:none;stroke-opacity:1"
       id="path4812"
       inkscape:connector-curvature="0" /><g
       id="g4814"><g
         id="g4816"
         clip-path="url(#clipPath4820)"><path
           d="m 507.96,320.24 79.98,-70.33 -10.4,-11.83 -79.98,70.34 z"
           style="fill:#d9d9d9;fill-opacity:1;fill-rule:evenodd;stroke:none"
           id="path4822"
           inkscape:connector-curvature="0" /></g></g><g
       id="g4824"><g
         id="g4826"
         clip-path="url(#clipPath4830)"><path
           d="m 507.96,320.24 79.98,-70.33 -10.4,-11.83 -79.98,70.34 z"
           style="fill:none;stroke:#000000;stroke-width:1;stroke-linecap:butt;stroke-linejoin:miter;stroke-miterlimit:10;stroke-dasharray:none;stroke-opacity:1"
           id="path4832"
           inkscape:connector-curvature="0" /></g></g><g
       id="g4834"><g
         id="g4836"
         clip-path="url(#clipPath4840)"><path
           d="m 373.53,229.48 121.29,90.69 9.4,-12.58 -121.29,-90.68 z"
           style="fill:#d9d9d9;fill-opacity:1;fill-rule:evenodd;stroke:none"
           id="path4842"
           inkscape:connector-curvature="0" /></g></g><g
       id="g4844"><g
         id="g4846"
         clip-path="url(#clipPath4850)"><path
           d="m 373.53,229.48 121.29,90.69 9.4,-12.58 -121.29,-90.68 z"
           style="fill:none;stroke:#000000;stroke-width:1;stroke-linecap:butt;stroke-linejoin:miter;stroke-miterlimit:10;stroke-dasharray:none;stroke-opacity:1"
           id="path4852"
           inkscape:connector-curvature="0" /></g></g><path
       d="m 366.06,223.98 c 0,8.09 6.53,14.64 14.58,14.64 8.05,0 14.58,-6.55 14.58,-14.64 0,-8.09 -6.53,-14.64 -14.58,-14.64 -8.05,0 -14.58,6.55 -14.58,14.64 z"
       style="fill:#ffffff;fill-opacity:1;fill-rule:evenodd;stroke:none"
       id="path4854"
       inkscape:connector-curvature="0" /><path
       d="m 366.06,223.98 c 0,8.09 6.53,14.64 14.58,14.64 8.05,0 14.58,-6.55 14.58,-14.64 0,-8.09 -6.53,-14.64 -14.58,-14.64 -8.05,0 -14.58,6.55 -14.58,14.64 z"
       style="fill:none;stroke:#000000;stroke-width:2.27999997;stroke-linecap:butt;stroke-linejoin:miter;stroke-miterlimit:10;stroke-dasharray:none;stroke-opacity:1"
       id="path4856"
       inkscape:connector-curvature="0" /><path
       d="m 373.56,224.4 c 0,4.11 3.33,7.44 7.44,7.44 4.11,0 7.44,-3.33 7.44,-7.44 0,-4.11 -3.33,-7.44 -7.44,-7.44 -4.11,0 -7.44,3.33 -7.44,7.44 z"
       style="fill:#000000;fill-opacity:1;fill-rule:evenodd;stroke:none"
       id="path4858"
       inkscape:connector-curvature="0" /><path
       d="m 484.62,314.64 c 0,8.05 6.53,14.58 14.58,14.58 8.05,0 14.58,-6.53 14.58,-14.58 0,-8.05 -6.53,-14.58 -14.58,-14.58 -8.05,0 -14.58,6.53 -14.58,14.58 z"
       style="fill:#ffffff;fill-opacity:1;fill-rule:evenodd;stroke:none"
       id="path4860"
       inkscape:connector-curvature="0" /><path
       d="m 484.62,314.64 c 0,8.05 6.53,14.58 14.58,14.58 8.05,0 14.58,-6.53 14.58,-14.58 0,-8.05 -6.53,-14.58 -14.58,-14.58 -8.05,0 -14.58,6.53 -14.58,14.58 z"
       style="fill:none;stroke:#000000;stroke-width:2.27999997;stroke-linecap:butt;stroke-linejoin:miter;stroke-miterlimit:10;stroke-dasharray:none;stroke-opacity:1"
       id="path4862"
       inkscape:connector-curvature="0" /><path
       d="m 492,315.12 c 0,4.11 3.36,7.44 7.5,7.44 4.14,0 7.5,-3.33 7.5,-7.44 0,-4.11 -3.36,-7.44 -7.5,-7.44 -4.14,0 -7.5,3.33 -7.5,7.44 z"
       style="fill:#000000;fill-opacity:1;fill-rule:evenodd;stroke:none"
       id="path4864"
       inkscape:connector-curvature="0" /><path
       d="m 575.28,243.54 c 0,4.74 3.84,8.58 8.58,8.58 4.74,0 8.58,-3.84 8.58,-8.58 0,-4.74 -3.84,-8.58 -8.58,-8.58 -4.74,0 -8.58,3.84 -8.58,8.58 z"
       style="fill:#7f7f7f;fill-opacity:1;fill-rule:evenodd;stroke:none"
       id="path4866"
       inkscape:connector-curvature="0" /><path
       d="m 575.28,243.54 c 0,4.74 3.84,8.58 8.58,8.58 4.74,0 8.58,-3.84 8.58,-8.58 0,-4.74 -3.84,-8.58 -8.58,-8.58 -4.74,0 -8.58,3.84 -8.58,8.58 z"
       style="fill:none;stroke:#000000;stroke-width:0.95999998;stroke-linecap:butt;stroke-linejoin:miter;stroke-miterlimit:10;stroke-dasharray:none;stroke-opacity:1"
       id="path4868"
       inkscape:connector-curvature="0" /><path
       d="m 420.07,222.78 -16.45,-14.2"
       style="fill:none;stroke:#000000;stroke-width:2.27999997;stroke-linecap:butt;stroke-linejoin:miter;stroke-miterlimit:10;stroke-dasharray:none;stroke-opacity:1"
       id="path4870"
       inkscape:connector-curvature="0" /><g
       id="g4872"><g
         id="g4874"
         clip-path="url(#clipPath4878)"><text
           transform="matrix(1,0,0,-1,328.2,233.18)"
           style="font-variant:normal;font-weight:normal;font-size:15.98400021px;font-family:'Times New Roman';-inkscape-font-specification:'Times New';writing-mode:lr-tb;fill:#000000;fill-opacity:1;fill-rule:nonzero;stroke:none"
           id="text4882"><tspan
             x="0 5.3226719 13.314672 17.310673 25.350624"
             y="0"
             sodipodi:role="line"
             id="tspan4880">(0,0)</tspan></text>
</g></g><g
       id="g4884"><g
         id="g4886"
         clip-path="url(#clipPath4890)"><text
           transform="matrix(1,0,0,-1,397.46,323.11)"
           style="font-style:italic;font-variant:normal;font-weight:normal;font-size:15.96000004px;font-family:'Times New Roman';-inkscape-font-specification:'Times New Roman, Italic';writing-mode:lr-tb;fill:#000000;fill-opacity:1;fill-rule:nonzero;stroke:none"
           id="text4894"><tspan
             x="0"
             y="0"
             id="tspan4892">L</tspan></text>
</g></g><g
       id="g4896"><g
         id="g4898"
         clip-path="url(#clipPath4902)"><text
           transform="matrix(1,0,0,-1,406.34,319.27)"
           style="font-variant:normal;font-weight:normal;font-size:10.68000031px;font-family:'Times New Roman';-inkscape-font-specification:'Times New';writing-mode:lr-tb;fill:#000000;fill-opacity:1;fill-rule:nonzero;stroke:none"
           id="text4906"><tspan
             x="0"
             y="0"
             id="tspan4904">1</tspan></text>
</g></g><g
       id="g4908"><g
         id="g4910"
         clip-path="url(#clipPath4914)"><text
           transform="matrix(1,0,0,-1,575.33,305.21)"
           style="font-style:italic;font-variant:normal;font-weight:normal;font-size:15.96000004px;font-family:'Times New Roman';-inkscape-font-specification:'Times New Roman, Italic';writing-mode:lr-tb;fill:#000000;fill-opacity:1;fill-rule:nonzero;stroke:none"
           id="text4918"><tspan
             x="0"
             y="0"
             id="tspan4916">L</tspan></text>
</g></g><g
       id="g4920"><g
         id="g4922"
         clip-path="url(#clipPath4926)"><text
           transform="matrix(1,0,0,-1,584.21,301.37)"
           style="font-variant:normal;font-weight:normal;font-size:10.68000031px;font-family:'Times New Roman';-inkscape-font-specification:'Times New';writing-mode:lr-tb;fill:#000000;fill-opacity:1;fill-rule:nonzero;stroke:none"
           id="text4930"><tspan
             x="0"
             y="0"
             id="tspan4928">2</tspan></text>
</g></g><g
       id="g4932"><g
         id="g4934"
         clip-path="url(#clipPath4938)"><path
           d="m 373.22,245.41 c -4.68,6.31 -5.75,13.45 -2.37,15.96 l 44.89,33.35 c 3.37,2.51 2.31,9.65 -2.37,15.96 4.68,-6.31 11.22,-9.39 14.59,-6.88 l 44.89,33.36 c 3.37,2.51 9.91,-0.57 14.59,-6.88"
           style="fill:none;stroke:#000000;stroke-width:0.5;stroke-linecap:butt;stroke-linejoin:miter;stroke-miterlimit:10;stroke-dasharray:none;stroke-opacity:1"
           id="path4940"
           inkscape:connector-curvature="0" /></g></g><g
       id="g4942"><g
         id="g4944"
         clip-path="url(#clipPath4948)"><path
           d="m 508.44,327.46 c 5.27,5.82 12.08,8.25 15.19,5.42 l 30.28,-27.45 c 3.12,-2.83 9.92,-0.4 15.2,5.42 -5.28,-5.82 -7.04,-12.83 -3.92,-15.65 l 30.28,-27.46 c 3.11,-2.82 1.36,-9.83 -3.92,-15.65"
           style="fill:none;stroke:#000000;stroke-width:0.5;stroke-linecap:butt;stroke-linejoin:miter;stroke-miterlimit:10;stroke-dasharray:none;stroke-opacity:1"
           id="path4950"
           inkscape:connector-curvature="0" /></g></g><g
       id="g4952"><g
         id="g4954"
         clip-path="url(#clipPath4958)"><text
           transform="matrix(1,0,0,-1,580.56,215.21)"
           style="font-style:italic;font-variant:normal;font-weight:bold;font-size:15.98400021px;font-family:'Times New Roman';-inkscape-font-specification:'Times New Roman, BoldItalic';writing-mode:lr-tb;fill:#000000;fill-opacity:1;fill-rule:nonzero;stroke:none"
           id="text4962"><tspan
             x="0"
             y="0"
             id="tspan4960">x</tspan></text>
</g></g><path
       d="m 422.76,257.4 c 7.5,-9.57 11.58,-21.38 11.58,-33.54"
       style="fill:none;stroke:#000000;stroke-width:2.27999997;stroke-linecap:butt;stroke-linejoin:miter;stroke-miterlimit:10;stroke-dasharray:none;stroke-opacity:1"
       id="path4964"
       inkscape:connector-curvature="0" /><g
       id="g4966"><path
         d="m 382.62,225.83 183.7,140.95"
         style="fill:none;stroke:#000000;stroke-width:1.55999994;stroke-linecap:butt;stroke-linejoin:miter;stroke-miterlimit:10;stroke-dasharray:4.68, 1.56;stroke-dashoffset:0;stroke-opacity:1"
         id="path4968"
         inkscape:connector-curvature="0" /></g><g
       id="g4970"><path
         d="m 500.22,314.94 83.55,-72.4"
         style="fill:none;stroke:#000000;stroke-width:1.55999994;stroke-linecap:butt;stroke-linejoin:miter;stroke-miterlimit:10;stroke-dasharray:4.68, 1.56;stroke-dashoffset:0;stroke-opacity:1"
         id="path4972"
         inkscape:connector-curvature="0" /></g><path
       d="m 541.23,279.86 c -17.98,-24.04 -52.05,-28.95 -76.09,-10.97 -24.04,17.98 -28.95,52.05 -10.97,76.09 17.98,24.04 52.05,28.95 76.09,10.97 3.79,-2.83 7.2,-6.15 10.13,-9.87"
       style="fill:none;stroke:#000000;stroke-width:2.27999997;stroke-linecap:butt;stroke-linejoin:miter;stroke-miterlimit:10;stroke-dasharray:none;stroke-opacity:1"
       id="path4974"
       inkscape:connector-curvature="0" /><g
       id="g4976"><g
         id="g4978"
         clip-path="url(#clipPath4982)"><text
           transform="matrix(1,0,0,-1,438.05,229.51)"
           style="font-style:italic;font-variant:normal;font-weight:normal;font-size:15.98400021px;font-family:'Times New Roman';-inkscape-font-specification:'Times New Roman, Italic';writing-mode:lr-tb;fill:#000000;fill-opacity:1;fill-rule:nonzero;stroke:none"
           id="text4986"><tspan
             x="0"
             y="0"
             id="tspan4984">q</tspan></text>
</g></g><g
       id="g4988"><g
         id="g4990"
         clip-path="url(#clipPath4994)"><text
           transform="matrix(1,0,0,-1,446.09,225.65)"
           style="font-variant:normal;font-weight:normal;font-size:10.68000031px;font-family:'Times New Roman';-inkscape-font-specification:'Times New';writing-mode:lr-tb;fill:#000000;fill-opacity:1;fill-rule:nonzero;stroke:none"
           id="text4998"><tspan
             x="0"
             y="0"
             id="tspan4996">1</tspan></text>
</g></g><g
       id="g5000"><g
         id="g5002"
         clip-path="url(#clipPath5006)"><text
           transform="matrix(1,0,0,-1,504.36,350.23)"
           style="font-style:italic;font-variant:normal;font-weight:normal;font-size:15.96000004px;font-family:'Times New Roman';-inkscape-font-specification:'Times New Roman, Italic';writing-mode:lr-tb;fill:#000000;fill-opacity:1;fill-rule:nonzero;stroke:none"
           id="text5010"><tspan
             x="0"
             y="0"
             id="tspan5008">q</tspan></text>
</g></g><g
       id="g5012"><g
         id="g5014"
         clip-path="url(#clipPath5018)"><text
           transform="matrix(1,0,0,-1,512.4,346.39)"
           style="font-variant:normal;font-weight:normal;font-size:10.68000031px;font-family:'Times New Roman';-inkscape-font-specification:'Times New';writing-mode:lr-tb;fill:#000000;fill-opacity:1;fill-rule:nonzero;stroke:none"
           id="text5022"><tspan
             x="0"
             y="0"
             id="tspan5020">2</tspan></text>
</g></g><g
       id="g5024"><path
         d="m 382.62,222.78 h 72.7"
         style="fill:none;stroke:#000000;stroke-width:1.55999994;stroke-linecap:butt;stroke-linejoin:miter;stroke-miterlimit:10;stroke-dasharray:4.68, 1.56;stroke-dashoffset:0;stroke-opacity:1"
         id="path5026"
         inkscape:connector-curvature="0" /></g></g></svg>