<?xml version="1.0" encoding="UTF-8" standalone="no"?>
<!-- Created with Inkscape (http://www.inkscape.org/) -->

<svg
   xmlns:dc="http://purl.org/dc/elements/1.1/"
   xmlns:cc="http://creativecommons.org/ns#"
   xmlns:rdf="http://www.w3.org/1999/02/22-rdf-syntax-ns#"
   xmlns:svg="http://www.w3.org/2000/svg"
   xmlns="http://www.w3.org/2000/svg"
   xmlns:sodipodi="http://sodipodi.sourceforge.net/DTD/sodipodi-0.dtd"
   xmlns:inkscape="http://www.inkscape.org/namespaces/inkscape"
   version="1.1"
   id="svg988"
   xml:space="preserve"
   width="957.59143"
   height="248.53181"
   viewBox="0 0 957.5914 248.53182"
   sodipodi:docname="roll_pitch_yaw.svg"
   inkscape:version="0.92.4 (5da689c313, 2019-01-14)"><metadata
     id="metadata994"><rdf:RDF><cc:Work
         rdf:about=""><dc:format>image/svg+xml</dc:format><dc:type
           rdf:resource="http://purl.org/dc/dcmitype/StillImage" /><dc:title></dc:title></cc:Work></rdf:RDF></metadata><defs
     id="defs992" /><sodipodi:namedview
     pagecolor="#ffffff"
     bordercolor="#666666"
     borderopacity="1"
     objecttolerance="10"
     gridtolerance="10"
     guidetolerance="10"
     inkscape:pageopacity="0"
     inkscape:pageshadow="2"
     inkscape:window-width="640"
     inkscape:window-height="480"
     id="namedview990"
     showgrid="false"
     fit-margin-top="0"
     fit-margin-left="0"
     fit-margin-right="0"
     fit-margin-bottom="0"
     inkscape:zoom="1"
     inkscape:cx="534.68532"
     inkscape:cy="109.81407"
     inkscape:current-layer="g996" /><g
     id="g996"
     inkscape:groupmode="layer"
     inkscape:label="roll_pitch_yaw"
     transform="matrix(1.3333333,0,0,-1.3333333,0.13490424,277.49213)"><g
       id="g998"
       transform="matrix(0.8955208,0,0,0.89521657,0.04235708,21.769033)"
       style="stroke-width:1.11685836"><g
         id="g1000"
         transform="matrix(1,0,0,-1,0,208.16159)"
         style="stroke-width:1.11685836"><path
           d="m 1.387,207.68 96,-75.598 h 216 l -100.36,75.598 z"
           style="fill:#fae3d4;fill-opacity:1;fill-rule:evenodd;stroke:#000000;stroke-width:1.07218409;stroke-linecap:butt;stroke-linejoin:miter;stroke-miterlimit:10;stroke-dasharray:none;stroke-opacity:1"
           id="path1002"
           inkscape:connector-curvature="0" /></g><path
         d="m 156.066,38.22 v 77.942 h -2.277 V 38.22 Z m 2.282,76.801 -3.422,6.84 -3.418,-6.84 z"
         style="fill:#000000;fill-opacity:1;fill-rule:nonzero;stroke:none;stroke-width:1.11685836"
         id="path1004"
         inkscape:connector-curvature="0" /><path
         d="m 170.133,116.701 c 0,-0.118 -0.008,-0.215 -0.016,-0.297 -0.012,-0.074 -0.031,-0.137 -0.062,-0.188 -0.024,-0.054 -0.055,-0.093 -0.094,-0.125 -0.031,-0.023 -0.074,-0.031 -0.125,-0.031 h -6.719 c -0.156,0 -0.281,0.047 -0.375,0.141 -0.094,0.093 -0.14,0.242 -0.14,0.453 v 0.328 c 0,0.07 0.003,0.141 0.015,0.203 0.008,0.063 0.031,0.129 0.063,0.203 0.031,0.07 0.07,0.156 0.125,0.25 0.05,0.094 0.113,0.203 0.187,0.328 l 5.25,8.203 h -5.187 c -0.063,0 -0.117,0.008 -0.157,0.032 -0.043,0.019 -0.078,0.054 -0.109,0.109 -0.023,0.051 -0.039,0.113 -0.047,0.188 -0.012,0.082 -0.015,0.175 -0.015,0.281 0,0.125 0.003,0.222 0.015,0.297 0.008,0.082 0.024,0.148 0.047,0.203 0.031,0.051 0.066,0.086 0.109,0.109 0.04,0.031 0.094,0.047 0.157,0.047 h 6.328 c 0.156,0 0.281,-0.047 0.375,-0.141 0.094,-0.093 0.14,-0.234 0.14,-0.421 v -0.329 c 0,-0.093 -0.011,-0.183 -0.031,-0.265 -0.012,-0.074 -0.031,-0.149 -0.062,-0.219 -0.024,-0.074 -0.059,-0.156 -0.11,-0.25 -0.054,-0.086 -0.121,-0.184 -0.203,-0.297 l -5.219,-8.172 h 5.563 c 0.094,0 0.164,-0.054 0.219,-0.156 0.05,-0.105 0.078,-0.266 0.078,-0.484 z"
         style="fill:#000000;fill-opacity:1;fill-rule:nonzero;stroke:none;stroke-width:1.11685836"
         id="path1006"
         inkscape:connector-curvature="0" /><path
         d="m 257.047,40.935 c 0.082,-0.125 0.129,-0.23 0.141,-0.312 0.007,-0.075 -0.012,-0.137 -0.063,-0.188 -0.055,-0.043 -0.141,-0.066 -0.266,-0.078 -0.117,-0.008 -0.273,-0.016 -0.468,-0.016 -0.188,0 -0.336,0.008 -0.438,0.016 -0.105,0 -0.187,0.012 -0.25,0.031 -0.062,0.031 -0.109,0.063 -0.14,0.094 -0.032,0.031 -0.059,0.07 -0.079,0.125 l -2.531,4.531 -2.562,-4.531 c -0.032,-0.055 -0.071,-0.102 -0.11,-0.141 -0.031,-0.031 -0.078,-0.058 -0.14,-0.078 -0.055,-0.019 -0.137,-0.031 -0.25,-0.031 -0.106,-0.008 -0.246,-0.016 -0.422,-0.016 -0.188,0 -0.34,0.008 -0.453,0.016 -0.118,0.012 -0.196,0.035 -0.235,0.078 -0.043,0.051 -0.058,0.113 -0.047,0.188 0.02,0.082 0.067,0.187 0.141,0.312 l 3.109,5.234 -2.968,5.047 c -0.075,0.125 -0.121,0.227 -0.141,0.313 -0.023,0.082 -0.012,0.144 0.031,0.187 0.051,0.039 0.133,0.067 0.25,0.078 0.125,0.008 0.289,0.016 0.5,0.016 0.176,0 0.317,-0.008 0.422,-0.016 0.113,0 0.203,-0.011 0.266,-0.031 0.062,-0.023 0.109,-0.055 0.14,-0.094 0.032,-0.043 0.063,-0.086 0.094,-0.125 l 2.453,-4.25 2.422,4.25 c 0.031,0.039 0.055,0.082 0.078,0.125 0.032,0.039 0.071,0.071 0.125,0.094 0.063,0.02 0.141,0.031 0.235,0.031 0.101,0.008 0.238,0.016 0.406,0.016 0.187,0 0.336,-0.012 0.453,-0.031 0.113,-0.012 0.191,-0.039 0.234,-0.078 0.051,-0.032 0.071,-0.09 0.063,-0.172 -0.012,-0.086 -0.055,-0.188 -0.125,-0.313 l -2.953,-5.015 z"
         style="fill:#000000;fill-opacity:1;fill-rule:nonzero;stroke:none;stroke-width:1.11685836"
         id="path1008"
         inkscape:connector-curvature="0" /><path
         d="m 154.926,37.08 h 77.941 v 2.281 h -77.941 z m 76.801,-2.278 6.839,3.418 -6.839,3.422 z"
         style="fill:#000000;fill-opacity:1;fill-rule:nonzero;stroke:none;stroke-width:1.11685836"
         id="path1010"
         inkscape:connector-curvature="0" /><path
         d="m 155.566,37.33 41.11,28.062 -1.278,1.879 -41.109,-28.063 z m 41.461,25.531 3.719,6.679 -7.578,-1.031 z"
         style="fill:#000000;fill-opacity:1;fill-rule:nonzero;stroke:none;stroke-width:1.11685836"
         id="path1012"
         inkscape:connector-curvature="0" /><path
         d="m 215.977,81.56 v -4.187 c 0,-0.055 -0.012,-0.102 -0.032,-0.141 -0.023,-0.031 -0.062,-0.059 -0.125,-0.078 -0.062,-0.02 -0.148,-0.035 -0.25,-0.047 -0.093,-0.008 -0.211,-0.016 -0.343,-0.016 -0.149,0 -0.274,0.008 -0.375,0.016 -0.094,0.012 -0.172,0.027 -0.235,0.047 -0.062,0.019 -0.105,0.047 -0.125,0.078 -0.023,0.039 -0.031,0.086 -0.031,0.141 v 4.187 l -3.219,6.422 c -0.062,0.133 -0.105,0.238 -0.125,0.312 -0.012,0.071 0.004,0.129 0.047,0.172 0.039,0.039 0.117,0.067 0.234,0.078 0.114,0.008 0.27,0.016 0.469,0.016 0.176,0 0.317,-0.008 0.422,-0.016 0.113,-0.011 0.203,-0.027 0.266,-0.046 0.062,-0.024 0.109,-0.055 0.14,-0.094 0.032,-0.031 0.063,-0.078 0.094,-0.141 l 1.578,-3.265 c 0.145,-0.313 0.289,-0.641 0.438,-0.985 0.144,-0.336 0.289,-0.672 0.437,-1.015 h 0.031 c 0.125,0.332 0.258,0.66 0.407,0.984 0.144,0.332 0.289,0.66 0.437,0.984 l 1.578,3.297 c 0.02,0.051 0.047,0.098 0.078,0.141 0.032,0.039 0.071,0.07 0.125,0.094 0.063,0.019 0.141,0.035 0.235,0.046 0.101,0.008 0.234,0.016 0.39,0.016 0.207,0 0.368,-0.012 0.485,-0.031 0.125,-0.012 0.207,-0.039 0.25,-0.078 0.051,-0.032 0.066,-0.09 0.047,-0.172 -0.012,-0.074 -0.047,-0.172 -0.11,-0.297 z"
         style="fill:#000000;fill-opacity:1;fill-rule:nonzero;stroke:none;stroke-width:1.11685836"
         id="path1014"
         inkscape:connector-curvature="0" /><g
         id="g1016"
         transform="matrix(1,0,0,-1,0,208.16159)"
         style="stroke-width:1.11685836"><path
           d="m 140.957,111.461 c -1.941,0.98 -5.418,10.461 -6.391,14.852 1.2,3.039 1.172,4.796 2.95,7.597 2.293,-3.14 5.711,-8.867 8.66,-13.457 0.262,-3.113 -3.289,-9.973 -5.219,-8.992 z"
           style="fill:#5999d4;fill-opacity:1;fill-rule:evenodd;stroke:#3f709c;stroke-width:1.11685836;stroke-linecap:butt;stroke-linejoin:miter;stroke-miterlimit:10;stroke-dasharray:none;stroke-opacity:1"
           id="path1018"
           inkscape:connector-curvature="0" /></g><g
         id="g1020"
         transform="matrix(1,0,0,-1,0,208.16159)"
         style="stroke-width:1.11685836"><path
           d="m 112.438,66.953 c 3.5,-2.012 4.667,0.817 6.769,4.508 2.102,3.68 6.891,9.219 5.859,17.59 -14.058,8.652 -33.324,25.59 -42.847,32.051 -2.317,-2.172 -5.395,-5.68 -5.887,-10.45 6.641,-7.832 15.875,-19.859 21.887,-27.14 6.019,-7.289 10.719,-14.551 14.219,-16.559 z"
           style="fill:#5999d4;fill-opacity:1;fill-rule:evenodd;stroke:#3f709c;stroke-width:1.11685836;stroke-linecap:butt;stroke-linejoin:miter;stroke-miterlimit:10;stroke-dasharray:none;stroke-opacity:1"
           id="path1022"
           inkscape:connector-curvature="0" /></g><g
         id="g1024"
         transform="matrix(1,0,0,-1,0,208.16159)"
         style="stroke-width:1.11685836"><path
           d="m 144.918,104.59 c 3.559,-0.867 8.078,-1.777 10.34,-2.387 0.359,0.328 0.93,0.598 3.808,4.348 -0.89,4.051 -7.757,10.601 -10.117,10.281 -2.363,-0.332 -7.601,-11.371 -4.031,-12.242 z"
           style="fill:#5999d4;fill-opacity:1;fill-rule:evenodd;stroke:#3f709c;stroke-width:1.07218409;stroke-linecap:butt;stroke-linejoin:miter;stroke-miterlimit:10;stroke-dasharray:none;stroke-opacity:1"
           id="path1026"
           inkscape:connector-curvature="0" /></g><path
         d="m 343.488,88.169 -16.789,66.282 2.207,0.558 16.793,-66.277 z m -18.722,64.621 1.64,7.469 4.992,-5.789 z"
         style="fill:#000000;fill-opacity:1;fill-rule:nonzero;stroke:none;stroke-width:1.11685836"
         id="path1028"
         inkscape:connector-curvature="0" /><path
         d="m 333.652,164.369 c 0,-0.118 -0.007,-0.215 -0.015,-0.297 -0.012,-0.074 -0.032,-0.137 -0.063,-0.188 -0.023,-0.054 -0.054,-0.094 -0.094,-0.125 -0.031,-0.023 -0.074,-0.031 -0.125,-0.031 h -6.718 c -0.157,0 -0.282,0.047 -0.375,0.141 -0.094,0.093 -0.141,0.242 -0.141,0.453 v 0.328 c 0,0.07 0.004,0.14 0.016,0.203 0.008,0.062 0.031,0.129 0.062,0.203 0.031,0.07 0.071,0.156 0.125,0.25 0.051,0.094 0.114,0.203 0.188,0.328 l 5.25,8.203 h -5.188 c -0.062,0 -0.117,0.008 -0.156,0.032 -0.043,0.019 -0.078,0.054 -0.109,0.109 -0.024,0.051 -0.039,0.113 -0.047,0.187 -0.012,0.083 -0.016,0.176 -0.016,0.282 0,0.125 0.004,0.222 0.016,0.297 0.008,0.082 0.023,0.148 0.047,0.203 0.031,0.051 0.066,0.086 0.109,0.109 0.039,0.031 0.094,0.047 0.156,0.047 h 6.328 c 0.157,0 0.282,-0.047 0.375,-0.141 0.094,-0.093 0.141,-0.234 0.141,-0.422 v -0.328 c 0,-0.093 -0.012,-0.183 -0.031,-0.265 -0.012,-0.074 -0.032,-0.149 -0.063,-0.219 -0.023,-0.074 -0.058,-0.156 -0.109,-0.25 -0.055,-0.086 -0.121,-0.184 -0.203,-0.297 l -5.219,-8.172 h 5.562 c 0.094,0 0.165,-0.054 0.219,-0.156 0.051,-0.105 0.078,-0.266 0.078,-0.484 z"
         style="fill:#000000;fill-opacity:1;fill-rule:nonzero;stroke:none;stroke-width:1.11685836"
         id="path1030"
         inkscape:connector-curvature="0" /><path
         d="m 337.633,175.306 c 0,-0.18 -0.012,-0.344 -0.031,-0.5 -0.024,-0.148 -0.055,-0.289 -0.094,-0.422 -0.043,-0.136 -0.094,-0.273 -0.156,-0.406 -0.063,-0.125 -0.149,-0.262 -0.25,-0.406 l -1.204,-1.813 c -0.031,-0.043 -0.07,-0.086 -0.109,-0.125 -0.031,-0.031 -0.078,-0.058 -0.141,-0.078 -0.054,-0.012 -0.117,-0.023 -0.187,-0.031 -0.074,-0.012 -0.168,-0.016 -0.281,-0.016 -0.094,0 -0.18,0.004 -0.25,0.016 -0.063,0.008 -0.11,0.019 -0.141,0.031 -0.031,0.02 -0.047,0.047 -0.047,0.078 0,0.039 0.008,0.086 0.031,0.141 l 1.172,2.422 v 1.109 c 0,0.156 0.016,0.281 0.047,0.375 0.031,0.094 0.078,0.164 0.141,0.219 0.07,0.051 0.16,0.086 0.265,0.109 0.114,0.02 0.243,0.031 0.391,0.031 0.145,0 0.27,-0.011 0.375,-0.031 0.113,-0.023 0.203,-0.058 0.266,-0.109 0.07,-0.055 0.125,-0.125 0.156,-0.219 0.031,-0.094 0.047,-0.219 0.047,-0.375 z"
         style="fill:#000000;fill-opacity:1;fill-rule:nonzero;stroke:none;stroke-width:1.11685836"
         id="path1032"
         inkscape:connector-curvature="0" /><path
         d="m 446.715,91.165 c 0.082,-0.125 0.129,-0.23 0.14,-0.312 0.008,-0.074 -0.011,-0.137 -0.062,-0.188 -0.055,-0.042 -0.141,-0.066 -0.266,-0.078 -0.117,-0.007 -0.273,-0.015 -0.468,-0.015 -0.188,0 -0.336,0.008 -0.438,0.015 -0.105,0 -0.187,0.012 -0.25,0.032 -0.062,0.031 -0.109,0.062 -0.141,0.093 -0.031,0.032 -0.058,0.071 -0.078,0.125 l -2.531,4.532 -2.562,-4.532 c -0.032,-0.054 -0.071,-0.101 -0.11,-0.14 -0.031,-0.032 -0.078,-0.059 -0.14,-0.078 -0.055,-0.02 -0.137,-0.032 -0.25,-0.032 -0.106,-0.007 -0.246,-0.015 -0.422,-0.015 -0.188,0 -0.34,0.008 -0.453,0.015 -0.118,0.012 -0.196,0.036 -0.235,0.078 -0.043,0.051 -0.058,0.114 -0.047,0.188 0.02,0.082 0.067,0.187 0.141,0.312 l 3.109,5.235 -2.968,5.047 c -0.075,0.125 -0.121,0.226 -0.141,0.312 -0.023,0.082 -0.012,0.145 0.031,0.188 0.051,0.039 0.133,0.066 0.25,0.078 0.125,0.008 0.289,0.015 0.5,0.015 0.176,0 0.317,-0.007 0.422,-0.015 0.113,0 0.203,-0.012 0.266,-0.031 0.062,-0.024 0.109,-0.055 0.14,-0.094 0.032,-0.043 0.063,-0.086 0.094,-0.125 l 2.453,-4.25 2.422,4.25 c 0.031,0.039 0.055,0.082 0.078,0.125 0.031,0.039 0.071,0.07 0.125,0.094 0.063,0.019 0.141,0.031 0.235,0.031 0.101,0.008 0.238,0.015 0.406,0.015 0.187,0 0.336,-0.011 0.453,-0.031 0.113,-0.011 0.191,-0.039 0.234,-0.078 0.051,-0.031 0.071,-0.09 0.063,-0.172 -0.012,-0.086 -0.055,-0.187 -0.125,-0.312 l -2.953,-5.016 z"
         style="fill:#000000;fill-opacity:1;fill-rule:nonzero;stroke:none;stroke-width:1.11685836"
         id="path1034"
         inkscape:connector-curvature="0" /><path
         d="m 450.473,102.197 c 0,-0.18 -0.012,-0.344 -0.032,-0.5 -0.023,-0.149 -0.054,-0.289 -0.093,-0.422 -0.043,-0.137 -0.094,-0.274 -0.157,-0.406 -0.062,-0.125 -0.148,-0.262 -0.25,-0.407 l -1.203,-1.812 c -0.031,-0.043 -0.07,-0.086 -0.109,-0.125 -0.031,-0.031 -0.078,-0.059 -0.141,-0.078 -0.054,-0.012 -0.117,-0.024 -0.187,-0.032 -0.074,-0.011 -0.168,-0.015 -0.281,-0.015 -0.094,0 -0.18,0.004 -0.25,0.015 -0.063,0.008 -0.11,0.02 -0.141,0.032 -0.031,0.019 -0.047,0.047 -0.047,0.078 0,0.039 0.008,0.086 0.031,0.14 l 1.172,2.422 v 1.11 c 0,0.156 0.016,0.281 0.047,0.375 0.031,0.093 0.078,0.164 0.141,0.218 0.07,0.051 0.16,0.086 0.265,0.11 0.114,0.019 0.242,0.031 0.391,0.031 0.144,0 0.269,-0.012 0.375,-0.031 0.113,-0.024 0.203,-0.059 0.266,-0.11 0.07,-0.054 0.125,-0.125 0.156,-0.218 0.031,-0.094 0.047,-0.219 0.047,-0.375 z"
         style="fill:#000000;fill-opacity:1;fill-rule:nonzero;stroke:none;stroke-width:1.11685836"
         id="path1036"
         inkscape:connector-curvature="0" /><path
         d="m 344.648,87.361 h 77.938 v 2.281 h -77.938 z m 76.801,-2.281 6.84,3.421 -6.84,3.418 z"
         style="fill:#000000;fill-opacity:1;fill-rule:nonzero;stroke:none;stroke-width:1.11685836"
         id="path1038"
         inkscape:connector-curvature="0" /><path
         d="m 345.547,87.74 34.351,44.742 -1.812,1.387 -34.34,-44.739 z m 35.469,42.449 1.453,7.512 -6.883,-3.34 z"
         style="fill:#000000;fill-opacity:1;fill-rule:nonzero;stroke:none;stroke-width:1.11685836"
         id="path1040"
         inkscape:connector-curvature="0" /><path
         d="m 390.387,139.759 v -4.187 c 0,-0.055 -0.012,-0.102 -0.032,-0.141 -0.023,-0.031 -0.062,-0.058 -0.125,-0.078 -0.062,-0.02 -0.148,-0.035 -0.25,-0.047 -0.093,-0.008 -0.21,-0.016 -0.343,-0.016 -0.149,0 -0.274,0.008 -0.375,0.016 -0.094,0.012 -0.172,0.027 -0.235,0.047 -0.062,0.02 -0.105,0.047 -0.125,0.078 -0.023,0.039 -0.031,0.086 -0.031,0.141 v 4.187 l -3.219,6.422 c -0.062,0.133 -0.105,0.238 -0.125,0.313 -0.011,0.07 0.004,0.129 0.047,0.171 0.039,0.04 0.117,0.067 0.235,0.079 0.113,0.007 0.269,0.015 0.468,0.015 0.176,0 0.317,-0.008 0.422,-0.015 0.114,-0.012 0.203,-0.028 0.266,-0.047 0.062,-0.024 0.109,-0.055 0.14,-0.094 0.032,-0.031 0.063,-0.078 0.094,-0.141 l 1.578,-3.265 c 0.145,-0.313 0.289,-0.641 0.438,-0.985 0.144,-0.336 0.289,-0.672 0.437,-1.015 h 0.032 c 0.125,0.332 0.257,0.66 0.406,0.984 0.144,0.332 0.289,0.66 0.437,0.984 l 1.578,3.297 c 0.02,0.051 0.047,0.098 0.079,0.141 0.031,0.039 0.07,0.07 0.125,0.094 0.062,0.019 0.14,0.035 0.234,0.047 0.102,0.007 0.234,0.015 0.391,0.015 0.207,0 0.367,-0.011 0.484,-0.031 0.125,-0.012 0.207,-0.039 0.25,-0.078 0.051,-0.031 0.066,-0.09 0.047,-0.172 -0.012,-0.074 -0.047,-0.172 -0.11,-0.297 z"
         style="fill:#000000;fill-opacity:1;fill-rule:nonzero;stroke:none;stroke-width:1.11685836"
         id="path1042"
         inkscape:connector-curvature="0" /><path
         d="m 397.512,146.915 c 0,-0.179 -0.012,-0.343 -0.032,-0.5 -0.023,-0.148 -0.054,-0.289 -0.093,-0.421 -0.043,-0.137 -0.094,-0.274 -0.157,-0.407 -0.062,-0.125 -0.148,-0.261 -0.25,-0.406 l -1.203,-1.812 c -0.031,-0.043 -0.07,-0.086 -0.109,-0.125 -0.031,-0.032 -0.078,-0.059 -0.141,-0.079 -0.054,-0.011 -0.117,-0.023 -0.187,-0.031 -0.074,-0.011 -0.168,-0.015 -0.281,-0.015 -0.094,0 -0.18,0.004 -0.25,0.015 -0.063,0.008 -0.11,0.02 -0.141,0.031 -0.031,0.02 -0.047,0.047 -0.047,0.079 0,0.039 0.008,0.086 0.031,0.14 l 1.172,2.422 v 1.109 c 0,0.157 0.016,0.282 0.047,0.375 0.031,0.094 0.078,0.165 0.141,0.219 0.07,0.051 0.16,0.086 0.265,0.11 0.114,0.019 0.243,0.031 0.391,0.031 0.145,0 0.27,-0.012 0.375,-0.031 0.113,-0.024 0.203,-0.059 0.266,-0.11 0.07,-0.054 0.125,-0.125 0.156,-0.219 0.031,-0.093 0.047,-0.218 0.047,-0.375 z"
         style="fill:#000000;fill-opacity:1;fill-rule:nonzero;stroke:none;stroke-width:1.11685836"
         id="path1044"
         inkscape:connector-curvature="0" /><path
         d="m 345.086,88.439 v 4 h -1 v -4 z m 0,7 v 4 h -1 v -4 z m 0,7 v 4 h -1 v -4 z m 0,7 v 4 h -1 v -4 z m 0,7 v 4 h -1 v -4 z m 0,7 v 4 h -1 v -4 z m 0,7 v 4 h -1 v -4 z m 0,7 v 4 h -1 v -4 z m 0,7 v 4 h -1 v -4 z m 0,7 v 4 h -1 v -4 z m 0,7 v 4 h -1 v -4 z m 0,7 v 1.641 h -1 v -1.641 z m 2.5,0.641 -3,6 -3,-6 z"
         style="fill:#000000;fill-opacity:1;fill-rule:nonzero;stroke:none;stroke-width:1.11685836"
         id="path1046"
         inkscape:connector-curvature="0" /><path
         d="m 344.867,87.951 3.309,2.257 -0.571,0.832 -3.296,-2.261 z m 5.781,3.949 3.309,2.262 -0.57,0.82 -3.301,-2.25 z m 5.778,3.949 3.312,2.25 -0.57,0.832 -3.301,-2.262 z m 5.793,3.941 3.297,2.262 -0.559,0.817 -3.309,-2.25 z m 5.777,3.95 3.301,2.25 -0.559,0.832 -3.312,-2.25 z m 5.781,3.949 3.301,2.25 -0.562,0.832 -3.297,-2.262 z m 5.782,3.941 3.308,2.262 -0.57,0.816 -3.301,-2.25 z m 5.777,3.95 1.223,0.832 -0.563,0.82 -1.219,-0.832 z m 1.801,-1.801 3.269,5.863 -6.648,-0.902 z"
         style="fill:#000000;fill-opacity:1;fill-rule:nonzero;stroke:none;stroke-width:1.11685836"
         id="path1048"
         inkscape:connector-curvature="0" /><path
         d="m 471.602,135.998 c 0,-0.118 -0.008,-0.215 -0.016,-0.297 -0.012,-0.075 -0.031,-0.137 -0.063,-0.188 -0.023,-0.055 -0.054,-0.094 -0.093,-0.125 -0.032,-0.023 -0.075,-0.031 -0.125,-0.031 h -6.719 c -0.156,0 -0.281,0.047 -0.375,0.141 -0.094,0.093 -0.141,0.242 -0.141,0.453 v 0.328 c 0,0.07 0.004,0.14 0.016,0.203 0.008,0.062 0.031,0.129 0.062,0.203 0.032,0.07 0.071,0.156 0.125,0.25 0.051,0.094 0.114,0.203 0.188,0.328 l 5.25,8.203 h -5.188 c -0.062,0 -0.117,0.008 -0.156,0.032 -0.043,0.019 -0.078,0.054 -0.109,0.109 -0.024,0.051 -0.039,0.113 -0.047,0.187 -0.012,0.082 -0.016,0.176 -0.016,0.282 0,0.125 0.004,0.222 0.016,0.297 0.008,0.082 0.023,0.148 0.047,0.203 0.031,0.05 0.066,0.086 0.109,0.109 0.039,0.031 0.094,0.047 0.156,0.047 h 6.329 c 0.156,0 0.281,-0.047 0.375,-0.141 0.093,-0.093 0.14,-0.234 0.14,-0.422 v -0.328 c 0,-0.093 -0.012,-0.183 -0.031,-0.265 -0.012,-0.075 -0.031,-0.149 -0.063,-0.219 -0.023,-0.074 -0.058,-0.156 -0.109,-0.25 -0.055,-0.086 -0.121,-0.184 -0.203,-0.297 l -5.219,-8.172 h 5.563 c 0.093,0 0.164,-0.055 0.218,-0.156 0.051,-0.106 0.079,-0.266 0.079,-0.484 z"
         style="fill:#000000;fill-opacity:1;fill-rule:nonzero;stroke:none;stroke-width:1.11685836"
         id="path1050"
         inkscape:connector-curvature="0" /><path
         d="m 475.563,146.935 c 0,-0.18 -0.012,-0.344 -0.032,-0.5 -0.023,-0.148 -0.054,-0.289 -0.093,-0.422 -0.043,-0.137 -0.094,-0.273 -0.157,-0.406 -0.062,-0.125 -0.148,-0.262 -0.25,-0.406 l -1.203,-1.813 c -0.031,-0.043 -0.07,-0.086 -0.109,-0.125 -0.031,-0.031 -0.078,-0.058 -0.141,-0.078 -0.055,-0.012 -0.117,-0.023 -0.187,-0.031 -0.075,-0.012 -0.168,-0.016 -0.282,-0.016 -0.093,0 -0.179,0.004 -0.25,0.016 -0.062,0.008 -0.109,0.019 -0.14,0.031 -0.031,0.02 -0.047,0.047 -0.047,0.078 0,0.039 0.008,0.086 0.031,0.141 l 1.172,2.422 v 1.109 c 0,0.156 0.016,0.281 0.047,0.375 0.031,0.094 0.078,0.164 0.141,0.219 0.07,0.051 0.16,0.086 0.265,0.109 0.113,0.02 0.242,0.031 0.391,0.031 0.144,0 0.269,-0.011 0.375,-0.031 0.113,-0.023 0.203,-0.058 0.265,-0.109 0.071,-0.055 0.125,-0.125 0.157,-0.219 0.031,-0.094 0.047,-0.219 0.047,-0.375 z"
         style="fill:#000000;fill-opacity:1;fill-rule:nonzero;stroke:none;stroke-width:1.11685836"
         id="path1052"
         inkscape:connector-curvature="0" /><path
         d="m 479.996,146.935 c 0,-0.18 -0.012,-0.344 -0.031,-0.5 -0.024,-0.148 -0.055,-0.289 -0.094,-0.422 -0.043,-0.137 -0.094,-0.273 -0.156,-0.406 -0.063,-0.125 -0.149,-0.262 -0.25,-0.406 l -1.203,-1.813 c -0.032,-0.043 -0.071,-0.086 -0.11,-0.125 -0.031,-0.031 -0.078,-0.058 -0.14,-0.078 -0.055,-0.012 -0.117,-0.023 -0.188,-0.031 -0.074,-0.012 -0.168,-0.016 -0.281,-0.016 -0.094,0 -0.18,0.004 -0.25,0.016 -0.063,0.008 -0.109,0.019 -0.141,0.031 -0.031,0.02 -0.047,0.047 -0.047,0.078 0,0.039 0.008,0.086 0.032,0.141 l 1.172,2.422 v 1.109 c 0,0.156 0.015,0.281 0.046,0.375 0.032,0.094 0.079,0.164 0.141,0.219 0.07,0.051 0.16,0.086 0.266,0.109 0.113,0.02 0.242,0.031 0.39,0.031 0.145,0 0.27,-0.011 0.375,-0.031 0.114,-0.023 0.203,-0.058 0.266,-0.109 0.07,-0.055 0.125,-0.125 0.156,-0.219 0.031,-0.094 0.047,-0.219 0.047,-0.375 z"
         style="fill:#000000;fill-opacity:1;fill-rule:nonzero;stroke:none;stroke-width:1.11685836"
         id="path1054"
         inkscape:connector-curvature="0" /><path
         d="m 601.035,159.833 c 0.082,-0.125 0.129,-0.23 0.141,-0.312 0.008,-0.074 -0.012,-0.137 -0.063,-0.188 -0.054,-0.043 -0.14,-0.066 -0.265,-0.078 -0.118,-0.007 -0.274,-0.015 -0.469,-0.015 -0.188,0 -0.336,0.008 -0.438,0.015 -0.105,0 -0.187,0.012 -0.25,0.032 -0.062,0.031 -0.109,0.062 -0.14,0.093 -0.031,0.032 -0.059,0.071 -0.078,0.125 l -2.532,4.532 -2.562,-4.532 c -0.031,-0.054 -0.07,-0.101 -0.109,-0.14 -0.032,-0.032 -0.079,-0.059 -0.141,-0.078 -0.055,-0.02 -0.137,-0.032 -0.25,-0.032 -0.106,-0.007 -0.246,-0.015 -0.422,-0.015 -0.187,0 -0.34,0.008 -0.453,0.015 -0.117,0.012 -0.195,0.035 -0.234,0.078 -0.043,0.051 -0.059,0.114 -0.047,0.188 0.019,0.082 0.066,0.187 0.14,0.312 l 3.11,5.235 -2.969,5.047 c -0.074,0.125 -0.121,0.226 -0.141,0.312 -0.023,0.082 -0.011,0.145 0.032,0.188 0.05,0.039 0.132,0.066 0.25,0.078 0.125,0.008 0.289,0.015 0.5,0.015 0.175,0 0.316,-0.007 0.421,-0.015 0.114,0 0.204,-0.012 0.266,-0.031 0.063,-0.024 0.109,-0.055 0.141,-0.094 0.031,-0.043 0.062,-0.086 0.093,-0.125 l 2.454,-4.25 2.421,4.25 c 0.032,0.039 0.055,0.082 0.079,0.125 0.031,0.039 0.07,0.07 0.125,0.094 0.062,0.019 0.14,0.031 0.234,0.031 0.101,0.008 0.238,0.015 0.406,0.015 0.188,0 0.336,-0.011 0.453,-0.031 0.114,-0.012 0.192,-0.039 0.235,-0.078 0.05,-0.031 0.07,-0.09 0.062,-0.172 -0.012,-0.086 -0.055,-0.187 -0.125,-0.312 l -2.953,-5.016 z"
         style="fill:#000000;fill-opacity:1;fill-rule:nonzero;stroke:none;stroke-width:1.11685836"
         id="path1056"
         inkscape:connector-curvature="0" /><path
         d="m 604.785,170.865 c 0,-0.18 -0.012,-0.344 -0.031,-0.5 -0.024,-0.149 -0.055,-0.289 -0.094,-0.422 -0.043,-0.137 -0.094,-0.274 -0.156,-0.406 -0.063,-0.125 -0.149,-0.262 -0.25,-0.407 l -1.203,-1.812 c -0.031,-0.043 -0.071,-0.086 -0.11,-0.125 -0.031,-0.031 -0.078,-0.059 -0.14,-0.078 -0.055,-0.012 -0.117,-0.024 -0.188,-0.032 -0.074,-0.011 -0.168,-0.015 -0.281,-0.015 -0.094,0 -0.18,0.004 -0.25,0.015 -0.062,0.008 -0.109,0.02 -0.141,0.032 -0.031,0.019 -0.046,0.047 -0.046,0.078 0,0.039 0.007,0.086 0.031,0.14 l 1.172,2.422 v 1.11 c 0,0.156 0.015,0.281 0.047,0.375 0.031,0.093 0.078,0.164 0.14,0.218 0.07,0.051 0.16,0.086 0.266,0.11 0.113,0.019 0.242,0.031 0.39,0.031 0.145,0 0.27,-0.012 0.375,-0.031 0.114,-0.024 0.204,-0.059 0.266,-0.11 0.07,-0.054 0.125,-0.125 0.156,-0.218 0.032,-0.094 0.047,-0.219 0.047,-0.375 z"
         style="fill:#000000;fill-opacity:1;fill-rule:nonzero;stroke:none;stroke-width:1.11685836"
         id="path1058"
         inkscape:connector-curvature="0" /><path
         d="m 609.23,170.865 c 0,-0.18 -0.011,-0.344 -0.031,-0.5 -0.023,-0.149 -0.054,-0.289 -0.094,-0.422 -0.042,-0.137 -0.093,-0.274 -0.156,-0.406 -0.062,-0.125 -0.148,-0.262 -0.25,-0.407 l -1.203,-1.812 c -0.031,-0.043 -0.07,-0.086 -0.109,-0.125 -0.032,-0.031 -0.078,-0.059 -0.141,-0.078 -0.055,-0.012 -0.117,-0.024 -0.187,-0.032 -0.075,-0.011 -0.168,-0.015 -0.282,-0.015 -0.093,0 -0.179,0.004 -0.25,0.015 -0.062,0.008 -0.109,0.02 -0.14,0.032 -0.032,0.019 -0.047,0.047 -0.047,0.078 0,0.039 0.008,0.086 0.031,0.14 l 1.172,2.422 v 1.11 c 0,0.156 0.016,0.281 0.047,0.375 0.031,0.093 0.078,0.164 0.14,0.218 0.071,0.051 0.161,0.086 0.266,0.11 0.113,0.019 0.242,0.031 0.391,0.031 0.144,0 0.269,-0.012 0.375,-0.031 0.113,-0.024 0.203,-0.059 0.265,-0.11 0.071,-0.054 0.125,-0.125 0.157,-0.218 0.031,-0.094 0.046,-0.219 0.046,-0.375 z"
         style="fill:#000000;fill-opacity:1;fill-rule:nonzero;stroke:none;stroke-width:1.11685836"
         id="path1060"
         inkscape:connector-curvature="0" /><path
         d="m 530.578,88.15 -50.351,43.172 1.492,1.73 50.34,-43.172 z m -50.961,40.699 -2.969,7.051 7.418,-1.86 z"
         style="fill:#000000;fill-opacity:1;fill-rule:nonzero;stroke:none;stroke-width:1.11685836"
         id="path1062"
         inkscape:connector-curvature="0" /><path
         d="m 532.066,88.361 50.192,59.719 -1.719,1.449 -50.191,-59.719 z m 51.192,57.41 1.758,7.34 -6.93,-2.992 z"
         style="fill:#000000;fill-opacity:1;fill-rule:nonzero;stroke:none;stroke-width:1.11685836"
         id="path1064"
         inkscape:connector-curvature="0" /><path
         d="m 532.246,88.49 17.859,32.621 -2,1.097 -17.859,-32.617 z m 19.313,30.531 0.289,7.641 -6.282,-4.36 z"
         style="fill:#000000;fill-opacity:1;fill-rule:nonzero;stroke:none;stroke-width:1.11685836"
         id="path1066"
         inkscape:connector-curvature="0" /><path
         d="m 542.516,133.732 v -4.188 c 0,-0.054 -0.012,-0.101 -0.032,-0.14 -0.023,-0.031 -0.062,-0.059 -0.125,-0.078 -0.062,-0.02 -0.148,-0.036 -0.25,-0.047 -0.093,-0.008 -0.211,-0.016 -0.343,-0.016 -0.149,0 -0.274,0.008 -0.375,0.016 -0.094,0.011 -0.172,0.027 -0.235,0.047 -0.062,0.019 -0.105,0.047 -0.125,0.078 -0.023,0.039 -0.031,0.086 -0.031,0.14 v 4.188 l -3.219,6.422 c -0.062,0.133 -0.105,0.238 -0.125,0.312 -0.011,0.071 0.004,0.129 0.047,0.172 0.039,0.039 0.117,0.067 0.235,0.078 0.113,0.008 0.269,0.016 0.468,0.016 0.176,0 0.317,-0.008 0.422,-0.016 0.113,-0.011 0.203,-0.027 0.266,-0.047 0.062,-0.023 0.109,-0.054 0.14,-0.093 0.032,-0.032 0.063,-0.078 0.094,-0.141 l 1.578,-3.266 c 0.145,-0.312 0.289,-0.64 0.438,-0.984 0.144,-0.336 0.289,-0.672 0.437,-1.016 h 0.032 c 0.125,0.332 0.257,0.661 0.406,0.985 0.144,0.332 0.289,0.66 0.437,0.984 l 1.578,3.297 c 0.02,0.051 0.047,0.098 0.079,0.141 0.031,0.039 0.07,0.07 0.125,0.093 0.062,0.02 0.14,0.036 0.234,0.047 0.101,0.008 0.234,0.016 0.391,0.016 0.207,0 0.367,-0.012 0.484,-0.031 0.125,-0.012 0.207,-0.039 0.25,-0.078 0.051,-0.032 0.066,-0.09 0.047,-0.172 -0.012,-0.075 -0.047,-0.172 -0.11,-0.297 z"
         style="fill:#000000;fill-opacity:1;fill-rule:nonzero;stroke:none;stroke-width:1.11685836"
         id="path1068"
         inkscape:connector-curvature="0" /><path
         d="m 549.625,140.888 c 0,-0.18 -0.012,-0.344 -0.031,-0.5 -0.024,-0.148 -0.055,-0.289 -0.094,-0.422 -0.043,-0.136 -0.094,-0.273 -0.156,-0.406 -0.063,-0.125 -0.149,-0.262 -0.25,-0.406 l -1.203,-1.813 c -0.032,-0.043 -0.071,-0.086 -0.11,-0.125 -0.031,-0.031 -0.078,-0.058 -0.14,-0.078 -0.055,-0.012 -0.118,-0.023 -0.188,-0.031 -0.074,-0.012 -0.168,-0.016 -0.281,-0.016 -0.094,0 -0.18,0.004 -0.25,0.016 -0.063,0.008 -0.109,0.019 -0.141,0.031 -0.031,0.02 -0.047,0.047 -0.047,0.078 0,0.039 0.008,0.086 0.032,0.141 l 1.172,2.422 v 1.109 c 0,0.156 0.015,0.281 0.046,0.375 0.032,0.094 0.079,0.164 0.141,0.219 0.07,0.051 0.16,0.086 0.266,0.109 0.113,0.02 0.242,0.032 0.39,0.032 0.145,0 0.27,-0.012 0.375,-0.032 0.114,-0.023 0.203,-0.058 0.266,-0.109 0.07,-0.055 0.125,-0.125 0.156,-0.219 0.031,-0.094 0.047,-0.219 0.047,-0.375 z"
         style="fill:#000000;fill-opacity:1;fill-rule:nonzero;stroke:none;stroke-width:1.11685836"
         id="path1070"
         inkscape:connector-curvature="0" /><path
         d="m 554.07,140.888 c 0,-0.18 -0.011,-0.344 -0.031,-0.5 -0.023,-0.148 -0.055,-0.289 -0.094,-0.422 -0.043,-0.136 -0.093,-0.273 -0.156,-0.406 -0.062,-0.125 -0.148,-0.262 -0.25,-0.406 l -1.203,-1.813 c -0.031,-0.043 -0.07,-0.086 -0.109,-0.125 -0.032,-0.031 -0.079,-0.058 -0.141,-0.078 -0.055,-0.012 -0.117,-0.023 -0.188,-0.031 -0.074,-0.012 -0.168,-0.016 -0.281,-0.016 -0.094,0 -0.179,0.004 -0.25,0.016 -0.062,0.008 -0.109,0.019 -0.14,0.031 -0.032,0.02 -0.047,0.047 -0.047,0.078 0,0.039 0.008,0.086 0.031,0.141 l 1.172,2.422 v 1.109 c 0,0.156 0.015,0.281 0.047,0.375 0.031,0.094 0.078,0.164 0.14,0.219 0.071,0.051 0.16,0.086 0.266,0.109 0.113,0.02 0.242,0.032 0.391,0.032 0.144,0 0.269,-0.012 0.375,-0.032 0.113,-0.023 0.203,-0.058 0.265,-0.109 0.071,-0.055 0.125,-0.125 0.156,-0.219 0.032,-0.094 0.047,-0.219 0.047,-0.375 z"
         style="fill:#000000;fill-opacity:1;fill-rule:nonzero;stroke:none;stroke-width:1.11685836"
         id="path1072"
         inkscape:connector-curvature="0" /><path
         d="m 531.566,88.439 v 4 h -1 v -4 z m 0,7 v 4 h -1 v -4 z m 0,7 v 4 h -1 v -4 z m 0,7 v 4 h -1 v -4 z m 0,7 v 4 h -1 v -4 z m 0,7 v 4 h -1 v -4 z m 0,7 v 4 h -1 v -4 z m 0,7 v 4 h -1 v -4 z m 0,7 v 4 h -1 v -4 z m 0,7 v 4 h -1 v -4 z m 0,7 v 4 h -1 v -4 z m 0,7 v 1.641 h -1 v -1.641 z m 2.5,0.641 -3,6 -3,-6 z"
         style="fill:#000000;fill-opacity:1;fill-rule:nonzero;stroke:none;stroke-width:1.11685836"
         id="path1074"
         inkscape:connector-curvature="0" /><path
         d="m 531.348,87.951 3.308,2.257 -0.57,0.832 -3.297,-2.261 z m 5.781,3.949 3.309,2.262 -0.571,0.82 -3.301,-2.25 z m 5.777,3.949 3.313,2.25 -0.571,0.832 -3.3,-2.262 z m 5.793,3.941 3.297,2.262 -0.558,0.817 -3.309,-2.25 z m 5.778,3.95 3.3,2.25 -0.558,0.832 -3.313,-2.25 z m 5.781,3.949 3.301,2.25 -0.563,0.832 -3.297,-2.262 z m 5.781,3.941 3.309,2.262 -0.571,0.816 -3.3,-2.25 z m 5.777,3.95 1.223,0.832 -0.562,0.82 -1.219,-0.832 z m 1.801,-1.801 3.27,5.863 -6.649,-0.902 z"
         style="fill:#000000;fill-opacity:1;fill-rule:nonzero;stroke:none;stroke-width:1.11685836"
         id="path1076"
         inkscape:connector-curvature="0" /><path
         d="m 531.066,87.822 h 4 v 1 h -4 z m 7,0 h 4 v 1 h -4 z m 7,0 h 4 v 1 h -4 z m 7,0 h 4 v 1 h -4 z m 7,0 h 4 v 1 h -4 z m 7,0 h 4 v 1 h -4 z m 7,0 h 4 v 1 h -4 z m 7,0 h 4 v 1 h -4 z m 7,0 h 4 v 1 h -4 z m 7,0 h 4 v 1 h -4 z m 7,0 h 4 v 1 h -4 z m 7,0 h 1.641 v 1 h -1.641 z m 0.641,-2.5 6,3 -6,3 z"
         style="fill:#000000;fill-opacity:1;fill-rule:nonzero;stroke:none;stroke-width:1.11685836"
         id="path1078"
         inkscape:connector-curvature="0" /><path
         d="m 732.172,149.818 c 0,-0.117 -0.008,-0.215 -0.016,-0.297 -0.011,-0.074 -0.031,-0.137 -0.062,-0.188 -0.024,-0.054 -0.055,-0.093 -0.094,-0.125 -0.031,-0.023 -0.074,-0.031 -0.125,-0.031 h -6.719 c -0.156,0 -0.281,0.047 -0.375,0.141 -0.093,0.094 -0.14,0.242 -0.14,0.453 v 0.328 c 0,0.07 0.004,0.141 0.015,0.203 0.008,0.063 0.032,0.129 0.063,0.203 0.031,0.071 0.07,0.157 0.125,0.25 0.051,0.094 0.113,0.203 0.187,0.328 l 5.25,8.204 h -5.187 c -0.063,0 -0.117,0.007 -0.156,0.031 -0.043,0.019 -0.079,0.055 -0.11,0.109 -0.023,0.051 -0.039,0.113 -0.047,0.188 -0.011,0.082 -0.015,0.175 -0.015,0.281 0,0.125 0.004,0.223 0.015,0.297 0.008,0.082 0.024,0.148 0.047,0.203 0.031,0.051 0.067,0.086 0.11,0.109 0.039,0.032 0.093,0.047 0.156,0.047 h 6.328 c 0.156,0 0.281,-0.047 0.375,-0.14 0.094,-0.094 0.141,-0.235 0.141,-0.422 v -0.328 c 0,-0.094 -0.012,-0.184 -0.032,-0.266 -0.011,-0.074 -0.031,-0.148 -0.062,-0.219 -0.024,-0.074 -0.059,-0.156 -0.11,-0.25 -0.054,-0.086 -0.121,-0.183 -0.203,-0.297 l -5.218,-8.172 h 5.562 c 0.094,0 0.164,-0.054 0.219,-0.156 0.051,-0.105 0.078,-0.265 0.078,-0.484 z"
         style="fill:#000000;fill-opacity:1;fill-rule:nonzero;stroke:none;stroke-width:1.11685836"
         id="path1080"
         inkscape:connector-curvature="0" /><path
         d="m 736.141,160.755 c 0,-0.179 -0.012,-0.343 -0.032,-0.5 -0.023,-0.148 -0.054,-0.289 -0.093,-0.422 -0.043,-0.136 -0.094,-0.273 -0.157,-0.406 -0.062,-0.125 -0.148,-0.262 -0.25,-0.406 l -1.203,-1.813 c -0.031,-0.043 -0.07,-0.085 -0.109,-0.125 -0.031,-0.031 -0.078,-0.058 -0.141,-0.078 -0.054,-0.011 -0.117,-0.023 -0.187,-0.031 -0.074,-0.012 -0.168,-0.016 -0.281,-0.016 -0.094,0 -0.18,0.004 -0.25,0.016 -0.063,0.008 -0.11,0.02 -0.141,0.031 -0.031,0.02 -0.047,0.047 -0.047,0.078 0,0.04 0.008,0.086 0.031,0.141 l 1.172,2.422 v 1.109 c 0,0.157 0.016,0.282 0.047,0.375 0.031,0.094 0.078,0.164 0.141,0.219 0.07,0.051 0.16,0.086 0.265,0.109 0.114,0.02 0.242,0.032 0.391,0.032 0.144,0 0.269,-0.012 0.375,-0.032 0.113,-0.023 0.203,-0.058 0.266,-0.109 0.07,-0.055 0.125,-0.125 0.156,-0.219 0.031,-0.093 0.047,-0.218 0.047,-0.375 z"
         style="fill:#000000;fill-opacity:1;fill-rule:nonzero;stroke:none;stroke-width:1.11685836"
         id="path1082"
         inkscape:connector-curvature="0" /><path
         d="m 740.586,160.755 c 0,-0.179 -0.012,-0.343 -0.031,-0.5 -0.024,-0.148 -0.055,-0.289 -0.094,-0.422 -0.043,-0.136 -0.094,-0.273 -0.156,-0.406 -0.063,-0.125 -0.149,-0.262 -0.25,-0.406 l -1.203,-1.813 c -0.032,-0.043 -0.071,-0.085 -0.11,-0.125 -0.031,-0.031 -0.078,-0.058 -0.14,-0.078 -0.055,-0.011 -0.118,-0.023 -0.188,-0.031 -0.074,-0.012 -0.168,-0.016 -0.281,-0.016 -0.094,0 -0.18,0.004 -0.25,0.016 -0.063,0.008 -0.11,0.02 -0.141,0.031 -0.031,0.02 -0.047,0.047 -0.047,0.078 0,0.04 0.008,0.086 0.032,0.141 l 1.171,2.422 v 1.109 c 0,0.157 0.016,0.282 0.047,0.375 0.032,0.094 0.078,0.164 0.141,0.219 0.07,0.051 0.16,0.086 0.266,0.109 0.113,0.02 0.242,0.032 0.39,0.032 0.145,0 0.27,-0.012 0.375,-0.032 0.113,-0.023 0.203,-0.058 0.266,-0.109 0.07,-0.055 0.125,-0.125 0.156,-0.219 0.031,-0.093 0.047,-0.218 0.047,-0.375 z"
         style="fill:#000000;fill-opacity:1;fill-rule:nonzero;stroke:none;stroke-width:1.11685836"
         id="path1084"
         inkscape:connector-curvature="0" /><path
         d="m 745.031,160.755 c 0,-0.179 -0.011,-0.343 -0.031,-0.5 -0.023,-0.148 -0.055,-0.289 -0.094,-0.422 -0.043,-0.136 -0.093,-0.273 -0.156,-0.406 -0.062,-0.125 -0.148,-0.262 -0.25,-0.406 l -1.203,-1.813 c -0.031,-0.043 -0.07,-0.085 -0.109,-0.125 -0.032,-0.031 -0.079,-0.058 -0.141,-0.078 -0.055,-0.011 -0.117,-0.023 -0.188,-0.031 -0.074,-0.012 -0.168,-0.016 -0.281,-0.016 -0.094,0 -0.18,0.004 -0.25,0.016 -0.062,0.008 -0.109,0.02 -0.14,0.031 -0.032,0.02 -0.047,0.047 -0.047,0.078 0,0.04 0.007,0.086 0.031,0.141 l 1.172,2.422 v 1.109 c 0,0.157 0.015,0.282 0.047,0.375 0.031,0.094 0.078,0.164 0.14,0.219 0.071,0.051 0.16,0.086 0.266,0.109 0.113,0.02 0.242,0.032 0.391,0.032 0.144,0 0.269,-0.012 0.375,-0.032 0.113,-0.023 0.203,-0.058 0.265,-0.109 0.07,-0.055 0.125,-0.125 0.156,-0.219 0.032,-0.093 0.047,-0.218 0.047,-0.375 z"
         style="fill:#000000;fill-opacity:1;fill-rule:nonzero;stroke:none;stroke-width:1.11685836"
         id="path1086"
         inkscape:connector-curvature="0" /><path
         d="m 672.727,156.615 c 0.082,-0.125 0.128,-0.231 0.14,-0.313 0.008,-0.074 -0.012,-0.137 -0.062,-0.187 -0.055,-0.043 -0.141,-0.067 -0.266,-0.078 -0.117,-0.008 -0.273,-0.016 -0.469,-0.016 -0.187,0 -0.336,0.008 -0.437,0.016 -0.106,0 -0.188,0.011 -0.25,0.031 -0.063,0.031 -0.11,0.062 -0.141,0.094 -0.031,0.031 -0.058,0.07 -0.078,0.125 l -2.531,4.531 -2.563,-4.531 c -0.031,-0.055 -0.07,-0.102 -0.109,-0.141 -0.031,-0.031 -0.078,-0.059 -0.141,-0.078 -0.054,-0.02 -0.136,-0.031 -0.25,-0.031 -0.105,-0.008 -0.246,-0.016 -0.422,-0.016 -0.187,0 -0.339,0.008 -0.453,0.016 -0.117,0.011 -0.195,0.035 -0.234,0.078 -0.043,0.05 -0.059,0.113 -0.047,0.187 0.02,0.082 0.066,0.188 0.141,0.313 l 3.109,5.234 -2.969,5.047 c -0.074,0.125 -0.121,0.227 -0.14,0.312 -0.024,0.082 -0.012,0.145 0.031,0.188 0.051,0.039 0.133,0.066 0.25,0.078 0.125,0.008 0.289,0.016 0.5,0.016 0.176,0 0.316,-0.008 0.422,-0.016 0.113,0 0.203,-0.012 0.265,-0.031 0.063,-0.024 0.11,-0.055 0.141,-0.094 0.031,-0.043 0.063,-0.086 0.094,-0.125 l 2.453,-4.25 2.422,4.25 c 0.031,0.039 0.055,0.082 0.078,0.125 0.031,0.039 0.07,0.07 0.125,0.094 0.062,0.019 0.141,0.031 0.234,0.031 0.102,0.008 0.239,0.016 0.407,0.016 0.187,0 0.336,-0.012 0.453,-0.032 0.113,-0.011 0.191,-0.039 0.234,-0.078 0.051,-0.031 0.07,-0.09 0.063,-0.172 -0.012,-0.085 -0.055,-0.187 -0.125,-0.312 l -2.954,-5.016 z"
         style="fill:#000000;fill-opacity:1;fill-rule:nonzero;stroke:none;stroke-width:1.11685836"
         id="path1088"
         inkscape:connector-curvature="0" /><path
         d="m 676.477,167.646 c 0,-0.18 -0.012,-0.344 -0.032,-0.5 -0.023,-0.148 -0.054,-0.289 -0.093,-0.422 -0.043,-0.137 -0.094,-0.273 -0.157,-0.406 -0.062,-0.125 -0.148,-0.262 -0.25,-0.406 l -1.203,-1.813 c -0.031,-0.043 -0.07,-0.086 -0.109,-0.125 -0.031,-0.031 -0.078,-0.059 -0.141,-0.078 -0.054,-0.012 -0.117,-0.023 -0.187,-0.031 -0.075,-0.012 -0.168,-0.016 -0.282,-0.016 -0.093,0 -0.179,0.004 -0.25,0.016 -0.062,0.008 -0.109,0.019 -0.14,0.031 -0.031,0.019 -0.047,0.047 -0.047,0.078 0,0.039 0.008,0.086 0.031,0.141 l 1.172,2.422 v 1.109 c 0,0.156 0.016,0.281 0.047,0.375 0.031,0.094 0.078,0.164 0.141,0.219 0.07,0.05 0.16,0.086 0.265,0.109 0.113,0.02 0.242,0.031 0.391,0.031 0.144,0 0.269,-0.011 0.375,-0.031 0.113,-0.023 0.203,-0.059 0.265,-0.109 0.071,-0.055 0.125,-0.125 0.157,-0.219 0.031,-0.094 0.047,-0.219 0.047,-0.375 z"
         style="fill:#000000;fill-opacity:1;fill-rule:nonzero;stroke:none;stroke-width:1.11685836"
         id="path1090"
         inkscape:connector-curvature="0" /><path
         d="m 680.922,167.646 c 0,-0.18 -0.012,-0.344 -0.031,-0.5 -0.024,-0.148 -0.055,-0.289 -0.094,-0.422 -0.043,-0.137 -0.094,-0.273 -0.156,-0.406 -0.063,-0.125 -0.149,-0.262 -0.25,-0.406 l -1.203,-1.813 c -0.032,-0.043 -0.071,-0.086 -0.11,-0.125 -0.031,-0.031 -0.078,-0.059 -0.14,-0.078 -0.055,-0.012 -0.118,-0.023 -0.188,-0.031 -0.074,-0.012 -0.168,-0.016 -0.281,-0.016 -0.094,0 -0.18,0.004 -0.25,0.016 -0.063,0.008 -0.11,0.019 -0.141,0.031 -0.031,0.019 -0.047,0.047 -0.047,0.078 0,0.039 0.008,0.086 0.032,0.141 l 1.171,2.422 v 1.109 c 0,0.156 0.016,0.281 0.047,0.375 0.032,0.094 0.078,0.164 0.141,0.219 0.07,0.05 0.16,0.086 0.266,0.109 0.113,0.02 0.242,0.031 0.39,0.031 0.145,0 0.27,-0.011 0.375,-0.031 0.113,-0.023 0.203,-0.059 0.266,-0.109 0.07,-0.055 0.125,-0.125 0.156,-0.219 0.031,-0.094 0.047,-0.219 0.047,-0.375 z"
         style="fill:#000000;fill-opacity:1;fill-rule:nonzero;stroke:none;stroke-width:1.11685836"
         id="path1092"
         inkscape:connector-curvature="0" /><path
         d="m 685.367,167.646 c 0,-0.18 -0.012,-0.344 -0.031,-0.5 -0.023,-0.148 -0.055,-0.289 -0.094,-0.422 -0.043,-0.137 -0.094,-0.273 -0.156,-0.406 -0.063,-0.125 -0.148,-0.262 -0.25,-0.406 l -1.203,-1.813 c -0.031,-0.043 -0.07,-0.086 -0.11,-0.125 -0.031,-0.031 -0.078,-0.059 -0.14,-0.078 -0.055,-0.012 -0.117,-0.023 -0.188,-0.031 -0.074,-0.012 -0.168,-0.016 -0.281,-0.016 -0.094,0 -0.18,0.004 -0.25,0.016 -0.062,0.008 -0.109,0.019 -0.141,0.031 -0.031,0.019 -0.046,0.047 -0.046,0.078 0,0.039 0.007,0.086 0.031,0.141 l 1.172,2.422 v 1.109 c 0,0.156 0.015,0.281 0.047,0.375 0.031,0.094 0.078,0.164 0.14,0.219 0.071,0.05 0.16,0.086 0.266,0.109 0.113,0.02 0.242,0.031 0.39,0.031 0.145,0 0.27,-0.011 0.375,-0.031 0.114,-0.023 0.204,-0.059 0.266,-0.109 0.07,-0.055 0.125,-0.125 0.156,-0.219 0.032,-0.094 0.047,-0.219 0.047,-0.375 z"
         style="fill:#000000;fill-opacity:1;fill-rule:nonzero;stroke:none;stroke-width:1.11685836"
         id="path1094"
         inkscape:connector-curvature="0" /><path
         d="m 701.898,87.119 15.59,49.722 -2.179,0.68 -15.59,-49.719 z m 17.418,47.953 -1.218,7.547 -5.309,-5.5 z"
         style="fill:#000000;fill-opacity:1;fill-rule:nonzero;stroke:none;stroke-width:1.11685836"
         id="path1096"
         inkscape:connector-curvature="0" /><path
         d="m 699.738,86.931 -25.031,56.731 2.082,0.929 25.039,-56.742 z m -26.66,54.77 0.371,7.64 5.887,-4.883 z"
         style="fill:#000000;fill-opacity:1;fill-rule:nonzero;stroke:none;stroke-width:1.11685836"
         id="path1098"
         inkscape:connector-curvature="0" /><path
         d="m 701.297,86.47 67.582,32.149 -0.981,2.062 -67.582,-32.152 z m 67.531,29.602 4.711,6.027 -7.652,0.152 z"
         style="fill:#000000;fill-opacity:1;fill-rule:nonzero;stroke:none;stroke-width:1.11685836"
         id="path1100"
         inkscape:connector-curvature="0" /><path
         d="m 785.828,128.091 v -4.187 c 0,-0.055 -0.012,-0.102 -0.031,-0.141 -0.024,-0.031 -0.063,-0.058 -0.125,-0.078 -0.063,-0.02 -0.149,-0.035 -0.25,-0.047 -0.094,-0.008 -0.211,-0.015 -0.344,-0.015 -0.148,0 -0.273,0.007 -0.375,0.015 -0.094,0.012 -0.172,0.027 -0.234,0.047 -0.063,0.02 -0.106,0.047 -0.125,0.078 -0.024,0.039 -0.031,0.086 -0.031,0.141 v 4.187 l -3.219,6.422 c -0.063,0.133 -0.106,0.238 -0.125,0.313 -0.012,0.07 0.004,0.129 0.047,0.172 0.039,0.039 0.117,0.066 0.234,0.078 0.113,0.007 0.27,0.015 0.469,0.015 0.176,0 0.316,-0.008 0.422,-0.015 0.113,-0.012 0.203,-0.028 0.265,-0.047 0.063,-0.024 0.11,-0.055 0.141,-0.094 0.031,-0.031 0.062,-0.078 0.094,-0.141 l 1.578,-3.265 c 0.144,-0.313 0.289,-0.641 0.437,-0.985 0.145,-0.336 0.289,-0.671 0.438,-1.015 h 0.031 c 0.125,0.332 0.258,0.66 0.406,0.984 0.145,0.332 0.289,0.66 0.438,0.985 l 1.578,3.296 c 0.019,0.051 0.047,0.098 0.078,0.141 0.031,0.039 0.07,0.07 0.125,0.094 0.063,0.019 0.141,0.035 0.234,0.047 0.102,0.007 0.235,0.015 0.391,0.015 0.207,0 0.367,-0.011 0.484,-0.031 0.125,-0.012 0.207,-0.039 0.25,-0.078 0.051,-0.031 0.067,-0.09 0.047,-0.172 -0.011,-0.074 -0.047,-0.172 -0.109,-0.297 z"
         style="fill:#000000;fill-opacity:1;fill-rule:nonzero;stroke:none;stroke-width:1.11685836"
         id="path1102"
         inkscape:connector-curvature="0" /><path
         d="m 792.934,135.248 c 0,-0.18 -0.012,-0.344 -0.032,-0.5 -0.023,-0.149 -0.054,-0.29 -0.093,-0.422 -0.043,-0.137 -0.094,-0.274 -0.157,-0.407 -0.062,-0.125 -0.148,-0.261 -0.25,-0.406 l -1.203,-1.812 c -0.031,-0.043 -0.07,-0.086 -0.109,-0.125 -0.031,-0.032 -0.078,-0.059 -0.141,-0.078 -0.054,-0.012 -0.117,-0.024 -0.187,-0.032 -0.074,-0.011 -0.168,-0.015 -0.282,-0.015 -0.093,0 -0.179,0.004 -0.25,0.015 -0.062,0.008 -0.109,0.02 -0.14,0.032 -0.031,0.019 -0.047,0.046 -0.047,0.078 0,0.039 0.008,0.086 0.031,0.14 l 1.172,2.422 v 1.11 c 0,0.156 0.016,0.281 0.047,0.375 0.031,0.093 0.078,0.164 0.141,0.218 0.07,0.051 0.16,0.086 0.265,0.11 0.114,0.019 0.242,0.031 0.391,0.031 0.144,0 0.269,-0.012 0.375,-0.031 0.113,-0.024 0.203,-0.059 0.265,-0.11 0.071,-0.054 0.125,-0.125 0.157,-0.218 0.031,-0.094 0.047,-0.219 0.047,-0.375 z"
         style="fill:#000000;fill-opacity:1;fill-rule:nonzero;stroke:none;stroke-width:1.11685836"
         id="path1104"
         inkscape:connector-curvature="0" /><path
         d="m 797.379,135.248 c 0,-0.18 -0.012,-0.344 -0.031,-0.5 -0.024,-0.149 -0.055,-0.29 -0.094,-0.422 -0.043,-0.137 -0.094,-0.274 -0.156,-0.407 -0.063,-0.125 -0.149,-0.261 -0.25,-0.406 l -1.203,-1.812 c -0.032,-0.043 -0.071,-0.086 -0.11,-0.125 -0.031,-0.032 -0.078,-0.059 -0.14,-0.078 -0.055,-0.012 -0.118,-0.024 -0.188,-0.032 -0.074,-0.011 -0.168,-0.015 -0.281,-0.015 -0.094,0 -0.18,0.004 -0.25,0.015 -0.063,0.008 -0.11,0.02 -0.141,0.032 -0.031,0.019 -0.047,0.046 -0.047,0.078 0,0.039 0.008,0.086 0.032,0.14 l 1.171,2.422 v 1.11 c 0,0.156 0.016,0.281 0.047,0.375 0.032,0.093 0.078,0.164 0.141,0.218 0.07,0.051 0.16,0.086 0.266,0.11 0.113,0.019 0.242,0.031 0.39,0.031 0.145,0 0.27,-0.012 0.375,-0.031 0.113,-0.024 0.203,-0.059 0.266,-0.11 0.07,-0.054 0.125,-0.125 0.156,-0.218 0.031,-0.094 0.047,-0.219 0.047,-0.375 z"
         style="fill:#000000;fill-opacity:1;fill-rule:nonzero;stroke:none;stroke-width:1.11685836"
         id="path1106"
         inkscape:connector-curvature="0" /><path
         d="m 801.824,135.248 c 0,-0.18 -0.011,-0.344 -0.031,-0.5 -0.023,-0.149 -0.055,-0.29 -0.094,-0.422 -0.043,-0.137 -0.094,-0.274 -0.156,-0.407 -0.063,-0.125 -0.148,-0.261 -0.25,-0.406 l -1.203,-1.812 c -0.031,-0.043 -0.07,-0.086 -0.11,-0.125 -0.031,-0.032 -0.078,-0.059 -0.14,-0.078 -0.055,-0.012 -0.117,-0.024 -0.188,-0.032 -0.074,-0.011 -0.168,-0.015 -0.281,-0.015 -0.094,0 -0.18,0.004 -0.25,0.015 -0.062,0.008 -0.109,0.02 -0.141,0.032 -0.031,0.019 -0.046,0.046 -0.046,0.078 0,0.039 0.007,0.086 0.031,0.14 l 1.172,2.422 v 1.11 c 0,0.156 0.015,0.281 0.047,0.375 0.031,0.093 0.078,0.164 0.14,0.218 0.071,0.051 0.16,0.086 0.266,0.11 0.113,0.019 0.242,0.031 0.39,0.031 0.145,0 0.27,-0.012 0.375,-0.031 0.114,-0.024 0.204,-0.059 0.266,-0.11 0.07,-0.054 0.125,-0.125 0.156,-0.218 0.032,-0.094 0.047,-0.219 0.047,-0.375 z"
         style="fill:#000000;fill-opacity:1;fill-rule:nonzero;stroke:none;stroke-width:1.11685836"
         id="path1108"
         inkscape:connector-curvature="0" /><path
         d="m 700.406,88.439 v 4 h -1 v -4 z m 0,7 v 4 h -1 v -4 z m 0,7 v 4 h -1 v -4 z m 0,7 v 4 h -1 v -4 z m 0,7 v 4 h -1 v -4 z m 0,7 v 4 h -1 v -4 z m 0,7 v 4 h -1 v -4 z m 0,7 v 4 h -1 v -4 z m 0,7 v 4 h -1 v -4 z m 0,7 v 4 h -1 v -4 z m 0,7 v 4 h -1 v -4 z m 0,7 v 1.641 h -1 v -1.641 z m 2.5,0.641 -3,6 -3,-6 z"
         style="fill:#000000;fill-opacity:1;fill-rule:nonzero;stroke:none;stroke-width:1.11685836"
         id="path1110"
         inkscape:connector-curvature="0" /><path
         d="m 700.188,87.951 3.308,2.257 -0.57,0.832 -3.297,-2.261 z m 5.781,3.949 3.308,2.262 -0.57,0.82 -3.301,-2.25 z m 5.777,3.949 3.313,2.25 -0.571,0.832 -3.3,-2.262 z m 5.793,3.941 3.297,2.262 -0.559,0.817 -3.308,-2.25 z m 5.777,3.95 3.301,2.25 -0.558,0.832 -3.313,-2.25 z m 5.782,3.949 3.3,2.25 -0.562,0.832 -3.297,-2.262 z m 5.781,3.941 3.309,2.262 -0.571,0.816 -3.301,-2.25 z m 5.777,3.95 1.223,0.832 -0.563,0.82 -1.218,-0.832 z m 1.801,-1.801 3.27,5.863 -6.649,-0.902 z"
         style="fill:#000000;fill-opacity:1;fill-rule:nonzero;stroke:none;stroke-width:1.11685836"
         id="path1112"
         inkscape:connector-curvature="0" /><path
         d="m 700.746,86.142 h 4 v 1 h -4 z m 7,0 h 4 v 1 h -4 z m 7,0 h 4 v 1 h -4 z m 7,0 h 4 v 1 h -4 z m 7,0 h 4 v 1 h -4 z m 7,0 h 4 v 1 h -4 z m 7,0 h 4 v 1 h -4 z m 7,0 h 4 v 1 h -4 z m 7,0 h 4 v 1 h -4 z m 7,0 h 4 v 1 h -4 z m 7,0 h 4 v 1 h -4 z m 7,0 h 1.641 v 1 h -1.641 z m 0.641,-2.5 6,3 -6,3 z"
         style="fill:#000000;fill-opacity:1;fill-rule:nonzero;stroke:none;stroke-width:1.11685836"
         id="path1114"
         inkscape:connector-curvature="0" /><path
         d="m 412.789,102.931 0.27,-0.539 0.648,-1.551 0.551,-1.64 0.449,-1.711 0.371,-1.782 0.27,-1.816 0.191,-1.863 0.098,-1.899 v -1.89 l -0.078,-1.891 -0.18,-1.867 -0.274,-1.852 -0.367,-1.8 -0.449,-1.731 -0.551,-1.668 -0.652,-1.59 -0.738,-1.449 -0.782,-1.281 -0.847,-1.102 -0.883,-0.937 -0.938,-0.762 -0.98,-0.578 -1.012,-0.402 -1.027,-0.211 -1.043,-0.012 -1.02,0.18 -0.519,0.179 -0.508,0.211 -0.492,0.258 -0.488,0.313 -0.481,0.347 -0.473,0.41 -0.449,0.442 -0.449,0.488 -0.441,0.531 -0.418,0.59 -0.41,0.629 -0.399,0.672 -0.652,1.281 -0.578,1.36 -0.512,1.437 -0.449,1.512 -0.36,1.558 -0.3,1.621 -0.231,1.649 -0.148,1.68 -0.071,1.703 -0.011,1.699 0.07,1.711 0.152,1.687 0.219,1.692 0.301,1.648 0.379,1.602 0.449,1.558 0.961,-0.289 -0.449,-1.531 0.007,0.02 -0.367,-1.579 v 0.02 l -0.301,-1.621 0.008,0.023 -0.218,-1.66 v 0.027 l -0.141,-1.667 v 0.019 l -0.07,-1.691 v 0.019 -1.68 0.02 l 0.082,-1.68 v 0.032 l 0.148,-1.661 v 0.02 l 0.219,-1.629 v 0.031 l 0.293,-1.593 -0.012,0.023 0.359,-1.543 v 0.031 l 0.43,-1.488 -0.008,0.027 0.508,-1.41 -0.019,0.031 0.57,-1.339 -0.008,0.039 0.637,-1.25 -0.02,0.031 0.391,-0.66 -0.02,0.019 0.399,-0.601 -0.008,0.011 0.398,-0.558 -0.019,0.027 0.422,-0.508 -0.012,0.02 0.43,-0.481 -0.032,0.032 0.442,-0.422 -0.02,0.019 0.442,-0.39 -0.031,0.031 0.449,-0.328 -0.032,0.019 0.461,-0.3 -0.039,0.031 0.461,-0.242 -0.039,0.011 0.469,-0.191 -0.039,0.012 0.469,-0.16 -0.071,0.019 0.942,-0.16 -0.09,0.008 h 0.937 l -0.089,-0.008 0.949,0.191 -0.09,-0.031 0.922,0.371 -0.07,-0.031 0.917,0.539 -0.066,-0.039 0.887,0.719 -0.047,-0.051 0.848,0.89 -0.039,-0.039 0.808,1.071 -0.019,-0.039 0.761,1.238 -0.019,-0.039 0.707,1.41 -0.008,-0.031 0.629,1.551 -0.008,-0.032 0.539,1.633 -0.012,-0.031 0.45,1.711 v -0.02 l 0.363,1.77 -0.012,-0.031 0.27,1.82 -0.008,-0.02 0.18,1.84 v -0.019 l 0.078,1.859 v -0.019 1.867 -0.028 l -0.09,1.868 v -0.02 l -0.192,1.832 v -0.019 l -0.269,1.8 0.012,-0.031 -0.36,1.75 v -0.031 l -0.449,1.691 0.008,-0.031 -0.539,1.609 0.019,-0.039 -0.629,1.52 0.008,-0.039 -0.258,0.531 z m -1.371,-7.129 0.469,7.789 6.551,-4.242 c 0.23,-0.148 0.3,-0.457 0.148,-0.687 -0.148,-0.231 -0.457,-0.301 -0.688,-0.153 l -5.832,3.781 0.77,0.391 -0.418,-6.941 c -0.012,-0.27 -0.25,-0.481 -0.531,-0.469 -0.27,0.019 -0.481,0.258 -0.469,0.531 z"
         style="fill:#000000;fill-opacity:1;fill-rule:nonzero;stroke:none;stroke-width:1.11685836"
         id="path1116"
         inkscape:connector-curvature="0" /><path
         d="m 578.898,110.611 -0.05,-0.231 -0.332,-1.16 -0.438,-1.109 -0.519,-1.051 -0.621,-0.969 -0.7,-0.902 -0.769,-0.828 -0.84,-0.731 -0.902,-0.66 -0.95,-0.551 -1.011,-0.449 -1.039,-0.351 -1.079,-0.227 -1.121,-0.121 -1.129,0.008 -1.152,0.121 -1.117,0.25 -1.09,0.371 -1.023,0.48 -0.957,0.579 -0.903,0.671 -0.84,0.758 -0.75,0.84 -0.668,0.91 -0.589,0.973 -0.512,1.039 -0.418,1.09 -0.313,1.121 -0.218,1.168 -0.11,1.199 v 1.223 l 0.117,1.238 0.231,1.18 0.32,1.14 0.422,1.09 0.508,1.02 0.59,0.961 0.672,0.89 0.738,0.821 0.812,0.738 0.86,0.652 0.918,0.559 0.98,0.469 1,0.371 1.063,0.257 1.078,0.153 1.101,0.039 1.09,-0.07 -0.07,-1 -1.063,0.07 h 0.051 l -1.051,-0.031 h 0.051 l -1.027,-0.137 0.059,0.008 -1.012,-0.258 0.051,0.019 -0.961,-0.351 0.05,0.019 -0.929,-0.449 0.039,0.031 -0.879,-0.543 0.039,0.024 -0.82,-0.621 0.031,0.031 -0.77,-0.703 0.032,0.031 -0.711,-0.781 0.031,0.043 -0.633,-0.863 0.02,0.043 -0.567,-0.93 0.02,0.047 -0.481,-0.989 0.008,0.04 -0.398,-1.04 0.007,0.051 -0.296,-1.101 0.007,0.039 -0.218,-1.137 0.007,0.047 -0.117,-1.188 v 0.051 -1.172 0.039 l 0.11,-1.148 -0.012,0.039 0.211,-1.121 -0.008,0.043 0.297,-1.082 -0.008,0.039 0.391,-1.039 -0.012,0.039 0.481,-1 -0.02,0.043 0.57,-0.93 -0.019,0.039 0.636,-0.871 -0.027,0.031 0.719,-0.8 -0.031,0.031 0.793,-0.723 -0.043,0.031 0.863,-0.64 -0.031,0.031 0.91,-0.562 -0.051,0.031 0.981,-0.461 -0.051,0.019 1.031,-0.347 -0.051,0.008 1.071,-0.239 -0.051,0.012 1.09,-0.121 -0.051,0.008 1.082,-0.008 -0.051,-0.012 1.051,0.121 -0.051,-0.011 1.031,0.222 -0.05,-0.011 1,0.332 -0.051,-0.02 0.961,0.438 -0.051,-0.028 0.91,0.528 -0.039,-0.028 0.859,0.617 -0.039,-0.027 0.801,0.707 -0.031,-0.039 0.73,0.789 -0.031,-0.027 0.672,0.859 -0.031,-0.039 0.601,0.938 -0.031,-0.051 0.508,1.011 -0.02,-0.039 0.422,1.059 -0.019,-0.039 0.32,1.121 -0.012,-0.051 0.039,0.211 z m -5.441,-4.821 5.129,5.891 2.602,-7.359 c 0.089,-0.262 -0.051,-0.551 -0.309,-0.641 -0.262,-0.09 -0.543,0.051 -0.641,0.309 l -2.312,6.55 0.851,-0.171 -4.558,-5.227 c -0.18,-0.211 -0.5,-0.23 -0.711,-0.051 -0.211,0.18 -0.231,0.5 -0.051,0.699 z"
         style="fill:#000000;fill-opacity:1;fill-rule:nonzero;stroke:none;stroke-width:1.11685836"
         id="path1118"
         inkscape:connector-curvature="0" /><path
         d="m 707.016,159.49 1.531,-0.438 1.422,-0.523 1.32,-0.578 1.188,-0.661 1.07,-0.71 0.941,-0.758 0.809,-0.821 0.66,-0.859 0.531,-0.902 0.36,-0.938 0.211,-0.961 0.027,-0.98 -0.137,-0.981 -0.312,-0.968 -0.489,-0.973 -0.671,-0.918 -0.829,-0.879 -0.96,-0.812 -1.071,-0.731 -1.179,-0.66 -1.282,-0.578 -1.347,-0.512 -1.43,-0.43 -1.5,-0.359 -1.563,-0.27 -1.578,-0.191 -1.621,-0.098 -1.64,-0.031 -1.649,0.082 -1.64,0.156 -1.641,0.262 -1.609,0.352 -1.54,0.437 -1.429,0.52 -1.321,0.59 -1.191,0.652 -1.059,0.719 -0.941,0.761 -0.809,0.821 -0.671,0.859 -0.52,0.899 -0.371,0.941 -0.199,0.961 -0.032,0.976 0.141,0.973 0.313,0.981 0.488,0.957 0.672,0.921 0.57,0.629 0.649,0.602 0.718,0.559 0.77,0.531 0.851,0.508 0.899,0.461 0.972,0.421 0.079,0.024 0.351,-0.93 -0.07,-0.023 0.031,0.008 -0.941,-0.411 0.031,0.012 -0.883,-0.449 0.031,0.019 -0.82,-0.492 0.02,0.02 -0.75,-0.508 0.031,0.019 -0.692,-0.539 0.032,0.02 -0.61,-0.57 0.028,0.031 -0.539,-0.59 0.031,0.039 -0.629,-0.871 0.039,0.07 -0.461,-0.89 0.039,0.07 -0.289,-0.891 0.02,0.082 -0.129,-0.89 0.007,0.086 0.032,-0.899 -0.008,0.09 0.18,-0.883 -0.02,0.082 0.34,-0.859 -0.043,0.07 0.492,-0.843 -0.031,0.05 0.621,-0.808 -0.039,0.051 0.769,-0.782 -0.043,0.039 0.903,-0.73 -0.039,0.031 1.027,-0.691 -0.039,0.023 1.16,-0.633 -0.039,0.02 1.289,-0.578 -0.039,0.011 1.391,-0.5 -0.031,0.008 1.511,-0.426 h -0.031 l 1.578,-0.339 h -0.027 l 1.609,-0.25 h -0.031 l 1.621,-0.149 h -0.031 l 1.621,-0.082 h -0.031 l 1.621,0.02 h -0.032 l 1.59,0.109 h -0.027 l 1.559,0.18 h -0.02 l 1.52,0.261 h -0.032 l 1.473,0.352 -0.031,-0.012 1.398,0.422 -0.027,-0.012 1.32,0.5 -0.031,-0.019 1.238,0.57 -0.027,-0.019 1.136,0.636 -0.039,-0.019 1.039,0.703 -0.046,-0.031 0.918,0.769 -0.039,-0.031 0.789,0.832 -0.051,-0.051 0.633,0.871 -0.043,-0.07 0.461,0.899 -0.028,-0.079 0.289,0.891 -0.019,-0.082 0.117,0.898 v -0.089 l -0.027,0.89 0.007,-0.09 -0.187,0.891 0.027,-0.078 -0.34,0.859 0.032,-0.07 -0.493,0.84 0.043,-0.051 -0.621,0.809 0.039,-0.047 -0.769,0.769 0.039,-0.031 -0.898,0.73 0.039,-0.031 -1.028,0.692 0.028,-0.032 -1.149,0.641 0.039,-0.02 -1.289,0.571 0.039,-0.012 -1.398,0.5 0.027,-0.008 -1.5,0.438 z m -23.629,0.23 7.691,-1.301 -4.922,-6.058 c -0.179,-0.211 -0.488,-0.242 -0.699,-0.071 -0.219,0.18 -0.25,0.489 -0.078,0.7 l 4.387,5.39 0.3,-0.808 -6.847,1.168 c -0.27,0.039 -0.453,0.3 -0.41,0.582 0.046,0.269 0.308,0.449 0.578,0.398 z"
         style="fill:#000000;fill-opacity:1;fill-rule:nonzero;stroke:none;stroke-width:1.11685836"
         id="path1120"
         inkscape:connector-curvature="0" /><g
         id="g1122"
         transform="matrix(1,0,0,-1,0,208.16159)"
         style="stroke-width:1.11685836"><path
           d="m 146.258,118.031 c -4,-3.761 -14.57,-18.801 -21.121,-26.199 -6.559,-7.402 -13.84,-10.07 -18.219,-18.199 -4.371,-8.133 -8.742,-24.75 -8.012,-30.582 0.731,-5.821 6.922,-8.25 12.391,-4.36 5.461,3.879 16.019,19.051 20.391,27.661 4.378,8.609 2.917,16.007 5.828,24.019 2.922,8.012 9.961,19.172 11.66,24.02 1.703,4.859 1.09,7.402 -2.918,3.64 z"
           style="fill:#5999d4;fill-opacity:1;fill-rule:evenodd;stroke:#3f709c;stroke-width:1.07218409;stroke-linecap:butt;stroke-linejoin:miter;stroke-miterlimit:10;stroke-dasharray:none;stroke-opacity:1"
           id="path1124"
           inkscape:connector-curvature="0" /></g><g
         id="g1126"
         transform="matrix(1,0,0,-1,0,208.16159)"
         style="stroke-width:1.11685836"><path
           d="m 124.059,62.82 c -3.653,1.723 -2,4.301 -0.192,8.133 1.809,3.84 3.61,10.93 11.059,14.879 15.152,-6.57 40.07,-12.641 50.82,-16.75 -0.449,-3.141 -1.558,-7.672 -5.187,-10.812 -10.223,0.96 -25.371,1.632 -34.793,2.39 -9.418,0.75 -18.059,0.449 -21.707,2.16 z"
           style="fill:#5999d4;fill-opacity:1;fill-rule:evenodd;stroke:#3f709c;stroke-width:1.11685836;stroke-linecap:butt;stroke-linejoin:miter;stroke-miterlimit:10;stroke-dasharray:none;stroke-opacity:1"
           id="path1128"
           inkscape:connector-curvature="0" /></g><path
         d="m 126.496,124.56 15.59,49.719 -2.18,0.679 -15.59,-49.718 z m 17.422,47.949 -1.219,7.551 -5.312,-5.5 z"
         style="fill:#000000;fill-opacity:1;fill-rule:nonzero;stroke:none;stroke-width:1.11685836"
         id="path1130"
         inkscape:connector-curvature="0" /><path
         d="m 124.457,124.49 -25.031,56.742 2.082,0.918 25.039,-56.738 z m -26.66,54.769 0.371,7.641 5.891,-4.879 z"
         style="fill:#000000;fill-opacity:1;fill-rule:nonzero;stroke:none;stroke-width:1.11685836"
         id="path1132"
         inkscape:connector-curvature="0" /><path
         d="m 125.898,123.912 67.579,32.148 -0.981,2.059 -67.578,-32.149 z m 67.528,29.597 4.711,6.031 -7.649,0.149 z"
         style="fill:#000000;fill-opacity:1;fill-rule:nonzero;stroke:none;stroke-width:1.11685836"
         id="path1134"
         inkscape:connector-curvature="0" /><path
         d="m 369.215,200.896 c 0.281,-0.211 0.504,-0.461 0.672,-0.75 0.176,-0.293 0.316,-0.699 0.422,-1.219 l 0.203,-1.031 c 0.062,-0.324 0.133,-0.617 0.218,-0.875 0.083,-0.25 0.18,-0.453 0.297,-0.609 0.114,-0.149 0.239,-0.262 0.375,-0.344 0.145,-0.074 0.36,-0.133 0.641,-0.172 l -0.094,-0.438 h -2.437 c -0.188,0.52 -0.356,1.141 -0.5,1.86 l -0.391,1.875 c -0.062,0.312 -0.141,0.578 -0.234,0.797 -0.086,0.226 -0.188,0.398 -0.313,0.515 -0.125,0.125 -0.273,0.203 -0.437,0.235 -0.168,0.039 -0.375,0.062 -0.625,0.062 h -1 l -0.61,-2.781 c -0.054,-0.231 -0.089,-0.414 -0.109,-0.547 -0.023,-0.137 -0.043,-0.281 -0.063,-0.437 -0.011,-0.149 -0.015,-0.278 -0.015,-0.391 0,-0.18 0.023,-0.32 0.078,-0.422 0.062,-0.105 0.148,-0.184 0.266,-0.234 0.125,-0.043 0.328,-0.075 0.609,-0.094 l -0.094,-0.438 h -3.609 l 0.094,0.438 c 0.226,0.031 0.394,0.082 0.5,0.156 0.113,0.082 0.207,0.192 0.281,0.328 0.082,0.145 0.156,0.317 0.219,0.516 0.062,0.207 0.156,0.602 0.281,1.187 l 1.5,6.766 c 0.125,0.582 0.187,1.047 0.187,1.391 0,0.281 -0.07,0.476 -0.203,0.593 -0.125,0.114 -0.344,0.176 -0.656,0.188 l 0.094,0.437 h 3.922 c 0.613,0 1.117,-0.039 1.515,-0.109 0.395,-0.074 0.727,-0.184 1,-0.328 0.281,-0.148 0.516,-0.34 0.703,-0.578 0.188,-0.231 0.328,-0.492 0.422,-0.781 0.094,-0.282 0.141,-0.59 0.141,-0.922 0,-0.907 -0.277,-1.68 -0.828,-2.313 -0.555,-0.625 -1.36,-1.105 -2.422,-1.437 z m -2,0.656 c 0.851,0 1.523,0.113 2.015,0.344 0.489,0.227 0.879,0.602 1.172,1.125 0.289,0.519 0.438,1.082 0.438,1.687 0,0.258 -0.027,0.485 -0.078,0.672 -0.043,0.196 -0.106,0.36 -0.188,0.485 -0.074,0.133 -0.172,0.25 -0.297,0.343 -0.117,0.102 -0.261,0.192 -0.437,0.266 -0.168,0.07 -0.371,0.125 -0.61,0.156 -0.23,0.032 -0.542,0.047 -0.937,0.047 -0.313,0 -0.641,-0.012 -0.984,-0.031 l -1.125,-5.094 z"
         style="fill:#000000;fill-opacity:1;fill-rule:nonzero;stroke:none;stroke-width:1.11685836"
         id="path1136"
         inkscape:connector-curvature="0" /><path
         d="m 377.438,199.974 -0.063,-0.406 c -0.406,-0.031 -0.609,-0.203 -0.609,-0.516 0,-0.125 0.019,-0.281 0.062,-0.469 0.051,-0.187 0.113,-0.386 0.188,-0.593 0.082,-0.2 0.172,-0.414 0.265,-0.641 0.094,-0.219 0.18,-0.43 0.266,-0.625 0.219,0.238 0.43,0.484 0.641,0.734 0.218,0.258 0.414,0.5 0.593,0.719 0.188,0.227 0.332,0.43 0.438,0.61 0.113,0.175 0.172,0.316 0.172,0.421 0,0.102 -0.039,0.188 -0.11,0.25 -0.062,0.063 -0.183,0.098 -0.359,0.11 l 0.078,0.406 h 2.531 l -0.093,-0.406 c -0.125,-0.031 -0.247,-0.09 -0.36,-0.172 -0.117,-0.074 -0.246,-0.184 -0.39,-0.328 -0.086,-0.074 -0.188,-0.18 -0.313,-0.313 -0.125,-0.136 -0.266,-0.289 -0.422,-0.453 -0.148,-0.168 -0.308,-0.351 -0.484,-0.547 -0.18,-0.187 -0.36,-0.386 -0.547,-0.593 -0.18,-0.2 -0.356,-0.399 -0.531,-0.594 -0.18,-0.199 -0.352,-0.387 -0.516,-0.563 l 1,-2.39 c 0.125,-0.282 0.223,-0.512 0.297,-0.688 0.07,-0.168 0.144,-0.308 0.219,-0.422 0.07,-0.105 0.156,-0.183 0.25,-0.234 0.093,-0.055 0.218,-0.102 0.375,-0.141 l -0.078,-0.39 h -2.735 l 0.078,0.39 c 0.188,0.032 0.332,0.082 0.438,0.157 0.101,0.07 0.156,0.179 0.156,0.328 0,0.175 -0.031,0.367 -0.094,0.578 -0.062,0.207 -0.136,0.422 -0.218,0.64 -0.086,0.227 -0.18,0.454 -0.282,0.672 -0.093,0.227 -0.183,0.446 -0.265,0.657 l -1.453,-1.672 c -0.118,-0.137 -0.215,-0.258 -0.297,-0.36 -0.075,-0.093 -0.133,-0.179 -0.172,-0.25 -0.043,-0.074 -0.074,-0.14 -0.094,-0.203 -0.023,-0.054 -0.031,-0.105 -0.031,-0.156 0,-0.117 0.035,-0.203 0.109,-0.266 0.082,-0.062 0.207,-0.105 0.375,-0.125 l -0.078,-0.39 h -2.531 l 0.094,0.39 c 0.062,0.02 0.117,0.039 0.171,0.063 0.063,0.019 0.125,0.047 0.188,0.078 0.062,0.039 0.125,0.086 0.187,0.141 0.063,0.05 0.129,0.117 0.204,0.203 l 2.968,3.265 -0.984,2.422 c -0.106,0.27 -0.199,0.485 -0.281,0.641 -0.086,0.156 -0.164,0.273 -0.235,0.359 -0.074,0.094 -0.152,0.156 -0.234,0.188 -0.086,0.031 -0.184,0.054 -0.297,0.078 l 0.078,0.406 z"
         style="fill:#000000;fill-opacity:1;fill-rule:nonzero;stroke:none;stroke-width:1.11685836"
         id="path1138"
         inkscape:connector-curvature="0" /><path
         d="m 385.957,199.912 c 0,-2.055 0.328,-3.747 0.984,-5.079 0.657,-1.332 1.661,-2.222 3.016,-2.671 l -0.203,-0.672 c -1.719,0.449 -3.039,1.418 -3.953,2.906 -0.918,1.488 -1.375,3.297 -1.375,5.422 0,2.113 0.457,3.922 1.375,5.422 0.914,1.5 2.234,2.472 3.953,2.922 l 0.234,-0.672 c -1.375,-0.461 -2.39,-1.344 -3.047,-2.657 -0.656,-1.304 -0.984,-2.945 -0.984,-4.921 z"
         style="fill:#000000;fill-opacity:1;fill-rule:nonzero;stroke:none;stroke-width:1.11685836"
         id="path1140"
         inkscape:connector-curvature="0" /><path
         d="m 396.516,195.333 -0.813,-3.656 h -1.39 l 0.812,3.688 c -2.187,0.207 -3.281,1.133 -3.281,2.781 0,0.437 0.094,1.051 0.281,1.844 l 0.281,1.093 c 0.145,0.582 0.219,1 0.219,1.25 0,0.239 -0.047,0.407 -0.141,0.5 -0.086,0.102 -0.203,0.157 -0.359,0.157 -0.18,0 -0.352,-0.059 -0.516,-0.172 -0.168,-0.117 -0.339,-0.262 -0.515,-0.438 l -0.469,0.485 c 0.438,0.414 0.816,0.707 1.141,0.875 0.32,0.175 0.648,0.265 0.984,0.265 0.438,0 0.77,-0.136 1,-0.406 0.238,-0.262 0.359,-0.641 0.359,-1.141 0,-0.343 -0.074,-0.82 -0.218,-1.421 l -0.313,-1.297 c -0.062,-0.242 -0.121,-0.528 -0.172,-0.86 -0.054,-0.336 -0.078,-0.605 -0.078,-0.812 0,-0.625 0.164,-1.094 0.5,-1.406 0.332,-0.305 0.82,-0.485 1.469,-0.547 l 2.562,11.672 h 1.391 l -2.562,-11.657 c 0.82,0.051 1.539,0.301 2.156,0.75 0.613,0.446 1.086,1.063 1.422,1.844 0.332,0.789 0.5,1.676 0.5,2.656 0,0.688 -0.11,1.368 -0.328,2.047 l 0.109,0.438 h 1.562 c 0.082,-0.43 0.125,-0.93 0.125,-1.5 0,-1.313 -0.234,-2.508 -0.703,-3.578 -0.468,-1.075 -1.136,-1.914 -2,-2.516 -0.867,-0.594 -1.871,-0.906 -3.015,-0.938 z"
         style="fill:#000000;fill-opacity:1;fill-rule:nonzero;stroke:none;stroke-width:1.11685836"
         id="path1142"
         inkscape:connector-curvature="0" /><path
         d="m 407.621,199.912 c 0,1.976 -0.328,3.617 -0.984,4.921 -0.657,1.313 -1.68,2.196 -3.063,2.657 l 0.25,0.672 c 1.707,-0.45 3.02,-1.422 3.938,-2.922 0.914,-1.5 1.375,-3.309 1.375,-5.422 0,-2.125 -0.461,-3.934 -1.375,-5.422 -0.918,-1.488 -2.231,-2.457 -3.938,-2.906 l -0.219,0.672 c 1.352,0.449 2.36,1.339 3.016,2.671 0.664,1.332 1,3.024 1,5.079 z"
         style="fill:#000000;fill-opacity:1;fill-rule:nonzero;stroke:none;stroke-width:1.11685836"
         id="path1144"
         inkscape:connector-curvature="0" /><path
         d="m 154.922,188.177 c 0,-0.117 -0.008,-0.215 -0.016,-0.297 -0.011,-0.074 -0.031,-0.136 -0.062,-0.187 -0.024,-0.055 -0.055,-0.094 -0.094,-0.125 -0.031,-0.024 -0.074,-0.031 -0.125,-0.031 h -6.719 c -0.156,0 -0.281,0.046 -0.375,0.14 -0.093,0.094 -0.14,0.242 -0.14,0.453 v 0.328 c 0,0.071 0.004,0.141 0.015,0.204 0.008,0.062 0.032,0.128 0.063,0.203 0.031,0.07 0.07,0.156 0.125,0.25 0.051,0.093 0.113,0.203 0.187,0.328 l 5.25,8.203 h -5.187 c -0.063,0 -0.117,0.008 -0.156,0.031 -0.043,0.02 -0.079,0.055 -0.11,0.11 -0.023,0.05 -0.039,0.113 -0.047,0.187 -0.011,0.082 -0.015,0.176 -0.015,0.281 0,0.125 0.004,0.223 0.015,0.297 0.008,0.082 0.024,0.149 0.047,0.203 0.031,0.051 0.067,0.086 0.11,0.11 0.039,0.031 0.093,0.047 0.156,0.047 h 6.328 c 0.156,0 0.281,-0.047 0.375,-0.141 0.094,-0.094 0.141,-0.234 0.141,-0.422 v -0.328 c 0,-0.094 -0.012,-0.184 -0.032,-0.266 -0.011,-0.074 -0.031,-0.148 -0.062,-0.218 -0.024,-0.075 -0.059,-0.157 -0.11,-0.25 -0.054,-0.086 -0.121,-0.184 -0.203,-0.297 l -5.218,-8.172 h 5.562 c 0.094,0 0.164,-0.055 0.219,-0.156 0.051,-0.106 0.078,-0.266 0.078,-0.485 z"
         style="fill:#000000;fill-opacity:1;fill-rule:nonzero;stroke:none;stroke-width:1.11685836"
         id="path1146"
         inkscape:connector-curvature="0" /><path
         d="m 158.891,199.115 c 0,-0.18 -0.012,-0.344 -0.032,-0.5 -0.023,-0.149 -0.054,-0.289 -0.093,-0.422 -0.043,-0.137 -0.094,-0.274 -0.157,-0.406 -0.062,-0.125 -0.148,-0.262 -0.25,-0.407 l -1.203,-1.812 c -0.031,-0.043 -0.07,-0.086 -0.109,-0.125 -0.031,-0.031 -0.078,-0.059 -0.141,-0.078 -0.054,-0.012 -0.117,-0.024 -0.187,-0.032 -0.074,-0.011 -0.168,-0.015 -0.281,-0.015 -0.094,0 -0.18,0.004 -0.25,0.015 -0.063,0.008 -0.11,0.02 -0.141,0.032 -0.031,0.019 -0.047,0.047 -0.047,0.078 0,0.039 0.008,0.086 0.031,0.14 l 1.172,2.422 v 1.11 c 0,0.156 0.016,0.281 0.047,0.375 0.031,0.093 0.078,0.164 0.141,0.218 0.07,0.051 0.16,0.086 0.265,0.11 0.114,0.019 0.242,0.031 0.391,0.031 0.144,0 0.269,-0.012 0.375,-0.031 0.113,-0.024 0.203,-0.059 0.266,-0.11 0.07,-0.054 0.125,-0.125 0.156,-0.218 0.031,-0.094 0.047,-0.219 0.047,-0.375 z"
         style="fill:#000000;fill-opacity:1;fill-rule:nonzero;stroke:none;stroke-width:1.11685836"
         id="path1148"
         inkscape:connector-curvature="0" /><path
         d="m 163.336,199.115 c 0,-0.18 -0.012,-0.344 -0.031,-0.5 -0.024,-0.149 -0.055,-0.289 -0.094,-0.422 -0.043,-0.137 -0.094,-0.274 -0.156,-0.406 -0.063,-0.125 -0.149,-0.262 -0.25,-0.407 l -1.203,-1.812 c -0.032,-0.043 -0.071,-0.086 -0.11,-0.125 -0.031,-0.031 -0.078,-0.059 -0.14,-0.078 -0.055,-0.012 -0.118,-0.024 -0.188,-0.032 -0.074,-0.011 -0.168,-0.015 -0.281,-0.015 -0.094,0 -0.18,0.004 -0.25,0.015 -0.063,0.008 -0.11,0.02 -0.141,0.032 -0.031,0.019 -0.047,0.047 -0.047,0.078 0,0.039 0.008,0.086 0.032,0.14 l 1.171,2.422 v 1.11 c 0,0.156 0.016,0.281 0.047,0.375 0.032,0.093 0.078,0.164 0.141,0.218 0.07,0.051 0.16,0.086 0.266,0.11 0.113,0.019 0.242,0.031 0.39,0.031 0.145,0 0.27,-0.012 0.375,-0.031 0.113,-0.024 0.203,-0.059 0.266,-0.11 0.07,-0.054 0.125,-0.125 0.156,-0.218 0.031,-0.094 0.047,-0.219 0.047,-0.375 z"
         style="fill:#000000;fill-opacity:1;fill-rule:nonzero;stroke:none;stroke-width:1.11685836"
         id="path1150"
         inkscape:connector-curvature="0" /><path
         d="m 167.781,199.115 c 0,-0.18 -0.011,-0.344 -0.031,-0.5 -0.023,-0.149 -0.055,-0.289 -0.094,-0.422 -0.043,-0.137 -0.093,-0.274 -0.156,-0.406 -0.062,-0.125 -0.148,-0.262 -0.25,-0.407 l -1.203,-1.812 c -0.031,-0.043 -0.07,-0.086 -0.109,-0.125 -0.032,-0.031 -0.079,-0.059 -0.141,-0.078 -0.055,-0.012 -0.117,-0.024 -0.188,-0.032 -0.074,-0.011 -0.168,-0.015 -0.281,-0.015 -0.094,0 -0.18,0.004 -0.25,0.015 -0.062,0.008 -0.109,0.02 -0.14,0.032 -0.032,0.019 -0.047,0.047 -0.047,0.078 0,0.039 0.007,0.086 0.031,0.14 l 1.172,2.422 v 1.11 c 0,0.156 0.015,0.281 0.047,0.375 0.031,0.093 0.078,0.164 0.14,0.218 0.071,0.051 0.16,0.086 0.266,0.11 0.113,0.019 0.242,0.031 0.391,0.031 0.144,0 0.269,-0.012 0.375,-0.031 0.113,-0.024 0.203,-0.059 0.265,-0.11 0.07,-0.054 0.125,-0.125 0.156,-0.218 0.032,-0.094 0.047,-0.219 0.047,-0.375 z"
         style="fill:#000000;fill-opacity:1;fill-rule:nonzero;stroke:none;stroke-width:1.11685836"
         id="path1152"
         inkscape:connector-curvature="0" /><path
         d="m 95.48,194.947 c 0.083,-0.125 0.129,-0.231 0.141,-0.313 0.008,-0.074 -0.012,-0.136 -0.062,-0.187 -0.055,-0.043 -0.141,-0.067 -0.266,-0.078 -0.117,-0.008 -0.273,-0.016 -0.469,-0.016 -0.187,0 -0.336,0.008 -0.437,0.016 -0.106,0 -0.188,0.011 -0.25,0.031 -0.063,0.031 -0.11,0.062 -0.141,0.094 -0.031,0.031 -0.058,0.07 -0.078,0.125 l -2.531,4.531 -2.563,-4.531 c -0.031,-0.055 -0.07,-0.102 -0.109,-0.141 -0.031,-0.031 -0.078,-0.059 -0.141,-0.078 -0.054,-0.02 -0.136,-0.031 -0.25,-0.031 -0.105,-0.008 -0.246,-0.016 -0.422,-0.016 -0.187,0 -0.339,0.008 -0.453,0.016 -0.117,0.011 -0.195,0.035 -0.234,0.078 -0.043,0.051 -0.059,0.113 -0.047,0.187 0.02,0.082 0.066,0.188 0.141,0.313 l 3.109,5.234 -2.969,5.047 c -0.074,0.125 -0.121,0.227 -0.14,0.312 -0.024,0.083 -0.012,0.145 0.031,0.188 0.051,0.039 0.133,0.066 0.25,0.078 0.125,0.008 0.289,0.016 0.5,0.016 0.176,0 0.316,-0.008 0.422,-0.016 0.113,0 0.203,-0.012 0.265,-0.031 0.063,-0.024 0.11,-0.055 0.141,-0.094 0.031,-0.043 0.062,-0.086 0.094,-0.125 l 2.453,-4.25 2.422,4.25 c 0.031,0.039 0.054,0.082 0.078,0.125 0.031,0.039 0.07,0.07 0.125,0.094 0.062,0.019 0.14,0.031 0.234,0.031 0.102,0.008 0.239,0.016 0.406,0.016 0.188,0 0.336,-0.012 0.454,-0.032 0.113,-0.011 0.191,-0.039 0.234,-0.078 0.051,-0.031 0.07,-0.089 0.062,-0.172 -0.011,-0.085 -0.054,-0.187 -0.125,-0.312 l -2.953,-5.016 z"
         style="fill:#000000;fill-opacity:1;fill-rule:nonzero;stroke:none;stroke-width:1.11685836"
         id="path1154"
         inkscape:connector-curvature="0" /><path
         d="m 99.23,205.978 c 0,-0.18 -0.011,-0.344 -0.031,-0.5 -0.023,-0.148 -0.054,-0.289 -0.094,-0.422 -0.042,-0.137 -0.093,-0.273 -0.156,-0.406 -0.062,-0.125 -0.148,-0.262 -0.25,-0.406 l -1.203,-1.813 c -0.031,-0.043 -0.07,-0.086 -0.109,-0.125 -0.032,-0.031 -0.078,-0.058 -0.141,-0.078 -0.055,-0.012 -0.117,-0.023 -0.187,-0.031 -0.075,-0.012 -0.168,-0.016 -0.282,-0.016 -0.093,0 -0.179,0.004 -0.25,0.016 -0.062,0.008 -0.109,0.019 -0.14,0.031 -0.032,0.02 -0.047,0.047 -0.047,0.078 0,0.039 0.008,0.086 0.031,0.141 l 1.172,2.422 v 1.109 c 0,0.156 0.016,0.281 0.047,0.375 0.031,0.094 0.078,0.164 0.14,0.219 0.071,0.051 0.161,0.086 0.266,0.109 0.113,0.02 0.242,0.031 0.391,0.031 0.144,0 0.269,-0.011 0.375,-0.031 0.113,-0.023 0.203,-0.058 0.265,-0.109 0.071,-0.055 0.125,-0.125 0.157,-0.219 0.031,-0.094 0.046,-0.219 0.046,-0.375 z"
         style="fill:#000000;fill-opacity:1;fill-rule:nonzero;stroke:none;stroke-width:1.11685836"
         id="path1156"
         inkscape:connector-curvature="0" /><path
         d="m 103.676,205.978 c 0,-0.18 -0.012,-0.344 -0.031,-0.5 -0.024,-0.148 -0.055,-0.289 -0.094,-0.422 -0.043,-0.137 -0.094,-0.273 -0.156,-0.406 -0.063,-0.125 -0.149,-0.262 -0.25,-0.406 l -1.204,-1.813 c -0.031,-0.043 -0.07,-0.086 -0.109,-0.125 -0.031,-0.031 -0.078,-0.058 -0.141,-0.078 -0.054,-0.012 -0.117,-0.023 -0.187,-0.031 -0.074,-0.012 -0.168,-0.016 -0.281,-0.016 -0.094,0 -0.18,0.004 -0.25,0.016 -0.063,0.008 -0.11,0.019 -0.141,0.031 -0.031,0.02 -0.047,0.047 -0.047,0.078 0,0.039 0.008,0.086 0.031,0.141 l 1.172,2.422 v 1.109 c 0,0.156 0.016,0.281 0.047,0.375 0.031,0.094 0.078,0.164 0.141,0.219 0.07,0.051 0.16,0.086 0.265,0.109 0.114,0.02 0.243,0.031 0.391,0.031 0.145,0 0.27,-0.011 0.375,-0.031 0.113,-0.023 0.203,-0.058 0.266,-0.109 0.07,-0.055 0.125,-0.125 0.156,-0.219 0.031,-0.094 0.047,-0.219 0.047,-0.375 z"
         style="fill:#000000;fill-opacity:1;fill-rule:nonzero;stroke:none;stroke-width:1.11685836"
         id="path1158"
         inkscape:connector-curvature="0" /><path
         d="m 108.121,205.978 c 0,-0.18 -0.012,-0.344 -0.031,-0.5 -0.024,-0.148 -0.055,-0.289 -0.094,-0.422 -0.043,-0.137 -0.094,-0.273 -0.156,-0.406 -0.063,-0.125 -0.149,-0.262 -0.25,-0.406 l -1.203,-1.813 c -0.032,-0.043 -0.071,-0.086 -0.11,-0.125 -0.031,-0.031 -0.078,-0.058 -0.14,-0.078 -0.055,-0.012 -0.117,-0.023 -0.188,-0.031 -0.074,-0.012 -0.168,-0.016 -0.281,-0.016 -0.094,0 -0.18,0.004 -0.25,0.016 -0.063,0.008 -0.109,0.019 -0.141,0.031 -0.031,0.02 -0.047,0.047 -0.047,0.078 0,0.039 0.008,0.086 0.032,0.141 l 1.172,2.422 v 1.109 c 0,0.156 0.015,0.281 0.046,0.375 0.032,0.094 0.079,0.164 0.141,0.219 0.07,0.051 0.16,0.086 0.266,0.109 0.113,0.02 0.242,0.031 0.39,0.031 0.145,0 0.27,-0.011 0.375,-0.031 0.114,-0.023 0.203,-0.058 0.266,-0.109 0.07,-0.055 0.125,-0.125 0.156,-0.219 0.031,-0.094 0.047,-0.219 0.047,-0.375 z"
         style="fill:#000000;fill-opacity:1;fill-rule:nonzero;stroke:none;stroke-width:1.11685836"
         id="path1160"
         inkscape:connector-curvature="0" /><path
         d="m 208.559,166.419 v -4.187 c 0,-0.055 -0.012,-0.102 -0.032,-0.141 -0.023,-0.031 -0.062,-0.058 -0.125,-0.078 -0.062,-0.019 -0.148,-0.035 -0.25,-0.047 -0.093,-0.008 -0.211,-0.015 -0.343,-0.015 -0.149,0 -0.274,0.007 -0.375,0.015 -0.094,0.012 -0.172,0.028 -0.235,0.047 -0.062,0.02 -0.105,0.047 -0.125,0.078 -0.023,0.039 -0.031,0.086 -0.031,0.141 v 4.187 l -3.219,6.422 c -0.062,0.133 -0.105,0.239 -0.125,0.313 -0.011,0.07 0.004,0.129 0.047,0.172 0.039,0.039 0.117,0.066 0.234,0.078 0.114,0.008 0.27,0.015 0.469,0.015 0.176,0 0.317,-0.007 0.422,-0.015 0.113,-0.012 0.203,-0.028 0.266,-0.047 0.062,-0.024 0.109,-0.055 0.14,-0.094 0.032,-0.031 0.063,-0.078 0.094,-0.14 l 1.578,-3.266 c 0.145,-0.313 0.289,-0.641 0.438,-0.984 0.144,-0.336 0.289,-0.672 0.437,-1.016 h 0.031 c 0.125,0.332 0.258,0.66 0.407,0.984 0.144,0.332 0.289,0.66 0.437,0.985 l 1.578,3.297 c 0.02,0.05 0.047,0.097 0.078,0.14 0.032,0.039 0.071,0.07 0.125,0.094 0.063,0.019 0.141,0.035 0.235,0.047 0.101,0.008 0.234,0.015 0.39,0.015 0.208,0 0.368,-0.011 0.485,-0.031 0.125,-0.012 0.207,-0.039 0.25,-0.078 0.051,-0.031 0.066,-0.09 0.047,-0.172 -0.012,-0.074 -0.047,-0.172 -0.11,-0.297 z"
         style="fill:#000000;fill-opacity:1;fill-rule:nonzero;stroke:none;stroke-width:1.11685836"
         id="path1162"
         inkscape:connector-curvature="0" /><path
         d="m 215.664,173.576 c 0,-0.18 -0.012,-0.344 -0.031,-0.5 -0.024,-0.149 -0.055,-0.289 -0.094,-0.422 -0.043,-0.137 -0.094,-0.274 -0.156,-0.406 -0.063,-0.125 -0.149,-0.262 -0.25,-0.407 l -1.203,-1.812 c -0.032,-0.043 -0.071,-0.086 -0.11,-0.125 -0.031,-0.031 -0.078,-0.059 -0.14,-0.078 -0.055,-0.012 -0.117,-0.024 -0.188,-0.032 -0.074,-0.011 -0.168,-0.015 -0.281,-0.015 -0.094,0 -0.18,0.004 -0.25,0.015 -0.063,0.008 -0.109,0.02 -0.141,0.032 -0.031,0.019 -0.047,0.047 -0.047,0.078 0,0.039 0.008,0.086 0.032,0.14 l 1.172,2.422 v 1.11 c 0,0.156 0.015,0.281 0.046,0.375 0.032,0.093 0.079,0.164 0.141,0.218 0.07,0.051 0.16,0.086 0.266,0.11 0.113,0.019 0.242,0.031 0.39,0.031 0.145,0 0.27,-0.012 0.375,-0.031 0.114,-0.024 0.203,-0.059 0.266,-0.11 0.07,-0.054 0.125,-0.125 0.156,-0.218 0.031,-0.094 0.047,-0.219 0.047,-0.375 z"
         style="fill:#000000;fill-opacity:1;fill-rule:nonzero;stroke:none;stroke-width:1.11685836"
         id="path1164"
         inkscape:connector-curvature="0" /><path
         d="m 220.109,173.576 c 0,-0.18 -0.011,-0.344 -0.031,-0.5 -0.023,-0.149 -0.055,-0.289 -0.094,-0.422 -0.043,-0.137 -0.093,-0.274 -0.156,-0.406 -0.062,-0.125 -0.148,-0.262 -0.25,-0.407 l -1.203,-1.812 c -0.031,-0.043 -0.07,-0.086 -0.109,-0.125 -0.032,-0.031 -0.078,-0.059 -0.141,-0.078 -0.055,-0.012 -0.117,-0.024 -0.187,-0.032 -0.075,-0.011 -0.168,-0.015 -0.282,-0.015 -0.093,0 -0.179,0.004 -0.25,0.015 -0.062,0.008 -0.109,0.02 -0.14,0.032 -0.032,0.019 -0.047,0.047 -0.047,0.078 0,0.039 0.008,0.086 0.031,0.14 l 1.172,2.422 v 1.11 c 0,0.156 0.016,0.281 0.047,0.375 0.031,0.093 0.078,0.164 0.14,0.218 0.071,0.051 0.161,0.086 0.266,0.11 0.113,0.019 0.242,0.031 0.391,0.031 0.144,0 0.269,-0.012 0.375,-0.031 0.113,-0.024 0.203,-0.059 0.265,-0.11 0.071,-0.054 0.125,-0.125 0.157,-0.218 0.031,-0.094 0.046,-0.219 0.046,-0.375 z"
         style="fill:#000000;fill-opacity:1;fill-rule:nonzero;stroke:none;stroke-width:1.11685836"
         id="path1166"
         inkscape:connector-curvature="0" /><path
         d="m 224.555,173.576 c 0,-0.18 -0.012,-0.344 -0.032,-0.5 -0.023,-0.149 -0.054,-0.289 -0.093,-0.422 -0.043,-0.137 -0.094,-0.274 -0.157,-0.406 -0.062,-0.125 -0.148,-0.262 -0.25,-0.407 l -1.203,-1.812 c -0.031,-0.043 -0.07,-0.086 -0.109,-0.125 -0.031,-0.031 -0.078,-0.059 -0.141,-0.078 -0.054,-0.012 -0.117,-0.024 -0.187,-0.032 -0.074,-0.011 -0.168,-0.015 -0.281,-0.015 -0.094,0 -0.18,0.004 -0.25,0.015 -0.063,0.008 -0.11,0.02 -0.141,0.032 -0.031,0.019 -0.047,0.047 -0.047,0.078 0,0.039 0.008,0.086 0.031,0.14 l 1.172,2.422 v 1.11 c 0,0.156 0.016,0.281 0.047,0.375 0.031,0.093 0.078,0.164 0.141,0.218 0.07,0.051 0.16,0.086 0.265,0.11 0.114,0.019 0.243,0.031 0.391,0.031 0.144,0 0.269,-0.012 0.375,-0.031 0.113,-0.024 0.203,-0.059 0.266,-0.11 0.07,-0.054 0.125,-0.125 0.156,-0.218 0.031,-0.094 0.047,-0.219 0.047,-0.375 z"
         style="fill:#000000;fill-opacity:1;fill-rule:nonzero;stroke:none;stroke-width:1.11685836"
         id="path1168"
         inkscape:connector-curvature="0" /><path
         d="m 552.188,200.896 c 0.281,-0.211 0.503,-0.461 0.671,-0.75 0.176,-0.293 0.317,-0.699 0.422,-1.219 l 0.203,-1.031 c 0.063,-0.324 0.133,-0.617 0.219,-0.875 0.082,-0.25 0.18,-0.453 0.297,-0.609 0.113,-0.149 0.238,-0.262 0.375,-0.344 0.145,-0.074 0.359,-0.133 0.641,-0.172 l -0.094,-0.438 h -2.438 c -0.187,0.52 -0.355,1.141 -0.5,1.86 l -0.39,1.875 c -0.063,0.312 -0.141,0.578 -0.235,0.797 -0.086,0.226 -0.187,0.398 -0.312,0.515 -0.125,0.125 -0.274,0.203 -0.438,0.235 -0.168,0.039 -0.375,0.062 -0.625,0.062 h -1 l -0.609,-2.781 c -0.055,-0.231 -0.09,-0.414 -0.109,-0.547 -0.024,-0.137 -0.043,-0.281 -0.063,-0.437 -0.012,-0.149 -0.015,-0.278 -0.015,-0.391 0,-0.18 0.023,-0.32 0.078,-0.422 0.062,-0.105 0.148,-0.184 0.265,-0.234 0.125,-0.043 0.328,-0.075 0.61,-0.094 l -0.094,-0.438 h -3.609 l 0.093,0.438 c 0.227,0.031 0.395,0.082 0.5,0.156 0.114,0.082 0.207,0.192 0.282,0.328 0.082,0.145 0.156,0.317 0.218,0.516 0.063,0.207 0.157,0.602 0.282,1.187 l 1.5,6.766 c 0.125,0.582 0.187,1.047 0.187,1.391 0,0.281 -0.07,0.476 -0.203,0.593 -0.125,0.114 -0.344,0.176 -0.656,0.188 l 0.093,0.437 h 3.922 c 0.614,0 1.117,-0.039 1.516,-0.109 0.394,-0.074 0.726,-0.184 1,-0.328 0.281,-0.148 0.516,-0.34 0.703,-0.578 0.188,-0.231 0.328,-0.492 0.422,-0.781 0.094,-0.282 0.141,-0.59 0.141,-0.922 0,-0.907 -0.278,-1.68 -0.829,-2.313 -0.554,-0.625 -1.359,-1.105 -2.421,-1.437 z m -2,0.656 c 0.851,0 1.523,0.113 2.015,0.344 0.488,0.227 0.879,0.602 1.172,1.125 0.289,0.519 0.438,1.082 0.438,1.687 0,0.258 -0.028,0.485 -0.079,0.672 -0.043,0.196 -0.105,0.36 -0.187,0.485 -0.074,0.133 -0.172,0.25 -0.297,0.343 -0.117,0.102 -0.262,0.192 -0.437,0.266 -0.168,0.07 -0.372,0.125 -0.61,0.156 -0.23,0.032 -0.543,0.047 -0.937,0.047 -0.313,0 -0.641,-0.012 -0.985,-0.031 l -1.125,-5.094 z"
         style="fill:#000000;fill-opacity:1;fill-rule:nonzero;stroke:none;stroke-width:1.11685836"
         id="path1170"
         inkscape:connector-curvature="0" /><path
         d="m 559.379,199.974 -0.094,-0.406 c -0.199,0 -0.34,-0.043 -0.422,-0.125 -0.074,-0.086 -0.109,-0.195 -0.109,-0.328 0,-0.137 0.031,-0.328 0.094,-0.578 0.062,-0.243 0.132,-0.512 0.218,-0.813 0.094,-0.293 0.192,-0.594 0.297,-0.906 0.114,-0.305 0.211,-0.586 0.297,-0.844 l 1.531,1.891 c 0.164,0.207 0.301,0.379 0.407,0.515 0.101,0.145 0.179,0.27 0.234,0.375 0.063,0.102 0.098,0.188 0.109,0.25 0.02,0.071 0.032,0.145 0.032,0.219 0,0.219 -0.168,0.332 -0.5,0.344 l 0.078,0.406 h 2.547 l -0.078,-0.406 c -0.149,-0.024 -0.29,-0.07 -0.422,-0.141 -0.086,-0.054 -0.2,-0.156 -0.344,-0.312 -0.149,-0.157 -0.324,-0.352 -0.531,-0.578 -0.2,-0.219 -0.414,-0.477 -0.641,-0.766 -0.23,-0.281 -0.469,-0.574 -0.719,-0.875 -0.242,-0.293 -0.484,-0.59 -0.734,-0.891 -0.242,-0.293 -0.465,-0.57 -0.672,-0.828 -0.055,-0.219 -0.109,-0.461 -0.172,-0.719 -0.055,-0.25 -0.105,-0.496 -0.156,-0.734 -0.055,-0.23 -0.094,-0.445 -0.125,-0.641 -0.031,-0.187 -0.047,-0.335 -0.047,-0.437 0,-0.086 0.008,-0.156 0.031,-0.219 0.02,-0.062 0.055,-0.117 0.11,-0.156 0.05,-0.043 0.125,-0.074 0.218,-0.094 0.094,-0.023 0.219,-0.039 0.375,-0.047 l -0.093,-0.39 h -2.813 l 0.078,0.39 c 0.125,0.032 0.227,0.055 0.313,0.078 0.094,0.032 0.172,0.079 0.234,0.141 0.063,0.07 0.117,0.164 0.172,0.281 0.051,0.114 0.102,0.282 0.156,0.5 0.063,0.219 0.125,0.493 0.188,0.828 0.07,0.332 0.164,0.743 0.281,1.235 l -1,3 c -0.086,0.258 -0.164,0.472 -0.234,0.64 -0.075,0.176 -0.149,0.317 -0.219,0.422 -0.074,0.102 -0.156,0.176 -0.25,0.219 -0.086,0.051 -0.195,0.082 -0.328,0.094 l 0.094,0.406 z"
         style="fill:#000000;fill-opacity:1;fill-rule:nonzero;stroke:none;stroke-width:1.11685836"
         id="path1172"
         inkscape:connector-curvature="0" /><path
         d="m 568.566,199.912 c 0,-2.055 0.329,-3.747 0.985,-5.079 0.656,-1.332 1.66,-2.222 3.015,-2.671 l -0.203,-0.672 c -1.718,0.449 -3.039,1.418 -3.953,2.906 -0.918,1.488 -1.375,3.297 -1.375,5.422 0,2.113 0.457,3.922 1.375,5.422 0.914,1.5 2.235,2.472 3.953,2.922 l 0.235,-0.672 c -1.375,-0.461 -2.391,-1.344 -3.047,-2.657 -0.656,-1.304 -0.985,-2.945 -0.985,-4.921 z"
         style="fill:#000000;fill-opacity:1;fill-rule:nonzero;stroke:none;stroke-width:1.11685836"
         id="path1174"
         inkscape:connector-curvature="0" /><path
         d="m 576.504,195.318 c -0.875,0 -1.527,0.265 -1.953,0.797 -0.43,0.531 -0.641,1.332 -0.641,2.406 0,0.57 0.063,1.285 0.188,2.141 0.125,0.851 0.332,1.722 0.625,2.609 0.3,0.883 0.687,1.672 1.156,2.359 0.469,0.688 1.004,1.219 1.609,1.594 0.602,0.375 1.258,0.563 1.969,0.563 1.695,0 2.547,-1.079 2.547,-3.235 0,-0.617 -0.07,-1.344 -0.203,-2.187 -0.137,-0.844 -0.356,-1.711 -0.656,-2.594 -0.293,-0.875 -0.668,-1.652 -1.125,-2.328 -0.461,-0.68 -0.993,-1.203 -1.594,-1.578 -0.594,-0.367 -1.235,-0.547 -1.922,-0.547 z m -0.547,6.719 h 4.219 c 0.269,1.238 0.406,2.304 0.406,3.203 0,0.613 -0.102,1.07 -0.297,1.375 -0.199,0.3 -0.512,0.453 -0.937,0.453 -0.68,0 -1.309,-0.434 -1.891,-1.297 -0.586,-0.867 -1.086,-2.109 -1.5,-3.734 z m 4.016,-0.891 h -4.219 c -0.281,-1.273 -0.422,-2.34 -0.422,-3.203 0,-0.656 0.098,-1.141 0.297,-1.453 0.207,-0.305 0.531,-0.453 0.969,-0.453 0.656,0 1.273,0.437 1.859,1.312 0.594,0.883 1.098,2.149 1.516,3.797 z"
         style="fill:#000000;fill-opacity:1;fill-rule:nonzero;stroke:none;stroke-width:1.11685836"
         id="path1176"
         inkscape:connector-curvature="0" /><path
         d="m 587.949,199.912 c 0,1.976 -0.328,3.617 -0.984,4.921 -0.656,1.313 -1.68,2.196 -3.063,2.657 l 0.25,0.672 c 1.707,-0.45 3.02,-1.422 3.938,-2.922 0.914,-1.5 1.375,-3.309 1.375,-5.422 0,-2.125 -0.461,-3.934 -1.375,-5.422 -0.918,-1.488 -2.231,-2.457 -3.938,-2.906 l -0.218,0.672 c 1.351,0.449 2.359,1.339 3.015,2.671 0.664,1.332 1,3.024 1,5.079 z"
         style="fill:#000000;fill-opacity:1;fill-rule:nonzero;stroke:none;stroke-width:1.11685836"
         id="path1178"
         inkscape:connector-curvature="0" /><path
         d="m 716.156,200.896 c 0.282,-0.211 0.504,-0.461 0.672,-0.75 0.176,-0.293 0.317,-0.699 0.422,-1.219 l 0.203,-1.031 c 0.063,-0.324 0.133,-0.617 0.219,-0.875 0.082,-0.25 0.18,-0.453 0.297,-0.609 0.113,-0.149 0.238,-0.262 0.375,-0.344 0.144,-0.074 0.359,-0.133 0.64,-0.172 l -0.093,-0.438 h -2.438 c -0.187,0.52 -0.355,1.141 -0.5,1.86 l -0.39,1.875 c -0.063,0.312 -0.141,0.578 -0.235,0.797 -0.086,0.226 -0.187,0.398 -0.312,0.515 -0.125,0.125 -0.274,0.203 -0.438,0.235 -0.168,0.039 -0.375,0.062 -0.625,0.062 h -1 l -0.609,-2.781 c -0.055,-0.231 -0.09,-0.414 -0.11,-0.547 -0.023,-0.137 -0.043,-0.281 -0.062,-0.437 -0.012,-0.149 -0.016,-0.278 -0.016,-0.391 0,-0.18 0.024,-0.32 0.078,-0.422 0.063,-0.105 0.149,-0.184 0.266,-0.234 0.125,-0.043 0.328,-0.075 0.609,-0.094 l -0.093,-0.438 h -3.61 l 0.094,0.438 c 0.227,0.031 0.395,0.082 0.5,0.156 0.113,0.082 0.207,0.192 0.281,0.328 0.082,0.145 0.157,0.317 0.219,0.516 0.063,0.207 0.156,0.602 0.281,1.187 l 1.5,6.766 c 0.125,0.582 0.188,1.047 0.188,1.391 0,0.281 -0.071,0.476 -0.203,0.593 -0.125,0.114 -0.344,0.176 -0.657,0.188 l 0.094,0.437 h 3.922 c 0.613,0 1.117,-0.039 1.516,-0.109 0.394,-0.074 0.726,-0.184 1,-0.328 0.281,-0.148 0.515,-0.34 0.703,-0.578 0.187,-0.231 0.328,-0.492 0.422,-0.781 0.093,-0.282 0.14,-0.59 0.14,-0.922 0,-0.907 -0.277,-1.68 -0.828,-2.313 -0.555,-0.625 -1.359,-1.105 -2.422,-1.437 z m -2,0.656 c 0.852,0 1.524,0.113 2.016,0.344 0.488,0.227 0.879,0.602 1.172,1.125 0.289,0.519 0.437,1.082 0.437,1.687 0,0.258 -0.027,0.485 -0.078,0.672 -0.043,0.196 -0.105,0.36 -0.187,0.485 -0.075,0.133 -0.172,0.25 -0.297,0.343 -0.117,0.102 -0.262,0.192 -0.438,0.266 -0.168,0.07 -0.371,0.125 -0.609,0.156 -0.231,0.032 -0.543,0.047 -0.938,0.047 -0.312,0 -0.64,-0.012 -0.984,-0.031 l -1.125,-5.094 z"
         style="fill:#000000;fill-opacity:1;fill-rule:nonzero;stroke:none;stroke-width:1.11685836"
         id="path1180"
         inkscape:connector-curvature="0" /><path
         d="m 722.066,192.412 h 2.11 c 0.219,0 0.406,0.019 0.562,0.062 0.157,0.051 0.301,0.133 0.438,0.25 0.133,0.113 0.265,0.274 0.39,0.484 0.133,0.219 0.282,0.493 0.438,0.829 h 0.687 l -0.5,-2.297 h -5.89 l 0.094,0.422 5.75,7.125 h -2 c -0.188,0 -0.352,-0.012 -0.485,-0.032 -0.137,-0.011 -0.265,-0.062 -0.39,-0.156 -0.125,-0.094 -0.258,-0.246 -0.391,-0.453 -0.137,-0.199 -0.293,-0.477 -0.469,-0.828 h -0.703 l 0.469,2.156 h 5.781 l -0.109,-0.406 z"
         style="fill:#000000;fill-opacity:1;fill-rule:nonzero;stroke:none;stroke-width:1.11685836"
         id="path1182"
         inkscape:connector-curvature="0" /><path
         d="m 732.414,199.912 c 0,-2.055 0.328,-3.747 0.984,-5.079 0.657,-1.332 1.661,-2.222 3.016,-2.671 l -0.203,-0.672 c -1.719,0.449 -3.039,1.418 -3.953,2.906 -0.918,1.488 -1.375,3.297 -1.375,5.422 0,2.113 0.457,3.922 1.375,5.422 0.914,1.5 2.234,2.472 3.953,2.922 l 0.234,-0.672 c -1.375,-0.461 -2.39,-1.344 -3.047,-2.657 -0.656,-1.304 -0.984,-2.945 -0.984,-4.921 z"
         style="fill:#000000;fill-opacity:1;fill-rule:nonzero;stroke:none;stroke-width:1.11685836"
         id="path1184"
         inkscape:connector-curvature="0" /><path
         d="m 742.742,195.333 -0.797,-3.656 h -1.39 l 0.797,3.656 c -1.157,0.094 -2.047,0.442 -2.672,1.047 -0.625,0.602 -0.938,1.426 -0.938,2.469 0,0.883 0.227,1.719 0.688,2.5 0.457,0.789 1.093,1.426 1.906,1.906 0.82,0.489 1.805,0.739 2.953,0.75 l 0.813,3.782 h 1.39 l -0.828,-3.782 c 1.188,-0.086 2.086,-0.429 2.703,-1.031 0.613,-0.605 0.922,-1.422 0.922,-2.453 0,-0.781 -0.141,-1.492 -0.422,-2.125 -0.273,-0.637 -0.672,-1.195 -1.203,-1.672 -0.531,-0.48 -1.101,-0.836 -1.703,-1.062 -0.606,-0.219 -1.344,-0.329 -2.219,-0.329 z m 1.766,7.969 -1.61,-7.25 c 0.719,0.031 1.368,0.242 1.954,0.641 0.593,0.394 1.054,0.93 1.39,1.609 0.332,0.688 0.5,1.426 0.5,2.219 0,0.469 -0.086,0.906 -0.25,1.312 -0.168,0.407 -0.422,0.739 -0.765,1 -0.344,0.27 -0.75,0.426 -1.219,0.469 z m -1.391,-0.015 c -1.043,-0.055 -1.945,-0.5 -2.703,-1.344 -0.75,-0.844 -1.125,-1.887 -1.125,-3.125 0,-0.762 0.195,-1.403 0.594,-1.922 0.406,-0.512 0.953,-0.797 1.64,-0.859 z"
         style="fill:#000000;fill-opacity:1;fill-rule:nonzero;stroke:none;stroke-width:1.11685836"
         id="path1186"
         inkscape:connector-curvature="0" /><path
         d="m 753.84,199.912 c 0,1.976 -0.328,3.617 -0.985,4.921 -0.656,1.313 -1.679,2.196 -3.062,2.657 l 0.25,0.672 c 1.707,-0.45 3.02,-1.422 3.937,-2.922 0.915,-1.5 1.375,-3.309 1.375,-5.422 0,-2.125 -0.46,-3.934 -1.375,-5.422 -0.917,-1.488 -2.23,-2.457 -3.937,-2.906 l -0.219,0.672 c 1.352,0.449 2.36,1.339 3.016,2.671 0.664,1.332 1,3.024 1,5.079 z"
         style="fill:#000000;fill-opacity:1;fill-rule:nonzero;stroke:none;stroke-width:1.11685836"
         id="path1188"
         inkscape:connector-curvature="0" /><g
         id="g1190"
         transform="matrix(1,0,0,-1,0,208.16159)"
         style="stroke-width:1.11685836"><path
           d="m 144.418,108.543 c 1.828,-1.141 11.711,0.828 15.949,2.289 1.961,2.598 3.481,3.488 4.942,6.469 -3.86,0.32 -10.512,0.25 -15.961,0.379 -2.782,-1.399 -6.77,-8 -4.93,-9.137 z"
           style="fill:#5999d4;fill-opacity:1;fill-rule:evenodd;stroke:#3f709c;stroke-width:1.07218409;stroke-linecap:butt;stroke-linejoin:miter;stroke-miterlimit:10;stroke-dasharray:none;stroke-opacity:1"
           id="path1192"
           inkscape:connector-curvature="0" /></g></g></g></svg>