<?xml version="1.0" encoding="UTF-8" standalone="no"?>
<svg
   xmlns:dc="http://purl.org/dc/elements/1.1/"
   xmlns:cc="http://creativecommons.org/ns#"
   xmlns:rdf="http://www.w3.org/1999/02/22-rdf-syntax-ns#"
   xmlns:svg="http://www.w3.org/2000/svg"
   xmlns="http://www.w3.org/2000/svg"
   xmlns:sodipodi="http://sodipodi.sourceforge.net/DTD/sodipodi-0.dtd"
   xmlns:inkscape="http://www.inkscape.org/namespaces/inkscape"
   width="1102.3407"
   height="395.00391"
   overflow="hidden"
   version="1.1"
   id="svg227"
   sodipodi:docname="roll_pitch_yaw.svg"
   style="overflow:hidden"
   inkscape:version="0.92.4 (5da689c313, 2019-01-14)">
  <metadata
     id="metadata231">
    <rdf:RDF>
      <cc:Work
         rdf:about="">
        <dc:format>image/svg+xml</dc:format>
        <dc:type
           rdf:resource="http://purl.org/dc/dcmitype/StillImage" />
        <dc:title></dc:title>
      </cc:Work>
    </rdf:RDF>
  </metadata>
  <sodipodi:namedview
     pagecolor="#ffffff"
     bordercolor="#666666"
     borderopacity="1"
     objecttolerance="10"
     gridtolerance="10"
     guidetolerance="10"
     inkscape:pageopacity="0"
     inkscape:pageshadow="2"
     inkscape:window-width="640"
     inkscape:window-height="480"
     id="namedview229"
     showgrid="false"
     fit-margin-top="0"
     fit-margin-left="0"
     fit-margin-right="0"
     fit-margin-bottom="0"
     inkscape:zoom="0.39861111"
     inkscape:cx="149.27234"
     inkscape:cy="168.07031"
     inkscape:current-layer="svg227" />
  <defs
     id="defs5">
    <clipPath
       id="clip0">
      <rect
         x="0"
         y="0"
         width="1280"
         height="720"
         id="rect2" />
    </clipPath>
  </defs>
  <path
     inkscape:connector-curvature="0"
     id="path9"
     d="m 491.60277,338.94859 v -5.33333 h -1.33333 l -10e-6,5.33333 z m 0,-9.33333 10e-6,-5.33337 h -1.33333 l -1e-5,5.33337 z m 10e-6,-9.33337 1e-5,-5.3333 h -1.33333 l -10e-6,5.3333 z m 1e-5,-9.3333 10e-6,-5.3333 h -1.33333 l -1e-5,5.3333 z m 10e-6,-9.3333 10e-6,-5.3334 h -1.33334 v 5.3334 z m 10e-6,-9.3334 1e-5,-5.3333 h -1.33334 v 5.3333 z m 1e-5,-9.3333 v -5.3333 h -1.33333 v 5.3333 z m 10e-6,-9.3333 v -5.3334 h -1.33333 l -10e-6,5.3334 z m 1e-5,-9.3334 v -5.3333 h -1.33333 l -1e-5,5.3333 z m 10e-6,-9.3333 v -5.3333 h -1.33333 l -10e-6,5.3333 z m 0,-9.3333 1e-5,-5.3334 h -1.33333 l -10e-6,5.3334 z m 1e-5,-9.3337 v -2.181 h -1.33333 v 2.181 z m 3.33334,-0.848 -4,-8 -4,8 z" />
  <path
     style="fill:#fbe5d6;fill-rule:evenodd;stroke:#000000;stroke-width:1.33333004;stroke-miterlimit:8"
     inkscape:connector-curvature="0"
     id="path11"
     stroke-miterlimit="8"
     d="m 1.9362042,321.43359 127.9998958,-100 h 288 l -133.818,100 z" />
  <path
     style="fill:#1f4e79"
     inkscape:connector-curvature="0"
     id="path13"
     d="m 207.4361,270.94859 1e-4,-104.015 h -3 l -1e-4,104.015 z m 3.0001,-102.515 -4.5,-9 -4.5,9 z" />
  <text
     style="font-weight:400;font-size:24px;font-family:Calibri, Calibri_MSFontService, sans-serif"
     id="text17"
     font-size="24"
     font-weight="400"
     x="215.16711"
     y="166.93359">Z<tspan
   style="font-size:24px"
   id="tspan15"
   y="267.93359"
   x="330.07608"
   font-size="24">X</tspan>
</text>
  <path
     style="fill:#c00000"
     inkscape:connector-curvature="0"
     id="path19"
     d="m 205.9361,272.93359 104.015,1e-4 v -3 l -104.015,-1e-4 z m 102.515,3.0001 9,-4.5 -9,-4.5 z" />
  <path
     style="fill:#385723"
     inkscape:connector-curvature="0"
     id="path21"
     d="m 206.78172,272.36951 54.89628,-37.46892 -1.6913,-2.4778 -54.89622,37.46888 z m 55.34858,-34.14542 4.8967,-8.7905 -9.9704,1.3569 z" />
  <text
     style="font-weight:400;font-size:24px;font-family:Calibri, Calibri_MSFontService, sans-serif"
     id="text23"
     font-size="24"
     font-weight="400"
     x="280.13708"
     y="218.93359">Y</text>
  <path
     style="fill:#ffc000;fill-rule:evenodd;stroke:#bc8c00;stroke-width:1.33333004;stroke-miterlimit:8"
     inkscape:connector-curvature="0"
     id="path25"
     stroke-miterlimit="8"
     d="m 187.00355,193.06851 c -2.57932,1.30235 -7.2163,13.94339 -8.50777,19.79957 1.59648,4.04784 1.55037,6.39958 3.93315,10.13381 3.0506,-4.18819 7.60726,-11.82068 11.54306,-17.948 0.34975,-4.14991 -4.38912,-13.28773 -6.96844,-11.98538 z" />
  <path
     style="fill:#ffc000;fill-rule:evenodd;stroke:#bc8c00;stroke-width:1.33333004;stroke-miterlimit:8"
     inkscape:connector-curvature="0"
     id="path27"
     stroke-miterlimit="8"
     d="m 148.9853,133.71992 c 4.66349,-2.67767 6.21796,1.09815 9.02366,6.00941 2.8057,4.91127 9.19338,12.29403 7.81035,23.45842 -18.74561,11.52899 -44.42901,34.12195 -57.12628,42.7345 -3.08797,-2.89217 -7.19237,-7.57367 -7.84832,-13.92818 8.85492,-10.44659 21.15945,-26.48636 29.18283,-36.19866 8.02344,-9.71237 14.29427,-19.39781 18.95776,-22.07549 z" />
  <path
     style="fill:#ffc000;fill-rule:evenodd;stroke:#bc8c00;stroke-width:1.33333004;stroke-miterlimit:8"
     inkscape:connector-curvature="0"
     id="path29"
     stroke-miterlimit="8"
     d="m 192.5881,184.53759 c 4.876,-1.132 11.052,-2.307 14.133,-3.104 0.502,0.423 1.279,0.784 5.215,5.641 -1.222,5.264 -10.614,13.767 -13.838,13.344 -3.225,-0.423 -10.387,-14.749 -5.51,-15.881 z" />
  <path
     style="fill:#0070c0"
     inkscape:connector-curvature="0"
     id="path31"
     d="m 487.7241,141.55159 -22.401,-88.478996 2.908,-0.737 22.402,88.479996 z m -24.941,-86.288996 2.153,-9.829 6.571,7.62 z" />
  <text
     style="font-weight:400;font-size:24px;font-family:Calibri, Calibri_MSFontService, sans-serif"
     id="text35"
     font-size="24"
     font-weight="400"
     x="463.0061"
     y="39.933594">Z’<tspan
   style="font-size:24px"
   id="tspan33"
   y="137.93359"
   x="612.8241"
   font-size="24">X’</tspan>
</text>
  <path
     style="fill:#ff0000"
     inkscape:connector-curvature="0"
     id="path37"
     d="m 488.9361,142.93359 104.015,1e-4 v -3 l -104.015,-1e-4 z m 102.515,3.0001 9,-4.5 -9,-4.5 z" />
  <path
     style="fill:#00b050"
     inkscape:connector-curvature="0"
     id="path39"
     d="m 490.12596,142.03595 45.85744,-59.739756 -2.3797,-1.8267 -45.85746,59.739736 z m 47.32384,-56.723156 1.9106,-9.8792 -9.0498,4.3991 z" />
  <text
     style="font-weight:400;font-size:24px;font-family:Calibri, Calibri_MSFontService, sans-serif"
     id="text41"
     font-size="24"
     font-weight="400"
     x="542.52112"
     y="77.933594">Y’</text>
  <path
     inkscape:connector-curvature="0"
     id="path43"
     d="m 489.60277,141.94859 v -5.33333 h -1.33333 l -10e-6,5.33333 z m 0,-9.33333 10e-6,-5.33337 h -1.33333 l -1e-5,5.33337 z m 10e-6,-9.33337 1e-5,-5.3333 h -1.33333 l -10e-6,5.3333 z m 1e-5,-9.3333 10e-6,-5.3333 h -1.33333 l -1e-5,5.3333 z m 10e-6,-9.3333 10e-6,-5.333396 h -1.33334 v 5.333396 z m 10e-6,-9.333396 1e-5,-5.3333 h -1.33334 v 5.3333 z m 1e-5,-9.3333 v -5.3333 h -1.33333 v 5.3333 z m 10e-6,-9.3333 v -5.3334 h -1.33333 l -10e-6,5.3334 z m 1e-5,-9.3334 v -5.3333 h -1.33333 l -1e-5,5.3333 z m 10e-6,-9.3333 v -5.3333 h -1.33333 l -10e-6,5.3333 z m 0,-9.3333 1e-5,-5.3334 h -1.33333 l -10e-6,5.3334 z m 1e-5,-9.3337 v -2.181 h -1.33333 v 2.181 z m 3.33334,-0.848 -4,-8 -4,8 z" />
  <path
     inkscape:connector-curvature="0"
     id="path45"
     d="m 489.31193,141.68122 4.40506,-3.00663 -0.75165,-1.10127 -4.40507,3.00664 z m 7.70886,-5.26161 4.40511,-3.00663 -0.7517,-1.10127 -4.40507,3.00664 z m 7.70891,-5.2616 4.405,-3.00662 -0.7516,-1.1013 -4.4051,3.0066 z m 7.7088,-5.26162 4.4051,-3.0066 -0.7517,-1.1013 -4.405,3.0066 z m 7.7089,-5.2616 4.4051,-3.0066 -0.7517,-1.1013 -4.4051,3.0066 z m 7.7089,-5.2616 4.405,-3.0066 -0.7516,-1.1013 -4.4051,3.0066 z m 7.7088,-5.2616 4.4051,-3.0067 -0.7517,-1.1012 -4.4051,3.0066 z m 7.7089,-5.2616 1.6225,-1.1075 -0.7517,-1.1012 -1.6225,1.1074 z m 2.4004,2.3973 4.3526,-7.813696 -8.8626,1.206096 z" />
  <text
     style="font-weight:400;font-size:24px;font-family:Calibri, Calibri_MSFontService, sans-serif"
     id="text49"
     font-size="24"
     font-weight="400"
     x="646.93207"
     y="77.933594">Z’’<tspan
   style="font-size:24px"
   id="tspan47"
   y="45.933594"
   x="818.5611"
   font-size="24">X’’</tspan>
</text>
  <path
     style="fill:#0070c0"
     inkscape:connector-curvature="0"
     id="path51"
     d="m 736.8561,142.08559 -67.203,-57.630996 1.953,-2.277 67.203,57.630996 z m -68.017,-54.376996 -3.903,-9.275 9.761,2.443 z" />
  <path
     style="fill:#ff0000"
     inkscape:connector-curvature="0"
     id="path53"
     d="m 738.35939,141.0957 66.92364,-79.626226 -2.29658,-1.93021 -66.92364,79.626216 z m 68.25512,-76.547726 2.34576,-9.78506 -9.23551,3.99443 z" />
  <path
     style="fill:#00b050"
     inkscape:connector-curvature="0"
     id="path55"
     d="m 739.25175,141.31305 23.86495,-43.580256 -2.6313,-1.4409 -23.86495,43.580236 z m 25.77585,-40.82366 0.3758,-10.055296 -8.2697,5.7325 z" />
  <text
     style="font-weight:400;font-size:24px;font-family:Calibri, Calibri_MSFontService, sans-serif"
     id="text57"
     font-size="24"
     font-weight="400"
     x="745.35608"
     y="85.933594">Y’’</text>
  <path
     inkscape:connector-curvature="0"
     id="path59"
     d="m 738.60277,141.94859 v -5.33333 h -1.33333 l -10e-6,5.33333 z m 1e-5,-9.33333 v -5.33337 h -1.33333 l -10e-6,5.33337 z m 0,-9.33337 10e-6,-5.3333 h -1.33333 l -10e-6,5.3333 z m 10e-6,-9.3333 10e-6,-5.3333 h -1.33334 v 5.3333 z m 10e-6,-9.3333 10e-6,-5.333396 h -1.33334 v 5.333396 z m 10e-6,-9.333396 10e-6,-5.3333 h -1.33334 v 5.3333 z m 10e-6,-9.3333 v -5.3333 h -1.33333 v 5.3333 z m 1e-5,-9.3333 v -5.3334 h -1.33333 l -10e-6,5.3334 z m 10e-6,-9.3334 v -5.3333 h -1.33333 l -10e-6,5.3333 z m 10e-6,-9.3333 v -5.3333 h -1.33333 l -1e-5,5.3333 z m 0,-9.3333 10e-6,-5.3334 h -1.33333 l -10e-6,5.3334 z m 10e-6,-9.3337 1e-5,-2.181 h -1.33334 v 2.181 z m 3.33334,-0.848 -4,-8 -4,8 z" />
  <path
     inkscape:connector-curvature="0"
     id="path61"
     d="m 738.31193,141.68122 4.40506,-3.00663 -0.75165,-1.10127 -4.40507,3.00664 z m 7.70886,-5.26161 4.40511,-3.00663 -0.7517,-1.10127 -4.40507,3.00664 z m 7.70891,-5.2616 4.405,-3.00662 -0.7516,-1.1013 -4.4051,3.0066 z m 7.7088,-5.26162 4.4051,-3.0066 -0.7517,-1.1013 -4.405,3.0066 z m 7.7089,-5.2616 4.4051,-3.0066 -0.7517,-1.1013 -4.4051,3.0066 z m 7.7089,-5.2616 4.405,-3.0066 -0.7516,-1.1013 -4.4051,3.0066 z m 7.7088,-5.2616 4.4051,-3.0067 -0.7517,-1.1012 -4.4051,3.0066 z m 7.7089,-5.2616 1.6225,-1.1075 -0.7517,-1.1012 -1.6225,1.1074 z m 2.4004,2.3973 4.3526,-7.813696 -8.8626,1.206096 z" />
  <path
     inkscape:connector-curvature="0"
     id="path63"
     d="m 737.9361,142.10026 h 5.33333 v -1.33333 l -5.33333,-1e-5 z m 9.33333,0 5.33337,1e-5 v -1.33333 l -5.33337,-1e-5 z m 9.33337,1e-5 5.3333,1e-5 v -1.33333 l -5.3333,-1e-5 z m 9.3333,1e-5 5.3333,1e-5 v -1.33333 l -5.3333,-1e-5 z m 9.3333,1e-5 5.3334,1e-5 v -1.33334 h -5.3334 z m 9.3334,1e-5 5.3333,1e-5 v -1.33334 h -5.3333 z m 9.3333,1e-5 h 5.3333 v -1.33333 h -5.3333 z m 9.3333,1e-5 h 5.3334 v -1.33333 l -5.3334,-1e-5 z m 9.3334,1e-5 h 5.3333 V 140.767 l -5.3333,-1e-5 z m 9.3333,10e-6 h 5.3333 v -1.33333 l -5.3333,-1e-5 z m 9.3333,0 5.3334,1e-5 v -1.33333 l -5.3334,-1e-5 z m 9.3337,1e-5 h 2.181 v -1.33333 h -2.181 z m 0.848,3.33334 8,-4 -8,-4 z" />
  <text
     style="font-weight:400;font-size:24px;font-family:Calibri, Calibri_MSFontService, sans-serif"
     id="text67"
     font-size="24"
     font-weight="400"
     x="994.32611"
     y="59.933594">Z’’’<tspan
   style="font-size:24px"
   id="tspan65"
   y="49.933594"
   x="914.14441"
   font-size="24">X’’’</tspan>
</text>
  <path
     style="fill:#0070c0"
     inkscape:connector-curvature="0"
     id="path69"
     d="m 965.3674,143.42533 20.8136,-66.386436 -2.8626,-0.8975 -20.8136,66.386456 z m 23.2275,-64.057636 -1.6015,-9.9341 -6.9864,7.2416 z" />
  <path
     style="fill:#ff0000"
     inkscape:connector-curvature="0"
     id="path71"
     d="m 962.0121,143.63559 -33.42,-75.734996 2.744,-1.211 33.42,75.734996 z m -35.559,-73.150996 0.483,-10.051 7.75,6.417 z" />
  <path
     style="fill:#00b050"
     inkscape:connector-curvature="0"
     id="path73"
     d="m 964.58051,143.92112 90.19679,-42.91043 -1.2888,-2.709096 -90.19681,42.910466 z m 90.13109,-39.55703 6.1939,-7.929996 -10.0603,-0.1971 z" />
  <text
     style="font-weight:400;font-size:24px;font-family:Calibri, Calibri_MSFontService, sans-serif"
     id="text75"
     font-size="24"
     font-weight="400"
     x="1069.7262"
     y="93.933594">Y’’’</text>
  <path
     inkscape:connector-curvature="0"
     id="path77"
     d="m 963.60277,141.94859 v -5.33333 h -1.33333 l -10e-6,5.33333 z m 1e-5,-9.33333 v -5.33337 h -1.33333 l -10e-6,5.33337 z m 0,-9.33337 10e-6,-5.3333 h -1.33333 l -10e-6,5.3333 z m 10e-6,-9.3333 10e-6,-5.3333 h -1.33334 v 5.3333 z m 10e-6,-9.3333 10e-6,-5.333396 h -1.33334 v 5.333396 z m 10e-6,-9.333396 10e-6,-5.3333 h -1.33334 v 5.3333 z m 10e-6,-9.3333 v -5.3333 h -1.33333 v 5.3333 z m 1e-5,-9.3333 v -5.3334 h -1.33333 l -10e-6,5.3334 z m 10e-6,-9.3334 v -5.3333 h -1.33333 l -10e-6,5.3333 z m 10e-6,-9.3333 v -5.3333 h -1.33333 l -1e-5,5.3333 z m 0,-9.3333 10e-6,-5.3334 h -1.33333 l -10e-6,5.3334 z m 10e-6,-9.3337 1e-5,-2.181 h -1.33334 v 2.181 z m 3.33334,-0.848 -4,-8 -4,8 z" />
  <path
     inkscape:connector-curvature="0"
     id="path79"
     d="m 963.31193,141.68122 4.40506,-3.00663 -0.75165,-1.10127 -4.40507,3.00664 z m 7.70886,-5.26161 4.40511,-3.00663 -0.7517,-1.10127 -4.40507,3.00664 z m 7.70891,-5.2616 4.405,-3.00662 -0.7516,-1.1013 -4.4051,3.0066 z m 7.7088,-5.26162 4.4051,-3.0066 -0.7517,-1.1013 -4.405,3.0066 z m 7.7089,-5.2616 4.4051,-3.0066 -0.7517,-1.1013 -4.4051,3.0066 z m 7.7089,-5.2616 4.405,-3.0066 -0.7516,-1.1013 -4.4051,3.0066 z m 7.7088,-5.2616 4.4051,-3.0067 -0.7517,-1.1012 -4.4051,3.0066 z m 7.7089,-5.2616 1.6225,-1.1075 -0.7517,-1.1012 -1.6225,1.1074 z m 2.4004,2.3973 4.3526,-7.813696 -8.8626,1.206096 z" />
  <path
     inkscape:connector-curvature="0"
     id="path81"
     d="m 963.9361,144.10026 h 5.33333 v -1.33333 l -5.33333,-1e-5 z m 9.33333,0 5.33337,1e-5 v -1.33333 l -5.33337,-1e-5 z m 9.33337,1e-5 5.3333,1e-5 v -1.33333 l -5.3333,-1e-5 z m 9.3333,1e-5 5.3333,1e-5 v -1.33333 l -5.3333,-1e-5 z m 9.3333,1e-5 5.3334,1e-5 v -1.33334 h -5.3334 z m 9.3334,1e-5 5.3333,1e-5 v -1.33334 h -5.3333 z m 9.3333,1e-5 h 5.3333 v -1.33333 h -5.3333 z m 9.3333,1e-5 h 5.3334 v -1.33333 l -5.3334,-1e-5 z m 9.3334,1e-5 h 5.3333 V 142.767 l -5.3333,-1e-5 z m 9.3333,10e-6 h 5.3333 v -1.33333 l -5.3333,-1e-5 z m 9.3333,0 5.3334,1e-5 v -1.33333 l -5.3334,-1e-5 z m 9.3337,1e-5 h 2.181 v -1.33333 h -2.181 z m 0.848,3.33334 8,-4 -8,-4 z" />
  <path
     inkscape:connector-curvature="0"
     id="path83"
     d="m 576.6691,117.68359 1.23,1.56 1.526,2.545 2.271,6.055 1.322,7.054 0.251,7.713 -0.666,0.021 -0.25,-7.687 0.005,0.05 -1.312,-7 0.015,0.056 -2.25,-6 0.027,0.055 -1.5,-2.5 0.024,0.034 -1.217,-1.544 z m 0.693,9.424 -1.364,-9.738 9.148,3.606 c 0.171,0.067 0.255,0.261 0.188,0.432 -0.068,0.171 -0.261,0.255 -0.433,0.188 l -8.616,-3.396 0.452,-0.356 1.285,9.172 c 0.026,0.182 -0.101,0.351 -0.283,0.376 -0.183,0.026 -0.351,-0.101 -0.377,-0.284 z" />
  <path
     inkscape:connector-curvature="0"
     id="path85"
     d="m 800.9781,111.09159 -0.601,2.453 -1.277,2.745 -1.724,2.427 -2.172,2.044 -2.432,1.536 -2.751,1.024 -2.882,0.448 -3.013,-0.192 -3.772,-1.151 -3.263,-2.176 -2.621,-2.94 -1.832,-3.664 0.596,-0.299 1.813,3.625 -0.05,-0.072 2.563,2.875 -0.064,-0.056 3.187,2.125 -0.087,-0.041 3.687,1.125 -0.076,-0.014 2.938,0.187 -0.073,0.004 2.813,-0.438 -0.065,0.017 2.687,-1 -0.061,0.031 2.375,-1.5 -0.051,0.039 2.125,-2 -0.043,0.049 1.687,-2.375 -0.03,0.053 1.25,-2.688 -0.022,0.062 0.593,-2.422 z m -6.999,6.349 6.832,-7.071 2.792,9.428 c 0.053,0.177 -0.048,0.362 -0.225,0.415 -0.176,0.052 -0.361,-0.049 -0.414,-0.225 l -2.63,-8.881 0.56,0.137 -6.436,6.661 c -0.128,0.132 -0.339,0.136 -0.471,0.008 -0.133,-0.128 -0.136,-0.339 -0.008,-0.472 z" />
  <path
     inkscape:connector-curvature="0"
     id="path87"
     d="m 965.1241,70.766594 h -4.457 l -4.287,-0.504 -3.977,-0.884 -3.543,-1.328 -3.048,-1.651 -2.429,-1.982 -1.742,-2.258 -0.911,-2.473 -0.066,-1.779 0.327,-1.702 0.782,-1.694 1.171,-1.561 3.441,-2.803 4.187,-1.874 0.273,0.609 -4.148,1.855 0.075,-0.046 -3.375,2.75 0.056,-0.058 -1.125,1.5 0.036,-0.06 -0.75,1.625 0.024,-0.077 -0.312,1.625 0.006,-0.075 0.062,1.687 -0.02,-0.103 0.875,2.375 -0.049,-0.088 1.687,2.187 -0.053,-0.054 2.375,1.937 -0.052,-0.035 3,1.625 -0.041,-0.019 3.5,1.313 -0.045,-0.013 3.937,0.875 -0.033,-0.006 4.25,0.5 -0.039,-0.002 h 4.438 z m -23.588,-23.513 9.776,1.054 -5.729,7.992 c -0.108,0.149 -0.316,0.183 -0.465,0.076 -0.15,-0.107 -0.184,-0.315 -0.077,-0.465 l 5.397,-7.527 0.235,0.526 -9.208,-0.993 c -0.183,-0.02 -0.316,-0.184 -0.296,-0.367 0.02,-0.183 0.184,-0.315 0.367,-0.296 z" />
  <path
     style="fill:#ffc000;fill-rule:evenodd;stroke:#bc8c00;stroke-width:1.33333004;stroke-miterlimit:8"
     inkscape:connector-curvature="0"
     id="path89"
     stroke-miterlimit="8"
     d="m 194.8121,202.04059 c -5.396,-4.982 -19.621,-24.911 -28.45,-34.714 -8.83,-9.804 -18.64,-13.339 -24.527,-24.107 -5.886,-10.768 -11.772,-32.786 -10.791,-40.5 0.981,-7.714996 9.32,-10.928996 16.678,-5.785996 7.358,5.142996 21.583,25.231996 27.469,36.642996 5.886,11.411 3.924,21.214 7.849,31.821 3.924,10.608 13.407,25.393 15.696,31.822 2.29,6.428 1.472,9.803 -3.924,4.821 z" />
  <path
     style="fill:#ffc000;fill-rule:evenodd;stroke:#bc8c00;stroke-width:1.33333004;stroke-miterlimit:8"
     inkscape:connector-curvature="0"
     id="path91"
     stroke-miterlimit="8"
     d="m 164.4701,128.21759 c -4.867,2.287 -2.663,5.725 -0.246,10.838 2.417,5.114 4.808,14.579 14.75,19.843 20.19,-8.757 53.423,-16.86 67.757,-22.331 -0.601,-4.188 -2.086,-10.234 -6.918,-14.413 -13.635,1.271 -33.831,2.165 -46.389,3.175 -12.557,1.01 -24.088,0.6 -28.954,2.888 z" />
  <path
     style="fill:#0070c0"
     inkscape:connector-curvature="0"
     id="path93"
     d="m 168.3674,156.42533 20.8136,-66.386436 -2.8626,-0.8975 -20.8136,66.386456 z m 23.2275,-64.057636 -1.6015,-9.9341 -6.9864,7.2416 z" />
  <path
     style="fill:#ff0000"
     inkscape:connector-curvature="0"
     id="path95"
     d="m 165.0121,156.63559 -33.42,-75.734996 2.744,-1.211 33.42,75.734996 z m -35.559,-73.150996 0.483,-10.051 7.75,6.417 z" />
  <path
     style="fill:#00b050"
     inkscape:connector-curvature="0"
     id="path97"
     d="m 167.58051,156.92112 90.19679,-42.91043 -1.2888,-2.7091 -90.19681,42.91047 z m 90.13109,-39.55703 6.1939,-7.93 -10.0603,-0.1971 z" />
  <text
     style="font-weight:400;font-size:24px;font-family:'Cambria Math', 'Cambria Math_MSFontService', sans-serif"
     id="text127"
     font-size="24"
     font-weight="400"
     x="511.49011"
     y="16.933594">𝑅<tspan
   style="font-size:18px"
   id="tspan99"
   y="21.933594"
   x="525.9834"
   font-size="18">𝑋</tspan>
<tspan
   style="font-size:24px"
   id="tspan101"
   y="16.933594"
   x="539.3634"
   font-size="24">(</tspan>
𝜓<tspan
   style="font-size:24px"
   id="tspan103"
   y="16.933594"
   x="566.55011"
   font-size="24">)</tspan>
<tspan
   style="font-size:24px;font-family:Calibri, Calibri_MSFontService, sans-serif"
   id="tspan105"
   y="71.933594"
   x="194.86612"
   font-size="24">Z’’’</tspan>
<tspan
   style="font-size:24px;font-family:Calibri, Calibri_MSFontService, sans-serif"
   id="tspan107"
   y="61.933594"
   x="114.6841"
   font-size="24">X’’’</tspan>
<tspan
   style="font-size:24px;font-family:Calibri, Calibri_MSFontService, sans-serif"
   id="tspan109"
   y="105.93359"
   x="270.26709"
   font-size="24">Y’’’</tspan>
<tspan
   style="font-size:24px"
   id="tspan111"
   y="16.933594"
   x="755.45911"
   font-size="24">𝑅</tspan>
<tspan
   style="font-size:18px"
   id="tspan113"
   y="21.933594"
   x="770.37909"
   font-size="18">𝑌</tspan>
<tspan
   style="font-size:24px"
   id="tspan115"
   y="16.933594"
   x="782.75909"
   font-size="24">(</tspan>
𝜃<tspan
   style="font-size:24px"
   id="tspan117"
   y="16.933594"
   x="806.95911"
   font-size="24">)</tspan>
<tspan
   style="font-size:24px"
   id="tspan119"
   y="16.933594"
   x="974.08911"
   font-size="24">𝑅</tspan>
<tspan
   style="font-size:18px"
   id="tspan121"
   y="21.933594"
   x="989.00909"
   font-size="18">𝑍</tspan>
<tspan
   style="font-size:24px"
   id="tspan123"
   y="16.933594"
   x="1001.2221"
   font-size="24">(</tspan>
𝜙<tspan
   style="font-size:24px"
   id="tspan125"
   y="16.933594"
   x="1028.0691"
   font-size="24">)</tspan>
</text>
  <path
     style="fill:#ffc000;fill-rule:evenodd;stroke:#bc8c00;stroke-width:1.33333004;stroke-miterlimit:8"
     inkscape:connector-curvature="0"
     id="path129"
     stroke-miterlimit="8"
     d="m 192.5481,189.86659 c 2.406,-1.446 15.354,1.044 20.914,2.891 2.573,3.294 4.565,4.419 6.474,8.194 -5.063,0.402 -13.777,0.321 -20.915,0.482 -3.652,-1.767 -8.88,-10.121 -6.473,-11.567 z" />
  <text
     style="font-weight:400;font-size:24px;font-family:Calibri, Calibri_MSFontService, sans-serif"
     id="text133"
     transform="rotate(-90)"
     font-size="24"
     font-weight="400"
     x="-138.93359"
     y="439.49811">Extrinsic view<tspan
   style="font-size:24px"
   id="tspan131"
   y="439.4982"
   x="-352.93359"
   font-size="24">Intrinsic view</tspan>
</text>
  <path
     style="fill:#0070c0"
     inkscape:connector-curvature="0"
     id="path135"
     d="m 488.9621,338.23659 -0.49,-102.296 3,-0.014 0.49,102.295 z m -3.483,-100.781 4.457,-9.022 4.543,8.978 z" />
  <text
     style="font-weight:400;font-size:24px;font-family:Calibri, Calibri_MSFontService, sans-serif"
     id="text139"
     font-size="24"
     font-weight="400"
     x="464.9061"
     y="237.93359">Z’<tspan
   style="font-size:24px"
   id="tspan137"
   y="394.93359"
   x="528.46112"
   font-size="24">X’</tspan>
</text>
  <path
     style="fill:#ff0000"
     inkscape:connector-curvature="0"
     id="path141"
     d="m 492.3341,337.88959 18.592,47.817 -2.796,1.087 -18.592,-47.816 z m 20.844,45.332 -0.932,10.019 -7.456,-6.757 z" />
  <path
     style="fill:#00b050"
     inkscape:connector-curvature="0"
     id="path143"
     d="m 491.10964,340.45052 108.68346,-12.65923 -0.347,-2.9798 -108.68354,12.65917 z m 107.54046,-9.50582 8.419,-5.51101 -9.46,-3.4285 z" />
  <text
     style="font-weight:400;font-size:24px;font-family:Calibri, Calibri_MSFontService, sans-serif"
     id="text145"
     font-size="24"
     font-weight="400"
     x="581.89508"
     y="319.93359">Y’</text>
  <path
     inkscape:connector-curvature="0"
     id="path147"
     d="m 491.31193,339.68122 4.40506,-3.00663 -0.75165,-1.10127 -4.40507,3.00664 z m 7.70886,-5.26161 4.40511,-3.00663 -0.7517,-1.10127 -4.40507,3.00664 z m 7.70891,-5.2616 4.405,-3.00662 -0.7516,-1.1013 -4.4051,3.0066 z m 7.7088,-5.26162 4.4051,-3.0066 -0.7517,-1.1013 -4.405,3.0066 z m 7.7089,-5.2616 4.4051,-3.0066 -0.7517,-1.1013 -4.4051,3.0066 z m 7.7089,-5.2616 4.405,-3.0066 -0.7516,-1.1013 -4.4051,3.0066 z m 7.7088,-5.2616 4.4051,-3.0067 -0.7517,-1.1012 -4.4051,3.0066 z m 7.7089,-5.2616 1.6225,-1.1075 -0.7517,-1.1012 -1.6225,1.1074 z m 2.4004,2.3973 4.3526,-7.8137 -8.8626,1.2061 z" />
  <text
     style="font-weight:400;font-size:24px;font-family:Calibri, Calibri_MSFontService, sans-serif"
     id="text151"
     font-size="24"
     font-weight="400"
     x="762.33807"
     y="292.93359">Z’’<tspan
   style="font-size:24px"
   id="tspan149"
   y="246.93359"
   x="687.28149"
   font-size="24">X’’</tspan>
</text>
  <path
     style="fill:#0070c0"
     inkscape:connector-curvature="0"
     id="path153"
     d="m 740.46129,339.18064 50.07141,-18.71605 -1.0504,-2.8101 -50.07139,18.71605 z m 49.71671,-15.38075 6.8548,-7.3663 -10.0059,-1.0641 z" />
  <text
     style="font-weight:400;font-size:24px;font-family:Calibri, Calibri_MSFontService, sans-serif"
     id="text155"
     font-size="24"
     font-weight="400"
     x="861.18408"
     y="319.93359">Y’’</text>
  <path
     inkscape:connector-curvature="0"
     id="path157"
     d="m 740.60277,338.94859 v -5.33333 h -1.33333 l -10e-6,5.33333 z m 1e-5,-9.33333 v -5.33337 h -1.33333 l -10e-6,5.33337 z m 0,-9.33337 10e-6,-5.3333 h -1.33333 l -10e-6,5.3333 z m 10e-6,-9.3333 10e-6,-5.3333 h -1.33334 v 5.3333 z m 10e-6,-9.3333 10e-6,-5.3334 h -1.33334 v 5.3334 z m 10e-6,-9.3334 10e-6,-5.3333 h -1.33334 v 5.3333 z m 10e-6,-9.3333 v -5.3333 h -1.33333 v 5.3333 z m 1e-5,-9.3333 v -5.3334 h -1.33333 l -10e-6,5.3334 z m 10e-6,-9.3334 v -5.3333 h -1.33333 l -10e-6,5.3333 z m 10e-6,-9.3333 v -5.3333 h -1.33333 l -1e-5,5.3333 z m 0,-9.3333 10e-6,-5.3334 h -1.33333 l -10e-6,5.3334 z m 10e-6,-9.3337 1e-5,-2.181 h -1.33334 v 2.181 z m 3.33334,-0.848 -4,-8 -4,8 z" />
  <path
     inkscape:connector-curvature="0"
     id="path159"
     d="m 740.31193,339.68122 4.40506,-3.00663 -0.75165,-1.10127 -4.40507,3.00664 z m 7.70886,-5.26161 4.40511,-3.00663 -0.7517,-1.10127 -4.40507,3.00664 z m 7.70891,-5.2616 4.405,-3.00662 -0.7516,-1.1013 -4.4051,3.0066 z m 7.7088,-5.26162 4.4051,-3.0066 -0.7517,-1.1013 -4.405,3.0066 z m 7.7089,-5.2616 4.4051,-3.0066 -0.7517,-1.1013 -4.4051,3.0066 z m 7.7089,-5.2616 4.405,-3.0066 -0.7516,-1.1013 -4.4051,3.0066 z m 7.7088,-5.2616 4.4051,-3.0067 -0.7517,-1.1012 -4.4051,3.0066 z m 7.7089,-5.2616 1.6225,-1.1075 -0.7517,-1.1012 -1.6225,1.1074 z m 2.4004,2.3973 4.3526,-7.8137 -8.8626,1.2061 z" />
  <path
     inkscape:connector-curvature="0"
     id="path161"
     d="m 739.9361,339.10026 h 5.33333 v -1.33333 l -5.33333,-10e-6 z m 9.33333,0 5.33337,1e-5 v -1.33333 l -5.33337,-10e-6 z m 9.33337,1e-5 5.3333,10e-6 v -1.33333 l -5.3333,-1e-5 z m 9.3333,10e-6 5.3333,10e-6 v -1.33333 l -5.3333,-10e-6 z m 9.3333,10e-6 5.3334,1e-5 v -1.33334 h -5.3334 z m 9.3334,1e-5 5.3333,10e-6 v -1.33334 h -5.3333 z m 9.3333,10e-6 h 5.3333 v -1.33333 h -5.3333 z m 9.3333,1e-5 h 5.3334 v -1.33333 l -5.3334,-1e-5 z m 9.3334,10e-6 h 5.3333 V 337.767 l -5.3333,-10e-6 z m 9.3333,1e-5 h 5.3333 v -1.33333 l -5.3333,-1e-5 z m 9.3333,0 5.3334,10e-6 v -1.33333 l -5.3334,-10e-6 z m 9.3337,10e-6 h 2.181 v -1.33333 h -2.181 z m 0.848,3.33334 8,-4 -8,-4 z" />
  <path
     inkscape:connector-curvature="0"
     id="path163"
     d="m 965.60277,338.94859 v -5.33333 h -1.33333 l -10e-6,5.33333 z m 1e-5,-9.33333 v -5.33337 h -1.33333 l -10e-6,5.33337 z m 0,-9.33337 10e-6,-5.3333 h -1.33333 l -10e-6,5.3333 z m 10e-6,-9.3333 10e-6,-5.3333 h -1.33334 v 5.3333 z m 10e-6,-9.3333 10e-6,-5.3334 h -1.33334 v 5.3334 z m 10e-6,-9.3334 10e-6,-5.3333 h -1.33334 v 5.3333 z m 10e-6,-9.3333 v -5.3333 h -1.33333 v 5.3333 z m 1e-5,-9.3333 v -5.3334 h -1.33333 l -10e-6,5.3334 z m 10e-6,-9.3334 v -5.3333 h -1.33333 l -10e-6,5.3333 z m 10e-6,-9.3333 v -5.3333 h -1.33333 l -1e-5,5.3333 z m 0,-9.3333 10e-6,-5.3334 h -1.33333 l -10e-6,5.3334 z m 10e-6,-9.3337 1e-5,-2.181 h -1.33334 v 2.181 z m 3.33334,-0.848 -4,-8 -4,8 z" />
  <path
     inkscape:connector-curvature="0"
     id="path165"
     d="m 965.31193,339.68122 4.40506,-3.00663 -0.75165,-1.10127 -4.40507,3.00664 z m 7.70886,-5.26161 4.40511,-3.00663 -0.7517,-1.10127 -4.40507,3.00664 z m 7.70891,-5.2616 4.405,-3.00662 -0.7516,-1.1013 -4.4051,3.0066 z m 7.7088,-5.26162 4.4051,-3.0066 -0.7517,-1.1013 -4.405,3.0066 z m 7.7089,-5.2616 4.4051,-3.0066 -0.7517,-1.1013 -4.4051,3.0066 z m 7.7089,-5.2616 4.405,-3.0066 -0.7516,-1.1013 -4.4051,3.0066 z m 7.7088,-5.2616 4.4051,-3.0067 -0.7517,-1.1012 -4.4051,3.0066 z m 7.7089,-5.2616 1.6225,-1.1075 -0.7517,-1.1012 -1.6225,1.1074 z m 2.4004,2.3973 4.3526,-7.8137 -8.8626,1.2061 z" />
  <path
     inkscape:connector-curvature="0"
     id="path167"
     d="m 965.9361,342.10026 h 5.33333 v -1.33333 l -5.33333,-10e-6 z m 9.33333,0 5.33337,1e-5 v -1.33333 l -5.33337,-10e-6 z m 9.33337,1e-5 5.3333,10e-6 v -1.33333 l -5.3333,-1e-5 z m 9.3333,10e-6 5.3333,10e-6 v -1.33333 l -5.3333,-10e-6 z m 9.3333,10e-6 5.3334,1e-5 v -1.33334 h -5.3334 z m 9.3334,1e-5 5.3333,10e-6 v -1.33334 h -5.3333 z m 9.3333,10e-6 h 5.3333 v -1.33333 h -5.3333 z m 9.3333,1e-5 h 5.3334 v -1.33333 l -5.3334,-1e-5 z m 9.3334,10e-6 h 5.3333 V 340.767 l -5.3333,-10e-6 z m 9.3333,1e-5 h 5.3333 v -1.33333 l -5.3333,-1e-5 z m 9.3333,0 5.3334,10e-6 v -1.33333 l -5.3334,-10e-6 z m 9.3337,10e-6 h 2.181 v -1.33333 h -2.181 z m 0.848,3.33334 8,-4 -8,-4 z" />
  <text
     style="font-weight:400;font-size:24px;font-family:'Cambria Math', 'Cambria Math_MSFontService', sans-serif"
     id="text191"
     font-size="24"
     font-weight="400"
     x="973.5481"
     y="214.93359">𝑅<tspan
   style="font-size:18px"
   id="tspan169"
   y="218.93359"
   x="988.04138"
   font-size="18">𝑋</tspan>
<tspan
   style="font-size:24px"
   id="tspan171"
   y="214.93359"
   x="1001.4215"
   font-size="24">(</tspan>
𝜓<tspan
   style="font-size:24px"
   id="tspan173"
   y="214.93359"
   x="1028.6082"
   font-size="24">)</tspan>
<tspan
   style="font-size:24px"
   id="tspan175"
   y="214.93359"
   x="757.35809"
   font-size="24">𝑅</tspan>
<tspan
   style="font-size:18px"
   id="tspan177"
   y="218.93359"
   x="772.27808"
   font-size="18">𝑌</tspan>
<tspan
   style="font-size:24px"
   id="tspan179"
   y="214.93359"
   x="784.65808"
   font-size="24">(</tspan>
𝜃<tspan
   style="font-size:24px"
   id="tspan181"
   y="214.93359"
   x="808.85809"
   font-size="24">)</tspan>
<tspan
   style="font-size:24px"
   id="tspan183"
   y="214.93359"
   x="512.01111"
   font-size="24">𝑅</tspan>
<tspan
   style="font-size:18px"
   id="tspan185"
   y="218.93359"
   x="526.93109"
   font-size="18">𝑍</tspan>
<tspan
   style="font-size:24px"
   id="tspan187"
   y="214.93359"
   x="539.1441"
   font-size="24">(</tspan>
𝜙<tspan
   style="font-size:24px"
   id="tspan189"
   y="214.93359"
   x="565.99109"
   font-size="24">)</tspan>
</text>
  <path
     inkscape:connector-curvature="0"
     id="path193"
     d="m 492.8161,273.70459 -4.457,0.063 -4.288,-0.442 -4.039,-0.883 -3.605,-1.265 -3.112,-1.652 -2.551,-2.04 -1.866,-2.252 -1.101,-2.59 -0.197,-1.841 0.262,-1.832 0.717,-1.759 1.159,-1.674 1.473,-1.602 1.862,-1.412 4.124,-2.034 0.295,0.598 -4.096,2.02 0.054,-0.033 -1.812,1.375 0.043,-0.04 -1.437,1.562 0.029,-0.036 -1.125,1.625 0.034,-0.064 -0.687,1.688 0.021,-0.079 -0.25,1.75 0.002,-0.082 0.187,1.75 -0.025,-0.095 1.063,2.5 -0.05,-0.083 1.812,2.188 -0.048,-0.048 2.5,2 -0.052,-0.034 3.062,1.625 -0.046,-0.02 3.563,1.25 -0.039,-0.011 4,0.875 -0.037,-0.006 4.25,0.437 -0.039,-10e-4 4.437,-0.063 z m -24.688,-23.895 9.809,0.686 -5.425,8.201 c -0.101,0.154 -0.308,0.196 -0.462,0.094 -0.153,-0.102 -0.195,-0.308 -0.094,-0.462 l 5.11,-7.724 0.255,0.516 -9.239,-0.646 c -0.184,-0.012 -0.322,-0.172 -0.309,-0.355 0.012,-0.184 0.172,-0.323 0.355,-0.31 z" />
  <path
     inkscape:connector-curvature="0"
     id="path195"
     d="m 494.9361,338.10026 h 5.33333 v -1.33333 l -5.33333,-10e-6 z m 9.33333,0 5.33337,1e-5 v -1.33333 l -5.33337,-10e-6 z m 9.33337,1e-5 5.3333,10e-6 v -1.33333 l -5.3333,-1e-5 z m 9.3333,10e-6 5.3333,10e-6 v -1.33333 l -5.3333,-10e-6 z m 9.3333,10e-6 5.3334,1e-5 v -1.33334 h -5.3334 z m 9.3334,1e-5 5.3333,10e-6 v -1.33334 h -5.3333 z m 9.3333,10e-6 h 5.3333 v -1.33333 h -5.3333 z m 9.3333,1e-5 h 5.3334 v -1.33333 l -5.3334,-1e-5 z m 9.3334,10e-6 h 5.3333 V 336.767 l -5.3333,-10e-6 z m 9.3333,1e-5 h 5.3333 v -1.33333 l -5.3333,-1e-5 z m 9.3333,0 5.3334,10e-6 v -1.33333 l -5.3334,-10e-6 z m 9.3337,10e-6 h 2.181 v -1.33333 h -2.181 z m 0.848,3.33334 8,-4 -8,-4 z" />
  <path
     style="fill:#00b050"
     inkscape:connector-curvature="0"
     id="path197"
     d="m 739.10964,338.45052 108.68346,-12.65923 -0.347,-2.9798 -108.68354,12.65917 z m 107.54046,-9.50582 8.419,-5.51101 -9.46,-3.4285 z" />
  <path
     style="fill:#0070c0"
     inkscape:connector-curvature="0"
     id="path199"
     d="m 738.7951,338.23259 -0.025,-5.334 1.333,-0.006 0.026,5.333 z m -0.044,-9.334 -0.026,-5.333 1.333,-0.006 0.026,5.333 z m -0.045,-9.333 -0.026,-5.333 1.334,-0.006 0.025,5.333 z m -0.045,-9.333 -0.025,-5.333 1.333,-0.007 0.026,5.334 z m -0.044,-9.333 -0.026,-5.334 1.333,-0.006 0.026,5.333 z m -0.045,-9.333 -0.026,-5.334 1.334,-0.006 0.025,5.333 z m -0.045,-9.334 -0.025,-5.333 1.333,-0.006 0.025,5.333 z m -0.045,-9.333 -0.025,-5.333 1.333,-0.007 0.026,5.334 z m -0.044,-9.333 -0.026,-5.333 1.333,-0.007 0.026,5.333 z m -0.045,-9.333 -0.026,-5.334 1.334,-0.006 0.025,5.333 z m -0.045,-9.334 -0.025,-5.333 1.333,-0.006 0.026,5.333 z m -0.044,-9.333 -0.003,-0.463 1.334,-0.007 0.002,0.464 z m -3.33,0.886 3.962,-8.019 4.038,7.981 z" />
  <path
     style="fill:#ff0000"
     inkscape:connector-curvature="0"
     id="path201"
     d="m 740.5571,338.19159 1.933,4.971 -1.243,0.483 -1.932,-4.97 z m 3.383,8.699 1.932,4.971 -1.242,0.483 -1.933,-4.97 z m 3.382,8.699 1.933,4.971 -1.243,0.483 -1.933,-4.97 z m 3.382,8.699 1.933,4.971 -1.243,0.483 -1.932,-4.971 z m 3.382,8.699 1.933,4.971 -1.243,0.483 -1.932,-4.971 z m 3.383,8.699 1.932,4.971 -1.242,0.483 -1.933,-4.971 z m 4.606,2.648 -0.829,8.906 -6.627,-6.007 z" />
  <path
     inkscape:connector-curvature="0"
     id="path203"
     d="m 808.4231,322.94759 0.9,-2.349 1.595,-2.616 1.982,-2.173 2.366,-1.727 2.624,-1.216 2.754,-0.64 2.946,-0.064 2.939,0.575 2.307,0.897 2.06,1.287 3.378,3.442 2.164,4.391 0.641,2.5 0.189,2.529 -0.664,0.05 -0.188,-2.5 0.01,0.058 -0.625,-2.438 0.024,0.065 -2.125,-4.313 0.061,0.087 -3.313,-3.375 0.061,0.049 -2,-1.25 0.056,0.028 -2.25,-0.875 0.057,0.016 -2.875,-0.562 0.071,0.006 -2.875,0.062 0.069,-0.008 -2.688,0.625 0.065,-0.023 -2.563,1.188 0.057,-0.033 -2.313,1.687 0.05,-0.044 -1.938,2.125 0.039,-0.051 -1.563,2.562 0.027,-0.054 -0.889,2.321 z m 7.74,-5.422 -7.665,6.159 -1.589,-9.703 c -0.03,-0.182 0.093,-0.353 0.275,-0.383 0.182,-0.03 0.353,0.093 0.383,0.275 l 1.497,9.14 -0.538,-0.206 7.219,-5.802 c 0.143,-0.115 0.353,-0.092 0.469,0.051 0.115,0.144 0.092,0.353 -0.051,0.469 z" />
  <path
     style="fill:#ff0000"
     inkscape:connector-curvature="0"
     id="path205"
     d="m 740.0121,339.63559 -33.42,-75.735 2.744,-1.211 33.42,75.735 z m -35.559,-73.151 0.483,-10.051 7.75,6.417 z" />
  <path
     style="fill:#0070c0"
     inkscape:connector-curvature="0"
     id="path207"
     d="m 964.16571,340.09247 5.00703,-1.83686 -0.45922,-1.25176 -5.00703,1.83686 z m 8.7623,-3.21451 5.00699,-1.83686 -0.4592,-1.25176 -5.007,1.83686 z m 8.76229,-3.21451 5.0071,-1.83686 -0.4593,-1.25176 -5.007,1.83686 z m 8.7623,-3.21451 5.0071,-1.83685 -0.4592,-1.2518 -5.0071,1.8369 z m 8.7623,-3.21455 5.0071,-1.8368 -0.4592,-1.2518 -5.0071,1.8369 z m 8.7623,-3.2145 5.0071,-1.8368 -0.4592,-1.2518 -5.0071,1.8369 z m 7.1592,0.9242 6.1329,-6.5106 -8.8882,-1 z" />
  <path
     style="fill:#00b050"
     inkscape:connector-curvature="0"
     id="path209"
     d="m 963.01323,338.62278 5.29752,-0.61704 -0.15426,-1.32438 -5.29752,0.61704 z m 9.27066,-1.07983 5.29751,-0.61704 -0.1543,-1.32438 -5.29747,0.61704 z m 9.27061,-1.07983 5.2976,-0.61704 -0.1543,-1.32438 -5.2975,0.61705 z m 9.2707,-1.07982 5.2975,-0.61705 -0.1542,-1.32438 -5.2976,0.61705 z m 9.2707,-1.07983 5.2975,-0.61704 -0.1543,-1.32438 -5.2975,0.61704 z m 9.2706,-1.07983 5.2975,-0.61704 -0.1542,-1.32438 -5.2975,0.61704 z m 9.2707,-1.07983 5.2975,-0.61704 -0.1543,-1.32438 -5.2975,0.61704 z m 9.2706,-1.07982 5.2975,-0.61705 -0.1542,-1.32438 -5.2975,0.61705 z m 9.2707,-1.07983 5.2975,-0.61704 -0.1543,-1.32438 -5.2975,0.61704 z m 9.2706,-1.07983 5.2976,-0.61704 -0.1543,-1.3244 -5.2975,0.6171 z m 9.2707,-1.07984 5.2975,-0.617 -0.1543,-1.3244 -5.2975,0.617 z m 9.2703,-1.0798 5.298,-0.6171 -0.154,-1.3243 -5.298,0.617 z m 6.595,2.58768 7.484,-4.89868 -8.409,-3.0476 z" />
  <path
     style="fill:#ff0000"
     inkscape:connector-curvature="0"
     id="path211"
     d="m 964.0121,340.63559 -33.42,-75.735 2.744,-1.211 33.42,75.735 z m -35.559,-73.151 0.483,-10.051 7.75,6.417 z" />
  <path
     inkscape:connector-curvature="0"
     id="path213"
     d="m 960.3731,269.39659 -0.938,2.327 -1.7,2.932 -2.234,2.989 -2.799,2.85 -6.61,5.286 -3.893,2.345 -4.072,2.083 -0.304,-0.594 4.062,-2.078 -0.02,0.012 3.864,-2.328 -0.036,0.025 6.577,-5.259 -0.03,0.027 2.769,-2.82 -0.029,0.034 2.21,-2.956 -0.022,0.033 1.679,-2.895 -0.021,0.043 0.929,-2.305 z m -7.831,5.289 7.769,-6.028 1.422,9.73 c 0.027,0.182 -0.099,0.352 -0.281,0.378 -0.183,0.027 -0.352,-0.099 -0.378,-0.281 l -1.34,-9.165 0.534,0.215 -7.318,5.677 c -0.145,0.113 -0.354,0.087 -0.467,-0.059 -0.113,-0.145 -0.087,-0.354 0.059,-0.467 z" />
  <path
     style="fill:#0070c0"
     inkscape:connector-curvature="0"
     id="path215"
     d="m 966.3674,341.42533 20.8136,-66.38644 -2.8626,-0.8975 -20.8136,66.38646 z m 23.2275,-64.05764 -1.6015,-9.9341 -6.9864,7.2416 z" />
  <path
     style="fill:#00b050"
     inkscape:connector-curvature="0"
     id="path217"
     d="m 965.58051,342.92112 90.19679,-42.91043 -1.2888,-2.7091 -90.19681,42.91047 z m 90.13109,-39.55703 6.1939,-7.93 -10.0603,-0.1971 z" />
  <text
     style="font-weight:400;font-size:24px;font-family:Calibri, Calibri_MSFontService, sans-serif"
     id="text223"
     font-size="24"
     font-weight="400"
     x="1073.9462"
     y="299.93359">Y’’’<tspan
   style="font-size:24px"
   id="tspan219"
   y="263.93359"
   x="998.5564"
   font-size="24">Z’’’</tspan>
<tspan
   style="font-size:24px"
   id="tspan221"
   y="251.93359"
   x="909.6571"
   font-size="24">X’’’</tspan>
</text>
</svg>
