<?xml version="1.0" encoding="UTF-8" standalone="no"?>
<!-- Created with Inkscape (http://www.inkscape.org/) -->

<svg
   xmlns:dc="http://purl.org/dc/elements/1.1/"
   xmlns:cc="http://creativecommons.org/ns#"
   xmlns:rdf="http://www.w3.org/1999/02/22-rdf-syntax-ns#"
   xmlns:svg="http://www.w3.org/2000/svg"
   xmlns="http://www.w3.org/2000/svg"
   xmlns:sodipodi="http://sodipodi.sourceforge.net/DTD/sodipodi-0.dtd"
   xmlns:inkscape="http://www.inkscape.org/namespaces/inkscape"
   width="161.29942mm"
   height="85.379517mm"
   viewBox="0 0 161.29942 85.379517"
   version="1.1"
   id="svg8"
   inkscape:version="0.92.4 (5da689c313, 2019-01-14)"
   sodipodi:docname="rotation3d.svg">
  <defs
     id="defs2" />
  <sodipodi:namedview
     id="base"
     pagecolor="#ffffff"
     bordercolor="#666666"
     borderopacity="1.0"
     inkscape:pageopacity="0.0"
     inkscape:pageshadow="2"
     inkscape:zoom="0.35"
     inkscape:cx="1008.1738"
     inkscape:cy="-71.005205"
     inkscape:document-units="mm"
     inkscape:current-layer="layer1"
     showgrid="false"
     fit-margin-top="0"
     fit-margin-left="0"
     fit-margin-right="0"
     fit-margin-bottom="0"
     inkscape:window-width="1920"
     inkscape:window-height="1001"
     inkscape:window-x="-9"
     inkscape:window-y="-9"
     inkscape:window-maximized="1" />
  <metadata
     id="metadata5">
    <rdf:RDF>
      <cc:Work
         rdf:about="">
        <dc:format>image/svg+xml</dc:format>
        <dc:type
           rdf:resource="http://purl.org/dc/dcmitype/StillImage" />
        <dc:title></dc:title>
      </cc:Work>
    </rdf:RDF>
  </metadata>
  <g
     inkscape:label="Layer 1"
     inkscape:groupmode="layer"
     id="layer1"
     transform="translate(-11.954459,-44.667023)">
    <g
       transform="matrix(0.34470034,0,0,-0.34470034,11.954459,130.04585)"
       inkscape:label="rotation3d"
       id="g823"
       style="stroke-width:1.02343321">
      <g
         id="g825"
         style="stroke-width:1.02343321">
        <path
           inkscape:connector-curvature="0"
           id="path827"
           style="fill:#00ae4f;fill-opacity:1;fill-rule:nonzero;stroke:none;stroke-width:1.02343321"
           d="M 31.5,118.197 V 226.74 h -3 V 118.197 Z m 3,107.043 -4.5,9 -4.5,-9 z" />
        <path
           inkscape:connector-curvature="0"
           id="path829"
           style="fill:#ff0000;fill-opacity:1;fill-rule:nonzero;stroke:none;stroke-width:1.02343321"
           d="m 30,119.697 h 112.5 v -3 H 30 Z m 111,3 9,-4.5 -9,-4.5 z" />
        <path
           inkscape:connector-curvature="0"
           id="path831"
           style="fill:#006ebf;fill-opacity:1;fill-rule:nonzero;stroke:none;stroke-width:1.02343321"
           d="M 28.66,118.869 2.012,65.58 4.703,64.24 31.34,117.53 Z M 0,68.26 V 58.197 l 8.051,6.043 z" />
        <path
           inkscape:connector-curvature="0"
           id="path833"
           style="fill:#000000;fill-opacity:1;fill-rule:nonzero;stroke:none;stroke-width:1.02343321"
           d="m 348.441,120.299 v 4 h -1 v -4 z m 0,7 v 4 h -1 v -4 z m 0,7 v 4 h -1 v -4 z m 0,7 v 4 h -1 v -4 z m 0,7 v 4 h -1 v -4 z m 0,7 v 4 h -1 v -4 z m 0,7 v 4 h -1 v -4 z m 0,7 v 4 h -1 v -4 z m 0,7 v 4 h -1 v -4 z m 0,7 v 4 h -1 v -4 z m 0,7 v 4 h -1 v -4 z m 0,7 v 4 h -1 v -4 z m 0,7 v 4 h -1 v -4 z m 0,7 v 4 h -1 v -4 z m 0,7 v 4 h -1 v -4 z m 0,7 v 4 h -1 v -4 z m 2.5,3 -3,6 -3,-6 z" />
        <path
           inkscape:connector-curvature="0"
           id="path835"
           style="fill:#000000;fill-opacity:1;fill-rule:nonzero;stroke:none;stroke-width:1.02343321"
           d="m 347.941,118.76 h 4 v -1 h -4 z m 7,0 h 4 v -1 h -4 z m 7,0 h 4 v -1 h -4 z m 7,0 h 4 v -1 h -4 z m 7,0 h 4 v -1 h -4 z m 7,0 h 4 v -1 h -4 z m 7,0 h 4 v -1 h -4 z m 7,0 h 4 v -1 h -4 z m 7,0 h 4 v -1 h -4 z m 7,0 h 4 v -1 h -4 z m 7,0 h 4 v -1 h -4 z m 7,0 h 4 v -1 h -4 z m 7,0 h 4 v -1 h -4 z m 7,0 h 4 v -1 h -4 z m 7,0 h 4 v -1 h -4 z m 7,0 h 4 v -1 h -4 z m 7,0 h 3 v -1 h -3 z m 2,2.5 6,-3 -6,-3 z" />
        <path
           inkscape:connector-curvature="0"
           id="path837"
           style="fill:#000000;fill-opacity:1;fill-rule:nonzero;stroke:none;stroke-width:1.02343321"
           d="m 347.492,118.479 -1.789,-3.571 0.899,-0.449 1.789,3.582 z m -3.129,-6.258 -1.793,-3.57 0.903,-0.454 1.789,3.583 z m -3.133,-6.262 -1.789,-3.578 0.899,-0.441 1.793,3.57 z m -3.128,-6.262 -1.789,-3.578 0.898,-0.441 1.789,3.57 z m -3.129,-6.257 -1.793,-3.582 0.902,-0.45 1.789,3.582 z m -3.133,-6.262 -1.789,-3.578 0.902,-0.449 1.777,3.578 z m -3.129,-6.258 -1.789,-3.582 0.898,-0.449 1.782,3.582 z m -3.129,-6.262 -1.789,-3.578 0.898,-0.449 1.782,3.578 z m -3.129,-6.257 -1.793,-3.582 0.891,-0.45 1.789,3.578 z m -4.512,-3.43 V 58.26 l 5.372,4.031 z" />
        <path
           inkscape:connector-curvature="0"
           id="path839"
           style="fill:#ff0000;fill-opacity:1;fill-rule:nonzero;stroke:none;stroke-width:1.02343321"
           d="m 346.711,117.311 -50.141,83.57 2.571,1.539 50.152,-83.57 z m -51.941,80.738 -0.77,10.031 8.492,-5.402 z" />
        <path
           inkscape:connector-curvature="0"
           id="path841"
           style="fill:#006ebf;fill-opacity:1;fill-rule:nonzero;stroke:none;stroke-width:1.02343321"
           d="m 349.133,117.1 73.09,84.328 -2.27,1.961 -73.082,-84.328 z m 74.379,81.23 2.488,9.75 -9.297,-3.851 z" />
        <path
           inkscape:connector-curvature="0"
           id="path843"
           style="fill:#00ae4f;fill-opacity:1;fill-rule:nonzero;stroke:none;stroke-width:1.02343321"
           d="M 348.563,119.471 431.59,86.26 430.48,83.471 347.441,116.69 Z M 431.313,89.6 438,82.08 427.973,81.24 Z" />
        <path
           inkscape:connector-curvature="0"
           id="path845"
           style="fill:#000000;fill-opacity:1;fill-rule:nonzero;stroke:none;stroke-width:1.02343321"
           d="m 223.926,29.065 c 0.539,0.687 1.062,1.187 1.562,1.5 0.5,0.32 1.082,0.484 1.75,0.484 0.664,0 1.18,-0.242 1.547,-0.719 0.363,-0.48 0.547,-1.172 0.547,-2.078 0,-0.793 -0.117,-1.578 -0.344,-2.359 -0.23,-0.781 -0.558,-1.461 -0.984,-2.031 -0.43,-0.563 -0.965,-1.008 -1.609,-1.329 -0.649,-0.324 -1.383,-0.484 -2.204,-0.484 -0.523,0 -1.023,0.09 -1.5,0.266 l -0.343,-1.563 c -0.055,-0.25 -0.09,-0.445 -0.11,-0.594 -0.023,-0.144 -0.031,-0.281 -0.031,-0.406 0,-0.25 0.063,-0.426 0.188,-0.531 0.132,-0.113 0.363,-0.191 0.687,-0.234 l -0.094,-0.579 h -3.656 l 2.219,9.891 c 0.094,0.395 0.14,0.688 0.14,0.875 0,0.188 -0.039,0.332 -0.109,0.438 -0.062,0.101 -0.172,0.156 -0.328,0.156 -0.18,0 -0.375,-0.086 -0.594,-0.25 -0.211,-0.156 -0.453,-0.399 -0.734,-0.719 l -0.625,0.641 c 0.582,0.593 1.097,1.007 1.547,1.25 0.457,0.238 0.937,0.359 1.437,0.359 0.488,0 0.879,-0.137 1.172,-0.406 0.289,-0.274 0.438,-0.633 0.438,-1.078 0,-0.149 -0.024,-0.289 -0.063,-0.422 z m -0.641,-3.625 c -0.094,-0.43 -0.14,-0.852 -0.14,-1.266 0,-0.43 0.07,-0.734 0.218,-0.922 0.145,-0.187 0.391,-0.281 0.735,-0.281 0.289,0 0.554,0.062 0.797,0.187 0.238,0.133 0.46,0.348 0.671,0.641 0.219,0.301 0.426,0.688 0.625,1.156 0.207,0.477 0.383,1.047 0.532,1.703 0.144,0.657 0.218,1.266 0.218,1.829 0,0.425 -0.062,0.742 -0.187,0.953 -0.125,0.207 -0.324,0.312 -0.594,0.312 -0.387,0 -0.781,-0.187 -1.187,-0.562 -0.399,-0.375 -0.715,-0.813 -0.953,-1.313 -0.243,-0.5 -0.461,-1.203 -0.657,-2.109 z" />
        <path
           inkscape:connector-curvature="0"
           id="path847"
           style="fill:#000000;fill-opacity:1;fill-rule:nonzero;stroke:none;stroke-width:1.02343321"
           d="m 234.055,35.971 v -0.5 l -2.11,-5.094 -0.75,0.219 1.219,5.375 z" />
        <path
           inkscape:connector-curvature="0"
           id="path849"
           style="fill:#000000;fill-opacity:1;fill-rule:nonzero;stroke:none;stroke-width:1.02343321"
           d="m 241.152,28.565 v 1.172 h 10.828 v -1.172 z m 0,-3.641 v 1.172 h 10.828 v -1.172 z" />
        <path
           inkscape:connector-curvature="0"
           id="path851"
           style="fill:#000000;fill-opacity:1;fill-rule:nonzero;stroke:none;stroke-width:1.02343321"
           d="m 265.57,27.627 c 0.282,-0.211 0.504,-0.461 0.672,-0.75 0.176,-0.293 0.317,-0.699 0.422,-1.219 l 0.203,-1.031 c 0.063,-0.324 0.133,-0.617 0.219,-0.875 0.082,-0.25 0.18,-0.453 0.297,-0.609 0.113,-0.149 0.238,-0.262 0.375,-0.344 0.144,-0.074 0.359,-0.133 0.64,-0.172 l -0.093,-0.437 h -2.438 c -0.187,0.519 -0.355,1.14 -0.5,1.859 l -0.39,1.875 c -0.063,0.313 -0.141,0.578 -0.235,0.797 -0.086,0.226 -0.187,0.398 -0.312,0.516 -0.125,0.125 -0.274,0.203 -0.438,0.234 -0.168,0.039 -0.375,0.062 -0.625,0.062 h -1 l -0.609,-2.781 c -0.055,-0.23 -0.09,-0.414 -0.11,-0.547 -0.023,-0.136 -0.043,-0.281 -0.062,-0.437 -0.012,-0.149 -0.016,-0.278 -0.016,-0.391 0,-0.18 0.024,-0.32 0.078,-0.422 0.063,-0.105 0.149,-0.183 0.266,-0.234 0.125,-0.043 0.328,-0.074 0.609,-0.094 L 262.43,22.19 h -3.61 l 0.094,0.437 c 0.227,0.031 0.395,0.082 0.5,0.156 0.113,0.082 0.207,0.192 0.281,0.329 0.082,0.144 0.157,0.316 0.219,0.515 0.063,0.207 0.156,0.602 0.281,1.188 l 1.5,6.765 c 0.125,0.582 0.188,1.047 0.188,1.391 0,0.281 -0.07,0.476 -0.203,0.594 -0.125,0.113 -0.344,0.175 -0.657,0.187 l 0.094,0.438 h 3.922 c 0.613,0 1.117,-0.039 1.516,-0.11 0.394,-0.074 0.726,-0.183 1,-0.328 0.281,-0.148 0.515,-0.34 0.703,-0.578 0.187,-0.23 0.328,-0.492 0.422,-0.781 0.093,-0.281 0.14,-0.59 0.14,-0.922 0,-0.906 -0.277,-1.68 -0.828,-2.313 -0.554,-0.625 -1.359,-1.105 -2.422,-1.437 z m -2,0.656 c 0.852,0 1.524,0.114 2.016,0.344 0.488,0.227 0.879,0.602 1.172,1.125 0.289,0.52 0.437,1.082 0.437,1.688 0,0.257 -0.027,0.484 -0.078,0.672 -0.043,0.195 -0.105,0.359 -0.187,0.484 -0.075,0.133 -0.172,0.25 -0.297,0.344 -0.117,0.101 -0.262,0.191 -0.438,0.265 -0.168,0.071 -0.371,0.125 -0.609,0.157 -0.231,0.031 -0.543,0.046 -0.938,0.046 -0.312,0 -0.64,-0.011 -0.984,-0.031 l -1.125,-5.094 z" />
        <path
           inkscape:connector-curvature="0"
           id="path853"
           style="fill:#000000;fill-opacity:1;fill-rule:nonzero;stroke:none;stroke-width:1.02343321"
           d="m 274.684,29.065 c 0.539,0.687 1.062,1.187 1.562,1.5 0.5,0.32 1.082,0.484 1.75,0.484 0.664,0 1.18,-0.242 1.547,-0.719 0.363,-0.48 0.547,-1.172 0.547,-2.078 0,-0.793 -0.117,-1.578 -0.344,-2.359 -0.23,-0.781 -0.558,-1.461 -0.984,-2.031 -0.43,-0.563 -0.965,-1.008 -1.61,-1.329 -0.648,-0.324 -1.382,-0.484 -2.203,-0.484 -0.523,0 -1.023,0.09 -1.5,0.266 l -0.344,-1.563 c -0.054,-0.25 -0.089,-0.445 -0.109,-0.594 -0.023,-0.144 -0.031,-0.281 -0.031,-0.406 0,-0.25 0.062,-0.426 0.187,-0.531 0.133,-0.113 0.364,-0.191 0.688,-0.234 l -0.094,-0.579 h -3.656 l 2.219,9.891 c 0.093,0.395 0.14,0.688 0.14,0.875 0,0.188 -0.039,0.332 -0.109,0.438 -0.063,0.101 -0.172,0.156 -0.328,0.156 -0.18,0 -0.375,-0.086 -0.594,-0.25 -0.211,-0.156 -0.453,-0.399 -0.734,-0.719 l -0.625,0.641 c 0.582,0.593 1.097,1.007 1.546,1.25 0.458,0.238 0.938,0.359 1.438,0.359 0.488,0 0.879,-0.137 1.172,-0.406 0.289,-0.274 0.437,-0.633 0.437,-1.078 0,-0.149 -0.023,-0.289 -0.062,-0.422 z m -0.641,-3.625 c -0.094,-0.43 -0.141,-0.852 -0.141,-1.266 0,-0.43 0.071,-0.734 0.219,-0.922 0.145,-0.187 0.391,-0.281 0.734,-0.281 0.29,0 0.555,0.062 0.797,0.187 0.239,0.133 0.461,0.348 0.672,0.641 0.219,0.301 0.426,0.688 0.625,1.156 0.207,0.477 0.383,1.047 0.531,1.703 0.145,0.657 0.219,1.266 0.219,1.829 0,0.425 -0.062,0.742 -0.187,0.953 -0.125,0.207 -0.324,0.312 -0.594,0.312 -0.387,0 -0.781,-0.187 -1.188,-0.562 -0.398,-0.375 -0.714,-0.813 -0.953,-1.313 -0.242,-0.5 -0.461,-1.203 -0.656,-2.109 z" />
        <path
           inkscape:connector-curvature="0"
           id="path855"
           style="fill:#000000;fill-opacity:1;fill-rule:nonzero;stroke:none;stroke-width:1.02343321"
           d="m 287.234,28.565 v 1.172 h 10.829 v -1.172 z m 0,-3.641 v 1.172 h 10.829 v -1.172 z" />
        <path
           inkscape:connector-curvature="0"
           id="path857"
           style="fill:#000000;fill-opacity:1;fill-rule:evenodd;stroke:none;stroke-width:1.02343321"
           d="m 415.633,54.108 h 4.777 V 0.729 h -4.777 v 0.859 h 2.969 v 51.66 h -2.969 z m -109.281,0 h 4.789 v -0.86 h -2.969 V 1.588 h 2.969 V 0.729 h -4.789 z" />
        <path
           inkscape:connector-curvature="0"
           id="path859"
           style="fill:#000000;fill-opacity:1;fill-rule:nonzero;stroke:none;stroke-width:1.02343321"
           d="m 315.746,52.369 c 0.57,0.782 1.125,1.352 1.656,1.719 0.532,0.363 1.067,0.547 1.61,0.547 0.426,0 0.785,-0.031 1.078,-0.094 l -0.422,-1.969 h -0.906 c -0.043,0.239 -0.094,0.426 -0.157,0.563 -0.062,0.133 -0.14,0.227 -0.234,0.281 -0.086,0.051 -0.195,0.078 -0.328,0.078 -0.211,0 -0.438,-0.093 -0.688,-0.281 -0.25,-0.18 -0.531,-0.461 -0.843,-0.844 -0.313,-0.386 -0.563,-0.761 -0.75,-1.125 -0.18,-0.355 -0.328,-0.804 -0.453,-1.343 l -0.829,-3.813 h -1.531 l 1.281,5.578 c 0.083,0.344 0.133,0.614 0.157,0.813 0.019,0.195 0.031,0.359 0.031,0.484 0,0.227 -0.039,0.395 -0.109,0.5 -0.075,0.113 -0.196,0.172 -0.36,0.172 -0.179,0 -0.371,-0.078 -0.578,-0.234 -0.199,-0.149 -0.476,-0.418 -0.828,-0.813 l -0.5,0.5 c 0.539,0.563 0.988,0.957 1.344,1.188 0.363,0.238 0.769,0.359 1.218,0.359 0.364,0 0.649,-0.121 0.86,-0.359 0.219,-0.243 0.328,-0.559 0.328,-0.954 0,-0.292 -0.059,-0.593 -0.172,-0.906 z" />
        <path
           inkscape:connector-curvature="0"
           id="path861"
           style="fill:#000000;fill-opacity:1;fill-rule:nonzero;stroke:none;stroke-width:1.02343321"
           d="m 322.723,44.041 c 0,-0.125 0.004,-0.242 0.015,-0.344 0.008,-0.093 0.02,-0.171 0.032,-0.234 0.019,-0.062 0.046,-0.121 0.078,-0.172 0.031,-0.043 0.066,-0.078 0.109,-0.109 0.051,-0.055 0.117,-0.094 0.203,-0.125 0.094,-0.031 0.203,-0.059 0.328,-0.078 0.133,-0.012 0.289,-0.024 0.469,-0.032 0.188,-0.011 0.41,-0.023 0.672,-0.031 v -0.547 h -5.031 v 0.547 c 0.25,0.008 0.457,0.02 0.625,0.031 0.175,0.008 0.328,0.024 0.453,0.047 0.125,0.02 0.222,0.039 0.297,0.063 0.07,0.019 0.132,0.051 0.187,0.094 0.063,0.031 0.113,0.066 0.156,0.109 0.039,0.051 0.071,0.109 0.094,0.172 0.031,0.07 0.051,0.156 0.063,0.25 0.019,0.094 0.031,0.211 0.031,0.359 v 4.563 c 0,0.156 -0.039,0.265 -0.109,0.328 -0.063,0.07 -0.153,0.109 -0.266,0.109 -0.137,0 -0.336,-0.07 -0.594,-0.203 -0.25,-0.137 -0.586,-0.336 -1,-0.594 -0.055,0.094 -0.105,0.188 -0.156,0.282 -0.043,0.101 -0.09,0.207 -0.141,0.312 0.532,0.281 1.051,0.563 1.563,0.844 0.508,0.289 1.031,0.578 1.562,0.859 h 0.391 c -0.012,-0.23 -0.024,-0.437 -0.031,-0.625 z" />
        <path
           inkscape:connector-curvature="0"
           id="path863"
           style="fill:#000000;fill-opacity:1;fill-rule:nonzero;stroke:none;stroke-width:1.02343321"
           d="m 330.281,44.041 c 0,-0.125 0.004,-0.242 0.016,-0.344 0.008,-0.093 0.019,-0.171 0.031,-0.234 0.02,-0.062 0.047,-0.121 0.078,-0.172 0.032,-0.043 0.067,-0.078 0.11,-0.109 0.05,-0.055 0.117,-0.094 0.203,-0.125 0.094,-0.031 0.203,-0.059 0.328,-0.078 0.133,-0.012 0.289,-0.024 0.469,-0.032 0.187,-0.011 0.41,-0.023 0.672,-0.031 v -0.547 h -5.032 v 0.547 c 0.25,0.008 0.457,0.02 0.625,0.031 0.176,0.008 0.328,0.024 0.453,0.047 0.125,0.02 0.223,0.039 0.297,0.063 0.071,0.019 0.133,0.051 0.188,0.094 0.062,0.031 0.113,0.066 0.156,0.109 0.039,0.051 0.07,0.109 0.094,0.172 0.031,0.07 0.051,0.156 0.062,0.25 0.02,0.094 0.032,0.211 0.032,0.359 v 4.563 c 0,0.156 -0.04,0.265 -0.11,0.328 -0.062,0.07 -0.152,0.109 -0.265,0.109 -0.137,0 -0.336,-0.07 -0.594,-0.203 -0.25,-0.137 -0.586,-0.336 -1,-0.594 -0.055,0.094 -0.106,0.188 -0.156,0.282 -0.043,0.101 -0.09,0.207 -0.141,0.312 0.531,0.281 1.051,0.563 1.562,0.844 0.508,0.289 1.032,0.578 1.563,0.859 h 0.391 c -0.012,-0.23 -0.024,-0.437 -0.032,-0.625 z" />
        <path
           inkscape:connector-curvature="0"
           id="path865"
           style="fill:#000000;fill-opacity:1;fill-rule:nonzero;stroke:none;stroke-width:1.02343321"
           d="m 356.309,52.369 c 0.57,0.782 1.125,1.352 1.656,1.719 0.531,0.363 1.066,0.547 1.609,0.547 0.426,0 0.785,-0.031 1.078,-0.094 l -0.422,-1.969 h -0.906 c -0.043,0.239 -0.094,0.426 -0.156,0.563 -0.063,0.133 -0.141,0.227 -0.234,0.281 -0.086,0.051 -0.196,0.078 -0.329,0.078 -0.21,0 -0.437,-0.093 -0.687,-0.281 -0.25,-0.18 -0.531,-0.461 -0.844,-0.844 -0.312,-0.386 -0.562,-0.761 -0.75,-1.125 -0.179,-0.355 -0.328,-0.804 -0.453,-1.343 l -0.828,-3.813 h -1.531 l 1.281,5.578 c 0.082,0.344 0.133,0.614 0.156,0.813 0.02,0.195 0.031,0.359 0.031,0.484 0,0.227 -0.039,0.395 -0.109,0.5 -0.074,0.113 -0.195,0.172 -0.359,0.172 -0.18,0 -0.371,-0.078 -0.578,-0.234 -0.2,-0.149 -0.477,-0.418 -0.829,-0.813 l -0.5,0.5 c 0.54,0.563 0.989,0.957 1.344,1.188 0.364,0.238 0.77,0.359 1.219,0.359 0.363,0 0.648,-0.121 0.859,-0.359 0.219,-0.243 0.328,-0.559 0.328,-0.954 0,-0.292 -0.058,-0.593 -0.171,-0.906 z" />
        <path
           inkscape:connector-curvature="0"
           id="path867"
           style="fill:#000000;fill-opacity:1;fill-rule:nonzero;stroke:none;stroke-width:1.02343321"
           d="m 363.16,44.041 c 0,-0.125 0.004,-0.242 0.016,-0.344 0.008,-0.093 0.019,-0.171 0.031,-0.234 0.02,-0.062 0.047,-0.121 0.078,-0.172 0.031,-0.043 0.067,-0.078 0.11,-0.109 0.05,-0.055 0.117,-0.094 0.203,-0.125 0.093,-0.031 0.203,-0.059 0.328,-0.078 0.133,-0.012 0.289,-0.024 0.469,-0.032 0.187,-0.011 0.41,-0.023 0.671,-0.031 v -0.547 h -5.031 v 0.547 c 0.25,0.008 0.457,0.02 0.625,0.031 0.176,0.008 0.328,0.024 0.453,0.047 0.125,0.02 0.223,0.039 0.297,0.063 0.07,0.019 0.133,0.051 0.188,0.094 0.062,0.031 0.113,0.066 0.156,0.109 0.039,0.051 0.07,0.109 0.094,0.172 0.031,0.07 0.05,0.156 0.062,0.25 0.02,0.094 0.031,0.211 0.031,0.359 v 4.563 c 0,0.156 -0.039,0.265 -0.109,0.328 -0.062,0.07 -0.152,0.109 -0.266,0.109 -0.136,0 -0.336,-0.07 -0.593,-0.203 -0.25,-0.137 -0.586,-0.336 -1,-0.594 -0.055,0.094 -0.106,0.188 -0.157,0.282 -0.043,0.101 -0.089,0.207 -0.14,0.312 0.531,0.281 1.051,0.563 1.562,0.844 0.508,0.289 1.032,0.578 1.563,0.859 h 0.39 c -0.011,-0.23 -0.023,-0.437 -0.031,-0.625 z" />
        <path
           inkscape:connector-curvature="0"
           id="path869"
           style="fill:#000000;fill-opacity:1;fill-rule:nonzero;stroke:none;stroke-width:1.02343321"
           d="m 370.813,43.401 c 0.195,0 0.351,0.004 0.468,0.015 0.125,0.02 0.223,0.055 0.297,0.11 0.082,0.05 0.149,0.129 0.203,0.234 0.051,0.102 0.114,0.242 0.188,0.422 h 0.594 c -0.024,-0.305 -0.043,-0.606 -0.063,-0.906 -0.023,-0.305 -0.043,-0.606 -0.062,-0.907 h -5.375 v 0.328 c 0.101,0.227 0.222,0.454 0.359,0.672 0.133,0.227 0.285,0.457 0.453,0.688 0.176,0.226 0.367,0.461 0.578,0.703 0.219,0.238 0.457,0.492 0.719,0.766 0.394,0.394 0.719,0.734 0.969,1.015 0.25,0.281 0.445,0.531 0.593,0.75 0.145,0.219 0.243,0.422 0.297,0.61 0.051,0.187 0.078,0.382 0.078,0.593 0,0.219 -0.031,0.414 -0.093,0.594 -0.063,0.188 -0.153,0.344 -0.266,0.469 -0.117,0.125 -0.262,0.223 -0.437,0.297 -0.168,0.07 -0.368,0.109 -0.594,0.109 -0.399,0 -0.731,-0.109 -1,-0.328 -0.262,-0.211 -0.469,-0.516 -0.625,-0.922 h -0.828 v 1.234 c 0.539,0.227 1.039,0.391 1.5,0.485 0.457,0.101 0.867,0.156 1.234,0.156 0.438,0 0.813,-0.055 1.125,-0.156 0.313,-0.094 0.563,-0.227 0.75,-0.391 0.195,-0.168 0.336,-0.371 0.422,-0.609 0.094,-0.242 0.141,-0.496 0.141,-0.766 0,-0.168 -0.016,-0.324 -0.047,-0.469 -0.024,-0.136 -0.063,-0.277 -0.125,-0.421 -0.055,-0.137 -0.125,-0.278 -0.219,-0.422 -0.094,-0.137 -0.211,-0.282 -0.344,-0.438 -0.105,-0.136 -0.246,-0.293 -0.422,-0.469 -0.168,-0.179 -0.351,-0.371 -0.547,-0.578 -0.199,-0.199 -0.414,-0.406 -0.64,-0.625 -0.219,-0.218 -0.434,-0.437 -0.641,-0.656 -0.199,-0.219 -0.387,-0.433 -0.562,-0.641 -0.18,-0.199 -0.321,-0.382 -0.422,-0.546 z" />
        <path
           inkscape:connector-curvature="0"
           id="path871"
           style="fill:#000000;fill-opacity:1;fill-rule:nonzero;stroke:none;stroke-width:1.02343321"
           d="m 396.746,52.369 c 0.57,0.782 1.125,1.352 1.656,1.719 0.532,0.363 1.067,0.547 1.61,0.547 0.426,0 0.785,-0.031 1.078,-0.094 l -0.422,-1.969 h -0.906 c -0.043,0.239 -0.094,0.426 -0.157,0.563 -0.062,0.133 -0.14,0.227 -0.234,0.281 -0.086,0.051 -0.195,0.078 -0.328,0.078 -0.211,0 -0.438,-0.093 -0.688,-0.281 -0.25,-0.18 -0.531,-0.461 -0.843,-0.844 -0.313,-0.386 -0.563,-0.761 -0.75,-1.125 -0.18,-0.355 -0.328,-0.804 -0.453,-1.343 l -0.829,-3.813 h -1.531 l 1.281,5.578 c 0.083,0.344 0.133,0.614 0.157,0.813 0.019,0.195 0.031,0.359 0.031,0.484 0,0.227 -0.039,0.395 -0.109,0.5 -0.075,0.113 -0.196,0.172 -0.36,0.172 -0.179,0 -0.371,-0.078 -0.578,-0.234 -0.199,-0.149 -0.476,-0.418 -0.828,-0.813 l -0.5,0.5 c 0.539,0.563 0.988,0.957 1.344,1.188 0.363,0.238 0.769,0.359 1.218,0.359 0.364,0 0.649,-0.121 0.86,-0.359 0.219,-0.243 0.328,-0.559 0.328,-0.954 0,-0.292 -0.059,-0.593 -0.172,-0.906 z" />
        <path
           inkscape:connector-curvature="0"
           id="path873"
           style="fill:#000000;fill-opacity:1;fill-rule:nonzero;stroke:none;stroke-width:1.02343321"
           d="m 403.754,44.041 c 0,-0.125 0.004,-0.242 0.016,-0.344 0.007,-0.093 0.019,-0.171 0.031,-0.234 0.019,-0.062 0.047,-0.121 0.078,-0.172 0.031,-0.043 0.066,-0.078 0.109,-0.109 0.051,-0.055 0.117,-0.094 0.203,-0.125 0.094,-0.031 0.204,-0.059 0.329,-0.078 0.132,-0.012 0.289,-0.024 0.468,-0.032 0.188,-0.011 0.41,-0.023 0.672,-0.031 v -0.547 h -5.031 v 0.547 c 0.25,0.008 0.457,0.02 0.625,0.031 0.176,0.008 0.328,0.024 0.453,0.047 0.125,0.02 0.223,0.039 0.297,0.063 0.07,0.019 0.133,0.051 0.187,0.094 0.063,0.031 0.114,0.066 0.157,0.109 0.039,0.051 0.07,0.109 0.093,0.172 0.032,0.07 0.051,0.156 0.063,0.25 0.019,0.094 0.031,0.211 0.031,0.359 v 4.563 c 0,0.156 -0.039,0.265 -0.109,0.328 -0.063,0.07 -0.153,0.109 -0.266,0.109 -0.137,0 -0.336,-0.07 -0.594,-0.203 -0.25,-0.137 -0.586,-0.336 -1,-0.594 -0.054,0.094 -0.105,0.188 -0.156,0.282 -0.043,0.101 -0.09,0.207 -0.14,0.312 0.531,0.281 1.05,0.563 1.562,0.844 0.508,0.289 1.031,0.578 1.563,0.859 h 0.39 c -0.012,-0.23 -0.023,-0.437 -0.031,-0.625 z" />
        <path
           inkscape:connector-curvature="0"
           id="path875"
           style="fill:#000000;fill-opacity:1;fill-rule:nonzero;stroke:none;stroke-width:1.02343321"
           d="m 407.887,48.697 v 1.25 c 0.5,0.208 0.968,0.364 1.406,0.469 0.445,0.114 0.875,0.172 1.281,0.172 0.332,0 0.645,-0.039 0.938,-0.109 0.301,-0.074 0.554,-0.184 0.765,-0.328 0.219,-0.149 0.383,-0.329 0.5,-0.547 0.125,-0.219 0.188,-0.469 0.188,-0.75 0,-0.274 -0.039,-0.512 -0.11,-0.719 -0.074,-0.211 -0.195,-0.402 -0.359,-0.578 -0.156,-0.168 -0.351,-0.32 -0.578,-0.453 -0.23,-0.137 -0.496,-0.266 -0.797,-0.391 v -0.078 c 0.281,-0.055 0.539,-0.137 0.781,-0.25 0.25,-0.105 0.469,-0.246 0.657,-0.422 0.187,-0.168 0.332,-0.367 0.437,-0.594 0.102,-0.218 0.156,-0.464 0.156,-0.734 0,-0.344 -0.062,-0.664 -0.187,-0.953 -0.125,-0.293 -0.32,-0.543 -0.578,-0.75 -0.25,-0.211 -0.563,-0.375 -0.938,-0.5 -0.375,-0.113 -0.808,-0.172 -1.297,-0.172 -0.398,0 -0.797,0.039 -1.203,0.109 -0.406,0.082 -0.793,0.188 -1.156,0.313 v 1.375 h 0.812 c 0.071,-0.211 0.157,-0.391 0.25,-0.547 0.094,-0.148 0.204,-0.266 0.329,-0.359 0.125,-0.094 0.265,-0.164 0.421,-0.204 0.165,-0.042 0.352,-0.062 0.563,-0.062 0.539,0 0.953,0.125 1.234,0.375 0.282,0.258 0.422,0.656 0.422,1.187 0,0.563 -0.187,0.989 -0.562,1.282 -0.367,0.289 -0.914,0.437 -1.641,0.437 h -0.562 v 0.61 c 0.445,0.019 0.832,0.082 1.156,0.187 0.32,0.102 0.594,0.238 0.812,0.406 0.219,0.164 0.379,0.36 0.485,0.578 0.101,0.219 0.156,0.454 0.156,0.704 0,0.406 -0.121,0.722 -0.359,0.953 -0.243,0.238 -0.59,0.359 -1.047,0.359 -0.387,0 -0.711,-0.109 -0.969,-0.328 -0.262,-0.211 -0.465,-0.523 -0.609,-0.938 z" />
        <path
           inkscape:connector-curvature="0"
           id="path877"
           style="fill:#000000;fill-opacity:1;fill-rule:nonzero;stroke:none;stroke-width:1.02343321"
           d="m 315.508,31.229 c 0.57,0.781 1.125,1.351 1.656,1.718 0.531,0.364 1.066,0.547 1.609,0.547 0.426,0 0.786,-0.031 1.079,-0.093 l -0.422,-1.969 h -0.907 c -0.043,0.238 -0.093,0.426 -0.156,0.562 -0.062,0.133 -0.14,0.227 -0.234,0.282 -0.086,0.05 -0.195,0.078 -0.328,0.078 -0.211,0 -0.438,-0.094 -0.688,-0.282 -0.25,-0.179 -0.531,-0.46 -0.844,-0.843 -0.312,-0.387 -0.562,-0.762 -0.75,-1.125 -0.179,-0.356 -0.328,-0.805 -0.453,-1.344 l -0.828,-3.813 h -1.531 l 1.281,5.579 c 0.082,0.343 0.133,0.613 0.156,0.812 0.02,0.195 0.032,0.359 0.032,0.484 0,0.227 -0.039,0.395 -0.11,0.5 -0.074,0.114 -0.195,0.172 -0.359,0.172 -0.18,0 -0.371,-0.078 -0.578,-0.234 -0.199,-0.148 -0.477,-0.418 -0.828,-0.813 l -0.5,0.5 c 0.539,0.563 0.988,0.958 1.343,1.188 0.364,0.238 0.77,0.359 1.219,0.359 0.363,0 0.649,-0.121 0.86,-0.359 0.218,-0.242 0.328,-0.559 0.328,-0.953 0,-0.293 -0.059,-0.594 -0.172,-0.906 z" />
        <path
           inkscape:connector-curvature="0"
           id="path879"
           style="fill:#000000;fill-opacity:1;fill-rule:nonzero;stroke:none;stroke-width:1.02343321"
           d="m 322.813,22.26 c 0.195,0 0.351,0.004 0.468,0.016 0.125,0.019 0.223,0.054 0.297,0.109 0.082,0.051 0.149,0.129 0.203,0.234 0.051,0.102 0.114,0.243 0.188,0.422 h 0.594 c -0.024,-0.304 -0.043,-0.605 -0.063,-0.906 -0.023,-0.305 -0.043,-0.605 -0.062,-0.906 h -5.375 v 0.328 c 0.101,0.226 0.222,0.453 0.359,0.672 0.133,0.226 0.285,0.457 0.453,0.687 0.176,0.227 0.367,0.461 0.578,0.703 0.219,0.239 0.457,0.493 0.719,0.766 0.394,0.395 0.719,0.734 0.969,1.016 0.25,0.281 0.445,0.531 0.593,0.75 0.145,0.218 0.243,0.421 0.297,0.609 0.051,0.187 0.078,0.383 0.078,0.594 0,0.218 -0.031,0.414 -0.093,0.593 -0.063,0.188 -0.153,0.344 -0.266,0.469 -0.117,0.125 -0.262,0.223 -0.437,0.297 -0.168,0.07 -0.368,0.109 -0.594,0.109 -0.399,0 -0.731,-0.109 -1,-0.328 -0.262,-0.211 -0.469,-0.515 -0.625,-0.922 h -0.828 v 1.235 c 0.539,0.226 1.039,0.39 1.5,0.484 0.457,0.102 0.867,0.156 1.234,0.156 0.438,0 0.813,-0.054 1.125,-0.156 0.313,-0.094 0.563,-0.226 0.75,-0.39 0.195,-0.168 0.336,-0.371 0.422,-0.61 0.094,-0.242 0.141,-0.496 0.141,-0.765 0,-0.168 -0.016,-0.325 -0.047,-0.469 -0.024,-0.137 -0.063,-0.277 -0.125,-0.422 -0.055,-0.137 -0.125,-0.277 -0.219,-0.422 -0.094,-0.137 -0.211,-0.281 -0.344,-0.437 -0.105,-0.137 -0.246,-0.293 -0.422,-0.469 -0.168,-0.18 -0.351,-0.371 -0.547,-0.578 -0.199,-0.199 -0.414,-0.407 -0.64,-0.625 -0.219,-0.219 -0.434,-0.438 -0.641,-0.657 -0.199,-0.218 -0.387,-0.433 -0.562,-0.64 -0.18,-0.199 -0.321,-0.383 -0.422,-0.547 z" />
        <path
           inkscape:connector-curvature="0"
           id="path881"
           style="fill:#000000;fill-opacity:1;fill-rule:nonzero;stroke:none;stroke-width:1.02343321"
           d="m 330.523,22.901 c 0,-0.125 0.004,-0.243 0.016,-0.344 0.008,-0.094 0.02,-0.172 0.031,-0.235 0.02,-0.062 0.047,-0.121 0.078,-0.171 0.032,-0.043 0.067,-0.079 0.11,-0.11 0.051,-0.054 0.117,-0.094 0.203,-0.125 0.094,-0.031 0.203,-0.058 0.328,-0.078 0.133,-0.012 0.289,-0.023 0.469,-0.031 0.187,-0.012 0.41,-0.024 0.672,-0.031 v -0.547 h -5.032 v 0.547 c 0.25,0.007 0.457,0.019 0.625,0.031 0.176,0.008 0.329,0.023 0.454,0.047 0.125,0.019 0.222,0.039 0.296,0.062 0.071,0.02 0.133,0.051 0.188,0.094 0.062,0.031 0.113,0.066 0.156,0.109 0.039,0.051 0.071,0.11 0.094,0.172 0.031,0.071 0.051,0.156 0.062,0.25 0.02,0.094 0.032,0.211 0.032,0.36 v 4.562 c 0,0.156 -0.039,0.266 -0.11,0.328 -0.062,0.071 -0.152,0.11 -0.265,0.11 -0.137,0 -0.336,-0.071 -0.594,-0.204 -0.25,-0.136 -0.586,-0.335 -1,-0.593 -0.055,0.093 -0.106,0.187 -0.156,0.281 -0.043,0.102 -0.09,0.207 -0.141,0.312 0.531,0.282 1.051,0.563 1.563,0.844 0.507,0.289 1.031,0.578 1.562,0.86 h 0.391 c -0.012,-0.231 -0.024,-0.438 -0.032,-0.625 z" />
        <path
           inkscape:connector-curvature="0"
           id="path883"
           style="fill:#000000;fill-opacity:1;fill-rule:nonzero;stroke:none;stroke-width:1.02343321"
           d="m 356.066,31.229 c 0.571,0.781 1.125,1.351 1.657,1.718 0.531,0.364 1.066,0.547 1.609,0.547 0.426,0 0.785,-0.031 1.078,-0.093 l -0.422,-1.969 h -0.906 c -0.043,0.238 -0.094,0.426 -0.156,0.562 -0.063,0.133 -0.141,0.227 -0.235,0.282 -0.086,0.05 -0.195,0.078 -0.328,0.078 -0.211,0 -0.437,-0.094 -0.687,-0.282 -0.25,-0.179 -0.531,-0.46 -0.844,-0.843 -0.312,-0.387 -0.562,-0.762 -0.75,-1.125 -0.18,-0.356 -0.328,-0.805 -0.453,-1.344 l -0.828,-3.813 h -1.531 l 1.281,5.579 c 0.082,0.343 0.133,0.613 0.156,0.812 0.02,0.195 0.031,0.359 0.031,0.484 0,0.227 -0.039,0.395 -0.109,0.5 -0.074,0.114 -0.195,0.172 -0.359,0.172 -0.18,0 -0.372,-0.078 -0.579,-0.234 -0.199,-0.148 -0.476,-0.418 -0.828,-0.813 l -0.5,0.5 c 0.539,0.563 0.989,0.958 1.344,1.188 0.363,0.238 0.77,0.359 1.219,0.359 0.363,0 0.648,-0.121 0.859,-0.359 0.219,-0.242 0.328,-0.559 0.328,-0.953 0,-0.293 -0.058,-0.594 -0.172,-0.906 z" />
        <path
           inkscape:connector-curvature="0"
           id="path885"
           style="fill:#000000;fill-opacity:1;fill-rule:nonzero;stroke:none;stroke-width:1.02343321"
           d="m 363.371,22.26 c 0.195,0 0.352,0.004 0.469,0.016 0.125,0.019 0.223,0.054 0.297,0.109 0.082,0.051 0.148,0.129 0.203,0.234 0.051,0.102 0.113,0.243 0.187,0.422 h 0.594 c -0.023,-0.304 -0.043,-0.605 -0.062,-0.906 -0.024,-0.305 -0.043,-0.605 -0.063,-0.906 h -5.375 v 0.328 c 0.102,0.226 0.223,0.453 0.359,0.672 0.133,0.226 0.286,0.457 0.454,0.687 0.175,0.227 0.367,0.461 0.578,0.703 0.218,0.239 0.457,0.493 0.718,0.766 0.395,0.395 0.719,0.734 0.969,1.016 0.25,0.281 0.446,0.531 0.594,0.75 0.145,0.218 0.242,0.421 0.297,0.609 0.051,0.187 0.078,0.383 0.078,0.594 0,0.218 -0.031,0.414 -0.094,0.593 -0.062,0.188 -0.152,0.344 -0.265,0.469 -0.118,0.125 -0.262,0.223 -0.438,0.297 -0.168,0.07 -0.367,0.109 -0.594,0.109 -0.398,0 -0.73,-0.109 -1,-0.328 -0.261,-0.211 -0.468,-0.515 -0.625,-0.922 h -0.828 v 1.235 c 0.539,0.226 1.039,0.39 1.5,0.484 0.457,0.102 0.867,0.156 1.235,0.156 0.437,0 0.812,-0.054 1.125,-0.156 0.312,-0.094 0.562,-0.226 0.75,-0.39 0.195,-0.168 0.336,-0.371 0.421,-0.61 0.094,-0.242 0.141,-0.496 0.141,-0.765 0,-0.168 -0.016,-0.325 -0.047,-0.469 -0.023,-0.137 -0.062,-0.277 -0.125,-0.422 -0.054,-0.137 -0.125,-0.277 -0.219,-0.422 -0.093,-0.137 -0.21,-0.281 -0.343,-0.437 -0.106,-0.137 -0.246,-0.293 -0.422,-0.469 -0.168,-0.18 -0.352,-0.371 -0.547,-0.578 -0.199,-0.199 -0.414,-0.407 -0.641,-0.625 -0.218,-0.219 -0.433,-0.438 -0.64,-0.657 -0.199,-0.218 -0.387,-0.433 -0.563,-0.64 -0.179,-0.199 -0.32,-0.383 -0.422,-0.547 z" />
        <path
           inkscape:connector-curvature="0"
           id="path887"
           style="fill:#000000;fill-opacity:1;fill-rule:nonzero;stroke:none;stroke-width:1.02343321"
           d="m 371.051,22.26 c 0.195,0 0.351,0.004 0.469,0.016 0.125,0.019 0.222,0.054 0.296,0.109 0.082,0.051 0.149,0.129 0.204,0.234 0.05,0.102 0.113,0.243 0.187,0.422 h 0.594 c -0.024,-0.304 -0.043,-0.605 -0.063,-0.906 -0.023,-0.305 -0.043,-0.605 -0.062,-0.906 h -5.375 v 0.328 c 0.101,0.226 0.222,0.453 0.359,0.672 0.133,0.226 0.285,0.457 0.453,0.687 0.176,0.227 0.367,0.461 0.578,0.703 0.219,0.239 0.457,0.493 0.719,0.766 0.395,0.395 0.719,0.734 0.969,1.016 0.25,0.281 0.445,0.531 0.594,0.75 0.144,0.218 0.242,0.421 0.297,0.609 0.05,0.187 0.078,0.383 0.078,0.594 0,0.218 -0.032,0.414 -0.094,0.593 -0.063,0.188 -0.152,0.344 -0.266,0.469 -0.117,0.125 -0.261,0.223 -0.437,0.297 -0.168,0.07 -0.367,0.109 -0.594,0.109 -0.398,0 -0.73,-0.109 -1,-0.328 -0.262,-0.211 -0.469,-0.515 -0.625,-0.922 h -0.828 v 1.235 c 0.539,0.226 1.039,0.39 1.5,0.484 0.457,0.102 0.867,0.156 1.234,0.156 0.438,0 0.813,-0.054 1.125,-0.156 0.313,-0.094 0.563,-0.226 0.75,-0.39 0.196,-0.168 0.336,-0.371 0.422,-0.61 0.094,-0.242 0.141,-0.496 0.141,-0.765 0,-0.168 -0.016,-0.325 -0.047,-0.469 -0.024,-0.137 -0.063,-0.277 -0.125,-0.422 -0.055,-0.137 -0.125,-0.277 -0.219,-0.422 -0.094,-0.137 -0.211,-0.281 -0.344,-0.437 -0.105,-0.137 -0.246,-0.293 -0.421,-0.469 -0.168,-0.18 -0.352,-0.371 -0.547,-0.578 -0.2,-0.199 -0.414,-0.407 -0.641,-0.625 -0.219,-0.219 -0.434,-0.438 -0.641,-0.657 -0.199,-0.218 -0.386,-0.433 -0.562,-0.64 -0.18,-0.199 -0.32,-0.383 -0.422,-0.547 z" />
        <path
           inkscape:connector-curvature="0"
           id="path889"
           style="fill:#000000;fill-opacity:1;fill-rule:nonzero;stroke:none;stroke-width:1.02343321"
           d="m 396.508,31.229 c 0.57,0.781 1.125,1.351 1.656,1.718 0.531,0.364 1.066,0.547 1.609,0.547 0.426,0 0.786,-0.031 1.079,-0.093 l -0.422,-1.969 h -0.907 c -0.043,0.238 -0.093,0.426 -0.156,0.562 -0.062,0.133 -0.14,0.227 -0.234,0.282 -0.086,0.05 -0.195,0.078 -0.328,0.078 -0.211,0 -0.438,-0.094 -0.688,-0.282 -0.25,-0.179 -0.531,-0.46 -0.844,-0.843 -0.312,-0.387 -0.562,-0.762 -0.75,-1.125 -0.179,-0.356 -0.328,-0.805 -0.453,-1.344 l -0.828,-3.813 h -1.531 l 1.281,5.579 c 0.082,0.343 0.133,0.613 0.156,0.812 0.02,0.195 0.032,0.359 0.032,0.484 0,0.227 -0.039,0.395 -0.11,0.5 -0.074,0.114 -0.195,0.172 -0.359,0.172 -0.18,0 -0.371,-0.078 -0.578,-0.234 -0.199,-0.148 -0.477,-0.418 -0.828,-0.813 l -0.5,0.5 c 0.539,0.563 0.988,0.958 1.343,1.188 0.364,0.238 0.77,0.359 1.219,0.359 0.363,0 0.649,-0.121 0.86,-0.359 0.218,-0.242 0.328,-0.559 0.328,-0.953 0,-0.293 -0.059,-0.594 -0.172,-0.906 z" />
        <path
           inkscape:connector-curvature="0"
           id="path891"
           style="fill:#000000;fill-opacity:1;fill-rule:nonzero;stroke:none;stroke-width:1.02343321"
           d="m 403.84,22.26 c 0.195,0 0.351,0.004 0.469,0.016 0.125,0.019 0.222,0.054 0.296,0.109 0.083,0.051 0.149,0.129 0.204,0.234 0.05,0.102 0.113,0.243 0.187,0.422 h 0.594 c -0.024,-0.304 -0.043,-0.605 -0.063,-0.906 -0.023,-0.305 -0.043,-0.605 -0.062,-0.906 h -5.375 v 0.328 c 0.101,0.226 0.223,0.453 0.359,0.672 0.133,0.226 0.285,0.457 0.453,0.687 0.176,0.227 0.368,0.461 0.578,0.703 0.219,0.239 0.458,0.493 0.719,0.766 0.395,0.395 0.719,0.734 0.969,1.016 0.25,0.281 0.445,0.531 0.594,0.75 0.144,0.218 0.242,0.421 0.297,0.609 0.05,0.187 0.078,0.383 0.078,0.594 0,0.218 -0.032,0.414 -0.094,0.593 -0.063,0.188 -0.152,0.344 -0.266,0.469 -0.117,0.125 -0.261,0.223 -0.437,0.297 -0.168,0.07 -0.367,0.109 -0.594,0.109 -0.398,0 -0.73,-0.109 -1,-0.328 -0.262,-0.211 -0.469,-0.515 -0.625,-0.922 h -0.828 v 1.235 c 0.539,0.226 1.039,0.39 1.5,0.484 0.457,0.102 0.867,0.156 1.234,0.156 0.438,0 0.813,-0.054 1.125,-0.156 0.313,-0.094 0.563,-0.226 0.75,-0.39 0.196,-0.168 0.336,-0.371 0.422,-0.61 0.094,-0.242 0.141,-0.496 0.141,-0.765 0,-0.168 -0.016,-0.325 -0.047,-0.469 -0.023,-0.137 -0.063,-0.277 -0.125,-0.422 -0.055,-0.137 -0.125,-0.277 -0.219,-0.422 -0.094,-0.137 -0.211,-0.281 -0.344,-0.437 -0.105,-0.137 -0.246,-0.293 -0.421,-0.469 -0.168,-0.18 -0.352,-0.371 -0.547,-0.578 -0.199,-0.199 -0.414,-0.407 -0.641,-0.625 -0.219,-0.219 -0.433,-0.438 -0.641,-0.657 -0.199,-0.218 -0.386,-0.433 -0.562,-0.64 -0.18,-0.199 -0.32,-0.383 -0.422,-0.547 z" />
        <path
           inkscape:connector-curvature="0"
           id="path893"
           style="fill:#000000;fill-opacity:1;fill-rule:nonzero;stroke:none;stroke-width:1.02343321"
           d="m 408.004,27.557 v 1.25 c 0.5,0.207 0.969,0.363 1.406,0.469 0.445,0.113 0.875,0.171 1.281,0.171 0.332,0 0.645,-0.039 0.938,-0.109 0.301,-0.074 0.555,-0.183 0.766,-0.328 0.218,-0.148 0.382,-0.328 0.5,-0.547 0.125,-0.219 0.187,-0.469 0.187,-0.75 0,-0.273 -0.039,-0.512 -0.109,-0.719 -0.075,-0.211 -0.196,-0.402 -0.36,-0.578 -0.156,-0.168 -0.351,-0.32 -0.578,-0.453 -0.23,-0.137 -0.496,-0.266 -0.797,-0.391 v -0.078 c 0.282,-0.054 0.539,-0.136 0.782,-0.25 0.25,-0.105 0.468,-0.246 0.656,-0.422 0.187,-0.167 0.332,-0.367 0.437,-0.593 0.102,-0.219 0.157,-0.465 0.157,-0.735 0,-0.343 -0.063,-0.664 -0.188,-0.953 -0.125,-0.293 -0.32,-0.543 -0.578,-0.75 -0.25,-0.211 -0.563,-0.375 -0.938,-0.5 -0.375,-0.113 -0.808,-0.172 -1.296,-0.172 -0.399,0 -0.797,0.039 -1.204,0.11 -0.406,0.082 -0.793,0.187 -1.156,0.312 v 1.375 h 0.813 c 0.07,-0.211 0.156,-0.39 0.25,-0.547 0.093,-0.148 0.203,-0.265 0.328,-0.359 0.125,-0.094 0.265,-0.164 0.422,-0.203 0.164,-0.043 0.351,-0.063 0.562,-0.063 0.539,0 0.953,0.125 1.235,0.375 0.281,0.258 0.421,0.657 0.421,1.188 0,0.562 -0.187,0.988 -0.562,1.281 -0.367,0.289 -0.914,0.438 -1.641,0.438 h -0.562 v 0.609 c 0.445,0.02 0.832,0.082 1.156,0.187 0.32,0.102 0.594,0.239 0.813,0.407 0.218,0.164 0.378,0.359 0.484,0.578 0.101,0.219 0.156,0.453 0.156,0.703 0,0.406 -0.121,0.723 -0.359,0.953 -0.242,0.238 -0.59,0.359 -1.047,0.359 -0.387,0 -0.711,-0.109 -0.969,-0.328 -0.262,-0.211 -0.465,-0.523 -0.609,-0.937 z" />
        <path
           inkscape:connector-curvature="0"
           id="path895"
           style="fill:#000000;fill-opacity:1;fill-rule:nonzero;stroke:none;stroke-width:1.02343321"
           d="m 315.508,10.112 c 0.57,0.781 1.125,1.351 1.656,1.718 0.531,0.364 1.066,0.547 1.609,0.547 0.426,0 0.786,-0.031 1.079,-0.094 l -0.422,-1.968 h -0.907 c -0.043,0.238 -0.093,0.425 -0.156,0.562 -0.062,0.133 -0.14,0.227 -0.234,0.281 -0.086,0.051 -0.195,0.079 -0.328,0.079 -0.211,0 -0.438,-0.094 -0.688,-0.282 -0.25,-0.179 -0.531,-0.461 -0.844,-0.843 -0.312,-0.387 -0.562,-0.762 -0.75,-1.125 -0.179,-0.356 -0.328,-0.805 -0.453,-1.344 L 314.242,3.83 h -1.531 l 1.281,5.578 c 0.082,0.344 0.133,0.614 0.156,0.813 0.02,0.195 0.032,0.359 0.032,0.484 0,0.227 -0.039,0.395 -0.11,0.5 -0.074,0.114 -0.195,0.172 -0.359,0.172 -0.18,0 -0.371,-0.078 -0.578,-0.234 -0.199,-0.149 -0.477,-0.418 -0.828,-0.813 l -0.5,0.5 c 0.539,0.563 0.988,0.957 1.343,1.188 0.364,0.238 0.77,0.359 1.219,0.359 0.363,0 0.649,-0.121 0.86,-0.359 0.218,-0.242 0.328,-0.559 0.328,-0.953 0,-0.293 -0.059,-0.594 -0.172,-0.907 z" />
        <path
           inkscape:connector-curvature="0"
           id="path897"
           style="fill:#000000;fill-opacity:1;fill-rule:nonzero;stroke:none;stroke-width:1.02343321"
           d="m 319.297,6.436 v 1.25 c 0.5,0.207 0.969,0.363 1.406,0.469 0.445,0.113 0.875,0.171 1.281,0.171 0.332,0 0.645,-0.039 0.938,-0.109 0.301,-0.074 0.555,-0.184 0.766,-0.328 0.218,-0.149 0.382,-0.328 0.5,-0.547 0.125,-0.219 0.187,-0.469 0.187,-0.75 0,-0.273 -0.039,-0.512 -0.109,-0.719 -0.075,-0.211 -0.196,-0.402 -0.36,-0.578 -0.156,-0.168 -0.351,-0.32 -0.578,-0.453 -0.23,-0.137 -0.496,-0.266 -0.797,-0.391 V 4.373 c 0.282,-0.054 0.539,-0.136 0.782,-0.25 0.25,-0.105 0.468,-0.246 0.656,-0.422 0.187,-0.168 0.332,-0.367 0.437,-0.593 0.102,-0.219 0.157,-0.465 0.157,-0.735 0,-0.343 -0.063,-0.664 -0.188,-0.953 -0.125,-0.293 -0.32,-0.543 -0.578,-0.75 -0.25,-0.211 -0.563,-0.375 -0.938,-0.5 -0.375,-0.113 -0.808,-0.172 -1.296,-0.172 -0.399,0 -0.797,0.039 -1.204,0.11 -0.406,0.082 -0.793,0.187 -1.156,0.312 v 1.375 h 0.813 c 0.07,-0.211 0.156,-0.39 0.25,-0.547 0.093,-0.148 0.203,-0.265 0.328,-0.359 0.125,-0.094 0.265,-0.164 0.422,-0.203 0.164,-0.043 0.351,-0.063 0.562,-0.063 0.539,0 0.953,0.125 1.235,0.375 0.281,0.258 0.421,0.657 0.421,1.188 0,0.562 -0.187,0.988 -0.562,1.281 -0.367,0.289 -0.914,0.438 -1.641,0.438 h -0.562 v 0.609 c 0.445,0.019 0.832,0.082 1.156,0.187 0.32,0.102 0.594,0.239 0.813,0.407 0.218,0.164 0.378,0.359 0.484,0.578 0.101,0.219 0.156,0.453 0.156,0.703 0,0.406 -0.121,0.723 -0.359,0.953 -0.242,0.238 -0.59,0.359 -1.047,0.359 -0.387,0 -0.711,-0.109 -0.969,-0.328 -0.262,-0.211 -0.465,-0.523 -0.609,-0.937 z" />
        <path
           inkscape:connector-curvature="0"
           id="path899"
           style="fill:#000000;fill-opacity:1;fill-rule:nonzero;stroke:none;stroke-width:1.02343321"
           d="m 330.523,1.78 c 0,-0.125 0.004,-0.243 0.016,-0.344 0.008,-0.094 0.02,-0.172 0.031,-0.235 0.02,-0.062 0.047,-0.121 0.078,-0.171 0.032,-0.043 0.067,-0.079 0.11,-0.11 0.051,-0.055 0.117,-0.094 0.203,-0.125 0.094,-0.031 0.203,-0.058 0.328,-0.078 0.133,-0.012 0.289,-0.023 0.469,-0.031 0.187,-0.012 0.41,-0.024 0.672,-0.031 V 0.108 h -5.032 v 0.547 c 0.25,0.007 0.457,0.019 0.625,0.031 0.176,0.008 0.329,0.023 0.454,0.047 0.125,0.019 0.222,0.039 0.296,0.062 0.071,0.02 0.133,0.051 0.188,0.094 0.062,0.031 0.113,0.066 0.156,0.109 0.039,0.051 0.071,0.11 0.094,0.172 0.031,0.07 0.051,0.156 0.062,0.25 0.02,0.094 0.032,0.211 0.032,0.36 v 4.562 c 0,0.156 -0.039,0.266 -0.11,0.328 -0.062,0.07 -0.152,0.11 -0.265,0.11 -0.137,0 -0.336,-0.071 -0.594,-0.204 -0.25,-0.136 -0.586,-0.336 -1,-0.593 -0.055,0.093 -0.106,0.187 -0.156,0.281 -0.043,0.101 -0.09,0.207 -0.141,0.312 0.531,0.282 1.051,0.563 1.563,0.844 0.507,0.289 1.031,0.578 1.562,0.86 h 0.391 c -0.012,-0.231 -0.024,-0.438 -0.032,-0.625 z" />
        <path
           inkscape:connector-curvature="0"
           id="path901"
           style="fill:#000000;fill-opacity:1;fill-rule:nonzero;stroke:none;stroke-width:1.02343321"
           d="m 356.066,10.112 c 0.571,0.781 1.125,1.351 1.657,1.718 0.531,0.364 1.066,0.547 1.609,0.547 0.426,0 0.785,-0.031 1.078,-0.094 l -0.422,-1.968 h -0.906 c -0.043,0.238 -0.094,0.425 -0.156,0.562 -0.063,0.133 -0.141,0.227 -0.235,0.281 -0.086,0.051 -0.195,0.079 -0.328,0.079 -0.211,0 -0.437,-0.094 -0.687,-0.282 -0.25,-0.179 -0.531,-0.461 -0.844,-0.843 -0.312,-0.387 -0.562,-0.762 -0.75,-1.125 -0.18,-0.356 -0.328,-0.805 -0.453,-1.344 L 354.801,3.83 h -1.531 l 1.281,5.578 c 0.082,0.344 0.133,0.614 0.156,0.813 0.02,0.195 0.031,0.359 0.031,0.484 0,0.227 -0.039,0.395 -0.109,0.5 -0.074,0.114 -0.195,0.172 -0.359,0.172 -0.18,0 -0.372,-0.078 -0.579,-0.234 -0.199,-0.149 -0.476,-0.418 -0.828,-0.813 l -0.5,0.5 c 0.539,0.563 0.989,0.957 1.344,1.188 0.363,0.238 0.77,0.359 1.219,0.359 0.363,0 0.648,-0.121 0.859,-0.359 0.219,-0.242 0.328,-0.559 0.328,-0.953 0,-0.293 -0.058,-0.594 -0.172,-0.907 z" />
        <path
           inkscape:connector-curvature="0"
           id="path903"
           style="fill:#000000;fill-opacity:1;fill-rule:nonzero;stroke:none;stroke-width:1.02343321"
           d="m 359.855,6.436 v 1.25 c 0.5,0.207 0.969,0.363 1.407,0.469 0.445,0.113 0.875,0.171 1.281,0.171 0.332,0 0.645,-0.039 0.937,-0.109 0.301,-0.074 0.555,-0.184 0.766,-0.328 0.219,-0.149 0.383,-0.328 0.5,-0.547 0.125,-0.219 0.188,-0.469 0.188,-0.75 0,-0.273 -0.039,-0.512 -0.11,-0.719 -0.074,-0.211 -0.195,-0.402 -0.359,-0.578 -0.156,-0.168 -0.352,-0.32 -0.578,-0.453 -0.231,-0.137 -0.496,-0.266 -0.797,-0.391 V 4.373 c 0.281,-0.054 0.539,-0.136 0.781,-0.25 0.25,-0.105 0.469,-0.246 0.656,-0.422 0.188,-0.168 0.332,-0.367 0.438,-0.593 0.101,-0.219 0.156,-0.465 0.156,-0.735 0,-0.343 -0.062,-0.664 -0.187,-0.953 -0.125,-0.293 -0.321,-0.543 -0.579,-0.75 -0.25,-0.211 -0.562,-0.375 -0.937,-0.5 -0.375,-0.113 -0.809,-0.172 -1.297,-0.172 -0.398,0 -0.797,0.039 -1.203,0.11 -0.406,0.082 -0.793,0.187 -1.156,0.312 v 1.375 h 0.812 c 0.071,-0.211 0.156,-0.39 0.25,-0.547 0.094,-0.148 0.203,-0.265 0.328,-0.359 0.125,-0.094 0.266,-0.164 0.422,-0.203 0.164,-0.043 0.352,-0.063 0.563,-0.063 0.539,0 0.953,0.125 1.234,0.375 0.281,0.258 0.422,0.657 0.422,1.188 0,0.562 -0.188,0.988 -0.563,1.281 -0.367,0.289 -0.914,0.438 -1.64,0.438 h -0.563 v 0.609 c 0.446,0.019 0.832,0.082 1.157,0.187 0.32,0.102 0.593,0.239 0.812,0.407 0.219,0.164 0.379,0.359 0.484,0.578 0.102,0.219 0.157,0.453 0.157,0.703 0,0.406 -0.121,0.723 -0.36,0.953 -0.242,0.238 -0.589,0.359 -1.047,0.359 -0.386,0 -0.71,-0.109 -0.968,-0.328 C 361,7.162 360.797,6.85 360.652,6.436 Z" />
        <path
           inkscape:connector-curvature="0"
           id="path905"
           style="fill:#000000;fill-opacity:1;fill-rule:nonzero;stroke:none;stroke-width:1.02343321"
           d="m 371.051,1.139 c 0.195,0 0.351,0.004 0.469,0.016 0.125,0.019 0.222,0.054 0.296,0.109 0.082,0.051 0.149,0.129 0.204,0.234 0.05,0.102 0.113,0.242 0.187,0.422 h 0.594 c -0.024,-0.305 -0.043,-0.605 -0.063,-0.906 -0.023,-0.305 -0.043,-0.606 -0.062,-0.906 h -5.375 v 0.328 c 0.101,0.226 0.222,0.453 0.359,0.672 0.133,0.226 0.285,0.457 0.453,0.687 0.176,0.227 0.367,0.461 0.578,0.703 0.219,0.239 0.457,0.492 0.719,0.766 0.395,0.394 0.719,0.734 0.969,1.016 0.25,0.281 0.445,0.531 0.594,0.75 0.144,0.218 0.242,0.421 0.297,0.609 0.05,0.187 0.078,0.383 0.078,0.594 0,0.218 -0.032,0.414 -0.094,0.593 -0.063,0.188 -0.152,0.344 -0.266,0.469 -0.117,0.125 -0.261,0.223 -0.437,0.297 -0.168,0.07 -0.367,0.109 -0.594,0.109 -0.398,0 -0.73,-0.109 -1,-0.328 -0.262,-0.211 -0.469,-0.515 -0.625,-0.922 h -0.828 v 1.235 c 0.539,0.226 1.039,0.39 1.5,0.484 0.457,0.102 0.867,0.156 1.234,0.156 0.438,0 0.813,-0.054 1.125,-0.156 0.313,-0.094 0.563,-0.226 0.75,-0.39 0.196,-0.168 0.336,-0.372 0.422,-0.61 0.094,-0.242 0.141,-0.496 0.141,-0.765 0,-0.168 -0.016,-0.325 -0.047,-0.469 -0.024,-0.137 -0.063,-0.278 -0.125,-0.422 -0.055,-0.137 -0.125,-0.277 -0.219,-0.422 -0.094,-0.137 -0.211,-0.281 -0.344,-0.437 -0.105,-0.137 -0.246,-0.293 -0.421,-0.469 -0.168,-0.18 -0.352,-0.371 -0.547,-0.578 -0.2,-0.2 -0.414,-0.407 -0.641,-0.625 -0.219,-0.219 -0.434,-0.438 -0.641,-0.657 -0.199,-0.218 -0.386,-0.433 -0.562,-0.64 -0.18,-0.199 -0.32,-0.383 -0.422,-0.547 z" />
        <path
           inkscape:connector-curvature="0"
           id="path907"
           style="fill:#000000;fill-opacity:1;fill-rule:nonzero;stroke:none;stroke-width:1.02343321"
           d="m 396.508,10.112 c 0.57,0.781 1.125,1.351 1.656,1.718 0.531,0.364 1.066,0.547 1.609,0.547 0.426,0 0.786,-0.031 1.079,-0.094 l -0.422,-1.968 h -0.907 c -0.043,0.238 -0.093,0.425 -0.156,0.562 -0.062,0.133 -0.14,0.227 -0.234,0.281 -0.086,0.051 -0.195,0.079 -0.328,0.079 -0.211,0 -0.438,-0.094 -0.688,-0.282 -0.25,-0.179 -0.531,-0.461 -0.844,-0.843 -0.312,-0.387 -0.562,-0.762 -0.75,-1.125 -0.179,-0.356 -0.328,-0.805 -0.453,-1.344 L 395.242,3.83 h -1.531 l 1.281,5.578 c 0.082,0.344 0.133,0.614 0.156,0.813 0.02,0.195 0.032,0.359 0.032,0.484 0,0.227 -0.039,0.395 -0.11,0.5 -0.074,0.114 -0.195,0.172 -0.359,0.172 -0.18,0 -0.371,-0.078 -0.578,-0.234 -0.199,-0.149 -0.477,-0.418 -0.828,-0.813 l -0.5,0.5 c 0.539,0.563 0.988,0.957 1.343,1.188 0.364,0.238 0.77,0.359 1.219,0.359 0.363,0 0.649,-0.121 0.86,-0.359 0.218,-0.242 0.328,-0.559 0.328,-0.953 0,-0.293 -0.059,-0.594 -0.172,-0.907 z" />
        <path
           inkscape:connector-curvature="0"
           id="path909"
           style="fill:#000000;fill-opacity:1;fill-rule:nonzero;stroke:none;stroke-width:1.02343321"
           d="m 400.324,6.436 v 1.25 c 0.5,0.207 0.969,0.363 1.406,0.469 0.446,0.113 0.875,0.171 1.282,0.171 0.332,0 0.644,-0.039 0.937,-0.109 0.301,-0.074 0.555,-0.184 0.766,-0.328 0.219,-0.149 0.383,-0.328 0.5,-0.547 0.125,-0.219 0.187,-0.469 0.187,-0.75 0,-0.273 -0.039,-0.512 -0.109,-0.719 -0.074,-0.211 -0.195,-0.402 -0.359,-0.578 -0.157,-0.168 -0.352,-0.32 -0.579,-0.453 -0.23,-0.137 -0.496,-0.266 -0.796,-0.391 V 4.373 c 0.281,-0.054 0.539,-0.136 0.781,-0.25 0.25,-0.105 0.469,-0.246 0.656,-0.422 0.188,-0.168 0.332,-0.367 0.438,-0.593 0.101,-0.219 0.156,-0.465 0.156,-0.735 0,-0.343 -0.063,-0.664 -0.188,-0.953 -0.125,-0.293 -0.32,-0.543 -0.578,-0.75 -0.25,-0.211 -0.562,-0.375 -0.937,-0.5 -0.375,-0.113 -0.809,-0.172 -1.297,-0.172 -0.399,0 -0.797,0.039 -1.203,0.11 -0.407,0.082 -0.793,0.187 -1.157,0.312 v 1.375 h 0.813 c 0.07,-0.211 0.156,-0.39 0.25,-0.547 0.094,-0.148 0.203,-0.265 0.328,-0.359 0.125,-0.094 0.266,-0.164 0.422,-0.203 0.164,-0.043 0.352,-0.063 0.562,-0.063 0.54,0 0.954,0.125 1.235,0.375 0.281,0.258 0.422,0.657 0.422,1.188 0,0.562 -0.188,0.988 -0.563,1.281 -0.367,0.289 -0.914,0.438 -1.64,0.438 h -0.563 v 0.609 c 0.445,0.019 0.832,0.082 1.156,0.187 0.321,0.102 0.594,0.239 0.813,0.407 0.219,0.164 0.379,0.359 0.484,0.578 0.102,0.219 0.156,0.453 0.156,0.703 0,0.406 -0.121,0.723 -0.359,0.953 -0.242,0.238 -0.59,0.359 -1.047,0.359 -0.386,0 -0.711,-0.109 -0.969,-0.328 -0.261,-0.211 -0.464,-0.523 -0.609,-0.937 z" />
        <path
           inkscape:connector-curvature="0"
           id="path911"
           style="fill:#000000;fill-opacity:1;fill-rule:nonzero;stroke:none;stroke-width:1.02343321"
           d="m 408.004,6.436 v 1.25 c 0.5,0.207 0.969,0.363 1.406,0.469 0.445,0.113 0.875,0.171 1.281,0.171 0.332,0 0.645,-0.039 0.938,-0.109 0.301,-0.074 0.555,-0.184 0.766,-0.328 0.218,-0.149 0.382,-0.328 0.5,-0.547 0.125,-0.219 0.187,-0.469 0.187,-0.75 0,-0.273 -0.039,-0.512 -0.109,-0.719 -0.075,-0.211 -0.196,-0.402 -0.36,-0.578 -0.156,-0.168 -0.351,-0.32 -0.578,-0.453 -0.23,-0.137 -0.496,-0.266 -0.797,-0.391 V 4.373 c 0.282,-0.054 0.539,-0.136 0.782,-0.25 0.25,-0.105 0.468,-0.246 0.656,-0.422 0.187,-0.168 0.332,-0.367 0.437,-0.593 0.102,-0.219 0.157,-0.465 0.157,-0.735 0,-0.343 -0.063,-0.664 -0.188,-0.953 -0.125,-0.293 -0.32,-0.543 -0.578,-0.75 -0.25,-0.211 -0.563,-0.375 -0.938,-0.5 -0.375,-0.113 -0.808,-0.172 -1.296,-0.172 -0.399,0 -0.797,0.039 -1.204,0.11 -0.406,0.082 -0.793,0.187 -1.156,0.312 v 1.375 h 0.813 c 0.07,-0.211 0.156,-0.39 0.25,-0.547 0.093,-0.148 0.203,-0.265 0.328,-0.359 0.125,-0.094 0.265,-0.164 0.422,-0.203 0.164,-0.043 0.351,-0.063 0.562,-0.063 0.539,0 0.953,0.125 1.235,0.375 0.281,0.258 0.421,0.657 0.421,1.188 0,0.562 -0.187,0.988 -0.562,1.281 -0.367,0.289 -0.914,0.438 -1.641,0.438 h -0.562 v 0.609 c 0.445,0.019 0.832,0.082 1.156,0.187 0.32,0.102 0.594,0.239 0.813,0.407 0.218,0.164 0.378,0.359 0.484,0.578 0.101,0.219 0.156,0.453 0.156,0.703 0,0.406 -0.121,0.723 -0.359,0.953 -0.242,0.238 -0.59,0.359 -1.047,0.359 -0.387,0 -0.711,-0.109 -0.969,-0.328 -0.262,-0.211 -0.465,-0.523 -0.609,-0.937 z" />
        <path
           inkscape:connector-curvature="0"
           id="path913"
           style="fill:#000000;fill-opacity:1;fill-rule:evenodd;stroke:none;stroke-width:1.02343321"
           d="m 443.352,54.108 h 4.781 V 0.729 h -4.781 v 0.859 h 2.968 v 51.66 h -2.968 z m -16.039,0 h 4.789 v -0.86 h -2.969 V 1.588 h 2.969 V 0.729 h -4.789 z" />
        <path
           inkscape:connector-curvature="0"
           id="path915"
           style="fill:#000000;fill-opacity:1;fill-rule:nonzero;stroke:none;stroke-width:1.02343321"
           d="m 436.898,48.139 c -0.085,0.469 -0.171,0.914 -0.265,1.344 -0.094,0.425 -0.195,0.82 -0.297,1.187 -0.094,0.375 -0.18,0.617 -0.25,0.735 -0.063,0.113 -0.133,0.191 -0.203,0.234 -0.074,0.039 -0.164,0.062 -0.266,0.062 -0.125,0 -0.242,-0.031 -0.344,-0.093 -0.093,-0.055 -0.203,-0.149 -0.328,-0.282 -0.117,-0.136 -0.265,-0.351 -0.453,-0.64 l -0.578,0.375 c 0.375,0.551 0.727,0.961 1.063,1.234 0.343,0.281 0.742,0.422 1.203,0.422 0.187,0 0.347,-0.023 0.484,-0.062 0.133,-0.043 0.254,-0.106 0.359,-0.188 0.102,-0.086 0.196,-0.195 0.282,-0.328 0.082,-0.137 0.16,-0.32 0.234,-0.547 0.082,-0.23 0.156,-0.516 0.219,-0.859 0.07,-0.344 0.133,-0.7 0.187,-1.063 h 0.078 c 0.563,0.789 0.989,1.367 1.282,1.735 0.289,0.363 0.535,0.632 0.734,0.812 0.195,0.176 0.391,0.301 0.578,0.375 0.188,0.07 0.43,0.109 0.735,0.109 0.269,0 0.492,-0.039 0.671,-0.109 l -0.343,-1.578 h -0.625 c -0.032,0.238 -0.133,0.359 -0.297,0.359 -0.055,0 -0.11,-0.011 -0.172,-0.031 -0.063,-0.012 -0.137,-0.047 -0.219,-0.109 -0.086,-0.055 -0.211,-0.168 -0.375,-0.344 -0.156,-0.168 -0.34,-0.375 -0.547,-0.625 -0.211,-0.242 -0.422,-0.496 -0.64,-0.766 l -0.594,-0.75 c 0.102,-0.562 0.203,-1.054 0.297,-1.468 0.094,-0.407 0.176,-0.747 0.25,-1.016 0.07,-0.274 0.133,-0.484 0.187,-0.641 0.063,-0.156 0.125,-0.277 0.188,-0.359 0.062,-0.086 0.125,-0.141 0.187,-0.172 0.071,-0.031 0.157,-0.047 0.25,-0.047 0.157,0 0.305,0.063 0.453,0.188 0.157,0.125 0.375,0.406 0.657,0.843 l 0.562,-0.39 c -0.406,-0.606 -0.777,-1.031 -1.109,-1.281 -0.336,-0.25 -0.731,-0.375 -1.188,-0.375 -0.25,0 -0.465,0.046 -0.64,0.14 -0.18,0.082 -0.328,0.223 -0.453,0.422 -0.125,0.207 -0.243,0.52 -0.344,0.938 -0.18,0.75 -0.289,1.32 -0.328,1.718 h -0.094 c -0.617,-0.867 -1.074,-1.492 -1.375,-1.875 -0.305,-0.375 -0.555,-0.656 -0.75,-0.843 -0.199,-0.18 -0.391,-0.305 -0.578,-0.375 -0.188,-0.071 -0.434,-0.11 -0.735,-0.11 -0.273,0 -0.496,0.031 -0.671,0.094 l 0.343,1.594 h 0.625 c 0.032,-0.243 0.129,-0.36 0.297,-0.36 0.082,0 0.172,0.02 0.266,0.063 0.094,0.039 0.222,0.144 0.39,0.312 0.165,0.164 0.399,0.426 0.704,0.782 0.3,0.363 0.734,0.898 1.296,1.609 z" />
        <path
           inkscape:connector-curvature="0"
           id="path917"
           style="fill:#000000;fill-opacity:1;fill-rule:nonzero;stroke:none;stroke-width:1.02343321"
           d="m 436.887,23.014 c -0.168,1.019 -0.399,2.254 -0.688,3.703 -0.312,1.551 -0.523,2.508 -0.625,2.875 -0.125,0.445 -0.25,0.734 -0.375,0.859 -0.086,0.071 -0.187,0.11 -0.312,0.11 -0.188,0 -0.367,-0.078 -0.532,-0.235 -0.167,-0.148 -0.371,-0.406 -0.609,-0.781 l -0.562,0.375 c 0.406,0.602 0.781,1.031 1.125,1.281 0.351,0.25 0.75,0.375 1.187,0.375 0.238,0 0.442,-0.031 0.609,-0.093 0.114,-0.055 0.227,-0.137 0.344,-0.25 0.125,-0.106 0.227,-0.258 0.313,-0.453 0.093,-0.188 0.172,-0.403 0.234,-0.641 0.07,-0.242 0.149,-0.586 0.234,-1.031 0.145,-0.762 0.282,-1.559 0.407,-2.391 0.133,-0.836 0.25,-1.609 0.343,-2.328 0.563,0.82 1.04,1.625 1.438,2.406 0.395,0.789 0.68,1.473 0.859,2.047 0.176,0.582 0.266,1.055 0.266,1.422 0,0.269 -0.063,0.457 -0.188,0.562 -0.117,0.102 -0.312,0.161 -0.593,0.172 l 0.093,0.438 h 2.313 l 0.234,-0.438 c -0.449,-1.218 -1.054,-2.527 -1.812,-3.922 -0.75,-1.355 -1.61,-2.711 -2.578,-4.062 -0.93,-1.281 -1.699,-2.207 -2.313,-2.781 -0.429,-0.395 -0.84,-0.676 -1.234,-0.844 -0.324,-0.125 -0.664,-0.188 -1.016,-0.188 -0.125,0 -0.273,0.012 -0.437,0.032 -0.157,0.023 -0.278,0.047 -0.36,0.078 l 0.375,1.703 h 0.703 c 0,-0.375 0.125,-0.563 0.375,-0.563 0.344,0 0.739,0.215 1.188,0.641 0.457,0.43 0.988,1.07 1.594,1.922 z" />
        <path
           inkscape:connector-curvature="0"
           id="path919"
           style="fill:#000000;fill-opacity:1;fill-rule:nonzero;stroke:none;stroke-width:1.02343321"
           d="m 440.473,4.377 -0.532,-2.469 h -6.359 l -0.172,0.438 4.813,5.531 c 0.675,0.781 1.172,1.332 1.484,1.656 l -0.047,0.063 h -2.062 c -0.305,0 -0.528,-0.024 -0.672,-0.063 -0.137,-0.043 -0.278,-0.117 -0.422,-0.218 -0.137,-0.094 -0.289,-0.246 -0.453,-0.453 -0.156,-0.2 -0.336,-0.485 -0.531,-0.86 h -0.782 l 0.516,2.313 h 6.25 l 0.172,-0.438 -4.188,-4.828 c -0.824,-0.93 -1.531,-1.715 -2.125,-2.359 l 0.047,-0.063 h 1.985 c 0.351,0 0.625,0.016 0.812,0.047 0.188,0.039 0.348,0.113 0.484,0.219 0.145,0.101 0.289,0.258 0.438,0.469 0.156,0.218 0.344,0.554 0.562,1.015 z" />
        <path
           inkscape:connector-curvature="0"
           id="path921"
           style="fill:#5999d4;fill-opacity:1;fill-rule:evenodd;stroke:#3f709c;stroke-width:0.98249584;stroke-linecap:butt;stroke-linejoin:miter;stroke-miterlimit:10;stroke-dasharray:none;stroke-opacity:1"
           d="m 60.301,207.838 c 0,4.141 3.359,7.5 7.5,7.5 4.14,0 7.5,-3.359 7.5,-7.5 0,-4.141 -3.36,-7.5 -7.5,-7.5 -4.141,0 -7.5,3.359 -7.5,7.5 z" />
        <path
           inkscape:connector-curvature="0"
           id="path923"
           style="fill:none;stroke:#5999d4;stroke-width:0.49124792;stroke-linecap:butt;stroke-linejoin:miter;stroke-miterlimit:10;stroke-dasharray:none;stroke-opacity:1"
           d="m 67.742,118.338 v 82" />
        <path
           inkscape:connector-curvature="0"
           id="path925"
           style="fill:none;stroke:#5999d4;stroke-width:0.49124792;stroke-linecap:butt;stroke-linejoin:miter;stroke-miterlimit:10;stroke-dasharray:none;stroke-opacity:1"
           d="M 30.902,208.139 60.301,207.76" />
        <path
           inkscape:connector-curvature="0"
           id="path927"
           style="fill:#000000;fill-opacity:1;fill-rule:nonzero;stroke:none;stroke-width:1.02343321"
           d="m 18.754,29.014 c 0.539,0.687 1.062,1.187 1.562,1.5 0.5,0.32 1.082,0.484 1.75,0.484 0.664,0 1.18,-0.242 1.547,-0.718 0.364,-0.481 0.547,-1.172 0.547,-2.079 0,-0.793 -0.117,-1.578 -0.344,-2.359 -0.23,-0.781 -0.558,-1.461 -0.984,-2.031 -0.43,-0.563 -0.965,-1.008 -1.609,-1.328 -0.649,-0.325 -1.383,-0.485 -2.203,-0.485 -0.524,0 -1.024,0.09 -1.5,0.266 l -0.344,-1.563 c -0.055,-0.25 -0.09,-0.445 -0.11,-0.593 -0.023,-0.145 -0.031,-0.282 -0.031,-0.407 0,-0.25 0.063,-0.425 0.188,-0.531 0.132,-0.113 0.363,-0.191 0.687,-0.234 L 17.816,18.358 H 14.16 l 2.219,9.89 c 0.094,0.395 0.141,0.688 0.141,0.875 0,0.188 -0.04,0.332 -0.11,0.438 -0.062,0.101 -0.172,0.156 -0.328,0.156 -0.18,0 -0.375,-0.086 -0.594,-0.25 -0.211,-0.156 -0.453,-0.398 -0.734,-0.719 l -0.625,0.641 c 0.582,0.594 1.098,1.008 1.547,1.25 0.457,0.238 0.937,0.359 1.437,0.359 0.489,0 0.879,-0.136 1.172,-0.406 0.289,-0.273 0.438,-0.633 0.438,-1.078 0,-0.149 -0.024,-0.289 -0.063,-0.422 z m -0.641,-3.625 c -0.093,-0.43 -0.14,-0.852 -0.14,-1.266 0,-0.429 0.07,-0.734 0.218,-0.922 0.145,-0.187 0.391,-0.281 0.735,-0.281 0.289,0 0.554,0.063 0.797,0.188 0.238,0.132 0.461,0.347 0.672,0.64 0.218,0.301 0.425,0.688 0.625,1.157 0.207,0.476 0.382,1.046 0.531,1.703 0.144,0.656 0.219,1.265 0.219,1.828 0,0.426 -0.063,0.742 -0.188,0.953 -0.125,0.207 -0.324,0.312 -0.594,0.312 -0.386,0 -0.781,-0.187 -1.187,-0.562 -0.399,-0.375 -0.715,-0.813 -0.953,-1.313 -0.243,-0.5 -0.461,-1.203 -0.657,-2.109 z" />
        <path
           inkscape:connector-curvature="0"
           id="path929"
           style="fill:#000000;fill-opacity:1;fill-rule:nonzero;stroke:none;stroke-width:1.02343321"
           d="m 31.305,28.514 v 1.172 h 10.828 v -1.172 z m 0,-3.641 v 1.172 h 10.828 v -1.172 z" />
        <path
           inkscape:connector-curvature="0"
           id="path931"
           style="fill:#000000;fill-opacity:1;fill-rule:nonzero;stroke:none;stroke-width:1.02343321"
           d="m 51.582,26.592 c 0,-2.055 0.328,-3.746 0.984,-5.078 0.657,-1.332 1.661,-2.223 3.016,-2.672 L 55.379,18.17 c -1.719,0.449 -3.039,1.418 -3.953,2.906 -0.918,1.489 -1.375,3.297 -1.375,5.422 0,2.114 0.457,3.922 1.375,5.422 0.914,1.5 2.234,2.473 3.953,2.922 l 0.234,-0.672 c -1.375,-0.461 -2.39,-1.344 -3.047,-2.656 -0.656,-1.305 -0.984,-2.945 -0.984,-4.922 z" />
        <path
           inkscape:connector-curvature="0"
           id="path933"
           style="fill:#000000;fill-opacity:1;fill-rule:nonzero;stroke:none;stroke-width:1.02343321"
           d="m 60.219,26.108 c -0.086,0.468 -0.172,0.914 -0.266,1.343 -0.094,0.426 -0.195,0.821 -0.297,1.188 -0.093,0.375 -0.179,0.617 -0.25,0.734 -0.062,0.114 -0.133,0.192 -0.203,0.235 -0.074,0.039 -0.164,0.062 -0.265,0.062 -0.125,0 -0.243,-0.031 -0.344,-0.094 C 58.5,29.522 58.391,29.428 58.266,29.295 58.148,29.158 58,28.944 57.813,28.655 l -0.579,0.375 c 0.375,0.55 0.727,0.96 1.063,1.234 0.344,0.281 0.742,0.422 1.203,0.422 0.188,0 0.348,-0.024 0.484,-0.063 0.133,-0.043 0.254,-0.105 0.36,-0.187 0.101,-0.086 0.195,-0.196 0.281,-0.328 0.082,-0.137 0.16,-0.321 0.234,-0.547 0.082,-0.231 0.157,-0.516 0.219,-0.86 0.07,-0.343 0.133,-0.699 0.188,-1.062 h 0.078 c 0.562,0.789 0.988,1.367 1.281,1.734 0.289,0.364 0.535,0.633 0.734,0.813 0.196,0.176 0.391,0.301 0.579,0.375 0.187,0.07 0.429,0.109 0.734,0.109 0.269,0 0.492,-0.039 0.672,-0.109 L 65,28.983 h -0.625 c -0.031,0.238 -0.133,0.359 -0.297,0.359 -0.055,0 -0.109,-0.012 -0.172,-0.031 -0.062,-0.012 -0.136,-0.047 -0.218,-0.11 -0.086,-0.054 -0.211,-0.168 -0.375,-0.343 -0.157,-0.168 -0.34,-0.375 -0.547,-0.625 -0.211,-0.243 -0.422,-0.496 -0.641,-0.766 l -0.594,-0.75 c 0.102,-0.562 0.203,-1.055 0.297,-1.469 0.094,-0.406 0.176,-0.746 0.25,-1.015 0.07,-0.274 0.133,-0.485 0.188,-0.641 0.062,-0.156 0.125,-0.277 0.187,-0.359 0.063,-0.086 0.125,-0.141 0.188,-0.172 0.07,-0.031 0.156,-0.047 0.25,-0.047 0.156,0 0.304,0.062 0.453,0.187 0.156,0.125 0.375,0.407 0.656,0.844 l 0.563,-0.39 c -0.407,-0.606 -0.778,-1.032 -1.11,-1.282 -0.336,-0.25 -0.73,-0.375 -1.187,-0.375 -0.25,0 -0.465,0.047 -0.641,0.141 -0.18,0.082 -0.328,0.223 -0.453,0.422 -0.125,0.207 -0.242,0.519 -0.344,0.937 -0.18,0.75 -0.289,1.321 -0.328,1.719 h -0.094 c -0.617,-0.867 -1.074,-1.492 -1.375,-1.875 -0.304,-0.375 -0.554,-0.656 -0.75,-0.844 -0.199,-0.179 -0.39,-0.304 -0.578,-0.375 -0.187,-0.07 -0.433,-0.109 -0.734,-0.109 -0.274,0 -0.496,0.031 -0.672,0.094 l 0.344,1.593 h 0.625 c 0.031,-0.242 0.129,-0.359 0.297,-0.359 0.082,0 0.171,0.02 0.265,0.063 0.094,0.039 0.223,0.144 0.391,0.312 0.164,0.164 0.398,0.426 0.703,0.781 0.301,0.364 0.734,0.899 1.297,1.61 z" />
        <path
           inkscape:connector-curvature="0"
           id="path935"
           style="fill:#000000;fill-opacity:1;fill-rule:nonzero;stroke:none;stroke-width:1.02343321"
           d="m 68.832,24.186 c 0.082,-0.418 0.125,-0.824 0.125,-1.219 0,-0.406 -0.074,-0.781 -0.219,-1.125 -0.136,-0.344 -0.359,-0.68 -0.672,-1.016 -0.304,-0.332 -0.726,-0.703 -1.265,-1.109 l -0.469,0.531 c 0.289,0.282 0.504,0.539 0.641,0.766 0.132,0.219 0.226,0.476 0.281,0.766 0.062,0.292 0.094,0.648 0.094,1.078 0,0.445 -0.024,0.89 -0.063,1.328 z" />
        <path
           inkscape:connector-curvature="0"
           id="path937"
           style="fill:#000000;fill-opacity:1;fill-rule:nonzero;stroke:none;stroke-width:1.02343321"
           d="m 77.25,22.123 c -0.168,1.02 -0.398,2.254 -0.687,3.703 -0.313,1.551 -0.524,2.508 -0.625,2.875 -0.125,0.446 -0.25,0.735 -0.375,0.86 -0.086,0.07 -0.188,0.109 -0.313,0.109 -0.187,0 -0.367,-0.078 -0.531,-0.234 -0.168,-0.149 -0.371,-0.406 -0.61,-0.781 l -0.562,0.375 c 0.406,0.601 0.781,1.031 1.125,1.281 0.351,0.25 0.75,0.375 1.187,0.375 0.239,0 0.442,-0.031 0.61,-0.094 0.113,-0.055 0.226,-0.137 0.344,-0.25 0.125,-0.105 0.226,-0.258 0.312,-0.453 0.094,-0.188 0.172,-0.402 0.234,-0.641 0.071,-0.242 0.149,-0.586 0.235,-1.031 0.144,-0.762 0.281,-1.559 0.406,-2.391 0.133,-0.836 0.25,-1.609 0.344,-2.328 0.562,0.821 1.039,1.625 1.437,2.407 0.395,0.789 0.68,1.472 0.86,2.046 0.175,0.582 0.265,1.055 0.265,1.422 0,0.27 -0.062,0.457 -0.187,0.563 -0.117,0.101 -0.313,0.16 -0.594,0.172 l 0.094,0.437 h 2.312 l 0.235,-0.437 c -0.45,-1.219 -1.055,-2.528 -1.813,-3.922 -0.75,-1.356 -1.609,-2.711 -2.578,-4.063 -0.93,-1.281 -1.699,-2.207 -2.312,-2.781 -0.43,-0.395 -0.84,-0.676 -1.235,-0.844 -0.324,-0.125 -0.664,-0.187 -1.015,-0.187 -0.125,0 -0.274,0.011 -0.438,0.031 -0.156,0.023 -0.277,0.047 -0.359,0.078 l 0.375,1.703 h 0.703 c 0,-0.375 0.125,-0.562 0.375,-0.562 0.344,0 0.738,0.215 1.187,0.64 0.457,0.43 0.989,1.071 1.594,1.922 z" />
        <path
           inkscape:connector-curvature="0"
           id="path939"
           style="fill:#000000;fill-opacity:1;fill-rule:nonzero;stroke:none;stroke-width:1.02343321"
           d="m 86.109,24.186 c 0.082,-0.418 0.125,-0.824 0.125,-1.219 0,-0.406 -0.074,-0.781 -0.218,-1.125 -0.137,-0.344 -0.36,-0.68 -0.672,-1.016 -0.305,-0.332 -0.727,-0.703 -1.266,-1.109 l -0.469,0.531 c 0.289,0.282 0.504,0.539 0.641,0.766 0.133,0.219 0.227,0.476 0.281,0.766 0.063,0.292 0.094,0.648 0.094,1.078 0,0.445 -0.023,0.89 -0.062,1.328 z" />
        <path
           inkscape:connector-curvature="0"
           id="path941"
           style="fill:#000000;fill-opacity:1;fill-rule:nonzero;stroke:none;stroke-width:1.02343321"
           d="m 97.395,24.608 -0.532,-2.469 h -6.359 l -0.172,0.437 4.813,5.532 c 0.675,0.781 1.171,1.332 1.484,1.656 l -0.047,0.062 H 94.52 c -0.305,0 -0.528,-0.023 -0.672,-0.062 -0.137,-0.043 -0.278,-0.117 -0.422,-0.219 -0.137,-0.094 -0.289,-0.246 -0.453,-0.453 -0.157,-0.199 -0.336,-0.484 -0.532,-0.859 H 91.66 l 0.516,2.312 h 6.25 L 98.598,30.108 94.41,25.28 c -0.824,-0.93 -1.531,-1.715 -2.125,-2.36 l 0.047,-0.062 h 1.984 c 0.352,0 0.625,0.015 0.813,0.047 0.187,0.039 0.348,0.113 0.484,0.218 0.145,0.102 0.289,0.258 0.438,0.469 0.156,0.219 0.344,0.555 0.562,1.016 z" />
        <path
           inkscape:connector-curvature="0"
           id="path943"
           style="fill:#000000;fill-opacity:1;fill-rule:nonzero;stroke:none;stroke-width:1.02343321"
           d="m 103.488,26.592 c 0,1.977 -0.328,3.617 -0.984,4.922 -0.656,1.312 -1.68,2.195 -3.063,2.656 l 0.25,0.672 c 1.707,-0.449 3.02,-1.422 3.938,-2.922 0.914,-1.5 1.375,-3.308 1.375,-5.422 0,-2.125 -0.461,-3.933 -1.375,-5.422 -0.918,-1.488 -2.231,-2.457 -3.938,-2.906 l -0.218,0.672 c 1.351,0.449 2.359,1.34 3.015,2.672 0.664,1.332 1,3.023 1,5.078 z" />
        <path
           inkscape:connector-curvature="0"
           id="path945"
           style="fill:none;stroke:#eb7a30;stroke-width:0.49124792;stroke-linecap:butt;stroke-linejoin:miter;stroke-miterlimit:10;stroke-dasharray:1.96499175, 1.47374381;stroke-dashoffset:0;stroke-opacity:1"
           d="M 403.262,118.869 421.77,168.42" />
        <path
           inkscape:connector-curvature="0"
           id="path947"
           style="fill:none;stroke:#eb7a30;stroke-width:0.49124792;stroke-linecap:butt;stroke-linejoin:miter;stroke-miterlimit:10;stroke-dasharray:1.96499175, 1.47374381;stroke-dashoffset:0;stroke-opacity:1"
           d="m 403.23,67.709 -1.289,39.988" />
        <path
           inkscape:connector-curvature="0"
           id="path949"
           style="fill:none;stroke:#eb7a30;stroke-width:0.49124792;stroke-linecap:butt;stroke-linejoin:miter;stroke-miterlimit:10;stroke-dasharray:1.96499175, 1.47374381;stroke-dashoffset:0;stroke-opacity:1"
           d="M 403.23,67.74 H 326.941" />
        <path
           inkscape:connector-curvature="0"
           id="path951"
           style="fill:none;stroke:#eb7a30;stroke-width:0.49124792;stroke-linecap:butt;stroke-linejoin:miter;stroke-miterlimit:10;stroke-dasharray:1.96499175, 1.47374381;stroke-dashoffset:0;stroke-opacity:1"
           d="m 403.262,67.748 18.508,49.551" />
        <path
           inkscape:connector-curvature="0"
           id="path953"
           style="fill:none;stroke:#eb7a30;stroke-width:0.49124792;stroke-linecap:butt;stroke-linejoin:miter;stroke-miterlimit:10;stroke-dasharray:1.96499175, 1.47374381;stroke-dashoffset:0;stroke-opacity:1"
           d="M 422.461,120.268 V 160.26" />
        <path
           inkscape:connector-curvature="0"
           id="path955"
           style="fill:none;stroke:#eb7a30;stroke-width:0.49124792;stroke-linecap:butt;stroke-linejoin:miter;stroke-miterlimit:10;stroke-dasharray:1.96499175, 1.47374381;stroke-dashoffset:0;stroke-opacity:1"
           d="M 403.23,115.26 H 326.941" />
        <path
           inkscape:connector-curvature="0"
           id="path957"
           style="fill:none;stroke:#eb7a30;stroke-width:0.49124792;stroke-linecap:butt;stroke-linejoin:miter;stroke-miterlimit:10;stroke-dasharray:1.96499175, 1.47374381;stroke-dashoffset:0;stroke-opacity:1"
           d="m 324.781,71.908 v 39.993" />
        <path
           inkscape:connector-curvature="0"
           id="path959"
           style="fill:none;stroke:#eb7a30;stroke-width:0.49124792;stroke-linecap:butt;stroke-linejoin:miter;stroke-miterlimit:10;stroke-dasharray:1.96499175, 1.47374381;stroke-dashoffset:0;stroke-opacity:1"
           d="m 325.262,115.151 18.508,49.546" />
        <path
           inkscape:connector-curvature="0"
           id="path961"
           style="fill:none;stroke:#eb7a30;stroke-width:0.49124792;stroke-linecap:butt;stroke-linejoin:miter;stroke-miterlimit:10;stroke-dasharray:1.96499175, 1.47374381;stroke-dashoffset:0;stroke-opacity:1"
           d="M 422.793,168.541 H 346.5" />
        <path
           inkscape:connector-curvature="0"
           id="path963"
           style="fill:#5999d4;fill-opacity:1;fill-rule:nonzero;stroke:none;stroke-width:1.02343321"
           d="m 122.191,232.248 2.629,1.082 2.961,1.098 3.239,1.09 3.453,1.082 3.679,1.051 3.899,1.027 4.09,0.992 4.269,0.961 4.442,0.93 4.601,0.867 4.738,0.84 4.86,0.773 10.019,1.36 10.371,1.089 10.571,0.77 10.66,0.418 10.629,0.012 10.492,-0.422 5.187,-0.399 5.071,-0.511 4.992,-0.649 4.879,-0.789 4.75,-0.93 4.609,-1.07 4.469,-1.23 4.313,-1.399 4.207,-1.531 4.21,-1.66 4.25,-1.781 4.25,-1.899 4.262,-2.019 4.27,-2.161 4.269,-2.25 4.262,-2.382 4.25,-2.5 4.219,-2.598 4.211,-2.711 4.168,-2.809 4.129,-2.921 4.093,-3.02 4.039,-3.121 3.989,-3.219 3.922,-3.308 3.859,-3.403 3.789,-3.5 3.699,-3.57 3.621,-3.668 3.532,-3.762 3.437,-3.828 3.332,-3.922 3.219,-3.988 3.09,-4.063 2.992,-4.128 2.847,-4.211 2.723,-4.278 2.578,-4.34 2.43,-4.421 0.23,-0.438 -4.058,-2.082 -0.172,0.32 -2.348,4.289 -2.511,4.223 -2.649,4.168 -2.773,4.102 -2.91,4.039 -3.028,3.961 -3.14,3.898 -3.25,3.832 -3.36,3.75 -3.449,3.668 -3.551,3.59 -3.629,3.512 -3.711,3.429 -3.781,3.328 -3.84,3.25 -3.918,3.161 -3.961,3.062 -4.019,2.957 -4.043,2.871 -4.098,2.762 -4.121,2.66 -4.141,2.547 -4.167,2.441 -4.172,2.328 -4.18,2.223 -4.168,2.098 -4.18,1.992 -4.152,1.859 -4.141,1.739 -4.109,1.621 -4.059,1.48 -4.109,1.332 -4.293,1.188 -4.457,1.039 -4.613,0.902 -4.727,0.77 -4.863,0.629 -4.957,0.5 -5.02,0.39 -10.312,0.422 -10.449,-0.012 -10.512,-0.41 -10.43,-0.762 -10.219,-1.066 -9.921,-1.351 -4.797,-0.762 -4.672,-0.809 -4.52,-0.871 -4.359,-0.898 -4.211,-0.95 -4,-0.972 -3.801,-1 -3.578,-1.028 -3.359,-1.043 -3.09,-1.039 -2.832,-1.05 -2.621,-1.078 z m 265.372,-74.718 -1.102,-19.719 -16.621,10.66 c -1.059,0.68 -1.36,2.09 -0.688,3.148 0.68,1.059 2.09,1.371 3.149,0.692 l 13.34,-8.551 -3.508,-1.789 0.879,15.809 c 0.07,1.261 1.148,2.218 2.398,2.148 1.262,-0.07 2.223,-1.148 2.153,-2.398 z" />
        <path
           inkscape:connector-curvature="0"
           id="path965"
           style="fill:none;stroke:#5999d4;stroke-width:0.49124792;stroke-linecap:butt;stroke-linejoin:miter;stroke-miterlimit:10;stroke-dasharray:none;stroke-opacity:1"
           d="m 332.941,141.061 67.2,-25.891" />
        <path
           inkscape:connector-curvature="0"
           id="path967"
           style="fill:none;stroke:#5999d4;stroke-width:0.49124792;stroke-linecap:butt;stroke-linejoin:miter;stroke-miterlimit:10;stroke-dasharray:none;stroke-opacity:1"
           d="M 398.82,115.26 411.422,91.6" />
        <path
           inkscape:connector-curvature="0"
           id="path969"
           style="fill:#2b73b5;fill-opacity:1;fill-rule:evenodd;stroke:#1e4c78;stroke-width:0.98249584;stroke-linecap:butt;stroke-linejoin:miter;stroke-miterlimit:10;stroke-dasharray:none;stroke-opacity:1"
           d="m 394.5,115.197 c 0,4.141 3.363,7.5 7.5,7.5 4.141,0 7.5,-3.359 7.5,-7.5 0,-4.136 -3.359,-7.5 -7.5,-7.5 -4.137,0 -7.5,3.364 -7.5,7.5 z" />
        <path
           inkscape:connector-curvature="0"
           id="path971"
           style="fill:#000000;fill-opacity:1;fill-rule:nonzero;stroke:none;stroke-width:1.02343321"
           d="m 85.293,236.381 h 4.687 c 1.239,0 2.161,-0.266 2.766,-0.797 0.613,-0.531 0.922,-1.179 0.922,-1.937 0,-0.606 -0.199,-1.196 -0.594,-1.766 -0.386,-0.562 -0.961,-1.023 -1.719,-1.375 -0.761,-0.355 -1.585,-0.531 -2.468,-0.531 -0.555,0 -1.25,0.097 -2.094,0.297 l -0.953,-3.25 c -0.219,-0.782 -0.328,-1.293 -0.328,-1.532 0,-0.187 0.078,-0.343 0.234,-0.468 0.156,-0.125 0.531,-0.203 1.125,-0.235 l -0.078,-0.328 h -4.75 l 0.109,0.328 c 0.614,0 1.039,0.102 1.282,0.313 0.25,0.219 0.515,0.812 0.796,1.781 l 1.969,6.781 c 0.227,0.813 0.344,1.36 0.344,1.641 0,0.195 -0.086,0.363 -0.25,0.5 -0.168,0.133 -0.531,0.219 -1.094,0.25 z m 1.641,-5.562 c 0.664,-0.168 1.203,-0.25 1.609,-0.25 0.633,0 1.211,0.128 1.734,0.39 0.532,0.27 0.942,0.664 1.235,1.188 0.289,0.531 0.437,1.078 0.437,1.64 0,0.594 -0.183,1.063 -0.547,1.407 -0.355,0.351 -0.902,0.531 -1.64,0.531 -0.399,0 -0.883,-0.055 -1.453,-0.156 z" />
        <path
           inkscape:connector-curvature="0"
           id="path973"
           style="fill:#000000;fill-opacity:1;fill-rule:nonzero;stroke:none;stroke-width:1.02343321"
           d="m 426.492,107.143 h 4.688 c 1.238,0 2.16,-0.266 2.765,-0.797 0.614,-0.531 0.922,-1.18 0.922,-1.938 0,-0.605 -0.199,-1.195 -0.594,-1.765 -0.386,-0.563 -0.96,-1.024 -1.718,-1.375 -0.762,-0.356 -1.586,-0.531 -2.469,-0.531 -0.555,0 -1.25,0.097 -2.094,0.296 l -0.953,-3.25 c -0.219,-0.781 -0.328,-1.293 -0.328,-1.531 0,-0.187 0.078,-0.344 0.234,-0.469 0.157,-0.125 0.532,-0.203 1.125,-0.234 l -0.078,-0.328 h -4.75 l 0.11,0.328 c 0.613,0 1.039,0.102 1.281,0.313 0.25,0.218 0.515,0.812 0.797,1.781 l 1.968,6.781 c 0.227,0.813 0.344,1.359 0.344,1.641 0,0.195 -0.086,0.363 -0.25,0.5 -0.168,0.132 -0.531,0.218 -1.094,0.25 z m 1.641,-5.563 c 0.664,-0.168 1.203,-0.25 1.609,-0.25 0.633,0 1.211,0.129 1.735,0.391 0.531,0.269 0.941,0.664 1.234,1.187 0.289,0.532 0.437,1.079 0.437,1.641 0,0.594 -0.183,1.063 -0.546,1.406 -0.356,0.352 -0.903,0.532 -1.641,0.532 -0.398,0 -0.883,-0.055 -1.453,-0.157 z" />
        <path
           inkscape:connector-curvature="0"
           id="path975"
           style="fill:#000000;fill-opacity:1;fill-rule:nonzero;stroke:none;stroke-width:1.02343321"
           d="m 438.254,103.846 c 0.437,0.195 0.789,0.453 1.062,0.766 0.207,0.226 0.313,0.453 0.313,0.671 0,0.102 -0.016,0.204 -0.047,0.297 -0.023,0.039 -0.105,0.129 -0.25,0.266 -0.137,0.144 -0.215,0.242 -0.234,0.297 -0.043,0.094 -0.063,0.207 -0.063,0.344 0,0.25 0.082,0.46 0.25,0.64 0.176,0.188 0.383,0.281 0.625,0.281 0.238,0 0.445,-0.101 0.625,-0.296 0.188,-0.188 0.281,-0.43 0.281,-0.719 0,-0.524 -0.203,-1.047 -0.609,-1.578 -0.406,-0.532 -1,-0.95 -1.781,-1.25 z" />
      </g>
    </g>
  </g>
</svg>
