<?xml version="1.0" encoding="UTF-8" standalone="no"?>
<!-- Created with Inkscape (http://www.inkscape.org/) -->

<svg
   xmlns:dc="http://purl.org/dc/elements/1.1/"
   xmlns:cc="http://creativecommons.org/ns#"
   xmlns:rdf="http://www.w3.org/1999/02/22-rdf-syntax-ns#"
   xmlns:svg="http://www.w3.org/2000/svg"
   xmlns="http://www.w3.org/2000/svg"
   xmlns:sodipodi="http://sodipodi.sourceforge.net/DTD/sodipodi-0.dtd"
   xmlns:inkscape="http://www.inkscape.org/namespaces/inkscape"
   version="1.1"
   id="svg3295"
   xml:space="preserve"
   width="340.22949"
   height="264.03915"
   viewBox="0 0 340.22949 264.03915"
   sodipodi:docname="rotation2d_2.svg"
   inkscape:version="0.92.4 (5da689c313, 2019-01-14)"><metadata
     id="metadata3301"><rdf:RDF><cc:Work
         rdf:about=""><dc:format>image/svg+xml</dc:format><dc:type
           rdf:resource="http://purl.org/dc/dcmitype/StillImage" /><dc:title></dc:title></cc:Work></rdf:RDF></metadata><defs
     id="defs3299" /><sodipodi:namedview
     pagecolor="#ffffff"
     bordercolor="#666666"
     borderopacity="1"
     objecttolerance="10"
     gridtolerance="10"
     guidetolerance="10"
     inkscape:pageopacity="0"
     inkscape:pageshadow="2"
     inkscape:window-width="1920"
     inkscape:window-height="1001"
     id="namedview3297"
     showgrid="false"
     fit-margin-top="0"
     fit-margin-left="0"
     fit-margin-right="0"
     fit-margin-bottom="0"
     inkscape:zoom="0.75566151"
     inkscape:cx="39.7656"
     inkscape:cy="107.88439"
     inkscape:window-x="-9"
     inkscape:window-y="-9"
     inkscape:window-maximized="1"
     inkscape:current-layer="g3303" /><g
     id="g3303"
     inkscape:groupmode="layer"
     inkscape:label="rotation2d_2"
     transform="matrix(1.3333333,0,0,-1.3333333,0,312.30933)"><g
       id="g3305"
       transform="matrix(0.84544473,0,0,0.84544473,0,36.20179)"
       style="stroke-width:1.18280947"><path
         d="m 164.371,77.783 h 131.75 v -2.278 h -131.75 z m 130.609,2.281 6.84,-3.422 -6.84,-3.418 z"
         style="fill:#ff0000;fill-opacity:1;fill-rule:nonzero;stroke:none;stroke-width:1.18280947"
         id="path3307"
         inkscape:connector-curvature="0" /><path
         d="M 165.508,75.392 V 199.103 H 163.23 V 75.392 Z m 2.281,122.57 -3.418,6.84 -3.422,-6.84 z"
         style="fill:#00ae4f;fill-opacity:1;fill-rule:nonzero;stroke:none;stroke-width:1.18280947"
         id="path3309"
         inkscape:connector-curvature="0" /><g
         id="g3311"
         transform="matrix(1,0,0,-1,0,234.23186)"
         style="stroke-width:1.18280947"><path
           d="m 158.551,157.348 c 0,-3.211 2.609,-5.821 5.82,-5.821 3.207,0 5.82,2.61 5.82,5.821 0,3.211 -2.613,5.82 -5.82,5.82 -3.211,0 -5.82,-2.609 -5.82,-5.82 z"
           style="fill:#7d7d7d;fill-opacity:1;fill-rule:evenodd;stroke:#7d7d7d;stroke-width:1.13549697;stroke-linecap:butt;stroke-linejoin:miter;stroke-miterlimit:10;stroke-dasharray:none;stroke-opacity:1"
           id="path3313"
           inkscape:connector-curvature="0" /></g><path
         d="m 163.008,77.814 65.832,112.051 2.578,-1.52 -65.816,-112.051 z m 62.48,112.281 8.442,5.481 -0.68,-10.043 z"
         style="fill:#ff0000;fill-opacity:1;fill-rule:nonzero;stroke:none;stroke-width:1.18280947"
         id="path3315"
         inkscape:connector-curvature="0" /><path
         d="m 164.961,75.693 -112.84,62.601 1.457,2.621 112.832,-62.589 z m -112.981,59.25 -5.691,8.301 10.051,-0.43 z"
         style="fill:#00ae4f;fill-opacity:1;fill-rule:nonzero;stroke:none;stroke-width:1.18280947"
         id="path3317"
         inkscape:connector-curvature="0" /><g
         id="g3319"
         transform="matrix(1,0,0,-1,0,234.23186)"
         style="stroke-width:1.18280947"><path
           d="m 161.359,161.457 c -2.769,-1.629 -3.691,-5.199 -2.058,-7.969 1.617,-2.769 5.187,-3.691 7.957,-2.07 2.773,1.629 3.703,5.199 2.07,7.969 -1.629,2.769 -5.187,3.691 -7.969,2.07 z"
           style="fill:#000000;fill-opacity:1;fill-rule:evenodd;stroke:#000000;stroke-width:3.5484283;stroke-linecap:butt;stroke-linejoin:miter;stroke-miterlimit:10;stroke-dasharray:none;stroke-opacity:1"
           id="path3321"
           inkscape:connector-curvature="0" /></g><g
         id="g3323"
         transform="matrix(1,0,0,-1,0,234.23186)"
         style="stroke-width:1.18280947"><path
           d="M 197.738,98.379 135.871,62.848"
           style="fill:none;stroke:#000000;stroke-width:1.13549697;stroke-linecap:butt;stroke-linejoin:miter;stroke-miterlimit:10;stroke-dasharray:4.54198821, 3.40649115;stroke-dashoffset:0;stroke-opacity:1"
           id="path3325"
           inkscape:connector-curvature="0" /></g><g
         id="g3327"
         transform="matrix(1,0,0,-1,0,234.23186)"
         style="stroke-width:1.18280947"><path
           d="M 127.91,65.008 98.102,116.656"
           style="fill:none;stroke:#000000;stroke-width:1.18280947;stroke-linecap:butt;stroke-linejoin:miter;stroke-miterlimit:10;stroke-dasharray:4.73123771, 3.54842829;stroke-dashoffset:0;stroke-opacity:1"
           id="path3329"
           inkscape:connector-curvature="0" /></g><g
         id="g3331"
         transform="matrix(1,0,0,-1,0,234.23186)"
         style="stroke-width:1.18280947"><path
           d="m 127.91,65.008 c -2.789,-1.61 -3.742,-5.168 -2.14,-7.949 1.609,-2.782 5.171,-3.743 7.949,-2.129 2.781,1.597 3.742,5.16 2.133,7.937 -1.602,2.789 -5.161,3.742 -7.942,2.141 z"
           style="fill:#5999d4;fill-opacity:1;fill-rule:evenodd;stroke:#3f709c;stroke-width:1.18280947;stroke-linecap:butt;stroke-linejoin:miter;stroke-miterlimit:10;stroke-dasharray:none;stroke-opacity:1"
           id="path3333"
           inkscape:connector-curvature="0" /></g><path
         d="m 158.23,78.693 -53.769,29.422 2.187,4 53.77,-29.422 z m -53.96,24.32 -8.719,12.57 15.277,-0.57 z"
         style="fill:#2b73b5;fill-opacity:1;fill-rule:nonzero;stroke:none;stroke-width:1.18280947"
         id="path3335"
         inkscape:connector-curvature="0" /><path
         d="m 80.16,76.724 -0.859,0.918 0.008,-0.008 -0.911,0.93 h 0.012 l -1.879,1.859 -1.863,1.903 -0.887,0.957 -0.82,0.98 -0.75,1 -0.66,1.02 -0.551,1.043 -0.422,1.058 -0.269,1.078 -0.079,0.571 -0.019,0.562 0.027,0.57 0.071,0.567 0.132,0.57 0.188,0.582 0.48,1.16 0.621,1.219 0.739,1.281 0.871,1.309 0.988,1.359 1.133,1.364 1.238,1.359 1.36,1.359 1.492,1.321 1.597,1.3 1.723,1.227 1.828,1.16 1.949,1.082 2.051,0.988 2.16,0.86 1.309,0.441 0.32,-0.949 -1.297,-0.43 0.028,0.008 -2.129,-0.847 0.031,0.007 -2.019,-0.98 0.019,0.023 -1.922,-1.07 0.031,0.02 -1.812,-1.153 0.023,0.024 -1.691,-1.223 0.02,0.019 -1.579,-1.277 0.02,0.02 -1.473,-1.313 0.02,0.024 -1.34,-1.344 0.012,0.023 -1.231,-1.351 0.02,0.019 -1.11,-1.34 0.02,0.032 -0.981,-1.34 0.012,0.019 -0.851,-1.289 0.011,0.02 -0.718,-1.25 0.007,0.027 -0.601,-1.187 0.023,0.027 -0.472,-1.117 0.019,0.039 -0.18,-0.539 0.012,0.039 -0.121,-0.52 0.012,0.039 -0.063,-0.531 v 0.043 l -0.027,-0.531 v 0.051 l 0.019,-0.52 v 0.047 l 0.071,-0.52 -0.012,0.063 0.25,-1.02 -0.019,0.059 0.398,-1.012 -0.027,0.051 0.527,-0.988 -0.02,0.039 0.641,-0.988 -0.019,0.027 0.73,-0.981 -0.02,0.032 0.809,-0.961 -0.008,0.012 0.879,-0.95 -0.012,0.008 1.84,-1.891 -0.008,0.012 1.879,-1.871 0.922,-0.93 0.86,-0.929 z m 5.481,36.41 7.629,-1.629 -5.168,-5.84 c -0.192,-0.21 -0.5,-0.23 -0.711,-0.043 -0.211,0.18 -0.223,0.5 -0.039,0.704 l 4.609,5.199 0.269,-0.82 -6.8,1.449 c -0.27,0.058 -0.442,0.328 -0.379,0.601 0.058,0.27 0.32,0.438 0.59,0.379 z"
         style="fill:#000000;fill-opacity:1;fill-rule:nonzero;stroke:none;stroke-width:1.18280947"
         id="path3337"
         inkscape:connector-curvature="0" /><path
         d="m 160.648,82.634 -26.679,74.488 4.289,1.543 26.683,-74.492 z m -30.207,70.801 1.829,15.187 11.05,-10.57 z"
         style="fill:#5999d4;fill-opacity:1;fill-rule:nonzero;stroke:none;stroke-width:1.18280947"
         id="path3339"
         inkscape:connector-curvature="0" /><path
         d="m 169.75,81.685 25.828,43.219 -3.918,2.34 -25.832,-43.219 z m 28.57,38.93 1.149,15.25 -12.891,-8.231 z"
         style="fill:#2b73b5;fill-opacity:1;fill-rule:nonzero;stroke:none;stroke-width:1.18280947"
         id="path3341"
         inkscape:connector-curvature="0" /><path
         d="m 289.84,124.314 h 4.418 V 88.513 h -4.418 v 0.801 h 2.691 v 34.191 h -2.691 z m -65.121,0 h 4.429 v -0.809 h -2.699 V 89.314 h 2.699 v -0.801 h -4.429 z"
         style="fill:#000000;fill-opacity:1;fill-rule:evenodd;stroke:none;stroke-width:1.18280947"
         id="path3343"
         inkscape:connector-curvature="0" /><path
         d="m 233.098,118.509 c 0.125,0.539 0.187,0.985 0.187,1.328 0,0.227 -0.043,0.395 -0.125,0.5 -0.074,0.114 -0.187,0.172 -0.344,0.172 -0.187,0 -0.386,-0.078 -0.593,-0.234 -0.2,-0.149 -0.469,-0.418 -0.813,-0.813 l -0.5,0.5 c 0.52,0.551 0.961,0.946 1.328,1.188 0.364,0.238 0.77,0.359 1.219,0.359 0.363,0 0.648,-0.121 0.859,-0.359 0.219,-0.242 0.329,-0.559 0.329,-0.953 0,-0.336 -0.071,-0.68 -0.204,-1.032 l 0.11,-0.046 c 1.082,1.593 2.16,2.39 3.234,2.39 0.633,0 1.129,-0.246 1.485,-0.734 0.351,-0.492 0.531,-1.18 0.531,-2.063 0,-0.961 -0.196,-1.906 -0.578,-2.843 -0.387,-0.938 -0.93,-1.684 -1.625,-2.235 -0.688,-0.543 -1.461,-0.812 -2.313,-0.812 -0.781,0 -1.433,0.172 -1.953,0.515 l -0.406,-1.937 c -0.086,-0.414 -0.125,-0.754 -0.125,-1.016 0,-0.258 0.062,-0.441 0.187,-0.547 0.133,-0.113 0.395,-0.187 0.782,-0.218 l -0.079,-0.438 h -2.703 z m 0.89,-2.484 c -0.062,-0.313 -0.101,-0.555 -0.109,-0.719 -0.012,-0.168 -0.016,-0.328 -0.016,-0.484 0,-0.461 0.094,-0.793 0.282,-1 0.195,-0.211 0.535,-0.313 1.015,-0.313 0.301,0 0.578,0.055 0.828,0.172 0.25,0.125 0.489,0.297 0.719,0.516 0.227,0.226 0.43,0.5 0.609,0.812 0.188,0.313 0.348,0.676 0.485,1.094 0.144,0.426 0.254,0.859 0.328,1.297 0.07,0.445 0.109,0.863 0.109,1.25 0,0.613 -0.09,1.07 -0.265,1.375 -0.168,0.301 -0.438,0.453 -0.813,0.453 -0.305,0 -0.601,-0.106 -0.89,-0.313 -0.282,-0.199 -0.602,-0.523 -0.954,-0.968 -0.343,-0.438 -0.617,-0.875 -0.812,-1.313 -0.188,-0.437 -0.34,-0.937 -0.453,-1.5 z"
         style="fill:#000000;fill-opacity:1;fill-rule:nonzero;stroke:none;stroke-width:1.18280947"
         id="path3345"
         inkscape:connector-curvature="0" /><path
         d="m 243.41,112.306 c -0.074,0.352 -0.14,0.66 -0.203,0.922 -0.055,0.258 -0.105,0.484 -0.156,0.672 -0.055,0.187 -0.106,0.336 -0.156,0.453 -0.043,0.125 -0.09,0.223 -0.141,0.297 -0.043,0.07 -0.094,0.117 -0.156,0.14 -0.055,0.032 -0.118,0.051 -0.188,0.063 -0.074,0 -0.14,-0.016 -0.203,-0.047 -0.062,-0.023 -0.133,-0.062 -0.203,-0.125 -0.063,-0.055 -0.137,-0.133 -0.219,-0.234 -0.074,-0.106 -0.156,-0.246 -0.25,-0.422 l -0.5,0.328 c 0.176,0.25 0.332,0.461 0.469,0.641 0.144,0.187 0.285,0.332 0.422,0.437 0.133,0.102 0.273,0.176 0.422,0.219 0.156,0.051 0.328,0.078 0.515,0.078 0.239,0 0.43,-0.055 0.578,-0.156 0.145,-0.106 0.266,-0.258 0.36,-0.453 0.101,-0.188 0.187,-0.43 0.25,-0.719 0.062,-0.281 0.129,-0.606 0.203,-0.969 h 0.078 c 0.258,0.332 0.477,0.617 0.656,0.859 0.188,0.25 0.352,0.457 0.5,0.625 0.145,0.165 0.274,0.301 0.391,0.407 0.125,0.113 0.238,0.195 0.344,0.25 0.113,0.062 0.226,0.101 0.343,0.125 0.114,0.019 0.243,0.031 0.391,0.031 0.207,0 0.398,-0.043 0.578,-0.125 l -0.312,-1.25 h -0.532 c -0.011,0.187 -0.078,0.281 -0.203,0.281 -0.054,0 -0.105,-0.012 -0.156,-0.031 -0.055,-0.012 -0.121,-0.043 -0.203,-0.094 -0.074,-0.054 -0.164,-0.125 -0.266,-0.219 -0.093,-0.093 -0.211,-0.214 -0.343,-0.359 -0.137,-0.148 -0.293,-0.324 -0.469,-0.531 -0.168,-0.211 -0.367,-0.461 -0.594,-0.75 0.113,-0.586 0.211,-1.055 0.297,-1.406 0.082,-0.344 0.16,-0.61 0.234,-0.797 0.082,-0.188 0.16,-0.313 0.235,-0.375 0.07,-0.055 0.16,-0.078 0.265,-0.078 0.071,0 0.133,0.003 0.188,0.015 0.062,0.02 0.125,0.055 0.187,0.11 0.071,0.062 0.145,0.144 0.219,0.25 0.082,0.113 0.18,0.257 0.297,0.437 l 0.484,-0.312 c -0.187,-0.282 -0.355,-0.512 -0.5,-0.688 -0.148,-0.18 -0.289,-0.32 -0.422,-0.422 -0.136,-0.094 -0.277,-0.156 -0.421,-0.187 -0.149,-0.039 -0.309,-0.063 -0.485,-0.063 -0.168,0 -0.312,0.024 -0.437,0.063 -0.125,0.043 -0.235,0.125 -0.328,0.25 -0.063,0.07 -0.125,0.164 -0.188,0.281 -0.055,0.125 -0.105,0.254 -0.156,0.391 -0.043,0.132 -0.086,0.273 -0.125,0.421 -0.031,0.157 -0.063,0.301 -0.094,0.438 -0.023,0.133 -0.043,0.25 -0.062,0.344 -0.012,0.101 -0.016,0.179 -0.016,0.234 h -0.078 c -0.25,-0.336 -0.469,-0.633 -0.656,-0.891 -0.188,-0.25 -0.36,-0.464 -0.516,-0.64 -0.156,-0.18 -0.297,-0.324 -0.422,-0.438 -0.117,-0.117 -0.234,-0.211 -0.359,-0.281 -0.118,-0.062 -0.235,-0.101 -0.36,-0.125 -0.125,-0.031 -0.261,-0.047 -0.406,-0.047 -0.23,0 -0.422,0.039 -0.578,0.11 l 0.297,1.234 h 0.547 c 0.007,-0.188 0.078,-0.281 0.203,-0.281 0.051,0.008 0.097,0.019 0.14,0.031 0.039,0.008 0.086,0.035 0.141,0.078 0.063,0.039 0.141,0.102 0.234,0.188 0.094,0.093 0.207,0.211 0.344,0.359 0.145,0.156 0.317,0.348 0.516,0.578 0.207,0.238 0.453,0.531 0.734,0.875 z"
         style="fill:#000000;fill-opacity:1;fill-rule:nonzero;stroke:none;stroke-width:1.18280947"
         id="path3347"
         inkscape:connector-curvature="0" /><path
         d="m 258.543,119.447 h -0.844 c -0.125,0.343 -0.277,0.613 -0.453,0.812 -0.18,0.207 -0.375,0.352 -0.594,0.438 -0.218,0.082 -0.492,0.125 -0.812,0.125 -0.469,0 -0.844,-0.11 -1.125,-0.328 -0.281,-0.219 -0.422,-0.524 -0.422,-0.907 0,-0.273 0.055,-0.496 0.172,-0.672 0.113,-0.168 0.285,-0.328 0.515,-0.484 0.239,-0.156 0.649,-0.359 1.235,-0.609 0.601,-0.262 1.066,-0.5 1.39,-0.719 0.321,-0.211 0.579,-0.461 0.766,-0.75 0.188,-0.281 0.281,-0.625 0.281,-1.031 0,-0.461 -0.086,-0.852 -0.25,-1.172 -0.156,-0.313 -0.382,-0.57 -0.672,-0.766 -0.281,-0.199 -0.621,-0.34 -1.015,-0.422 -0.399,-0.093 -0.828,-0.14 -1.297,-0.14 -0.492,0 -0.969,0.039 -1.438,0.109 -0.46,0.07 -0.906,0.164 -1.343,0.281 v 1.844 h 0.859 c 0.156,-0.543 0.391,-0.937 0.703,-1.187 0.313,-0.243 0.739,-0.36 1.281,-0.36 0.208,0 0.411,0.02 0.61,0.063 0.207,0.05 0.39,0.129 0.547,0.234 0.164,0.102 0.297,0.238 0.39,0.406 0.094,0.176 0.141,0.399 0.141,0.672 0,0.289 -0.063,0.531 -0.188,0.719 -0.117,0.187 -0.296,0.359 -0.546,0.516 -0.243,0.156 -0.672,0.363 -1.297,0.625 -0.532,0.226 -0.961,0.445 -1.282,0.656 -0.324,0.207 -0.578,0.453 -0.765,0.734 -0.18,0.289 -0.266,0.633 -0.266,1.031 0,0.477 0.129,0.895 0.391,1.25 0.258,0.352 0.633,0.625 1.125,0.813 0.488,0.187 1.066,0.281 1.734,0.281 0.383,0 0.754,-0.023 1.11,-0.062 0.363,-0.032 0.816,-0.106 1.359,-0.219 z"
         style="fill:#000000;fill-opacity:1;fill-rule:nonzero;stroke:none;stroke-width:1.18280947"
         id="path3349"
         inkscape:connector-curvature="0" /><path
         d="m 262.855,124.806 v -1.703 h -1.609 v 1.703 z m -2.5,-11.406 c 0.227,0.062 0.391,0.117 0.485,0.172 0.094,0.05 0.172,0.125 0.234,0.218 0.071,0.094 0.125,0.239 0.156,0.438 0.04,0.195 0.063,0.5 0.063,0.906 v 3.828 c 0,0.375 -0.008,0.676 -0.016,0.907 -0.011,0.226 -0.054,0.41 -0.125,0.546 -0.062,0.145 -0.168,0.25 -0.312,0.313 -0.149,0.062 -0.352,0.117 -0.61,0.172 v 0.469 l 2.047,0.078 h 0.532 v -6.282 c 0,-0.511 0.019,-0.867 0.062,-1.062 0.051,-0.188 0.141,-0.336 0.266,-0.438 0.133,-0.105 0.351,-0.195 0.656,-0.265 v -0.438 h -3.438 z"
         style="fill:#000000;fill-opacity:1;fill-rule:nonzero;stroke:none;stroke-width:1.18280947"
         id="path3351"
         inkscape:connector-curvature="0" /><path
         d="m 273.906,112.962 h -3.453 v 0.438 c 0.227,0.062 0.391,0.117 0.485,0.172 0.101,0.05 0.187,0.125 0.25,0.218 0.07,0.094 0.125,0.239 0.156,0.438 0.039,0.195 0.062,0.492 0.062,0.891 v 2.312 c 0,0.406 -0.011,0.774 -0.031,1.109 -0.023,0.332 -0.062,0.602 -0.125,0.813 -0.055,0.219 -0.121,0.383 -0.203,0.5 -0.074,0.125 -0.168,0.227 -0.281,0.312 -0.106,0.094 -0.231,0.161 -0.375,0.204 -0.137,0.05 -0.321,0.078 -0.547,0.078 -0.231,0 -0.449,-0.047 -0.656,-0.141 -0.2,-0.086 -0.422,-0.242 -0.672,-0.469 -0.25,-0.218 -0.434,-0.437 -0.547,-0.656 -0.106,-0.219 -0.156,-0.469 -0.156,-0.75 v -3.266 c 0,-0.511 0.019,-0.867 0.062,-1.062 0.051,-0.188 0.141,-0.336 0.266,-0.438 0.132,-0.105 0.351,-0.195 0.656,-0.265 v -0.438 h -3.438 v 0.438 c 0.227,0.062 0.391,0.117 0.485,0.172 0.094,0.05 0.172,0.125 0.234,0.218 0.07,0.094 0.125,0.239 0.156,0.438 0.039,0.195 0.063,0.5 0.063,0.906 v 3.828 c 0,0.375 -0.008,0.676 -0.016,0.907 -0.011,0.226 -0.054,0.41 -0.125,0.546 -0.062,0.145 -0.168,0.25 -0.312,0.313 -0.149,0.062 -0.352,0.117 -0.61,0.172 v 0.469 l 2.047,0.078 h 0.547 l -0.109,-1.438 0.125,-0.031 c 0.437,0.437 0.785,0.75 1.047,0.937 0.269,0.188 0.539,0.332 0.812,0.438 0.27,0.102 0.563,0.156 0.875,0.156 0.313,0 0.594,-0.039 0.844,-0.109 0.25,-0.074 0.469,-0.188 0.656,-0.344 0.188,-0.156 0.344,-0.351 0.469,-0.578 0.125,-0.219 0.219,-0.492 0.281,-0.813 0.063,-0.312 0.094,-0.71 0.094,-1.187 v -3.313 c 0,-0.406 0.008,-0.703 0.031,-0.89 0.02,-0.18 0.063,-0.32 0.125,-0.422 0.063,-0.094 0.145,-0.18 0.25,-0.25 0.113,-0.063 0.305,-0.133 0.578,-0.203 z"
         style="fill:#000000;fill-opacity:1;fill-rule:nonzero;stroke:none;stroke-width:1.18280947"
         id="path3353"
         inkscape:connector-curvature="0" /><path
         d="m 281.25,112.822 c -0.875,0 -1.527,0.265 -1.953,0.797 -0.43,0.531 -0.641,1.332 -0.641,2.406 0,0.57 0.063,1.285 0.188,2.14 0.125,0.852 0.332,1.723 0.625,2.61 0.301,0.883 0.687,1.672 1.156,2.359 0.469,0.688 1.004,1.219 1.609,1.594 0.602,0.375 1.258,0.562 1.969,0.562 1.695,0 2.547,-1.078 2.547,-3.234 0,-0.617 -0.07,-1.344 -0.203,-2.187 -0.137,-0.844 -0.356,-1.711 -0.656,-2.594 -0.293,-0.875 -0.668,-1.653 -1.125,-2.328 -0.461,-0.68 -0.993,-1.203 -1.594,-1.578 -0.594,-0.368 -1.234,-0.547 -1.922,-0.547 z m -0.547,6.718 h 4.219 c 0.269,1.239 0.406,2.305 0.406,3.204 0,0.613 -0.101,1.07 -0.297,1.375 -0.199,0.3 -0.511,0.453 -0.937,0.453 -0.68,0 -1.309,-0.434 -1.891,-1.297 -0.586,-0.867 -1.086,-2.11 -1.5,-3.735 z m 4.016,-0.89 H 280.5 c -0.281,-1.274 -0.422,-2.34 -0.422,-3.203 0,-0.657 0.098,-1.141 0.297,-1.453 0.207,-0.305 0.531,-0.454 0.969,-0.454 0.656,0 1.273,0.438 1.859,1.313 0.594,0.883 1.098,2.148 1.516,3.797 z"
         style="fill:#000000;fill-opacity:1;fill-rule:nonzero;stroke:none;stroke-width:1.18280947"
         id="path3355"
         inkscape:connector-curvature="0" /><path
         d="m 231.895,96.669 c 0.125,0.539 0.187,0.985 0.187,1.328 0,0.227 -0.043,0.395 -0.125,0.5 -0.074,0.114 -0.187,0.172 -0.344,0.172 -0.187,0 -0.386,-0.078 -0.593,-0.234 -0.2,-0.148 -0.469,-0.418 -0.813,-0.813 l -0.5,0.5 c 0.52,0.551 0.961,0.946 1.328,1.188 0.363,0.238 0.77,0.359 1.219,0.359 0.363,0 0.648,-0.121 0.859,-0.359 0.219,-0.242 0.328,-0.559 0.328,-0.953 0,-0.336 -0.07,-0.68 -0.203,-1.031 l 0.11,-0.047 c 1.082,1.593 2.16,2.39 3.234,2.39 0.633,0 1.129,-0.246 1.484,-0.734 0.352,-0.492 0.532,-1.18 0.532,-2.063 0,-0.96 -0.196,-1.906 -0.578,-2.843 -0.387,-0.938 -0.93,-1.684 -1.625,-2.235 -0.688,-0.543 -1.461,-0.812 -2.313,-0.812 -0.781,0 -1.434,0.172 -1.953,0.515 l -0.406,-1.937 c -0.086,-0.414 -0.125,-0.754 -0.125,-1.016 0,-0.257 0.062,-0.441 0.187,-0.547 0.133,-0.113 0.395,-0.187 0.781,-0.218 l -0.078,-0.438 h -2.703 z m 0.89,-2.484 c -0.062,-0.313 -0.101,-0.555 -0.109,-0.719 -0.012,-0.168 -0.016,-0.328 -0.016,-0.484 0,-0.461 0.094,-0.793 0.281,-1 0.196,-0.211 0.536,-0.313 1.016,-0.313 0.301,0 0.578,0.055 0.828,0.172 0.25,0.125 0.488,0.297 0.719,0.516 0.226,0.226 0.43,0.5 0.609,0.812 0.188,0.313 0.348,0.676 0.485,1.094 0.144,0.426 0.254,0.859 0.328,1.297 0.07,0.445 0.109,0.863 0.109,1.25 0,0.613 -0.09,1.07 -0.265,1.375 -0.168,0.301 -0.438,0.453 -0.813,0.453 -0.305,0 -0.602,-0.105 -0.891,-0.312 -0.281,-0.2 -0.601,-0.524 -0.953,-0.969 -0.343,-0.438 -0.617,-0.875 -0.812,-1.313 -0.188,-0.437 -0.34,-0.937 -0.453,-1.5 z"
         style="fill:#000000;fill-opacity:1;fill-rule:nonzero;stroke:none;stroke-width:1.18280947"
         id="path3357"
         inkscape:connector-curvature="0" /><path
         d="m 242.211,90.466 c -0.074,0.352 -0.141,0.66 -0.203,0.922 -0.055,0.258 -0.106,0.484 -0.156,0.672 -0.055,0.187 -0.106,0.336 -0.157,0.453 -0.043,0.125 -0.09,0.223 -0.14,0.297 -0.043,0.07 -0.094,0.117 -0.157,0.141 -0.054,0.031 -0.117,0.05 -0.187,0.062 -0.074,0 -0.141,-0.016 -0.203,-0.047 -0.063,-0.023 -0.133,-0.062 -0.203,-0.125 -0.063,-0.054 -0.137,-0.133 -0.219,-0.234 -0.074,-0.106 -0.156,-0.246 -0.25,-0.422 l -0.5,0.328 c 0.176,0.25 0.332,0.461 0.469,0.641 0.144,0.187 0.285,0.332 0.422,0.437 0.132,0.102 0.273,0.176 0.421,0.219 0.157,0.051 0.329,0.078 0.516,0.078 0.238,0 0.43,-0.055 0.578,-0.156 0.145,-0.106 0.266,-0.258 0.36,-0.453 0.101,-0.188 0.187,-0.43 0.25,-0.719 0.062,-0.281 0.128,-0.605 0.203,-0.969 h 0.078 c 0.258,0.332 0.476,0.617 0.656,0.86 0.188,0.25 0.352,0.457 0.5,0.625 0.145,0.164 0.274,0.3 0.391,0.406 0.125,0.113 0.238,0.195 0.343,0.25 0.114,0.062 0.227,0.101 0.344,0.125 0.113,0.019 0.242,0.031 0.391,0.031 0.207,0 0.398,-0.043 0.578,-0.125 l -0.313,-1.25 h -0.531 c -0.012,0.188 -0.078,0.281 -0.203,0.281 -0.055,0 -0.105,-0.011 -0.156,-0.031 -0.055,-0.012 -0.121,-0.043 -0.203,-0.094 -0.075,-0.054 -0.164,-0.125 -0.266,-0.218 -0.094,-0.094 -0.211,-0.215 -0.344,-0.36 -0.136,-0.148 -0.293,-0.324 -0.468,-0.531 -0.168,-0.211 -0.368,-0.461 -0.594,-0.75 0.113,-0.586 0.211,-1.055 0.297,-1.406 0.082,-0.344 0.16,-0.61 0.234,-0.797 0.082,-0.188 0.16,-0.313 0.234,-0.375 0.071,-0.055 0.161,-0.078 0.266,-0.078 0.07,0 0.133,0.004 0.188,0.015 0.062,0.02 0.125,0.055 0.187,0.11 0.07,0.062 0.145,0.144 0.219,0.25 0.082,0.113 0.18,0.258 0.297,0.437 l 0.484,-0.312 c -0.187,-0.282 -0.355,-0.512 -0.5,-0.688 -0.148,-0.179 -0.289,-0.32 -0.422,-0.422 -0.137,-0.093 -0.277,-0.156 -0.422,-0.187 -0.148,-0.039 -0.308,-0.063 -0.484,-0.063 -0.168,0 -0.313,0.024 -0.438,0.063 -0.125,0.043 -0.234,0.125 -0.328,0.25 -0.062,0.07 -0.125,0.164 -0.187,0.281 -0.055,0.125 -0.106,0.254 -0.156,0.391 -0.043,0.133 -0.086,0.273 -0.125,0.422 -0.032,0.156 -0.063,0.3 -0.094,0.437 -0.024,0.133 -0.043,0.25 -0.063,0.344 -0.011,0.101 -0.015,0.18 -0.015,0.234 h -0.078 c -0.25,-0.336 -0.469,-0.633 -0.657,-0.89 -0.187,-0.25 -0.359,-0.465 -0.515,-0.641 -0.157,-0.18 -0.297,-0.324 -0.422,-0.438 -0.117,-0.117 -0.235,-0.21 -0.36,-0.281 -0.117,-0.062 -0.234,-0.101 -0.359,-0.125 -0.125,-0.031 -0.262,-0.047 -0.406,-0.047 -0.231,0 -0.422,0.039 -0.578,0.11 l 0.297,1.234 h 0.546 c 0.008,-0.187 0.079,-0.281 0.204,-0.281 0.05,0.008 0.097,0.019 0.14,0.031 0.039,0.008 0.086,0.035 0.141,0.078 0.062,0.039 0.14,0.102 0.234,0.188 0.094,0.093 0.207,0.211 0.344,0.359 0.144,0.156 0.316,0.348 0.516,0.578 0.207,0.239 0.453,0.531 0.734,0.875 z"
         style="fill:#000000;fill-opacity:1;fill-rule:nonzero;stroke:none;stroke-width:1.18280947"
         id="path3359"
         inkscape:connector-curvature="0" /><path
         d="m 258.137,99.326 v -1.844 h -1.125 c -0.094,0.383 -0.215,0.687 -0.36,0.906 -0.148,0.219 -0.32,0.367 -0.515,0.453 -0.199,0.094 -0.438,0.141 -0.719,0.141 -0.418,0 -0.781,-0.137 -1.094,-0.406 -0.312,-0.262 -0.562,-0.664 -0.75,-1.204 -0.187,-0.531 -0.281,-1.187 -0.281,-1.968 0,-0.5 0.035,-0.961 0.109,-1.375 0.071,-0.407 0.192,-0.758 0.36,-1.047 0.164,-0.293 0.39,-0.524 0.672,-0.688 0.281,-0.168 0.629,-0.25 1.046,-0.25 0.407,0 0.782,0.078 1.125,0.235 0.352,0.156 0.719,0.437 1.094,0.843 l 0.5,-0.578 c -0.304,-0.336 -0.57,-0.589 -0.797,-0.765 -0.218,-0.18 -0.461,-0.328 -0.718,-0.453 -0.262,-0.118 -0.524,-0.2 -0.782,-0.25 -0.25,-0.063 -0.527,-0.094 -0.828,-0.094 -1.105,0 -1.953,0.363 -2.547,1.094 -0.586,0.738 -0.875,1.804 -0.875,3.203 0,0.863 0.161,1.629 0.485,2.297 0.332,0.675 0.797,1.191 1.39,1.546 0.594,0.364 1.274,0.547 2.047,0.547 0.477,0 0.922,-0.027 1.328,-0.078 0.407,-0.054 0.817,-0.14 1.235,-0.265 z"
         style="fill:#000000;fill-opacity:1;fill-rule:nonzero;stroke:none;stroke-width:1.18280947"
         id="path3361"
         inkscape:connector-curvature="0" /><path
         d="m 263.352,90.982 c -1.219,0 -2.153,0.359 -2.797,1.078 -0.637,0.719 -0.953,1.781 -0.953,3.187 0,0.969 0.164,1.786 0.5,2.454 0.343,0.664 0.804,1.16 1.39,1.484 0.582,0.32 1.25,0.484 2,0.484 1.258,0 2.207,-0.367 2.844,-1.093 0.644,-0.731 0.969,-1.778 0.969,-3.141 0,-0.969 -0.164,-1.789 -0.485,-2.453 -0.312,-0.668 -0.765,-1.168 -1.359,-1.5 -0.594,-0.336 -1.297,-0.5 -2.109,-0.5 z m -2.094,4.453 c 0,-1.211 0.191,-2.141 0.578,-2.797 0.383,-0.648 0.937,-0.969 1.656,-0.969 0.383,0 0.711,0.094 0.985,0.282 0.281,0.195 0.503,0.457 0.671,0.781 0.176,0.32 0.301,0.691 0.375,1.109 0.082,0.426 0.125,0.875 0.125,1.344 0,0.863 -0.093,1.578 -0.281,2.141 -0.187,0.57 -0.449,0.988 -0.781,1.25 -0.324,0.269 -0.699,0.406 -1.125,0.406 -0.711,0 -1.258,-0.309 -1.641,-0.922 -0.375,-0.617 -0.562,-1.492 -0.562,-2.625 z"
         style="fill:#000000;fill-opacity:1;fill-rule:nonzero;stroke:none;stroke-width:1.18280947"
         id="path3363"
         inkscape:connector-curvature="0" /><path
         d="m 274.855,97.607 h -0.843 c -0.125,0.344 -0.278,0.613 -0.453,0.812 -0.18,0.207 -0.375,0.352 -0.594,0.438 -0.219,0.082 -0.492,0.125 -0.813,0.125 -0.468,0 -0.843,-0.11 -1.125,-0.328 -0.281,-0.219 -0.422,-0.524 -0.422,-0.907 0,-0.273 0.055,-0.496 0.172,-0.671 0.114,-0.168 0.286,-0.329 0.516,-0.485 0.238,-0.156 0.648,-0.359 1.234,-0.609 0.602,-0.262 1.067,-0.5 1.391,-0.719 0.32,-0.211 0.578,-0.461 0.766,-0.75 0.187,-0.281 0.281,-0.625 0.281,-1.031 0,-0.461 -0.086,-0.852 -0.25,-1.172 -0.156,-0.313 -0.383,-0.57 -0.672,-0.766 -0.281,-0.199 -0.621,-0.339 -1.016,-0.422 -0.398,-0.093 -0.828,-0.14 -1.297,-0.14 -0.492,0 -0.968,0.039 -1.437,0.109 -0.461,0.071 -0.906,0.164 -1.344,0.281 v 1.844 h 0.86 c 0.156,-0.543 0.39,-0.937 0.703,-1.187 0.312,-0.242 0.738,-0.36 1.281,-0.36 0.207,0 0.41,0.02 0.609,0.063 0.207,0.051 0.391,0.129 0.547,0.234 0.164,0.102 0.297,0.239 0.391,0.406 0.094,0.176 0.14,0.399 0.14,0.672 0,0.289 -0.062,0.532 -0.187,0.719 -0.117,0.188 -0.297,0.359 -0.547,0.516 -0.242,0.156 -0.672,0.363 -1.297,0.625 -0.531,0.226 -0.961,0.445 -1.281,0.656 -0.324,0.207 -0.578,0.453 -0.766,0.734 -0.179,0.289 -0.265,0.633 -0.265,1.032 0,0.476 0.129,0.894 0.39,1.25 0.258,0.351 0.633,0.625 1.125,0.812 0.489,0.188 1.067,0.281 1.735,0.281 0.383,0 0.754,-0.023 1.109,-0.062 0.363,-0.031 0.817,-0.106 1.359,-0.219 z"
         style="fill:#000000;fill-opacity:1;fill-rule:nonzero;stroke:none;stroke-width:1.18280947"
         id="path3365"
         inkscape:connector-curvature="0" /><path
         d="m 282.449,90.982 c -0.875,0 -1.527,0.265 -1.953,0.797 -0.43,0.531 -0.641,1.332 -0.641,2.406 0,0.57 0.063,1.285 0.188,2.141 0.125,0.851 0.332,1.722 0.625,2.609 0.301,0.883 0.687,1.672 1.156,2.359 0.469,0.688 1.004,1.219 1.61,1.594 0.601,0.375 1.257,0.563 1.968,0.563 1.696,0 2.547,-1.079 2.547,-3.235 0,-0.617 -0.07,-1.344 -0.203,-2.187 -0.137,-0.844 -0.355,-1.711 -0.656,-2.594 -0.293,-0.875 -0.668,-1.652 -1.125,-2.328 -0.461,-0.68 -0.992,-1.203 -1.594,-1.578 -0.594,-0.367 -1.234,-0.547 -1.922,-0.547 z m -0.547,6.719 h 4.219 c 0.27,1.238 0.406,2.304 0.406,3.203 0,0.613 -0.101,1.07 -0.297,1.375 -0.199,0.301 -0.511,0.453 -0.937,0.453 -0.68,0 -1.309,-0.434 -1.891,-1.297 -0.586,-0.867 -1.086,-2.109 -1.5,-3.734 z m 4.016,-0.891 h -4.219 c -0.281,-1.273 -0.422,-2.34 -0.422,-3.203 0,-0.656 0.098,-1.141 0.297,-1.453 0.207,-0.305 0.531,-0.453 0.969,-0.453 0.656,0 1.273,0.437 1.859,1.312 0.594,0.883 1.098,2.149 1.516,3.797 z"
         style="fill:#000000;fill-opacity:1;fill-rule:nonzero;stroke:none;stroke-width:1.18280947"
         id="path3367"
         inkscape:connector-curvature="0" /><path
         d="m 135.781,71.732 h 4.508 v -45.43 h -4.508 v 0.84 h 2.797 v 43.75 h -2.797 z m -83.363,0 h 4.512 v -0.84 h -2.801 v -43.75 h 2.801 v -0.84 h -4.512 z"
         style="fill:#000000;fill-opacity:1;fill-rule:evenodd;stroke:none;stroke-width:1.18280947"
         id="path3369"
         inkscape:connector-curvature="0" /><path
         d="M 58.723,63.697 H 69.551 V 62.525 H 58.723 Z"
         style="fill:#000000;fill-opacity:1;fill-rule:nonzero;stroke:none;stroke-width:1.18280947"
         id="path3371"
         inkscape:connector-curvature="0" /><path
         d="m 73.258,63.509 c 0.125,0.539 0.187,0.985 0.187,1.328 0,0.227 -0.043,0.395 -0.125,0.5 -0.074,0.114 -0.187,0.172 -0.343,0.172 -0.188,0 -0.387,-0.078 -0.594,-0.234 -0.199,-0.149 -0.469,-0.418 -0.813,-0.813 l -0.5,0.5 c 0.52,0.551 0.961,0.946 1.328,1.188 0.364,0.238 0.77,0.359 1.219,0.359 0.363,0 0.649,-0.121 0.86,-0.359 0.218,-0.242 0.328,-0.559 0.328,-0.953 0,-0.336 -0.071,-0.68 -0.203,-1.032 l 0.109,-0.046 c 1.082,1.593 2.16,2.39 3.234,2.39 0.633,0 1.129,-0.246 1.485,-0.734 0.351,-0.492 0.531,-1.18 0.531,-2.063 0,-0.961 -0.195,-1.906 -0.578,-2.843 -0.387,-0.938 -0.93,-1.684 -1.625,-2.235 -0.688,-0.543 -1.461,-0.812 -2.313,-0.812 -0.781,0 -1.433,0.172 -1.953,0.515 L 73.086,56.4 C 73,55.986 72.961,55.646 72.961,55.384 c 0,-0.258 0.062,-0.441 0.187,-0.547 0.133,-0.113 0.395,-0.187 0.782,-0.218 l -0.078,-0.438 h -2.704 z m 0.89,-2.484 c -0.062,-0.313 -0.101,-0.555 -0.109,-0.719 -0.012,-0.168 -0.016,-0.328 -0.016,-0.484 0,-0.461 0.094,-0.793 0.282,-1 0.195,-0.211 0.535,-0.313 1.015,-0.313 0.301,0 0.578,0.055 0.828,0.172 0.25,0.125 0.489,0.297 0.719,0.516 0.227,0.226 0.43,0.5 0.61,0.812 0.187,0.313 0.347,0.676 0.484,1.094 0.144,0.426 0.254,0.859 0.328,1.297 0.07,0.445 0.109,0.863 0.109,1.25 0,0.613 -0.089,1.07 -0.265,1.375 -0.168,0.301 -0.438,0.453 -0.813,0.453 -0.304,0 -0.601,-0.106 -0.89,-0.313 -0.282,-0.199 -0.602,-0.523 -0.953,-0.968 -0.344,-0.438 -0.618,-0.875 -0.813,-1.313 -0.187,-0.437 -0.34,-0.937 -0.453,-1.5 z"
         style="fill:#000000;fill-opacity:1;fill-rule:nonzero;stroke:none;stroke-width:1.18280947"
         id="path3373"
         inkscape:connector-curvature="0" /><path
         d="m 83.695,54.275 c -0.136,0.812 -0.257,1.508 -0.359,2.094 -0.106,0.582 -0.203,1.078 -0.297,1.484 -0.086,0.414 -0.164,0.754 -0.234,1.016 -0.075,0.257 -0.149,0.461 -0.219,0.609 -0.063,0.144 -0.133,0.242 -0.203,0.297 -0.063,0.051 -0.137,0.078 -0.219,0.078 -0.074,0 -0.141,-0.012 -0.203,-0.031 -0.063,-0.024 -0.133,-0.063 -0.203,-0.125 -0.063,-0.055 -0.137,-0.137 -0.219,-0.25 -0.074,-0.106 -0.168,-0.246 -0.281,-0.422 l -0.5,0.328 c 0.187,0.258 0.351,0.477 0.5,0.656 0.156,0.176 0.305,0.317 0.453,0.422 0.156,0.102 0.312,0.176 0.469,0.219 0.156,0.051 0.328,0.078 0.515,0.078 0.145,0 0.274,-0.016 0.391,-0.047 0.113,-0.031 0.211,-0.086 0.297,-0.156 0.094,-0.063 0.172,-0.153 0.234,-0.266 0.071,-0.105 0.145,-0.234 0.219,-0.39 0.039,-0.094 0.082,-0.231 0.125,-0.407 0.039,-0.168 0.082,-0.367 0.125,-0.593 0.051,-0.231 0.098,-0.485 0.141,-0.766 0.05,-0.273 0.097,-0.559 0.14,-0.859 0.051,-0.293 0.098,-0.602 0.141,-0.922 0.039,-0.313 0.078,-0.621 0.109,-0.922 0.321,0.414 0.61,0.832 0.86,1.25 0.257,0.426 0.472,0.828 0.64,1.203 0.176,0.383 0.313,0.734 0.406,1.047 0.094,0.312 0.141,0.562 0.141,0.75 0,0.187 -0.055,0.316 -0.156,0.39 -0.094,0.082 -0.258,0.129 -0.485,0.141 l 0.079,0.406 h 1.812 l 0.219,-0.359 c -0.418,-1.055 -0.914,-2.063 -1.485,-3.031 -0.562,-0.969 -1.199,-1.914 -1.906,-2.828 -0.312,-0.364 -0.594,-0.676 -0.844,-0.938 -0.242,-0.269 -0.464,-0.5 -0.671,-0.687 -0.211,-0.196 -0.407,-0.36 -0.594,-0.485 -0.18,-0.125 -0.352,-0.222 -0.516,-0.297 -0.168,-0.07 -0.336,-0.125 -0.5,-0.156 -0.168,-0.031 -0.344,-0.051 -0.531,-0.062 -0.094,0 -0.215,0.011 -0.359,0.031 -0.137,0.023 -0.258,0.047 -0.36,0.078 l 0.313,1.391 h 0.578 v -0.032 c 0,-0.289 0.117,-0.437 0.359,-0.437 0.301,0 0.61,0.121 0.922,0.359 0.32,0.242 0.707,0.621 1.156,1.141 z"
         style="fill:#000000;fill-opacity:1;fill-rule:nonzero;stroke:none;stroke-width:1.18280947"
         id="path3375"
         inkscape:connector-curvature="0" /><path
         d="m 100.098,66.165 v -1.843 h -1.125 c -0.094,0.383 -0.215,0.687 -0.36,0.906 -0.148,0.219 -0.32,0.367 -0.515,0.453 -0.2,0.094 -0.438,0.141 -0.719,0.141 -0.418,0 -0.781,-0.137 -1.094,-0.407 -0.312,-0.261 -0.562,-0.664 -0.75,-1.203 -0.187,-0.531 -0.281,-1.187 -0.281,-1.968 0,-0.5 0.035,-0.961 0.109,-1.375 0.071,-0.407 0.192,-0.758 0.36,-1.047 0.164,-0.293 0.39,-0.524 0.672,-0.688 0.281,-0.168 0.628,-0.25 1.046,-0.25 0.407,0 0.782,0.078 1.125,0.235 0.352,0.156 0.719,0.437 1.094,0.843 l 0.5,-0.578 c -0.305,-0.336 -0.57,-0.59 -0.797,-0.765 -0.218,-0.18 -0.461,-0.329 -0.718,-0.454 -0.262,-0.117 -0.524,-0.199 -0.782,-0.25 -0.25,-0.062 -0.527,-0.093 -0.828,-0.093 -1.105,0 -1.953,0.363 -2.547,1.093 -0.586,0.739 -0.875,1.805 -0.875,3.204 0,0.863 0.16,1.628 0.485,2.296 0.332,0.676 0.797,1.192 1.39,1.547 0.594,0.364 1.274,0.547 2.047,0.547 0.477,0 0.922,-0.027 1.328,-0.078 0.407,-0.055 0.817,-0.141 1.235,-0.266 z"
         style="fill:#000000;fill-opacity:1;fill-rule:nonzero;stroke:none;stroke-width:1.18280947"
         id="path3377"
         inkscape:connector-curvature="0" /><path
         d="m 105.309,57.822 c -1.219,0 -2.153,0.359 -2.797,1.078 -0.637,0.719 -0.953,1.781 -0.953,3.187 0,0.969 0.164,1.785 0.5,2.453 0.343,0.665 0.804,1.161 1.39,1.485 0.582,0.32 1.25,0.484 2,0.484 1.258,0 2.207,-0.367 2.844,-1.094 0.645,-0.73 0.969,-1.777 0.969,-3.14 0,-0.969 -0.164,-1.789 -0.485,-2.453 -0.312,-0.668 -0.765,-1.168 -1.359,-1.5 -0.594,-0.336 -1.297,-0.5 -2.109,-0.5 z m -2.094,4.453 c 0,-1.211 0.191,-2.141 0.578,-2.797 0.383,-0.648 0.937,-0.969 1.656,-0.969 0.383,0 0.711,0.094 0.985,0.281 0.281,0.196 0.504,0.457 0.671,0.782 0.176,0.32 0.301,0.691 0.375,1.109 0.083,0.426 0.125,0.875 0.125,1.344 0,0.863 -0.093,1.578 -0.281,2.14 -0.187,0.571 -0.449,0.989 -0.781,1.25 -0.324,0.27 -0.699,0.407 -1.125,0.407 -0.711,0 -1.258,-0.309 -1.641,-0.922 -0.375,-0.617 -0.562,-1.492 -0.562,-2.625 z"
         style="fill:#000000;fill-opacity:1;fill-rule:nonzero;stroke:none;stroke-width:1.18280947"
         id="path3379"
         inkscape:connector-curvature="0" /><path
         d="m 116.871,64.447 h -0.844 c -0.125,0.343 -0.277,0.613 -0.453,0.812 -0.179,0.207 -0.375,0.352 -0.594,0.438 -0.218,0.082 -0.492,0.125 -0.812,0.125 -0.469,0 -0.844,-0.11 -1.125,-0.328 -0.281,-0.219 -0.422,-0.524 -0.422,-0.907 0,-0.273 0.055,-0.496 0.172,-0.672 0.113,-0.168 0.285,-0.328 0.516,-0.484 0.238,-0.156 0.648,-0.359 1.234,-0.609 0.602,-0.262 1.066,-0.5 1.391,-0.719 0.32,-0.211 0.578,-0.461 0.765,-0.75 0.188,-0.281 0.281,-0.625 0.281,-1.031 0,-0.461 -0.085,-0.852 -0.25,-1.172 -0.156,-0.313 -0.382,-0.57 -0.671,-0.766 -0.282,-0.199 -0.621,-0.34 -1.016,-0.422 -0.398,-0.093 -0.828,-0.14 -1.297,-0.14 -0.492,0 -0.969,0.039 -1.437,0.109 -0.461,0.07 -0.907,0.164 -1.344,0.281 v 1.844 h 0.859 c 0.156,-0.543 0.391,-0.937 0.703,-1.187 0.313,-0.243 0.739,-0.36 1.282,-0.36 0.207,0 0.41,0.02 0.609,0.063 0.207,0.05 0.391,0.129 0.547,0.234 0.164,0.102 0.297,0.238 0.39,0.406 0.094,0.176 0.141,0.399 0.141,0.672 0,0.289 -0.062,0.531 -0.187,0.719 -0.118,0.187 -0.297,0.359 -0.547,0.516 -0.242,0.156 -0.672,0.363 -1.297,0.625 -0.531,0.226 -0.961,0.445 -1.281,0.656 -0.325,0.207 -0.579,0.453 -0.766,0.734 -0.18,0.289 -0.266,0.633 -0.266,1.031 0,0.477 0.129,0.895 0.391,1.25 0.258,0.352 0.633,0.625 1.125,0.813 0.488,0.187 1.066,0.281 1.734,0.281 0.383,0 0.754,-0.023 1.11,-0.062 0.363,-0.032 0.816,-0.106 1.359,-0.219 z"
         style="fill:#000000;fill-opacity:1;fill-rule:nonzero;stroke:none;stroke-width:1.18280947"
         id="path3381"
         inkscape:connector-curvature="0" /><path
         d="m 124.41,57.822 c -0.875,0 -1.527,0.265 -1.953,0.797 -0.43,0.531 -0.641,1.332 -0.641,2.406 0,0.57 0.063,1.285 0.188,2.14 0.125,0.852 0.332,1.723 0.625,2.61 0.301,0.883 0.687,1.672 1.156,2.359 0.469,0.688 1.004,1.219 1.61,1.594 0.601,0.375 1.257,0.562 1.968,0.562 1.696,0 2.547,-1.078 2.547,-3.234 0,-0.617 -0.07,-1.344 -0.203,-2.187 -0.137,-0.844 -0.355,-1.711 -0.656,-2.594 -0.293,-0.875 -0.668,-1.653 -1.125,-2.328 -0.461,-0.68 -0.992,-1.203 -1.594,-1.578 -0.594,-0.368 -1.234,-0.547 -1.922,-0.547 z m -0.547,6.718 h 4.219 c 0.27,1.239 0.406,2.305 0.406,3.204 0,0.613 -0.101,1.07 -0.297,1.375 -0.199,0.3 -0.511,0.453 -0.937,0.453 -0.68,0 -1.309,-0.434 -1.891,-1.297 -0.586,-0.867 -1.086,-2.11 -1.5,-3.735 z m 4.016,-0.89 h -4.219 c -0.281,-1.274 -0.422,-2.34 -0.422,-3.203 0,-0.657 0.098,-1.141 0.297,-1.453 0.207,-0.305 0.531,-0.454 0.969,-0.454 0.656,0 1.273,0.438 1.859,1.313 0.594,0.883 1.098,2.148 1.516,3.797 z"
         style="fill:#000000;fill-opacity:1;fill-rule:nonzero;stroke:none;stroke-width:1.18280947"
         id="path3383"
         inkscape:connector-curvature="0" /><path
         d="m 69.777,39.24 c 0.125,0.539 0.188,0.984 0.188,1.328 0,0.226 -0.043,0.394 -0.125,0.5 -0.074,0.113 -0.188,0.172 -0.344,0.172 -0.187,0 -0.387,-0.078 -0.594,-0.235 -0.199,-0.148 -0.468,-0.418 -0.812,-0.812 l -0.5,0.5 c 0.519,0.551 0.961,0.945 1.328,1.187 0.363,0.239 0.77,0.36 1.219,0.36 0.363,0 0.648,-0.121 0.859,-0.36 0.219,-0.242 0.328,-0.558 0.328,-0.953 0,-0.336 -0.07,-0.68 -0.203,-1.031 l 0.109,-0.047 c 1.083,1.594 2.161,2.391 3.235,2.391 0.633,0 1.129,-0.246 1.484,-0.735 0.352,-0.492 0.531,-1.179 0.531,-2.062 0,-0.961 -0.195,-1.906 -0.578,-2.844 -0.386,-0.937 -0.929,-1.684 -1.625,-2.234 -0.687,-0.543 -1.461,-0.813 -2.312,-0.813 -0.781,0 -1.434,0.172 -1.953,0.516 L 69.605,32.13 C 69.52,31.716 69.48,31.376 69.48,31.115 c 0,-0.258 0.063,-0.442 0.188,-0.547 0.133,-0.113 0.395,-0.188 0.781,-0.219 l -0.078,-0.437 h -2.703 z m 0.891,-2.485 c -0.063,-0.312 -0.102,-0.554 -0.109,-0.718 -0.012,-0.168 -0.016,-0.329 -0.016,-0.485 0,-0.461 0.094,-0.793 0.281,-1 0.196,-0.211 0.535,-0.312 1.016,-0.312 0.301,0 0.578,0.054 0.828,0.172 0.25,0.125 0.488,0.296 0.719,0.515 0.226,0.227 0.429,0.5 0.609,0.813 0.188,0.312 0.348,0.675 0.484,1.093 0.145,0.426 0.254,0.86 0.329,1.297 0.07,0.446 0.109,0.864 0.109,1.25 0,0.614 -0.09,1.071 -0.266,1.375 -0.168,0.301 -0.437,0.453 -0.812,0.453 -0.305,0 -0.602,-0.105 -0.891,-0.312 -0.281,-0.199 -0.601,-0.524 -0.953,-0.969 -0.344,-0.437 -0.617,-0.875 -0.812,-1.312 -0.188,-0.438 -0.34,-0.938 -0.454,-1.5 z"
         style="fill:#000000;fill-opacity:1;fill-rule:nonzero;stroke:none;stroke-width:1.18280947"
         id="path3385"
         inkscape:connector-curvature="0" /><path
         d="m 80.215,30.005 c -0.137,0.813 -0.258,1.508 -0.36,2.094 -0.105,0.582 -0.203,1.078 -0.296,1.484 -0.086,0.414 -0.164,0.754 -0.235,1.016 -0.074,0.258 -0.148,0.461 -0.219,0.609 -0.062,0.145 -0.132,0.243 -0.203,0.297 -0.062,0.051 -0.136,0.078 -0.218,0.078 -0.075,0 -0.141,-0.011 -0.204,-0.031 -0.062,-0.023 -0.132,-0.062 -0.203,-0.125 -0.062,-0.055 -0.136,-0.137 -0.218,-0.25 -0.075,-0.105 -0.168,-0.246 -0.282,-0.422 l -0.5,0.328 c 0.188,0.258 0.352,0.477 0.5,0.657 0.157,0.175 0.305,0.316 0.453,0.422 0.157,0.101 0.313,0.175 0.469,0.218 0.156,0.051 0.328,0.078 0.516,0.078 0.144,0 0.273,-0.015 0.39,-0.046 0.114,-0.032 0.211,-0.086 0.297,-0.157 0.094,-0.062 0.172,-0.152 0.235,-0.265 0.07,-0.106 0.144,-0.235 0.218,-0.391 0.04,-0.094 0.083,-0.23 0.125,-0.406 0.04,-0.168 0.083,-0.367 0.125,-0.594 0.051,-0.23 0.098,-0.484 0.141,-0.766 0.051,-0.273 0.098,-0.558 0.141,-0.859 0.051,-0.293 0.097,-0.602 0.14,-0.922 0.039,-0.312 0.078,-0.621 0.11,-0.922 0.32,0.414 0.609,0.832 0.859,1.25 0.258,0.426 0.473,0.828 0.641,1.203 0.176,0.383 0.312,0.735 0.406,1.047 0.094,0.313 0.141,0.563 0.141,0.75 0,0.188 -0.055,0.317 -0.157,0.391 -0.093,0.082 -0.257,0.129 -0.484,0.141 l 0.078,0.406 h 1.813 l 0.218,-0.36 c -0.418,-1.054 -0.914,-2.062 -1.484,-3.031 -0.563,-0.969 -1.199,-1.914 -1.906,-2.828 -0.313,-0.363 -0.594,-0.676 -0.844,-0.937 -0.242,-0.27 -0.465,-0.5 -0.672,-0.688 -0.211,-0.195 -0.406,-0.359 -0.594,-0.484 -0.179,-0.125 -0.351,-0.223 -0.515,-0.297 -0.168,-0.071 -0.336,-0.125 -0.5,-0.156 -0.168,-0.032 -0.344,-0.051 -0.532,-0.063 -0.093,0 -0.214,0.012 -0.359,0.031 -0.137,0.024 -0.258,0.047 -0.359,0.078 l 0.312,1.391 h 0.578 v -0.031 c 0,-0.289 0.118,-0.438 0.36,-0.438 0.301,0 0.609,0.121 0.922,0.36 0.32,0.242 0.707,0.621 1.156,1.14 z"
         style="fill:#000000;fill-opacity:1;fill-rule:nonzero;stroke:none;stroke-width:1.18280947"
         id="path3387"
         inkscape:connector-curvature="0" /><path
         d="M 95.824,40.177 H 94.98 c -0.125,0.344 -0.277,0.613 -0.453,0.813 -0.179,0.207 -0.375,0.351 -0.593,0.437 -0.219,0.082 -0.493,0.125 -0.813,0.125 -0.469,0 -0.844,-0.109 -1.125,-0.328 -0.281,-0.219 -0.422,-0.523 -0.422,-0.906 0,-0.274 0.055,-0.496 0.172,-0.672 0.113,-0.168 0.285,-0.328 0.516,-0.484 0.238,-0.157 0.648,-0.36 1.234,-0.61 0.602,-0.262 1.067,-0.5 1.391,-0.719 0.32,-0.211 0.578,-0.461 0.765,-0.75 0.188,-0.281 0.282,-0.625 0.282,-1.031 0,-0.461 -0.086,-0.851 -0.25,-1.172 -0.157,-0.312 -0.383,-0.57 -0.672,-0.765 -0.282,-0.2 -0.621,-0.34 -1.016,-0.422 -0.398,-0.094 -0.828,-0.141 -1.297,-0.141 -0.492,0 -0.969,0.039 -1.437,0.11 -0.461,0.07 -0.907,0.164 -1.344,0.281 v 1.844 h 0.859 c 0.157,-0.543 0.391,-0.938 0.703,-1.188 0.313,-0.242 0.739,-0.359 1.282,-0.359 0.207,0 0.41,0.019 0.609,0.062 0.207,0.051 0.391,0.129 0.547,0.235 0.164,0.101 0.297,0.238 0.391,0.406 0.093,0.176 0.14,0.398 0.14,0.672 0,0.289 -0.062,0.531 -0.187,0.718 -0.117,0.188 -0.297,0.36 -0.547,0.516 -0.242,0.156 -0.672,0.363 -1.297,0.625 -0.531,0.227 -0.961,0.445 -1.281,0.656 -0.324,0.207 -0.578,0.453 -0.766,0.735 -0.18,0.289 -0.266,0.632 -0.266,1.031 0,0.476 0.129,0.894 0.391,1.25 0.258,0.351 0.633,0.625 1.125,0.812 0.488,0.188 1.067,0.282 1.734,0.282 0.383,0 0.754,-0.024 1.11,-0.063 0.363,-0.031 0.816,-0.105 1.359,-0.219 z"
         style="fill:#000000;fill-opacity:1;fill-rule:nonzero;stroke:none;stroke-width:1.18280947"
         id="path3389"
         inkscape:connector-curvature="0" /><path
         d="m 100.188,45.537 v -1.704 h -1.61 v 1.704 z m -2.5,-11.407 c 0.226,0.063 0.39,0.117 0.484,0.172 0.094,0.051 0.172,0.125 0.234,0.219 0.071,0.094 0.125,0.238 0.157,0.437 0.039,0.196 0.062,0.5 0.062,0.907 v 3.828 c 0,0.375 -0.008,0.676 -0.016,0.906 -0.011,0.227 -0.054,0.41 -0.125,0.547 -0.062,0.144 -0.168,0.25 -0.312,0.312 -0.149,0.063 -0.352,0.118 -0.609,0.172 v 0.469 l 2.046,0.078 h 0.532 v -6.281 c 0,-0.512 0.019,-0.867 0.062,-1.063 0.051,-0.187 0.141,-0.336 0.266,-0.437 0.133,-0.106 0.351,-0.195 0.656,-0.266 v -0.437 h -3.437 z"
         style="fill:#000000;fill-opacity:1;fill-rule:nonzero;stroke:none;stroke-width:1.18280947"
         id="path3391"
         inkscape:connector-curvature="0" /><path
         d="m 111.238,33.693 h -3.453 v 0.437 c 0.227,0.063 0.391,0.117 0.485,0.172 0.101,0.051 0.187,0.125 0.25,0.219 0.07,0.094 0.125,0.238 0.156,0.437 0.039,0.196 0.062,0.493 0.062,0.891 v 2.313 c 0,0.406 -0.011,0.773 -0.031,1.109 -0.023,0.332 -0.062,0.601 -0.125,0.812 -0.055,0.219 -0.121,0.383 -0.203,0.5 -0.074,0.125 -0.168,0.227 -0.281,0.313 -0.106,0.094 -0.231,0.16 -0.375,0.203 -0.137,0.051 -0.321,0.078 -0.547,0.078 -0.231,0 -0.449,-0.047 -0.656,-0.14 -0.2,-0.086 -0.422,-0.243 -0.672,-0.469 -0.25,-0.219 -0.434,-0.438 -0.547,-0.656 -0.106,-0.219 -0.156,-0.469 -0.156,-0.75 v -3.266 c 0,-0.512 0.019,-0.867 0.062,-1.063 0.051,-0.187 0.141,-0.336 0.266,-0.437 0.132,-0.106 0.351,-0.195 0.656,-0.266 v -0.437 h -3.438 v 0.437 c 0.227,0.063 0.391,0.117 0.485,0.172 0.094,0.051 0.172,0.125 0.234,0.219 0.07,0.094 0.125,0.238 0.156,0.437 0.039,0.196 0.063,0.5 0.063,0.907 v 3.828 c 0,0.375 -0.008,0.676 -0.016,0.906 -0.011,0.227 -0.054,0.41 -0.125,0.547 -0.062,0.144 -0.168,0.25 -0.312,0.312 -0.149,0.063 -0.352,0.118 -0.61,0.172 v 0.469 l 2.047,0.078 h 0.547 l -0.109,-1.437 0.125,-0.032 c 0.437,0.438 0.785,0.75 1.047,0.938 0.269,0.187 0.539,0.332 0.812,0.437 0.27,0.102 0.563,0.157 0.875,0.157 0.313,0 0.594,-0.039 0.844,-0.11 0.25,-0.074 0.469,-0.187 0.656,-0.343 0.188,-0.157 0.344,-0.352 0.469,-0.579 0.125,-0.218 0.219,-0.492 0.281,-0.812 0.063,-0.313 0.094,-0.711 0.094,-1.188 v -3.312 c 0,-0.406 0.008,-0.703 0.031,-0.891 0.02,-0.179 0.063,-0.32 0.125,-0.422 0.063,-0.093 0.145,-0.179 0.25,-0.25 0.113,-0.062 0.305,-0.132 0.578,-0.203 z"
         style="fill:#000000;fill-opacity:1;fill-rule:nonzero;stroke:none;stroke-width:1.18280947"
         id="path3393"
         inkscape:connector-curvature="0" /><path
         d="m 118.41,33.552 c -0.875,0 -1.527,0.266 -1.953,0.797 -0.43,0.531 -0.641,1.332 -0.641,2.406 0,0.571 0.063,1.285 0.188,2.141 0.125,0.851 0.332,1.723 0.625,2.609 0.301,0.883 0.687,1.672 1.156,2.36 0.469,0.687 1.004,1.218 1.61,1.593 0.601,0.375 1.257,0.563 1.968,0.563 1.696,0 2.547,-1.078 2.547,-3.234 0,-0.618 -0.07,-1.344 -0.203,-2.188 -0.137,-0.844 -0.355,-1.711 -0.656,-2.594 -0.293,-0.875 -0.668,-1.652 -1.125,-2.328 -0.461,-0.68 -0.992,-1.203 -1.594,-1.578 -0.594,-0.367 -1.234,-0.547 -1.922,-0.547 z m -0.547,6.719 h 4.219 c 0.27,1.238 0.406,2.305 0.406,3.203 0,0.613 -0.101,1.07 -0.297,1.375 -0.199,0.301 -0.511,0.453 -0.937,0.453 -0.68,0 -1.309,-0.433 -1.891,-1.297 -0.586,-0.867 -1.086,-2.109 -1.5,-3.734 z m 4.016,-0.891 h -4.219 c -0.281,-1.273 -0.422,-2.34 -0.422,-3.203 0,-0.656 0.098,-1.14 0.297,-1.453 0.207,-0.305 0.531,-0.453 0.969,-0.453 0.656,0 1.273,0.437 1.859,1.312 0.594,0.883 1.098,2.149 1.516,3.797 z"
         style="fill:#000000;fill-opacity:1;fill-rule:nonzero;stroke:none;stroke-width:1.18280947"
         id="path3395"
         inkscape:connector-curvature="0" /><path
         d="m 218.418,116.642 -2.168,0.031 -2.141,0.051 -2.078,0.09 -1.992,0.168 -1.859,0.273 -0.879,0.168 -0.832,0.211 -0.778,0.25 -0.75,0.301 -0.683,0.34 -0.617,0.39 -0.551,0.45 -0.488,0.488 -0.422,0.539 -0.36,0.57 -0.3,0.614 -0.262,0.648 -0.36,1.328 -0.218,1.43 -0.102,1.48 -0.039,1.512 -0.008,0.539 h 1 l 0.008,-0.531 v 0.012 l 0.031,-1.489 v 0.02 l 0.11,-1.449 -0.012,0.039 0.211,-1.383 -0.008,0.062 0.348,-1.289 -0.02,0.059 0.242,-0.602 -0.023,0.032 0.281,-0.571 -0.031,0.051 0.34,-0.531 -0.02,0.039 0.383,-0.5 -0.043,0.051 0.453,-0.45 -0.043,0.039 0.512,-0.417 -0.051,0.039 0.571,-0.36 -0.032,0.02 0.633,-0.321 -0.043,0.02 0.711,-0.277 -0.039,0.007 0.758,-0.238 -0.028,0.008 0.801,-0.199 h -0.023 l 0.863,-0.172 h -0.031 l 1.828,-0.258 -0.027,0.008 1.961,-0.168 h -0.012 l 2.058,-0.102 h -0.007 l 2.129,-0.039 2.171,-0.031 z m -21.289,6.102 3.902,6.761 3.969,-6.722 c 0.141,-0.239 0.059,-0.539 -0.18,-0.68 -0.242,-0.141 -0.55,-0.059 -0.691,0.172 l -3.527,5.988 h 0.867 L 198,122.244 c -0.141,-0.239 -0.449,-0.321 -0.691,-0.18 -0.231,0.141 -0.321,0.441 -0.18,0.68 z"
         style="fill:#000000;fill-opacity:1;fill-rule:nonzero;stroke:none;stroke-width:1.18280947"
         id="path3397"
         inkscape:connector-curvature="0" /><path
         d="m 144.918,234.232 h 4.512 v -45.438 h -4.512 v 0.848 h 2.801 v 43.742 h -2.801 z M 0,234.232 h 4.508 v -0.848 H 1.711 v -43.742 h 2.797 v -0.848 H 0 Z"
         style="fill:#000000;fill-opacity:1;fill-rule:evenodd;stroke:none;stroke-width:1.18280947"
         id="path3399"
         inkscape:connector-curvature="0" /><path
         d="m 7.406,226.029 c 0.125,0.539 0.188,0.984 0.188,1.328 0,0.226 -0.043,0.394 -0.125,0.5 -0.074,0.113 -0.188,0.172 -0.344,0.172 -0.187,0 -0.387,-0.078 -0.594,-0.235 -0.199,-0.148 -0.468,-0.418 -0.812,-0.812 l -0.5,0.5 c 0.519,0.551 0.961,0.945 1.328,1.187 0.363,0.239 0.769,0.36 1.219,0.36 0.363,0 0.648,-0.121 0.859,-0.36 0.219,-0.242 0.328,-0.558 0.328,-0.953 0,-0.336 -0.07,-0.679 -0.203,-1.031 l 0.109,-0.047 c 1.082,1.594 2.161,2.391 3.235,2.391 0.633,0 1.129,-0.246 1.484,-0.735 0.352,-0.492 0.531,-1.179 0.531,-2.062 0,-0.961 -0.195,-1.906 -0.578,-2.844 -0.386,-0.937 -0.929,-1.683 -1.625,-2.234 -0.687,-0.543 -1.461,-0.813 -2.312,-0.813 -0.781,0 -1.434,0.172 -1.953,0.516 l -0.407,-1.938 c -0.086,-0.414 -0.125,-0.754 -0.125,-1.015 0,-0.258 0.063,-0.442 0.188,-0.547 0.133,-0.113 0.394,-0.188 0.781,-0.219 L 8,216.701 H 5.297 Z m 0.891,-2.485 c -0.063,-0.312 -0.102,-0.554 -0.109,-0.718 -0.012,-0.168 -0.016,-0.329 -0.016,-0.485 0,-0.461 0.094,-0.793 0.281,-1 0.195,-0.211 0.535,-0.312 1.016,-0.312 0.301,0 0.578,0.054 0.828,0.172 0.25,0.125 0.488,0.296 0.719,0.515 0.226,0.227 0.429,0.5 0.609,0.813 0.188,0.312 0.348,0.676 0.484,1.093 0.145,0.426 0.254,0.86 0.329,1.297 0.07,0.446 0.109,0.864 0.109,1.25 0,0.614 -0.09,1.071 -0.266,1.375 -0.168,0.301 -0.437,0.453 -0.812,0.453 -0.305,0 -0.602,-0.105 -0.891,-0.312 -0.281,-0.199 -0.601,-0.523 -0.953,-0.969 -0.344,-0.437 -0.617,-0.875 -0.812,-1.312 -0.188,-0.438 -0.34,-0.938 -0.454,-1.5 z"
         style="fill:#000000;fill-opacity:1;fill-rule:nonzero;stroke:none;stroke-width:1.18280947"
         id="path3401"
         inkscape:connector-curvature="0" /><path
         d="m 17.719,219.826 c -0.074,0.351 -0.141,0.66 -0.203,0.921 -0.055,0.258 -0.106,0.485 -0.157,0.672 -0.054,0.188 -0.105,0.336 -0.156,0.453 -0.043,0.125 -0.09,0.223 -0.14,0.297 -0.043,0.071 -0.094,0.118 -0.157,0.141 -0.054,0.031 -0.117,0.051 -0.187,0.062 -0.074,0 -0.141,-0.015 -0.203,-0.046 -0.063,-0.024 -0.133,-0.063 -0.203,-0.125 -0.063,-0.055 -0.137,-0.133 -0.219,-0.235 -0.074,-0.105 -0.156,-0.246 -0.25,-0.422 l -0.5,0.328 c 0.176,0.25 0.332,0.461 0.469,0.641 0.144,0.188 0.285,0.332 0.421,0.438 0.133,0.101 0.274,0.175 0.422,0.218 0.157,0.051 0.328,0.078 0.516,0.078 0.238,0 0.43,-0.054 0.578,-0.156 0.145,-0.105 0.266,-0.258 0.359,-0.453 0.102,-0.187 0.188,-0.43 0.25,-0.719 0.063,-0.281 0.129,-0.605 0.204,-0.968 h 0.078 c 0.257,0.332 0.476,0.617 0.656,0.859 0.187,0.25 0.351,0.457 0.5,0.625 0.144,0.164 0.273,0.301 0.391,0.406 0.125,0.114 0.238,0.196 0.343,0.25 0.114,0.063 0.227,0.102 0.344,0.125 0.113,0.02 0.242,0.031 0.391,0.031 0.207,0 0.398,-0.042 0.578,-0.125 l -0.313,-1.25 H 21 c -0.012,0.188 -0.078,0.282 -0.203,0.282 -0.055,0 -0.106,-0.012 -0.156,-0.032 -0.055,-0.011 -0.121,-0.042 -0.203,-0.093 -0.075,-0.055 -0.165,-0.125 -0.266,-0.219 -0.094,-0.094 -0.211,-0.215 -0.344,-0.359 -0.137,-0.149 -0.293,-0.325 -0.469,-0.532 -0.168,-0.211 -0.367,-0.461 -0.593,-0.75 0.113,-0.586 0.211,-1.054 0.297,-1.406 0.082,-0.344 0.16,-0.609 0.234,-0.797 0.082,-0.187 0.16,-0.312 0.234,-0.375 0.071,-0.054 0.16,-0.078 0.266,-0.078 0.07,0 0.133,0.004 0.187,0.016 0.063,0.019 0.125,0.054 0.188,0.109 0.07,0.063 0.144,0.145 0.219,0.25 0.082,0.113 0.179,0.258 0.297,0.438 l 0.484,-0.313 c -0.188,-0.281 -0.356,-0.512 -0.5,-0.687 -0.149,-0.18 -0.289,-0.321 -0.422,-0.422 -0.137,-0.094 -0.277,-0.157 -0.422,-0.188 -0.148,-0.039 -0.308,-0.062 -0.484,-0.062 -0.168,0 -0.313,0.023 -0.438,0.062 -0.125,0.043 -0.234,0.125 -0.328,0.25 -0.062,0.071 -0.125,0.164 -0.187,0.281 -0.055,0.125 -0.106,0.254 -0.157,0.391 -0.043,0.133 -0.086,0.274 -0.125,0.422 -0.031,0.156 -0.062,0.301 -0.093,0.437 -0.024,0.133 -0.043,0.25 -0.063,0.344 -0.012,0.102 -0.015,0.18 -0.015,0.235 h -0.079 c -0.25,-0.336 -0.468,-0.633 -0.656,-0.891 -0.187,-0.25 -0.359,-0.465 -0.515,-0.641 -0.157,-0.179 -0.297,-0.324 -0.422,-0.437 -0.118,-0.117 -0.235,-0.211 -0.36,-0.281 -0.117,-0.063 -0.234,-0.102 -0.359,-0.125 -0.125,-0.032 -0.262,-0.047 -0.406,-0.047 -0.231,0 -0.422,0.039 -0.578,0.109 l 0.296,1.234 h 0.547 c 0.008,-0.187 0.078,-0.281 0.203,-0.281 0.051,0.008 0.098,0.02 0.141,0.031 0.039,0.008 0.086,0.036 0.141,0.079 0.062,0.039 0.14,0.101 0.234,0.187 0.094,0.094 0.207,0.211 0.344,0.359 0.144,0.157 0.316,0.348 0.515,0.579 0.207,0.238 0.454,0.531 0.735,0.875 z"
         style="fill:#000000;fill-opacity:1;fill-rule:nonzero;stroke:none;stroke-width:1.18280947"
         id="path3403"
         inkscape:connector-curvature="0" /><path
         d="m 32.855,226.966 h -0.843 c -0.125,0.344 -0.278,0.614 -0.453,0.813 -0.18,0.207 -0.375,0.351 -0.594,0.437 -0.219,0.082 -0.492,0.125 -0.813,0.125 -0.468,0 -0.843,-0.109 -1.125,-0.328 -0.281,-0.219 -0.422,-0.523 -0.422,-0.906 0,-0.274 0.055,-0.496 0.172,-0.672 0.114,-0.168 0.286,-0.328 0.516,-0.484 0.238,-0.157 0.648,-0.36 1.234,-0.61 0.602,-0.261 1.067,-0.5 1.391,-0.719 0.32,-0.21 0.578,-0.46 0.766,-0.75 0.187,-0.281 0.281,-0.625 0.281,-1.031 0,-0.461 -0.086,-0.851 -0.25,-1.172 -0.156,-0.312 -0.383,-0.57 -0.672,-0.765 -0.281,-0.199 -0.621,-0.34 -1.016,-0.422 -0.398,-0.094 -0.828,-0.141 -1.297,-0.141 -0.492,0 -0.968,0.039 -1.437,0.11 -0.461,0.07 -0.906,0.164 -1.344,0.281 v 1.844 h 0.86 c 0.156,-0.543 0.39,-0.938 0.703,-1.188 0.312,-0.242 0.738,-0.359 1.281,-0.359 0.207,0 0.41,0.019 0.609,0.062 0.207,0.051 0.391,0.129 0.547,0.235 0.164,0.101 0.297,0.238 0.391,0.406 0.094,0.176 0.14,0.398 0.14,0.672 0,0.289 -0.062,0.531 -0.187,0.718 -0.117,0.188 -0.297,0.36 -0.547,0.516 -0.242,0.156 -0.672,0.363 -1.297,0.625 -0.531,0.227 -0.961,0.445 -1.281,0.656 -0.324,0.207 -0.578,0.453 -0.766,0.735 -0.179,0.289 -0.265,0.633 -0.265,1.031 0,0.477 0.129,0.895 0.39,1.25 0.258,0.352 0.633,0.625 1.125,0.812 0.489,0.188 1.067,0.282 1.735,0.282 0.383,0 0.754,-0.024 1.109,-0.063 0.363,-0.031 0.817,-0.105 1.359,-0.219 z"
         style="fill:#000000;fill-opacity:1;fill-rule:nonzero;stroke:none;stroke-width:1.18280947"
         id="path3405"
         inkscape:connector-curvature="0" /><path
         d="m 37.164,232.326 v -1.704 h -1.609 v 1.704 z m -2.5,-11.407 c 0.227,0.063 0.391,0.118 0.484,0.172 0.094,0.051 0.172,0.125 0.235,0.219 0.07,0.094 0.125,0.238 0.156,0.437 0.039,0.196 0.063,0.5 0.063,0.907 v 3.828 c 0,0.375 -0.008,0.676 -0.016,0.906 -0.012,0.227 -0.055,0.41 -0.125,0.547 -0.063,0.145 -0.168,0.25 -0.313,0.312 -0.148,0.063 -0.351,0.118 -0.609,0.172 v 0.469 l 2.047,0.078 h 0.531 v -6.281 c 0,-0.512 0.02,-0.867 0.063,-1.063 0.05,-0.187 0.14,-0.335 0.265,-0.437 0.133,-0.105 0.352,-0.195 0.657,-0.266 v -0.437 h -3.438 z"
         style="fill:#000000;fill-opacity:1;fill-rule:nonzero;stroke:none;stroke-width:1.18280947"
         id="path3407"
         inkscape:connector-curvature="0" /><path
         d="m 48.215,220.482 h -3.453 v 0.437 c 0.226,0.063 0.39,0.118 0.484,0.172 0.102,0.051 0.188,0.125 0.25,0.219 0.07,0.094 0.125,0.238 0.156,0.437 0.039,0.196 0.063,0.493 0.063,0.891 v 2.313 c 0,0.406 -0.012,0.773 -0.031,1.109 -0.024,0.332 -0.063,0.602 -0.125,0.812 -0.055,0.219 -0.121,0.383 -0.204,0.5 -0.074,0.125 -0.167,0.227 -0.281,0.313 -0.105,0.094 -0.23,0.16 -0.375,0.203 -0.136,0.051 -0.32,0.078 -0.547,0.078 -0.23,0 -0.449,-0.047 -0.656,-0.14 -0.199,-0.086 -0.422,-0.243 -0.672,-0.469 -0.25,-0.219 -0.433,-0.438 -0.547,-0.656 -0.105,-0.219 -0.156,-0.469 -0.156,-0.75 v -3.266 c 0,-0.512 0.02,-0.867 0.063,-1.063 0.05,-0.187 0.14,-0.335 0.265,-0.437 0.133,-0.105 0.352,-0.195 0.656,-0.266 v -0.437 h -3.437 v 0.437 c 0.227,0.063 0.391,0.118 0.484,0.172 0.094,0.051 0.172,0.125 0.235,0.219 0.07,0.094 0.125,0.238 0.156,0.437 0.039,0.196 0.062,0.5 0.062,0.907 v 3.828 c 0,0.375 -0.007,0.676 -0.015,0.906 -0.012,0.227 -0.055,0.41 -0.125,0.547 -0.063,0.145 -0.168,0.25 -0.313,0.312 -0.148,0.063 -0.351,0.118 -0.609,0.172 v 0.469 l 2.047,0.078 h 0.547 l -0.11,-1.437 0.125,-0.032 c 0.438,0.438 0.786,0.75 1.047,0.938 0.27,0.187 0.539,0.332 0.813,0.437 0.269,0.102 0.562,0.157 0.875,0.157 0.312,0 0.593,-0.039 0.843,-0.11 0.25,-0.074 0.469,-0.187 0.657,-0.343 0.187,-0.157 0.343,-0.352 0.468,-0.579 0.125,-0.218 0.219,-0.492 0.282,-0.812 0.062,-0.313 0.093,-0.711 0.093,-1.188 v -3.312 c 0,-0.406 0.008,-0.703 0.032,-0.891 0.019,-0.179 0.062,-0.32 0.125,-0.422 0.062,-0.093 0.144,-0.179 0.25,-0.25 0.113,-0.062 0.304,-0.132 0.578,-0.203 z"
         style="fill:#000000;fill-opacity:1;fill-rule:nonzero;stroke:none;stroke-width:1.18280947"
         id="path3409"
         inkscape:connector-curvature="0" /><path
         d="m 55.41,220.341 c -0.875,0 -1.527,0.266 -1.953,0.797 -0.43,0.531 -0.641,1.332 -0.641,2.406 0,0.571 0.063,1.286 0.188,2.141 0.125,0.852 0.332,1.723 0.625,2.609 0.301,0.883 0.687,1.672 1.156,2.36 0.469,0.687 1.004,1.218 1.61,1.593 0.601,0.375 1.257,0.563 1.968,0.563 1.696,0 2.547,-1.078 2.547,-3.234 0,-0.618 -0.07,-1.344 -0.203,-2.188 -0.137,-0.844 -0.355,-1.711 -0.656,-2.594 -0.293,-0.875 -0.668,-1.652 -1.125,-2.328 -0.461,-0.679 -0.992,-1.203 -1.594,-1.578 -0.594,-0.367 -1.234,-0.547 -1.922,-0.547 z m -0.547,6.719 h 4.219 c 0.27,1.238 0.406,2.305 0.406,3.203 0,0.613 -0.101,1.07 -0.297,1.375 -0.199,0.301 -0.511,0.453 -0.937,0.453 -0.68,0 -1.309,-0.433 -1.891,-1.297 -0.586,-0.867 -1.086,-2.109 -1.5,-3.734 z m 4.016,-0.891 H 54.66 c -0.281,-1.273 -0.422,-2.339 -0.422,-3.203 0,-0.656 0.098,-1.14 0.297,-1.453 0.207,-0.305 0.531,-0.453 0.969,-0.453 0.656,0 1.273,0.437 1.859,1.312 0.594,0.883 1.098,2.149 1.516,3.797 z"
         style="fill:#000000;fill-opacity:1;fill-rule:nonzero;stroke:none;stroke-width:1.18280947"
         id="path3411"
         inkscape:connector-curvature="0" /><path
         d="m 67.754,226.216 h 10.828 v -1.172 H 67.754 Z"
         style="fill:#000000;fill-opacity:1;fill-rule:nonzero;stroke:none;stroke-width:1.18280947"
         id="path3413"
         inkscape:connector-curvature="0" /><path
         d="m 86.367,226.029 c 0.125,0.539 0.188,0.984 0.188,1.328 0,0.226 -0.043,0.394 -0.125,0.5 -0.075,0.113 -0.188,0.172 -0.344,0.172 -0.188,0 -0.387,-0.078 -0.594,-0.235 -0.199,-0.148 -0.469,-0.418 -0.812,-0.812 l -0.5,0.5 c 0.519,0.551 0.961,0.945 1.328,1.187 0.363,0.239 0.769,0.36 1.219,0.36 0.363,0 0.648,-0.121 0.859,-0.36 0.219,-0.242 0.328,-0.558 0.328,-0.953 0,-0.336 -0.07,-0.679 -0.203,-1.031 l 0.109,-0.047 c 1.082,1.594 2.16,2.391 3.235,2.391 0.633,0 1.129,-0.246 1.484,-0.735 0.352,-0.492 0.531,-1.179 0.531,-2.062 0,-0.961 -0.195,-1.906 -0.578,-2.844 -0.387,-0.937 -0.929,-1.683 -1.625,-2.234 -0.687,-0.543 -1.461,-0.813 -2.312,-0.813 -0.782,0 -1.434,0.172 -1.953,0.516 l -0.407,-1.938 c -0.086,-0.414 -0.125,-0.754 -0.125,-1.015 0,-0.258 0.063,-0.442 0.188,-0.547 0.133,-0.113 0.394,-0.188 0.781,-0.219 l -0.078,-0.437 h -2.703 z m 0.891,-2.485 c -0.063,-0.312 -0.102,-0.554 -0.11,-0.718 -0.011,-0.168 -0.015,-0.329 -0.015,-0.485 0,-0.461 0.094,-0.793 0.281,-1 0.195,-0.211 0.535,-0.312 1.016,-0.312 0.3,0 0.578,0.054 0.828,0.172 0.25,0.125 0.488,0.296 0.719,0.515 0.226,0.227 0.429,0.5 0.609,0.813 0.187,0.312 0.348,0.676 0.484,1.093 0.145,0.426 0.254,0.86 0.328,1.297 0.071,0.446 0.11,0.864 0.11,1.25 0,0.614 -0.09,1.071 -0.266,1.375 -0.168,0.301 -0.437,0.453 -0.812,0.453 -0.305,0 -0.602,-0.105 -0.891,-0.312 -0.281,-0.199 -0.601,-0.523 -0.953,-0.969 -0.344,-0.437 -0.617,-0.875 -0.813,-1.312 -0.187,-0.438 -0.339,-0.938 -0.453,-1.5 z"
         style="fill:#000000;fill-opacity:1;fill-rule:nonzero;stroke:none;stroke-width:1.18280947"
         id="path3415"
         inkscape:connector-curvature="0" /><path
         d="m 96.805,216.794 c -0.137,0.813 -0.258,1.508 -0.36,2.094 -0.105,0.582 -0.203,1.078 -0.297,1.484 -0.085,0.415 -0.164,0.754 -0.234,1.016 -0.074,0.258 -0.148,0.461 -0.219,0.609 -0.062,0.145 -0.132,0.243 -0.203,0.297 -0.062,0.051 -0.137,0.078 -0.219,0.078 -0.074,0 -0.14,-0.011 -0.203,-0.031 -0.062,-0.023 -0.132,-0.062 -0.203,-0.125 -0.062,-0.054 -0.137,-0.136 -0.219,-0.25 -0.074,-0.105 -0.168,-0.246 -0.281,-0.422 l -0.5,0.328 c 0.188,0.258 0.352,0.477 0.5,0.657 0.156,0.176 0.305,0.316 0.453,0.422 0.157,0.101 0.313,0.175 0.469,0.218 0.156,0.051 0.328,0.078 0.516,0.078 0.144,0 0.273,-0.015 0.39,-0.046 0.114,-0.032 0.211,-0.086 0.297,-0.157 0.094,-0.062 0.172,-0.152 0.235,-0.265 0.07,-0.106 0.144,-0.235 0.218,-0.391 0.039,-0.094 0.082,-0.23 0.125,-0.406 0.039,-0.168 0.082,-0.367 0.125,-0.594 0.051,-0.23 0.098,-0.484 0.141,-0.766 0.051,-0.273 0.098,-0.558 0.141,-0.859 0.05,-0.293 0.097,-0.601 0.14,-0.922 0.039,-0.312 0.078,-0.621 0.11,-0.922 0.32,0.414 0.609,0.832 0.859,1.25 0.258,0.426 0.473,0.828 0.641,1.203 0.175,0.383 0.312,0.735 0.406,1.047 0.094,0.313 0.14,0.563 0.14,0.75 0,0.188 -0.054,0.317 -0.156,0.391 -0.094,0.082 -0.258,0.129 -0.484,0.141 l 0.078,0.406 h 1.812 l 0.219,-0.36 c -0.418,-1.054 -0.914,-2.062 -1.484,-3.031 -0.563,-0.969 -1.199,-1.914 -1.906,-2.828 -0.313,-0.363 -0.594,-0.676 -0.844,-0.937 -0.242,-0.27 -0.465,-0.5 -0.672,-0.688 -0.211,-0.195 -0.406,-0.359 -0.594,-0.484 -0.179,-0.125 -0.351,-0.223 -0.515,-0.297 -0.168,-0.07 -0.336,-0.125 -0.5,-0.156 -0.168,-0.032 -0.344,-0.051 -0.532,-0.063 -0.093,0 -0.215,0.012 -0.359,0.031 -0.137,0.024 -0.258,0.047 -0.359,0.078 l 0.312,1.391 h 0.578 v -0.031 c 0,-0.289 0.117,-0.438 0.36,-0.438 0.3,0 0.609,0.121 0.921,0.36 0.321,0.242 0.707,0.621 1.157,1.14 z"
         style="fill:#000000;fill-opacity:1;fill-rule:nonzero;stroke:none;stroke-width:1.18280947"
         id="path3417"
         inkscape:connector-curvature="0" /><path
         d="m 113.086,228.685 v -1.844 h -1.125 c -0.094,0.383 -0.215,0.688 -0.359,0.906 -0.149,0.219 -0.321,0.368 -0.516,0.454 -0.199,0.093 -0.438,0.14 -0.719,0.14 -0.418,0 -0.781,-0.136 -1.094,-0.406 -0.312,-0.262 -0.562,-0.664 -0.75,-1.203 -0.187,-0.531 -0.281,-1.188 -0.281,-1.969 0,-0.5 0.035,-0.961 0.11,-1.375 0.07,-0.406 0.191,-0.758 0.359,-1.047 0.164,-0.293 0.391,-0.523 0.672,-0.687 0.281,-0.168 0.629,-0.25 1.047,-0.25 0.406,0 0.781,0.078 1.125,0.234 0.351,0.156 0.718,0.438 1.093,0.844 l 0.5,-0.578 c -0.304,-0.336 -0.57,-0.59 -0.796,-0.766 -0.219,-0.18 -0.461,-0.328 -0.719,-0.453 -0.262,-0.117 -0.524,-0.199 -0.781,-0.25 -0.25,-0.063 -0.528,-0.094 -0.829,-0.094 -1.105,0 -1.953,0.364 -2.546,1.094 -0.586,0.738 -0.875,1.805 -0.875,3.203 0,0.863 0.16,1.629 0.484,2.297 0.332,0.676 0.797,1.191 1.391,1.547 0.593,0.363 1.273,0.547 2.046,0.547 0.477,0 0.922,-0.028 1.329,-0.078 0.406,-0.055 0.816,-0.141 1.234,-0.266 z"
         style="fill:#000000;fill-opacity:1;fill-rule:nonzero;stroke:none;stroke-width:1.18280947"
         id="path3419"
         inkscape:connector-curvature="0" /><path
         d="m 118.289,220.341 c -1.219,0 -2.152,0.36 -2.797,1.078 -0.637,0.719 -0.953,1.782 -0.953,3.188 0,0.969 0.164,1.785 0.5,2.453 0.344,0.664 0.805,1.16 1.391,1.484 0.582,0.321 1.25,0.485 2,0.485 1.258,0 2.207,-0.367 2.843,-1.094 0.645,-0.73 0.969,-1.777 0.969,-3.141 0,-0.968 -0.164,-1.789 -0.484,-2.453 -0.313,-0.668 -0.766,-1.168 -1.36,-1.5 -0.593,-0.336 -1.296,-0.5 -2.109,-0.5 z m -2.094,4.453 c 0,-1.211 0.192,-2.14 0.578,-2.797 0.383,-0.648 0.938,-0.968 1.657,-0.968 0.383,0 0.711,0.093 0.984,0.281 0.281,0.195 0.504,0.457 0.672,0.781 0.176,0.321 0.301,0.692 0.375,1.11 0.082,0.425 0.125,0.875 0.125,1.343 0,0.864 -0.094,1.578 -0.281,2.141 -0.188,0.57 -0.45,0.988 -0.782,1.25 -0.324,0.27 -0.699,0.406 -1.125,0.406 -0.71,0 -1.257,-0.308 -1.64,-0.922 -0.375,-0.617 -0.563,-1.492 -0.563,-2.625 z"
         style="fill:#000000;fill-opacity:1;fill-rule:nonzero;stroke:none;stroke-width:1.18280947"
         id="path3421"
         inkscape:connector-curvature="0" /><path
         d="m 129.91,226.966 h -0.844 c -0.125,0.344 -0.277,0.614 -0.453,0.813 -0.179,0.207 -0.375,0.351 -0.593,0.437 -0.219,0.082 -0.493,0.125 -0.813,0.125 -0.469,0 -0.844,-0.109 -1.125,-0.328 -0.281,-0.219 -0.422,-0.523 -0.422,-0.906 0,-0.274 0.055,-0.496 0.172,-0.672 0.113,-0.168 0.285,-0.328 0.516,-0.484 0.238,-0.157 0.648,-0.36 1.234,-0.61 0.602,-0.261 1.066,-0.5 1.391,-0.719 0.32,-0.21 0.578,-0.46 0.765,-0.75 0.188,-0.281 0.282,-0.625 0.282,-1.031 0,-0.461 -0.086,-0.851 -0.25,-1.172 -0.157,-0.312 -0.383,-0.57 -0.672,-0.765 -0.282,-0.199 -0.621,-0.34 -1.016,-0.422 -0.398,-0.094 -0.828,-0.141 -1.297,-0.141 -0.492,0 -0.969,0.039 -1.437,0.11 -0.461,0.07 -0.907,0.164 -1.344,0.281 v 1.844 h 0.859 c 0.157,-0.543 0.391,-0.938 0.703,-1.188 0.313,-0.242 0.739,-0.359 1.282,-0.359 0.207,0 0.41,0.019 0.609,0.062 0.207,0.051 0.391,0.129 0.547,0.235 0.164,0.101 0.297,0.238 0.391,0.406 0.093,0.176 0.14,0.398 0.14,0.672 0,0.289 -0.062,0.531 -0.187,0.718 -0.118,0.188 -0.297,0.36 -0.547,0.516 -0.242,0.156 -0.672,0.363 -1.297,0.625 -0.531,0.227 -0.961,0.445 -1.281,0.656 -0.325,0.207 -0.578,0.453 -0.766,0.735 -0.18,0.289 -0.266,0.633 -0.266,1.031 0,0.477 0.129,0.895 0.391,1.25 0.258,0.352 0.633,0.625 1.125,0.812 0.488,0.188 1.066,0.282 1.734,0.282 0.383,0 0.754,-0.024 1.11,-0.063 0.363,-0.031 0.816,-0.105 1.359,-0.219 z"
         style="fill:#000000;fill-opacity:1;fill-rule:nonzero;stroke:none;stroke-width:1.18280947"
         id="path3423"
         inkscape:connector-curvature="0" /><path
         d="m 137.508,220.341 c -0.875,0 -1.528,0.266 -1.953,0.797 -0.43,0.531 -0.641,1.332 -0.641,2.406 0,0.571 0.063,1.286 0.188,2.141 0.125,0.852 0.332,1.723 0.625,2.609 0.3,0.883 0.687,1.672 1.156,2.36 0.469,0.687 1.004,1.218 1.609,1.593 0.602,0.375 1.258,0.563 1.969,0.563 1.695,0 2.547,-1.078 2.547,-3.234 0,-0.618 -0.07,-1.344 -0.203,-2.188 -0.137,-0.844 -0.356,-1.711 -0.657,-2.594 -0.293,-0.875 -0.668,-1.652 -1.125,-2.328 -0.46,-0.679 -0.992,-1.203 -1.593,-1.578 -0.594,-0.367 -1.235,-0.547 -1.922,-0.547 z m -0.547,6.719 h 4.219 c 0.269,1.238 0.406,2.305 0.406,3.203 0,0.613 -0.102,1.07 -0.297,1.375 -0.199,0.301 -0.512,0.453 -0.937,0.453 -0.68,0 -1.309,-0.433 -1.891,-1.297 -0.586,-0.867 -1.086,-2.109 -1.5,-3.734 z m 4.016,-0.891 h -4.219 c -0.281,-1.273 -0.422,-2.339 -0.422,-3.203 0,-0.656 0.098,-1.14 0.297,-1.453 0.207,-0.305 0.531,-0.453 0.969,-0.453 0.656,0 1.273,0.437 1.859,1.312 0.594,0.883 1.098,2.149 1.516,3.797 z"
         style="fill:#000000;fill-opacity:1;fill-rule:nonzero;stroke:none;stroke-width:1.18280947"
         id="path3425"
         inkscape:connector-curvature="0" /><path
         d="m 7.406,201.79 c 0.125,0.54 0.188,0.985 0.188,1.329 0,0.226 -0.043,0.394 -0.125,0.5 -0.074,0.113 -0.188,0.171 -0.344,0.171 -0.187,0 -0.387,-0.078 -0.594,-0.234 -0.199,-0.148 -0.468,-0.418 -0.812,-0.812 l -0.5,0.5 c 0.519,0.55 0.961,0.945 1.328,1.187 0.363,0.238 0.769,0.359 1.219,0.359 0.363,0 0.648,-0.121 0.859,-0.359 0.219,-0.242 0.328,-0.559 0.328,-0.953 0,-0.336 -0.07,-0.68 -0.203,-1.031 L 8.859,202.4 c 1.082,1.594 2.161,2.39 3.235,2.39 0.633,0 1.129,-0.246 1.484,-0.734 0.352,-0.492 0.531,-1.18 0.531,-2.062 0,-0.961 -0.195,-1.907 -0.578,-2.844 -0.386,-0.938 -0.929,-1.684 -1.625,-2.235 -0.687,-0.543 -1.461,-0.812 -2.312,-0.812 -0.781,0 -1.434,0.172 -1.953,0.516 l -0.407,-1.938 c -0.086,-0.414 -0.125,-0.754 -0.125,-1.016 0,-0.257 0.063,-0.441 0.188,-0.546 0.133,-0.114 0.394,-0.188 0.781,-0.219 L 8,192.462 H 5.297 Z m 0.891,-2.484 c -0.063,-0.312 -0.102,-0.555 -0.109,-0.719 -0.012,-0.168 -0.016,-0.328 -0.016,-0.484 0,-0.461 0.094,-0.793 0.281,-1 0.195,-0.211 0.535,-0.313 1.016,-0.313 0.301,0 0.578,0.055 0.828,0.172 0.25,0.125 0.488,0.297 0.719,0.516 0.226,0.227 0.429,0.5 0.609,0.812 0.188,0.313 0.348,0.676 0.484,1.094 0.145,0.426 0.254,0.86 0.329,1.297 0.07,0.445 0.109,0.863 0.109,1.25 0,0.613 -0.09,1.07 -0.266,1.375 -0.168,0.301 -0.437,0.453 -0.812,0.453 -0.305,0 -0.602,-0.105 -0.891,-0.312 -0.281,-0.2 -0.601,-0.524 -0.953,-0.969 -0.344,-0.438 -0.617,-0.875 -0.812,-1.313 -0.188,-0.437 -0.34,-0.937 -0.454,-1.5 z"
         style="fill:#000000;fill-opacity:1;fill-rule:nonzero;stroke:none;stroke-width:1.18280947"
         id="path3427"
         inkscape:connector-curvature="0" /><path
         d="m 17.719,195.587 c -0.074,0.352 -0.141,0.66 -0.203,0.922 -0.055,0.258 -0.106,0.485 -0.157,0.672 -0.054,0.188 -0.105,0.336 -0.156,0.453 -0.043,0.125 -0.09,0.223 -0.14,0.297 -0.043,0.07 -0.094,0.117 -0.157,0.141 -0.054,0.031 -0.117,0.05 -0.187,0.062 -0.074,0 -0.141,-0.015 -0.203,-0.047 -0.063,-0.023 -0.133,-0.062 -0.203,-0.125 -0.063,-0.054 -0.137,-0.132 -0.219,-0.234 -0.074,-0.106 -0.156,-0.246 -0.25,-0.422 l -0.5,0.328 c 0.176,0.25 0.332,0.461 0.469,0.641 0.144,0.187 0.285,0.332 0.421,0.437 0.133,0.102 0.274,0.176 0.422,0.219 0.157,0.051 0.328,0.078 0.516,0.078 0.238,0 0.43,-0.054 0.578,-0.156 0.145,-0.106 0.266,-0.258 0.359,-0.453 0.102,-0.188 0.188,-0.43 0.25,-0.719 0.063,-0.281 0.129,-0.605 0.204,-0.969 h 0.078 c 0.257,0.332 0.476,0.618 0.656,0.86 0.187,0.25 0.351,0.457 0.5,0.625 0.144,0.164 0.273,0.3 0.391,0.406 0.125,0.113 0.238,0.195 0.343,0.25 0.114,0.062 0.227,0.102 0.344,0.125 0.113,0.019 0.242,0.031 0.391,0.031 0.207,0 0.398,-0.043 0.578,-0.125 l -0.313,-1.25 H 21 c -0.012,0.188 -0.078,0.281 -0.203,0.281 -0.055,0 -0.106,-0.011 -0.156,-0.031 -0.055,-0.012 -0.121,-0.043 -0.203,-0.094 -0.075,-0.054 -0.165,-0.125 -0.266,-0.218 -0.094,-0.094 -0.211,-0.215 -0.344,-0.36 -0.137,-0.148 -0.293,-0.324 -0.469,-0.531 -0.168,-0.211 -0.367,-0.461 -0.593,-0.75 0.113,-0.586 0.211,-1.055 0.297,-1.406 0.082,-0.344 0.16,-0.61 0.234,-0.797 0.082,-0.188 0.16,-0.313 0.234,-0.375 0.071,-0.055 0.16,-0.078 0.266,-0.078 0.07,0 0.133,0.004 0.187,0.015 0.063,0.02 0.125,0.055 0.188,0.11 0.07,0.062 0.144,0.144 0.219,0.25 0.082,0.113 0.179,0.258 0.297,0.437 l 0.484,-0.312 c -0.188,-0.281 -0.356,-0.512 -0.5,-0.688 -0.149,-0.179 -0.289,-0.32 -0.422,-0.422 -0.137,-0.093 -0.277,-0.156 -0.422,-0.187 -0.148,-0.039 -0.308,-0.063 -0.484,-0.063 -0.168,0 -0.313,0.024 -0.438,0.063 -0.125,0.043 -0.234,0.125 -0.328,0.25 -0.062,0.07 -0.125,0.164 -0.187,0.281 -0.055,0.125 -0.106,0.254 -0.157,0.391 -0.043,0.133 -0.086,0.273 -0.125,0.422 -0.031,0.156 -0.062,0.3 -0.093,0.437 -0.024,0.133 -0.043,0.25 -0.063,0.344 -0.012,0.102 -0.015,0.18 -0.015,0.234 h -0.079 c -0.25,-0.336 -0.468,-0.632 -0.656,-0.89 -0.187,-0.25 -0.359,-0.465 -0.515,-0.641 -0.157,-0.18 -0.297,-0.324 -0.422,-0.437 -0.118,-0.118 -0.235,-0.211 -0.36,-0.282 -0.117,-0.062 -0.234,-0.101 -0.359,-0.125 -0.125,-0.031 -0.262,-0.047 -0.406,-0.047 -0.231,0 -0.422,0.04 -0.578,0.11 l 0.296,1.234 h 0.547 c 0.008,-0.187 0.078,-0.281 0.203,-0.281 0.051,0.008 0.098,0.019 0.141,0.031 0.039,0.008 0.086,0.035 0.141,0.078 0.062,0.039 0.14,0.102 0.234,0.188 0.094,0.094 0.207,0.211 0.344,0.359 0.144,0.156 0.316,0.348 0.515,0.578 0.207,0.239 0.454,0.532 0.735,0.875 z"
         style="fill:#000000;fill-opacity:1;fill-rule:nonzero;stroke:none;stroke-width:1.18280947"
         id="path3429"
         inkscape:connector-curvature="0" /><path
         d="m 33.527,204.447 v -1.844 h -1.125 c -0.093,0.383 -0.214,0.687 -0.359,0.906 -0.148,0.219 -0.32,0.367 -0.516,0.453 -0.199,0.094 -0.437,0.141 -0.718,0.141 -0.418,0 -0.782,-0.137 -1.094,-0.406 -0.313,-0.262 -0.563,-0.664 -0.75,-1.203 -0.188,-0.532 -0.281,-1.188 -0.281,-1.969 0,-0.5 0.035,-0.961 0.109,-1.375 0.07,-0.406 0.191,-0.758 0.359,-1.047 0.164,-0.293 0.391,-0.523 0.672,-0.688 0.281,-0.168 0.629,-0.25 1.047,-0.25 0.406,0 0.781,0.079 1.125,0.235 0.352,0.156 0.719,0.437 1.094,0.844 l 0.5,-0.579 c -0.305,-0.335 -0.57,-0.589 -0.797,-0.765 -0.219,-0.18 -0.461,-0.328 -0.719,-0.453 -0.261,-0.117 -0.523,-0.2 -0.781,-0.25 -0.25,-0.063 -0.527,-0.094 -0.828,-0.094 -1.106,0 -1.953,0.363 -2.547,1.094 -0.586,0.738 -0.875,1.804 -0.875,3.203 0,0.863 0.16,1.629 0.484,2.297 0.332,0.675 0.797,1.191 1.391,1.547 0.594,0.363 1.273,0.546 2.047,0.546 0.476,0 0.922,-0.027 1.328,-0.078 0.406,-0.054 0.816,-0.14 1.234,-0.265 z"
         style="fill:#000000;fill-opacity:1;fill-rule:nonzero;stroke:none;stroke-width:1.18280947"
         id="path3431"
         inkscape:connector-curvature="0" /><path
         d="m 38.738,196.103 c -1.218,0 -2.152,0.359 -2.797,1.078 -0.636,0.719 -0.953,1.781 -0.953,3.188 0,0.968 0.164,1.785 0.5,2.453 0.344,0.664 0.805,1.16 1.391,1.484 0.582,0.32 1.25,0.484 2,0.484 1.258,0 2.207,-0.367 2.844,-1.093 0.644,-0.731 0.968,-1.778 0.968,-3.141 0,-0.969 -0.164,-1.789 -0.484,-2.453 -0.312,-0.668 -0.766,-1.168 -1.359,-1.5 -0.594,-0.336 -1.297,-0.5 -2.11,-0.5 z m -2.093,4.453 c 0,-1.211 0.191,-2.141 0.578,-2.797 0.382,-0.648 0.937,-0.969 1.656,-0.969 0.383,0 0.711,0.094 0.984,0.282 0.282,0.195 0.504,0.457 0.672,0.781 0.176,0.32 0.301,0.691 0.375,1.109 0.082,0.426 0.125,0.875 0.125,1.344 0,0.863 -0.094,1.578 -0.281,2.141 -0.188,0.57 -0.449,0.988 -0.781,1.25 -0.325,0.269 -0.7,0.406 -1.125,0.406 -0.711,0 -1.258,-0.309 -1.641,-0.922 -0.375,-0.617 -0.562,-1.492 -0.562,-2.625 z"
         style="fill:#000000;fill-opacity:1;fill-rule:nonzero;stroke:none;stroke-width:1.18280947"
         id="path3433"
         inkscape:connector-curvature="0" /><path
         d="m 50.375,202.728 h -0.844 c -0.125,0.344 -0.277,0.613 -0.453,0.812 -0.18,0.207 -0.375,0.352 -0.594,0.438 -0.218,0.082 -0.492,0.125 -0.812,0.125 -0.469,0 -0.844,-0.109 -1.125,-0.328 -0.281,-0.219 -0.422,-0.524 -0.422,-0.906 0,-0.274 0.055,-0.497 0.172,-0.672 0.113,-0.168 0.285,-0.328 0.516,-0.485 0.238,-0.156 0.648,-0.359 1.234,-0.609 0.601,-0.262 1.066,-0.5 1.391,-0.719 0.32,-0.211 0.578,-0.461 0.765,-0.75 0.188,-0.281 0.281,-0.625 0.281,-1.031 0,-0.461 -0.086,-0.852 -0.25,-1.172 -0.156,-0.312 -0.382,-0.57 -0.671,-0.766 -0.282,-0.199 -0.622,-0.339 -1.016,-0.421 -0.399,-0.094 -0.828,-0.141 -1.297,-0.141 -0.492,0 -0.969,0.039 -1.437,0.109 -0.461,0.071 -0.907,0.164 -1.344,0.282 v 1.843 h 0.859 c 0.156,-0.543 0.391,-0.937 0.703,-1.187 0.313,-0.242 0.739,-0.36 1.282,-0.36 0.207,0 0.41,0.02 0.609,0.063 0.207,0.051 0.391,0.129 0.547,0.234 0.164,0.102 0.297,0.239 0.39,0.407 0.094,0.175 0.141,0.398 0.141,0.671 0,0.29 -0.062,0.532 -0.187,0.719 -0.118,0.188 -0.297,0.36 -0.547,0.516 -0.243,0.156 -0.672,0.363 -1.297,0.625 -0.531,0.226 -0.961,0.445 -1.281,0.656 -0.325,0.207 -0.579,0.453 -0.766,0.734 -0.18,0.29 -0.266,0.633 -0.266,1.032 0,0.476 0.129,0.894 0.391,1.25 0.258,0.351 0.633,0.625 1.125,0.812 0.488,0.188 1.066,0.281 1.734,0.281 0.383,0 0.754,-0.023 1.11,-0.062 0.363,-0.031 0.816,-0.106 1.359,-0.219 z"
         style="fill:#000000;fill-opacity:1;fill-rule:nonzero;stroke:none;stroke-width:1.18280947"
         id="path3435"
         inkscape:connector-curvature="0" /><path
         d="m 57.809,196.103 c -0.875,0 -1.528,0.266 -1.954,0.797 -0.429,0.531 -0.64,1.332 -0.64,2.406 0,0.57 0.062,1.285 0.187,2.141 0.125,0.851 0.332,1.722 0.625,2.609 0.301,0.883 0.688,1.672 1.157,2.359 0.468,0.688 1.004,1.219 1.609,1.594 0.602,0.375 1.258,0.563 1.969,0.563 1.695,0 2.547,-1.078 2.547,-3.235 0,-0.617 -0.071,-1.343 -0.204,-2.187 -0.136,-0.844 -0.355,-1.711 -0.656,-2.594 -0.293,-0.875 -0.668,-1.652 -1.125,-2.328 -0.461,-0.68 -0.992,-1.203 -1.594,-1.578 -0.593,-0.367 -1.234,-0.547 -1.921,-0.547 z m -0.547,6.719 h 4.218 c 0.27,1.238 0.407,2.304 0.407,3.203 0,0.613 -0.102,1.07 -0.297,1.375 -0.199,0.301 -0.512,0.453 -0.938,0.453 -0.679,0 -1.308,-0.434 -1.89,-1.297 -0.586,-0.867 -1.086,-2.109 -1.5,-3.734 z m 4.015,-0.891 h -4.218 c -0.282,-1.273 -0.422,-2.34 -0.422,-3.203 0,-0.656 0.097,-1.141 0.297,-1.453 0.207,-0.305 0.531,-0.453 0.968,-0.453 0.657,0 1.274,0.437 1.86,1.312 0.593,0.883 1.097,2.149 1.515,3.797 z"
         style="fill:#000000;fill-opacity:1;fill-rule:nonzero;stroke:none;stroke-width:1.18280947"
         id="path3437"
         inkscape:connector-curvature="0" /><path
         d="m 76.184,200.806 v -5.062 h -1.25 v 5.062 h -4.782 v 1.172 h 4.782 v 5.062 h 1.25 v -5.062 h 4.796 v -1.172 z"
         style="fill:#000000;fill-opacity:1;fill-rule:nonzero;stroke:none;stroke-width:1.18280947"
         id="path3439"
         inkscape:connector-curvature="0" /><path
         d="m 88.766,201.79 c 0.125,0.54 0.187,0.985 0.187,1.329 0,0.226 -0.043,0.394 -0.125,0.5 -0.074,0.113 -0.187,0.171 -0.344,0.171 -0.187,0 -0.386,-0.078 -0.593,-0.234 -0.2,-0.148 -0.469,-0.418 -0.813,-0.812 l -0.5,0.5 c 0.52,0.55 0.961,0.945 1.328,1.187 0.364,0.238 0.77,0.359 1.219,0.359 0.363,0 0.648,-0.121 0.859,-0.359 0.219,-0.242 0.329,-0.559 0.329,-0.953 0,-0.336 -0.071,-0.68 -0.204,-1.031 l 0.11,-0.047 c 1.082,1.594 2.16,2.39 3.234,2.39 0.633,0 1.129,-0.246 1.485,-0.734 0.351,-0.492 0.531,-1.18 0.531,-2.062 0,-0.961 -0.196,-1.907 -0.578,-2.844 -0.387,-0.938 -0.93,-1.684 -1.625,-2.235 -0.688,-0.543 -1.461,-0.812 -2.313,-0.812 -0.781,0 -1.433,0.172 -1.953,0.516 l -0.406,-1.938 c -0.086,-0.414 -0.125,-0.754 -0.125,-1.016 0,-0.257 0.062,-0.441 0.187,-0.546 0.133,-0.114 0.395,-0.188 0.782,-0.219 l -0.079,-0.438 h -2.703 z m 0.89,-2.484 c -0.062,-0.312 -0.101,-0.555 -0.109,-0.719 -0.012,-0.168 -0.016,-0.328 -0.016,-0.484 0,-0.461 0.094,-0.793 0.282,-1 0.195,-0.211 0.535,-0.313 1.015,-0.313 0.301,0 0.578,0.055 0.828,0.172 0.25,0.125 0.489,0.297 0.719,0.516 0.227,0.227 0.43,0.5 0.609,0.812 0.188,0.313 0.348,0.676 0.485,1.094 0.144,0.426 0.254,0.86 0.328,1.297 0.07,0.445 0.109,0.863 0.109,1.25 0,0.613 -0.09,1.07 -0.265,1.375 -0.168,0.301 -0.438,0.453 -0.813,0.453 -0.305,0 -0.601,-0.105 -0.89,-0.312 -0.282,-0.2 -0.602,-0.524 -0.954,-0.969 -0.343,-0.438 -0.617,-0.875 -0.812,-1.313 -0.188,-0.437 -0.34,-0.937 -0.453,-1.5 z"
         style="fill:#000000;fill-opacity:1;fill-rule:nonzero;stroke:none;stroke-width:1.18280947"
         id="path3441"
         inkscape:connector-curvature="0" /><path
         d="m 99.203,192.556 c -0.137,0.813 -0.258,1.508 -0.359,2.094 -0.106,0.582 -0.203,1.078 -0.297,1.484 -0.086,0.414 -0.164,0.754 -0.234,1.016 -0.075,0.258 -0.149,0.461 -0.219,0.609 -0.063,0.145 -0.133,0.242 -0.203,0.297 -0.063,0.051 -0.137,0.078 -0.219,0.078 -0.074,0 -0.141,-0.012 -0.203,-0.031 -0.063,-0.023 -0.133,-0.063 -0.203,-0.125 -0.063,-0.055 -0.137,-0.137 -0.219,-0.25 -0.074,-0.106 -0.168,-0.246 -0.281,-0.422 l -0.5,0.328 c 0.187,0.258 0.351,0.477 0.5,0.656 0.156,0.176 0.304,0.317 0.453,0.422 0.156,0.102 0.312,0.176 0.469,0.219 0.156,0.051 0.328,0.078 0.515,0.078 0.145,0 0.274,-0.015 0.391,-0.047 0.113,-0.031 0.211,-0.086 0.297,-0.156 0.093,-0.062 0.172,-0.152 0.234,-0.266 0.07,-0.105 0.145,-0.234 0.219,-0.39 0.039,-0.094 0.082,-0.231 0.125,-0.406 0.039,-0.168 0.082,-0.368 0.125,-0.594 0.051,-0.231 0.097,-0.485 0.14,-0.766 0.051,-0.273 0.098,-0.558 0.141,-0.859 0.051,-0.293 0.098,-0.602 0.141,-0.922 0.039,-0.313 0.078,-0.621 0.109,-0.922 0.32,0.414 0.609,0.832 0.859,1.25 0.258,0.426 0.473,0.828 0.641,1.203 0.176,0.383 0.313,0.735 0.406,1.047 0.094,0.313 0.141,0.563 0.141,0.75 0,0.188 -0.055,0.316 -0.156,0.391 -0.094,0.082 -0.258,0.129 -0.485,0.14 l 0.078,0.407 h 1.813 l 0.219,-0.36 c -0.418,-1.054 -0.914,-2.062 -1.485,-3.031 -0.562,-0.969 -1.199,-1.914 -1.906,-2.828 -0.312,-0.363 -0.594,-0.676 -0.844,-0.938 -0.242,-0.269 -0.465,-0.5 -0.672,-0.687 -0.211,-0.195 -0.406,-0.36 -0.593,-0.485 -0.18,-0.125 -0.352,-0.222 -0.516,-0.296 -0.168,-0.071 -0.336,-0.125 -0.5,-0.157 -0.168,-0.031 -0.344,-0.05 -0.531,-0.062 -0.094,0 -0.215,0.012 -0.36,0.031 -0.136,0.024 -0.257,0.047 -0.359,0.078 l 0.313,1.391 h 0.578 v -0.031 c 0,-0.289 0.117,-0.438 0.359,-0.438 0.301,0 0.609,0.121 0.922,0.359 0.32,0.243 0.707,0.622 1.156,1.141 z"
         style="fill:#000000;fill-opacity:1;fill-rule:nonzero;stroke:none;stroke-width:1.18280947"
         id="path3443"
         inkscape:connector-curvature="0" /><path
         d="m 114.813,202.728 h -0.844 c -0.125,0.344 -0.278,0.613 -0.453,0.812 -0.18,0.207 -0.375,0.352 -0.594,0.438 -0.219,0.082 -0.492,0.125 -0.813,0.125 -0.468,0 -0.843,-0.109 -1.125,-0.328 -0.281,-0.219 -0.421,-0.524 -0.421,-0.906 0,-0.274 0.054,-0.497 0.171,-0.672 0.114,-0.168 0.286,-0.328 0.516,-0.485 0.238,-0.156 0.648,-0.359 1.234,-0.609 0.602,-0.262 1.067,-0.5 1.391,-0.719 0.32,-0.211 0.578,-0.461 0.766,-0.75 0.187,-0.281 0.281,-0.625 0.281,-1.031 0,-0.461 -0.086,-0.852 -0.25,-1.172 -0.156,-0.312 -0.383,-0.57 -0.672,-0.766 -0.281,-0.199 -0.621,-0.339 -1.016,-0.421 -0.398,-0.094 -0.828,-0.141 -1.296,-0.141 -0.493,0 -0.969,0.039 -1.438,0.109 -0.461,0.071 -0.906,0.164 -1.344,0.282 v 1.843 h 0.86 c 0.156,-0.543 0.39,-0.937 0.703,-1.187 0.312,-0.242 0.738,-0.36 1.281,-0.36 0.207,0 0.41,0.02 0.609,0.063 0.207,0.051 0.391,0.129 0.547,0.234 0.164,0.102 0.297,0.239 0.391,0.407 0.094,0.175 0.141,0.398 0.141,0.671 0,0.29 -0.063,0.532 -0.188,0.719 -0.117,0.188 -0.297,0.36 -0.547,0.516 -0.242,0.156 -0.672,0.363 -1.297,0.625 -0.531,0.226 -0.961,0.445 -1.281,0.656 -0.324,0.207 -0.578,0.453 -0.766,0.734 -0.179,0.29 -0.265,0.633 -0.265,1.032 0,0.476 0.129,0.894 0.39,1.25 0.258,0.351 0.633,0.625 1.125,0.812 0.489,0.188 1.067,0.281 1.735,0.281 0.383,0 0.754,-0.023 1.109,-0.062 0.363,-0.031 0.817,-0.106 1.36,-0.219 z"
         style="fill:#000000;fill-opacity:1;fill-rule:nonzero;stroke:none;stroke-width:1.18280947"
         id="path3445"
         inkscape:connector-curvature="0" /><path
         d="m 119.117,208.087 v -1.703 h -1.609 v 1.703 z m -2.5,-11.406 c 0.227,0.063 0.391,0.117 0.485,0.172 0.093,0.051 0.171,0.125 0.234,0.219 0.07,0.093 0.125,0.238 0.156,0.437 0.039,0.196 0.063,0.5 0.063,0.906 v 3.829 c 0,0.375 -0.008,0.675 -0.016,0.906 -0.012,0.226 -0.055,0.41 -0.125,0.547 -0.062,0.144 -0.168,0.25 -0.312,0.312 -0.149,0.063 -0.352,0.117 -0.61,0.172 v 0.469 l 2.047,0.078 h 0.531 v -6.281 c 0,-0.512 0.02,-0.867 0.063,-1.063 0.051,-0.187 0.14,-0.336 0.265,-0.437 0.133,-0.106 0.352,-0.196 0.657,-0.266 v -0.437 h -3.438 z"
         style="fill:#000000;fill-opacity:1;fill-rule:nonzero;stroke:none;stroke-width:1.18280947"
         id="path3447"
         inkscape:connector-curvature="0" /><path
         d="m 130.176,196.244 h -3.453 v 0.437 c 0.226,0.063 0.39,0.117 0.484,0.172 0.102,0.051 0.188,0.125 0.25,0.219 0.07,0.093 0.125,0.238 0.156,0.437 0.039,0.196 0.063,0.492 0.063,0.891 v 2.312 c 0,0.407 -0.012,0.774 -0.031,1.11 -0.024,0.332 -0.063,0.601 -0.125,0.812 -0.055,0.219 -0.122,0.383 -0.204,0.5 -0.074,0.125 -0.168,0.227 -0.281,0.313 -0.105,0.093 -0.23,0.16 -0.375,0.203 -0.137,0.051 -0.32,0.078 -0.547,0.078 -0.23,0 -0.449,-0.047 -0.656,-0.141 -0.199,-0.086 -0.422,-0.242 -0.672,-0.468 -0.25,-0.219 -0.433,-0.438 -0.547,-0.657 -0.105,-0.218 -0.156,-0.468 -0.156,-0.75 v -3.265 c 0,-0.512 0.02,-0.867 0.063,-1.063 0.05,-0.187 0.14,-0.336 0.265,-0.437 0.133,-0.106 0.352,-0.196 0.656,-0.266 v -0.437 h -3.437 v 0.437 c 0.226,0.063 0.391,0.117 0.484,0.172 0.094,0.051 0.172,0.125 0.235,0.219 0.07,0.093 0.125,0.238 0.156,0.437 0.039,0.196 0.062,0.5 0.062,0.906 v 3.829 c 0,0.375 -0.007,0.675 -0.015,0.906 -0.012,0.226 -0.055,0.41 -0.125,0.547 -0.063,0.144 -0.168,0.25 -0.313,0.312 -0.148,0.063 -0.351,0.117 -0.609,0.172 v 0.469 l 2.047,0.078 h 0.547 l -0.11,-1.438 0.125,-0.031 c 0.438,0.438 0.785,0.75 1.047,0.938 0.27,0.187 0.539,0.332 0.813,0.437 0.269,0.102 0.562,0.156 0.875,0.156 0.312,0 0.593,-0.039 0.843,-0.109 0.25,-0.074 0.469,-0.187 0.657,-0.344 0.187,-0.156 0.343,-0.351 0.468,-0.578 0.125,-0.219 0.219,-0.492 0.282,-0.812 0.062,-0.313 0.093,-0.711 0.093,-1.188 v -3.312 c 0,-0.407 0.008,-0.703 0.032,-0.891 0.019,-0.18 0.062,-0.32 0.125,-0.422 0.062,-0.094 0.144,-0.179 0.25,-0.25 0.113,-0.062 0.304,-0.133 0.578,-0.203 z"
         style="fill:#000000;fill-opacity:1;fill-rule:nonzero;stroke:none;stroke-width:1.18280947"
         id="path3449"
         inkscape:connector-curvature="0" /><path
         d="m 137.508,196.103 c -0.875,0 -1.528,0.266 -1.953,0.797 -0.43,0.531 -0.641,1.332 -0.641,2.406 0,0.57 0.063,1.285 0.188,2.141 0.125,0.851 0.332,1.722 0.625,2.609 0.3,0.883 0.687,1.672 1.156,2.359 0.469,0.688 1.004,1.219 1.609,1.594 0.602,0.375 1.258,0.563 1.969,0.563 1.695,0 2.547,-1.078 2.547,-3.235 0,-0.617 -0.07,-1.343 -0.203,-2.187 -0.137,-0.844 -0.356,-1.711 -0.657,-2.594 -0.293,-0.875 -0.668,-1.652 -1.125,-2.328 -0.46,-0.68 -0.992,-1.203 -1.593,-1.578 -0.594,-0.367 -1.235,-0.547 -1.922,-0.547 z m -0.547,6.719 h 4.219 c 0.269,1.238 0.406,2.304 0.406,3.203 0,0.613 -0.102,1.07 -0.297,1.375 -0.199,0.301 -0.512,0.453 -0.937,0.453 -0.68,0 -1.309,-0.434 -1.891,-1.297 -0.586,-0.867 -1.086,-2.109 -1.5,-3.734 z m 4.016,-0.891 h -4.219 c -0.281,-1.273 -0.422,-2.34 -0.422,-3.203 0,-0.656 0.098,-1.141 0.297,-1.453 0.207,-0.305 0.531,-0.453 0.969,-0.453 0.656,0 1.273,0.437 1.859,1.312 0.594,0.883 1.098,2.149 1.516,3.797 z"
         style="fill:#000000;fill-opacity:1;fill-rule:nonzero;stroke:none;stroke-width:1.18280947"
         id="path3451"
         inkscape:connector-curvature="0" /><path
         d="M 160.734,0.314 V 0.001 c -0.886,0.438 -1.625,0.961 -2.218,1.563 -0.844,0.844 -1.496,1.844 -1.953,3 -0.461,1.156 -0.688,2.351 -0.688,3.594 0,1.82 0.445,3.476 1.344,4.968 0.894,1.5 2.066,2.571 3.515,3.219 V 15.97 c -0.718,-0.398 -1.312,-0.945 -1.781,-1.64 -0.461,-0.688 -0.805,-1.563 -1.031,-2.625 -0.231,-1.055 -0.344,-2.157 -0.344,-3.313 0,-1.262 0.094,-2.402 0.281,-3.422 0.157,-0.812 0.344,-1.461 0.563,-1.953 0.219,-0.488 0.508,-0.957 0.875,-1.406 0.363,-0.446 0.844,-0.879 1.437,-1.297 z"
         style="fill:#000000;fill-opacity:1;fill-rule:nonzero;stroke:none;stroke-width:1.18280947"
         id="path3453"
         inkscape:connector-curvature="0" /><path
         d="m 163.055,8.861 c -0.012,-1.199 0.273,-2.137 0.859,-2.813 0.594,-0.679 1.285,-1.015 2.078,-1.015 0.52,0 0.973,0.144 1.36,0.437 0.394,0.289 0.722,0.785 0.984,1.485 l 0.281,-0.172 c -0.125,-0.805 -0.484,-1.539 -1.078,-2.203 -0.594,-0.657 -1.336,-0.985 -2.219,-0.985 -0.968,0 -1.797,0.375 -2.484,1.125 -0.688,0.758 -1.031,1.774 -1.031,3.047 0,1.375 0.347,2.445 1.047,3.219 0.707,0.769 1.597,1.156 2.671,1.156 0.895,0 1.633,-0.297 2.219,-0.891 0.582,-0.593 0.875,-1.39 0.875,-2.39 z m 0,0.515 h 3.718 c -0.031,0.508 -0.093,0.875 -0.187,1.094 -0.148,0.32 -0.367,0.578 -0.656,0.766 -0.282,0.187 -0.586,0.281 -0.907,0.281 -0.48,0 -0.914,-0.187 -1.296,-0.562 -0.387,-0.375 -0.61,-0.903 -0.672,-1.579 z"
         style="fill:#000000;fill-opacity:1;fill-rule:nonzero;stroke:none;stroke-width:1.18280947"
         id="path3455"
         inkscape:connector-curvature="0" /><path
         d="m 169.531,15.97 v 0.375 c 0.883,-0.437 1.625,-0.961 2.219,-1.562 0.844,-0.856 1.488,-1.86 1.938,-3.016 0.457,-1.148 0.687,-2.344 0.687,-3.594 0,-1.812 -0.449,-3.468 -1.344,-4.968 -0.886,-1.5 -2.054,-2.567 -3.5,-3.204 v 0.313 c 0.719,0.406 1.313,0.953 1.782,1.641 0.468,0.687 0.812,1.562 1.031,2.625 0.226,1.07 0.344,2.179 0.344,3.328 0,1.25 -0.102,2.39 -0.297,3.422 -0.149,0.812 -0.328,1.457 -0.547,1.937 -0.219,0.488 -0.512,0.957 -0.875,1.406 -0.367,0.457 -0.844,0.891 -1.438,1.297 z"
         style="fill:#000000;fill-opacity:1;fill-rule:nonzero;stroke:none;stroke-width:1.18280947"
         id="path3457"
         inkscape:connector-curvature="0" /></g></g></svg>