<?xml version="1.0" encoding="UTF-8" standalone="no"?>
<!-- Created with Inkscape (http://www.inkscape.org/) -->

<svg
   xmlns:dc="http://purl.org/dc/elements/1.1/"
   xmlns:cc="http://creativecommons.org/ns#"
   xmlns:rdf="http://www.w3.org/1999/02/22-rdf-syntax-ns#"
   xmlns:svg="http://www.w3.org/2000/svg"
   xmlns="http://www.w3.org/2000/svg"
   xmlns:sodipodi="http://sodipodi.sourceforge.net/DTD/sodipodi-0.dtd"
   xmlns:inkscape="http://www.inkscape.org/namespaces/inkscape"
   version="1.1"
   id="svg815"
   xml:space="preserve"
   width="460.65747"
   height="291.52716"
   viewBox="0 0 460.65747 291.52716"
   sodipodi:docname="topology_rotation_2d.svg"
   inkscape:version="0.92.4 (5da689c313, 2019-01-14)"><metadata
     id="metadata821"><rdf:RDF><cc:Work
         rdf:about=""><dc:format>image/svg+xml</dc:format><dc:type
           rdf:resource="http://purl.org/dc/dcmitype/StillImage" /><dc:title></dc:title></cc:Work></rdf:RDF></metadata><defs
     id="defs819" /><sodipodi:namedview
     pagecolor="#ffffff"
     bordercolor="#666666"
     borderopacity="1"
     objecttolerance="10"
     gridtolerance="10"
     guidetolerance="10"
     inkscape:pageopacity="0"
     inkscape:pageshadow="2"
     inkscape:window-width="1920"
     inkscape:window-height="1001"
     id="namedview817"
     showgrid="false"
     fit-margin-top="0"
     fit-margin-left="0"
     fit-margin-right="0"
     fit-margin-bottom="0"
     inkscape:zoom="2.0478378"
     inkscape:cx="272.66878"
     inkscape:cy="94.245746"
     inkscape:window-x="-9"
     inkscape:window-y="-9"
     inkscape:window-maximized="1"
     inkscape:current-layer="g823" /><g
     id="g823"
     inkscape:groupmode="layer"
     inkscape:label="topology_rotation_2d"
     transform="matrix(1.3333333,0,0,-1.3333333,0,394.56266)"><g
       id="g825"
       transform="matrix(0.73886149,0,0,0.73886149,0,77.27663)"
       style="stroke-width:1.35343361"><path
         d="m 183.961,226.582 h 278.641 v -1 H 183.961 Z m 277.641,2.5 6,-3 -6,-3 z"
         style="fill:#000000;fill-opacity:1;fill-rule:nonzero;stroke:none;stroke-width:1.35343361"
         id="path827"
         inkscape:connector-curvature="0" /><path
         d="m 72.5,151.922 v 139 h -1 v -139 z m 2.5,138 -3,6 -3,-6 z"
         style="fill:#000000;fill-opacity:1;fill-rule:nonzero;stroke:none;stroke-width:1.35343361"
         id="path829"
         inkscape:connector-curvature="0" /><path
         d="m 0,223.422 h 139 v 1 H 0 Z m 138,-2.5 6,3 -6,3 z"
         style="fill:#000000;fill-opacity:1;fill-rule:nonzero;stroke:none;stroke-width:1.35343361"
         id="path831"
         inkscape:connector-curvature="0" /><path
         d="m 24.781,224.582 c 0,26.508 21.489,48 48,48 26.508,0 48,-21.492 48,-48 0,-26.512 -21.492,-48 -48,-48 -26.511,0 -48,21.488 -48,48 z"
         style="fill:none;stroke:#5999d4;stroke-width:3.08582878;stroke-linecap:butt;stroke-linejoin:miter;stroke-miterlimit:10;stroke-dasharray:none;stroke-opacity:1"
         id="path833"
         inkscape:connector-curvature="0" /><path
         d="m 72,223.973 22.551,42.91"
         style="fill:none;stroke:#5999d4;stroke-width:0.64964813;stroke-linecap:butt;stroke-linejoin:miter;stroke-miterlimit:10;stroke-dasharray:none;stroke-opacity:1"
         id="path835"
         inkscape:connector-curvature="0" /><path
         d="m 81.98,243.613 c 7.649,-3.922 12.461,-11.8 12.461,-20.41"
         style="fill:none;stroke:#5999d4;stroke-width:0.64964813;stroke-linecap:butt;stroke-linejoin:miter;stroke-miterlimit:10;stroke-dasharray:none;stroke-opacity:1"
         id="path837"
         inkscape:connector-curvature="0" /><path
         d="m 97.211,234.512 c -0.875,0 -1.527,0.265 -1.953,0.797 -0.43,0.531 -0.641,1.332 -0.641,2.406 0,0.57 0.063,1.285 0.188,2.14 0.125,0.852 0.332,1.723 0.625,2.61 0.3,0.883 0.687,1.672 1.156,2.359 0.469,0.688 1.004,1.219 1.609,1.594 0.602,0.375 1.258,0.562 1.969,0.562 1.695,0 2.547,-1.078 2.547,-3.234 0,-0.617 -0.07,-1.344 -0.203,-2.187 -0.137,-0.844 -0.356,-1.711 -0.656,-2.594 -0.293,-0.875 -0.668,-1.652 -1.125,-2.328 -0.461,-0.68 -0.993,-1.203 -1.594,-1.578 -0.594,-0.368 -1.235,-0.547 -1.922,-0.547 z m -0.547,6.718 h 4.219 c 0.269,1.239 0.406,2.305 0.406,3.204 0,0.613 -0.101,1.07 -0.297,1.375 -0.199,0.3 -0.512,0.453 -0.937,0.453 -0.68,0 -1.309,-0.434 -1.891,-1.297 -0.586,-0.867 -1.086,-2.11 -1.5,-3.735 z m 4.016,-0.89 h -4.219 c -0.281,-1.274 -0.422,-2.34 -0.422,-3.203 0,-0.657 0.098,-1.141 0.297,-1.453 0.207,-0.305 0.531,-0.454 0.969,-0.454 0.656,0 1.273,0.438 1.859,1.313 0.594,0.883 1.098,2.148 1.516,3.797 z"
         style="fill:#000000;fill-opacity:1;fill-rule:nonzero;stroke:none;stroke-width:1.35343361"
         id="path839"
         inkscape:connector-curvature="0" /><path
         d="M 184.02,226.023 H 429.84"
         style="fill:none;stroke:#5999d4;stroke-width:3.08582878;stroke-linecap:butt;stroke-linejoin:miter;stroke-miterlimit:10;stroke-dasharray:none;stroke-opacity:1"
         id="path841"
         inkscape:connector-curvature="0" /><path
         d="m 423.66,226.082 c 0,3.41 2.77,6.18 6.18,6.18 3.41,0 6.18,-2.77 6.18,-6.18 0,-3.41 -2.77,-6.18 -6.18,-6.18 -3.41,0 -6.18,2.77 -6.18,6.18 z"
         style="fill:#ffffff;fill-opacity:1;fill-rule:evenodd;stroke:#5999d4;stroke-width:3.08582878;stroke-linecap:butt;stroke-linejoin:miter;stroke-miterlimit:10;stroke-dasharray:none;stroke-opacity:1"
         id="path843"
         inkscape:connector-curvature="0" /><path
         d="m 177.781,226.082 c 0,3.41 2.77,6.18 6.18,6.18 3.41,0 6.18,-2.77 6.18,-6.18 0,-3.41 -2.77,-6.18 -6.18,-6.18 -3.41,0 -6.18,2.77 -6.18,6.18 z"
         style="fill:#5999d4;fill-opacity:1;fill-rule:evenodd;stroke:#5999d4;stroke-width:3.08582878;stroke-linecap:butt;stroke-linejoin:miter;stroke-miterlimit:10;stroke-dasharray:none;stroke-opacity:1"
         id="path845"
         inkscape:connector-curvature="0" /><path
         d="m 121.148,233.961 2.192,1.57 h -0.012 l 1.051,0.77 0.59,-0.801 -1.039,-0.777 -2.2,-1.582 z m 5.61,4.152 1.043,0.789 h -0.012 l 2.141,1.649 0.609,-0.789 -2.141,-1.66 -1.027,-0.789 z m 5.562,4.258 0.051,0.039 2.328,1.742 0.852,0.61 0.578,-0.821 -0.848,-0.601 h 0.008 l -2.32,-1.727 h 0.011 l -0.05,-0.043 z m 5.688,4.121 1.41,0.961 1.961,1.231 0.531,-0.844 -1.949,-1.227 0.019,0.008 -1.41,-0.961 z m 5.98,3.711 0.25,0.149 1.223,0.628 1.23,0.602 0.93,0.41 0.41,-0.922 -0.922,-0.398 h 0.012 l -1.223,-0.582 h 0.02 l -1.207,-0.629 0.019,0.012 -0.25,-0.141 z m 6.481,2.887 1.179,0.371 1.262,0.32 1.25,0.262 0.258,0.039 0.152,-0.98 -0.242,-0.039 h 0.024 l -1.231,-0.25 h 0.027 l -1.238,-0.321 0.02,0.008 -1.16,-0.367 z m 6.992,1.312 0.519,0.02 1.27,-0.031 1.289,-0.098 0.981,-0.109 -0.11,-0.993 -0.969,0.11 0.008,-0.008 -1.258,0.098 h 0.02 l -1.242,0.031 H 158 l -0.5,-0.02 z m 7.059,-0.691 0.109,-0.02 1.43,-0.3 1.441,-0.348 0.949,-0.262 -0.258,-0.961 -0.941,0.25 h 0.008 l -1.43,0.34 h 0.012 l -1.41,0.301 h 0.019 l -0.109,0.019 z m 6.832,-1.809 0.609,-0.211 1.519,-0.531 1.641,-0.66 -0.371,-0.93 -1.629,0.653 h 0.02 l -1.5,0.527 h 0.007 l -0.617,0.203 z m 6.558,-2.589 1.641,-0.75 1.969,-1.02 -0.461,-0.883 -1.957,1 0.019,-0.008 -1.633,0.75 z m 6.25,-3.231 1.34,-0.781 2.078,-1.36 -0.547,-0.839 -2.07,1.359 0.019,-0.02 -1.32,0.77 z m 5.879,-3.891 1.02,-0.75 1.312,-1.058 0.828,-0.711 -0.648,-0.762 -0.821,0.711 0.008,-0.008 -1.297,1.039 0.02,-0.011 -1.012,0.742 z m 5.379,-4.578 0.613,-0.601 1.11,-1.18 1.027,-1.18 -0.75,-0.66 -1.027,1.168 0.019,-0.008 -1.109,1.168 0.019,-0.007 -0.601,0.589 z m 4.602,-5.371 0.109,-0.152 0.871,-1.309 0.281,-0.468 -0.863,-0.512 -0.27,0.461 0.012,-0.02 -0.851,1.289 0.011,-0.019 -0.101,0.14 z m 1.281,4.758 0.058,-7.797 -6.82,3.777 c -0.238,0.141 -0.328,0.442 -0.199,0.68 0.14,0.242 0.441,0.332 0.68,0.203 l 6.082,-3.371 -0.75,-0.441 -0.051,6.941 c 0,0.281 0.219,0.5 0.488,0.508 0.281,0 0.512,-0.219 0.512,-0.5 z"
         style="fill:#000000;fill-opacity:1;fill-rule:nonzero;stroke:none;stroke-width:1.35343361"
         id="path847"
         inkscape:connector-curvature="0" /><path
         d="m 120.449,213.273 1.301,-0.812 1.691,-0.871 0.579,-0.258 0.41,0.91 -0.559,0.25 0.02,-0.012 -1.661,0.86 0.04,-0.02 -1.282,0.801 z m 6.34,-3.14 1.039,-0.422 2.672,-1.008 0.051,-0.019 0.32,0.949 -0.031,0.008 h 0.012 l -2.661,1 h 0.008 l -1.031,0.41 z m 6.59,-2.43 0.101,-0.031 3.258,-1.07 0.461,-0.141 0.301,0.949 -0.461,0.141 h 0.012 l -3.25,1.07 0.008,-0.008 -0.098,0.039 z m 6.691,-2.121 0.2,-0.059 3.648,-1.07 0.281,0.957 -3.64,1.063 -0.2,0.058 z m 6.739,-1.941 1.242,-0.348 2.629,-0.703 0.25,0.973 -2.621,0.699 -1.231,0.34 z m 6.781,-1.801 3.09,-0.789 0.789,-0.188 0.242,0.977 -0.793,0.191 0.012,-0.008 -3.102,0.79 z m 6.801,-1.68 0.89,-0.219 3.008,-0.691 0.219,0.973 -3,0.699 -0.887,0.211 z m 6.828,-1.578 3.722,-0.832 0.188,-0.039 0.199,0.98 -0.18,0.039 -3.718,0.821 z m 6.84,-1.492 1.921,-0.406 2.008,-0.391 0.192,0.98 -2.012,0.399 0.012,-0.012 -1.91,0.41 z m 6.871,-1.379 3.929,-0.77 0.192,0.981 -3.922,0.769 z m 6.89,-1.32 3.938,-0.688 0.172,0.988 -3.942,0.692 z m 6.891,-1.2 2.32,-0.41 1.637,-0.25 0.152,0.992 -1.64,0.25 h 0.011 l -2.312,0.399 z m 6.918,-1.121 3.961,-0.609 0.148,0.992 -3.949,0.61 z m 6.941,-1.047 3.961,-0.511 0.129,0.988 -3.969,0.512 z m 6.938,-0.902 3.211,-0.418 0.769,-0.082 0.102,1 -0.762,0.082 h 0.012 l -3.199,0.41 z m 6.961,-0.808 3.98,-0.411 0.11,1 -3.981,0.411 z m 6.972,-0.723 h 0.02 l 3.98,-0.289 0.067,1 -3.969,0.289 h 0.02 -0.02 z m 6.989,-0.508 3.519,-0.25 0.492,-0.031 0.039,1 -0.472,0.019 h 0.012 l -3.512,0.262 z m 7,-0.422 1.629,-0.07 2.382,-0.067 0.028,1 -2.379,0.059 h 0.012 l -1.622,0.078 z m 7.019,-0.207 4,-0.031 0.012,1 -4,0.031 z m 7.012,0.02 2.148,0.039 1.86,0.078 -0.039,1 -1.852,-0.078 h 0.012 l -2.149,-0.039 z m 7.019,0.257 3.989,0.27 -0.071,0.992 -3.988,-0.262 z m 6.989,0.512 2.949,0.25 1.043,0.11 -0.102,1 -1.039,-0.11 h 0.008 l -2.949,-0.25 z m 6.98,0.668 1.27,0.133 2.711,0.32 -0.121,1 -2.7,-0.32 h 0.012 l -1.281,-0.133 z m 6.961,0.813 3.969,0.527 -0.129,0.992 -3.969,-0.531 z m 6.949,0.961 3.95,0.597 -0.149,0.992 -3.949,-0.601 z m 6.922,1.046 2.93,0.454 1.027,0.179 -0.168,0.989 -1.031,-0.18 h 0.012 l -2.922,-0.449 z m 6.91,1.153 3.938,0.68 -0.168,0.988 -3.941,-0.688 z m 6.899,1.199 0.859,0.148 3.082,0.602 -0.191,0.981 -3.082,-0.602 h 0.012 l -0.852,-0.141 z m 6.879,1.32 3.929,0.758 -0.187,0.981 -3.93,-0.758 z m 6.883,1.348 3.906,0.832 -0.199,0.981 -3.918,-0.833 z m 6.847,1.453 3.91,0.828 -0.199,0.981 -3.922,-0.828 z m 6.84,1.5 3.902,0.887 -0.222,0.98 -3.899,-0.886 z m 6.832,1.559 1.887,0.441 2.012,0.481 -0.239,0.976 -2,-0.488 h 0.008 l -1.898,-0.43 z m 6.809,1.629 0.769,0.191 3.121,0.781 -0.25,0.969 -3.109,-0.781 -0.762,-0.188 z m 6.8,1.699 3.872,1 -0.25,0.973 -3.872,-1 z m 6.778,1.773 3.523,0.938 0.348,0.09 -0.27,0.972 -0.339,-0.101 -3.52,-0.942 z m 6.762,1.84 1.898,0.52 1.953,0.558 -0.269,0.961 -1.954,-0.551 -1.898,-0.531 z m 6.738,1.899 0.101,0.031 3.743,1.117 -0.293,0.953 -3.731,-1.113 0.012,0.012 -0.11,-0.032 z m 6.711,2.019 2.64,0.82 1.18,0.372 -0.301,0.96 -1.179,-0.382 h 0.011 l -2.64,-0.809 z m 6.679,2.109 0.231,0.071 3.57,1.199 -0.32,0.953 -3.559,-1.203 -0.218,-0.066 z m 6.641,2.262 1.301,0.461 2.469,0.918 -0.348,0.942 -2.473,-0.922 h 0.012 l -1.289,-0.45 z m 6.57,2.469 1.211,0.48 2.489,1.059 -0.391,0.922 -2.488,-1.059 h 0.011 l -1.203,-0.472 z m 6.461,2.832 0.961,0.508 -0.472,0.883 -0.957,-0.5 z m -2.531,-5.211 4.129,6.621 -7.789,0.34 c -0.277,0.008 -0.508,-0.203 -0.527,-0.48 -0.012,-0.282 0.207,-0.512 0.476,-0.52 l 6.942,-0.301 -0.399,0.758 -3.68,-5.887 c -0.14,-0.23 -0.07,-0.543 0.161,-0.691 0.238,-0.141 0.539,-0.07 0.687,0.16 z"
         style="fill:#000000;fill-opacity:1;fill-rule:nonzero;stroke:none;stroke-width:1.35343361"
         id="path849"
         inkscape:connector-curvature="0" /><path
         d="m 184.172,202.133 c -1.274,0 -2.215,0.492 -2.828,1.484 -0.617,1 -0.922,2.516 -0.922,4.547 0,1.07 0.094,2 0.281,2.781 0.188,0.789 0.453,1.442 0.797,1.953 0.344,0.52 0.754,0.899 1.234,1.141 0.477,0.25 1.004,0.375 1.579,0.375 1.281,0 2.234,-0.496 2.859,-1.484 0.625,-0.992 0.937,-2.492 0.937,-4.5 0,-2.075 -0.336,-3.641 -1,-4.703 -0.668,-1.063 -1.648,-1.594 -2.937,-1.594 z m -2.047,6.297 c 0,-1.918 0.176,-3.325 0.531,-4.219 0.352,-0.887 0.907,-1.328 1.657,-1.328 0.707,0 1.234,0.414 1.578,1.25 0.343,0.844 0.515,2.148 0.515,3.922 0,1.343 -0.09,2.429 -0.265,3.265 -0.18,0.832 -0.422,1.43 -0.735,1.797 -0.312,0.363 -0.695,0.547 -1.14,0.547 -0.407,0 -0.746,-0.121 -1.016,-0.359 -0.273,-0.242 -0.492,-0.59 -0.656,-1.047 -0.168,-0.449 -0.289,-0.996 -0.36,-1.641 -0.074,-0.648 -0.109,-1.375 -0.109,-2.187 z"
         style="fill:#000000;fill-opacity:1;fill-rule:nonzero;stroke:none;stroke-width:1.35343361"
         id="path851"
         inkscape:connector-curvature="0" /><path
         d="m 430.852,203.68 c 0.281,0 0.507,0.015 0.687,0.047 0.176,0.039 0.316,0.101 0.422,0.187 0.102,0.082 0.187,0.188 0.25,0.313 0.062,0.132 0.141,0.336 0.234,0.609 h 0.75 l -0.14,-2.563 h -7.235 v 0.422 c 0.25,0.614 0.586,1.243 1.016,1.891 0.426,0.644 1.031,1.406 1.812,2.281 0.688,0.75 1.176,1.317 1.469,1.703 0.332,0.414 0.578,0.774 0.735,1.078 0.164,0.313 0.281,0.602 0.343,0.875 0.071,0.282 0.11,0.555 0.11,0.829 0,0.437 -0.075,0.82 -0.219,1.156 -0.137,0.344 -0.352,0.609 -0.641,0.797 -0.293,0.195 -0.656,0.297 -1.093,0.297 -1.094,0 -1.829,-0.61 -2.204,-1.829 h -1.078 v 1.688 c 0.719,0.332 1.383,0.57 2,0.719 0.614,0.156 1.164,0.234 1.657,0.234 1.093,0 1.914,-0.242 2.468,-0.719 0.563,-0.48 0.844,-1.172 0.844,-2.078 0,-0.312 -0.031,-0.601 -0.094,-0.859 -0.062,-0.262 -0.164,-0.524 -0.297,-0.781 -0.125,-0.25 -0.304,-0.524 -0.531,-0.813 -0.219,-0.293 -0.465,-0.59 -0.734,-0.891 -0.274,-0.304 -0.735,-0.808 -1.391,-1.515 -1.117,-1.18 -1.933,-2.203 -2.453,-3.078 z"
         style="fill:#000000;fill-opacity:1;fill-rule:nonzero;stroke:none;stroke-width:1.35343361"
         id="path853"
         inkscape:connector-curvature="0" /><path
         d="m 440.641,206.211 c 0.093,0.469 0.234,1.031 0.422,1.687 0.187,0.665 0.347,1.176 0.484,1.532 l -0.047,0.093 h -2.594 l -1.078,-5.015 c -0.086,-0.387 -0.187,-0.809 -0.312,-1.266 -0.118,-0.449 -0.203,-0.773 -0.266,-0.969 h -1.859 l 0.078,0.438 c 0.625,0.613 1.203,2.051 1.734,4.312 l 0.578,2.5 H 437.5 c -0.418,0 -0.773,-0.074 -1.062,-0.218 -0.282,-0.137 -0.594,-0.418 -0.938,-0.844 l -0.547,0.469 c 0.301,0.363 0.547,0.64 0.735,0.828 0.195,0.195 0.398,0.363 0.609,0.5 0.219,0.133 0.457,0.238 0.719,0.312 0.269,0.071 0.586,0.11 0.953,0.11 h 7.203 l -0.25,-1.157 h -2.094 l -0.984,-4.406 c -0.137,-0.574 -0.203,-1.012 -0.203,-1.312 0,-0.231 0.035,-0.399 0.109,-0.5 0.082,-0.106 0.207,-0.157 0.375,-0.157 0.344,0 0.754,0.282 1.234,0.844 l 0.516,-0.484 c -0.449,-0.481 -0.855,-0.828 -1.219,-1.047 -0.367,-0.219 -0.758,-0.328 -1.172,-0.328 -0.406,0 -0.726,0.137 -0.953,0.406 -0.218,0.27 -0.328,0.629 -0.328,1.078 0,0.395 0.078,0.961 0.235,1.703 z"
         style="fill:#000000;fill-opacity:1;fill-rule:nonzero;stroke:none;stroke-width:1.35343361"
         id="path855"
         inkscape:connector-curvature="0" /><path
         d="m 183.961,74.66 h 278.641 v -1 H 183.961 Z m 277.641,2.5 6,-3 -6,-3 z"
         style="fill:#000000;fill-opacity:1;fill-rule:nonzero;stroke:none;stroke-width:1.35343361"
         id="path857"
         inkscape:connector-curvature="0" /><path
         d="m 72.5,0 v 139 h -1 V 0 Z m 2.5,138 -3,6 -3,-6 z"
         style="fill:#000000;fill-opacity:1;fill-rule:nonzero;stroke:none;stroke-width:1.35343361"
         id="path859"
         inkscape:connector-curvature="0" /><path
         d="m 0,71.5 h 139 v 1 H 0 Z m 138,-2.5 6,3 -6,3 z"
         style="fill:#000000;fill-opacity:1;fill-rule:nonzero;stroke:none;stroke-width:1.35343361"
         id="path861"
         inkscape:connector-curvature="0" /><path
         d="m 24.781,72.66 c 0,26.512 21.489,48 48,48 26.508,0 48,-21.488 48,-48 0,-26.508 -21.492,-48 -48,-48 -26.511,0 -48,21.492 -48,48 z"
         style="fill:none;stroke:#5999d4;stroke-width:3.08582878;stroke-linecap:butt;stroke-linejoin:miter;stroke-miterlimit:10;stroke-dasharray:none;stroke-opacity:1"
         id="path863"
         inkscape:connector-curvature="0" /><path
         d="m 118.441,105.523 1,-1.421 0.969,-1.481 0.899,-1.48 0.871,-1.52 0.808,-1.531 0.77,-1.559 0.711,-1.578 0.672,-1.601 0.609,-1.61 0.559,-1.621 0.519,-1.641 0.461,-1.648 0.41,-1.672 0.36,-1.68 0.3,-1.687 0.262,-1.691 0.207,-1.7 0.141,-1.711 0.101,-1.711 0.051,-1.718 -0.012,-1.711 -0.05,-1.719 -0.118,-1.719 -0.16,-1.711 -0.211,-1.711 -0.281,-1.75 -0.648,-2.679 -2.911,0.711 0.629,2.617 -0.019,-0.117 0.262,1.66 -0.012,-0.043 0.211,1.66 v -0.047 l 0.148,1.68 V 68.34 l 0.11,1.66 v -0.047 l 0.05,1.668 v -0.039 l 0.012,1.668 v -0.047 l -0.043,1.68 v -0.051 l -0.098,1.66 v -0.039 l -0.14,1.66 0.012,-0.05 -0.211,1.66 0.007,-0.039 -0.25,1.648 0.012,-0.051 -0.301,1.641 0.012,-0.039 -0.351,1.64 0.011,-0.05 -0.39,1.617 0.007,-0.047 -0.449,1.609 0.012,-0.05 -0.5,1.601 0.008,-0.043 -0.551,1.582 0.023,-0.039 -0.589,1.57 0.019,-0.05 -0.66,1.55 0.019,-0.031 -0.691,1.531 0.02,-0.05 -0.75,1.519 0.019,-0.039 -0.789,1.5 0.031,-0.051 -0.851,1.481 0.019,-0.043 -0.879,1.453 0.02,-0.043 -0.938,1.434 0.028,-0.043 -0.989,1.402 z m 12.477,-44.691 -6.789,-7.43 -1.859,9.891 z"
         style="fill:#000000;fill-opacity:1;fill-rule:nonzero;stroke:none;stroke-width:1.35343361"
         id="path865"
         inkscape:connector-curvature="0" /><path
         d="M 184.02,74.102 H 429.84"
         style="fill:none;stroke:#5999d4;stroke-width:3.08582878;stroke-linecap:butt;stroke-linejoin:miter;stroke-miterlimit:10;stroke-dasharray:none;stroke-opacity:1"
         id="path867"
         inkscape:connector-curvature="0" /><path
         d="m 423.66,74.043 c 0,3.41 2.77,6.18 6.18,6.18 3.41,0 6.18,-2.77 6.18,-6.18 0,-3.41 -2.77,-6.18 -6.18,-6.18 -3.41,0 -6.18,2.77 -6.18,6.18 z"
         style="fill:#ffffff;fill-opacity:1;fill-rule:evenodd;stroke:#5999d4;stroke-width:3.08582878;stroke-linecap:butt;stroke-linejoin:miter;stroke-miterlimit:10;stroke-dasharray:none;stroke-opacity:1"
         id="path869"
         inkscape:connector-curvature="0" /><path
         d="m 177.781,74.043 c 0,3.41 2.77,6.18 6.18,6.18 3.41,0 6.18,-2.77 6.18,-6.18 0,-3.41 -2.77,-6.18 -6.18,-6.18 -3.41,0 -6.18,2.77 -6.18,6.18 z"
         style="fill:#5999d4;fill-opacity:1;fill-rule:evenodd;stroke:#5999d4;stroke-width:3.08582878;stroke-linecap:butt;stroke-linejoin:miter;stroke-miterlimit:10;stroke-dasharray:none;stroke-opacity:1"
         id="path871"
         inkscape:connector-curvature="0" /><path
         d="m 184.172,50.09 c -1.274,0 -2.215,0.492 -2.828,1.484 -0.617,1 -0.922,2.516 -0.922,4.547 0,1.07 0.094,2 0.281,2.781 0.188,0.789 0.453,1.442 0.797,1.953 0.344,0.52 0.754,0.899 1.234,1.141 0.477,0.25 1.004,0.375 1.579,0.375 1.281,0 2.234,-0.496 2.859,-1.484 0.625,-0.992 0.937,-2.492 0.937,-4.5 0,-2.074 -0.336,-3.641 -1,-4.703 -0.668,-1.063 -1.648,-1.594 -2.937,-1.594 z m -2.047,6.297 c 0,-1.918 0.176,-3.324 0.531,-4.219 0.352,-0.887 0.907,-1.328 1.657,-1.328 0.707,0 1.234,0.414 1.578,1.25 0.343,0.844 0.515,2.148 0.515,3.922 0,1.343 -0.09,2.429 -0.265,3.265 -0.18,0.832 -0.422,1.43 -0.735,1.797 -0.312,0.364 -0.695,0.547 -1.14,0.547 -0.407,0 -0.746,-0.121 -1.016,-0.359 -0.273,-0.242 -0.492,-0.59 -0.656,-1.047 -0.168,-0.449 -0.289,-0.996 -0.36,-1.641 -0.074,-0.648 -0.109,-1.375 -0.109,-2.187 z"
         style="fill:#000000;fill-opacity:1;fill-rule:nonzero;stroke:none;stroke-width:1.35343361"
         id="path873"
         inkscape:connector-curvature="0" /><path
         d="m 430.852,51.637 c 0.281,0 0.507,0.015 0.687,0.047 0.176,0.039 0.316,0.101 0.422,0.187 0.102,0.082 0.187,0.188 0.25,0.313 0.062,0.132 0.141,0.336 0.234,0.609 h 0.75 l -0.14,-2.563 h -7.235 v 0.422 c 0.25,0.614 0.586,1.243 1.016,1.891 0.426,0.645 1.031,1.406 1.812,2.281 0.688,0.75 1.176,1.317 1.469,1.703 0.332,0.414 0.578,0.774 0.735,1.078 0.164,0.313 0.281,0.602 0.343,0.875 0.071,0.282 0.11,0.555 0.11,0.829 0,0.437 -0.075,0.82 -0.219,1.156 -0.137,0.344 -0.352,0.609 -0.641,0.797 -0.293,0.195 -0.656,0.297 -1.093,0.297 -1.094,0 -1.829,-0.61 -2.204,-1.829 h -1.078 v 1.688 c 0.719,0.332 1.383,0.57 2,0.719 0.614,0.156 1.164,0.234 1.657,0.234 1.093,0 1.914,-0.242 2.468,-0.719 0.563,-0.48 0.844,-1.172 0.844,-2.078 0,-0.312 -0.031,-0.601 -0.094,-0.859 -0.062,-0.262 -0.164,-0.524 -0.297,-0.781 -0.125,-0.25 -0.304,-0.524 -0.531,-0.813 -0.219,-0.293 -0.465,-0.59 -0.734,-0.891 -0.274,-0.304 -0.735,-0.808 -1.391,-1.515 -1.117,-1.18 -1.933,-2.203 -2.453,-3.078 z"
         style="fill:#000000;fill-opacity:1;fill-rule:nonzero;stroke:none;stroke-width:1.35343361"
         id="path875"
         inkscape:connector-curvature="0" /><path
         d="m 440.641,54.168 c 0.093,0.469 0.234,1.031 0.422,1.687 0.187,0.665 0.347,1.176 0.484,1.532 L 441.5,57.48 h -2.594 l -1.078,-5.015 c -0.086,-0.387 -0.187,-0.809 -0.312,-1.266 -0.118,-0.449 -0.203,-0.773 -0.266,-0.969 h -1.859 l 0.078,0.438 c 0.625,0.613 1.203,2.051 1.734,4.312 l 0.578,2.5 H 437.5 c -0.418,0 -0.773,-0.074 -1.062,-0.218 -0.282,-0.137 -0.594,-0.418 -0.938,-0.844 l -0.547,0.469 c 0.301,0.363 0.547,0.64 0.735,0.828 0.195,0.195 0.398,0.363 0.609,0.5 0.219,0.133 0.457,0.238 0.719,0.312 0.269,0.071 0.586,0.11 0.953,0.11 h 7.203 l -0.25,-1.157 h -2.094 l -0.984,-4.406 c -0.137,-0.574 -0.203,-1.011 -0.203,-1.312 0,-0.231 0.035,-0.399 0.109,-0.5 0.082,-0.106 0.207,-0.157 0.375,-0.157 0.344,0 0.754,0.282 1.234,0.844 l 0.516,-0.484 c -0.449,-0.481 -0.855,-0.828 -1.219,-1.047 -0.367,-0.219 -0.758,-0.328 -1.172,-0.328 -0.406,0 -0.726,0.137 -0.953,0.406 -0.218,0.27 -0.328,0.629 -0.328,1.078 0,0.395 0.078,0.961 0.235,1.703 z"
         style="fill:#000000;fill-opacity:1;fill-rule:nonzero;stroke:none;stroke-width:1.35343361"
         id="path877"
         inkscape:connector-curvature="0" /><path
         d="m 103.199,105.422 c 0,2.82 2.281,5.101 5.102,5.101 2.82,0 5.097,-2.281 5.097,-5.101 0,-2.82 -2.277,-5.102 -5.097,-5.102 -2.821,0 -5.102,2.282 -5.102,5.102 z"
         style="fill:#ff0000;fill-opacity:1;fill-rule:evenodd;stroke:#000000;stroke-width:1.29929626;stroke-linecap:butt;stroke-linejoin:miter;stroke-miterlimit:10;stroke-dasharray:none;stroke-opacity:1"
         id="path879"
         inkscape:connector-curvature="0" /><path
         d="m 108.84,52.023 c 0,2.817 2.281,5.098 5.101,5.098 2.817,0 5.098,-2.281 5.098,-5.098 0,-2.82 -2.281,-5.101 -5.098,-5.101 -2.82,0 -5.101,2.281 -5.101,5.101 z"
         style="fill:#91cf4f;fill-opacity:1;fill-rule:evenodd;stroke:#000000;stroke-width:1.29929626;stroke-linecap:butt;stroke-linejoin:miter;stroke-miterlimit:10;stroke-dasharray:none;stroke-opacity:1"
         id="path881"
         inkscape:connector-curvature="0" /><path
         d="m 214.441,74.102 c 0,2.82 2.278,5.101 5.098,5.101 2.82,0 5.102,-2.281 5.102,-5.101 0,-2.821 -2.282,-5.102 -5.102,-5.102 -2.82,0 -5.098,2.281 -5.098,5.102 z"
         style="fill:#ff0000;fill-opacity:1;fill-rule:evenodd;stroke:#000000;stroke-width:1.29929626;stroke-linecap:butt;stroke-linejoin:miter;stroke-miterlimit:10;stroke-dasharray:none;stroke-opacity:1"
         id="path883"
         inkscape:connector-curvature="0" /><path
         d="m 403.199,74.102 c 0,2.82 2.281,5.101 5.102,5.101 2.82,0 5.097,-2.281 5.097,-5.101 0,-2.821 -2.277,-5.102 -5.097,-5.102 -2.821,0 -5.102,2.281 -5.102,5.102 z"
         style="fill:#91cf4f;fill-opacity:1;fill-rule:evenodd;stroke:#000000;stroke-width:1.29929626;stroke-linecap:butt;stroke-linejoin:miter;stroke-miterlimit:10;stroke-dasharray:none;stroke-opacity:1"
         id="path885"
         inkscape:connector-curvature="0" /><path
         d="m 104.961,42.402 -2.02,-2.211 -2.222,2.02 2.019,2.223 z m -4.441,-4.359 -1.18,-0.941 -1.27,-0.918 -1.75,2.437 1.239,0.891 -0.059,-0.051 1.141,0.922 z m -5.079,-3.582 -1.5,-0.879 -1.183,-0.609 -1.387,2.66 1.149,0.597 -0.059,-0.039 1.469,0.86 z m -5.531,-2.828 -1.781,-0.723 -1.09,-0.379 -0.98,2.84 1.05,0.359 -0.058,-0.019 1.738,0.699 z m -5.871,-2.031 -2.008,-0.5 -0.98,-0.192 -0.571,2.953 0.95,0.18 -0.071,-0.012 1.969,0.481 z m -6.019,-1.18 -0.168,-0.031 -2.114,-0.2 -0.847,-0.039 -0.141,2.989 0.809,0.043 h -0.071 l 2.043,0.187 -0.082,-0.008 0.141,0.02 z m -6.2,-0.34 h -0.34 l -2.128,0.102 -0.672,0.066 0.289,2.98 0.633,-0.058 -0.071,0.012 2.047,-0.102 h -0.07 0.301 z m -6.191,0.539 -0.539,0.082 -2.121,0.41 -0.43,0.11 0.719,2.91 0.39,-0.102 -0.07,0.02 2.051,-0.399 -0.07,0.008 0.5,-0.07 z m -6.059,1.402 -0.8,0.239 -2.071,0.738 -0.097,0.043 1.136,2.77 0.071,-0.02 -0.071,0.02 2.012,-0.711 -0.082,0.019 0.773,-0.23 z m -5.789,2.239 -1.14,0.539 -1.61,0.871 1.43,2.641 1.57,-0.852 -0.07,0.039 1.098,-0.52 z m -5.441,3.031 -1.512,1.027 -1,0.75 1.801,2.403 0.973,-0.731 -0.063,0.039 1.481,-1 z M 43.441,39 l -0.121,0.102 -1.629,1.5 -0.55,0.558 2.148,2.102 0.52,-0.532 -0.059,0.051 1.57,-1.449 -0.05,0.051 0.089,-0.07 z m -4.39,4.41 -0.34,0.391 -1.359,1.699 -0.274,0.371 2.442,1.75 0.238,-0.34 -0.047,0.059 1.309,-1.629 -0.04,0.051 0.321,-0.36 z m -3.711,4.981 -0.43,0.66 -1.082,1.851 -0.098,0.2 2.661,1.378 0.089,-0.16 -0.039,0.063 1.039,-1.793 -0.039,0.07 0.411,-0.617 z m -2.981,5.461 -0.41,0.878 -0.789,1.981 -0.012,0.039 2.832,0.992 V 57.73 l -0.019,0.063 0.758,-1.902 -0.028,0.062 0.387,-0.851 z m -2.179,5.808 -0.321,1.082 -0.468,1.891 2.918,0.707 0.449,-1.848 -0.02,0.071 0.313,-1.04 z m -1.352,6.063 -0.187,1.269 -0.172,1.781 2.98,0.29 0.172,-1.75 -0.012,0.078 0.18,-1.231 z m -0.5,6.187 v 1.453 l 0.07,1.617 3,-0.14 -0.07,-1.578 v 0.07 -1.422 z m 0.371,6.203 0.242,1.637 0.278,1.391 2.941,-0.578 -0.269,-1.352 0.007,0.07 -0.23,-1.597 z m 1.25,6.09 0.559,1.867 0.383,1.063 2.82,-1.012 -0.359,-1.031 0.019,0.082 -0.551,-1.832 z m 2.059,5.789 0.082,0.192 0.961,2.019 0.328,0.629 2.652,-1.422 -0.32,-0.597 0.027,0.07 L 34.82,88.934 34.852,89 34.789,88.84 Z m 2.902,5.508 0.379,0.633 1.27,1.879 0.089,0.121 2.391,-1.813 -0.059,-0.078 0.051,0.059 -1.23,-1.821 0.039,0.063 -0.36,-0.602 z m 3.629,5.051 0.813,0.972 1.218,1.329 2.211,-2.032 -1.203,-1.297 0.051,0.047 -0.789,-0.937 z m 4.289,4.5 1.223,1.082 1.117,0.91 1.883,-2.34 -1.102,-0.883 0.059,0.043 -1.188,-1.05 z m 4.883,3.84 1.59,1.043 1.019,0.597 1.508,-2.597 -0.988,-0.571 0.07,0.039 -1.551,-1.019 z m 5.367,3.132 1.891,0.868 0.929,0.371 1.122,-2.782 -0.891,-0.359 0.07,0.031 -1.859,-0.859 z m 5.703,2.297 0.168,0.063 2.039,0.597 0.813,0.204 0.707,-2.911 -0.77,-0.191 0.071,0.02 -1.969,-0.59 0.07,0.019 -0.152,-0.051 z m 6.02,1.512 0.328,0.059 2.101,0.312 0.68,0.07 0.289,-2.992 -0.648,-0.058 0.078,0.007 -2.027,-0.296 0.066,0.007 -0.297,-0.058 z m 6.168,0.66 0.5,0.02 h 2.133 l 0.519,-0.02 -0.141,-3 -0.48,0.02 h 0.07 -2.07 0.078 l -0.449,-0.02 z m 6.211,-0.211 0.691,-0.07 2.129,-0.309 0.301,-0.062 -0.582,-2.938 -0.258,0.051 0.07,-0.012 -2.051,0.301 0.071,-0.012 -0.653,0.063 z m 6.121,-1.09 0.918,-0.23 2.039,-0.609 -0.867,-2.879 -2,0.609 0.078,-0.019 -0.891,0.21 z m 5.91,-1.941 1.219,-0.5 1.59,-0.758 -1.29,-2.711 -1.55,0.742 0.07,-0.031 -1.191,0.488 z m 5.578,-2.738 1.582,-0.961 1.02,-0.688 -1.68,-2.48 -0.981,0.66 0.059,-0.043 -1.551,0.941 z m 5.121,-3.489 1.039,-0.832 1.301,-1.14 -1.969,-2.258 -1.281,1.117 0.039,-0.039 -1.008,0.813 z m -0.512,-61.972 9.133,4.23 -2.101,-9.847 z"
         style="fill:#000000;fill-opacity:1;fill-rule:nonzero;stroke:none;stroke-width:1.35343361"
         id="path887"
         inkscape:connector-curvature="0" /><path
         d="m 224.699,67.203 h 3 v -3 h -3 z m 6,0 h 3 v -3 h -3 z m 6,0 h 3 v -3 h -3 z m 6,0 h 3 v -3 h -3 z m 6,0 h 3 v -3 h -3 z m 6,0 h 3 v -3 h -3 z m 6,0 h 3 v -3 h -3 z m 6,0 h 3 v -3 h -3 z m 6,0 h 3 v -3 h -3 z m 6,0 h 3 v -3 h -3 z m 6,0 h 3 v -3 h -3 z m 6,0 h 3 v -3 h -3 z m 6,0 h 3 v -3 h -3 z m 6,0 h 3 v -3 h -3 z m 6,0 h 3 v -3 h -3 z m 6,0 h 3 v -3 h -3 z m 6,0 h 3 v -3 h -3 z m 6,0 h 3 v -3 h -3 z m 6,0 h 3 v -3 h -3 z m 6,0 h 3 v -3 h -3 z m 6,0 h 3 v -3 h -3 z m 6,0 h 3 v -3 h -3 z m 6,0 h 3 v -3 h -3 z m 6,0 h 3 v -3 h -3 z m 6,0 h 3 v -3 h -3 z m 6,0 h 3 v -3 h -3 z m 6,0 h 3 v -3 h -3 z m 6,0 h 3 v -3 h -3 z m 6,0 h 3 v -3 h -3 z m 1.551,3 9,-4.5 -9,-4.5 z"
         style="fill:#000000;fill-opacity:1;fill-rule:nonzero;stroke:none;stroke-width:1.35343361"
         id="path889"
         inkscape:connector-curvature="0" /><path
         d="M 214.57,82.742 H 184.02"
         style="fill:none;stroke:#000000;stroke-width:4.06030083;stroke-linecap:butt;stroke-linejoin:miter;stroke-miterlimit:10;stroke-dasharray:none;stroke-opacity:1"
         id="path891"
         inkscape:connector-curvature="0" /><path
         d="m 430.551,84.242 h -9.59 v -3 h 9.59 z m -8.09,3 -9,-4.5 9,-4.5 z"
         style="fill:#000000;fill-opacity:1;fill-rule:nonzero;stroke:none;stroke-width:1.35343361"
         id="path893"
         inkscape:connector-curvature="0" /><path
         d="m 183.949,84.363 c -30.73,9.367 30.18,29.61 124.352,30.45 94.168,0.847 150.347,-17.7 122.168,-29.723"
         style="fill:none;stroke:#000000;stroke-width:1.29929626;stroke-linecap:butt;stroke-linejoin:miter;stroke-miterlimit:10;stroke-dasharray:5.1971852, 3.8978889;stroke-dashoffset:0;stroke-opacity:1"
         id="path895"
         inkscape:connector-curvature="0" /></g></g></svg>