<?xml version="1.0" encoding="UTF-8" standalone="no"?>
<!DOCTYPE svg PUBLIC "-//W3C//DTD SVG 1.1//EN"
"http://www.w3.org/Graphics/SVG/1.1/DTD/svg11.dtd">


<!-- Page 1 -->
<svg x="0" y="0" width="907" height="552" viewBox="0 0 907 552" version="1.1" xmlns="http://www.w3.org/2000/svg" xmlns:xlink="http://www.w3.org/1999/xlink"
style="display: block;margin-left: auto;margin-right: auto;">
<defs>

<style type="text/css"><![CDATA[

.g0_1{
fill: none;
stroke: #000000;
stroke-width: 2.3833332;
stroke-linecap: butt;
stroke-linejoin: miter;
}
.g1_1{
fill: #976300;
stroke: #000000;
stroke-width: 2.3833332;
stroke-linecap: butt;
stroke-linejoin: round;
}
.g2_1{
fill: #45D426;
stroke: #45D426;
stroke-width: 1.0999999;
stroke-linecap: butt;
stroke-linejoin: round;
}
.g3_1{
fill: #F81705;
stroke: #F81705;
stroke-width: 1.0999999;
stroke-linecap: butt;
stroke-linejoin: round;
}
.g4_1{
fill: none;
stroke: #000000;
stroke-width: 1.4666667;
stroke-linecap: butt;
stroke-linejoin: miter;
stroke-miterlimit: 8;
stroke-dasharray: 6,5;
}
.g5_1{
fill: none;
stroke: #006EBF;
stroke-width: 4.5833335;
stroke-linecap: butt;
stroke-linejoin: miter;
stroke-miterlimit: 8;
}
.g6_1{
fill: #FFBF00;
stroke: #000000;
stroke-width: 2.3833332;
stroke-linecap: butt;
stroke-linejoin: round;
stroke-miterlimit: 8;
}
.g7_1{
fill: none;
stroke: #000000;
stroke-width: 2.3833332;
stroke-linecap: butt;
stroke-linejoin: miter;
stroke-miterlimit: 8;
}
.g8_1{
fill: #976300;
stroke: #000000;
stroke-width: 2.3833332;
stroke-linecap: butt;
stroke-linejoin: round;
stroke-miterlimit: 8;
}
.g9_1{
fill: #45D426;
stroke: #45D426;
stroke-width: 1.0999999;
stroke-linecap: butt;
stroke-linejoin: round;
stroke-miterlimit: 8;
}
.g10_1{
fill: #F81705;
stroke: #F81705;
stroke-width: 1.0999999;
stroke-linecap: butt;
stroke-linejoin: round;
stroke-miterlimit: 8;
}
.g11_1{
}

]]></style>

</defs>
<path d="M0,0
L0,552
L907,552
L907,0 Z " 
fill="#FFFFFF" stroke="none" />
<path d="M1.2,1.2H445.6V267.8H1.2V1.2Z" class="g0_1" />
<path fill-rule="evenodd" d="M67.9,67.8l44.4,44.5L90.1,134.5V179h66.6V67.8L84.6,45.6Z" class="g1_1" />
<path fill-rule="evenodd" d="M40,112.2c0,-3,2.5,-5.5,5.6,-5.5c3.1,0,5.5,2.5,5.5,5.5c0,3,-2.4,5.5,-5.5,5.5c-3.1,0,-5.6,-2.5,-5.6,-5.5Z" class="g2_1" />
<path fill-rule="evenodd" d="M267.8,179v22.2H379V67.9H356.8V179Z" class="g1_1" />
<path fill-rule="evenodd" d="M417.8,178.8c0,-3,2.5,-5.6,5.5,-5.6c3.1,0,5.5,2.6,5.5,5.6c0,3.1,-2.4,5.6,-5.5,5.6c-3,0,-5.5,-2.5,-5.5,-5.6Z" class="g3_1" />
<path d="M51.1,112.2l366.7,66.7" class="g4_1" />
<path d="M51.2,112.3l51.4,10.3" class="g5_1" />
<path fill-rule="evenodd" d="M96.9,122.6c0,-3.1,2.5,-5.5,5.6,-5.5c3.1,0,5.6,2.4,5.6,5.5c0,3,-2.5,5.5,-5.6,5.5c-3.1,0,-5.6,-2.5,-5.6,-5.5Z" class="g6_1" />
<path d="M462.3,1.2H906.7V267.8H462.3V1.2Z" class="g7_1" />
<path fill-rule="evenodd" d="M529,67.8l44.5,44.5l-22.3,22.2V179h66.7V67.8L545.7,45.6Z" class="g8_1" />
<path fill-rule="evenodd" d="M501.1,112.2c0,-3,2.5,-5.5,5.5,-5.5c3.1,0,5.6,2.5,5.6,5.5c0,3,-2.5,5.5,-5.6,5.5c-3,0,-5.5,-2.5,-5.5,-5.5Z" class="g9_1" />
<path fill-rule="evenodd" d="M729,179v22.2H840.1V67.9H817.9V179Z" class="g8_1" />
<path fill-rule="evenodd" d="M878.9,178.8c0,-3,2.5,-5.6,5.5,-5.6c3,0,5.5,2.6,5.5,5.6c0,3.1,-2.5,5.6,-5.5,5.6c-3,0,-5.5,-2.5,-5.5,-5.6Z" class="g10_1" />
<path d="M617.8,67.8L879,178.9" class="g4_1" />
<path d="M511.6,113.7l51.3,9.8l9.8,-10.4L529.3,68.5l16.5,-22L613,66.6" class="g5_1" />
<path fill-rule="evenodd" d="M612.2,67.8c0,-3.1,2.6,-5.6,5.6,-5.6c3.1,0,5.6,2.5,5.6,5.6c0,3.1,-2.5,5.6,-5.6,5.6c-3,0,-5.6,-2.5,-5.6,-5.6Z" class="g6_1" />
<path d="M1.2,284.8H445.6V551.6H1.2V284.8Z" class="g7_1" />
<path fill-rule="evenodd" d="M67.9,351.6L112.3,396L90.1,418.2v44.4h66.6v-111L84.6,329.4Z" class="g8_1" />
<path fill-rule="evenodd" d="M40,395.9c0,-3.1,2.5,-5.6,5.6,-5.6c3.1,0,5.5,2.5,5.5,5.6c0,3.1,-2.4,5.6,-5.5,5.6C42.5,401.5,40,399,40,395.9Z" class="g9_1" />
<path fill-rule="evenodd" d="M267.8,462.6v22.2H379V351.5H356.8V462.6Z" class="g8_1" />
<path fill-rule="evenodd" d="M417.8,462.6c0,-3.1,2.5,-5.5,5.5,-5.5c3.1,0,5.5,2.4,5.5,5.5c0,3,-2.4,5.4,-5.5,5.4c-3,0,-5.5,-2.4,-5.5,-5.4Z" class="g10_1" />
<path d="M156.6,351.4L417.7,462.6" class="g4_1" />
<path d="M50.5,397.3l51.3,9.7l9.8,-10.3L68.2,352.1l16.5,-22l68.8,20.8l197.1,84.6" class="g5_1" />
<path fill-rule="evenodd" d="M351,438c0,-3.1,2.5,-5.6,5.6,-5.6c3.1,0,5.6,2.5,5.6,5.6c0,3.1,-2.5,5.6,-5.6,5.6c-3.1,0,-5.6,-2.5,-5.6,-5.6Z" class="g6_1" />
<path d="M461.5,284.8H906.1V551.6H461.5V284.8Z" class="g7_1" />
<path fill-rule="evenodd" d="M528.3,351.6L572.7,396l-22.2,22.2v44.4h66.7v-111L544.9,329.4Z" class="g8_1" />
<path fill-rule="evenodd" d="M500.5,395.9c0,-3.1,2.5,-5.6,5.5,-5.6c3,0,5.5,2.5,5.5,5.6c0,3.1,-2.5,5.6,-5.5,5.6c-3,0,-5.5,-2.5,-5.5,-5.6Z" class="g9_1" />
<path fill-rule="evenodd" d="M728.3,462.6v22.2H839.4V351.5H817.2V462.6Z" class="g8_1" />
<path fill-rule="evenodd" d="M878.2,462.6c0,-3.1,2.5,-5.5,5.6,-5.5c3,0,5.6,2.4,5.6,5.5c0,3,-2.6,5.4,-5.6,5.4c-3.1,0,-5.6,-2.4,-5.6,-5.4Z" class="g10_1" />
<path d="M842.6,355.5l37.3,103.2" class="g4_1" />
<path d="M510.9,397.3l51.3,9.8L572,396.7L528.6,352.1l16.5,-22l68.8,20.8l202.9,85.9c.4,-19.2,-.1,-42,-.7,-85.1l22,-.7" class="g5_1" />
<path fill-rule="evenodd" d="M833.2,351.5c0,-3,2.5,-5.5,5.6,-5.5c3,0,5.5,2.5,5.5,5.5c0,3.1,-2.5,5.5,-5.5,5.5c-3.1,0,-5.6,-2.4,-5.6,-5.5Z" class="g6_1" />
<path d="M26.2,32.2c0,.1,-.1,.3,-.1,.4c0,.1,0,.2,-.1,.3c0,0,-.1,.1,-.2,.1c0,.1,-.1,.1,-.1,.1H16.6q-.1,0,-.2,-.1c0,0,-.1,-.1,-.1,-.1c-.1,-.1,-.1,-.2,-.2,-.3c0,-.1,0,-.3,0,-.4c0,-.2,0,-.3,0,-.4c.1,-.2,.1,-.3,.1,-.3c.1,-.1,.1,-.2,.2,-.2c0,-.1,.1,-.1,.2,-.1h3.6V18l-3.3,2c-.2,.1,-.3,.2,-.4,.2c-.1,0,-.2,0,-.3,-.1c0,0,-.1,-.1,-.1,-.3c0,-.1,0,-.3,0,-.5c0,-.1,0,-.3,0,-.4c0,-.1,0,-.2,0,-.2c.1,-.1,.1,-.2,.1,-.2c.1,-.1,.2,-.1,.2,-.2l4,-2.6q.1,0,.2,0c0,0,.1,-.1,.2,-.1q.1,0,.2,0c.2,0,.3,0,.5,0c.2,0,.4,0,.5,0c.1,0,.2,0,.3,.1c.1,0,.2,0,.2,.1c0,0,0,.1,0,.2V31.2h3.2q.1,0,.2,.1c0,0,.1,.1,.1,.2c.1,0,.1,.1,.1,.3c0,.1,.1,.2,.1,.4Z" class="g11_1" />
<path d="M32.6,31.6c0,.7,-.1,1.1,-.4,1.3c-.2,.2,-.6,.3,-1.1,.3c-.5,0,-.9,-.1,-1.1,-.3c-.2,-.2,-.3,-.6,-.3,-1.3c0,-.6,.1,-1,.3,-1.2c.2,-.2,.6,-.3,1.1,-.3c.6,0,.9,.1,1.2,.3c.2,.2,.3,.6,.3,1.2Z" class="g11_1" />
<path d="M489.3,32.1c0,.1,0,.3,-.1,.4c0,.1,0,.2,0,.3c-.1,.1,-.1,.2,-.2,.2c-.1,.1,-.2,.1,-.2,.1h-9.6c-.2,0,-.3,0,-.4,-.1c0,0,-.1,-.1,-.2,-.1c-.1,-.1,-.1,-.2,-.1,-.3c-.1,-.2,-.1,-.3,-.1,-.5c0,-.2,0,-.4,0,-.5c0,-.1,.1,-.2,.1,-.3c.1,-.1,.1,-.3,.2,-.3c0,-.2,.1,-.3,.3,-.4L482.3,27c.8,-.8,1.4,-1.5,1.9,-2.2c.5,-.6,.8,-1.2,1.1,-1.8c.2,-.5,.4,-1,.5,-1.4c.1,-.5,.1,-.9,.1,-1.3c0,-.4,-.1,-.7,-.2,-1c-.1,-.4,-.3,-.7,-.5,-1c-.3,-.2,-.6,-.4,-.9,-.6c-.4,-.1,-.8,-.2,-1.3,-.2c-.5,0,-1,.1,-1.4,.2c-.5,.2,-.9,.3,-1.2,.5c-.3,.2,-.6,.4,-.8,.5c-.2,.2,-.4,.2,-.5,.2c0,0,-.1,0,-.1,0q-.1,-.1,-.2,-.2c0,-.1,0,-.2,0,-.3c-.1,-.2,-.1,-.3,-.1,-.5v-.3c.1,-.1,.1,-.2,.1,-.3c0,-.1,.1,-.1,.1,-.2c0,-.1,.1,-.1,.2,-.2c.1,-.1,.3,-.3,.6,-.4c.2,-.2,.6,-.3,1,-.5c.3,-.1,.8,-.3,1.3,-.4c.4,-.1,.9,-.2,1.5,-.2c.8,0,1.5,.2,2.2,.4c.6,.2,1.1,.6,1.5,1c.5,.4,.8,.9,1,1.4c.2,.6,.3,1.1,.3,1.7c0,.6,-.1,1.2,-.2,1.7c-.1,.6,-.3,1.2,-.6,1.8c-.3,.6,-.8,1.4,-1.4,2.1c-.6,.8,-1.3,1.7,-2.4,2.7l-2.7,2.9h7.6c0,0,.1,0,.2,.1c0,0,.1,.1,.2,.2c0,0,0,.1,0,.3c.1,.1,.1,.2,.1,.4Z" class="g11_1" />
<path d="M495.7,31.6c0,.7,-.1,1.1,-.3,1.3c-.2,.2,-.6,.3,-1.1,.3c-.6,0,-.9,-.1,-1.1,-.3c-.3,-.2,-.4,-.6,-.4,-1.3c0,-.6,.1,-1,.4,-1.2c.2,-.2,.5,-.3,1.1,-.3c.5,0,.9,.1,1.1,.3c.2,.2,.3,.6,.3,1.2Z" class="g11_1" />
<path d="M26,311.9c0,.8,-.2,1.5,-.4,2.1c-.3,.7,-.7,1.2,-1.2,1.7c-.6,.4,-1.2,.8,-1.9,1c-.8,.3,-1.7,.4,-2.6,.4c-.6,0,-1.1,-.1,-1.7,-.2c-.5,0,-.9,-.2,-1.3,-.3c-.4,-.1,-.7,-.2,-1,-.4c-.2,-.1,-.4,-.2,-.5,-.3c0,-.1,-.1,-.1,-.1,-.2q-.1,-.1,-.1,-.2c0,-.1,-.1,-.2,-.1,-.3c0,-.2,0,-.3,0,-.5c0,-.3,0,-.6,.1,-.7c.1,-.1,.1,-.2,.3,-.2c0,0,.2,.1,.4,.2c.3,.2,.6,.3,.9,.5c.4,.2,.9,.3,1.4,.5c.4,.1,1,.2,1.6,.2c.6,0,1.1,-.1,1.6,-.2c.4,-.2,.8,-.4,1.1,-.7c.3,-.3,.5,-.6,.7,-1c.1,-.4,.2,-.8,.2,-1.2c0,-.5,-.1,-1,-.3,-1.4c-.2,-.4,-.5,-.7,-.8,-1c-.4,-.3,-.9,-.5,-1.4,-.6c-.5,-.2,-1.2,-.3,-1.8,-.3H17.4q-.1,0,-.2,0c-.1,0,-.1,-.1,-.2,-.2c0,0,-.1,-.1,-.1,-.2c0,-.2,0,-.3,0,-.5c0,-.2,0,-.3,0,-.4c0,-.1,.1,-.2,.1,-.3q.1,-.1,.2,-.1c0,-.1,.1,-.1,.2,-.1h1.5c.6,0,1.1,-.1,1.6,-.2c.5,-.2,.9,-.4,1.2,-.7c.3,-.3,.6,-.6,.8,-1c.1,-.4,.2,-.8,.2,-1.3c0,-.4,-.1,-.7,-.2,-1.1c-.1,-.3,-.3,-.6,-.5,-.8c-.2,-.3,-.5,-.4,-.9,-.6c-.4,-.1,-.8,-.2,-1.2,-.2c-.6,0,-1,.1,-1.5,.2c-.4,.2,-.8,.4,-1.1,.5c-.4,.2,-.6,.4,-.9,.5c-.2,.2,-.3,.3,-.4,.3c-.1,0,-.2,0,-.2,0q-.1,-.1,-.1,-.2c-.1,0,-.1,-.1,-.1,-.3c0,-.1,0,-.2,0,-.5v-.3c0,-.1,0,-.2,0,-.3q.1,-.1,.1,-.2c.1,0,.1,-.1,.2,-.2c.1,-.1,.3,-.2,.5,-.4c.3,-.1,.6,-.3,1,-.4c.4,-.2,.8,-.3,1.3,-.4c.5,-.2,1.1,-.2,1.6,-.2c.8,0,1.5,.1,2.1,.3c.6,.2,1.2,.5,1.6,.9c.4,.4,.7,.8,.9,1.3c.2,.6,.3,1.1,.3,1.8c0,.5,-.1,1,-.2,1.5c-.2,.5,-.4,.9,-.7,1.3c-.2,.3,-.6,.6,-1,.9c-.4,.2,-.8,.4,-1.4,.5c.6,.1,1.2,.2,1.6,.5c.6,.2,1,.5,1.3,.9c.4,.3,.7,.7,.9,1.2c.2,.5,.3,1,.3,1.6Z" class="g11_1" />
<path d="M32.6,315.4c0,.6,-.1,1,-.4,1.2c-.2,.2,-.6,.3,-1.1,.3c-.5,0,-.9,-.1,-1.1,-.3c-.2,-.2,-.3,-.6,-.3,-1.2c0,-.6,.1,-1.1,.3,-1.3c.2,-.2,.6,-.3,1.1,-.3c.6,0,.9,.1,1.2,.3c.2,.2,.3,.7,.3,1.3Z" class="g11_1" />
<path d="M485.8,311.9c0,.3,-.1,.5,-.2,.7c-.1,.2,-.2,.2,-.4,.2h-1.9v3.7q0,.1,-.1,.2c0,0,-.1,.1,-.2,.1c-.1,0,-.2,.1,-.3,.1c-.2,0,-.4,0,-.6,0c-.2,0,-.4,0,-.5,0c-.1,0,-.3,-.1,-.4,-.1c0,0,-.1,-.1,-.1,-.1q-.1,-.1,-.1,-.2v-3.7h-7.1c-.1,0,-.2,0,-.3,0c-.1,0,-.1,-.1,-.2,-.1c-.1,-.1,-.1,-.2,-.1,-.3c0,-.2,-.1,-.4,-.1,-.6v-.4c.1,-.2,.1,-.3,.1,-.4c0,-.1,.1,-.2,.1,-.3c.1,-.1,.1,-.2,.2,-.4l6.2,-10.5q.1,-.1,.2,-.2c.1,0,.2,-.1,.4,-.1c.1,-.1,.3,-.1,.5,-.1c.2,0,.4,0,.7,0c.3,0,.5,0,.7,0c.2,0,.4,.1,.5,.1c.2,0,.3,.1,.4,.1c0,.1,.1,.2,.1,.2v11.1h1.9c.2,0,.3,.1,.4,.3c.1,.1,.2,.4,.2,.7ZM481,301.4v0l-5.7,9.5H481Z" class="g11_1" />
<path d="M491.5,315.4c0,.6,-.2,1,-.4,1.2c-.2,.2,-.6,.3,-1.1,.3c-.5,0,-.9,-.1,-1.1,-.3c-.2,-.2,-.3,-.6,-.3,-1.2c0,-.6,.1,-1.1,.3,-1.3c.2,-.2,.6,-.3,1.1,-.3c.6,0,.9,.1,1.1,.3c.2,.2,.4,.7,.4,1.3Z" class="g11_1" />

</svg>
