<?xml version="1.0" encoding="UTF-8" standalone="no"?>
<!-- Created with Inkscape (http://www.inkscape.org/) -->

<svg
   xmlns:dc="http://purl.org/dc/elements/1.1/"
   xmlns:cc="http://creativecommons.org/ns#"
   xmlns:rdf="http://www.w3.org/1999/02/22-rdf-syntax-ns#"
   xmlns:svg="http://www.w3.org/2000/svg"
   xmlns="http://www.w3.org/2000/svg"
   xmlns:sodipodi="http://sodipodi.sourceforge.net/DTD/sodipodi-0.dtd"
   xmlns:inkscape="http://www.inkscape.org/namespaces/inkscape"
   version="1.1"
   id="svg17549"
   xml:space="preserve"
   width="792.31958"
   height="482.07999"
   viewBox="0 0 792.31958 482.07999"
   sodipodi:docname="bug2.svg"
   inkscape:version="0.92.3 (2405546, 2018-03-11)"><metadata
     id="metadata17555"><rdf:RDF><cc:Work
         rdf:about=""><dc:format>image/svg+xml</dc:format><dc:type
           rdf:resource="http://purl.org/dc/dcmitype/StillImage" /><dc:title></dc:title></cc:Work></rdf:RDF></metadata><defs
     id="defs17553" /><sodipodi:namedview
     pagecolor="#ffffff"
     bordercolor="#666666"
     borderopacity="1"
     objecttolerance="10"
     gridtolerance="10"
     guidetolerance="10"
     inkscape:pageopacity="0"
     inkscape:pageshadow="2"
     inkscape:window-width="909"
     inkscape:window-height="480"
     id="namedview17551"
     showgrid="false"
     inkscape:zoom="0.42785766"
     inkscape:cx="396.15979"
     inkscape:cy="241.03999"
     inkscape:window-x="0"
     inkscape:window-y="0"
     inkscape:window-maximized="0"
     inkscape:current-layer="g17557" /><g
     id="g17557"
     inkscape:groupmode="layer"
     inkscape:label="bug2"
     transform="matrix(1.3333333,0,0,-1.3333333,0,482.08)"><g
       id="g17559"><path
         d="M 0.781,360.779 H 291.66 V 186.299 H 0.781 Z"
         style="fill:none;stroke:#000000;stroke-width:1.55999994;stroke-linecap:butt;stroke-linejoin:miter;stroke-miterlimit:10;stroke-dasharray:none;stroke-opacity:1"
         id="path17561"
         inkscape:connector-curvature="0" /><path
         d="M 44.461,317.181 73.5,288.06 58.98,273.501 V 244.38 h 43.563 v 72.801 L 55.352,331.74 Z"
         style="fill:#976300;fill-opacity:1;fill-rule:evenodd;stroke:#000000;stroke-width:1.55999994;stroke-linecap:butt;stroke-linejoin:round;stroke-miterlimit:10;stroke-dasharray:none;stroke-opacity:1"
         id="path17563"
         inkscape:connector-curvature="0" /><path
         d="m 26.16,288.119 c 0,1.992 1.641,3.601 3.66,3.601 2.024,0 3.66,-1.609 3.66,-3.601 0,-1.989 -1.636,-3.598 -3.66,-3.598 -2.019,0 -3.66,1.609 -3.66,3.598 z"
         style="fill:#45d426;fill-opacity:1;fill-rule:evenodd;stroke:#45d426;stroke-width:0.72000003;stroke-linecap:butt;stroke-linejoin:round;stroke-miterlimit:10;stroke-dasharray:none;stroke-opacity:1"
         id="path17565"
         inkscape:connector-curvature="0" /><path
         d="m 175.262,244.4 v -14.539 h 72.84 v 87.238 H 233.531 V 244.4 Z"
         style="fill:#976300;fill-opacity:1;fill-rule:evenodd;stroke:#000000;stroke-width:1.55999994;stroke-linecap:butt;stroke-linejoin:round;stroke-miterlimit:10;stroke-dasharray:none;stroke-opacity:1"
         id="path17567"
         inkscape:connector-curvature="0" /><path
         d="m 273.48,244.501 c 0,2.02 1.61,3.661 3.602,3.661 1.988,0 3.598,-1.641 3.598,-3.661 0,-2.023 -1.61,-3.66 -3.598,-3.66 -1.992,0 -3.602,1.637 -3.602,3.66 z"
         style="fill:#f81705;fill-opacity:1;fill-rule:evenodd;stroke:#f81705;stroke-width:0.72000003;stroke-linecap:butt;stroke-linejoin:round;stroke-miterlimit:10;stroke-dasharray:none;stroke-opacity:1"
         id="path17569"
         inkscape:connector-curvature="0" /><path
         d="m 33.48,288.119 240,-43.641"
         style="fill:none;stroke:#000000;stroke-width:0.95999998;stroke-linecap:butt;stroke-linejoin:miter;stroke-miterlimit:8;stroke-dasharray:3.84, 2.88;stroke-dashoffset:0;stroke-opacity:1"
         id="path17571"
         inkscape:connector-curvature="0" /><path
         d="m 33.543,288.06 33.598,-6.73"
         style="fill:none;stroke:#006ebf;stroke-width:3;stroke-linecap:butt;stroke-linejoin:miter;stroke-miterlimit:8;stroke-dasharray:none;stroke-opacity:1"
         id="path17573"
         inkscape:connector-curvature="0" /><path
         d="m 63.422,281.341 c 0,1.989 1.641,3.598 3.66,3.598 2.02,0 3.66,-1.609 3.66,-3.598 0,-1.992 -1.64,-3.601 -3.66,-3.601 -2.019,0 -3.66,1.609 -3.66,3.601 z"
         style="fill:#ffbf00;fill-opacity:1;fill-rule:evenodd;stroke:#000000;stroke-width:1.55999994;stroke-linecap:butt;stroke-linejoin:round;stroke-miterlimit:8;stroke-dasharray:none;stroke-opacity:1"
         id="path17575"
         inkscape:connector-curvature="0" /><path
         d="M 302.582,360.779 H 593.461 V 186.299 H 302.582 Z"
         style="fill:none;stroke:#000000;stroke-width:1.55999994;stroke-linecap:butt;stroke-linejoin:miter;stroke-miterlimit:8;stroke-dasharray:none;stroke-opacity:1"
         id="path17577"
         inkscape:connector-curvature="0" /><path
         d="m 346.262,317.181 29.101,-29.121 -14.55,-14.559 V 244.38 h 43.648 v 72.801 l -47.289,14.559 z"
         style="fill:#976300;fill-opacity:1;fill-rule:evenodd;stroke:#000000;stroke-width:1.55999994;stroke-linecap:butt;stroke-linejoin:round;stroke-miterlimit:8;stroke-dasharray:none;stroke-opacity:1"
         id="path17579"
         inkscape:connector-curvature="0" /><path
         d="m 477.18,244.4 v -14.539 h 72.722 v 87.238 H 535.363 V 244.4 Z"
         style="fill:#976300;fill-opacity:1;fill-rule:evenodd;stroke:#000000;stroke-width:1.55999994;stroke-linecap:butt;stroke-linejoin:round;stroke-miterlimit:8;stroke-dasharray:none;stroke-opacity:1"
         id="path17581"
         inkscape:connector-curvature="0" /><path
         d="m 575.281,244.501 c 0,2.02 1.61,3.661 3.602,3.661 1.988,0 3.597,-1.641 3.597,-3.661 0,-2.023 -1.609,-3.66 -3.597,-3.66 -1.992,0 -3.602,1.637 -3.602,3.66 z"
         style="fill:#f81705;fill-opacity:1;fill-rule:evenodd;stroke:#f81705;stroke-width:0.72000003;stroke-linecap:butt;stroke-linejoin:round;stroke-miterlimit:8;stroke-dasharray:none;stroke-opacity:1"
         id="path17583"
         inkscape:connector-curvature="0" /><path
         d="m 331.203,288.119 240,-43.641"
         style="fill:none;stroke:#000000;stroke-width:0.95999998;stroke-linecap:butt;stroke-linejoin:miter;stroke-miterlimit:8;stroke-dasharray:3.84, 2.88;stroke-dashoffset:0;stroke-opacity:1"
         id="path17585"
         inkscape:connector-curvature="0" /><path
         d="m 334.863,287.169 33.61,-6.398 6.41,6.801 -28.422,29.179 10.809,14.387 47.433,-14.34 c -0.043,-13.258 -0.07,-26.519 -0.113,-39.777"
         style="fill:none;stroke:#006ebf;stroke-width:3;stroke-linecap:butt;stroke-linejoin:miter;stroke-miterlimit:8;stroke-dasharray:none;stroke-opacity:1"
         id="path17587"
         inkscape:connector-curvature="0" /><path
         d="m 401.223,273.599 c 0,2.02 1.64,3.66 3.66,3.66 2.019,0 3.66,-1.64 3.66,-3.66 0,-2.019 -1.641,-3.66 -3.66,-3.66 -2.02,0 -3.66,1.641 -3.66,3.66 z"
         style="fill:#ffbf00;fill-opacity:1;fill-rule:evenodd;stroke:#000000;stroke-width:1.55999994;stroke-linecap:butt;stroke-linejoin:round;stroke-miterlimit:8;stroke-dasharray:none;stroke-opacity:1"
         id="path17589"
         inkscape:connector-curvature="0" /><path
         d="m 327.961,288.119 c 0,1.992 1.641,3.601 3.66,3.601 2.02,0 3.66,-1.609 3.66,-3.601 0,-1.989 -1.64,-3.598 -3.66,-3.598 -2.019,0 -3.66,1.609 -3.66,3.598 z"
         style="fill:#45d426;fill-opacity:1;fill-rule:evenodd;stroke:#45d426;stroke-width:0.72000003;stroke-linecap:butt;stroke-linejoin:round;stroke-miterlimit:8;stroke-dasharray:none;stroke-opacity:1"
         id="path17591"
         inkscape:connector-curvature="0" /><path
         d="M 0.781,175.38 H 291.66 V 0.778 H 0.781 Z"
         style="fill:none;stroke:#000000;stroke-width:1.55999994;stroke-linecap:butt;stroke-linejoin:miter;stroke-miterlimit:8;stroke-dasharray:none;stroke-opacity:1"
         id="path17593"
         inkscape:connector-curvature="0" /><path
         d="M 44.461,131.681 73.5,102.599 58.98,88.06 V 58.978 h 43.563 v 72.703 L 55.352,146.22 Z"
         style="fill:#976300;fill-opacity:1;fill-rule:evenodd;stroke:#000000;stroke-width:1.55999994;stroke-linecap:butt;stroke-linejoin:round;stroke-miterlimit:8;stroke-dasharray:none;stroke-opacity:1"
         id="path17595"
         inkscape:connector-curvature="0" /><path
         d="M 175.262,59.001 V 44.458 h 72.84 v 87.243 h -14.571 v -72.7 z"
         style="fill:#976300;fill-opacity:1;fill-rule:evenodd;stroke:#000000;stroke-width:1.55999994;stroke-linecap:butt;stroke-linejoin:round;stroke-miterlimit:8;stroke-dasharray:none;stroke-opacity:1"
         id="path17597"
         inkscape:connector-curvature="0" /><path
         d="m 273.48,59.04 c 0,1.989 1.61,3.598 3.602,3.598 1.988,0 3.598,-1.609 3.598,-3.598 0,-1.992 -1.61,-3.601 -3.598,-3.601 -1.992,0 -3.602,1.609 -3.602,3.601 z"
         style="fill:#f81705;fill-opacity:1;fill-rule:evenodd;stroke:#f81705;stroke-width:0.72000003;stroke-linecap:butt;stroke-linejoin:round;stroke-miterlimit:8;stroke-dasharray:none;stroke-opacity:1"
         id="path17599"
         inkscape:connector-curvature="0" /><path
         d="m 29.402,102.72 240,-43.64"
         style="fill:none;stroke:#000000;stroke-width:0.95999998;stroke-linecap:butt;stroke-linejoin:miter;stroke-miterlimit:8;stroke-dasharray:3.84, 2.88;stroke-dashoffset:0;stroke-opacity:1"
         id="path17601"
         inkscape:connector-curvature="0" /><path
         d="m 33.063,101.74 33.597,-6.399 6.391,6.797 -28.391,29.203 10.801,14.399 47.402,-14.352 0.61,-42.437 125.429,-21.813"
         style="fill:none;stroke:#006ebf;stroke-width:3;stroke-linecap:butt;stroke-linejoin:miter;stroke-miterlimit:8;stroke-dasharray:none;stroke-opacity:1"
         id="path17603"
         inkscape:connector-curvature="0" /><path
         d="m 228.902,66.24 c 0,2.019 1.641,3.66 3.661,3.66 2.019,0 3.66,-1.641 3.66,-3.66 0,-2.02 -1.641,-3.66 -3.66,-3.66 -2.02,0 -3.661,1.64 -3.661,3.66 z"
         style="fill:#ffbf00;fill-opacity:1;fill-rule:evenodd;stroke:#000000;stroke-width:1.55999994;stroke-linecap:butt;stroke-linejoin:round;stroke-miterlimit:8;stroke-dasharray:none;stroke-opacity:1"
         id="path17605"
         inkscape:connector-curvature="0" /><path
         d="m 26.16,102.662 c 0,2.019 1.641,3.66 3.66,3.66 2.024,0 3.66,-1.641 3.66,-3.66 0,-2.024 -1.636,-3.661 -3.66,-3.661 -2.019,0 -3.66,1.637 -3.66,3.661 z"
         style="fill:#45d426;fill-opacity:1;fill-rule:evenodd;stroke:#45d426;stroke-width:0.72000003;stroke-linecap:butt;stroke-linejoin:round;stroke-miterlimit:8;stroke-dasharray:none;stroke-opacity:1"
         id="path17607"
         inkscape:connector-curvature="0" /><path
         d="M 302.582,175.38 H 593.461 V 0.778 H 302.582 Z"
         style="fill:none;stroke:#000000;stroke-width:1.55999994;stroke-linecap:butt;stroke-linejoin:miter;stroke-miterlimit:8;stroke-dasharray:none;stroke-opacity:1"
         id="path17609"
         inkscape:connector-curvature="0" /><path
         d="M 346.262,131.681 375.363,102.599 360.813,88.06 V 58.978 h 43.648 v 72.703 l -47.289,14.539 z"
         style="fill:#976300;fill-opacity:1;fill-rule:evenodd;stroke:#000000;stroke-width:1.55999994;stroke-linecap:butt;stroke-linejoin:round;stroke-miterlimit:8;stroke-dasharray:none;stroke-opacity:1"
         id="path17611"
         inkscape:connector-curvature="0" /><path
         d="M 477.18,59.001 V 44.458 h 72.722 v 87.243 h -14.539 v -72.7 z"
         style="fill:#976300;fill-opacity:1;fill-rule:evenodd;stroke:#000000;stroke-width:1.55999994;stroke-linecap:butt;stroke-linejoin:round;stroke-miterlimit:8;stroke-dasharray:none;stroke-opacity:1"
         id="path17613"
         inkscape:connector-curvature="0" /><path
         d="m 575.281,59.04 c 0,1.989 1.61,3.598 3.602,3.598 1.988,0 3.597,-1.609 3.597,-3.598 0,-1.992 -1.609,-3.601 -3.597,-3.601 -1.992,0 -3.602,1.609 -3.602,3.601 z"
         style="fill:#f81705;fill-opacity:1;fill-rule:evenodd;stroke:#f81705;stroke-width:0.72000003;stroke-linecap:butt;stroke-linejoin:round;stroke-miterlimit:8;stroke-dasharray:none;stroke-opacity:1"
         id="path17615"
         inkscape:connector-curvature="0" /><path
         d="m 331.203,102.72 240,-43.64"
         style="fill:none;stroke:#000000;stroke-width:0.95999998;stroke-linecap:butt;stroke-linejoin:miter;stroke-miterlimit:8;stroke-dasharray:3.84, 2.88;stroke-dashoffset:0;stroke-opacity:1"
         id="path17617"
         inkscape:connector-curvature="0" /><path
         d="m 334.863,101.728 33.598,-6.398 6.41,6.8 -28.41,29.211 10.801,14.399 47.418,-14.352 0.613,-42.449 130.199,-23.117 c -0.222,22.019 -0.441,44.047 -0.66,66.066 H 550.02 C 549.98,110.08 549.953,88.279 549.91,66.47"
         style="fill:none;stroke:#006ebf;stroke-width:3;stroke-linecap:butt;stroke-linejoin:miter;stroke-miterlimit:8;stroke-dasharray:none;stroke-opacity:1"
         id="path17619"
         inkscape:connector-curvature="0" /><path
         d="m 547.742,62.638 c 0,2.024 1.641,3.66 3.66,3.66 2.02,0 3.661,-1.636 3.661,-3.66 0,-2.019 -1.641,-3.66 -3.661,-3.66 -2.019,0 -3.66,1.641 -3.66,3.66 z"
         style="fill:#ffbf00;fill-opacity:1;fill-rule:evenodd;stroke:#000000;stroke-width:1.55999994;stroke-linecap:butt;stroke-linejoin:round;stroke-miterlimit:8;stroke-dasharray:none;stroke-opacity:1"
         id="path17621"
         inkscape:connector-curvature="0" /><path
         d="m 327.961,102.662 c 0,2.019 1.641,3.66 3.66,3.66 2.02,0 3.66,-1.641 3.66,-3.66 0,-2.024 -1.64,-3.661 -3.66,-3.661 -2.019,0 -3.66,1.637 -3.66,3.661 z"
         style="fill:#45d426;fill-opacity:1;fill-rule:evenodd;stroke:#45d426;stroke-width:0.72000003;stroke-linecap:butt;stroke-linejoin:round;stroke-miterlimit:8;stroke-dasharray:none;stroke-opacity:1"
         id="path17623"
         inkscape:connector-curvature="0" /><path
         d="m 17.117,340.505 c 0,-0.105 -0.012,-0.199 -0.031,-0.281 -0.012,-0.074 -0.031,-0.137 -0.063,-0.187 -0.031,-0.043 -0.07,-0.075 -0.109,-0.094 -0.031,-0.024 -0.07,-0.031 -0.109,-0.031 h -5.938 c -0.043,0 -0.086,0.007 -0.125,0.031 -0.031,0.019 -0.062,0.051 -0.094,0.094 -0.031,0.05 -0.058,0.113 -0.078,0.187 -0.011,0.082 -0.015,0.176 -0.015,0.281 0,0.102 0.004,0.192 0.015,0.266 0.02,0.082 0.039,0.148 0.063,0.203 0.031,0.051 0.062,0.086 0.094,0.109 0.039,0.032 0.086,0.047 0.14,0.047 h 2.375 v 8.641 l -2.203,-1.313 c -0.105,-0.054 -0.195,-0.089 -0.266,-0.109 -0.062,-0.012 -0.117,0.004 -0.156,0.047 -0.043,0.039 -0.074,0.101 -0.094,0.187 -0.011,0.094 -0.015,0.207 -0.015,0.344 0,0.094 0.004,0.176 0.015,0.25 0.008,0.07 0.02,0.129 0.032,0.172 0.019,0.051 0.047,0.094 0.078,0.125 0.031,0.031 0.07,0.066 0.125,0.109 l 2.625,1.672 c 0.019,0.02 0.047,0.035 0.078,0.047 0.039,0.008 0.086,0.02 0.141,0.031 0.05,0.008 0.109,0.016 0.171,0.016 0.071,0.008 0.165,0.016 0.282,0.016 0.133,0 0.25,-0.008 0.343,-0.016 0.094,-0.012 0.165,-0.027 0.219,-0.047 0.051,-0.023 0.086,-0.047 0.11,-0.078 0.019,-0.031 0.031,-0.07 0.031,-0.109 v -9.985 h 2.047 c 0.05,0 0.097,-0.015 0.14,-0.047 0.039,-0.023 0.071,-0.058 0.094,-0.109 0.031,-0.055 0.051,-0.121 0.063,-0.203 0.007,-0.074 0.015,-0.164 0.015,-0.266 z"
         style="fill:#000000;fill-opacity:1;fill-rule:nonzero;stroke:none"
         id="path17625"
         inkscape:connector-curvature="0" /><path
         d="m 21.316,340.865 c 0,-0.418 -0.074,-0.696 -0.218,-0.828 -0.137,-0.133 -0.383,-0.204 -0.735,-0.204 -0.355,0 -0.601,0.071 -0.734,0.204 -0.137,0.132 -0.203,0.406 -0.203,0.812 0,0.414 0.066,0.691 0.203,0.828 0.133,0.133 0.383,0.203 0.75,0.203 0.351,0 0.598,-0.07 0.734,-0.203 0.133,-0.137 0.203,-0.406 0.203,-0.812 z"
         style="fill:#000000;fill-opacity:1;fill-rule:nonzero;stroke:none"
         id="path17627"
         inkscape:connector-curvature="0" /><path
         d="m 320.266,340.568 c 0,-0.106 -0.012,-0.199 -0.032,-0.281 -0.011,-0.086 -0.031,-0.157 -0.062,-0.219 -0.024,-0.055 -0.059,-0.094 -0.109,-0.125 -0.043,-0.024 -0.09,-0.031 -0.141,-0.031 h -6.281 c -0.086,0 -0.157,0.007 -0.219,0.031 -0.055,0.019 -0.106,0.051 -0.156,0.094 -0.043,0.05 -0.075,0.117 -0.094,0.203 -0.024,0.093 -0.031,0.203 -0.031,0.328 0,0.113 0.004,0.211 0.015,0.297 0.008,0.093 0.024,0.172 0.047,0.234 0.031,0.07 0.067,0.141 0.11,0.203 0.05,0.07 0.113,0.149 0.187,0.235 l 2.203,2.328 c 0.508,0.539 0.914,1.023 1.219,1.453 0.312,0.426 0.551,0.816 0.719,1.172 0.164,0.351 0.273,0.672 0.328,0.953 0.051,0.289 0.078,0.562 0.078,0.812 0,0.25 -0.043,0.485 -0.125,0.703 -0.086,0.227 -0.203,0.426 -0.359,0.594 -0.157,0.176 -0.356,0.313 -0.594,0.406 -0.231,0.102 -0.496,0.157 -0.797,0.157 -0.356,0 -0.68,-0.055 -0.969,-0.157 -0.281,-0.093 -0.531,-0.203 -0.75,-0.328 -0.211,-0.117 -0.387,-0.226 -0.531,-0.328 -0.137,-0.094 -0.242,-0.14 -0.313,-0.14 -0.043,0 -0.078,0.007 -0.109,0.031 -0.031,0.031 -0.059,0.07 -0.078,0.125 -0.024,0.051 -0.039,0.117 -0.047,0.203 -0.012,0.094 -0.016,0.203 -0.016,0.328 v 0.219 c 0.008,0.062 0.02,0.113 0.032,0.156 0.019,0.051 0.039,0.098 0.062,0.141 0.02,0.039 0.067,0.093 0.141,0.156 0.07,0.062 0.191,0.144 0.359,0.25 0.176,0.101 0.395,0.207 0.656,0.312 0.258,0.102 0.547,0.192 0.86,0.266 0.312,0.07 0.64,0.109 0.984,0.109 0.551,0 1.031,-0.078 1.438,-0.234 0.414,-0.156 0.757,-0.371 1.031,-0.641 0.281,-0.273 0.488,-0.589 0.625,-0.953 0.133,-0.355 0.203,-0.73 0.203,-1.125 0,-0.367 -0.039,-0.73 -0.109,-1.093 -0.063,-0.356 -0.2,-0.747 -0.407,-1.172 -0.211,-0.418 -0.511,-0.883 -0.906,-1.391 -0.387,-0.512 -0.906,-1.102 -1.562,-1.766 l -1.797,-1.89 h 4.953 c 0.039,0 0.082,-0.016 0.125,-0.047 0.051,-0.024 0.094,-0.059 0.125,-0.109 0.031,-0.055 0.051,-0.122 0.062,-0.204 0.02,-0.074 0.032,-0.164 0.032,-0.265 z"
         style="fill:#000000;fill-opacity:1;fill-rule:nonzero;stroke:none"
         id="path17629"
         inkscape:connector-curvature="0" /><path
         d="m 324.48,340.865 c 0,-0.418 -0.074,-0.696 -0.218,-0.828 -0.137,-0.133 -0.383,-0.204 -0.735,-0.204 -0.355,0 -0.601,0.071 -0.734,0.204 -0.137,0.132 -0.203,0.406 -0.203,0.812 0,0.414 0.066,0.691 0.203,0.828 0.133,0.133 0.383,0.203 0.75,0.203 0.352,0 0.598,-0.07 0.734,-0.203 0.133,-0.137 0.203,-0.406 0.203,-0.812 z"
         style="fill:#000000;fill-opacity:1;fill-rule:nonzero;stroke:none"
         id="path17631"
         inkscape:connector-curvature="0" /><path
         d="m 17.008,157.431 c 0,-0.523 -0.094,-0.992 -0.281,-1.406 -0.18,-0.418 -0.438,-0.778 -0.782,-1.078 -0.336,-0.305 -0.75,-0.539 -1.25,-0.703 -0.5,-0.157 -1.062,-0.235 -1.687,-0.235 -0.375,0 -0.731,0.031 -1.063,0.094 -0.336,0.062 -0.632,0.133 -0.89,0.219 -0.25,0.082 -0.465,0.172 -0.641,0.265 -0.168,0.094 -0.273,0.16 -0.312,0.203 -0.043,0.04 -0.079,0.082 -0.11,0.125 -0.023,0.04 -0.043,0.086 -0.062,0.141 -0.012,0.063 -0.024,0.133 -0.032,0.219 -0.011,0.082 -0.015,0.187 -0.015,0.312 0,0.207 0.019,0.352 0.062,0.438 0.039,0.082 0.098,0.125 0.172,0.125 0.051,0 0.156,-0.047 0.313,-0.141 0.156,-0.094 0.351,-0.199 0.593,-0.312 0.25,-0.106 0.536,-0.203 0.86,-0.297 0.32,-0.094 0.68,-0.141 1.078,-0.141 0.394,0 0.738,0.047 1.031,0.141 0.289,0.101 0.535,0.242 0.735,0.422 0.195,0.187 0.343,0.406 0.437,0.656 0.102,0.25 0.156,0.519 0.156,0.812 0,0.321 -0.062,0.614 -0.187,0.875 -0.125,0.258 -0.313,0.485 -0.563,0.672 -0.242,0.188 -0.539,0.328 -0.89,0.422 -0.356,0.102 -0.758,0.156 -1.203,0.156 h -1.079 c -0.054,0 -0.101,0.008 -0.14,0.032 -0.043,0.019 -0.078,0.05 -0.11,0.093 -0.031,0.051 -0.058,0.114 -0.078,0.188 -0.023,0.07 -0.031,0.172 -0.031,0.297 0,0.113 0.004,0.207 0.016,0.281 0.019,0.07 0.047,0.129 0.078,0.172 0.031,0.039 0.066,0.07 0.109,0.094 0.039,0.019 0.086,0.031 0.141,0.031 h 1 c 0.383,0 0.726,0.047 1.031,0.141 0.313,0.101 0.57,0.25 0.781,0.437 0.219,0.188 0.383,0.41 0.5,0.672 0.114,0.258 0.172,0.551 0.172,0.875 0,0.238 -0.043,0.461 -0.125,0.672 -0.074,0.219 -0.187,0.406 -0.344,0.562 -0.148,0.157 -0.339,0.282 -0.578,0.375 -0.242,0.094 -0.511,0.141 -0.812,0.141 -0.344,0 -0.664,-0.055 -0.953,-0.156 -0.282,-0.106 -0.532,-0.215 -0.75,-0.328 -0.219,-0.118 -0.403,-0.227 -0.547,-0.329 -0.149,-0.105 -0.25,-0.156 -0.313,-0.156 -0.043,0 -0.078,0.004 -0.109,0.016 -0.031,0.019 -0.059,0.051 -0.078,0.094 -0.024,0.039 -0.039,0.097 -0.047,0.171 -0.012,0.082 -0.016,0.192 -0.016,0.329 v 0.218 c 0.008,0.071 0.024,0.133 0.047,0.188 0.02,0.051 0.039,0.094 0.063,0.125 0.019,0.039 0.054,0.086 0.109,0.14 0.063,0.063 0.176,0.145 0.344,0.25 0.176,0.102 0.383,0.207 0.625,0.313 0.25,0.102 0.535,0.191 0.859,0.266 0.332,0.07 0.688,0.109 1.063,0.109 0.519,0 0.976,-0.07 1.375,-0.203 0.406,-0.137 0.738,-0.328 1,-0.578 0.269,-0.25 0.468,-0.547 0.593,-0.891 0.133,-0.336 0.204,-0.711 0.204,-1.125 0,-0.367 -0.047,-0.703 -0.141,-1.016 -0.094,-0.304 -0.231,-0.574 -0.406,-0.812 -0.18,-0.231 -0.403,-0.43 -0.672,-0.594 -0.262,-0.168 -0.563,-0.281 -0.906,-0.344 v -0.031 c 0.382,-0.043 0.738,-0.14 1.062,-0.297 0.332,-0.148 0.613,-0.34 0.844,-0.578 0.238,-0.23 0.422,-0.508 0.547,-0.828 0.133,-0.312 0.203,-0.648 0.203,-1 z"
         style="fill:#000000;fill-opacity:1;fill-rule:nonzero;stroke:none"
         id="path17633"
         inkscape:connector-curvature="0" /><path
         d="m 21.316,155.134 c 0,-0.418 -0.074,-0.695 -0.218,-0.828 -0.137,-0.133 -0.383,-0.203 -0.735,-0.203 -0.355,0 -0.601,0.07 -0.734,0.203 -0.137,0.133 -0.203,0.406 -0.203,0.813 0,0.414 0.066,0.691 0.203,0.828 0.133,0.133 0.383,0.203 0.75,0.203 0.351,0 0.598,-0.07 0.734,-0.203 0.133,-0.137 0.203,-0.407 0.203,-0.813 z"
         style="fill:#000000;fill-opacity:1;fill-rule:nonzero;stroke:none"
         id="path17635"
         inkscape:connector-curvature="0" /><path
         d="m 317.949,157.415 c 0,-0.199 -0.031,-0.355 -0.094,-0.468 -0.062,-0.106 -0.148,-0.157 -0.25,-0.157 h -1.281 v -2.39 c 0,-0.043 -0.011,-0.086 -0.031,-0.125 -0.023,-0.031 -0.063,-0.059 -0.125,-0.078 -0.063,-0.02 -0.141,-0.035 -0.234,-0.047 -0.094,-0.008 -0.215,-0.016 -0.36,-0.016 -0.136,0 -0.25,0.008 -0.344,0.016 -0.093,0.012 -0.171,0.027 -0.234,0.047 -0.055,0.019 -0.09,0.047 -0.109,0.078 -0.024,0.039 -0.032,0.082 -0.032,0.125 v 2.39 h -4.687 c -0.074,0 -0.137,0.004 -0.188,0.016 -0.042,0.02 -0.085,0.051 -0.125,0.094 -0.031,0.051 -0.058,0.117 -0.078,0.203 -0.011,0.094 -0.015,0.211 -0.015,0.359 v 0.297 c 0.008,0.082 0.023,0.16 0.047,0.235 0.019,0.07 0.039,0.14 0.062,0.203 0.031,0.07 0.067,0.148 0.109,0.234 l 4.094,6.906 c 0.031,0.039 0.071,0.078 0.125,0.11 0.063,0.039 0.133,0.07 0.219,0.093 0.094,0.032 0.203,0.047 0.328,0.047 0.125,0.008 0.274,0.016 0.453,0.016 0.196,0 0.364,-0.012 0.5,-0.031 0.145,-0.012 0.258,-0.028 0.344,-0.047 0.094,-0.024 0.16,-0.055 0.203,-0.094 0.051,-0.031 0.078,-0.074 0.078,-0.125 v -7.266 h 1.281 c 0.102,0 0.188,-0.054 0.25,-0.156 0.063,-0.105 0.094,-0.262 0.094,-0.469 z m -3.094,6.86 h -0.015 l -3.703,-6.235 h 3.718 z"
         style="fill:#000000;fill-opacity:1;fill-rule:nonzero;stroke:none"
         id="path17637"
         inkscape:connector-curvature="0" /><path
         d="m 321.68,155.134 c 0,-0.418 -0.075,-0.695 -0.219,-0.828 -0.137,-0.133 -0.383,-0.203 -0.734,-0.203 -0.356,0 -0.602,0.07 -0.735,0.203 -0.137,0.133 -0.203,0.406 -0.203,0.813 0,0.414 0.066,0.691 0.203,0.828 0.133,0.133 0.383,0.203 0.75,0.203 0.352,0 0.598,-0.07 0.735,-0.203 0.132,-0.137 0.203,-0.407 0.203,-0.813 z"
         style="fill:#000000;fill-opacity:1;fill-rule:nonzero;stroke:none"
         id="path17639"
         inkscape:connector-curvature="0" /></g></g></svg>