<?xml version="1.0" encoding="UTF-8" standalone="no"?>
<!-- Created with Inkscape (http://www.inkscape.org/) -->

<svg
   xmlns:dc="http://purl.org/dc/elements/1.1/"
   xmlns:cc="http://creativecommons.org/ns#"
   xmlns:rdf="http://www.w3.org/1999/02/22-rdf-syntax-ns#"
   xmlns:svg="http://www.w3.org/2000/svg"
   xmlns="http://www.w3.org/2000/svg"
   xmlns:sodipodi="http://sodipodi.sourceforge.net/DTD/sodipodi-0.dtd"
   xmlns:inkscape="http://www.inkscape.org/namespaces/inkscape"
   version="1.1"
   id="svg22319"
   xml:space="preserve"
   width="698.56"
   height="189.12"
   viewBox="0 0 698.56 189.12"
   sodipodi:docname="bugtrap.svg"
   inkscape:version="0.92.3 (2405546, 2018-03-11)"><metadata
     id="metadata22325"><rdf:RDF><cc:Work
         rdf:about=""><dc:format>image/svg+xml</dc:format><dc:type
           rdf:resource="http://purl.org/dc/dcmitype/StillImage" /><dc:title></dc:title></cc:Work></rdf:RDF></metadata><defs
     id="defs22323" /><sodipodi:namedview
     pagecolor="#ffffff"
     bordercolor="#666666"
     borderopacity="1"
     objecttolerance="10"
     gridtolerance="10"
     guidetolerance="10"
     inkscape:pageopacity="0"
     inkscape:pageshadow="2"
     inkscape:window-width="909"
     inkscape:window-height="480"
     id="namedview22321"
     showgrid="false"
     inkscape:zoom="0.48528401"
     inkscape:cx="349.28"
     inkscape:cy="94.559998"
     inkscape:window-x="0"
     inkscape:window-y="0"
     inkscape:window-maximized="0"
     inkscape:current-layer="g22327" /><g
     id="g22327"
     inkscape:groupmode="layer"
     inkscape:label="bugtrap"
     transform="matrix(1.3333333,0,0,-1.3333333,0,189.11999)"><g
       id="g22329"><path
         d="m 69.84,73.32 -3.988,15.981 -13.411,12.34"
         style="fill:none;stroke:#000000;stroke-width:0.95999998;stroke-linecap:butt;stroke-linejoin:miter;stroke-miterlimit:10;stroke-dasharray:none;stroke-opacity:1"
         id="path22331"
         inkscape:connector-curvature="0" /><path
         d="M 69.84,74.039 56.75,73.32 42.941,82.371 27.719,87.602"
         style="fill:none;stroke:#000000;stroke-width:0.95999998;stroke-linecap:butt;stroke-linejoin:miter;stroke-miterlimit:10;stroke-dasharray:none;stroke-opacity:1"
         id="path22333"
         inkscape:connector-curvature="0" /><path
         d="M 56.762,73.32 48.43,61.61 31.68,58.199"
         style="fill:none;stroke:#000000;stroke-width:0.95999998;stroke-linecap:butt;stroke-linejoin:miter;stroke-miterlimit:10;stroke-dasharray:none;stroke-opacity:1"
         id="path22335"
         inkscape:connector-curvature="0" /><path
         d="M 38.281,66.121 49.078,61.25 40.801,50.762"
         style="fill:none;stroke:#000000;stroke-width:0.95999998;stroke-linecap:butt;stroke-linejoin:miter;stroke-miterlimit:10;stroke-dasharray:none;stroke-opacity:1"
         id="path22337"
         inkscape:connector-curvature="0" /><path
         d="M 69.48,74.399 66.238,63.84 64.441,52.559"
         style="fill:none;stroke:#000000;stroke-width:0.95999998;stroke-linecap:butt;stroke-linejoin:miter;stroke-miterlimit:10;stroke-dasharray:none;stroke-opacity:1"
         id="path22339"
         inkscape:connector-curvature="0" /><path
         d="M 69.48,73.32 75.719,63.121"
         style="fill:none;stroke:#000000;stroke-width:0.95999998;stroke-linecap:butt;stroke-linejoin:miter;stroke-miterlimit:10;stroke-dasharray:none;stroke-opacity:1"
         id="path22341"
         inkscape:connector-curvature="0" /><path
         d="m 69.48,74.039 4.801,9.84"
         style="fill:none;stroke:#000000;stroke-width:0.95999998;stroke-linecap:butt;stroke-linejoin:miter;stroke-miterlimit:10;stroke-dasharray:none;stroke-opacity:1"
         id="path22343"
         inkscape:connector-curvature="0" /><path
         d="m 65.16,90 4.68,5.399"
         style="fill:none;stroke:#000000;stroke-width:0.95999998;stroke-linecap:butt;stroke-linejoin:miter;stroke-miterlimit:10;stroke-dasharray:none;stroke-opacity:1"
         id="path22345"
         inkscape:connector-curvature="0" /><path
         d="M 0.48,141.36 H 253.441 V 0.481 H 0.48 Z"
         style="fill:none;stroke:#000000;stroke-width:0.95999998;stroke-linecap:butt;stroke-linejoin:miter;stroke-miterlimit:10;stroke-dasharray:none;stroke-opacity:1"
         id="path22347"
         inkscape:connector-curvature="0" /><path
         d="m 36.449,77.668 c -1.09,-0.637 -7.648,0.242 -10.711,1.434 -3.066,1.199 -7.488,1.859 -7.679,5.758 -0.2,3.902 -0.258,13.109 6.531,17.652 6.781,4.527 24.32,11.566 34.18,9.59 9.859,-1.992 21,-10.942 24.968,-21.492 C 87.711,80.059 90.398,57.051 82.59,48.801 74.781,40.551 48.719,38.57 36.879,41.121 25.031,43.68 21,50.012 18.441,54.942 15.879,59.86 18.48,67.5 21.512,70.66 24.551,73.828 34.648,74.168 36.629,73.91 38.621,73.66 35.75,70.949 33.422,69.129 31.09,67.309 22.73,66.762 22.672,62.988 22.602,59.219 24.07,48.539 33.039,46.5 42,44.449 68.82,44.32 76.441,50.719 c 7.618,6.391 4.68,24.871 2.309,34.141 -2.371,9.269 -9.031,18.48 -16.52,21.48 -7.492,3.012 -21.64,-0.379 -28.421,-3.449 C 27.02,99.82 22.219,91.442 21.512,87.93 c -0.703,-3.52 8.269,-3.281 10.758,-4.988 2.492,-1.711 5.269,-4.633 4.179,-5.274 z"
         style="fill:#a6a6a6;fill-opacity:1;fill-rule:evenodd;stroke:#000000;stroke-width:0.95999998;stroke-linecap:butt;stroke-linejoin:miter;stroke-miterlimit:10;stroke-dasharray:none;stroke-opacity:1"
         id="path22349"
         inkscape:connector-curvature="0" /><path
         d="m 67.559,74.34 c 0,1.09 0.972,1.98 2.16,1.98 1.191,0 2.16,-0.89 2.16,-1.98 0,-1.09 -0.969,-1.98 -2.16,-1.98 -1.188,0 -2.16,0.89 -2.16,1.98 z"
         style="fill:#00b050;fill-opacity:1;fill-rule:evenodd;stroke:#000000;stroke-width:0.95999998;stroke-linecap:square;stroke-linejoin:round;stroke-miterlimit:10;stroke-dasharray:none;stroke-opacity:1"
         id="path22351"
         inkscape:connector-curvature="0" /><path
         d="m 63.359,89.82 c 0,1.09 0.942,1.981 2.102,1.981 1.16,0 2.098,-0.891 2.098,-1.981 0,-1.089 -0.938,-1.98 -2.098,-1.98 -1.16,0 -2.102,0.891 -2.102,1.98 z"
         style="fill:#ffff00;fill-opacity:1;fill-rule:evenodd;stroke:#000000;stroke-width:0.95999998;stroke-linecap:square;stroke-linejoin:round;stroke-miterlimit:10;stroke-dasharray:none;stroke-opacity:1"
         id="path22353"
         inkscape:connector-curvature="0" /><path
         d="m 50.398,101.461 c 0,1.09 0.973,1.981 2.161,1.981 1.191,0 2.16,-0.891 2.16,-1.981 0,-1.09 -0.969,-1.98 -2.16,-1.98 -1.188,0 -2.161,0.89 -2.161,1.98 z"
         style="fill:#ffff00;fill-opacity:1;fill-rule:evenodd;stroke:#000000;stroke-width:0.95999998;stroke-linecap:square;stroke-linejoin:round;stroke-miterlimit:10;stroke-dasharray:none;stroke-opacity:1"
         id="path22355"
         inkscape:connector-curvature="0" /><path
         d="m 71.879,82.86 c 0,1.089 0.941,1.98 2.101,1.98 1.161,0 2.098,-0.891 2.098,-1.98 0,-1.09 -0.937,-1.981 -2.098,-1.981 -1.16,0 -2.101,0.891 -2.101,1.981 z"
         style="fill:#ffff00;fill-opacity:1;fill-rule:evenodd;stroke:#000000;stroke-width:0.95999998;stroke-linecap:square;stroke-linejoin:round;stroke-miterlimit:10;stroke-dasharray:none;stroke-opacity:1"
         id="path22357"
         inkscape:connector-curvature="0" /><path
         d="m 67.559,95.219 c 0,1.09 0.972,1.98 2.16,1.98 1.191,0 2.16,-0.89 2.16,-1.98 0,-1.09 -0.969,-1.981 -2.16,-1.981 -1.188,0 -2.16,0.891 -2.16,1.981 z"
         style="fill:#ffff00;fill-opacity:1;fill-rule:evenodd;stroke:#000000;stroke-width:0.95999998;stroke-linecap:square;stroke-linejoin:round;stroke-miterlimit:10;stroke-dasharray:none;stroke-opacity:1"
         id="path22359"
         inkscape:connector-curvature="0" /><path
         d="m 74.039,63.059 c 0,1.09 0.941,1.98 2.102,1.98 1.16,0 2.097,-0.89 2.097,-1.98 0,-1.09 -0.937,-1.981 -2.097,-1.981 -1.161,0 -2.102,0.891 -2.102,1.981 z"
         style="fill:#ffff00;fill-opacity:1;fill-rule:evenodd;stroke:#000000;stroke-width:0.95999998;stroke-linecap:square;stroke-linejoin:round;stroke-miterlimit:10;stroke-dasharray:none;stroke-opacity:1"
         id="path22361"
         inkscape:connector-curvature="0" /><path
         d="m 54.719,73.141 c 0,1.09 0.941,1.98 2.101,1.98 1.16,0 2.102,-0.89 2.102,-1.98 0,-1.09 -0.942,-1.981 -2.102,-1.981 -1.16,0 -2.101,0.891 -2.101,1.981 z"
         style="fill:#ffff00;fill-opacity:1;fill-rule:evenodd;stroke:#000000;stroke-width:0.95999998;stroke-linecap:square;stroke-linejoin:round;stroke-miterlimit:10;stroke-dasharray:none;stroke-opacity:1"
         id="path22363"
         inkscape:connector-curvature="0" /><path
         d="m 46.199,61.621 c 0,1.09 0.942,1.981 2.102,1.981 1.16,0 2.097,-0.891 2.097,-1.981 0,-1.09 -0.937,-1.98 -2.097,-1.98 -1.16,0 -2.102,0.89 -2.102,1.98 z"
         style="fill:#ffff00;fill-opacity:1;fill-rule:evenodd;stroke:#000000;stroke-width:0.95999998;stroke-linecap:square;stroke-linejoin:round;stroke-miterlimit:10;stroke-dasharray:none;stroke-opacity:1"
         id="path22365"
         inkscape:connector-curvature="0" /><path
         d="m 40.441,82.621 c 0,1.09 0.938,1.981 2.098,1.981 1.16,0 2.102,-0.891 2.102,-1.981 0,-1.09 -0.942,-1.98 -2.102,-1.98 -1.16,0 -2.098,0.89 -2.098,1.98 z"
         style="fill:#ffff00;fill-opacity:1;fill-rule:evenodd;stroke:#000000;stroke-width:0.95999998;stroke-linecap:square;stroke-linejoin:round;stroke-miterlimit:10;stroke-dasharray:none;stroke-opacity:1"
         id="path22367"
         inkscape:connector-curvature="0" /><path
         d="m 25.68,87.781 c 0,1.09 0.968,1.981 2.16,1.981 1.191,0 2.16,-0.891 2.16,-1.981 0,-1.089 -0.969,-1.98 -2.16,-1.98 -1.192,0 -2.16,0.891 -2.16,1.98 z"
         style="fill:#ffff00;fill-opacity:1;fill-rule:evenodd;stroke:#000000;stroke-width:0.95999998;stroke-linecap:square;stroke-linejoin:round;stroke-miterlimit:10;stroke-dasharray:none;stroke-opacity:1"
         id="path22369"
         inkscape:connector-curvature="0" /><path
         d="m 29.762,57.66 c 0,1.09 0.937,1.981 2.097,1.981 1.161,0 2.102,-0.891 2.102,-1.981 0,-1.09 -0.941,-1.98 -2.102,-1.98 -1.16,0 -2.097,0.89 -2.097,1.98 z"
         style="fill:#ffff00;fill-opacity:1;fill-rule:evenodd;stroke:#000000;stroke-width:0.95999998;stroke-linecap:square;stroke-linejoin:round;stroke-miterlimit:10;stroke-dasharray:none;stroke-opacity:1"
         id="path22371"
         inkscape:connector-curvature="0" /><path
         d="m 38.281,51.059 c 0,1.09 0.969,1.98 2.16,1.98 1.188,0 2.161,-0.89 2.161,-1.98 0,-1.09 -0.973,-1.981 -2.161,-1.981 -1.191,0 -2.16,0.891 -2.16,1.981 z"
         style="fill:#ffff00;fill-opacity:1;fill-rule:evenodd;stroke:#000000;stroke-width:0.95999998;stroke-linecap:square;stroke-linejoin:round;stroke-miterlimit:10;stroke-dasharray:none;stroke-opacity:1"
         id="path22373"
         inkscape:connector-curvature="0" /><path
         d="m 61.922,52.981 c 0,1.089 0.969,1.98 2.156,1.98 1.192,0 2.16,-0.891 2.16,-1.98 0,-1.09 -0.968,-1.981 -2.16,-1.981 -1.187,0 -2.156,0.891 -2.156,1.981 z"
         style="fill:#ffff00;fill-opacity:1;fill-rule:evenodd;stroke:#000000;stroke-width:0.95999998;stroke-linecap:square;stroke-linejoin:round;stroke-miterlimit:10;stroke-dasharray:none;stroke-opacity:1"
         id="path22375"
         inkscape:connector-curvature="0" /><path
         d="m 64.68,63.66 c 0,1.09 0.941,1.981 2.101,1.981 1.16,0 2.098,-0.891 2.098,-1.981 0,-1.09 -0.938,-1.98 -2.098,-1.98 -1.16,0 -2.101,0.89 -2.101,1.98 z"
         style="fill:#ffff00;fill-opacity:1;fill-rule:evenodd;stroke:#000000;stroke-width:0.95999998;stroke-linecap:square;stroke-linejoin:round;stroke-miterlimit:10;stroke-dasharray:none;stroke-opacity:1"
         id="path22377"
         inkscape:connector-curvature="0" /><path
         d="m 36.238,66.66 c 0,1.09 0.942,1.981 2.102,1.981 1.16,0 2.101,-0.891 2.101,-1.981 0,-1.09 -0.941,-1.98 -2.101,-1.98 -1.16,0 -2.102,0.89 -2.102,1.98 z"
         style="fill:#ffff00;fill-opacity:1;fill-rule:evenodd;stroke:#000000;stroke-width:0.95999998;stroke-linecap:square;stroke-linejoin:round;stroke-miterlimit:10;stroke-dasharray:none;stroke-opacity:1"
         id="path22379"
         inkscape:connector-curvature="0" /><path
         d="m 339.84,73.32 -3.988,15.981 -13.411,12.34"
         style="fill:none;stroke:#000000;stroke-width:0.95999998;stroke-linecap:butt;stroke-linejoin:miter;stroke-miterlimit:8;stroke-dasharray:none;stroke-opacity:1"
         id="path22381"
         inkscape:connector-curvature="0" /><path
         d="m 339.84,74.039 -13.09,-0.719 -13.809,9.051 -15.222,5.231"
         style="fill:none;stroke:#000000;stroke-width:0.95999998;stroke-linecap:butt;stroke-linejoin:miter;stroke-miterlimit:8;stroke-dasharray:none;stroke-opacity:1"
         id="path22383"
         inkscape:connector-curvature="0" /><path
         d="M 326.762,73.32 318.391,61.61 301.559,58.199"
         style="fill:none;stroke:#000000;stroke-width:0.95999998;stroke-linecap:butt;stroke-linejoin:miter;stroke-miterlimit:8;stroke-dasharray:none;stroke-opacity:1"
         id="path22385"
         inkscape:connector-curvature="0" /><path
         d="M 308.281,66.121 319.078,61.25 310.801,50.762"
         style="fill:none;stroke:#000000;stroke-width:0.95999998;stroke-linecap:butt;stroke-linejoin:miter;stroke-miterlimit:8;stroke-dasharray:none;stroke-opacity:1"
         id="path22387"
         inkscape:connector-curvature="0" /><path
         d="M 339.48,74.399 336.238,63.84 334.441,52.559"
         style="fill:none;stroke:#000000;stroke-width:0.95999998;stroke-linecap:butt;stroke-linejoin:miter;stroke-miterlimit:8;stroke-dasharray:none;stroke-opacity:1"
         id="path22389"
         inkscape:connector-curvature="0" /><path
         d="m 339.48,73.32 6.239,-10.199"
         style="fill:none;stroke:#000000;stroke-width:0.95999998;stroke-linecap:butt;stroke-linejoin:miter;stroke-miterlimit:8;stroke-dasharray:none;stroke-opacity:1"
         id="path22391"
         inkscape:connector-curvature="0" /><path
         d="m 339.48,74.039 4.68,9.84"
         style="fill:none;stroke:#000000;stroke-width:0.95999998;stroke-linecap:butt;stroke-linejoin:miter;stroke-miterlimit:8;stroke-dasharray:none;stroke-opacity:1"
         id="path22393"
         inkscape:connector-curvature="0" /><path
         d="m 335.16,90 4.68,5.399"
         style="fill:none;stroke:#000000;stroke-width:0.95999998;stroke-linecap:butt;stroke-linejoin:miter;stroke-miterlimit:8;stroke-dasharray:none;stroke-opacity:1"
         id="path22395"
         inkscape:connector-curvature="0" /><path
         d="M 270.359,141.36 H 523.441 V 0.481 H 270.359 Z"
         style="fill:none;stroke:#000000;stroke-width:0.95999998;stroke-linecap:butt;stroke-linejoin:miter;stroke-miterlimit:8;stroke-dasharray:none;stroke-opacity:1"
         id="path22397"
         inkscape:connector-curvature="0" /><path
         d="m 306.422,77.668 c -1.094,-0.637 -7.633,0.242 -10.703,1.434 -3.059,1.199 -7.469,1.859 -7.66,5.758 -0.2,3.902 -0.258,13.109 6.511,17.652 6.782,4.527 24.289,11.566 34.129,9.59 9.84,-1.992 20.961,-10.942 24.93,-21.492 3.961,-10.551 6.641,-33.559 -1.149,-41.809 -7.8,-8.25 -33.808,-10.231 -45.628,-7.68 -11.832,2.559 -15.852,8.891 -18.411,13.821 -2.562,4.918 0.039,12.558 3.071,15.718 3.019,3.168 13.109,3.508 15.09,3.25 1.976,-0.25 -0.883,-2.961 -3.211,-4.781 -2.321,-1.82 -10.672,-2.367 -10.731,-6.141 -0.07,-3.769 1.399,-14.449 10.352,-16.488 8.949,-2.051 35.726,-2.18 43.328,4.219 7.609,6.391 4.672,24.871 2.301,34.141 -2.36,9.269 -9.012,18.48 -16.493,21.48 -7.468,3.012 -21.597,-0.379 -28.367,-3.449 C 297,99.82 292.211,91.442 291.512,87.93 c -0.711,-3.52 8.25,-3.281 10.726,-4.988 2.492,-1.711 5.262,-4.633 4.184,-5.274 z"
         style="fill:#a6a6a6;fill-opacity:1;fill-rule:evenodd;stroke:#000000;stroke-width:0.95999998;stroke-linecap:butt;stroke-linejoin:miter;stroke-miterlimit:8;stroke-dasharray:none;stroke-opacity:1"
         id="path22399"
         inkscape:connector-curvature="0" /><path
         d="m 337.559,74.34 c 0,1.09 0.941,1.98 2.101,1.98 1.16,0 2.102,-0.89 2.102,-1.98 0,-1.09 -0.942,-1.98 -2.102,-1.98 -1.16,0 -2.101,0.89 -2.101,1.98 z"
         style="fill:#00b050;fill-opacity:1;fill-rule:evenodd;stroke:#000000;stroke-width:0.95999998;stroke-linecap:square;stroke-linejoin:round;stroke-miterlimit:8;stroke-dasharray:none;stroke-opacity:1"
         id="path22401"
         inkscape:connector-curvature="0" /><path
         d="m 333.238,89.82 c 0,1.09 0.973,1.981 2.16,1.981 1.192,0 2.161,-0.891 2.161,-1.981 0,-1.089 -0.969,-1.98 -2.161,-1.98 -1.187,0 -2.16,0.891 -2.16,1.98 z"
         style="fill:#ffff00;fill-opacity:1;fill-rule:evenodd;stroke:#000000;stroke-width:0.95999998;stroke-linecap:square;stroke-linejoin:round;stroke-miterlimit:8;stroke-dasharray:none;stroke-opacity:1"
         id="path22403"
         inkscape:connector-curvature="0" /><path
         d="m 320.398,101.461 c 0,1.09 0.942,1.981 2.102,1.981 1.16,0 2.102,-0.891 2.102,-1.981 0,-1.09 -0.942,-1.98 -2.102,-1.98 -1.16,0 -2.102,0.89 -2.102,1.98 z"
         style="fill:#5b9bd5;fill-opacity:1;fill-rule:evenodd;stroke:#000000;stroke-width:0.95999998;stroke-linecap:square;stroke-linejoin:round;stroke-miterlimit:8;stroke-dasharray:none;stroke-opacity:1"
         id="path22405"
         inkscape:connector-curvature="0" /><path
         d="m 341.762,82.86 c 0,1.089 0.968,1.98 2.16,1.98 1.187,0 2.156,-0.891 2.156,-1.98 0,-1.09 -0.969,-1.981 -2.156,-1.981 -1.192,0 -2.16,0.891 -2.16,1.981 z"
         style="fill:#5b9bd5;fill-opacity:1;fill-rule:evenodd;stroke:#000000;stroke-width:0.95999998;stroke-linecap:square;stroke-linejoin:round;stroke-miterlimit:8;stroke-dasharray:none;stroke-opacity:1"
         id="path22407"
         inkscape:connector-curvature="0" /><path
         d="m 337.559,95.219 c 0,1.09 0.941,1.98 2.101,1.98 1.16,0 2.102,-0.89 2.102,-1.98 0,-1.09 -0.942,-1.981 -2.102,-1.981 -1.16,0 -2.101,0.891 -2.101,1.981 z"
         style="fill:#5b9bd5;fill-opacity:1;fill-rule:evenodd;stroke:#000000;stroke-width:0.95999998;stroke-linecap:square;stroke-linejoin:round;stroke-miterlimit:8;stroke-dasharray:none;stroke-opacity:1"
         id="path22409"
         inkscape:connector-curvature="0" /><path
         d="m 343.922,63.059 c 0,1.09 0.969,1.98 2.156,1.98 1.192,0 2.16,-0.89 2.16,-1.98 0,-1.09 -0.968,-1.981 -2.16,-1.981 -1.187,0 -2.156,0.891 -2.156,1.981 z"
         style="fill:#5b9bd5;fill-opacity:1;fill-rule:evenodd;stroke:#000000;stroke-width:0.95999998;stroke-linecap:square;stroke-linejoin:round;stroke-miterlimit:8;stroke-dasharray:none;stroke-opacity:1"
         id="path22411"
         inkscape:connector-curvature="0" /><path
         d="m 324.602,73.141 c 0,1.09 0.968,1.98 2.16,1.98 1.187,0 2.16,-0.89 2.16,-1.98 0,-1.09 -0.973,-1.981 -2.16,-1.981 -1.192,0 -2.16,0.891 -2.16,1.981 z"
         style="fill:#ffff00;fill-opacity:1;fill-rule:evenodd;stroke:#000000;stroke-width:0.95999998;stroke-linecap:square;stroke-linejoin:round;stroke-miterlimit:8;stroke-dasharray:none;stroke-opacity:1"
         id="path22413"
         inkscape:connector-curvature="0" /><path
         d="m 316.078,61.621 c 0,1.09 0.973,1.981 2.16,1.981 1.192,0 2.16,-0.891 2.16,-1.981 0,-1.09 -0.968,-1.98 -2.16,-1.98 -1.187,0 -2.16,0.89 -2.16,1.98 z"
         style="fill:#ffff00;fill-opacity:1;fill-rule:evenodd;stroke:#000000;stroke-width:0.95999998;stroke-linecap:square;stroke-linejoin:round;stroke-miterlimit:8;stroke-dasharray:none;stroke-opacity:1"
         id="path22415"
         inkscape:connector-curvature="0" /><path
         d="m 310.32,82.621 c 0,1.09 0.969,1.981 2.16,1.981 1.192,0 2.161,-0.891 2.161,-1.981 0,-1.09 -0.969,-1.98 -2.161,-1.98 -1.191,0 -2.16,0.89 -2.16,1.98 z"
         style="fill:#ffff00;fill-opacity:1;fill-rule:evenodd;stroke:#000000;stroke-width:0.95999998;stroke-linecap:square;stroke-linejoin:round;stroke-miterlimit:8;stroke-dasharray:none;stroke-opacity:1"
         id="path22417"
         inkscape:connector-curvature="0" /><path
         d="m 295.68,87.781 c 0,1.09 0.941,1.981 2.101,1.981 1.16,0 2.098,-0.891 2.098,-1.981 0,-1.089 -0.938,-1.98 -2.098,-1.98 -1.16,0 -2.101,0.891 -2.101,1.98 z"
         style="fill:#5b9bd5;fill-opacity:1;fill-rule:evenodd;stroke:#000000;stroke-width:0.95999998;stroke-linecap:square;stroke-linejoin:round;stroke-miterlimit:8;stroke-dasharray:none;stroke-opacity:1"
         id="path22419"
         inkscape:connector-curvature="0" /><path
         d="m 299.641,57.66 c 0,1.09 0.968,1.981 2.16,1.981 1.187,0 2.16,-0.891 2.16,-1.981 0,-1.09 -0.973,-1.98 -2.16,-1.98 -1.192,0 -2.16,0.89 -2.16,1.98 z"
         style="fill:#5b9bd5;fill-opacity:1;fill-rule:evenodd;stroke:#000000;stroke-width:0.95999998;stroke-linecap:square;stroke-linejoin:round;stroke-miterlimit:8;stroke-dasharray:none;stroke-opacity:1"
         id="path22421"
         inkscape:connector-curvature="0" /><path
         d="m 308.281,51.059 c 0,1.09 0.938,1.98 2.098,1.98 1.16,0 2.101,-0.89 2.101,-1.98 0,-1.09 -0.941,-1.981 -2.101,-1.981 -1.16,0 -2.098,0.891 -2.098,1.981 z"
         style="fill:#5b9bd5;fill-opacity:1;fill-rule:evenodd;stroke:#000000;stroke-width:0.95999998;stroke-linecap:square;stroke-linejoin:round;stroke-miterlimit:8;stroke-dasharray:none;stroke-opacity:1"
         id="path22423"
         inkscape:connector-curvature="0" /><path
         d="m 331.922,52.981 c 0,1.089 0.937,1.98 2.098,1.98 1.16,0 2.101,-0.891 2.101,-1.98 0,-1.09 -0.941,-1.981 -2.101,-1.981 -1.161,0 -2.098,0.891 -2.098,1.981 z"
         style="fill:#5b9bd5;fill-opacity:1;fill-rule:evenodd;stroke:#000000;stroke-width:0.95999998;stroke-linecap:square;stroke-linejoin:round;stroke-miterlimit:8;stroke-dasharray:none;stroke-opacity:1"
         id="path22425"
         inkscape:connector-curvature="0" /><path
         d="m 334.559,63.66 c 0,1.09 0.972,1.981 2.16,1.981 1.191,0 2.16,-0.891 2.16,-1.981 0,-1.09 -0.969,-1.98 -2.16,-1.98 -1.188,0 -2.16,0.89 -2.16,1.98 z"
         style="fill:#ffff00;fill-opacity:1;fill-rule:evenodd;stroke:#000000;stroke-width:0.95999998;stroke-linecap:square;stroke-linejoin:round;stroke-miterlimit:8;stroke-dasharray:none;stroke-opacity:1"
         id="path22427"
         inkscape:connector-curvature="0" /><path
         d="M 494.73,141.238 340.969,88.57 336.238,81.309 350.422,73.68 523.078,86.031"
         style="fill:none;stroke:#0070c0;stroke-width:0.72000003;stroke-linecap:butt;stroke-linejoin:miter;stroke-miterlimit:8;stroke-dasharray:none;stroke-opacity:1"
         id="path22429"
         inkscape:connector-curvature="0" /><path
         d="m 349.648,73.68 -8.726,-6.539 V 56.949 L 402,0.961"
         style="fill:none;stroke:#0070c0;stroke-width:0.72000003;stroke-linecap:butt;stroke-linejoin:miter;stroke-miterlimit:8;stroke-dasharray:none;stroke-opacity:1"
         id="path22431"
         inkscape:connector-curvature="0" /><path
         d="m 340.59,88.918 -9.149,7.723 15,44.238"
         style="fill:none;stroke:#0070c0;stroke-width:0.72000003;stroke-linecap:butt;stroke-linejoin:miter;stroke-miterlimit:8;stroke-dasharray:none;stroke-opacity:1"
         id="path22433"
         inkscape:connector-curvature="0" /><path
         d="m 331.441,97.192 -8.293,-6.473 -14.476,6.262 -16.113,43.898"
         style="fill:none;stroke:#0070c0;stroke-width:0.72000003;stroke-linecap:butt;stroke-linejoin:miter;stroke-miterlimit:8;stroke-dasharray:none;stroke-opacity:1"
         id="path22435"
         inkscape:connector-curvature="0" /><path
         d="m 335.52,81.602 -1.801,-11.262 7.203,-2.539"
         style="fill:none;stroke:#0070c0;stroke-width:0.72000003;stroke-linecap:butt;stroke-linejoin:miter;stroke-miterlimit:8;stroke-dasharray:none;stroke-opacity:1"
         id="path22437"
         inkscape:connector-curvature="0" /><path
         d="m 333.648,69.961 -5.089,-4.359 v -6.543 l 12.363,-2.539"
         style="fill:none;stroke:#0070c0;stroke-width:0.72000003;stroke-linecap:butt;stroke-linejoin:miter;stroke-miterlimit:8;stroke-dasharray:none;stroke-opacity:1"
         id="path22439"
         inkscape:connector-curvature="0" /><path
         d="m 328.559,59.039 -6.84,-4.719 7.562,-53.718"
         style="fill:none;stroke:#0070c0;stroke-width:0.72000003;stroke-linecap:butt;stroke-linejoin:miter;stroke-miterlimit:8;stroke-dasharray:none;stroke-opacity:1"
         id="path22441"
         inkscape:connector-curvature="0" /><path
         d="m 322.441,53.629 c -3.371,1.41 -7.312,5.082 -10.679,6.492 L 308.691,59.602 270,1.559"
         style="fill:none;stroke:#0070c0;stroke-width:0.72000003;stroke-linecap:butt;stroke-linejoin:miter;stroke-miterlimit:8;stroke-dasharray:none;stroke-opacity:1"
         id="path22443"
         inkscape:connector-curvature="0" /><path
         d="M 309,96.961 299.961,76.828 289.969,70.61 270.961,68.762"
         style="fill:none;stroke:#0070c0;stroke-width:0.72000003;stroke-linecap:butt;stroke-linejoin:miter;stroke-miterlimit:8;stroke-dasharray:none;stroke-opacity:1"
         id="path22445"
         inkscape:connector-curvature="0" /><path
         d="m 289.32,70.199 c 0.86,1.082 18.68,-11.937 19.539,-10.859 1.039,1.32 1.789,0.102 2.832,1.422 l 3.547,12.558 -15.027,3.598"
         style="fill:none;stroke:#0070c0;stroke-width:0.72000003;stroke-linecap:butt;stroke-linejoin:miter;stroke-miterlimit:8;stroke-dasharray:none;stroke-opacity:1"
         id="path22447"
         inkscape:connector-curvature="0" /><path
         d="m 314.762,72.84 4.527,0.289 6.871,9.121 -3.351,8.469"
         style="fill:none;stroke:#0070c0;stroke-width:0.72000003;stroke-linecap:butt;stroke-linejoin:miter;stroke-miterlimit:8;stroke-dasharray:none;stroke-opacity:1"
         id="path22449"
         inkscape:connector-curvature="0" /><path
         d="m 325.32,82.32 10.2,-1.441"
         style="fill:none;stroke:#0070c0;stroke-width:0.72000003;stroke-linecap:butt;stroke-linejoin:miter;stroke-miterlimit:8;stroke-dasharray:none;stroke-opacity:1"
         id="path22451"
         inkscape:connector-curvature="0" /><path
         d="m 318.359,72.84 10.563,-7.922"
         style="fill:none;stroke:#0070c0;stroke-width:0.72000003;stroke-linecap:butt;stroke-linejoin:miter;stroke-miterlimit:8;stroke-dasharray:none;stroke-opacity:1"
         id="path22453"
         inkscape:connector-curvature="0" /><path
         d="m 306.121,66.66 c 0,1.09 0.969,1.981 2.16,1.981 1.188,0 2.16,-0.891 2.16,-1.981 0,-1.09 -0.972,-1.98 -2.16,-1.98 -1.191,0 -2.16,0.89 -2.16,1.98 z"
         style="fill:#ffff00;fill-opacity:1;fill-rule:evenodd;stroke:#000000;stroke-width:0.95999998;stroke-linecap:square;stroke-linejoin:round;stroke-miterlimit:8;stroke-dasharray:none;stroke-opacity:1"
         id="path22455"
         inkscape:connector-curvature="0" /></g></g></svg>