<?xml version="1.0" encoding="UTF-8" standalone="no"?>
<!-- Created with Inkscape (http://www.inkscape.org/) -->

<svg
   xmlns:dc="http://purl.org/dc/elements/1.1/"
   xmlns:cc="http://creativecommons.org/ns#"
   xmlns:rdf="http://www.w3.org/1999/02/22-rdf-syntax-ns#"
   xmlns:svg="http://www.w3.org/2000/svg"
   xmlns="http://www.w3.org/2000/svg"
   xmlns:sodipodi="http://sodipodi.sourceforge.net/DTD/sodipodi-0.dtd"
   xmlns:inkscape="http://www.inkscape.org/namespaces/inkscape"
   version="1.1"
   id="svg26932"
   xml:space="preserve"
   width="1201.9185"
   height="234.87685"
   viewBox="0 0 1201.9185 234.87685"
   sodipodi:docname="bugtraps.svg"
   inkscape:version="0.92.3 (2405546, 2018-03-11)"><metadata
     id="metadata26938"><rdf:RDF><cc:Work
         rdf:about=""><dc:format>image/svg+xml</dc:format><dc:type
           rdf:resource="http://purl.org/dc/dcmitype/StillImage" /><dc:title></dc:title></cc:Work></rdf:RDF></metadata><defs
     id="defs26936" /><sodipodi:namedview
     pagecolor="#ffffff"
     bordercolor="#666666"
     borderopacity="1"
     objecttolerance="10"
     gridtolerance="10"
     guidetolerance="10"
     inkscape:pageopacity="0"
     inkscape:pageshadow="2"
     inkscape:window-width="909"
     inkscape:window-height="480"
     id="namedview26934"
     showgrid="false"
     inkscape:zoom="0.28204908"
     inkscape:cx="600.95923"
     inkscape:cy="117.43842"
     inkscape:window-x="0"
     inkscape:window-y="0"
     inkscape:window-maximized="0"
     inkscape:current-layer="g26940" /><g
     id="g26940"
     inkscape:groupmode="layer"
     inkscape:label="bugtraps"
     transform="matrix(1.3333333,0,0,-1.3333333,0,234.87685)"><g
       id="g26942"><g
         id="g26944"
         transform="matrix(1,0,0,-1,0,176.15764)"><path
           d="m 24,76.742 c 0,-2.023 1.613,-3.66 3.598,-3.66 1.988,0 3.601,1.637 3.601,3.66 0,2.02 -1.613,3.656 -3.601,3.656 C 25.613,80.398 24,78.762 24,76.742 Z"
           style="fill:#45d426;fill-opacity:1;fill-rule:evenodd;stroke:#45d426;stroke-width:0.72000003;stroke-linecap:butt;stroke-linejoin:round;stroke-miterlimit:10;stroke-dasharray:none;stroke-opacity:1"
           id="path26946"
           inkscape:connector-curvature="0" /></g><g
         id="g26948"
         transform="matrix(1,0,0,-1,0,176.15764)"><path
           d="m 213.359,74.219 c 0,-2.02 1.61,-3.66 3.602,-3.66 1.988,0 3.598,1.64 3.598,3.66 0,2.023 -1.61,3.66 -3.598,3.66 -1.992,0 -3.602,-1.637 -3.602,-3.66 z"
           style="fill:#f81705;fill-opacity:1;fill-rule:evenodd;stroke:#f81705;stroke-width:0.72000003;stroke-linecap:butt;stroke-linejoin:round;stroke-miterlimit:10;stroke-dasharray:none;stroke-opacity:1"
           id="path26950"
           inkscape:connector-curvature="0" /></g><g
         id="g26952"
         transform="matrix(1,0,0,-1,0,176.15764)"><path
           d="m 150.34,105.34 c -0.219,-33.68 0.219,-45.57 0,-79.238 h 126.801 v 135.359 l -186.903,-1.32 c -0.218,-22.012 -0.437,-44.02 -0.66,-66.032 l 25.762,1.321 -0.66,46.879 145.949,0.66 c -0.219,-42.039 0.219,-62.289 0,-104.321 h -91.141 c -0.218,22.231 -0.437,44.461 -0.66,66.692 z"
           style="fill:#976300;fill-opacity:1;fill-rule:evenodd;stroke:#000000;stroke-width:1.55999994;stroke-linecap:butt;stroke-linejoin:round;stroke-miterlimit:10;stroke-dasharray:none;stroke-opacity:1"
           id="path26954"
           inkscape:connector-curvature="0" /></g><g
         id="g26956"
         transform="matrix(1,0,0,-1,0,176.15764)"><path
           d="M 0.781,0.781 H 291.66 V 175.379 H 0.781 Z"
           style="fill:none;stroke:#000000;stroke-width:1.55999994;stroke-linecap:butt;stroke-linejoin:miter;stroke-miterlimit:8;stroke-dasharray:none;stroke-opacity:1"
           id="path26958"
           inkscape:connector-curvature="0" /></g><g
         id="g26960"
         transform="matrix(1,0,0,-1,0,176.15764)"><path
           d="m 328.438,76.742 c 0,-2.023 1.64,-3.66 3.66,-3.66 2.023,0 3.66,1.637 3.66,3.66 0,2.02 -1.637,3.656 -3.66,3.656 -2.02,0 -3.66,-1.636 -3.66,-3.656 z"
           style="fill:#45d426;fill-opacity:1;fill-rule:evenodd;stroke:#45d426;stroke-width:0.72000003;stroke-linecap:butt;stroke-linejoin:round;stroke-miterlimit:8;stroke-dasharray:none;stroke-opacity:1"
           id="path26962"
           inkscape:connector-curvature="0" /></g><g
         id="g26964"
         transform="matrix(1,0,0,-1,0,176.15764)"><path
           d="m 517.801,74.219 c 0,-2.02 1.637,-3.66 3.66,-3.66 2.019,0 3.66,1.64 3.66,3.66 0,2.023 -1.641,3.66 -3.66,3.66 -2.023,0 -3.66,-1.637 -3.66,-3.66 z"
           style="fill:#f81705;fill-opacity:1;fill-rule:evenodd;stroke:#f81705;stroke-width:0.72000003;stroke-linecap:butt;stroke-linejoin:round;stroke-miterlimit:8;stroke-dasharray:none;stroke-opacity:1"
           id="path26966"
           inkscape:connector-curvature="0" /></g><g
         id="g26968"
         transform="matrix(1,0,0,-1,0,176.15764)"><path
           d="m 454.898,105.34 c -0.218,-33.68 0.223,-45.57 0,-79.238 h 126.801 v 135.359 l -186.898,-1.32 c -0.223,-22.012 -0.442,-44.02 -0.66,-66.032 l 25.757,1.321 -0.66,46.879 145.95,0.66 c -0.219,-42.039 0.222,-62.289 0,-104.321 h -91.137 c -0.223,22.231 -0.442,44.461 -0.66,66.692 z"
           style="fill:#976300;fill-opacity:1;fill-rule:evenodd;stroke:#000000;stroke-width:1.55999994;stroke-linecap:butt;stroke-linejoin:round;stroke-miterlimit:8;stroke-dasharray:none;stroke-opacity:1"
           id="path26970"
           inkscape:connector-curvature="0" /></g><g
         id="g26972"
         transform="matrix(1,0,0,-1,0,176.15764)"><path
           d="m 305.219,0.781 h 291 v 174.598 h -291 z"
           style="fill:none;stroke:#000000;stroke-width:1.55999994;stroke-linecap:butt;stroke-linejoin:miter;stroke-miterlimit:8;stroke-dasharray:none;stroke-opacity:1"
           id="path26974"
           inkscape:connector-curvature="0" /></g><g
         id="g26976"
         transform="matrix(1,0,0,-1,0,176.15764)"><path
           d="m 335.34,77.809 116.879,-3.297 c 0.219,-20.481 0.441,-30.391 0.66,-50.871 l 131.402,-0.661 0.657,141.36 -192.809,-1.32 V 91.68 L 448.91,83.75 450.238,21 543.34,20.34"
           style="fill:none;stroke:#006ebf;stroke-width:2.27999997;stroke-linecap:butt;stroke-linejoin:miter;stroke-miterlimit:8;stroke-dasharray:none;stroke-opacity:1"
           id="path26978"
           inkscape:connector-curvature="0" /></g><g
         id="g26980"
         transform="matrix(1,0,0,-1,0,176.15764)"><path
           d="m 543.418,20.34 h 29.723"
           style="fill:none;stroke:#006ebf;stroke-width:2.27999997;stroke-linecap:butt;stroke-linejoin:miter;stroke-miterlimit:8;stroke-dasharray:6.84, 2.28;stroke-dashoffset:0;stroke-opacity:1"
           id="path26982"
           inkscape:connector-curvature="0" /></g><g
         id="g26984"
         transform="matrix(1,0,0,-1,0,176.15764)"><path
           d="m 633,76.742 c 0,-2.023 1.641,-3.66 3.66,-3.66 2.02,0 3.66,1.637 3.66,3.66 0,2.02 -1.64,3.656 -3.66,3.656 -2.019,0 -3.66,-1.636 -3.66,-3.656 z"
           style="fill:#45d426;fill-opacity:1;fill-rule:evenodd;stroke:#45d426;stroke-width:0.72000003;stroke-linecap:butt;stroke-linejoin:round;stroke-miterlimit:8;stroke-dasharray:none;stroke-opacity:1"
           id="path26986"
           inkscape:connector-curvature="0" /></g><g
         id="g26988"
         transform="matrix(1,0,0,-1,0,176.15764)"><path
           d="m 822.359,74.219 c 0,-2.02 1.641,-3.66 3.661,-3.66 2.019,0 3.66,1.64 3.66,3.66 0,2.023 -1.641,3.66 -3.66,3.66 -2.02,0 -3.661,-1.637 -3.661,-3.66 z"
           style="fill:#f81705;fill-opacity:1;fill-rule:evenodd;stroke:#f81705;stroke-width:0.72000003;stroke-linecap:butt;stroke-linejoin:round;stroke-miterlimit:8;stroke-dasharray:none;stroke-opacity:1"
           id="path26990"
           inkscape:connector-curvature="0" /></g><g
         id="g26992"
         transform="matrix(1,0,0,-1,0,176.15764)"><path
           d="m 759.34,105.34 c -0.219,-33.68 0.219,-45.57 0,-79.238 h 126.801 v 135.359 l -186.903,-1.32 c -0.218,-22.012 -0.437,-44.02 -0.66,-66.032 l 25.762,1.321 -0.66,46.879 145.949,0.66 c -0.219,-42.039 0.219,-62.289 0,-104.321 h -91.141 c -0.218,22.231 -0.437,44.461 -0.66,66.692 z"
           style="fill:#976300;fill-opacity:1;fill-rule:evenodd;stroke:#000000;stroke-width:1.55999994;stroke-linecap:butt;stroke-linejoin:round;stroke-miterlimit:8;stroke-dasharray:none;stroke-opacity:1"
           id="path26994"
           inkscape:connector-curvature="0" /></g><g
         id="g26996"
         transform="matrix(1,0,0,-1,0,176.15764)"><path
           d="M 609.781,0.781 H 900.66 V 175.379 H 609.781 Z"
           style="fill:none;stroke:#000000;stroke-width:1.55999994;stroke-linecap:butt;stroke-linejoin:miter;stroke-miterlimit:8;stroke-dasharray:none;stroke-opacity:1"
           id="path26998"
           inkscape:connector-curvature="0" /></g><g
         id="g27000"
         transform="matrix(1,0,0,-1,0,176.15764)"><path
           d="m 639.781,77.809 117.59,-1.317 c 0.219,-20.48 -0.223,-32.371 0,-52.851 L 888.84,22.98 c 0.219,47.122 0.441,94.239 0.66,141.36 L 696.59,163.02 V 91.68 L 726.98,93 725,139.242 867.039,140.559 V 73.18"
           style="fill:none;stroke:#006ebf;stroke-width:2.27999997;stroke-linecap:butt;stroke-linejoin:miter;stroke-miterlimit:8;stroke-dasharray:none;stroke-opacity:1"
           id="path27002"
           inkscape:connector-curvature="0" /></g><g
         id="g27004"
         transform="matrix(1,0,0,-1,0,176.15764)"><path
           d="M 867.09,73.141 829.738,74.25"
           style="fill:none;stroke:#006ebf;stroke-width:2.27999997;stroke-linecap:butt;stroke-linejoin:miter;stroke-miterlimit:8;stroke-dasharray:6.84, 2.28;stroke-dashoffset:0;stroke-opacity:1"
           id="path27006"
           inkscape:connector-curvature="0" /></g></g></g></svg>