<?xml version="1.0" encoding="utf-8"?>
<!-- Generator: Adobe Illustrator 27.5.0, SVG Export Plug-In . SVG Version: 6.00 Build 0)  -->
<svg version="1.1" id="Layer_1" xmlns="http://www.w3.org/2000/svg" xmlns:xlink="http://www.w3.org/1999/xlink" x="0px" y="0px"
	 viewBox="0 0 420.13 191.46" style="enable-background:new 0 0 420.13 191.46;" xml:space="preserve">
<style type="text/css">
	.st0{fill:#D6D6D6;}
	.st1{fill:#292929;}
	.st2{fill:#FFFFFF;stroke:#000000;stroke-miterlimit:10;}
	.st3{fill:#33449C;}
	.st4{fill:none;stroke:#ED1C24;stroke-width:2;stroke-miterlimit:10;}
	.st5{fill:#ED1C24;}
	.st6{fill:none;}
	.st7{font-family:'TimesNewRomanPS-ItalicMT';}
	.st8{font-size:12px;}
	.st9{font-family:'TimesNewRomanPSMT';}
	.st10{fill:none;stroke:#000000;stroke-miterlimit:10;}
	.st11{fill:none;stroke:#ED1C24;stroke-miterlimit:10;}
	.st12{font-family:'MyriadPro-Regular';}
	.st13{font-size:10px;}
</style>
<rect x="73.31" y="73.03" class="st0" width="28.17" height="28.17"/>
<rect x="101.01" y="73.03" class="st1" width="28.17" height="28.17"/>
<line class="st2" x1="17.91" y1="16.97" x2="17.91" y2="145.14"/>
<line class="st2" x1="45.61" y1="16.97" x2="45.61" y2="145.14"/>
<line class="st2" x1="73.31" y1="16.97" x2="73.31" y2="145.14"/>
<line class="st2" x1="101.01" y1="16.97" x2="101.01" y2="145.14"/>
<line class="st2" x1="128.71" y1="16.97" x2="128.71" y2="145.14"/>
<line class="st2" x1="18.38" y1="127.77" x2="146.55" y2="127.77"/>
<line class="st2" x1="18.38" y1="100.07" x2="146.55" y2="100.07"/>
<line class="st2" x1="18.38" y1="72.37" x2="146.55" y2="72.37"/>
<line class="st2" x1="18.38" y1="44.67" x2="146.55" y2="44.67"/>
<line class="st2" x1="18.38" y1="16.97" x2="146.55" y2="16.97"/>
<g>
	<g>
		<ellipse class="st3" cx="84.73" cy="60.63" rx="1.01" ry="1.01"/>
		<path class="st3" d="M88.36,66.71c0.04,0,0.09,0,0.14,0c0.04,0,0.09,0,0.13,0c5.11,0,9.26-2.51,9.26-5.6
			c0-2.55-2.82-4.71-6.68-5.38c-0.03-0.86-1.02-1.57-2.33-1.71V51.3c0.54-0.16,0.94-0.65,0.94-1.24c0-0.72-0.58-1.3-1.29-1.3
			c-0.01,0-0.02,0-0.03,0c-0.01,0-0.02,0-0.03,0c-0.72,0-1.29,0.58-1.29,1.3c0,0.59,0.4,1.08,0.94,1.24v2.72
			c-1.31,0.14-2.3,0.85-2.33,1.71c-3.86,0.68-6.68,2.83-6.68,5.38C79.09,64.2,83.24,66.71,88.36,66.71z M92.25,58.73
			c1.05,0,1.9,0.85,1.9,1.9c0,1.05-0.85,1.9-1.9,1.9s-1.9-0.85-1.9-1.9C90.36,59.58,91.2,58.73,92.25,58.73z M84.73,58.73
			c1.05,0,1.9,0.85,1.9,1.9c0,1.05-0.85,1.9-1.9,1.9c-1.05,0-1.9-0.85-1.9-1.9C82.83,59.58,83.68,58.73,84.73,58.73z"/>
		<ellipse class="st3" cx="92.25" cy="60.63" rx="1.01" ry="1.01"/>
		<path class="st3" d="M99.65,82.03h-0.04V81.1H99.3V67.76h-2.8v0.47h-1.59v-0.47h-6.42h-6.42v0.47h-1.59v-0.47h-2.8V81.1h-0.31
			v0.93h-0.04h-0.44v2.56h1.17v-1.28h2.12v1.28h1.17v-2.56h-0.56V81.1h-0.31V69.66h1.59v12.37h5.26v3.94
			c-4.69,0.34-8.3,2.37-8.3,4.83c0.29,0,0.63,0,0.99,0c0,0.07-0.01,0.14-0.01,0.2c0,1.47,1.19,2.66,2.66,2.66s2.66-1.2,2.66-2.66
			c0-0.07-0.01-0.14-0.01-0.2c0.19,0,0.38,0,0.57,0c0,0.07-0.01,0.14-0.01,0.2c0,1.46,1.17,2.64,2.62,2.66
			c1.45-0.02,2.62-1.2,2.62-2.66c0-0.07,0-0.14-0.01-0.2c0.19,0,0.38,0,0.57,0c-0.01,0.07-0.01,0.14-0.01,0.2
			c0,1.47,1.19,2.66,2.66,2.66s2.66-1.2,2.66-2.66c0-0.07-0.01-0.14-0.01-0.2c0.37,0,0.7,0,0.99,0c0-2.46-3.61-4.5-8.3-4.83v-3.94
			h5.26V69.66h1.59V81.1h-0.31v0.93h-0.56v2.56h1.17v-1.28h2.12v1.28h1.17v-2.56H99.65z M85.22,78.56h-0.99v-1.03h0.99L85.22,78.56
			L85.22,78.56z M85.22,77.09h-0.99v-1.03h0.99L85.22,77.09L85.22,77.09z M86.73,78.56h-0.99v-1.03h0.99V78.56z M86.73,77.09h-0.99
			v-1.03h0.99V77.09z M87.32,78.56v-1.03h0.99v1.03H87.32z M88.31,77.09h-0.99v-1.03h0.99V77.09z M84.39,91.01
			c0,0.96-0.78,1.73-1.73,1.73c-0.95,0-1.73-0.78-1.73-1.73c0-0.07,0-0.14,0.01-0.2c1,0,2.17,0,3.43,0
			C84.39,90.87,84.39,90.94,84.39,91.01z M90.19,91.01c0,0.94-0.76,1.71-1.7,1.73c-0.94-0.02-1.7-0.79-1.7-1.73
			c0-0.07,0-0.14,0.01-0.2c0.56,0,1.12,0,1.68,0c0.56,0,1.13,0,1.68,0C90.18,90.87,90.19,90.94,90.19,91.01z M96.04,91.01
			c0,0.96-0.78,1.73-1.73,1.73s-1.73-0.78-1.73-1.73c0-0.07,0-0.14,0.01-0.2c1.26,0,2.43,0,3.43,0
			C96.04,90.87,96.04,90.94,96.04,91.01z M89.66,78.56h-0.99v-1.03h0.99V78.56z M89.66,77.09h-0.99v-1.03h0.99V77.09z M91.24,78.56
			h-0.99v-1.03h0.99V78.56z M91.24,77.09h-0.99v-1.03h0.99V77.09z M92.74,78.56h-0.99v-1.03h0.99V78.56z M92.74,77.09h-0.99v-1.03
			h0.99V77.09z M92.74,74.49h-4.25h-4.26v-3.62h4.26h4.25V74.49z"/>
	</g>
</g>
<g>
	<g>
		<line class="st4" x1="87.62" y1="86.22" x2="108.37" y2="86.22"/>
		<g>
			<path class="st5" d="M114.4,86.22c-2.84,1.05-6.36,2.85-8.55,4.76l1.72-4.76l-1.72-4.75C108.04,83.37,111.56,85.17,114.4,86.22z"
				/>
		</g>
	</g>
</g>
<rect x="5.47" y="80.48" class="st6" width="14.55" height="20.66"/>
<text transform="matrix(1 0 0 1 5.4695 88.8753)" class="st7 st8">i</text>
<rect x="85.98" y="2.49" class="st6" width="14.55" height="20.66"/>
<text transform="matrix(1 0 0 1 85.9785 10.8874)" class="st7 st8">j</text>
<rect x="295.13" y="89.45" class="st6" width="19.69" height="17.56"/>
<text transform="matrix(1 0 0 1 295.1284 97.8474)"><tspan x="0" y="0" class="st9 st8">(</tspan><tspan x="4" y="0" class="st7 st8">i,j</tspan><tspan x="13.66" y="0" class="st9 st8">)</tspan></text>
<ellipse class="st10" cx="396.63" cy="94.64" rx="20.42" ry="13.61"/>
<ellipse class="st10" cx="304.97" cy="94.64" rx="20.42" ry="13.61"/>
<rect x="382.29" y="89.45" class="st6" width="34.76" height="17.56"/>
<text transform="matrix(1 0 0 1 382.2929 97.8474)"><tspan x="0" y="0" class="st9 st8">(</tspan><tspan x="4" y="0" class="st7 st8">i,j</tspan><tspan x="13.66" y="0" class="st9 st8">+1)</tspan></text>
<ellipse class="st10" cx="304.81" cy="173.51" rx="20.42" ry="13.61"/>
<rect x="289.47" y="168.32" class="st6" width="34.76" height="17.56"/>
<text transform="matrix(1 0 0 1 289.473 176.7156)"><tspan x="0" y="0" class="st9 st8">(</tspan><tspan x="4" y="0" class="st7 st8">i</tspan><tspan x="7.33" y="0" class="st9 st8">+1</tspan><tspan x="20.1" y="0" class="st7 st8">,j</tspan><tspan x="26.43" y="0" class="st9 st8">)</tspan></text>
<ellipse class="st10" cx="305.81" cy="16.28" rx="20.42" ry="13.61"/>
<rect x="290.47" y="11.08" class="st6" width="34.76" height="17.56"/>
<text transform="matrix(1 0 0 1 290.473 19.4793)"><tspan x="0" y="0" class="st9 st8">(</tspan><tspan x="4" y="0" class="st7 st8">i</tspan><tspan x="7.33" y="0" class="st9 st8">-1</tspan><tspan x="17.33" y="0" class="st7 st8">,j</tspan><tspan x="23.66" y="0" class="st9 st8">)</tspan></text>
<rect x="344.54" y="88.45" class="st6" width="17.38" height="17.56"/>
<text transform="matrix(1 0 0 1 344.5352 96.8474)" class="st7 st8">e</text>
<ellipse class="st10" cx="211.99" cy="94.64" rx="20.42" ry="13.61"/>
<rect x="198.65" y="89.45" class="st6" width="34.76" height="17.56"/>
<text transform="matrix(1 0 0 1 198.6531 97.8474)"><tspan x="0" y="0" class="st9 st8">(</tspan><tspan x="4" y="0" class="st7 st8">i,j</tspan><tspan x="13.66" y="0" class="st9 st8">-1)</tspan></text>
<rect x="258.42" y="88.45" class="st6" width="17.38" height="17.56"/>
<text transform="matrix(1 0 0 1 258.4167 96.8474)" class="st7 st8">w</text>
<rect x="302.07" y="52.09" class="st6" width="17.38" height="17.56"/>
<text transform="matrix(1 0 0 1 302.0669 60.4905)" class="st7 st8">n</text>
<rect x="303.07" y="125.27" class="st6" width="17.38" height="17.56"/>
<text transform="matrix(1 0 0 1 303.0669 133.6712)" class="st7 st8">s</text>
<rect x="295.13" y="119.64" class="st10" width="22.32" height="22.32"/>
<g>
	<g>
		<line class="st10" x1="325.4" y1="94.64" x2="333.58" y2="94.64"/>
		<g>
			<path d="M336.6,94.64c-1.42,0.53-3.18,1.43-4.27,2.38l0.86-2.38l-0.86-2.38C333.42,93.22,335.18,94.12,336.6,94.64z"/>
		</g>
	</g>
</g>
<g>
	<g>
		<line class="st11" x1="358.91" y1="94.64" x2="373.19" y2="94.64"/>
		<g>
			<path class="st5" d="M376.2,94.64c-1.42,0.53-3.18,1.43-4.27,2.38l0.86-2.38l-0.86-2.38C373.02,93.22,374.78,94.12,376.2,94.64z"
				/>
		</g>
	</g>
</g>
<g>
	<g>
		<line class="st10" x1="305.81" y1="109.04" x2="305.81" y2="117.22"/>
		<g>
			<path d="M305.81,120.24c-0.53-1.42-1.43-3.18-2.38-4.27l2.38,0.86l2.38-0.86C307.23,117.06,306.33,118.82,305.81,120.24z"/>
		</g>
	</g>
</g>
<g>
	<g>
		<line class="st10" x1="283.4" y1="94.64" x2="275.21" y2="94.64"/>
		<g>
			<path d="M272.2,94.64c1.42-0.53,3.18-1.43,4.27-2.38l-0.86,2.38l0.86,2.38C275.38,96.07,273.62,95.17,272.2,94.64z"/>
		</g>
	</g>
</g>
<g>
	<g>
		<line class="st10" x1="305.29" y1="80.2" x2="305.29" y2="72.02"/>
		<g>
			<path d="M305.29,69c0.53,1.42,1.43,3.18,2.38,4.27l-2.38-0.86l-2.38,0.86C303.86,72.18,304.76,70.42,305.29,69z"/>
		</g>
	</g>
</g>
<g>
	<g>
		<path class="st11" d="M358.91,91.54l7.89-7.89c1.46-1.46,2.28-3.44,2.28-5.5v-0.49c0-2.27-1.84-4.1-4.1-4.1h-33.17
			c-2.63,0-5.15,1.04-7.01,2.9l-5.08,5.08"/>
		<g>
			<path class="st5" d="M317.59,83.67c0.63-1.38,1.24-3.26,1.34-4.7l1.07,2.29l2.29,1.07C320.85,82.43,318.97,83.04,317.59,83.67z"
				/>
		</g>
	</g>
</g>
<polygon class="st5" points="363.85,86.6 363.85,94.64 367.56,94.64 367.56,83.65 "/>
<rect x="359.76" y="100.18" class="st6" width="25.89" height="21.03"/>
<text transform="matrix(1 0 0 1 359.7603 107.2785)" class="st12 st13">90%</text>
<rect x="359.76" y="65.77" class="st6" width="25.89" height="21.03"/>
<text transform="matrix(1 0 0 1 359.7603 72.8747)" class="st12 st13">10%</text>
<g>
	<g>
		<line class="st11" x1="306.07" y1="46.7" x2="306.07" y2="32.42"/>
		<g>
			<path class="st5" d="M306.07,29.41c0.53,1.42,1.43,3.18,2.38,4.27l-2.38-0.86l-2.38,0.86C304.64,32.59,305.54,30.83,306.07,29.41
				z"/>
		</g>
	</g>
</g>
<g>
	<g>
		<path class="st11" d="M302.97,46.7l-7.89-7.89c-1.46-1.46-2.44-2.28-4.5-2.28h0.51c-2.27,0-4.1,1.84-4.1,4.1v28.86
			c0,2.63,2.04,5.15,3.9,7.01l3.63,3.63"/>
		<g>
			<path class="st5" d="M296.64,82.26c-1.38-0.63-3.26-1.24-4.7-1.34l2.29-1.07l1.07-2.29C295.4,79,296.01,80.88,296.64,82.26z"/>
		</g>
	</g>
</g>
<polygon class="st5" points="298.03,41.76 306.07,41.76 306.07,38.05 295.07,38.05 "/>
<rect x="310.76" y="35.94" class="st6" width="25.89" height="21.03"/>
<text transform="matrix(1 0 0 1 310.7563 43.0411)" class="st12 st13">90%</text>
<rect x="267.24" y="36.18" class="st6" width="25.89" height="21.03"/>
<text transform="matrix(1 0 0 1 267.2411 43.279)" class="st12 st13">10%</text>
<g>
	<g>
		<line class="st11" x1="305.07" y1="142.28" x2="305.07" y2="156.55"/>
		<g>
			<path class="st5" d="M305.07,159.57c-0.53-1.42-1.43-3.18-2.38-4.27l2.38,0.86l2.38-0.86
				C306.49,156.39,305.59,158.15,305.07,159.57z"/>
		</g>
	</g>
</g>
<g>
	<g>
		<path class="st11" d="M301.97,142.28l-7.89,7.89c-1.46,1.46-2.44,2.28-4.5,2.28h0.51c-2.27,0-4.1-1.84-4.1-4.1v-28.86
			c0-2.63,2.04-5.15,3.9-7.01l3.63-3.63"/>
		<g>
			<path class="st5" d="M295.64,106.72c-0.63,1.38-1.24,3.26-1.34,4.7l-1.07-2.29l-2.29-1.07
				C292.38,107.96,294.26,107.35,295.64,106.72z"/>
		</g>
	</g>
</g>
<polygon class="st5" points="297.03,147.22 305.07,147.22 305.07,150.92 294.07,150.92 "/>
<rect x="309.76" y="148.98" class="st6" width="25.89" height="21.03"/>
<text transform="matrix(1 0 0 1 309.7563 156.0789)" class="st12 st13">90%</text>
<rect x="268.24" y="149.22" class="st6" width="25.89" height="21.03"/>
<text transform="matrix(1 0 0 1 268.2411 156.3168)" class="st12 st13">10%</text>
<g>
	<g>
		<line class="st11" x1="250.35" y1="94.64" x2="236.08" y2="94.64"/>
		<g>
			<path class="st5" d="M233.06,94.64c1.42-0.53,3.18-1.43,4.27-2.38l-0.86,2.38l0.86,2.38C236.24,96.07,234.48,95.17,233.06,94.64z
				"/>
		</g>
	</g>
</g>
<g>
	<g>
		<path class="st11" d="M250.35,91.54l-7.89-7.89c-1.46-1.46-2.28-3.44-2.28-5.5v-0.49c0-2.27,1.84-4.1,4.1-4.1h33.17
			c2.63,0,5.15,1.04,7.01,2.9l5.5,5.5"/>
		<g>
			<path class="st5" d="M292.08,84.09c-1.38-0.63-3.26-1.24-4.7-1.34l2.29-1.07l1.07-2.29C290.84,80.83,291.45,82.71,292.08,84.09z"
				/>
		</g>
	</g>
</g>
<polygon class="st5" points="245.41,86.6 245.41,94.64 241.7,94.64 241.7,83.65 "/>
<rect x="231.32" y="100.18" class="st6" width="25.89" height="21.03"/>
<text transform="matrix(1 0 0 1 231.3155 107.2785)" class="st12 st13">90%</text>
<rect x="231.32" y="65.77" class="st6" width="25.89" height="21.03"/>
<text transform="matrix(1 0 0 1 231.3155 72.8747)" class="st12 st13">10%</text>
<rect x="336.6" y="82.81" class="st10" width="22.32" height="22.32"/>
<rect x="250.48" y="82.81" class="st10" width="22.32" height="22.32"/>
<rect x="294.13" y="46.46" class="st10" width="22.32" height="22.32"/>
</svg>
