<?xml version="1.0" encoding="utf-8"?>
<!-- Generator: Adobe Illustrator 27.5.0, SVG Export Plug-In . SVG Version: 6.00 Build 0)  -->
<svg version="1.1" id="Layer_1" xmlns="http://www.w3.org/2000/svg" xmlns:xlink="http://www.w3.org/1999/xlink" x="0px" y="0px"
	 viewBox="0 0 290.4 156.1" style="enable-background:new 0 0 290.4 156.1;" xml:space="preserve">
<style type="text/css">
	.st0{fill:#F2F2F2;}
	.st1{fill:#383838;}
	.st2{fill:none;stroke:#000000;stroke-miterlimit:10;}
	.st3{fill:#33449C;}
	.st4{fill:none;stroke:#ED1C24;stroke-width:2;stroke-miterlimit:10;}
	.st5{fill:#ED1C24;}
	.st6{fill:none;}
	.st7{font-family:'TimesNewRomanPS-ItalicMT';}
	.st8{font-size:12px;}
	.st9{enable-background:new    ;}
	.st10{font-family:'MyriadPro-Regular';}
	.st11{fill:none;stroke:#F10000;stroke-width:0.25;stroke-miterlimit:10;}
	.st12{fill:#F10000;}
	.st13{fill:none;stroke:#F10000;stroke-width:2;stroke-miterlimit:10;}
</style>
<rect x="90.7" y="91.8" class="st0" width="28.2" height="28.2"/>
<rect x="90.7" y="35.8" class="st0" width="28.2" height="28.2"/>
<rect x="62.2" y="35.8" class="st0" width="28.2" height="28.2"/>
<rect x="34.6" y="35.8" class="st0" width="28.2" height="28.2"/>
<rect x="34.6" y="64.3" class="st0" width="28.2" height="28.2"/>
<rect x="34.6" y="91.8" class="st0" width="28.2" height="28.2"/>
<rect x="61.4" y="91.8" class="st0" width="28.2" height="28.2"/>
<rect x="89.7" y="64.3" class="st1" width="28.2" height="28.2"/>
<line class="st2" x1="34.9" y1="18.1" x2="34.9" y2="137.3"/>
<line class="st2" x1="62.6" y1="18.1" x2="62.6" y2="137.3"/>
<line class="st2" x1="90.3" y1="18.1" x2="90.3" y2="137.3"/>
<line class="st2" x1="118" y1="18.1" x2="118" y2="137.3"/>
<line class="st2" x1="13.8" y1="119.9" x2="135.8" y2="119.9"/>
<line class="st2" x1="13.8" y1="92.2" x2="135.8" y2="92.2"/>
<line class="st2" x1="13.8" y1="64.5" x2="135.8" y2="64.5"/>
<line class="st2" x1="13.8" y1="36.8" x2="135.8" y2="36.8"/>
<g>
	<g>
		<ellipse class="st3" cx="74" cy="52.8" rx="1" ry="1"/>
		<path class="st3" d="M77.6,58.9c0,0,0.1,0,0.1,0c0,0,0.1,0,0.1,0c5.1,0,9.3-2.5,9.3-5.6c0-2.5-2.8-4.7-6.7-5.4
			c0-0.9-1-1.6-2.3-1.7v-2.7c0.5-0.2,0.9-0.7,0.9-1.2c0-0.7-0.6-1.3-1.3-1.3c0,0,0,0,0,0s0,0,0,0c-0.7,0-1.3,0.6-1.3,1.3
			c0,0.6,0.4,1.1,0.9,1.2v2.7c-1.3,0.1-2.3,0.8-2.3,1.7c-3.9,0.7-6.7,2.8-6.7,5.4C68.4,56.4,72.5,58.9,77.6,58.9z M81.5,50.9
			c1.1,0,1.9,0.8,1.9,1.9c0,1-0.8,1.9-1.9,1.9s-1.9-0.8-1.9-1.9C79.6,51.7,80.5,50.9,81.5,50.9z M74,50.9c1.1,0,1.9,0.8,1.9,1.9
			c0,1-0.8,1.9-1.9,1.9s-1.9-0.8-1.9-1.9C72.1,51.7,72.9,50.9,74,50.9z"/>
		<ellipse class="st3" cx="81.5" cy="52.8" rx="1" ry="1"/>
		<path class="st3" d="M88.9,74.2L88.9,74.2l0-0.9h-0.3V59.9h-2.8v0.5h-1.6v-0.5h-6.4h-6.4v0.5h-1.6v-0.5h-2.8v13.3h-0.3v0.9h0h-0.4
			v2.6h1.2v-1.3h2.1v1.3h1.2v-2.6h-0.6v-0.9h-0.3V61.8h1.6v12.4h5.3v3.9c-4.7,0.3-8.3,2.4-8.3,4.8c0.3,0,0.6,0,1,0
			c0,0.1,0,0.1,0,0.2c0,1.5,1.2,2.7,2.7,2.7s2.7-1.2,2.7-2.7c0-0.1,0-0.1,0-0.2c0.2,0,0.4,0,0.6,0c0,0.1,0,0.1,0,0.2
			c0,1.5,1.2,2.6,2.6,2.7c1.4,0,2.6-1.2,2.6-2.7c0-0.1,0-0.1,0-0.2c0.2,0,0.4,0,0.6,0c0,0.1,0,0.1,0,0.2c0,1.5,1.2,2.7,2.7,2.7
			s2.7-1.2,2.7-2.7c0-0.1,0-0.1,0-0.2c0.4,0,0.7,0,1,0c0-2.5-3.6-4.5-8.3-4.8v-3.9h5.3V61.8h1.6v11.4h-0.3v0.9h-0.6v2.6h1.2v-1.3
			h2.1v1.3h1.2v-2.6H88.9z M74.5,70.7h-1v-1h1V70.7L74.5,70.7z M74.5,69.3h-1v-1h1V69.3L74.5,69.3z M76,70.7h-1v-1h1V70.7z M76,69.3
			h-1v-1h1V69.3z M76.6,70.7v-1h1v1H76.6z M77.6,69.3h-1v-1h1V69.3z M73.7,83.2c0,1-0.8,1.7-1.7,1.7c-0.9,0-1.7-0.8-1.7-1.7
			c0-0.1,0-0.1,0-0.2c1,0,2.2,0,3.4,0C73.7,83,73.7,83.1,73.7,83.2z M79.5,83.2c0,0.9-0.8,1.7-1.7,1.7c-0.9,0-1.7-0.8-1.7-1.7
			c0-0.1,0-0.1,0-0.2c0.6,0,1.1,0,1.7,0s1.1,0,1.7,0C79.4,83,79.5,83.1,79.5,83.2z M85.3,83.2c0,1-0.8,1.7-1.7,1.7s-1.7-0.8-1.7-1.7
			c0-0.1,0-0.1,0-0.2c1.3,0,2.4,0,3.4,0C85.3,83,85.3,83.1,85.3,83.2z M78.9,70.7h-1v-1h1V70.7z M78.9,69.3h-1v-1h1V69.3z
			 M80.5,70.7h-1v-1h1V70.7z M80.5,69.3h-1v-1h1V69.3z M82,70.7h-1v-1h1V70.7z M82,69.3h-1v-1h1V69.3z M82,66.7h-4.2h-4.3V63h4.3H82
			V66.7z"/>
	</g>
</g>
<g>
	<g>
		<line class="st4" x1="76.9" y1="78.4" x2="97.6" y2="78.4"/>
		<g>
			<path class="st5" d="M103.7,78.4c-2.8,1.1-6.4,2.8-8.6,4.8l1.7-4.8l-1.7-4.8C97.3,75.5,100.8,77.3,103.7,78.4z"/>
		</g>
	</g>
</g>
<rect x="-5.3" y="72.6" class="st6" width="14.6" height="20.7"/>
<text transform="matrix(1 0 0 1 4.1774 81.0438)" class="st7 st8">i</text>
<rect x="75.2" y="-5.3" class="st6" width="14.6" height="20.7"/>
<text transform="matrix(1 0 0 1 75.2482 10.7867)" class="st7 st8">j</text>
<text transform="matrix(1 0 0 1 57.7895 150.9274)" class="st9"><tspan x="0" y="0" class="st10 st8">Action </tspan><tspan x="35.3" y="0" class="st7 st8">w</tspan></text>
<text transform="matrix(1 0 0 1 203.9468 150.9274)" class="st9"><tspan x="0" y="0" class="st10 st8">Action </tspan><tspan x="35.3" y="0" class="st7 st8">sw</tspan></text>
<g>
	<line class="st0" x1="77.3" y1="77.9" x2="95.5" y2="97.9"/>
	<g>
		<line class="st11" x1="77.3" y1="77.9" x2="93.5" y2="95.7"/>
		<g>
			<path class="st12" d="M95.5,97.9c-1.3-0.7-3.2-1.4-4.6-1.6l2.3-1l1.2-2.2C94.5,94.6,95,96.5,95.5,97.9z"/>
		</g>
	</g>
</g>
<g>
	<line class="st0" x1="76.6" y1="78.1" x2="57.8" y2="98.1"/>
	<g>
		<line class="st11" x1="76.6" y1="78.1" x2="59.9" y2="95.9"/>
		<g>
			<path class="st12" d="M57.8,98.1c0.6-1.4,1.1-3.3,1.2-4.7l1.1,2.3l2.3,1C61,96.8,59.1,97.5,57.8,98.1z"/>
		</g>
	</g>
</g>
<g>
	<line class="st0" x1="77.3" y1="78.7" x2="95.5" y2="58.6"/>
	<g>
		<line class="st11" x1="77.3" y1="78.7" x2="93.5" y2="60.9"/>
		<g>
			<path class="st12" d="M95.5,58.6c-0.6,1.4-1.1,3.3-1.1,4.8l-1.2-2.2l-2.3-1C92.3,60,94.2,59.3,95.5,58.6z"/>
		</g>
	</g>
</g>
<g>
	<line class="st0" x1="76.9" y1="77.3" x2="77" y2="50.2"/>
	<g>
		<line class="st11" x1="76.9" y1="77.3" x2="77" y2="53.2"/>
		<g>
			<path class="st12" d="M77,50.2c0.5,1.4,1.4,3.2,2.4,4.3L77,53.6l-2.4,0.9C75.6,53.4,76.5,51.6,77,50.2z"/>
		</g>
	</g>
</g>
<g>
	<line class="st0" x1="77.8" y1="77.8" x2="77.7" y2="104.9"/>
	<g>
		<line class="st11" x1="77.8" y1="77.8" x2="77.7" y2="101.9"/>
		<g>
			<path class="st12" d="M77.7,104.9c-0.5-1.4-1.4-3.2-2.4-4.3l2.4,0.9l2.4-0.9C79.1,101.8,78.2,103.5,77.7,104.9z"/>
		</g>
	</g>
</g>
<g>
	<line class="st0" x1="77.6" y1="77.7" x2="50.5" y2="77.6"/>
	<g>
		<line class="st11" x1="77.6" y1="77.7" x2="53.5" y2="77.7"/>
		<g>
			<path class="st12" d="M50.5,77.6c1.4-0.5,3.2-1.4,4.3-2.4l-0.9,2.4l0.9,2.4C53.6,79.1,51.9,78.2,50.5,77.6z"/>
		</g>
	</g>
</g>
<g>
	<line class="st0" x1="76.6" y1="78.5" x2="57.8" y2="58.4"/>
	<g>
		<line class="st11" x1="76.6" y1="78.5" x2="59.9" y2="60.6"/>
		<g>
			<path class="st12" d="M57.8,58.4c1.4,0.7,3.2,1.3,4.7,1.5l-2.3,1L59,63.2C58.9,61.7,58.4,59.8,57.8,58.4z"/>
		</g>
	</g>
</g>
<rect x="240.1" y="64" class="st0" width="28.2" height="28.2"/>
<rect x="241.2" y="35.8" class="st0" width="28.2" height="28.2"/>
<rect x="212.6" y="35.8" class="st0" width="28.2" height="28.2"/>
<rect x="185.1" y="35.8" class="st0" width="28.2" height="28.2"/>
<rect x="185.1" y="64.3" class="st0" width="28.2" height="28.2"/>
<rect x="185.1" y="91.8" class="st0" width="28.2" height="28.2"/>
<rect x="211.9" y="91.8" class="st0" width="28.2" height="28.2"/>
<rect x="240.2" y="91.8" class="st1" width="28.2" height="28.2"/>
<line class="st2" x1="185.4" y1="18.1" x2="185.4" y2="137.3"/>
<line class="st2" x1="213.1" y1="18.1" x2="213.1" y2="137.3"/>
<line class="st2" x1="240.8" y1="18.1" x2="240.8" y2="137.3"/>
<line class="st2" x1="268.5" y1="18.1" x2="268.5" y2="137.3"/>
<line class="st2" x1="164.2" y1="119.9" x2="286.3" y2="119.9"/>
<line class="st2" x1="164.2" y1="92.2" x2="286.3" y2="92.2"/>
<line class="st2" x1="164.2" y1="64.5" x2="286.3" y2="64.5"/>
<line class="st2" x1="164.2" y1="36.8" x2="286.3" y2="36.8"/>
<g>
	<g>
		<ellipse class="st3" cx="224.5" cy="52.8" rx="1" ry="1"/>
		<path class="st3" d="M228.1,58.9c0,0,0.1,0,0.1,0c0,0,0.1,0,0.1,0c5.1,0,9.3-2.5,9.3-5.6c0-2.5-2.8-4.7-6.7-5.4
			c0-0.9-1-1.6-2.3-1.7v-2.7c0.5-0.2,0.9-0.7,0.9-1.2c0-0.7-0.6-1.3-1.3-1.3c0,0,0,0,0,0c0,0,0,0,0,0c-0.7,0-1.3,0.6-1.3,1.3
			c0,0.6,0.4,1.1,0.9,1.2v2.7c-1.3,0.1-2.3,0.8-2.3,1.7c-3.9,0.7-6.7,2.8-6.7,5.4C218.8,56.4,223,58.9,228.1,58.9z M232,50.9
			c1.1,0,1.9,0.8,1.9,1.9c0,1-0.8,1.9-1.9,1.9s-1.9-0.8-1.9-1.9C230.1,51.7,230.9,50.9,232,50.9z M224.5,50.9c1.1,0,1.9,0.8,1.9,1.9
			c0,1-0.9,1.9-1.9,1.9s-1.9-0.8-1.9-1.9C222.6,51.7,223.4,50.9,224.5,50.9z"/>
		<ellipse class="st3" cx="232" cy="52.8" rx="1" ry="1"/>
		<path class="st3" d="M239.4,74.2L239.4,74.2l0-0.9H239V59.9h-2.8v0.5h-1.6v-0.5h-6.4h-6.4v0.5h-1.6v-0.5h-2.8v13.3h-0.3v0.9h0
			h-0.4v2.6h1.2v-1.3h2.1v1.3h1.2v-2.6h-0.6v-0.9h-0.3V61.8h1.6v12.4h5.3v3.9c-4.7,0.3-8.3,2.4-8.3,4.8c0.3,0,0.6,0,1,0
			c0,0.1,0,0.1,0,0.2c0,1.5,1.2,2.7,2.7,2.7s2.7-1.2,2.7-2.7c0-0.1,0-0.1,0-0.2c0.2,0,0.4,0,0.6,0c0,0.1,0,0.1,0,0.2
			c0,1.5,1.2,2.6,2.6,2.7c1.4,0,2.6-1.2,2.6-2.7c0-0.1,0-0.1,0-0.2c0.2,0,0.4,0,0.6,0c0,0.1,0,0.1,0,0.2c0,1.5,1.2,2.7,2.7,2.7
			s2.7-1.2,2.7-2.7c0-0.1,0-0.1,0-0.2c0.4,0,0.7,0,1,0c0-2.5-3.6-4.5-8.3-4.8v-3.9h5.3V61.8h1.6v11.4H236v0.9h-0.6v2.6h1.2v-1.3h2.1
			v1.3h1.2v-2.6H239.4z M225,70.7h-1v-1h1V70.7L225,70.7z M225,69.3h-1v-1h1V69.3L225,69.3z M226.5,70.7h-1v-1h1V70.7z M226.5,69.3
			h-1v-1h1V69.3z M227.1,70.7v-1h1v1H227.1z M228.1,69.3h-1v-1h1V69.3z M224.1,83.2c0,1-0.8,1.7-1.7,1.7c-0.9,0-1.7-0.8-1.7-1.7
			c0-0.1,0-0.1,0-0.2c1,0,2.2,0,3.4,0C224.1,83,224.1,83.1,224.1,83.2z M229.9,83.2c0,0.9-0.8,1.7-1.7,1.7c-0.9,0-1.7-0.8-1.7-1.7
			c0-0.1,0-0.1,0-0.2c0.6,0,1.1,0,1.7,0s1.1,0,1.7,0C229.9,83,229.9,83.1,229.9,83.2z M235.8,83.2c0,1-0.8,1.7-1.7,1.7
			c-1,0-1.7-0.8-1.7-1.7c0-0.1,0-0.1,0-0.2c1.3,0,2.4,0,3.4,0C235.8,83,235.8,83.1,235.8,83.2z M229.4,70.7h-1v-1h1V70.7z
			 M229.4,69.3h-1v-1h1V69.3z M231,70.7h-1v-1h1V70.7z M231,69.3h-1v-1h1V69.3z M232.5,70.7h-1v-1h1V70.7z M232.5,69.3h-1v-1h1V69.3
			z M232.5,66.7h-4.2H224V63h4.3h4.2V66.7z"/>
	</g>
</g>
<rect x="145.2" y="72.6" class="st6" width="14.6" height="20.7"/>
<text transform="matrix(1 0 0 1 154.6493 81.0438)" class="st7 st8">i</text>
<rect x="225.7" y="-5.3" class="st6" width="14.6" height="20.7"/>
<text transform="matrix(1 0 0 1 225.7201 10.7867)" class="st7 st8">j</text>
<g>
	<line class="st0" x1="227.8" y1="77.9" x2="246" y2="97.9"/>
	<g>
		<line class="st13" x1="227.8" y1="77.9" x2="242" y2="93.5"/>
		<g>
			<path class="st12" d="M246,97.9c-2.7-1.4-6.4-2.8-9.3-3.1l4.7-1.9l2.4-4.5C243.8,91.3,244.9,95.1,246,97.9z"/>
		</g>
	</g>
</g>
<g>
	<line class="st0" x1="227.1" y1="78.1" x2="208.3" y2="98.1"/>
	<g>
		<line class="st11" x1="227.1" y1="78.1" x2="210.3" y2="95.9"/>
		<g>
			<path class="st12" d="M208.3,98.1c0.6-1.4,1.1-3.3,1.2-4.7l1.1,2.3l2.3,1C211.5,96.8,209.6,97.5,208.3,98.1z"/>
		</g>
	</g>
</g>
<g>
	<line class="st0" x1="227.8" y1="78.7" x2="246" y2="58.6"/>
	<g>
		<line class="st11" x1="227.8" y1="78.7" x2="244" y2="60.9"/>
		<g>
			<path class="st12" d="M246,58.6c-0.6,1.4-1.1,3.3-1.1,4.8l-1.2-2.2l-2.3-1C242.8,60,244.7,59.3,246,58.6z"/>
		</g>
	</g>
</g>
<g>
	<line class="st0" x1="227.4" y1="77.3" x2="227.5" y2="50.2"/>
	<g>
		<line class="st11" x1="227.4" y1="77.3" x2="227.5" y2="53.2"/>
		<g>
			<path class="st12" d="M227.5,50.2c0.5,1.4,1.4,3.2,2.4,4.3l-2.4-0.9l-2.4,0.9C226.1,53.4,227,51.6,227.5,50.2z"/>
		</g>
	</g>
</g>
<g>
	<line class="st0" x1="228.3" y1="77.8" x2="228.2" y2="104.9"/>
	<g>
		<line class="st11" x1="228.3" y1="77.8" x2="228.2" y2="101.9"/>
		<g>
			<path class="st12" d="M228.2,104.9c-0.5-1.4-1.4-3.2-2.4-4.3l2.4,0.9l2.4-0.9C229.6,101.8,228.7,103.5,228.2,104.9z"/>
		</g>
	</g>
</g>
<g>
	<line class="st0" x1="228.1" y1="77.7" x2="200.9" y2="77.6"/>
	<g>
		<line class="st11" x1="228.1" y1="77.7" x2="204" y2="77.7"/>
		<g>
			<path class="st12" d="M200.9,77.6c1.4-0.5,3.2-1.4,4.3-2.4l-0.9,2.4l0.9,2.4C204.1,79.1,202.4,78.2,200.9,77.6z"/>
		</g>
	</g>
</g>
<g>
	<line class="st0" x1="229.5" y1="77.6" x2="256.6" y2="77.7"/>
	<g>
		<line class="st11" x1="229.5" y1="77.6" x2="253.6" y2="77.7"/>
		<g>
			<path class="st12" d="M256.6,77.7c-1.4,0.5-3.2,1.4-4.3,2.4l0.9-2.4l-0.9-2.4C253.4,76.3,255.2,77.2,256.6,77.7z"/>
		</g>
	</g>
</g>
<g>
	<line class="st0" x1="227.1" y1="78.5" x2="208.3" y2="58.4"/>
	<g>
		<line class="st11" x1="227.1" y1="78.5" x2="210.3" y2="60.6"/>
		<g>
			<path class="st12" d="M208.3,58.4c1.4,0.7,3.2,1.3,4.7,1.5l-2.3,1l-1.1,2.3C209.4,61.7,208.8,59.8,208.3,58.4z"/>
		</g>
	</g>
</g>
</svg>
