<?xml version="1.0" encoding="UTF-8" standalone="no"?>
<!-- Created with Inkscape (http://www.inkscape.org/) -->

<svg
   xmlns:dc="http://purl.org/dc/elements/1.1/"
   xmlns:cc="http://creativecommons.org/ns#"
   xmlns:rdf="http://www.w3.org/1999/02/22-rdf-syntax-ns#"
   xmlns:svg="http://www.w3.org/2000/svg"
   xmlns="http://www.w3.org/2000/svg"
   xmlns:sodipodi="http://sodipodi.sourceforge.net/DTD/sodipodi-0.dtd"
   xmlns:inkscape="http://www.inkscape.org/namespaces/inkscape"
   version="1.1"
   id="svg45498"
   xml:space="preserve"
   width="993.12152"
   height="185.91833"
   viewBox="0 0 993.12152 185.91833"
   sodipodi:docname="incremental_prm.svg"
   inkscape:version="0.92.3 (2405546, 2018-03-11)"><metadata
     id="metadata45504"><rdf:RDF><cc:Work
         rdf:about=""><dc:format>image/svg+xml</dc:format><dc:type
           rdf:resource="http://purl.org/dc/dcmitype/StillImage" /><dc:title></dc:title></cc:Work></rdf:RDF></metadata><defs
     id="defs45502" /><sodipodi:namedview
     pagecolor="#ffffff"
     bordercolor="#666666"
     borderopacity="1"
     objecttolerance="10"
     gridtolerance="10"
     guidetolerance="10"
     inkscape:pageopacity="0"
     inkscape:pageshadow="2"
     inkscape:window-width="909"
     inkscape:window-height="480"
     id="namedview45500"
     showgrid="false"
     inkscape:zoom="0.381625"
     inkscape:cx="496.56076"
     inkscape:cy="92.959167"
     inkscape:window-x="0"
     inkscape:window-y="0"
     inkscape:window-maximized="0"
     inkscape:current-layer="g45506" /><g
     id="g45506"
     inkscape:groupmode="layer"
     inkscape:label="incremental_prm"
     transform="matrix(1.3333333,0,0,-1.3333333,0,185.91833)"><g
       id="g45508"><path
         d="M 0.359,139.079 H 241.558 V 0.36 H 0.359 Z"
         style="fill:#a6a6a6;fill-opacity:1;fill-rule:evenodd;stroke:#000000;stroke-width:0.72000003;stroke-linecap:butt;stroke-linejoin:miter;stroke-miterlimit:10;stroke-dasharray:none;stroke-opacity:1"
         id="path45510"
         inkscape:connector-curvature="0" /><path
         d="m 21.008,42.368 c -0.52,11.231 -13.02,30.09 -8.098,38.922 4.981,8.821 29.32,5.192 37.801,14.078 8.488,8.883 -5.141,36.282 13.18,39.25 18.347,2.981 76.269,-21.089 96.879,-21.398 20.609,-0.309 15.539,17.359 26.828,19.578 11.269,2.231 37.543,0.063 40.82,-6.168 3.262,-6.242 -21.348,-17.281 -21.168,-31.281 0.18,-13.539 -11.051,-24.981 -10.242,-29.027 1.121,-5.633 22.453,-17.122 26.23,-17.372 3.77,-0.242 -4.918,12.36 -3.57,15.879 2.02,5.282 16,23.301 16.59,14.539 0.582,-8.757 -5.84,-62.207 -13.07,-67.058 -7.227,-4.852 -18.227,32.422 -30.329,38 -12.171,5.551 -32.398,0.41 -42.351,-4.59 C 140.539,40.7 147.211,24.888 133,20.271 118.809,15.638 86.23,21.45 65.418,17.919 44.578,14.411 23.551,9.849 16.141,13.931 8.73,18.009 21.59,31.13 21.008,42.368 Z"
         style="fill:#ffffff;fill-opacity:1;fill-rule:evenodd;stroke:#000000;stroke-width:0.95999998;stroke-linecap:square;stroke-linejoin:round;stroke-miterlimit:10;stroke-dasharray:none;stroke-opacity:1"
         id="path45512"
         inkscape:connector-curvature="0" /><path
         d="m 120.77,109.841 c -3.032,-4.672 3.558,-21.953 7.648,-29.453 4.102,-7.5 11.77,-16.297 16.91,-15.547 5.133,0.758 12.813,14.16 13.922,20.07 1.109,5.911 -6.242,19.348 -12.652,23.508 -6.41,4.153 -22.797,6.09 -25.828,1.422 z"
         style="fill:#a6a6a6;fill-opacity:1;fill-rule:evenodd;stroke:#000000;stroke-width:0.95999998;stroke-linecap:square;stroke-linejoin:round;stroke-miterlimit:10;stroke-dasharray:none;stroke-opacity:1"
         id="path45514"
         inkscape:connector-curvature="0" /><path
         d="M 71.59,83.751 C 66.789,79.888 56.02,72.181 60.23,68.349 c 4.208,-3.828 11.79,5.691 20.508,5.832 8.731,0.148 28.321,-6 31.832,-4.949 3.52,1.047 0.75,10.129 -10.722,11.226 C 92.559,81.349 94.078,90.97 89.027,91.509 83.988,92.06 76.391,87.618 71.59,83.751 Z"
         style="fill:#a6a6a6;fill-opacity:1;fill-rule:evenodd;stroke:#000000;stroke-width:0.95999998;stroke-linecap:square;stroke-linejoin:round;stroke-miterlimit:10;stroke-dasharray:none;stroke-opacity:1"
         id="path45516"
         inkscape:connector-curvature="0" /><path
         d="m 66.141,37.779 c 0.648,-1.969 25.136,-7.141 32.027,-4.059 6.902,3.078 1.41,11.148 -3.93,11.828 -5.34,0.684 -28.758,-5.797 -28.097,-7.769 z"
         style="fill:#a6a6a6;fill-opacity:1;fill-rule:evenodd;stroke:#000000;stroke-width:0.95999998;stroke-linecap:square;stroke-linejoin:round;stroke-miterlimit:10;stroke-dasharray:none;stroke-opacity:1"
         id="path45518"
         inkscape:connector-curvature="0" /><path
         d="m 86.039,110.341 c 0,1.09 0.969,1.981 2.16,1.981 1.192,0 2.16,-0.891 2.16,-1.981 0,-1.09 -0.968,-1.98 -2.16,-1.98 -1.191,0 -2.16,0.89 -2.16,1.98 z"
         style="fill:#00ae4f;fill-opacity:1;fill-rule:evenodd;stroke:#000000;stroke-width:0.95999998;stroke-linecap:square;stroke-linejoin:round;stroke-miterlimit:10;stroke-dasharray:none;stroke-opacity:1"
         id="path45520"
         inkscape:connector-curvature="0" /><path
         d="m 84.379,114.767 -0.422,-2.094 h -0.25 c -0.023,0.602 -0.152,1.047 -0.391,1.328 -0.23,0.282 -0.523,0.422 -0.875,0.422 -0.281,0 -0.507,-0.078 -0.671,-0.234 -0.168,-0.156 -0.25,-0.344 -0.25,-0.563 0,-0.156 0.031,-0.304 0.093,-0.437 0.063,-0.137 0.207,-0.324 0.438,-0.563 0.594,-0.656 0.972,-1.152 1.14,-1.484 0.176,-0.324 0.266,-0.633 0.266,-0.922 0,-0.469 -0.199,-0.891 -0.594,-1.266 -0.398,-0.367 -0.89,-0.546 -1.484,-0.546 -0.336,0 -0.715,0.078 -1.141,0.234 -0.148,0.062 -0.261,0.094 -0.343,0.094 -0.211,0 -0.368,-0.11 -0.469,-0.328 h -0.25 l 0.406,2.218 h 0.266 c 0.019,-0.687 0.16,-1.179 0.422,-1.468 0.257,-0.282 0.613,-0.422 1.062,-0.422 0.352,0 0.629,0.093 0.828,0.281 0.207,0.195 0.313,0.437 0.313,0.719 0,0.175 -0.039,0.343 -0.11,0.5 -0.136,0.281 -0.406,0.66 -0.812,1.14 -0.406,0.477 -0.668,0.836 -0.781,1.078 -0.118,0.25 -0.172,0.493 -0.172,0.735 0,0.437 0.156,0.804 0.468,1.109 0.321,0.313 0.739,0.469 1.25,0.469 0.145,0 0.274,-0.012 0.391,-0.031 0.063,-0.024 0.211,-0.078 0.453,-0.172 0.238,-0.086 0.395,-0.125 0.469,-0.125 0.195,0 0.359,0.109 0.484,0.328 z"
         style="fill:#00ae4f;fill-opacity:1;fill-rule:nonzero;stroke:none"
         id="path45522"
         inkscape:connector-curvature="0" /><path
         d="m 187.438,83.939 c 0,1.09 0.972,1.98 2.16,1.98 1.191,0 2.16,-0.89 2.16,-1.98 0,-1.09 -0.969,-1.981 -2.16,-1.981 -1.188,0 -2.16,0.891 -2.16,1.981 z"
         style="fill:#ff0000;fill-opacity:1;fill-rule:evenodd;stroke:#000000;stroke-width:0.95999998;stroke-linecap:square;stroke-linejoin:round;stroke-miterlimit:10;stroke-dasharray:none;stroke-opacity:1"
         id="path45524"
         inkscape:connector-curvature="0" /><path
         d="m 202.227,88.857 -0.204,-0.719 h -1.14 c 0.082,-0.242 0.125,-0.469 0.125,-0.688 0,-0.605 -0.258,-1.14 -0.766,-1.609 -0.512,-0.469 -1.215,-0.73 -2.109,-0.781 -0.492,-0.149 -0.856,-0.32 -1.094,-0.516 -0.094,-0.074 -0.141,-0.148 -0.141,-0.219 0,-0.093 0.04,-0.179 0.125,-0.25 0.082,-0.074 0.29,-0.152 0.625,-0.234 l 1.329,-0.312 c 0.726,-0.168 1.211,-0.371 1.453,-0.61 0.238,-0.238 0.359,-0.515 0.359,-0.828 0,-0.375 -0.141,-0.719 -0.422,-1.031 -0.273,-0.313 -0.672,-0.551 -1.203,-0.719 -0.531,-0.176 -1.121,-0.266 -1.766,-0.266 -0.562,0 -1.078,0.071 -1.546,0.204 -0.469,0.125 -0.805,0.304 -1,0.531 -0.196,0.23 -0.297,0.465 -0.297,0.703 0,0.199 0.07,0.406 0.203,0.625 0.125,0.211 0.285,0.383 0.484,0.516 0.125,0.086 0.473,0.289 1.047,0.609 -0.211,0.164 -0.312,0.348 -0.312,0.547 0,0.176 0.086,0.367 0.265,0.578 0.188,0.207 0.578,0.43 1.172,0.672 -0.5,0.101 -0.898,0.316 -1.187,0.64 -0.293,0.321 -0.438,0.68 -0.438,1.079 0,0.644 0.281,1.222 0.844,1.734 0.57,0.508 1.328,0.766 2.265,0.766 0.344,0 0.625,-0.039 0.844,-0.11 0.219,-0.062 0.43,-0.168 0.641,-0.312 z m -2.375,-1.078 c 0,0.363 -0.106,0.648 -0.313,0.859 -0.199,0.207 -0.461,0.312 -0.781,0.312 -0.524,0 -0.949,-0.261 -1.281,-0.781 -0.336,-0.511 -0.5,-1.047 -0.5,-1.609 0,-0.344 0.101,-0.633 0.312,-0.86 0.219,-0.218 0.477,-0.328 0.781,-0.328 0.239,0 0.473,0.063 0.703,0.188 0.227,0.133 0.422,0.316 0.579,0.547 0.156,0.238 0.273,0.535 0.359,0.89 0.094,0.364 0.141,0.625 0.141,0.782 z m -3.282,-4.688 c -0.367,-0.164 -0.64,-0.379 -0.828,-0.641 -0.187,-0.269 -0.281,-0.531 -0.281,-0.781 0,-0.301 0.133,-0.551 0.406,-0.75 0.395,-0.281 0.969,-0.422 1.719,-0.422 0.656,0 1.211,0.11 1.672,0.328 0.469,0.219 0.703,0.508 0.703,0.86 0,0.18 -0.09,0.351 -0.266,0.515 -0.168,0.157 -0.496,0.282 -0.984,0.375 -0.273,0.055 -0.984,0.227 -2.141,0.516 z"
         style="fill:#ff0000;fill-opacity:1;fill-rule:nonzero;stroke:none"
         id="path45526"
         inkscape:connector-curvature="0" /><path
         d="M 503.277,139.079 H 744.48 V 0.36 H 503.277 Z"
         style="fill:#a6a6a6;fill-opacity:1;fill-rule:evenodd;stroke:#000000;stroke-width:0.72000003;stroke-linecap:butt;stroke-linejoin:miter;stroke-miterlimit:8;stroke-dasharray:none;stroke-opacity:1"
         id="path45528"
         inkscape:connector-curvature="0" /><path
         d="m 523.93,42.368 c -0.52,11.231 -13.02,30.09 -8.11,38.922 4.989,8.821 29.309,5.192 37.789,14.078 8.489,8.883 -5.14,36.282 13.18,39.25 18.328,2.981 76.219,-21.089 96.82,-21.398 20.602,-0.309 15.532,17.359 26.821,19.578 11.258,2.231 37.519,0.063 40.8,-6.168 3.25,-6.242 -21.339,-17.281 -21.16,-31.281 0.168,-13.539 -11.05,-24.981 -10.242,-29.027 1.121,-5.633 22.442,-17.122 26.211,-17.372 3.77,-0.242 -4.91,12.36 -3.57,15.879 2.019,5.282 16,23.301 16.59,14.539 0.582,-8.757 -5.84,-62.207 -13.059,-67.058 -7.23,-4.852 -18.223,32.422 -30.32,38 -12.16,5.551 -32.379,0.41 -42.321,-4.59 -9.961,-5.02 -3.3,-20.832 -17.5,-25.449 -14.191,-4.633 -46.75,1.179 -67.55,-2.352 -20.821,-3.508 -41.848,-8.07 -49.25,-3.988 -7.411,4.078 5.449,17.199 4.871,28.437 z"
         style="fill:#ffffff;fill-opacity:1;fill-rule:evenodd;stroke:#000000;stroke-width:0.95999998;stroke-linecap:square;stroke-linejoin:round;stroke-miterlimit:8;stroke-dasharray:none;stroke-opacity:1"
         id="path45530"
         inkscape:connector-curvature="0" /><path
         d="m 623.688,109.841 c -3.02,-4.672 3.55,-21.953 7.632,-29.453 4.078,-7.5 11.731,-16.297 16.848,-15.547 5.121,0.758 12.77,14.16 13.883,20.07 1.109,5.911 -6.223,19.348 -12.613,23.508 -6.387,4.153 -22.727,6.09 -25.75,1.422 z"
         style="fill:#a6a6a6;fill-opacity:1;fill-rule:evenodd;stroke:#000000;stroke-width:0.95999998;stroke-linecap:square;stroke-linejoin:round;stroke-miterlimit:8;stroke-dasharray:none;stroke-opacity:1"
         id="path45532"
         inkscape:connector-curvature="0" /><path
         d="m 574.48,83.751 c -4.792,-3.863 -15.531,-11.57 -11.332,-15.402 4.2,-3.828 11.762,5.691 20.469,5.832 8.703,0.148 28.25,-6 31.762,-4.949 3.512,1.047 0.738,10.129 -10.699,11.226 -9.282,0.891 -7.762,10.512 -12.789,11.051 -5.043,0.551 -12.621,-3.891 -17.411,-7.758 z"
         style="fill:#a6a6a6;fill-opacity:1;fill-rule:evenodd;stroke:#000000;stroke-width:0.95999998;stroke-linecap:square;stroke-linejoin:round;stroke-miterlimit:8;stroke-dasharray:none;stroke-opacity:1"
         id="path45534"
         inkscape:connector-curvature="0" /><path
         d="m 569.059,37.779 c 0.652,-1.969 25.14,-7.141 32.031,-4.059 6.898,3.078 1.41,11.148 -3.93,11.828 -5.34,0.684 -28.762,-5.797 -28.101,-7.769 z"
         style="fill:#a6a6a6;fill-opacity:1;fill-rule:evenodd;stroke:#000000;stroke-width:0.95999998;stroke-linecap:square;stroke-linejoin:round;stroke-miterlimit:8;stroke-dasharray:none;stroke-opacity:1"
         id="path45536"
         inkscape:connector-curvature="0" /><path
         d="m 590.82,110.259 25.61,1.16 11.789,-34.82 23.332,-18.098 44.148,2.27 -2.961,23.609"
         style="fill:none;stroke:#006ebf;stroke-width:2.27999997;stroke-linecap:butt;stroke-linejoin:miter;stroke-miterlimit:8;stroke-dasharray:none;stroke-opacity:1"
         id="path45538"
         inkscape:connector-curvature="0" /><path
         d="M 603.961,55.048 556.527,36.72 c 0.012,10.371 -4.418,27.141 -4.41,37.512 l 22.262,25.519 16.57,10.289"
         style="fill:none;stroke:#000000;stroke-width:0.95999998;stroke-linecap:butt;stroke-linejoin:miter;stroke-miterlimit:8;stroke-dasharray:none;stroke-opacity:1"
         id="path45540"
         inkscape:connector-curvature="0" /><path
         d="m 692.039,84.599 4.199,33.84"
         style="fill:none;stroke:#000000;stroke-width:0.95999998;stroke-linecap:butt;stroke-linejoin:miter;stroke-miterlimit:8;stroke-dasharray:none;stroke-opacity:1"
         id="path45542"
         inkscape:connector-curvature="0" /><path
         d="M 651.238,58.759 631.73,28.919 627.117,77.04"
         style="fill:none;stroke:#000000;stroke-width:0.95999998;stroke-linecap:butt;stroke-linejoin:miter;stroke-miterlimit:8;stroke-dasharray:none;stroke-opacity:1"
         id="path45544"
         inkscape:connector-curvature="0" /><path
         d="m 588.961,110.341 c 0,1.09 0.969,1.981 2.156,1.981 1.192,0 2.16,-0.891 2.16,-1.981 0,-1.09 -0.968,-1.98 -2.16,-1.98 -1.187,0 -2.156,0.89 -2.156,1.98 z"
         style="fill:#00ae4f;fill-opacity:1;fill-rule:evenodd;stroke:#000000;stroke-width:0.95999998;stroke-linecap:square;stroke-linejoin:round;stroke-miterlimit:8;stroke-dasharray:none;stroke-opacity:1"
         id="path45546"
         inkscape:connector-curvature="0" /><path
         d="m 587.336,114.767 -0.422,-2.094 h -0.25 c -0.023,0.602 -0.152,1.047 -0.391,1.328 -0.23,0.282 -0.523,0.422 -0.875,0.422 -0.281,0 -0.507,-0.078 -0.671,-0.234 -0.168,-0.156 -0.25,-0.344 -0.25,-0.563 0,-0.156 0.031,-0.304 0.093,-0.437 0.063,-0.137 0.207,-0.324 0.438,-0.563 0.594,-0.656 0.972,-1.152 1.14,-1.484 0.176,-0.324 0.266,-0.633 0.266,-0.922 0,-0.469 -0.199,-0.891 -0.594,-1.266 -0.398,-0.367 -0.89,-0.546 -1.484,-0.546 -0.336,0 -0.715,0.078 -1.141,0.234 -0.148,0.062 -0.261,0.094 -0.343,0.094 -0.211,0 -0.368,-0.11 -0.469,-0.328 h -0.25 l 0.406,2.218 h 0.266 c 0.019,-0.687 0.16,-1.179 0.422,-1.468 0.257,-0.282 0.613,-0.422 1.062,-0.422 0.352,0 0.629,0.093 0.828,0.281 0.207,0.195 0.313,0.437 0.313,0.719 0,0.175 -0.039,0.343 -0.11,0.5 -0.136,0.281 -0.406,0.66 -0.812,1.14 -0.406,0.477 -0.668,0.836 -0.781,1.078 -0.118,0.25 -0.172,0.493 -0.172,0.735 0,0.437 0.156,0.804 0.468,1.109 0.321,0.313 0.739,0.469 1.25,0.469 0.145,0 0.274,-0.012 0.391,-0.031 0.063,-0.024 0.211,-0.078 0.453,-0.172 0.238,-0.086 0.395,-0.125 0.469,-0.125 0.195,0 0.359,0.109 0.484,0.328 z"
         style="fill:#00ae4f;fill-opacity:1;fill-rule:nonzero;stroke:none"
         id="path45548"
         inkscape:connector-curvature="0" /><path
         d="M 696.117,119.04 679.801,108.708 692.16,84.118"
         style="fill:none;stroke:#000000;stroke-width:0.95999998;stroke-linecap:butt;stroke-linejoin:miter;stroke-miterlimit:8;stroke-dasharray:none;stroke-opacity:1"
         id="path45550"
         inkscape:connector-curvature="0" /><path
         d="M 627.008,77.638 603.359,54.95 631.438,28.798"
         style="fill:none;stroke:#000000;stroke-width:0.95999998;stroke-linecap:butt;stroke-linejoin:miter;stroke-miterlimit:8;stroke-dasharray:none;stroke-opacity:1"
         id="path45552"
         inkscape:connector-curvature="0" /><path
         d="M 557.039,36.72 537.238,19.919"
         style="fill:none;stroke:#000000;stroke-width:0.95999998;stroke-linecap:butt;stroke-linejoin:miter;stroke-miterlimit:8;stroke-dasharray:none;stroke-opacity:1"
         id="path45554"
         inkscape:connector-curvature="0" /><path
         d="m 614.16,110.822 c 0,1.089 0.969,1.976 2.16,1.976 1.188,0 2.16,-0.887 2.16,-1.976 0,-1.09 -0.972,-1.981 -2.16,-1.981 -1.191,0 -2.16,0.891 -2.16,1.981 z"
         style="fill:#ffff00;fill-opacity:1;fill-rule:evenodd;stroke:#000000;stroke-width:0.95999998;stroke-linecap:square;stroke-linejoin:round;stroke-miterlimit:8;stroke-dasharray:none;stroke-opacity:1"
         id="path45556"
         inkscape:connector-curvature="0" /><path
         d="m 625.199,77.099 c 0,1.09 0.969,1.98 2.16,1.98 1.192,0 2.161,-0.89 2.161,-1.98 0,-1.09 -0.969,-1.981 -2.161,-1.981 -1.191,0 -2.16,0.891 -2.16,1.981 z"
         style="fill:#ffff00;fill-opacity:1;fill-rule:evenodd;stroke:#000000;stroke-width:0.95999998;stroke-linecap:square;stroke-linejoin:round;stroke-miterlimit:8;stroke-dasharray:none;stroke-opacity:1"
         id="path45558"
         inkscape:connector-curvature="0" /><path
         d="m 572.398,100.021 c 0,1.09 0.969,1.98 2.161,1.98 1.191,0 2.16,-0.89 2.16,-1.98 0,-1.09 -0.969,-1.981 -2.16,-1.981 -1.192,0 -2.161,0.891 -2.161,1.981 z"
         style="fill:#ffff00;fill-opacity:1;fill-rule:evenodd;stroke:#000000;stroke-width:0.95999998;stroke-linecap:square;stroke-linejoin:round;stroke-miterlimit:8;stroke-dasharray:none;stroke-opacity:1"
         id="path45560"
         inkscape:connector-curvature="0" /><path
         d="m 601.199,55.138 c 0,1.094 0.969,1.98 2.16,1.98 1.192,0 2.161,-0.886 2.161,-1.98 0,-1.09 -0.969,-1.977 -2.161,-1.977 -1.191,0 -2.16,0.887 -2.16,1.977 z"
         style="fill:#ffff00;fill-opacity:1;fill-rule:evenodd;stroke:#000000;stroke-width:0.95999998;stroke-linecap:square;stroke-linejoin:round;stroke-miterlimit:8;stroke-dasharray:none;stroke-opacity:1"
         id="path45562"
         inkscape:connector-curvature="0" /><path
         d="m 550.801,74.939 c 0,1.09 0.969,1.98 2.16,1.98 1.187,0 2.156,-0.89 2.156,-1.98 0,-1.09 -0.969,-1.981 -2.156,-1.981 -1.191,0 -2.16,0.891 -2.16,1.981 z"
         style="fill:#ffff00;fill-opacity:1;fill-rule:evenodd;stroke:#000000;stroke-width:0.95999998;stroke-linecap:square;stroke-linejoin:round;stroke-miterlimit:8;stroke-dasharray:none;stroke-opacity:1"
         id="path45564"
         inkscape:connector-curvature="0" /><path
         d="m 629.52,29.22 c 0,1.09 0.941,1.98 2.097,1.98 1.16,0 2.102,-0.89 2.102,-1.98 0,-1.09 -0.942,-1.98 -2.102,-1.98 -1.156,0 -2.097,0.89 -2.097,1.98 z"
         style="fill:#ffff00;fill-opacity:1;fill-rule:evenodd;stroke:#000000;stroke-width:0.95999998;stroke-linecap:square;stroke-linejoin:round;stroke-miterlimit:8;stroke-dasharray:none;stroke-opacity:1"
         id="path45566"
         inkscape:connector-curvature="0" /><path
         d="m 555.117,36.419 c 0,1.09 0.942,1.981 2.102,1.981 1.16,0 2.101,-0.891 2.101,-1.981 0,-1.09 -0.941,-1.98 -2.101,-1.98 -1.16,0 -2.102,0.89 -2.102,1.98 z"
         style="fill:#ffff00;fill-opacity:1;fill-rule:evenodd;stroke:#000000;stroke-width:0.95999998;stroke-linecap:square;stroke-linejoin:round;stroke-miterlimit:8;stroke-dasharray:none;stroke-opacity:1"
         id="path45568"
         inkscape:connector-curvature="0" /><path
         d="m 649.438,58.618 c 0,1.09 0.941,1.981 2.101,1.981 1.16,0 2.102,-0.891 2.102,-1.981 0,-1.089 -0.942,-1.98 -2.102,-1.98 -1.16,0 -2.101,0.891 -2.101,1.98 z"
         style="fill:#ffff00;fill-opacity:1;fill-rule:evenodd;stroke:#000000;stroke-width:0.95999998;stroke-linecap:square;stroke-linejoin:round;stroke-miterlimit:8;stroke-dasharray:none;stroke-opacity:1"
         id="path45570"
         inkscape:connector-curvature="0" /><path
         d="m 677.16,108.181 c 0,1.09 0.969,1.98 2.16,1.98 1.188,0 2.16,-0.89 2.16,-1.98 0,-1.09 -0.972,-1.981 -2.16,-1.981 -1.191,0 -2.16,0.891 -2.16,1.981 z"
         style="fill:#ffff00;fill-opacity:1;fill-rule:evenodd;stroke:#000000;stroke-width:0.95999998;stroke-linecap:square;stroke-linejoin:round;stroke-miterlimit:8;stroke-dasharray:none;stroke-opacity:1"
         id="path45572"
         inkscape:connector-curvature="0" /><path
         d="m 694.078,118.501 c 0,1.09 0.973,1.981 2.16,1.981 1.192,0 2.16,-0.891 2.16,-1.981 0,-1.09 -0.968,-1.98 -2.16,-1.98 -1.187,0 -2.16,0.89 -2.16,1.98 z"
         style="fill:#ffff00;fill-opacity:1;fill-rule:evenodd;stroke:#000000;stroke-width:0.95999998;stroke-linecap:square;stroke-linejoin:round;stroke-miterlimit:8;stroke-dasharray:none;stroke-opacity:1"
         id="path45574"
         inkscape:connector-curvature="0" /><path
         d="m 727.918,62.822 c 0,1.089 0.973,1.976 2.16,1.976 1.192,0 2.16,-0.887 2.16,-1.976 0,-1.09 -0.968,-1.981 -2.16,-1.981 -1.187,0 -2.16,0.891 -2.16,1.981 z"
         style="fill:#ffff00;fill-opacity:1;fill-rule:evenodd;stroke:#000000;stroke-width:0.95999998;stroke-linecap:square;stroke-linejoin:round;stroke-miterlimit:8;stroke-dasharray:none;stroke-opacity:1"
         id="path45576"
         inkscape:connector-curvature="0" /><path
         d="m 693.961,61.259 c 0,1.09 0.937,1.981 2.098,1.981 1.16,0 2.101,-0.891 2.101,-1.981 0,-1.09 -0.941,-1.98 -2.101,-1.98 -1.161,0 -2.098,0.89 -2.098,1.98 z"
         style="fill:#ffff00;fill-opacity:1;fill-rule:evenodd;stroke:#000000;stroke-width:0.95999998;stroke-linecap:square;stroke-linejoin:round;stroke-miterlimit:8;stroke-dasharray:none;stroke-opacity:1"
         id="path45578"
         inkscape:connector-curvature="0" /><path
         d="m 535.559,20.22 c 0,1.09 0.941,1.98 2.101,1.98 1.16,0 2.098,-0.89 2.098,-1.98 0,-1.09 -0.938,-1.98 -2.098,-1.98 -1.16,0 -2.101,0.89 -2.101,1.98 z"
         style="fill:#ffff00;fill-opacity:1;fill-rule:evenodd;stroke:#000000;stroke-width:0.95999998;stroke-linecap:square;stroke-linejoin:round;stroke-miterlimit:8;stroke-dasharray:none;stroke-opacity:1"
         id="path45580"
         inkscape:connector-curvature="0" /><path
         d="M 252.598,139.079 H 493.801 V 0.36 H 252.598 Z"
         style="fill:#a6a6a6;fill-opacity:1;fill-rule:evenodd;stroke:#000000;stroke-width:0.72000003;stroke-linecap:butt;stroke-linejoin:miter;stroke-miterlimit:8;stroke-dasharray:none;stroke-opacity:1"
         id="path45582"
         inkscape:connector-curvature="0" /><path
         d="m 273.25,42.368 c -0.52,11.231 -13.02,30.09 -8.109,38.922 4.988,8.821 29.308,5.192 37.789,14.078 8.488,8.883 -5.141,36.282 13.179,39.25 18.329,2.981 76.219,-21.089 96.821,-21.398 20.597,-0.309 15.531,17.359 26.82,19.578 11.258,2.231 37.52,0.063 40.801,-6.168 3.25,-6.242 -21.34,-17.281 -21.16,-31.281 C 459.559,81.81 448.34,70.368 449.148,66.322 450.27,60.689 471.59,49.2 475.359,48.95 c 3.77,-0.242 -4.91,12.36 -3.57,15.879 2.02,5.282 16,23.301 16.59,14.539 0.582,-8.757 -5.84,-62.207 -13.059,-67.058 -7.23,-4.852 -18.222,32.422 -30.32,38 -12.16,5.551 -32.383,0.41 -42.32,-4.59 -9.961,-5.02 -3.301,-20.832 -17.5,-25.449 -14.192,-4.633 -46.75,1.179 -67.551,-2.352 -20.82,-3.508 -41.852,-8.07 -49.25,-3.988 -7.41,4.078 5.449,17.199 4.871,28.437 z"
         style="fill:#ffffff;fill-opacity:1;fill-rule:evenodd;stroke:#000000;stroke-width:0.95999998;stroke-linecap:square;stroke-linejoin:round;stroke-miterlimit:8;stroke-dasharray:none;stroke-opacity:1"
         id="path45584"
         inkscape:connector-curvature="0" /><path
         d="m 373.008,109.841 c -3.028,-4.672 3.562,-21.953 7.652,-29.453 4.098,-7.5 11.77,-16.297 16.91,-15.547 5.129,0.758 12.809,14.16 13.918,20.07 1.11,5.911 -6.238,19.348 -12.648,23.508 -6.41,4.153 -22.801,6.09 -25.832,1.422 z"
         style="fill:#a6a6a6;fill-opacity:1;fill-rule:evenodd;stroke:#000000;stroke-width:0.95999998;stroke-linecap:square;stroke-linejoin:round;stroke-miterlimit:8;stroke-dasharray:none;stroke-opacity:1"
         id="path45586"
         inkscape:connector-curvature="0" /><path
         d="m 323.801,83.751 c -4.793,-3.863 -15.531,-11.57 -11.332,-15.402 4.199,-3.828 11.761,5.691 20.469,5.832 8.703,0.148 28.25,-6 31.761,-4.949 3.512,1.047 0.739,10.129 -10.699,11.226 -9.281,0.891 -7.762,10.512 -12.789,11.051 -5.043,0.551 -12.621,-3.891 -17.41,-7.758 z"
         style="fill:#a6a6a6;fill-opacity:1;fill-rule:evenodd;stroke:#000000;stroke-width:0.95999998;stroke-linecap:square;stroke-linejoin:round;stroke-miterlimit:8;stroke-dasharray:none;stroke-opacity:1"
         id="path45588"
         inkscape:connector-curvature="0" /><path
         d="m 318.379,37.779 c 0.648,-1.969 25.141,-7.141 32.031,-4.059 6.899,3.078 1.41,11.148 -3.93,11.828 -5.339,0.684 -28.761,-5.797 -28.101,-7.769 z"
         style="fill:#a6a6a6;fill-opacity:1;fill-rule:evenodd;stroke:#000000;stroke-width:0.95999998;stroke-linecap:square;stroke-linejoin:round;stroke-miterlimit:8;stroke-dasharray:none;stroke-opacity:1"
         id="path45590"
         inkscape:connector-curvature="0" /><path
         d="m 301.438,74.279 22.292,25.48 16.59,10.281"
         style="fill:none;stroke:#000000;stroke-width:0.95999998;stroke-linecap:butt;stroke-linejoin:miter;stroke-miterlimit:8;stroke-dasharray:none;stroke-opacity:1"
         id="path45592"
         inkscape:connector-curvature="0" /><path
         d="m 441.359,84.599 4.2,33.84"
         style="fill:none;stroke:#000000;stroke-width:0.95999998;stroke-linecap:butt;stroke-linejoin:miter;stroke-miterlimit:8;stroke-dasharray:none;stroke-opacity:1"
         id="path45594"
         inkscape:connector-curvature="0" /><path
         d="M 400.559,58.798 381.117,28.919"
         style="fill:none;stroke:#000000;stroke-width:0.95999998;stroke-linecap:butt;stroke-linejoin:miter;stroke-miterlimit:8;stroke-dasharray:none;stroke-opacity:1"
         id="path45596"
         inkscape:connector-curvature="0" /><path
         d="m 338.277,110.341 c 0,1.09 0.973,1.981 2.161,1.981 1.191,0 2.16,-0.891 2.16,-1.981 0,-1.09 -0.969,-1.98 -2.16,-1.98 -1.188,0 -2.161,0.89 -2.161,1.98 z"
         style="fill:#00ae4f;fill-opacity:1;fill-rule:evenodd;stroke:#000000;stroke-width:0.95999998;stroke-linecap:square;stroke-linejoin:round;stroke-miterlimit:8;stroke-dasharray:none;stroke-opacity:1"
         id="path45598"
         inkscape:connector-curvature="0" /><path
         d="m 336.637,114.767 -0.422,-2.094 h -0.25 c -0.024,0.602 -0.152,1.047 -0.391,1.328 -0.23,0.282 -0.523,0.422 -0.875,0.422 -0.281,0 -0.508,-0.078 -0.672,-0.234 -0.168,-0.156 -0.25,-0.344 -0.25,-0.563 0,-0.156 0.032,-0.304 0.094,-0.437 0.063,-0.137 0.207,-0.324 0.438,-0.563 0.593,-0.656 0.972,-1.152 1.14,-1.484 0.176,-0.324 0.266,-0.633 0.266,-0.922 0,-0.469 -0.199,-0.891 -0.594,-1.266 -0.398,-0.367 -0.891,-0.546 -1.484,-0.546 -0.336,0 -0.715,0.078 -1.141,0.234 -0.148,0.062 -0.262,0.094 -0.344,0.094 -0.211,0 -0.367,-0.11 -0.468,-0.328 h -0.25 l 0.406,2.218 h 0.265 c 0.02,-0.687 0.161,-1.179 0.422,-1.468 0.258,-0.282 0.614,-0.422 1.063,-0.422 0.351,0 0.629,0.093 0.828,0.281 0.207,0.195 0.312,0.437 0.312,0.719 0,0.175 -0.039,0.343 -0.109,0.5 -0.137,0.281 -0.406,0.66 -0.812,1.14 -0.407,0.477 -0.668,0.836 -0.782,1.078 -0.117,0.25 -0.172,0.493 -0.172,0.735 0,0.437 0.157,0.804 0.469,1.109 0.321,0.313 0.739,0.469 1.25,0.469 0.145,0 0.274,-0.012 0.391,-0.031 0.062,-0.024 0.211,-0.078 0.453,-0.172 0.238,-0.086 0.395,-0.125 0.469,-0.125 0.195,0 0.359,0.109 0.484,0.328 z"
         style="fill:#00ae4f;fill-opacity:1;fill-rule:nonzero;stroke:none"
         id="path45600"
         inkscape:connector-curvature="0" /><path
         d="m 352.68,54.958 28.078,-26.16"
         style="fill:none;stroke:#000000;stroke-width:0.95999998;stroke-linecap:butt;stroke-linejoin:miter;stroke-miterlimit:8;stroke-dasharray:none;stroke-opacity:1"
         id="path45602"
         inkscape:connector-curvature="0" /><path
         d="m 350.52,55.138 c 0,1.094 0.968,1.98 2.16,1.98 1.187,0 2.16,-0.886 2.16,-1.98 0,-1.09 -0.973,-1.977 -2.16,-1.977 -1.192,0 -2.16,0.887 -2.16,1.977 z"
         style="fill:#ffff00;fill-opacity:1;fill-rule:evenodd;stroke:#000000;stroke-width:0.95999998;stroke-linecap:square;stroke-linejoin:round;stroke-miterlimit:8;stroke-dasharray:none;stroke-opacity:1"
         id="path45604"
         inkscape:connector-curvature="0" /><path
         d="m 300.117,74.939 c 0,1.09 0.973,1.98 2.16,1.98 1.192,0 2.161,-0.89 2.161,-1.98 0,-1.09 -0.969,-1.981 -2.161,-1.981 -1.187,0 -2.16,0.891 -2.16,1.981 z"
         style="fill:#ffff00;fill-opacity:1;fill-rule:evenodd;stroke:#000000;stroke-width:0.95999998;stroke-linecap:square;stroke-linejoin:round;stroke-miterlimit:8;stroke-dasharray:none;stroke-opacity:1"
         id="path45606"
         inkscape:connector-curvature="0" /><path
         d="m 378.84,29.22 c 0,1.09 0.937,1.98 2.098,1.98 1.16,0 2.101,-0.89 2.101,-1.98 0,-1.09 -0.941,-1.98 -2.101,-1.98 -1.161,0 -2.098,0.89 -2.098,1.98 z"
         style="fill:#ffff00;fill-opacity:1;fill-rule:evenodd;stroke:#000000;stroke-width:0.95999998;stroke-linecap:square;stroke-linejoin:round;stroke-miterlimit:8;stroke-dasharray:none;stroke-opacity:1"
         id="path45608"
         inkscape:connector-curvature="0" /><path
         d="m 398.758,58.618 c 0,1.09 0.941,1.981 2.101,1.981 1.161,0 2.102,-0.891 2.102,-1.981 0,-1.089 -0.941,-1.98 -2.102,-1.98 -1.16,0 -2.101,0.891 -2.101,1.98 z"
         style="fill:#ffff00;fill-opacity:1;fill-rule:evenodd;stroke:#000000;stroke-width:0.95999998;stroke-linecap:square;stroke-linejoin:round;stroke-miterlimit:8;stroke-dasharray:none;stroke-opacity:1"
         id="path45610"
         inkscape:connector-curvature="0" /><path
         d="m 443.398,118.501 c 0,1.09 0.969,1.981 2.161,1.981 1.191,0 2.16,-0.891 2.16,-1.981 0,-1.09 -0.969,-1.98 -2.16,-1.98 -1.192,0 -2.161,0.89 -2.161,1.98 z"
         style="fill:#ffff00;fill-opacity:1;fill-rule:evenodd;stroke:#000000;stroke-width:0.95999998;stroke-linecap:square;stroke-linejoin:round;stroke-miterlimit:8;stroke-dasharray:none;stroke-opacity:1"
         id="path45612"
         inkscape:connector-curvature="0" /><path
         d="m 477.238,62.822 c 0,1.089 0.973,1.976 2.16,1.976 1.192,0 2.161,-0.887 2.161,-1.976 0,-1.09 -0.969,-1.981 -2.161,-1.981 -1.187,0 -2.16,0.891 -2.16,1.981 z"
         style="fill:#ffff00;fill-opacity:1;fill-rule:evenodd;stroke:#000000;stroke-width:0.95999998;stroke-linecap:square;stroke-linejoin:round;stroke-miterlimit:8;stroke-dasharray:none;stroke-opacity:1"
         id="path45614"
         inkscape:connector-curvature="0" /><path
         d="m 284.879,20.22 c 0,1.09 0.941,1.98 2.101,1.98 1.161,0 2.098,-0.89 2.098,-1.98 0,-1.09 -0.937,-1.98 -2.098,-1.98 -1.16,0 -2.101,0.89 -2.101,1.98 z"
         style="fill:#ffff00;fill-opacity:1;fill-rule:evenodd;stroke:#000000;stroke-width:0.95999998;stroke-linecap:square;stroke-linejoin:round;stroke-miterlimit:8;stroke-dasharray:none;stroke-opacity:1"
         id="path45616"
         inkscape:connector-curvature="0" /><path
         d="m 439.68,83.939 c 0,1.09 0.968,1.98 2.16,1.98 1.187,0 2.16,-0.89 2.16,-1.98 0,-1.09 -0.973,-1.981 -2.16,-1.981 -1.192,0 -2.16,0.891 -2.16,1.981 z"
         style="fill:#ff0000;fill-opacity:1;fill-rule:evenodd;stroke:#000000;stroke-width:0.95999998;stroke-linecap:square;stroke-linejoin:round;stroke-miterlimit:8;stroke-dasharray:none;stroke-opacity:1"
         id="path45618"
         inkscape:connector-curvature="0" /><path
         d="m 454.465,88.857 -0.203,-0.719 h -1.141 c 0.082,-0.242 0.125,-0.469 0.125,-0.688 0,-0.605 -0.258,-1.14 -0.766,-1.609 -0.511,-0.469 -1.214,-0.73 -2.109,-0.781 -0.492,-0.149 -0.855,-0.32 -1.094,-0.516 -0.093,-0.074 -0.14,-0.148 -0.14,-0.219 0,-0.093 0.039,-0.179 0.125,-0.25 0.082,-0.074 0.289,-0.152 0.625,-0.234 l 1.328,-0.312 c 0.726,-0.168 1.211,-0.371 1.453,-0.61 0.238,-0.238 0.359,-0.515 0.359,-0.828 0,-0.375 -0.14,-0.719 -0.422,-1.031 -0.273,-0.313 -0.671,-0.551 -1.203,-0.719 -0.531,-0.176 -1.121,-0.266 -1.765,-0.266 -0.563,0 -1.078,0.071 -1.547,0.204 -0.469,0.125 -0.805,0.304 -1,0.531 -0.195,0.23 -0.297,0.465 -0.297,0.703 0,0.199 0.07,0.406 0.203,0.625 0.125,0.211 0.285,0.383 0.484,0.516 0.125,0.086 0.473,0.289 1.047,0.609 -0.211,0.164 -0.312,0.348 -0.312,0.547 0,0.176 0.086,0.367 0.265,0.578 0.188,0.207 0.579,0.43 1.172,0.672 -0.5,0.101 -0.898,0.316 -1.187,0.64 -0.293,0.321 -0.438,0.68 -0.438,1.079 0,0.644 0.282,1.222 0.844,1.734 0.57,0.508 1.328,0.766 2.266,0.766 0.343,0 0.625,-0.039 0.843,-0.11 0.219,-0.062 0.43,-0.168 0.641,-0.312 z m -2.375,-1.078 c 0,0.363 -0.106,0.648 -0.313,0.859 -0.199,0.207 -0.461,0.312 -0.781,0.312 -0.523,0 -0.949,-0.261 -1.281,-0.781 -0.336,-0.511 -0.5,-1.047 -0.5,-1.609 0,-0.344 0.101,-0.633 0.312,-0.86 0.219,-0.218 0.477,-0.328 0.782,-0.328 0.238,0 0.472,0.063 0.703,0.188 0.226,0.133 0.422,0.316 0.578,0.547 0.156,0.238 0.273,0.535 0.359,0.89 0.094,0.364 0.141,0.625 0.141,0.782 z m -3.281,-4.688 c -0.368,-0.164 -0.641,-0.379 -0.829,-0.641 -0.187,-0.269 -0.281,-0.531 -0.281,-0.781 0,-0.301 0.133,-0.551 0.406,-0.75 0.395,-0.281 0.969,-0.422 1.719,-0.422 0.656,0 1.211,0.11 1.672,0.328 0.469,0.219 0.703,0.508 0.703,0.86 0,0.18 -0.09,0.351 -0.265,0.515 -0.168,0.157 -0.496,0.282 -0.985,0.375 -0.273,0.055 -0.984,0.227 -2.14,0.516 z"
         style="fill:#ff0000;fill-opacity:1;fill-rule:nonzero;stroke:none"
         id="path45620"
         inkscape:connector-curvature="0" /><path
         d="m 690.359,83.939 c 0,1.09 0.969,1.98 2.161,1.98 1.191,0 2.16,-0.89 2.16,-1.98 0,-1.09 -0.969,-1.981 -2.16,-1.981 -1.192,0 -2.161,0.891 -2.161,1.981 z"
         style="fill:#ff0000;fill-opacity:1;fill-rule:evenodd;stroke:#000000;stroke-width:0.95999998;stroke-linecap:square;stroke-linejoin:round;stroke-miterlimit:8;stroke-dasharray:none;stroke-opacity:1"
         id="path45622"
         inkscape:connector-curvature="0" /><path
         d="m 705.168,88.857 -0.203,-0.719 h -1.141 c 0.082,-0.242 0.125,-0.469 0.125,-0.688 0,-0.605 -0.258,-1.14 -0.765,-1.609 -0.512,-0.469 -1.215,-0.73 -2.11,-0.781 -0.492,-0.149 -0.855,-0.32 -1.094,-0.516 -0.093,-0.074 -0.14,-0.148 -0.14,-0.219 0,-0.093 0.039,-0.179 0.125,-0.25 0.082,-0.074 0.289,-0.152 0.625,-0.234 l 1.328,-0.312 c 0.727,-0.168 1.211,-0.371 1.453,-0.61 0.238,-0.238 0.359,-0.515 0.359,-0.828 0,-0.375 -0.14,-0.719 -0.421,-1.031 -0.274,-0.313 -0.672,-0.551 -1.204,-0.719 -0.531,-0.176 -1.121,-0.266 -1.765,-0.266 -0.563,0 -1.078,0.071 -1.547,0.204 -0.469,0.125 -0.805,0.304 -1,0.531 -0.195,0.23 -0.297,0.465 -0.297,0.703 0,0.199 0.07,0.406 0.203,0.625 0.125,0.211 0.285,0.383 0.485,0.516 0.125,0.086 0.472,0.289 1.046,0.609 -0.21,0.164 -0.312,0.348 -0.312,0.547 0,0.176 0.086,0.367 0.266,0.578 0.187,0.207 0.578,0.43 1.171,0.672 -0.5,0.101 -0.898,0.316 -1.187,0.64 -0.293,0.321 -0.438,0.68 -0.438,1.079 0,0.644 0.282,1.222 0.844,1.734 0.571,0.508 1.328,0.766 2.266,0.766 0.344,0 0.625,-0.039 0.844,-0.11 0.218,-0.062 0.429,-0.168 0.64,-0.312 z m -2.375,-1.078 c 0,0.363 -0.105,0.648 -0.313,0.859 -0.199,0.207 -0.46,0.312 -0.781,0.312 -0.523,0 -0.949,-0.261 -1.281,-0.781 -0.336,-0.511 -0.5,-1.047 -0.5,-1.609 0,-0.344 0.102,-0.633 0.312,-0.86 0.219,-0.218 0.477,-0.328 0.782,-0.328 0.238,0 0.472,0.063 0.703,0.188 0.226,0.133 0.422,0.316 0.578,0.547 0.156,0.238 0.273,0.535 0.359,0.89 0.094,0.364 0.141,0.625 0.141,0.782 z m -3.281,-4.688 c -0.367,-0.164 -0.641,-0.379 -0.828,-0.641 -0.188,-0.269 -0.282,-0.531 -0.282,-0.781 0,-0.301 0.133,-0.551 0.407,-0.75 0.394,-0.281 0.968,-0.422 1.718,-0.422 0.657,0 1.211,0.11 1.672,0.328 0.469,0.219 0.703,0.508 0.703,0.86 0,0.18 -0.089,0.351 -0.265,0.515 -0.168,0.157 -0.496,0.282 -0.985,0.375 -0.273,0.055 -0.984,0.227 -2.14,0.516 z"
         style="fill:#ff0000;fill-opacity:1;fill-rule:nonzero;stroke:none"
         id="path45624"
         inkscape:connector-curvature="0" /><path
         d="m 320.879,99.298 c 0,1.09 0.941,1.981 2.101,1.981 1.161,0 2.098,-0.891 2.098,-1.981 0,-1.09 -0.937,-1.976 -2.098,-1.976 -1.16,0 -2.101,0.886 -2.101,1.976 z"
         style="fill:#ffff00;fill-opacity:1;fill-rule:evenodd;stroke:#000000;stroke-width:0.95999998;stroke-linecap:square;stroke-linejoin:round;stroke-miterlimit:8;stroke-dasharray:none;stroke-opacity:1"
         id="path45626"
         inkscape:connector-curvature="0" /><path
         d="m 280.379,79.525 -0.578,-2.563 h -0.219 l -0.016,0.641 c -0.023,0.226 -0.07,0.437 -0.14,0.625 -0.074,0.187 -0.184,0.344 -0.328,0.469 -0.137,0.132 -0.313,0.238 -0.532,0.312 -0.211,0.082 -0.445,0.125 -0.703,0.125 -0.699,0 -1.312,-0.195 -1.843,-0.578 -0.668,-0.492 -1.188,-1.18 -1.563,-2.063 -0.312,-0.742 -0.469,-1.484 -0.469,-2.234 0,-0.773 0.223,-1.387 0.672,-1.844 0.445,-0.461 1.031,-0.687 1.75,-0.687 0.539,0 1.024,0.117 1.453,0.359 0.426,0.25 0.821,0.625 1.188,1.125 h 0.265 c -0.429,-0.687 -0.906,-1.195 -1.437,-1.515 -0.524,-0.321 -1.149,-0.485 -1.875,-0.485 -0.649,0 -1.219,0.137 -1.719,0.406 -0.5,0.282 -0.883,0.665 -1.14,1.157 -0.262,0.488 -0.391,1.015 -0.391,1.578 0,0.875 0.226,1.719 0.687,2.531 0.469,0.82 1.11,1.469 1.922,1.938 0.813,0.468 1.629,0.703 2.453,0.703 0.383,0 0.817,-0.09 1.297,-0.266 0.207,-0.086 0.36,-0.125 0.453,-0.125 0.094,0 0.176,0.02 0.25,0.063 0.071,0.039 0.192,0.148 0.36,0.328 z"
         style="fill:#000000;fill-opacity:1;fill-rule:nonzero;stroke:none"
         id="path45628"
         inkscape:connector-curvature="0" /><path
         d="m 288.418,79.525 -0.578,-2.563 h -0.219 l -0.016,0.641 c -0.023,0.226 -0.07,0.437 -0.14,0.625 -0.074,0.187 -0.184,0.344 -0.328,0.469 -0.137,0.132 -0.313,0.238 -0.532,0.312 -0.21,0.082 -0.445,0.125 -0.703,0.125 -0.699,0 -1.312,-0.195 -1.843,-0.578 -0.668,-0.492 -1.188,-1.18 -1.563,-2.063 -0.312,-0.742 -0.469,-1.484 -0.469,-2.234 0,-0.773 0.223,-1.387 0.672,-1.844 0.446,-0.461 1.031,-0.687 1.75,-0.687 0.539,0 1.024,0.117 1.453,0.359 0.426,0.25 0.821,0.625 1.188,1.125 h 0.265 c -0.429,-0.687 -0.906,-1.195 -1.437,-1.515 -0.523,-0.321 -1.148,-0.485 -1.875,-0.485 -0.648,0 -1.219,0.137 -1.719,0.406 -0.5,0.282 -0.883,0.665 -1.14,1.157 -0.262,0.488 -0.391,1.015 -0.391,1.578 0,0.875 0.227,1.719 0.687,2.531 0.469,0.82 1.11,1.469 1.922,1.938 0.813,0.468 1.629,0.703 2.453,0.703 0.383,0 0.817,-0.09 1.297,-0.266 0.207,-0.086 0.36,-0.125 0.453,-0.125 0.094,0 0.176,0.02 0.25,0.063 0.071,0.039 0.192,0.148 0.36,0.328 z"
         style="fill:#000000;fill-opacity:1;fill-rule:nonzero;stroke:none"
         id="path45630"
         inkscape:connector-curvature="0" /><path
         d="m 288.957,73.302 1.297,0.625 h 0.125 v -4.469 c 0,-0.304 0.008,-0.492 0.031,-0.562 0.031,-0.074 0.082,-0.133 0.156,-0.172 0.082,-0.031 0.243,-0.055 0.485,-0.063 v -0.14 h -2 v 0.14 c 0.25,0.008 0.41,0.032 0.484,0.063 0.07,0.039 0.125,0.094 0.156,0.156 0.032,0.063 0.047,0.254 0.047,0.578 v 2.86 c 0,0.382 -0.015,0.629 -0.047,0.734 -0.023,0.082 -0.058,0.145 -0.109,0.188 -0.043,0.039 -0.094,0.062 -0.156,0.062 -0.106,0 -0.242,-0.043 -0.406,-0.125 z"
         style="fill:#000000;fill-opacity:1;fill-rule:nonzero;stroke:none"
         id="path45632"
         inkscape:connector-curvature="0" /><path
         d="m 415.379,111.783 -0.578,-2.563 h -0.219 l -0.016,0.641 c -0.023,0.226 -0.07,0.437 -0.14,0.625 -0.074,0.187 -0.184,0.343 -0.328,0.468 -0.137,0.133 -0.313,0.239 -0.532,0.313 -0.211,0.082 -0.445,0.125 -0.703,0.125 -0.699,0 -1.312,-0.195 -1.843,-0.578 -0.668,-0.492 -1.188,-1.18 -1.563,-2.063 -0.312,-0.742 -0.469,-1.484 -0.469,-2.234 0,-0.774 0.223,-1.387 0.672,-1.844 0.445,-0.461 1.031,-0.687 1.75,-0.687 0.539,0 1.024,0.117 1.453,0.359 0.426,0.25 0.821,0.625 1.188,1.125 h 0.265 c -0.429,-0.687 -0.906,-1.195 -1.437,-1.516 -0.524,-0.32 -1.149,-0.484 -1.875,-0.484 -0.649,0 -1.219,0.137 -1.719,0.406 -0.5,0.282 -0.883,0.664 -1.14,1.157 -0.262,0.488 -0.391,1.015 -0.391,1.578 0,0.875 0.226,1.718 0.687,2.531 0.469,0.82 1.11,1.469 1.922,1.937 0.813,0.469 1.629,0.704 2.453,0.704 0.383,0 0.817,-0.09 1.297,-0.266 0.207,-0.086 0.36,-0.125 0.453,-0.125 0.094,0 0.176,0.019 0.25,0.062 0.071,0.039 0.192,0.149 0.36,0.329 z"
         style="fill:#000000;fill-opacity:1;fill-rule:nonzero;stroke:none"
         id="path45634"
         inkscape:connector-curvature="0" /><path
         d="m 423.418,111.783 -0.578,-2.563 h -0.219 l -0.016,0.641 c -0.023,0.226 -0.07,0.437 -0.14,0.625 -0.074,0.187 -0.184,0.343 -0.328,0.468 -0.137,0.133 -0.313,0.239 -0.532,0.313 -0.21,0.082 -0.445,0.125 -0.703,0.125 -0.699,0 -1.312,-0.195 -1.843,-0.578 -0.668,-0.492 -1.188,-1.18 -1.563,-2.063 -0.312,-0.742 -0.469,-1.484 -0.469,-2.234 0,-0.774 0.223,-1.387 0.672,-1.844 0.446,-0.461 1.031,-0.687 1.75,-0.687 0.539,0 1.024,0.117 1.453,0.359 0.426,0.25 0.821,0.625 1.188,1.125 h 0.265 c -0.429,-0.687 -0.906,-1.195 -1.437,-1.516 -0.523,-0.32 -1.148,-0.484 -1.875,-0.484 -0.648,0 -1.219,0.137 -1.719,0.406 -0.5,0.282 -0.883,0.664 -1.14,1.157 -0.262,0.488 -0.391,1.015 -0.391,1.578 0,0.875 0.227,1.718 0.687,2.531 0.469,0.82 1.11,1.469 1.922,1.937 0.813,0.469 1.629,0.704 2.453,0.704 0.383,0 0.817,-0.09 1.297,-0.266 0.207,-0.086 0.36,-0.125 0.453,-0.125 0.094,0 0.176,0.019 0.25,0.062 0.071,0.039 0.192,0.149 0.36,0.329 z"
         style="fill:#000000;fill-opacity:1;fill-rule:nonzero;stroke:none"
         id="path45636"
         inkscape:connector-curvature="0" /><path
         d="m 426.691,101.794 -0.375,-1.015 h -3.125 v 0.14 c 0.914,0.844 1.563,1.531 1.938,2.063 0.375,0.531 0.562,1.015 0.562,1.453 0,0.332 -0.105,0.609 -0.312,0.828 -0.199,0.219 -0.445,0.328 -0.734,0.328 -0.262,0 -0.497,-0.078 -0.704,-0.234 -0.199,-0.149 -0.351,-0.371 -0.453,-0.672 h -0.14 c 0.062,0.488 0.226,0.859 0.5,1.109 0.269,0.258 0.609,0.391 1.015,0.391 0.426,0 0.782,-0.141 1.063,-0.422 0.289,-0.273 0.437,-0.594 0.437,-0.969 0,-0.273 -0.062,-0.539 -0.187,-0.797 -0.188,-0.429 -0.5,-0.875 -0.938,-1.343 -0.648,-0.711 -1.054,-1.137 -1.218,-1.282 h 1.39 c 0.281,0 0.477,0.008 0.594,0.032 0.113,0.019 0.211,0.062 0.297,0.125 0.094,0.062 0.176,0.148 0.25,0.265 z"
         style="fill:#000000;fill-opacity:1;fill-rule:nonzero;stroke:none"
         id="path45638"
         inkscape:connector-curvature="0" /><path
         d="m 377.297,58.575 -0.578,-2.562 H 376.5 l -0.016,0.641 c -0.023,0.226 -0.07,0.437 -0.14,0.625 -0.074,0.187 -0.184,0.343 -0.328,0.468 -0.137,0.133 -0.313,0.239 -0.532,0.313 -0.211,0.082 -0.445,0.125 -0.703,0.125 -0.699,0 -1.312,-0.195 -1.843,-0.578 -0.668,-0.492 -1.188,-1.18 -1.563,-2.063 -0.312,-0.742 -0.469,-1.484 -0.469,-2.234 0,-0.774 0.223,-1.387 0.672,-1.844 0.445,-0.461 1.031,-0.687 1.75,-0.687 0.539,0 1.024,0.117 1.453,0.359 0.426,0.25 0.821,0.625 1.188,1.125 h 0.265 c -0.429,-0.688 -0.906,-1.195 -1.437,-1.516 -0.524,-0.32 -1.149,-0.484 -1.875,-0.484 -0.649,0 -1.219,0.137 -1.719,0.406 -0.5,0.281 -0.883,0.664 -1.14,1.156 -0.262,0.489 -0.391,1.016 -0.391,1.579 0,0.875 0.226,1.718 0.687,2.531 0.469,0.82 1.11,1.469 1.922,1.937 0.813,0.469 1.629,0.703 2.453,0.703 0.383,0 0.817,-0.089 1.297,-0.265 0.207,-0.086 0.36,-0.125 0.453,-0.125 0.094,0 0.176,0.019 0.25,0.062 0.071,0.039 0.192,0.149 0.36,0.328 z"
         style="fill:#000000;fill-opacity:1;fill-rule:nonzero;stroke:none"
         id="path45640"
         inkscape:connector-curvature="0" /><path
         d="m 385.336,58.575 -0.578,-2.562 h -0.219 l -0.016,0.641 c -0.023,0.226 -0.07,0.437 -0.14,0.625 -0.074,0.187 -0.184,0.343 -0.328,0.468 -0.137,0.133 -0.313,0.239 -0.532,0.313 -0.21,0.082 -0.445,0.125 -0.703,0.125 -0.699,0 -1.312,-0.195 -1.843,-0.578 -0.668,-0.492 -1.188,-1.18 -1.563,-2.063 -0.312,-0.742 -0.469,-1.484 -0.469,-2.234 0,-0.774 0.223,-1.387 0.672,-1.844 0.446,-0.461 1.031,-0.687 1.75,-0.687 0.539,0 1.024,0.117 1.453,0.359 0.426,0.25 0.821,0.625 1.188,1.125 h 0.265 c -0.429,-0.688 -0.906,-1.195 -1.437,-1.516 -0.523,-0.32 -1.148,-0.484 -1.875,-0.484 -0.648,0 -1.219,0.137 -1.719,0.406 -0.5,0.281 -0.883,0.664 -1.14,1.156 -0.262,0.489 -0.391,1.016 -0.391,1.579 0,0.875 0.227,1.718 0.687,2.531 0.469,0.82 1.11,1.469 1.922,1.937 0.813,0.469 1.629,0.703 2.453,0.703 0.383,0 0.817,-0.089 1.297,-0.265 0.207,-0.086 0.36,-0.125 0.453,-0.125 0.094,0 0.176,0.019 0.25,0.062 0.071,0.039 0.192,0.149 0.36,0.328 z"
         style="fill:#000000;fill-opacity:1;fill-rule:nonzero;stroke:none"
         id="path45642"
         inkscape:connector-curvature="0" /><path
         d="m 385.348,51.865 c 0.156,0.351 0.347,0.625 0.578,0.812 0.226,0.195 0.515,0.297 0.859,0.297 0.426,0 0.75,-0.137 0.969,-0.406 0.176,-0.211 0.266,-0.434 0.266,-0.672 0,-0.387 -0.247,-0.781 -0.735,-1.188 0.332,-0.125 0.582,-0.308 0.75,-0.547 0.164,-0.242 0.25,-0.523 0.25,-0.843 0,-0.461 -0.148,-0.856 -0.437,-1.188 -0.387,-0.437 -0.938,-0.656 -1.657,-0.656 -0.355,0 -0.601,0.043 -0.734,0.125 -0.125,0.094 -0.187,0.191 -0.187,0.297 0,0.07 0.031,0.133 0.093,0.187 0.063,0.063 0.133,0.094 0.219,0.094 0.063,0 0.129,-0.012 0.203,-0.031 0.039,-0.012 0.141,-0.059 0.297,-0.141 0.156,-0.086 0.266,-0.133 0.328,-0.14 0.094,-0.032 0.192,-0.047 0.297,-0.047 0.27,0 0.504,0.097 0.703,0.297 0.195,0.207 0.297,0.453 0.297,0.734 0,0.207 -0.047,0.41 -0.141,0.609 -0.074,0.145 -0.148,0.254 -0.218,0.328 -0.118,0.102 -0.274,0.196 -0.469,0.282 -0.199,0.082 -0.399,0.125 -0.594,0.125 h -0.125 v 0.125 c 0.207,0.019 0.41,0.093 0.61,0.218 0.207,0.125 0.359,0.27 0.453,0.438 0.093,0.176 0.14,0.367 0.14,0.578 0,0.258 -0.086,0.473 -0.25,0.641 -0.168,0.164 -0.375,0.25 -0.625,0.25 -0.406,0 -0.746,-0.215 -1.015,-0.641 z"
         style="fill:#000000;fill-opacity:1;fill-rule:nonzero;stroke:none"
         id="path45644"
         inkscape:connector-curvature="0" /><path
         d="m 296.438,43.185 -0.579,-2.563 h -0.218 l -0.016,0.641 c -0.023,0.227 -0.07,0.437 -0.141,0.625 -0.074,0.187 -0.183,0.344 -0.328,0.469 -0.136,0.133 -0.312,0.238 -0.531,0.312 -0.211,0.082 -0.445,0.125 -0.703,0.125 -0.699,0 -1.313,-0.195 -1.844,-0.578 -0.668,-0.492 -1.187,-1.18 -1.562,-2.062 -0.313,-0.743 -0.469,-1.485 -0.469,-2.235 0,-0.773 0.223,-1.386 0.672,-1.844 0.445,-0.46 1.031,-0.687 1.75,-0.687 0.539,0 1.023,0.117 1.453,0.359 0.426,0.25 0.82,0.625 1.187,1.125 h 0.266 c -0.43,-0.687 -0.906,-1.195 -1.437,-1.515 -0.524,-0.321 -1.149,-0.485 -1.875,-0.485 -0.649,0 -1.219,0.137 -1.719,0.407 -0.5,0.281 -0.883,0.664 -1.141,1.156 -0.262,0.488 -0.39,1.015 -0.39,1.578 0,0.875 0.226,1.719 0.687,2.531 0.469,0.821 1.109,1.469 1.922,1.938 0.812,0.468 1.629,0.703 2.453,0.703 0.383,0 0.816,-0.09 1.297,-0.266 0.207,-0.086 0.359,-0.125 0.453,-0.125 0.094,0 0.176,0.02 0.25,0.063 0.07,0.039 0.191,0.148 0.359,0.328 z"
         style="fill:#000000;fill-opacity:1;fill-rule:nonzero;stroke:none"
         id="path45646"
         inkscape:connector-curvature="0" /><path
         d="m 304.5,43.185 -0.578,-2.563 h -0.219 l -0.015,0.641 c -0.024,0.227 -0.071,0.437 -0.141,0.625 -0.074,0.187 -0.184,0.344 -0.328,0.469 -0.137,0.133 -0.313,0.238 -0.531,0.312 -0.211,0.082 -0.446,0.125 -0.704,0.125 -0.699,0 -1.312,-0.195 -1.843,-0.578 -0.668,-0.492 -1.188,-1.18 -1.563,-2.062 -0.312,-0.743 -0.469,-1.485 -0.469,-2.235 0,-0.773 0.223,-1.386 0.672,-1.844 0.446,-0.46 1.032,-0.687 1.75,-0.687 0.539,0 1.024,0.117 1.453,0.359 0.426,0.25 0.821,0.625 1.188,1.125 h 0.266 c -0.43,-0.687 -0.907,-1.195 -1.438,-1.515 -0.523,-0.321 -1.148,-0.485 -1.875,-0.485 -0.648,0 -1.219,0.137 -1.719,0.407 -0.5,0.281 -0.883,0.664 -1.14,1.156 -0.262,0.488 -0.391,1.015 -0.391,1.578 0,0.875 0.227,1.719 0.688,2.531 0.468,0.821 1.109,1.469 1.921,1.938 0.813,0.468 1.629,0.703 2.454,0.703 0.382,0 0.816,-0.09 1.296,-0.266 0.207,-0.086 0.36,-0.125 0.454,-0.125 0.093,0 0.175,0.02 0.25,0.063 0.07,0.039 0.191,0.148 0.359,0.328 z"
         style="fill:#000000;fill-opacity:1;fill-rule:nonzero;stroke:none"
         id="path45648"
         inkscape:connector-curvature="0" /><path
         d="m 307.82,34.134 v -0.547 h -0.703 v -1.406 h -0.64 v 1.406 h -2.25 v 0.5 l 2.453,3.5 h 0.437 v -3.453 z m -1.343,0 v 2.625 l -1.86,-2.625 z"
         style="fill:#000000;fill-opacity:1;fill-rule:nonzero;stroke:none"
         id="path45650"
         inkscape:connector-curvature="0" /><path
         d="m 467.777,46.693 -0.578,-2.563 h -0.219 l -0.015,0.641 c -0.024,0.226 -0.07,0.437 -0.141,0.625 -0.074,0.187 -0.183,0.344 -0.328,0.469 -0.137,0.132 -0.312,0.238 -0.531,0.312 -0.211,0.082 -0.445,0.125 -0.703,0.125 -0.699,0 -1.313,-0.195 -1.844,-0.578 -0.668,-0.492 -1.188,-1.18 -1.563,-2.063 -0.312,-0.742 -0.468,-1.484 -0.468,-2.234 0,-0.773 0.222,-1.387 0.672,-1.844 0.445,-0.461 1.031,-0.687 1.75,-0.687 0.539,0 1.023,0.117 1.453,0.359 0.426,0.25 0.82,0.625 1.187,1.125 h 0.266 c -0.43,-0.687 -0.906,-1.195 -1.438,-1.515 -0.523,-0.321 -1.148,-0.485 -1.875,-0.485 -0.648,0 -1.218,0.137 -1.718,0.406 -0.5,0.282 -0.883,0.664 -1.141,1.157 -0.262,0.488 -0.391,1.015 -0.391,1.578 0,0.875 0.227,1.719 0.688,2.531 0.469,0.82 1.109,1.469 1.922,1.938 0.812,0.468 1.629,0.703 2.453,0.703 0.383,0 0.816,-0.09 1.297,-0.266 0.207,-0.086 0.359,-0.125 0.453,-0.125 0.094,0 0.176,0.02 0.25,0.063 0.07,0.039 0.191,0.148 0.359,0.328 z"
         style="fill:#000000;fill-opacity:1;fill-rule:nonzero;stroke:none"
         id="path45652"
         inkscape:connector-curvature="0" /><path
         d="m 475.84,46.693 -0.578,-2.563 h -0.219 l -0.016,0.641 c -0.023,0.226 -0.07,0.437 -0.14,0.625 -0.074,0.187 -0.184,0.344 -0.328,0.469 -0.137,0.132 -0.313,0.238 -0.532,0.312 -0.211,0.082 -0.445,0.125 -0.703,0.125 -0.699,0 -1.312,-0.195 -1.844,-0.578 -0.667,-0.492 -1.187,-1.18 -1.562,-2.063 -0.313,-0.742 -0.469,-1.484 -0.469,-2.234 0,-0.773 0.223,-1.387 0.672,-1.844 0.445,-0.461 1.031,-0.687 1.75,-0.687 0.539,0 1.024,0.117 1.453,0.359 0.426,0.25 0.821,0.625 1.188,1.125 h 0.265 c -0.429,-0.687 -0.906,-1.195 -1.437,-1.515 -0.524,-0.321 -1.149,-0.485 -1.875,-0.485 -0.649,0 -1.219,0.137 -1.719,0.406 -0.5,0.282 -0.883,0.664 -1.141,1.157 -0.261,0.488 -0.39,1.015 -0.39,1.578 0,0.875 0.226,1.719 0.687,2.531 0.469,0.82 1.11,1.469 1.922,1.938 0.813,0.468 1.629,0.703 2.453,0.703 0.383,0 0.817,-0.09 1.297,-0.266 0.207,-0.086 0.36,-0.125 0.453,-0.125 0.094,0 0.176,0.02 0.25,0.063 0.071,0.039 0.192,0.148 0.36,0.328 z"
         style="fill:#000000;fill-opacity:1;fill-rule:nonzero;stroke:none"
         id="path45654"
         inkscape:connector-curvature="0" /><path
         d="m 478.91,40.986 -0.297,-0.657 h -1.593 l -0.344,-0.718 c 0.687,-0.106 1.234,-0.36 1.64,-0.766 0.344,-0.355 0.516,-0.773 0.516,-1.25 0,-0.281 -0.059,-0.543 -0.172,-0.781 -0.117,-0.231 -0.262,-0.43 -0.437,-0.594 -0.168,-0.168 -0.356,-0.305 -0.563,-0.406 -0.305,-0.145 -0.609,-0.219 -0.922,-0.219 -0.324,0 -0.558,0.055 -0.703,0.156 -0.137,0.114 -0.203,0.235 -0.203,0.36 0,0.07 0.023,0.132 0.078,0.187 0.063,0.063 0.141,0.094 0.235,0.094 0.062,0 0.117,-0.012 0.171,-0.031 0.051,-0.024 0.141,-0.075 0.266,-0.157 0.195,-0.136 0.395,-0.203 0.594,-0.203 0.301,0 0.566,0.114 0.797,0.344 0.226,0.227 0.343,0.508 0.343,0.844 0,0.32 -0.105,0.617 -0.312,0.89 -0.199,0.282 -0.481,0.493 -0.844,0.641 -0.281,0.125 -0.668,0.191 -1.156,0.203 l 1.016,2.063 z"
         style="fill:#000000;fill-opacity:1;fill-rule:nonzero;stroke:none"
         id="path45656"
         inkscape:connector-curvature="0" /><path
         d="m 340.738,122.021 c -4.758,3.367 -16.75,0 -24.14,-5.903 -7.387,-5.91 -17.41,-21.097 -20.207,-29.546 -2.793,-8.454 -4.68,-22.731 3.449,-21.172 8.129,1.558 38.277,21.09 45.34,30.531 7.058,9.43 0.328,22.73 -4.442,26.09 z"
         style="fill:none;stroke:#000000;stroke-width:0.95999998;stroke-linecap:butt;stroke-linejoin:miter;stroke-miterlimit:8;stroke-dasharray:3.84, 2.88;stroke-dashoffset:0;stroke-opacity:1"
         id="path45658"
         inkscape:connector-curvature="0" /><path
         d="m 74.16,109.982 c 0,7.59 6.149,13.738 13.738,13.738 7.59,0 13.743,-6.148 13.743,-13.738 0,-7.594 -6.153,-13.742 -13.743,-13.742 -7.589,0 -13.738,6.148 -13.738,13.742 z"
         style="fill:none;stroke:#000000;stroke-width:0.95999998;stroke-linecap:butt;stroke-linejoin:miter;stroke-miterlimit:8;stroke-dasharray:3.84, 2.88;stroke-dashoffset:0;stroke-opacity:1"
         id="path45660"
         inkscape:connector-curvature="0" /><path
         d="m 182.16,84.298 c 0,7.59 6.18,13.742 13.801,13.742 7.617,0 13.797,-6.152 13.797,-13.742 0,-7.59 -6.18,-13.738 -13.797,-13.738 -7.621,0 -13.801,6.148 -13.801,13.738 z"
         style="fill:none;stroke:#000000;stroke-width:0.95999998;stroke-linecap:butt;stroke-linejoin:miter;stroke-miterlimit:8;stroke-dasharray:3.84, 2.88;stroke-dashoffset:0;stroke-opacity:1"
         id="path45662"
         inkscape:connector-curvature="0" /><path
         d="m 62.488,126.423 -0.578,-2.562 h -0.219 l -0.015,0.64 c -0.024,0.227 -0.071,0.438 -0.141,0.625 -0.074,0.188 -0.183,0.344 -0.328,0.469 -0.137,0.133 -0.312,0.238 -0.531,0.313 -0.211,0.082 -0.446,0.125 -0.703,0.125 -0.7,0 -1.313,-0.196 -1.844,-0.579 -0.668,-0.492 -1.188,-1.179 -1.563,-2.062 -0.312,-0.742 -0.468,-1.484 -0.468,-2.234 0,-0.774 0.222,-1.387 0.672,-1.844 0.445,-0.461 1.031,-0.688 1.75,-0.688 0.539,0 1.023,0.117 1.453,0.36 0.425,0.25 0.82,0.625 1.187,1.125 h 0.266 c -0.43,-0.688 -0.906,-1.196 -1.438,-1.516 -0.523,-0.32 -1.148,-0.484 -1.875,-0.484 -0.648,0 -1.218,0.136 -1.718,0.406 -0.5,0.281 -0.883,0.664 -1.141,1.156 -0.262,0.488 -0.391,1.016 -0.391,1.578 0,0.875 0.227,1.719 0.688,2.532 0.469,0.82 1.109,1.468 1.922,1.937 0.812,0.469 1.629,0.703 2.453,0.703 0.383,0 0.816,-0.09 1.297,-0.265 0.207,-0.086 0.359,-0.125 0.453,-0.125 0.094,0 0.176,0.019 0.25,0.062 0.07,0.039 0.191,0.148 0.359,0.328 z"
         style="fill:#000000;fill-opacity:1;fill-rule:nonzero;stroke:none"
         id="path45664"
         inkscape:connector-curvature="0" /><path
         d="m 70.527,126.423 -0.578,-2.562 H 69.73 l -0.015,0.64 c -0.024,0.227 -0.07,0.438 -0.141,0.625 -0.074,0.188 -0.183,0.344 -0.328,0.469 -0.137,0.133 -0.312,0.238 -0.531,0.313 -0.211,0.082 -0.445,0.125 -0.703,0.125 -0.699,0 -1.313,-0.196 -1.844,-0.579 -0.668,-0.492 -1.188,-1.179 -1.563,-2.062 -0.312,-0.742 -0.468,-1.484 -0.468,-2.234 0,-0.774 0.222,-1.387 0.672,-1.844 0.445,-0.461 1.031,-0.688 1.75,-0.688 0.539,0 1.023,0.117 1.453,0.36 0.426,0.25 0.82,0.625 1.187,1.125 h 0.266 c -0.43,-0.688 -0.906,-1.196 -1.438,-1.516 -0.523,-0.32 -1.148,-0.484 -1.875,-0.484 -0.648,0 -1.218,0.136 -1.718,0.406 -0.5,0.281 -0.883,0.664 -1.141,1.156 -0.262,0.488 -0.391,1.016 -0.391,1.578 0,0.875 0.227,1.719 0.688,2.532 0.469,0.82 1.109,1.468 1.922,1.937 0.812,0.469 1.629,0.703 2.453,0.703 0.383,0 0.816,-0.09 1.297,-0.265 0.207,-0.086 0.359,-0.125 0.453,-0.125 0.094,0 0.176,0.019 0.25,0.062 0.07,0.039 0.191,0.148 0.359,0.328 z"
         style="fill:#000000;fill-opacity:1;fill-rule:nonzero;stroke:none"
         id="path45666"
         inkscape:connector-curvature="0" /><path
         d="m 71.066,120.2 1.297,0.625 h 0.125 v -4.468 c 0,-0.305 0.008,-0.492 0.032,-0.563 0.031,-0.074 0.082,-0.133 0.156,-0.172 0.082,-0.031 0.242,-0.054 0.484,-0.062 v -0.141 h -2 v 0.141 c 0.25,0.008 0.41,0.031 0.485,0.062 0.07,0.039 0.125,0.094 0.156,0.157 0.031,0.062 0.047,0.254 0.047,0.578 v 2.859 c 0,0.383 -0.016,0.629 -0.047,0.734 -0.024,0.083 -0.059,0.145 -0.11,0.188 -0.043,0.039 -0.093,0.062 -0.156,0.062 -0.105,0 -0.242,-0.042 -0.406,-0.125 z"
         style="fill:#000000;fill-opacity:1;fill-rule:nonzero;stroke:none"
         id="path45668"
         inkscape:connector-curvature="0" /><path
         d="m 186.105,110.294 -0.578,-2.562 h -0.218 l -0.016,0.64 c -0.023,0.227 -0.07,0.438 -0.141,0.625 -0.074,0.188 -0.183,0.344 -0.328,0.469 -0.136,0.133 -0.312,0.238 -0.531,0.313 -0.211,0.082 -0.445,0.125 -0.703,0.125 -0.699,0 -1.313,-0.196 -1.844,-0.579 -0.668,-0.492 -1.187,-1.179 -1.562,-2.062 -0.313,-0.742 -0.469,-1.484 -0.469,-2.234 0,-0.774 0.223,-1.387 0.672,-1.844 0.445,-0.461 1.031,-0.688 1.75,-0.688 0.539,0 1.023,0.118 1.453,0.36 0.426,0.25 0.82,0.625 1.187,1.125 h 0.266 c -0.43,-0.688 -0.906,-1.196 -1.438,-1.516 -0.523,-0.32 -1.148,-0.484 -1.875,-0.484 -0.648,0 -1.218,0.136 -1.718,0.406 -0.5,0.281 -0.883,0.664 -1.141,1.156 -0.262,0.489 -0.391,1.016 -0.391,1.578 0,0.875 0.227,1.719 0.688,2.532 0.469,0.82 1.109,1.468 1.922,1.937 0.812,0.469 1.629,0.703 2.453,0.703 0.383,0 0.816,-0.09 1.297,-0.265 0.207,-0.086 0.359,-0.125 0.453,-0.125 0.094,0 0.176,0.019 0.25,0.062 0.07,0.039 0.191,0.149 0.359,0.328 z"
         style="fill:#000000;fill-opacity:1;fill-rule:nonzero;stroke:none"
         id="path45670"
         inkscape:connector-curvature="0" /><path
         d="m 194.148,110.294 -0.578,-2.562 h -0.218 l -0.016,0.64 c -0.023,0.227 -0.07,0.438 -0.141,0.625 -0.074,0.188 -0.183,0.344 -0.328,0.469 -0.137,0.133 -0.312,0.238 -0.531,0.313 -0.211,0.082 -0.445,0.125 -0.703,0.125 -0.699,0 -1.313,-0.196 -1.844,-0.579 -0.668,-0.492 -1.187,-1.179 -1.562,-2.062 -0.313,-0.742 -0.469,-1.484 -0.469,-2.234 0,-0.774 0.222,-1.387 0.672,-1.844 0.445,-0.461 1.031,-0.688 1.75,-0.688 0.539,0 1.023,0.118 1.453,0.36 0.426,0.25 0.82,0.625 1.187,1.125 h 0.266 c -0.43,-0.688 -0.906,-1.196 -1.438,-1.516 -0.523,-0.32 -1.148,-0.484 -1.875,-0.484 -0.648,0 -1.218,0.136 -1.718,0.406 -0.5,0.281 -0.883,0.664 -1.141,1.156 -0.262,0.489 -0.391,1.016 -0.391,1.578 0,0.875 0.227,1.719 0.688,2.532 0.469,0.82 1.109,1.468 1.922,1.937 0.812,0.469 1.629,0.703 2.453,0.703 0.383,0 0.816,-0.09 1.297,-0.265 0.207,-0.086 0.359,-0.125 0.453,-0.125 0.094,0 0.176,0.019 0.25,0.062 0.07,0.039 0.191,0.149 0.359,0.328 z"
         style="fill:#000000;fill-opacity:1;fill-rule:nonzero;stroke:none"
         id="path45672"
         inkscape:connector-curvature="0" /><path
         d="m 197.422,100.306 -0.375,-1.016 h -3.125 v 0.141 c 0.914,0.844 1.562,1.531 1.937,2.062 0.375,0.532 0.563,1.016 0.563,1.454 0,0.332 -0.106,0.609 -0.313,0.828 -0.199,0.218 -0.445,0.328 -0.734,0.328 -0.262,0 -0.496,-0.078 -0.703,-0.235 -0.199,-0.148 -0.352,-0.371 -0.453,-0.671 h -0.141 c 0.063,0.488 0.227,0.859 0.5,1.109 0.27,0.258 0.61,0.391 1.016,0.391 0.426,0 0.781,-0.141 1.062,-0.422 0.289,-0.274 0.438,-0.594 0.438,-0.969 0,-0.273 -0.063,-0.539 -0.188,-0.797 -0.187,-0.43 -0.5,-0.875 -0.937,-1.344 -0.649,-0.711 -1.055,-1.136 -1.219,-1.281 h 1.391 c 0.281,0 0.476,0.008 0.593,0.031 0.114,0.02 0.211,0.063 0.297,0.125 0.094,0.063 0.176,0.149 0.25,0.266 z"
         style="fill:#000000;fill-opacity:1;fill-rule:nonzero;stroke:none"
         id="path45674"
         inkscape:connector-curvature="0" /><path
         d="m 272.398,18.298 c 0,7.59 6.153,13.742 13.743,13.742 7.589,0 13.738,-6.152 13.738,-13.742 0,-7.59 -6.149,-13.738 -13.738,-13.738 -7.59,0 -13.743,6.148 -13.743,13.738 z"
         style="fill:none;stroke:#000000;stroke-width:0.95999998;stroke-linecap:butt;stroke-linejoin:miter;stroke-miterlimit:8;stroke-dasharray:3.84, 2.88;stroke-dashoffset:0;stroke-opacity:1"
         id="path45676"
         inkscape:connector-curvature="0" /><path
         d="m 463.078,64.259 c 0,7.59 6.152,13.742 13.742,13.742 7.59,0 13.739,-6.152 13.739,-13.742 0,-7.59 -6.149,-13.738 -13.739,-13.738 -7.59,0 -13.742,6.148 -13.742,13.738 z"
         style="fill:none;stroke:#000000;stroke-width:0.95999998;stroke-linecap:butt;stroke-linejoin:miter;stroke-miterlimit:8;stroke-dasharray:3.84, 2.88;stroke-dashoffset:0;stroke-opacity:1"
         id="path45678"
         inkscape:connector-curvature="0" /><path
         d="m 368.898,65.888 c -6.988,-0.988 -15.21,0.652 -19.73,-1.977 -4.52,-2.632 -12.91,-5.339 -7.398,-13.812 5.507,-8.461 28.449,-38.141 40.449,-36.988 12,1.148 30.09,34.437 31.57,43.898 1.481,9.449 -15.289,11.512 -22.691,12.82 -7.399,1.321 -15.207,-2.961 -22.2,-3.941 z"
         style="fill:none;stroke:#000000;stroke-width:0.95999998;stroke-linecap:butt;stroke-linejoin:miter;stroke-miterlimit:8;stroke-dasharray:3.84, 2.88;stroke-dashoffset:0;stroke-opacity:1"
         id="path45680"
         inkscape:connector-curvature="0" /><path
         d="M 429.598,103.861 C 427.301,95.31 425.41,82.9 430.09,78.22 c 4.687,-4.691 22.609,-8.879 27.629,-2.469 5.011,6.41 4.769,31.969 2.461,40.93 -2.301,8.957 -11.262,14.629 -16.27,12.82 -5.019,-1.801 -12.012,-17.09 -14.312,-25.64 z"
         style="fill:none;stroke:#000000;stroke-width:0.95999998;stroke-linecap:butt;stroke-linejoin:miter;stroke-miterlimit:8;stroke-dasharray:3.84, 2.88;stroke-dashoffset:0;stroke-opacity:1"
         id="path45682"
         inkscape:connector-curvature="0" /><path
         d="m 630.277,127.509 c -25.636,-1.23 -58.168,2.551 -76.91,-13.309 -18.726,-15.859 -39.758,-63.371 -35.488,-81.859 4.269,-18.5 30.891,-28.93 61.129,-29.101 30.23,-0.161 98.922,8.39 120.281,28.109 21.359,19.73 19.141,74.301 7.891,90.25 -11.262,15.941 -51.27,7.152 -76.903,5.91 z"
         style="fill:none;stroke:#000000;stroke-width:0.95999998;stroke-linecap:butt;stroke-linejoin:miter;stroke-miterlimit:8;stroke-dasharray:3.84, 2.88;stroke-dashoffset:0;stroke-opacity:1"
         id="path45684"
         inkscape:connector-curvature="0" /><path
         d="m 716.52,62.22 c 0,7.59 6.148,13.738 13.738,13.738 7.59,0 13.742,-6.148 13.742,-13.738 0,-7.59 -6.152,-13.738 -13.742,-13.738 -7.59,0 -13.738,6.148 -13.738,13.738 z"
         style="fill:none;stroke:#000000;stroke-width:0.95999998;stroke-linecap:butt;stroke-linejoin:miter;stroke-miterlimit:8;stroke-dasharray:3.84, 2.88;stroke-dashoffset:0;stroke-opacity:1"
         id="path45686"
         inkscape:connector-curvature="0" /><path
         d="m 524.367,116.583 -0.578,-2.562 h -0.219 l -0.015,0.64 c -0.024,0.227 -0.071,0.438 -0.141,0.625 -0.074,0.188 -0.184,0.344 -0.328,0.469 -0.137,0.133 -0.313,0.238 -0.531,0.313 -0.211,0.082 -0.446,0.125 -0.703,0.125 -0.7,0 -1.313,-0.196 -1.844,-0.578 -0.668,-0.493 -1.188,-1.18 -1.563,-2.063 -0.312,-0.742 -0.468,-1.484 -0.468,-2.234 0,-0.774 0.222,-1.387 0.671,-1.844 0.446,-0.461 1.032,-0.688 1.75,-0.688 0.54,0 1.024,0.118 1.454,0.36 0.425,0.25 0.82,0.625 1.187,1.125 h 0.266 c -0.43,-0.688 -0.907,-1.196 -1.438,-1.516 -0.523,-0.32 -1.148,-0.484 -1.875,-0.484 -0.648,0 -1.219,0.137 -1.719,0.406 -0.5,0.281 -0.882,0.664 -1.14,1.156 -0.262,0.489 -0.391,1.016 -0.391,1.578 0,0.875 0.227,1.719 0.688,2.532 0.468,0.82 1.109,1.468 1.922,1.937 0.812,0.469 1.628,0.703 2.453,0.703 0.383,0 0.816,-0.09 1.297,-0.265 0.207,-0.086 0.359,-0.125 0.453,-0.125 0.093,0 0.175,0.019 0.25,0.062 0.07,0.039 0.191,0.149 0.359,0.328 z"
         style="fill:#000000;fill-opacity:1;fill-rule:nonzero;stroke:none"
         id="path45688"
         inkscape:connector-curvature="0" /><path
         d="m 532.43,116.583 -0.578,-2.562 h -0.219 l -0.016,0.64 c -0.023,0.227 -0.07,0.438 -0.14,0.625 -0.075,0.188 -0.184,0.344 -0.329,0.469 -0.136,0.133 -0.312,0.238 -0.531,0.313 -0.211,0.082 -0.445,0.125 -0.703,0.125 -0.699,0 -1.312,-0.196 -1.844,-0.578 -0.668,-0.493 -1.187,-1.18 -1.562,-2.063 -0.313,-0.742 -0.469,-1.484 -0.469,-2.234 0,-0.774 0.223,-1.387 0.672,-1.844 0.445,-0.461 1.031,-0.688 1.75,-0.688 0.539,0 1.023,0.118 1.453,0.36 0.426,0.25 0.82,0.625 1.188,1.125 h 0.265 c -0.429,-0.688 -0.906,-1.196 -1.437,-1.516 -0.524,-0.32 -1.149,-0.484 -1.875,-0.484 -0.649,0 -1.219,0.137 -1.719,0.406 -0.5,0.281 -0.883,0.664 -1.141,1.156 -0.261,0.489 -0.39,1.016 -0.39,1.578 0,0.875 0.226,1.719 0.687,2.532 0.469,0.82 1.11,1.468 1.922,1.937 0.813,0.469 1.629,0.703 2.453,0.703 0.383,0 0.817,-0.09 1.297,-0.265 0.207,-0.086 0.359,-0.125 0.453,-0.125 0.094,0 0.176,0.019 0.25,0.062 0.071,0.039 0.192,0.149 0.36,0.328 z"
         style="fill:#000000;fill-opacity:1;fill-rule:nonzero;stroke:none"
         id="path45690"
         inkscape:connector-curvature="0" /><path
         d="m 532.969,110.361 1.297,0.625 h 0.125 v -4.469 c 0,-0.305 0.007,-0.492 0.031,-0.563 0.031,-0.074 0.082,-0.132 0.156,-0.171 0.082,-0.032 0.242,-0.055 0.485,-0.063 v -0.141 h -2 v 0.141 c 0.25,0.008 0.41,0.031 0.484,0.063 0.07,0.039 0.125,0.093 0.156,0.156 0.031,0.062 0.047,0.254 0.047,0.578 v 2.859 c 0,0.383 -0.016,0.629 -0.047,0.735 -0.023,0.082 -0.058,0.144 -0.109,0.187 -0.043,0.039 -0.094,0.063 -0.156,0.063 -0.106,0 -0.243,-0.043 -0.407,-0.125 z"
         style="fill:#000000;fill-opacity:1;fill-rule:nonzero;stroke:none"
         id="path45692"
         inkscape:connector-curvature="0" /><path
         d="m 730.816,46.095 -0.578,-2.562 h -0.218 l -0.016,0.64 c -0.024,0.227 -0.07,0.438 -0.141,0.625 -0.074,0.188 -0.183,0.344 -0.328,0.469 -0.137,0.133 -0.312,0.238 -0.531,0.312 -0.211,0.082 -0.445,0.125 -0.703,0.125 -0.699,0 -1.313,-0.195 -1.844,-0.578 -0.668,-0.492 -1.187,-1.179 -1.562,-2.062 -0.313,-0.742 -0.469,-1.485 -0.469,-2.235 0,-0.773 0.222,-1.386 0.672,-1.843 0.445,-0.461 1.031,-0.688 1.75,-0.688 0.539,0 1.023,0.117 1.453,0.36 0.426,0.25 0.82,0.625 1.187,1.125 h 0.266 c -0.43,-0.688 -0.906,-1.196 -1.438,-1.516 -0.523,-0.32 -1.148,-0.484 -1.875,-0.484 -0.648,0 -1.218,0.136 -1.718,0.406 -0.5,0.281 -0.883,0.664 -1.141,1.156 -0.262,0.488 -0.391,1.016 -0.391,1.578 0,0.875 0.227,1.719 0.688,2.531 0.469,0.821 1.109,1.469 1.922,1.938 0.812,0.469 1.629,0.703 2.453,0.703 0.383,0 0.816,-0.09 1.297,-0.266 0.207,-0.086 0.359,-0.125 0.453,-0.125 0.094,0 0.176,0.02 0.25,0.063 0.07,0.039 0.191,0.148 0.359,0.328 z"
         style="fill:#000000;fill-opacity:1;fill-rule:nonzero;stroke:none"
         id="path45694"
         inkscape:connector-curvature="0" /><path
         d="m 738.883,46.095 -0.578,-2.562 h -0.219 l -0.016,0.64 c -0.023,0.227 -0.07,0.438 -0.14,0.625 -0.075,0.188 -0.184,0.344 -0.328,0.469 -0.137,0.133 -0.313,0.238 -0.532,0.312 -0.211,0.082 -0.445,0.125 -0.703,0.125 -0.699,0 -1.312,-0.195 -1.844,-0.578 -0.668,-0.492 -1.187,-1.179 -1.562,-2.062 -0.313,-0.742 -0.469,-1.485 -0.469,-2.235 0,-0.773 0.223,-1.386 0.672,-1.843 0.445,-0.461 1.031,-0.688 1.75,-0.688 0.539,0 1.024,0.117 1.453,0.36 0.426,0.25 0.821,0.625 1.188,1.125 h 0.265 c -0.429,-0.688 -0.906,-1.196 -1.437,-1.516 -0.524,-0.32 -1.149,-0.484 -1.875,-0.484 -0.649,0 -1.219,0.136 -1.719,0.406 -0.5,0.281 -0.883,0.664 -1.141,1.156 -0.261,0.488 -0.39,1.016 -0.39,1.578 0,0.875 0.226,1.719 0.687,2.531 0.469,0.821 1.11,1.469 1.922,1.938 0.813,0.469 1.629,0.703 2.453,0.703 0.383,0 0.817,-0.09 1.297,-0.266 0.207,-0.086 0.36,-0.125 0.453,-0.125 0.094,0 0.176,0.02 0.25,0.063 0.071,0.039 0.192,0.148 0.36,0.328 z"
         style="fill:#000000;fill-opacity:1;fill-rule:nonzero;stroke:none"
         id="path45696"
         inkscape:connector-curvature="0" /><path
         d="m 742.152,36.107 -0.375,-1.016 h -3.125 v 0.141 c 0.914,0.843 1.563,1.531 1.938,2.062 0.375,0.531 0.562,1.016 0.562,1.453 0,0.332 -0.105,0.61 -0.312,0.828 -0.199,0.219 -0.445,0.329 -0.735,0.329 -0.261,0 -0.496,-0.079 -0.703,-0.235 -0.199,-0.148 -0.351,-0.371 -0.453,-0.672 h -0.14 c 0.062,0.489 0.226,0.86 0.5,1.11 0.269,0.258 0.609,0.39 1.015,0.39 0.426,0 0.781,-0.14 1.063,-0.422 0.289,-0.273 0.437,-0.593 0.437,-0.968 0,-0.274 -0.062,-0.539 -0.187,-0.797 -0.188,-0.43 -0.5,-0.875 -0.938,-1.344 -0.648,-0.711 -1.054,-1.137 -1.219,-1.281 h 1.391 c 0.281,0 0.477,0.008 0.594,0.031 0.113,0.02 0.211,0.063 0.297,0.125 0.093,0.063 0.176,0.149 0.25,0.266 z"
         style="fill:#000000;fill-opacity:1;fill-rule:nonzero;stroke:none"
         id="path45698"
         inkscape:connector-curvature="0" /></g></g></svg>