<?xml version="1.0" encoding="utf-8"?>
<!-- Generator: Adobe Illustrator 27.5.0, SVG Export Plug-In . SVG Version: 6.00 Build 0)  -->
<svg version="1.1" id="Layer_1" xmlns="http://www.w3.org/2000/svg" xmlns:xlink="http://www.w3.org/1999/xlink" x="0px" y="0px"
	 viewBox="0 0 494.7 142.6" style="enable-background:new 0 0 494.7 142.6;" xml:space="preserve">
<style type="text/css">
	.st0{fill:#B0B0B0;}
	.st1{fill:#FFFFFF;}
	.st2{fill:none;stroke:#000000;stroke-miterlimit:10;}
	.st3{fill:#ED2024;stroke:#000000;stroke-width:0.5;stroke-miterlimit:10;}
	.st4{fill:#ED2024;stroke:#F8991D;stroke-width:0.5;stroke-miterlimit:10;}
	.st5{fill:#ED2024;stroke:#000000;stroke-miterlimit:10;}
	.st6{fill:#3953A4;stroke:#000000;stroke-miterlimit:10;}
	.st7{fill:#FFFFFF;stroke:#000000;stroke-miterlimit:10;}
	.st8{fill:none;}
	.st9{font-family:'MyriadPro-Regular';}
	.st10{font-size:9px;}
	.st11{fill:none;stroke:#F57E20;stroke-miterlimit:10;stroke-dasharray:2;}
	.st12{fill:#F37375;stroke:#000000;stroke-miterlimit:10;}
</style>
<rect class="st0" width="239.9" height="144.3"/>
<polyline class="st1" points="210.7,22.7 26.8,22.7 26.8,107.5 109.1,107.5 134.3,133.1 156.8,131.2 123.9,107.5 158.7,107.5 
	190.6,125.1 212.7,123.7 174.6,107.5 226.3,107.5 204.2,84.9 70.9,84.9 70.9,60.4 204.2,60.4 "/>
<polyline class="st2" points="109.1,107.5 26.8,107.5 26.8,22.7 210.7,22.7 "/>
<g>
	<line class="st3" x1="210.7" y1="22.7" x2="190.6" y2="35.7"/>
	<line class="st4" x1="210.7" y1="27.5" x2="189.8" y2="36.2"/>
	<line class="st4" x1="209.9" y1="31.5" x2="191" y2="35.7"/>
	<line class="st4" x1="207.6" y1="34.7" x2="189.9" y2="35.5"/>
	<line class="st4" x1="207.6" y1="38" x2="192.7" y2="36.1"/>
	<line class="st4" x1="207.6" y1="41.3" x2="192.4" y2="36.5"/>
	<line class="st4" x1="207.6" y1="45.2" x2="192.2" y2="37.2"/>
	<line class="st4" x1="206.1" y1="47.4" x2="191" y2="35.9"/>
	<line class="st4" x1="205.8" y1="52.1" x2="192.7" y2="37.8"/>
	<line class="st4" x1="205" y1="57.8" x2="191" y2="35.9"/>
	<line class="st3" x1="201.2" y1="60.4" x2="191" y2="35.9"/>
	<line class="st3" x1="196.1" y1="60.4" x2="190.6" y2="35.7"/>
	<path class="st5" d="M187.8,39.4c-2.3-0.9-3.4-3.5-2.6-5.8c0.9-2.3,3.5-3.4,5.8-2.6c2.3,0.9,4.9,6.7,4.9,6.7S190.1,40.3,187.8,39.4
		z"/>
</g>
<g>
	<line class="st3" x1="197.5" y1="84.9" x2="193.1" y2="95.1"/>
	<line class="st3" x1="200.1" y1="84.8" x2="192.8" y2="96"/>
	<line class="st3" x1="202.7" y1="85" x2="193.5" y2="94.8"/>
	<line class="st4" x1="206.1" y1="85" x2="192.4" y2="95.3"/>
	<line class="st4" x1="207.6" y1="87.9" x2="195.1" y2="94.2"/>
	<line class="st4" x1="210.3" y1="90.2" x2="195.1" y2="94.7"/>
	<line class="st4" x1="212.5" y1="93.4" x2="195.3" y2="95.4"/>
	<line class="st4" x1="215.3" y1="96.2" x2="193.6" y2="95"/>
	<line class="st4" x1="220.2" y1="101.3" x2="196.1" y2="95.6"/>
	<line class="st3" x1="222.7" y1="107.5" x2="193.6" y2="95"/>
	<line class="st3" x1="212.5" y1="107.4" x2="193.6" y2="95"/>
	<line class="st3" x1="206.4" y1="107.5" x2="193.1" y2="95.1"/>
	<path class="st5" d="M192.9,99.7c-2.4,0.6-4.8-1-5.4-3.4c-0.6-2.4,1-4.8,3.4-5.4c2.4-0.6,7.8,2.8,7.8,2.8S195.3,99.2,192.9,99.7z"
		/>
</g>
<path class="st6" d="M39.3,76.7c-2.4,0.7-4.9-0.6-5.6-3c-0.7-2.4,0.6-4.9,3-5.6c2.4-0.7,8,2.3,8,2.3S41.7,76,39.3,76.7z"/>
<polyline class="st2" points="204.2,60.4 70.9,60.4 70.9,84.9 204.2,84.9 "/>
<line class="st7" x1="123.9" y1="107.5" x2="158.7" y2="107.5"/>
<line class="st7" x1="174.6" y1="107.5" x2="226.3" y2="107.5"/>
<rect x="169.7" y="34.4" class="st8" width="21.3" height="24.8"/>
<text transform="matrix(1 0 0 1 169.7378 40.814)" class="st9 st10">(a)</text>
<rect x="176.8" y="98.5" class="st8" width="21.3" height="24.8"/>
<text transform="matrix(1 0 0 1 176.7978 104.8738)" class="st9 st10">(b)</text>
<path class="st11" d="M39.1,72.4c7.2-3.3,5.3-11.1,15.6-16.5s107.9-24.6,118.4-23.8c10.5,0.8,16.8,3.3,16.8,3.3"/>
<path class="st11" d="M193.1,95.1c-10.6,2.1-11.2,2.1-24.7,3.4c-13.5,1.3-92.8-2.4-101.9-4.3s-8.9-11.6-12.4-16.8
	c-3.5-5.3-4.6-8-13.5-5.8"/>
<rect x="256.2" class="st0" width="239.9" height="144.3"/>
<polyline class="st1" points="466.9,22.7 282.9,22.7 282.9,107.5 364.6,107.5 390.5,133.1 413,131.2 380.1,107.5 414.9,107.5 
	446.8,125.1 468.9,123.7 430,107.5 482.5,107.5 460.4,84.9 327.1,84.9 327.1,60.4 460.4,60.4 "/>
<polyline class="st2" points="364.6,107.5 282.9,107.5 282.9,22.7 466.9,22.7 "/>
<g>
	<line class="st3" x1="466.9" y1="22.7" x2="446.8" y2="35.7"/>
	<line class="st4" x1="466.9" y1="27.5" x2="445.9" y2="36.2"/>
	<line class="st4" x1="466.1" y1="31.5" x2="447.2" y2="35.7"/>
	<line class="st4" x1="463.8" y1="34.7" x2="446" y2="35.5"/>
	<line class="st4" x1="463.8" y1="38" x2="448.8" y2="36.1"/>
	<line class="st4" x1="463.8" y1="41.3" x2="448.5" y2="36.5"/>
	<line class="st4" x1="463.8" y1="45.2" x2="448.4" y2="37.2"/>
	<line class="st4" x1="462.3" y1="47.4" x2="447.2" y2="35.9"/>
	<line class="st4" x1="462" y1="52.1" x2="448.9" y2="37.8"/>
	<line class="st4" x1="461.2" y1="57.8" x2="447.2" y2="35.9"/>
	<line class="st3" x1="457.4" y1="60.4" x2="447.2" y2="35.9"/>
	<line class="st3" x1="452.3" y1="60.4" x2="446.8" y2="35.7"/>
	<path class="st5" d="M444,39.4c-2.3-0.9-3.4-3.5-2.6-5.8c0.9-2.3,3.5-3.4,5.8-2.6s4.9,6.7,4.9,6.7S446.3,40.3,444,39.4z"/>
</g>
<g>
	<line class="st3" x1="453.7" y1="84.9" x2="449.3" y2="95.1"/>
	<line class="st3" x1="456.3" y1="84.8" x2="448.9" y2="96"/>
	<line class="st3" x1="458.9" y1="85" x2="449.7" y2="94.8"/>
	<line class="st4" x1="462.3" y1="85" x2="448.6" y2="95.3"/>
	<line class="st4" x1="463.8" y1="87.9" x2="451.3" y2="94.2"/>
	<line class="st4" x1="466.5" y1="90.2" x2="451.3" y2="94.7"/>
	<line class="st4" x1="468.6" y1="93.4" x2="451.5" y2="95.4"/>
	<line class="st4" x1="471.4" y1="96.2" x2="449.7" y2="95"/>
	<line class="st4" x1="476.4" y1="101.3" x2="452.3" y2="95.6"/>
	<line class="st3" x1="478.9" y1="107.5" x2="449.7" y2="95"/>
	<line class="st3" x1="468.6" y1="107.4" x2="449.7" y2="95"/>
	<line class="st3" x1="462.5" y1="107.5" x2="449.3" y2="95.1"/>
	<path class="st5" d="M449.1,99.7c-2.4,0.6-4.8-1-5.4-3.4c-0.6-2.4,1-4.8,3.4-5.4c2.4-0.6,7.8,2.8,7.8,2.8S451.5,99.2,449.1,99.7z"
		/>
</g>
<g>
	<line class="st3" x1="364.8" y1="85.2" x2="356.4" y2="96.8"/>
	<line class="st3" x1="368.8" y1="85" x2="355.8" y2="97.6"/>
	<line class="st3" x1="373.7" y1="85.2" x2="356.8" y2="96.6"/>
	<line class="st3" x1="381.7" y1="85.2" x2="355.6" y2="96.8"/>
	<line class="st3" x1="405" y1="84.8" x2="358.4" y2="96.4"/>
	<line class="st3" x1="420.4" y1="92.6" x2="358.3" y2="96.9"/>
	<line class="st3" x1="420.4" y1="104.1" x2="358.4" y2="97.6"/>
	<line class="st3" x1="394.2" y1="107.5" x2="356.8" y2="96.8"/>
	<line class="st4" x1="384.2" y1="110.2" x2="359.1" y2="98"/>
	<line class="st4" x1="405" y1="131.9" x2="356.8" y2="96.8"/>
	<line class="st4" x1="391.8" y1="133.1" x2="356.8" y2="96.8"/>
	<line class="st3" x1="362.8" y1="107.5" x2="356.4" y2="96.8"/>
	<path class="st12" d="M355.1,101.2c-2.5,0-4.5-2-4.5-4.5c0-2.5,2-4.5,4.5-4.5c2.5,0,7,4.5,7,4.5S357.6,101.2,355.1,101.2z"/>
</g>
<g>
	<line class="st3" x1="418.3" y1="85.2" x2="408.4" y2="98.7"/>
	<line class="st3" x1="422.7" y1="85.2" x2="407.8" y2="99.5"/>
	<line class="st3" x1="428.7" y1="85.2" x2="408.8" y2="98.5"/>
	<line class="st3" x1="438.5" y1="85" x2="407.7" y2="98.8"/>
	<line class="st3" x1="457.1" y1="86.7" x2="410.5" y2="98.3"/>
	<line class="st3" x1="472.4" y1="94.5" x2="410.4" y2="98.8"/>
	<line class="st3" x1="472.4" y1="106.1" x2="410.5" y2="99.5"/>
	<line class="st3" x1="439" y1="107.4" x2="408.8" y2="98.7"/>
	<line class="st4" x1="461.2" y1="124.4" x2="411.2" y2="99.9"/>
	<line class="st4" x1="443.6" y1="124" x2="408.8" y2="98.7"/>
	<line class="st4" x1="421.8" y1="112.2" x2="408.8" y2="98.7"/>
	<line class="st3" x1="414.8" y1="109.5" x2="408.4" y2="98.7"/>
	<path class="st12" d="M407.2,103.2c-2.5,0-4.5-2-4.5-4.5c0-2.5,2-4.5,4.5-4.5c2.5,0,7,4.5,7,4.5S409.7,103.2,407.2,103.2z"/>
</g>
<path class="st6" d="M295.5,76.7c-2.4,0.7-4.9-0.6-5.6-3c-0.7-2.4,0.6-4.9,3-5.6c2.4-0.7,8,2.3,8,2.3S297.8,76,295.5,76.7z"/>
<polyline class="st2" points="460.4,60.4 327.1,60.4 327.1,84.9 460.4,84.9 "/>
<line class="st7" x1="380.1" y1="107.5" x2="414.9" y2="107.5"/>
<line class="st7" x1="430" y1="107.5" x2="482.5" y2="107.5"/>
<path class="st11" d="M295.3,72.4c7.2-3.3,5.3-11.1,15.6-16.5s107.9-24.6,118.4-23.8c10.5,0.8,16.8,3.3,16.8,3.3"/>
<path class="st11" d="M449.3,95.1c-10.6,2.1-11.2,2.1-24.7,3.4c-13.5,1.3-92.8-2.4-101.9-4.3c-9.2-1.9-8.9-11.6-12.4-16.8
	c-3.5-5.3-4.6-8-13.5-5.8"/>
</svg>
