<?xml version="1.0" encoding="utf-8"?>
<!-- Generator: Adobe Illustrator 27.5.0, SVG Export Plug-In . SVG Version: 6.00 Build 0)  -->
<svg version="1.1" id="Layer_1" xmlns="http://www.w3.org/2000/svg" xmlns:xlink="http://www.w3.org/1999/xlink" x="0px" y="0px"
	 viewBox="0 0 182.85 113.95" style="enable-background:new 0 0 182.85 113.95;" xml:space="preserve">
<style type="text/css">
	.st0{fill:#919090;stroke:#000000;stroke-width:0.5;stroke-miterlimit:10;}
	.st1{fill:none;stroke:#010101;stroke-width:0.5;stroke-miterlimit:10;}
	.st2{fill:#F16163;stroke:#5F0A0C;stroke-width:0.5;stroke-miterlimit:10;}
	.st3{fill:none;}
	.st4{font-family:'TimesNewRomanPS-ItalicMT';}
	.st5{font-size:12px;}
	.st6{fill:#010101;}
	.st7{fill:none;stroke:#09783D;stroke-miterlimit:10;}
	.st8{fill:#09783D;}
	.st9{fill:#6EBE45;stroke:#010101;stroke-miterlimit:10;}
	.st10{fill:#FBEE23;}
</style>
<path class="st0" d="M112.45,57.49c-12.44-6.71-19.18-15.44-29.28-6.1s-17.11,20.76-0.39,21.25s27.51-0.93,31.28-3.86
	C117.84,65.85,120.95,62.08,112.45,57.49z"/>
<path class="st0" d="M0,74.21c22.68-2.06,40.2-7.83,40.82-21.65s0.82-25.97-16.7-38.96S0,6.39,0,6.39V74.21z"/>
<path class="st0" d="M42.05,0c6.18,15.25,12.37,24.33,29.89,21.65s31.33-1.65,40.2,5.46s19.58,24.11,29.07,26.43
	c9.48,2.33,41.64-20.56,41.64-20.56V0H42.05z"/>
<rect class="st1" width="182.85" height="99.78"/>
<path class="st2" d="M171.68,68.08c4.48-13.92-4.79-22.19-16.06-10.5s-19.25,16.62-15.49,25.25c3.09,7.1,21.13,13.3,27.23,7.86
	S168.93,76.64,171.68,68.08z"/>
<rect x="152.11" y="68.82" class="st3" width="15.08" height="11.97"/>
<text transform="matrix(1 0 0 1 152.1054 77.2168)" class="st4 st5">G</text>
<rect x="23.07" y="84.92" class="st3" width="15.08" height="11.97"/>
<text transform="matrix(1 0 0 1 23.0684 93.318)" class="st4 st5">x</text>
<text transform="matrix(0.583 0 0 0.583 28.3946 97.3141)" class="st4 st5">0</text>
<g>
	<line class="st6" x1="17.26" y1="93.13" x2="21.75" y2="77.4"/>
	<g>
		<line class="st7" x1="17.26" y1="93.13" x2="20.09" y2="83.2"/>
		<g>
			<path class="st8" d="M21.75,77.4c0.23,3.02,1,6.9,2.23,9.52l-4.1-2.96l-5.04,0.35C17.26,82.73,19.96,79.84,21.75,77.4z"/>
		</g>
	</g>
</g>
<circle class="st9" cx="17.26" cy="93.13" r="3.04"/>
<line class="st10" x1="174.74" y1="114.1" x2="127.93" y2="114.1"/>
</svg>
