<?xml version="1.0" encoding="utf-8"?>
<!-- Generator: Adobe Illustrator 27.5.0, SVG Export Plug-In . SVG Version: 6.00 Build 0)  -->
<svg version="1.1" id="Layer_1" xmlns="http://www.w3.org/2000/svg" xmlns:xlink="http://www.w3.org/1999/xlink" x="0px" y="0px"
	 viewBox="0 0 182.85 99.78" style="enable-background:new 0 0 182.85 99.78;" xml:space="preserve">
<style type="text/css">
	.st0{fill:#919090;stroke:#000000;stroke-width:0.5;stroke-miterlimit:10;}
	.st1{fill:none;stroke:#010101;stroke-width:0.5;stroke-miterlimit:10;}
	.st2{fill:#F16163;stroke:#5F0A0C;stroke-width:0.5;stroke-miterlimit:10;}
	.st3{fill:none;stroke:#000000;stroke-width:2;stroke-miterlimit:10;}
	.st4{fill:none;stroke:#000000;stroke-miterlimit:10;}
	.st5{fill:#FBEE23;stroke:#010101;stroke-miterlimit:10;}
	.st6{fill:none;stroke:#792675;stroke-width:2;stroke-miterlimit:10;}
	.st7{fill:#010101;}
	.st8{fill:none;stroke:#09783D;stroke-miterlimit:10;}
	.st9{fill:#09783D;}
	.st10{fill:#6EBE45;stroke:#010101;stroke-miterlimit:10;}
</style>
<path class="st0" d="M112.45,57.49c-12.44-6.71-19.18-15.44-29.28-6.1s-17.11,20.76-0.39,21.25s27.51-0.93,31.28-3.86
	C117.84,65.85,120.95,62.08,112.45,57.49z"/>
<path class="st0" d="M0,74.21c22.68-2.06,40.2-7.83,40.82-21.65s0.82-25.97-16.7-38.96S0,6.39,0,6.39V74.21z"/>
<path class="st0" d="M42.05,0c6.18,15.25,12.37,24.33,29.89,21.65s31.33-1.65,40.2,5.46s19.58,24.11,29.07,26.43
	c9.48,2.33,41.64-20.56,41.64-20.56V0H42.05z"/>
<rect class="st1" width="182.85" height="99.78"/>
<path class="st2" d="M171.68,68.08c4.48-13.92-4.79-22.19-16.06-10.5s-19.25,16.62-15.49,25.25c3.09,7.1,21.13,13.3,27.23,7.86
	S168.93,76.64,171.68,68.08z"/>
<g>
	<path class="st3" d="M18.06,91.21c5.07-15.13,17.05-25.98,31.25-30.24"/>
</g>
<g>
	<path class="st3" d="M102.99,89.76c9.92-3.68,19.94-4.75,28.78-3.56"/>
</g>
<path class="st4" d="M92.86,32.15c-10.19,13.4-24.73,23.64-42.25,28.33"/>
<g>
	<path class="st3" d="M50.76,60.95c6.8-1.46,13.57-1.37,19.94,0.02"/>
</g>
<g>
	<path class="st4" d="M79.31,37.8c6.63,2.08,12.48,5.49,17.35,9.84"/>
</g>
<circle class="st5" cx="50.18" cy="60.97" r="2.16"/>
<path class="st3" d="M66.67,94.36c-4.35-7.9-7.4-16.68-8.84-26.12"/>
<path class="st3" d="M159.87,87.05c-8.9,1.44-18.2,1.36-27.57-0.47"/>
<path class="st4" d="M104.78,36.92c-8.83,1.82-18.13,2.13-27.56,0.71"/>
<path class="st6" d="M72.14,60.89c-9.7-3.92-17.89-11.57-22.23-22"/>
<path class="st3" d="M57.4,68.82c-0.38-10.07-2.72-20.24-7.22-29.96"/>
<path class="st4" d="M101.67,89.51c9.83-2.23,19.39-6.41,28.11-12.61"/>
<circle class="st5" cx="57.91" cy="69.08" r="2.16"/>
<circle class="st5" cx="71.73" cy="60.97" r="2.16"/>
<circle class="st5" cx="93.16" cy="31.88" r="2.16"/>
<circle class="st5" cx="105.98" cy="36.74" r="2.16"/>
<circle class="st5" cx="96.57" cy="47.82" r="2.16"/>
<circle class="st5" cx="131.77" cy="86.31" r="2.16"/>
<circle class="st5" cx="129.61" cy="77.4" r="2.16"/>
<circle class="st5" cx="159.87" cy="87.31" r="2.16"/>
<path class="st6" d="M38.32,21.31c4.56,5.33,8.46,11.37,11.53,18.05"/>
<g>
	<path class="st6" d="M53.01,80.27c5.85,3.76,10.58,8.6,14.12,14.09"/>
</g>
<path class="st4" d="M19.14,74.27c0.73,5.84,0.2,11.93-1.79,17.89"/>
<g>
	<line class="st7" x1="17.26" y1="93.13" x2="21.75" y2="77.4"/>
	<g>
		<line class="st8" x1="17.26" y1="93.13" x2="20.09" y2="83.2"/>
		<g>
			<path class="st9" d="M21.75,77.4c0.23,3.02,1,6.9,2.23,9.52l-4.1-2.96l-5.04,0.35C17.26,82.73,19.96,79.84,21.75,77.4z"/>
		</g>
	</g>
</g>
<circle class="st10" cx="17.26" cy="93.13" r="3.04"/>
<circle class="st5" cx="19.44" cy="74.01" r="2.16"/>
<path class="st4" d="M78,37.72c-14.05-1.63-27.83-7.07-39.72-16.5"/>
<path class="st3" d="M103.83,89.9c-16.65,2.48-34.21-0.33-50.03-9.2"/>
<circle class="st5" cx="66.97" cy="94.09" r="2.16"/>
<circle class="st5" cx="103.83" cy="89.47" r="2.16"/>
<circle class="st5" cx="53.22" cy="81.05" r="2.16"/>
<circle class="st5" cx="38.86" cy="21.31" r="2.16"/>
<circle class="st5" cx="49.91" cy="38.89" r="2.16"/>
<circle class="st5" cx="78.24" cy="37.48" r="2.16"/>
</svg>
