<?xml version="1.0" encoding="utf-8"?>
<!-- Generator: Adobe Illustrator 27.5.0, SVG Export Plug-In . SVG Version: 6.00 Build 0)  -->
<svg version="1.1" id="Layer_1" xmlns="http://www.w3.org/2000/svg" xmlns:xlink="http://www.w3.org/1999/xlink" x="0px" y="0px"
	 viewBox="0 0 182.85 99.78" style="enable-background:new 0 0 182.85 99.78;" xml:space="preserve">
<style type="text/css">
	.st0{fill:#919090;stroke:#000000;stroke-width:0.5;stroke-miterlimit:10;}
	.st1{fill:none;stroke:#010101;stroke-width:0.5;stroke-miterlimit:10;}
	.st2{fill:#F16163;stroke:#5F0A0C;stroke-width:0.5;stroke-miterlimit:10;}
	.st3{fill:none;}
	.st4{font-family:'TimesNewRomanPS-ItalicMT';}
	.st5{font-size:12px;}
	.st6{fill:#EA8B23;stroke:#010101;stroke-miterlimit:10;}
	.st7{fill:none;stroke:#000000;stroke-miterlimit:10;}
	.st8{fill:#FBEE23;stroke:#010101;stroke-miterlimit:10;}
	.st9{fill:none;stroke:#792675;stroke-miterlimit:10;}
	.st10{fill:none;stroke:#000000;stroke-miterlimit:10;stroke-dasharray:3.2329,3.2329;}
	.st11{fill:none;stroke:#792675;stroke-miterlimit:10;stroke-dasharray:2.6409,2.6409;}
	.st12{fill:none;stroke:#000000;stroke-miterlimit:10;stroke-dasharray:2.6755,2.6755;}
	.st13{fill:none;stroke:#000000;stroke-miterlimit:10;stroke-dasharray:2.8126,2.8126;}
	.st14{fill:none;stroke:#792675;stroke-miterlimit:10;stroke-dasharray:2.8147,2.8147;}
	.st15{fill:#010101;}
	.st16{fill:none;stroke:#09783D;stroke-miterlimit:10;}
	.st17{fill:#09783D;}
	.st18{fill:#6EBE45;stroke:#010101;stroke-miterlimit:10;}
</style>
<path class="st0" d="M112.45,57.49c-12.44-6.71-19.18-15.44-29.28-6.1s-17.11,20.76-0.39,21.25s27.51-0.93,31.28-3.86
	C117.84,65.85,120.95,62.08,112.45,57.49z"/>
<path class="st0" d="M0,74.21c22.68-2.06,40.2-7.83,40.82-21.65s0.82-25.97-16.7-38.96S0,6.39,0,6.39V74.21z"/>
<path class="st0" d="M42.05,0c6.18,15.25,12.37,24.33,29.89,21.65s31.33-1.65,40.2,5.46s19.58,24.11,29.07,26.43
	c9.48,2.33,41.64-20.56,41.64-20.56V0H42.05z"/>
<rect class="st1" width="182.85" height="99.78"/>
<path class="st2" d="M171.68,68.08c4.48-13.92-4.79-22.19-16.06-10.5s-19.25,16.62-15.49,25.25c3.09,7.1,21.13,13.3,27.23,7.86
	S168.93,76.64,171.68,68.08z"/>
<rect x="149.84" y="8.23" class="st3" width="19.62" height="11.97"/>
<text transform="matrix(1 0 0 1 149.8359 16.6344)" class="st4 st5">x</text>
<text transform="matrix(0.583 0 0 0.583 155.1621 20.6305)" class="st4 st5">rand</text>
<rect x="96.3" y="30.75" class="st3" width="19.62" height="11.97"/>
<text transform="matrix(1 0 0 1 96.3038 39.1502)" class="st4 st5">x</text>
<text transform="matrix(0.583 0 0 0.583 101.63 43.1463)" class="st4 st5">near</text>
<circle class="st6" cx="143.39" cy="16.38" r="2.16"/>
<g>
	<path class="st7" d="M18.06,91.21c5.07-15.13,17.05-25.98,31.25-30.24"/>
</g>
<path class="st7" d="M92.86,32.15c-10.19,13.4-24.73,23.64-42.25,28.33"/>
<g>
	<path class="st7" d="M50.76,60.95c6.8-1.46,13.57-1.37,19.94,0.02"/>
</g>
<circle class="st8" cx="50.18" cy="60.97" r="2.16"/>
<path class="st7" d="M66.67,94.36c-4.35-7.9-7.4-16.68-8.84-26.12"/>
<path class="st9" d="M72.14,60.89c-9.7-3.92-17.89-11.57-22.23-22"/>
<path class="st7" d="M57.4,68.82c-0.38-10.07-2.72-20.24-7.22-29.96"/>
<circle class="st8" cx="57.91" cy="69.08" r="2.16"/>
<circle class="st8" cx="71.73" cy="60.97" r="2.16"/>
<circle class="st8" cx="66.97" cy="94.09" r="2.16"/>
<circle class="st8" cx="49.91" cy="38.89" r="2.16"/>
<g>
	<g>
		<g>
			<path class="st7" d="M106.11,0.68c0.01,0.5,0,1-0.01,1.5"/>
			<path class="st10" d="M105.89,5.4c-0.82,7.88-3.95,15.57-9.39,21.97"/>
			<path class="st7" d="M95.43,28.58c-0.34,0.37-0.68,0.73-1.04,1.08"/>
		</g>
	</g>
	<g>
		<g>
			<path class="st9" d="M80.18,49.62c0.24-0.44,0.49-0.87,0.74-1.31"/>
			<path class="st11" d="M82.28,46.05c2.52-4.05,5.46-7.91,8.8-11.53"/>
			<path class="st9" d="M91.98,33.55c0.34-0.36,0.69-0.72,1.05-1.08"/>
		</g>
	</g>
	<g>
		<g>
			<path class="st7" d="M109.15,8.24c-0.21,0.45-0.43,0.9-0.65,1.35"/>
			<path class="st12" d="M107.28,11.97c-3.09,5.79-6.95,11.28-11.59,16.32"/>
			<path class="st7" d="M94.77,29.26c-0.34,0.36-0.69,0.72-1.05,1.08"/>
		</g>
	</g>
	<g>
		<path class="st3" d="M109.15,8.24"/>
	</g>
	<g>
		<g>
			<path class="st7" d="M94.39,29.67c0.35-0.36,0.71-0.71,1.07-1.05"/>
			<path class="st13" d="M97.56,26.74c10.1-8.51,22.93-12.11,35.35-10.8"/>
			<path class="st7" d="M134.3,16.12c0.5,0.07,0.99,0.14,1.48,0.23"/>
		</g>
	</g>
	<g>
		<g>
			<path class="st9" d="M92.62,31.88c-0.35,0.36-0.71,0.71-1.06,1.06"/>
			<path class="st14" d="M89.52,34.89c-9.53,8.91-20.27,15.79-31.67,20.65"/>
			<path class="st9" d="M56.55,56.09c-0.46,0.19-0.93,0.38-1.39,0.56"/>
		</g>
	</g>
</g>
<circle class="st8" cx="93.16" cy="31.88" r="2.16"/>
<g>
	<line class="st15" x1="17.26" y1="93.13" x2="21.75" y2="77.4"/>
	<g>
		<line class="st16" x1="17.26" y1="93.13" x2="20.09" y2="83.2"/>
		<g>
			<path class="st17" d="M21.75,77.4c0.23,3.02,1,6.9,2.23,9.52l-4.1-2.96l-5.04,0.35C17.26,82.73,19.96,79.84,21.75,77.4z"/>
		</g>
	</g>
</g>
<circle class="st18" cx="17.26" cy="93.13" r="3.04"/>
</svg>
