<?xml version="1.0" encoding="UTF-8" standalone="no"?>
<!-- Created with Inkscape (http://www.inkscape.org/) -->

<svg
   xmlns:dc="http://purl.org/dc/elements/1.1/"
   xmlns:cc="http://creativecommons.org/ns#"
   xmlns:rdf="http://www.w3.org/1999/02/22-rdf-syntax-ns#"
   xmlns:svg="http://www.w3.org/2000/svg"
   xmlns="http://www.w3.org/2000/svg"
   xmlns:sodipodi="http://sodipodi.sourceforge.net/DTD/sodipodi-0.dtd"
   xmlns:inkscape="http://www.inkscape.org/namespaces/inkscape"
   version="1.1"
   id="svg55970"
   xml:space="preserve"
   width="633.52905"
   height="288.00473"
   viewBox="0 0 633.52905 288.00473"
   sodipodi:docname="lattice8.svg"
   inkscape:version="0.92.3 (2405546, 2018-03-11)"><metadata
     id="metadata55976"><rdf:RDF><cc:Work
         rdf:about=""><dc:format>image/svg+xml</dc:format><dc:type
           rdf:resource="http://purl.org/dc/dcmitype/StillImage" /><dc:title></dc:title></cc:Work></rdf:RDF></metadata><defs
     id="defs55974"><clipPath
       clipPathUnits="userSpaceOnUse"
       id="clipPath55998"><path
         d="m 106,30 h 1 v 166 h -1 z"
         id="path55996"
         inkscape:connector-curvature="0" /></clipPath><clipPath
       clipPathUnits="userSpaceOnUse"
       id="clipPath56012"><path
         d="m 23,30 h 2 v 166 h -2 z"
         id="path56010"
         inkscape:connector-curvature="0" /></clipPath><clipPath
       clipPathUnits="userSpaceOnUse"
       id="clipPath56026"><path
         d="m 64,30 h 2 v 166 h -2 z"
         id="path56024"
         inkscape:connector-curvature="0" /></clipPath><clipPath
       clipPathUnits="userSpaceOnUse"
       id="clipPath56040"><path
         d="m 147,30 h 1 v 166 h -1 z"
         id="path56038"
         inkscape:connector-curvature="0" /></clipPath><clipPath
       clipPathUnits="userSpaceOnUse"
       id="clipPath56054"><path
         d="m 188,30 h 1 v 166 h -1 z"
         id="path56052"
         inkscape:connector-curvature="0" /></clipPath><clipPath
       clipPathUnits="userSpaceOnUse"
       id="clipPath56068"><path
         d="M 347,1 H 473 V 127 H 347 Z"
         id="path56066"
         inkscape:connector-curvature="0" /></clipPath><clipPath
       clipPathUnits="userSpaceOnUse"
       id="clipPath56082"><path
         d="M 318,30 H 444 V 157 H 318 Z"
         id="path56080"
         inkscape:connector-curvature="0" /></clipPath><clipPath
       clipPathUnits="userSpaceOnUse"
       id="clipPath56096"><path
         d="M 259,89 H 385 V 215 H 259 Z"
         id="path56094"
         inkscape:connector-curvature="0" /></clipPath><clipPath
       clipPathUnits="userSpaceOnUse"
       id="clipPath56110"><path
         d="M 288,60 H 415 V 186 H 288 Z"
         id="path56108"
         inkscape:connector-curvature="0" /></clipPath><clipPath
       clipPathUnits="userSpaceOnUse"
       id="clipPath56124"><path
         d="M 317,59 H 447 V 189 H 317 Z"
         id="path56122"
         inkscape:connector-curvature="0" /></clipPath><clipPath
       clipPathUnits="userSpaceOnUse"
       id="clipPath56138"><path
         d="M 259,0 H 388 V 130 H 259 Z"
         id="path56136"
         inkscape:connector-curvature="0" /></clipPath><clipPath
       clipPathUnits="userSpaceOnUse"
       id="clipPath56152"><path
         d="M 287,29 H 417 V 159 H 287 Z"
         id="path56150"
         inkscape:connector-curvature="0" /></clipPath><clipPath
       clipPathUnits="userSpaceOnUse"
       id="clipPath56166"><path
         d="M 346,88 H 476 V 217 H 346 Z"
         id="path56164"
         inkscape:connector-curvature="0" /></clipPath></defs><sodipodi:namedview
     pagecolor="#ffffff"
     bordercolor="#666666"
     borderopacity="1"
     objecttolerance="10"
     gridtolerance="10"
     guidetolerance="10"
     inkscape:pageopacity="0"
     inkscape:pageshadow="2"
     inkscape:window-width="909"
     inkscape:window-height="480"
     id="namedview55972"
     showgrid="false"
     inkscape:zoom="0.5350978"
     inkscape:cx="316.76453"
     inkscape:cy="144.00237"
     inkscape:window-x="0"
     inkscape:window-y="0"
     inkscape:window-maximized="0"
     inkscape:current-layer="g55978" /><g
     id="g55978"
     inkscape:groupmode="layer"
     inkscape:label="lattice8"
     transform="matrix(1.3333333,0,0,-1.3333333,0,288.00474)"><g
       id="g55980"><path
         d="M 0,48.218 H 217.879"
         style="fill:none;stroke:#7f7f7f;stroke-width:0.47999999;stroke-linecap:butt;stroke-linejoin:miter;stroke-miterlimit:10;stroke-dasharray:none;stroke-opacity:1"
         id="path55982"
         inkscape:connector-curvature="0" /><path
         d="M 0,89.738 H 217.879"
         style="fill:none;stroke:#7f7f7f;stroke-width:0.47999999;stroke-linecap:butt;stroke-linejoin:miter;stroke-miterlimit:10;stroke-dasharray:none;stroke-opacity:1"
         id="path55984"
         inkscape:connector-curvature="0" /><path
         d="M 0,172.777 H 217.879"
         style="fill:none;stroke:#7f7f7f;stroke-width:0.47999999;stroke-linecap:butt;stroke-linejoin:miter;stroke-miterlimit:10;stroke-dasharray:none;stroke-opacity:1"
         id="path55986"
         inkscape:connector-curvature="0" /><path
         d="M 0,131.257 H 217.879"
         style="fill:none;stroke:#7f7f7f;stroke-width:0.47999999;stroke-linecap:butt;stroke-linejoin:miter;stroke-miterlimit:10;stroke-dasharray:none;stroke-opacity:1"
         id="path55988"
         inkscape:connector-curvature="0" /><g
         id="g55990"
         transform="translate(0,-0.996445)"><g
           id="g55992"><g
             id="g55994"
             clip-path="url(#clipPath55998)"><g
               id="g56000"><path
                 d="M 106.32,30.652 V 195.254"
                 style="fill:none;stroke:#7f7f7f;stroke-width:0.47999999;stroke-linecap:butt;stroke-linejoin:miter;stroke-miterlimit:10;stroke-dasharray:none;stroke-opacity:1"
                 id="path56002"
                 inkscape:connector-curvature="0" /></g></g></g></g><g
         id="g56004"
         transform="translate(0,-0.996445)"><g
           id="g56006"><g
             id="g56008"
             clip-path="url(#clipPath56012)"><g
               id="g56014"><path
                 d="M 24,30.652 V 195.254"
                 style="fill:none;stroke:#7f7f7f;stroke-width:0.47999999;stroke-linecap:butt;stroke-linejoin:miter;stroke-miterlimit:10;stroke-dasharray:none;stroke-opacity:1"
                 id="path56016"
                 inkscape:connector-curvature="0" /></g></g></g></g><g
         id="g56018"
         transform="translate(0,-0.996445)"><g
           id="g56020"><g
             id="g56022"
             clip-path="url(#clipPath56026)"><g
               id="g56028"><path
                 d="M 64.801,30.652 V 195.254"
                 style="fill:none;stroke:#7f7f7f;stroke-width:0.47999999;stroke-linecap:butt;stroke-linejoin:miter;stroke-miterlimit:10;stroke-dasharray:none;stroke-opacity:1"
                 id="path56030"
                 inkscape:connector-curvature="0" /></g></g></g></g><g
         id="g56032"
         transform="translate(0,-0.996445)"><g
           id="g56034"><g
             id="g56036"
             clip-path="url(#clipPath56040)"><g
               id="g56042"><path
                 d="M 147.238,30.652 V 195.254"
                 style="fill:none;stroke:#7f7f7f;stroke-width:0.47999999;stroke-linecap:butt;stroke-linejoin:miter;stroke-miterlimit:10;stroke-dasharray:none;stroke-opacity:1"
                 id="path56044"
                 inkscape:connector-curvature="0" /></g></g></g></g><g
         id="g56046"
         transform="translate(0,-0.996445)"><g
           id="g56048"><g
             id="g56050"
             clip-path="url(#clipPath56054)"><g
               id="g56056"><path
                 d="M 188.762,30.652 V 195.254"
                 style="fill:none;stroke:#7f7f7f;stroke-width:0.47999999;stroke-linecap:butt;stroke-linejoin:miter;stroke-miterlimit:10;stroke-dasharray:none;stroke-opacity:1"
                 id="path56058"
                 inkscape:connector-curvature="0" /></g></g></g></g><g
         id="g56060"
         transform="translate(0,-0.996445)"><g
           id="g56062"><g
             id="g56064"
             clip-path="url(#clipPath56068)"><g
               id="g56070"><path
                 d="M 347.59,1.574 472.672,126.652"
                 style="fill:none;stroke:#7f7f7f;stroke-width:0.5;stroke-linecap:butt;stroke-linejoin:miter;stroke-miterlimit:10;stroke-dasharray:none;stroke-opacity:1"
                 id="path56072"
                 inkscape:connector-curvature="0" /></g></g></g></g><g
         id="g56074"
         transform="translate(0,-0.996445)"><g
           id="g56076"><g
             id="g56078"
             clip-path="url(#clipPath56082)"><g
               id="g56084"><path
                 d="M 318.238,30.922 443.32,156.012"
                 style="fill:none;stroke:#7f7f7f;stroke-width:0.5;stroke-linecap:butt;stroke-linejoin:miter;stroke-miterlimit:10;stroke-dasharray:none;stroke-opacity:1"
                 id="path56086"
                 inkscape:connector-curvature="0" /></g></g></g></g><g
         id="g56088"
         transform="translate(0,-0.996445)"><g
           id="g56090"><g
             id="g56092"
             clip-path="url(#clipPath56096)"><g
               id="g56098"><path
                 d="M 259.539,89.633 384.621,214.715"
                 style="fill:none;stroke:#7f7f7f;stroke-width:0.5;stroke-linecap:butt;stroke-linejoin:miter;stroke-miterlimit:10;stroke-dasharray:none;stroke-opacity:1"
                 id="path56100"
                 inkscape:connector-curvature="0" /></g></g></g></g><g
         id="g56102"
         transform="translate(0,-0.996445)"><g
           id="g56104"><g
             id="g56106"
             clip-path="url(#clipPath56110)"><g
               id="g56112"><path
                 d="M 288.891,60.285 413.969,185.363"
                 style="fill:none;stroke:#7f7f7f;stroke-width:0.5;stroke-linecap:butt;stroke-linejoin:miter;stroke-miterlimit:10;stroke-dasharray:none;stroke-opacity:1"
                 id="path56114"
                 inkscape:connector-curvature="0" /></g></g></g></g><g
         id="g56116"
         transform="translate(0,-0.996445)"><g
           id="g56118"><g
             id="g56120"
             clip-path="url(#clipPath56124)"><g
               id="g56126"><path
                 d="m 446.012,59.363 -128.5,128.489"
                 style="fill:none;stroke:#7f7f7f;stroke-width:0.5;stroke-linecap:butt;stroke-linejoin:miter;stroke-miterlimit:10;stroke-dasharray:none;stroke-opacity:1"
                 id="path56128"
                 inkscape:connector-curvature="0" /></g></g></g></g><g
         id="g56130"
         transform="translate(0,-0.996445)"><g
           id="g56132"><g
             id="g56134"
             clip-path="url(#clipPath56138)"><g
               id="g56140"><path
                 d="m 387.82,1.172 -128.5,128.5"
                 style="fill:none;stroke:#7f7f7f;stroke-width:0.5;stroke-linecap:butt;stroke-linejoin:miter;stroke-miterlimit:10;stroke-dasharray:none;stroke-opacity:1"
                 id="path56142"
                 inkscape:connector-curvature="0" /></g></g></g></g><g
         id="g56144"
         transform="translate(0,-0.996445)"><g
           id="g56146"><g
             id="g56148"
             clip-path="url(#clipPath56152)"><g
               id="g56154"><path
                 d="M 416.648,30.004 288.16,158.504"
                 style="fill:none;stroke:#7f7f7f;stroke-width:0.5;stroke-linecap:butt;stroke-linejoin:miter;stroke-miterlimit:10;stroke-dasharray:none;stroke-opacity:1"
                 id="path56156"
                 inkscape:connector-curvature="0" /></g></g></g></g><g
         id="g56158"
         transform="translate(0,-0.996445)"><g
           id="g56160"><g
             id="g56162"
             clip-path="url(#clipPath56166)"><g
               id="g56168"><path
                 d="m 474.969,88.324 -128.5,128.5"
                 style="fill:none;stroke:#7f7f7f;stroke-width:0.5;stroke-linecap:butt;stroke-linejoin:miter;stroke-miterlimit:10;stroke-dasharray:none;stroke-opacity:1"
                 id="path56170"
                 inkscape:connector-curvature="0" /></g></g></g></g><path
         d="m 104.641,90.445 0.097,2.352 0.211,2.308 0.313,2.262 0.41,2.199 0.519,2.141 0.598,2.07 0.699,2.012 0.782,1.949 0.878,1.879 0.961,1.808 1.039,1.762 1.122,1.668 1.199,1.613 1.269,1.528 1.332,1.472 1.41,1.399 1.461,1.32 1.528,1.238 1.582,1.172 1.648,1.098 1.68,1.012 1.742,0.941 1.777,0.859 1.84,0.782 1.864,0.699 1.91,0.617 1.929,0.543 1.969,0.449 2,0.371 2.02,0.289 1.781,0.18 0.23,-2.269 -1.761,-0.18 0.05,0.008 -1.98,-0.278 0.051,0.008 -1.949,-0.359 0.046,0.012 -1.918,-0.454 0.051,0.02 -1.89,-0.527 0.05,0.019 -1.863,-0.609 0.051,0.019 -1.82,-0.691 0.05,0.019 -1.789,-0.757 0.051,0.027 -1.73,-0.84 0.039,0.024 -1.692,-0.922 0.043,0.031 -1.64,-0.981 0.05,0.032 -1.601,-1.071 0.051,0.028 -1.539,-1.141 0.039,0.043 -1.493,-1.211 0.051,0.039 -1.429,-1.289 0.039,0.039 -1.36,-1.359 0.039,0.051 -1.297,-1.43 0.039,0.039 -1.23,-1.488 0.031,0.039 -1.16,-1.563 0.027,0.051 -1.078,-1.629 0.032,0.051 -1.024,-1.699 0.031,0.047 -0.929,-1.758 0.031,0.051 -0.859,-1.832 0.027,0.05 -0.77,-1.89 0.02,0.058 -0.68,-1.957 0.02,0.059 -0.59,-2.02 0.019,0.051 -0.507,-2.082 0.019,0.051 -0.398,-2.141 0.008,0.051 -0.309,-2.199 0.008,0.051 -0.207,-2.262 0.008,0.058 -0.098,-2.328 z m 33.129,45.441 8.82,-4.449 -8.219,-5.48 c -0.519,-0.352 -1.23,-0.211 -1.582,0.308 -0.348,0.532 -0.211,1.242 0.32,1.59 l 6.582,4.391 0.118,-1.957 -7.071,3.566 c -0.558,0.281 -0.777,0.961 -0.5,1.531 0.282,0.559 0.973,0.782 1.532,0.5 z"
         style="fill:#000000;fill-opacity:1;fill-rule:nonzero;stroke:none"
         id="path56172"
         inkscape:connector-curvature="0" /><path
         d="m 105.012,90.398 v 2.297 l 0.027,2.273 0.063,2.207 0.089,2.161 0.11,2.109 0.148,2.07 0.172,2.012 0.188,1.98 0.23,1.93 0.25,1.891 0.563,3.629 0.679,3.488 0.77,3.32 0.859,3.172 0.942,3.039 1.027,2.903 1.121,2.769 1.199,2.649 1.27,2.55 1.351,2.43 1.41,2.34 1.481,2.25 1.539,2.16 1.602,2.09 1.648,2.019 1.699,1.961 1.75,1.899 1.789,1.859 1.832,1.832 3.77,3.559 3.89,3.5 3.981,3.519 2.359,2.082 1.508,-1.711 -2.359,-2.078 -3.981,-3.511 0.012,0.011 -3.871,-3.5 0.019,0.02 -3.75,-3.539 0.024,0.019 -1.813,-1.812 0.012,0.019 -1.769,-1.84 0.019,0.02 -1.73,-1.879 0.019,0.02 -1.68,-1.93 0.02,0.019 -1.621,-1.988 0.019,0.031 -1.578,-2.062 0.032,0.031 -1.524,-2.129 0.024,0.039 -1.454,-2.211 0.024,0.032 -1.391,-2.301 0.02,0.039 -1.321,-2.391 0.02,0.043 -1.25,-2.511 0.02,0.039 -1.18,-2.61 0.019,0.051 -1.097,-2.73 0.008,0.039 -1.02,-2.86 0.02,0.051 -0.93,-3 0.012,0.039 -0.852,-3.121 0.012,0.043 -0.75,-3.293 v 0.043 l -0.66,-3.441 v 0.039 l -0.563,-3.598 0.012,0.027 -0.25,-1.867 v 0.02 l -0.231,-1.922 0.008,0.031 -0.187,-1.961 v 0.012 l -0.172,-2 v 0.019 l -0.141,-2.05 v 0.019 l -0.109,-2.09 v 0.012 l -0.09,-2.152 v 0.019 l -0.059,-2.199 v 0.019 l -0.031,-2.25 v 0.02 -2.297 z m 32.566,80.68 9.692,1.91 -3.098,-9.371 c -0.203,-0.602 -0.844,-0.922 -1.442,-0.731 -0.601,0.2 -0.921,0.852 -0.73,1.442 l 2.488,7.519 1.301,-1.468 -7.769,-1.543 c -0.61,-0.118 -1.211,0.281 -1.34,0.902 -0.121,0.609 0.281,1.207 0.898,1.34 z"
         style="fill:#000000;fill-opacity:1;fill-rule:nonzero;stroke:none"
         id="path56174"
         inkscape:connector-curvature="0" /><path
         d="m 105.371,90.406 0.008,2.269 0.082,2.204 0.141,2.128 0.187,2.04 0.231,1.98 0.3,1.891 0.352,1.839 0.387,1.758 0.429,1.703 0.492,1.637 0.52,1.582 0.57,1.508 0.602,1.461 0.648,1.422 0.668,1.347 0.711,1.313 0.742,1.269 0.778,1.219 1.609,2.313 1.703,2.168 1.789,2.039 1.828,1.929 1.883,1.84 1.91,1.782 1.911,1.73 3.796,3.41 -0.019,-0.012 1.871,1.731 -0.02,-0.02 1.829,1.77 -0.02,-0.02 1.77,1.832 -0.039,-0.043 1.699,1.922 -0.039,-0.039 1.609,2.008 -0.039,-0.051 1.52,2.153 -0.04,-0.071 1.391,2.282 -0.031,-0.063 0.64,1.211 -0.011,-0.031 0.609,1.242 -0.008,-0.031 0.578,1.289 -0.019,-0.039 0.543,1.34 -0.012,-0.04 0.5,1.391 -0.012,-0.051 0.454,1.45 -0.012,-0.04 0.41,1.5 -0.012,-0.039 0.383,1.559 -0.012,-0.039 0.321,1.617 -0.008,-0.039 0.269,1.68 v -0.039 l 0.219,1.761 v -0.043 l 0.168,1.821 v -0.039 l 0.094,1.59 2.277,-0.129 -0.097,-1.621 -0.172,-1.852 -0.231,-1.797 -0.277,-1.711 -0.332,-1.672 -0.379,-1.597 -0.43,-1.539 -0.472,-1.493 -0.508,-1.418 -0.563,-1.39 -0.597,-1.332 -0.641,-1.278 -0.672,-1.25 -1.43,-2.339 -1.546,-2.204 -1.653,-2.07 -1.738,-1.957 -1.801,-1.859 -1.851,-1.793 -1.879,-1.75 -3.801,-3.41 -1.899,-1.719 0.008,0.012 -1.886,-1.762 0.019,0.019 -1.851,-1.828 0.019,0.028 -1.801,-1.899 0.032,0.039 -1.75,-2 0.039,0.039 -1.668,-2.109 0.039,0.051 -1.578,-2.27 0.027,0.051 -0.75,-1.191 0.019,0.039 -0.718,-1.231 0.019,0.031 -0.687,-1.281 0.008,0.043 -0.661,-1.32 0.02,0.027 -0.629,-1.379 0.02,0.039 -0.59,-1.418 0.019,0.032 -0.558,-1.481 0.019,0.047 -0.512,-1.539 0.012,0.039 -0.469,-1.609 0.008,0.043 -0.429,-1.661 0.011,0.039 -0.383,-1.73 v 0.039 l -0.328,-1.801 v 0.032 l -0.289,-1.86 v 0.039 l -0.23,-1.937 0.008,0.027 -0.188,-2.008 v 0.028 l -0.133,-2.09 v 0.043 l -0.078,-2.172 v 0.031 l -0.012,-2.262 z m 36.758,73.992 5.262,8.348 4.679,-8.699 c 0.301,-0.551 0.09,-1.239 -0.461,-1.54 -0.558,-0.3 -1.25,-0.089 -1.55,0.461 l -3.75,6.977 1.972,-0.066 -4.222,-6.704 c -0.34,-0.527 -1.039,-0.687 -1.579,-0.359 -0.531,0.34 -0.691,1.039 -0.351,1.582 z"
         style="fill:#000000;fill-opacity:1;fill-rule:nonzero;stroke:none"
         id="path56176"
         inkscape:connector-curvature="0" /><path
         d="m 105,90.437 0.078,2.18 0.141,2.129 0.203,2.07 0.269,2 0.329,1.941 0.378,1.899 0.454,1.832 0.5,1.777 0.558,1.723 0.61,1.668 0.671,1.633 0.719,1.566 0.77,1.531 0.832,1.493 0.867,1.437 0.922,1.402 0.969,1.36 1.011,1.328 2.141,2.519 2.297,2.403 2.461,2.301 2.601,2.179 2.739,2.11 2.839,2.039 2.969,1.968 3.051,1.954 3.16,1.918 3.242,1.91 3.309,1.929 3.379,1.942 3.429,1.988 -0.007,-0.008 3.48,2.047 3.527,2.102 -0.007,-0.012 3.55,2.203 -0.019,-0.012 3.578,2.301 -0.02,-0.012 3.598,2.411 -0.019,-0.02 3.601,2.551 -0.031,-0.012 3.601,2.684 -0.031,-0.024 3.582,2.852 -0.019,-0.02 1.769,1.489 -0.011,-0.02 1.781,1.539 -0.02,-0.008 1.758,1.578 -0.008,-0.007 0.098,0.089 1.551,-1.671 -0.11,-0.098 -1.769,-1.602 -1.801,-1.55 -1.789,-1.5 -3.602,-2.868 -3.621,-2.703 -3.629,-2.57 -3.621,-2.418 -3.59,-2.309 -3.57,-2.211 -3.547,-2.109 -3.48,-2.051 -3.442,-2 -3.379,-1.941 -3.3,-1.918 v 0.008 l -3.219,-1.91 0.008,0.011 -3.141,-1.91 0.024,0.008 -3.043,-1.93 0.019,0.012 -2.937,-1.961 0.031,0.02 -2.813,-2.008 0.032,0.019 -2.7,-2.082 0.039,0.032 -2.558,-2.149 0.047,0.039 -2.418,-2.25 0.051,0.039 -2.262,-2.347 0.051,0.046 -2.102,-2.48 0.031,0.051 -0.98,-1.289 0.019,0.031 -0.937,-1.332 0.019,0.039 -0.89,-1.359 0.019,0.031 -0.851,-1.41 0.019,0.039 -0.797,-1.438 0.02,0.039 -0.75,-1.492 0.019,0.031 -0.71,-1.531 0.019,0.043 -0.648,-1.59 0.007,0.047 -0.589,-1.629 0.011,0.039 -0.539,-1.687 0.008,0.039 -0.5,-1.731 0.02,0.039 -0.438,-1.789 0.008,0.039 -0.379,-1.847 0.012,0.027 -0.321,-1.898 v 0.039 l -0.261,-1.969 0.011,0.051 -0.203,-2.039 v 0.039 l -0.136,-2.102 v 0.039 l -0.071,-2.16 z m 74.43,80.371 9.629,2.149 -2.868,-9.442 c -0.179,-0.609 -0.82,-0.949 -1.421,-0.758 -0.598,0.18 -0.942,0.821 -0.758,1.418 l 2.297,7.582 1.339,-1.449 -7.726,-1.722 c -0.613,-0.141 -1.223,0.25 -1.363,0.859 -0.129,0.621 0.25,1.23 0.871,1.363 z"
         style="fill:#000000;fill-opacity:1;fill-rule:nonzero;stroke:none"
         id="path56178"
         inkscape:connector-curvature="0" /><path
         d="m 104.641,90.425 0.05,1.922 0.09,1.879 0.129,1.832 0.18,1.789 0.211,1.731 0.258,1.711 0.601,3.25 0.719,3.097 0.82,2.95 0.922,2.8 0.969,2.68 1.019,2.551 1.051,2.449 1.051,2.34 1.039,2.269 1.02,2.192 0.98,2.129 v -0.02 l 0.91,2.102 -0.012,-0.031 0.84,2.058 -0.019,-0.027 0.75,2.039 -0.008,-0.059 0.629,2.039 -0.012,-0.07 0.5,2.039 -0.019,-0.078 0.351,2.051 -0.012,-0.063 0.122,1.039 v -0.047 l 0.082,1.047 -0.012,-0.047 0.031,1.047 v -0.047 l -0.019,1.059 v -0.039 l -0.071,1.078 0.008,-0.059 -0.117,1.09 0.008,-0.058 -0.18,1.109 0.012,-0.051 -0.242,1.129 0.019,-0.051 -0.301,1.153 0.024,-0.051 -0.364,1.16 0.024,-0.051 -0.422,1.18 0.012,-0.027 -0.481,1.207 0.028,-0.051 -0.559,1.23 0.02,-0.027 -0.622,1.258 0.012,-0.039 -0.691,1.289 0.031,-0.039 -0.781,1.308 0.019,-0.019 -0.84,1.34 0.024,-0.028 -0.934,1.379 0.024,-0.031 -1,1.41 0.019,-0.019 -1.09,1.449 0.02,-0.027 -1.18,1.476 0.008,-0.019 -1.258,1.531 0.02,-0.02 -1.281,1.481 1.718,1.488 1.293,-1.488 1.278,-1.539 1.191,-1.5 1.109,-1.473 1.02,-1.437 0.941,-1.411 0.86,-1.371 0.789,-1.34 0.711,-1.332 0.64,-1.289 0.578,-1.281 0.493,-1.258 0.437,-1.218 0.371,-1.223 0.301,-1.188 0.238,-1.179 0.192,-1.16 0.129,-1.141 0.07,-1.133 0.019,-1.117 -0.027,-1.109 -0.082,-1.09 -0.117,-1.102 -0.371,-2.129 -0.52,-2.113 -0.66,-2.09 -0.762,-2.09 -0.847,-2.09 -0.934,-2.117 -0.988,-2.152 -1.02,-2.188 -1.039,-2.261 0.008,0.019 -1.051,-2.34 0.012,0.02 -1.039,-2.418 0.008,0.027 -1.008,-2.527 0.019,0.027 -0.96,-2.636 0.011,0.039 -0.902,-2.762 0.012,0.039 -0.813,-2.898 0.024,0.05 -0.723,-3.05 0.012,0.05 -0.59,-3.199 0.008,0.039 -0.25,-1.68 v 0.032 l -0.207,-1.711 0.007,0.027 -0.179,-1.758 0.011,0.032 -0.14,-1.813 v 0.031 l -0.09,-1.851 v 0.031 l -0.039,-1.91 z m 4.5,71.911 -2.032,9.66 9.411,-2.989 c 0.601,-0.191 0.929,-0.832 0.742,-1.429 -0.192,-0.602 -0.832,-0.93 -1.434,-0.742 l -7.547,2.402 1.457,1.32 1.633,-7.75 c 0.129,-0.621 -0.262,-1.222 -0.883,-1.351 -0.609,-0.129 -1.218,0.269 -1.347,0.879 z"
         style="fill:#000000;fill-opacity:1;fill-rule:nonzero;stroke:none"
         id="path56180"
         inkscape:connector-curvature="0" /><path
         d="m 107.52,90.445 -0.098,2.352 -0.211,2.308 -0.32,2.262 -0.422,2.199 -0.52,2.152 -0.621,2.071 -0.707,2.008 -0.812,1.949 -0.887,1.883 -0.981,1.808 -1.07,1.758 -1.141,1.672 -1.218,1.609 -1.293,1.531 -1.36,1.469 -1.429,1.403 -1.5,1.316 -1.559,1.242 -1.621,1.168 -1.672,1.09 -1.719,1.012 -1.769,0.941 -1.82,0.859 -1.872,0.782 -1.898,0.699 -1.941,0.617 -1.981,0.543 -2.008,0.449 -2.039,0.371 -2.062,0.289 -1.86,0.18 -0.23,-2.269 1.84,-0.18 -0.039,0.008 2.019,-0.278 -0.051,0.008 2,-0.359 -0.046,0.012 1.949,-0.454 -0.039,0.02 1.918,-0.527 -0.051,0.007 1.902,-0.597 -0.043,0.008 1.852,-0.68 -0.039,0.019 1.82,-0.757 -0.051,0.019 1.77,-0.84 -0.051,0.032 1.731,-0.922 -0.051,0.019 1.679,-0.98 -0.039,0.031 1.621,-1.059 -0.039,0.028 1.571,-1.141 -0.043,0.031 1.519,-1.211 -0.047,0.043 1.457,-1.293 -0.039,0.051 1.379,-1.359 -0.027,0.039 1.32,-1.43 -0.043,0.039 1.262,-1.488 -0.039,0.051 1.187,-1.563 -0.039,0.043 1.11,-1.621 -0.028,0.051 1.039,-1.711 -0.031,0.051 0.949,-1.762 -0.027,0.063 0.859,-1.832 -0.019,0.039 0.789,-1.891 -0.02,0.062 0.692,-1.949 -0.024,0.047 0.614,-2.019 -0.024,0.062 0.5,-2.082 -0.008,0.051 0.418,-2.149 -0.007,0.059 0.3,-2.199 v 0.051 l 0.207,-2.262 -0.007,0.058 0.097,-2.328 z m -33.981,45.461 -8.809,-4.469 8.231,-5.461 c 0.519,-0.347 1.23,-0.211 1.578,0.321 0.352,0.519 0.199,1.23 -0.32,1.582 l -6.598,4.378 -0.109,-1.968 7.058,3.59 c 0.559,0.277 0.789,0.968 0.5,1.527 -0.281,0.562 -0.968,0.781 -1.531,0.5 z"
         style="fill:#000000;fill-opacity:1;fill-rule:nonzero;stroke:none"
         id="path56182"
         inkscape:connector-curvature="0" /><path
         d="m 107.281,90.398 v 2.297 l -0.031,2.273 -0.059,2.207 -0.089,2.161 -0.114,2.109 -0.148,2.07 -0.168,2.012 -0.192,1.98 -0.23,1.93 -0.25,1.891 -0.57,3.629 -0.668,3.488 -0.774,3.32 -0.859,3.172 -0.949,3.039 -1.032,2.903 -1.117,2.769 -1.203,2.649 -1.269,2.55 -1.348,2.43 -1.41,2.34 -1.481,2.25 -1.55,2.16 -1.598,2.09 -1.652,2.019 -1.7,1.961 -1.761,1.899 -1.789,1.859 -1.84,1.832 -3.77,3.559 -3.898,3.5 -4,3.519 -2.371,2.082 -1.512,-1.711 2.371,-2.078 3.988,-3.511 3.883,-3.489 -0.019,0.02 3.75,-3.539 -0.024,0.019 1.82,-1.812 -0.007,0.019 1.769,-1.84 -0.019,0.02 1.738,-1.879 -0.027,0.02 1.679,-1.93 -0.019,0.019 1.636,-1.988 -0.019,0.031 1.57,-2.062 -0.019,0.031 1.519,-2.129 -0.019,0.039 1.449,-2.211 -0.02,0.032 1.391,-2.301 -0.02,0.039 1.321,-2.391 -0.02,0.043 1.25,-2.511 -0.019,0.039 1.179,-2.61 -0.019,0.051 1.098,-2.73 -0.008,0.039 1.019,-2.86 -0.019,0.039 0.937,-2.988 -0.008,0.039 0.84,-3.121 -0.011,0.043 0.761,-3.293 -0.011,0.043 0.671,-3.441 -0.011,0.039 0.57,-3.598 -0.012,0.027 0.25,-1.867 v 0.02 l 0.223,-1.922 v 0.031 l 0.187,-1.961 v 0.012 l 0.172,-2 v 0.019 l 0.141,-2.05 v 0.019 l 0.109,-2.09 v 0.012 l 0.09,-2.152 v 0.019 l 0.059,-2.199 v 0.019 L 105,92.675 v 0.02 -2.297 z m -32.652,80.688 -9.688,1.902 3.11,-9.371 c 0.199,-0.59 0.847,-0.922 1.449,-0.719 0.59,0.199 0.922,0.848 0.719,1.438 l -2.5,7.519 -1.297,-1.476 7.769,-1.524 c 0.618,-0.117 1.219,0.281 1.34,0.902 0.117,0.61 -0.293,1.211 -0.902,1.329 z"
         style="fill:#000000;fill-opacity:1;fill-rule:nonzero;stroke:none"
         id="path56184"
         inkscape:connector-curvature="0" /><path
         d="m 106.801,90.406 -0.02,2.269 -0.07,2.204 -0.141,2.128 -0.179,2.04 -0.25,1.98 -0.289,1.891 -0.34,1.839 -0.391,1.758 -0.441,1.703 -0.481,1.637 -0.519,1.57 -0.571,1.52 -0.597,1.461 -0.641,1.422 -0.68,1.347 -0.711,1.313 -0.742,1.258 -0.758,1.23 -1.609,2.313 -1.711,2.156 -1.769,2.051 -1.832,1.929 -1.879,1.84 -1.899,1.782 -1.902,1.73 -3.801,3.41 0.012,-0.012 -1.86,1.731 0.02,-0.02 -1.82,1.77 0.031,-0.02 -1.77,1.832 0.039,-0.043 -1.699,1.922 0.039,-0.039 -1.609,2.008 0.039,-0.051 -1.512,2.141 0.043,-0.059 -1.402,2.282 0.043,-0.051 -0.66,1.211 0.019,-0.043 -0.609,1.242 0.019,-0.031 -0.582,1.289 0.02,-0.039 -0.539,1.34 0.012,-0.04 -0.5,1.391 0.007,-0.051 -0.461,1.45 0.024,-0.04 -0.422,1.5 0.012,-0.039 -0.371,1.559 0.007,-0.039 -0.32,1.617 v -0.039 l -0.277,1.68 0.008,-0.039 -0.219,1.761 v -0.043 l -0.168,1.821 v -0.039 l -0.094,1.59 -2.277,-0.129 0.097,-1.621 0.172,-1.852 0.231,-1.797 0.289,-1.723 0.332,-1.648 0.367,-1.609 0.43,-1.539 0.48,-1.493 0.512,-1.418 0.559,-1.39 0.589,-1.332 0.641,-1.278 0.672,-1.25 1.43,-2.339 1.546,-2.204 1.653,-2.07 1.73,-1.957 1.797,-1.859 1.844,-1.793 1.879,-1.75 3.801,-3.41 1.886,-1.719 -0.008,0.012 1.879,-1.762 -0.019,0.019 1.859,-1.828 -0.027,0.028 1.797,-1.891 -0.039,0.031 1.742,-2 -0.031,0.039 1.66,-2.109 -0.039,0.051 1.578,-2.262 -0.031,0.043 0.742,-1.18 -0.02,0.028 0.719,-1.231 -0.02,0.031 0.692,-1.281 -0.012,0.043 0.66,-1.32 -0.019,0.039 0.621,-1.379 -0.012,0.027 0.59,-1.429 -0.02,0.05 0.551,-1.48 -0.011,0.039 0.511,-1.539 -0.011,0.039 0.468,-1.609 -0.008,0.043 0.43,-1.661 -0.012,0.039 0.383,-1.73 -0.011,0.039 0.339,-1.801 -0.007,0.043 0.289,-1.863 -0.012,0.031 0.242,-1.937 v 0.039 l 0.18,-2.012 v 0.02 l 0.129,-2.09 v 0.043 l 0.082,-2.172 v 0.031 l 0.008,-2.262 z m -36.68,73.992 -5.262,8.348 -4.679,-8.699 c -0.301,-0.551 -0.09,-1.239 0.461,-1.54 0.558,-0.3 1.25,-0.089 1.55,0.461 l 3.75,6.977 -1.972,-0.066 4.222,-6.704 c 0.34,-0.527 1.039,-0.687 1.579,-0.359 0.531,0.34 0.691,1.039 0.351,1.582 z"
         style="fill:#000000;fill-opacity:1;fill-rule:nonzero;stroke:none"
         id="path56186"
         inkscape:connector-curvature="0" /><path
         d="m 107.281,90.437 -0.082,2.199 -0.129,2.153 -0.211,2.09 -0.257,2.019 -0.321,1.969 -0.383,1.898 -0.449,1.84 -0.5,1.793 -0.551,1.738 -0.609,1.672 -0.66,1.629 -0.719,1.59 -0.769,1.531 -0.813,1.489 -0.859,1.441 -0.918,1.41 -1.949,2.66 -2.133,2.528 -2.289,2.39 -2.43,2.281 -2.59,2.168 -2.699,2.09 -2.832,2.012 -2.93,1.961 -3.039,1.918 -3.129,1.902 -3.211,1.887 -3.281,1.902 -3.348,1.93 -3.402,1.969 h 0.012 l -3.461,2.019 h 0.012 l -3.5,2.102 0.007,-0.012 -3.519,2.192 0.012,-0.008 -3.551,2.289 0.019,-0.012 -3.558,2.422 0.019,-0.02 -3.57,2.547 0.027,-0.019 -3.566,2.699 0.019,-0.008 -1.781,1.41 0.02,-0.019 -1.77,1.469 0.012,-0.008 -1.774,1.5 0.012,-0.024 -1.75,1.551 0.012,-0.008 -1.75,1.59 0.008,-0.012 -0.102,0.09 -1.566,-1.648 0.109,-0.11 1.77,-1.613 1.769,-1.558 1.789,-1.508 1.781,-1.473 1.801,-1.43 3.59,-2.711 3.598,-2.57 3.582,-2.437 3.578,-2.313 3.543,-2.199 3.508,-2.098 3.468,-2.031 3.411,-1.98 3.339,-1.918 3.282,-1.903 h -0.008 l 3.199,-1.879 -0.012,0.008 3.11,-1.887 -0.02,0.008 3.02,-1.91 -0.028,0.012 2.911,-1.942 -0.024,0.02 2.793,-1.988 -0.043,0.027 2.672,-2.059 -0.039,0.032 2.551,-2.141 -0.051,0.039 2.391,-2.23 -0.043,0.043 2.242,-2.34 -0.051,0.058 2.078,-2.48 -0.047,0.058 1.918,-2.609 -0.039,0.063 0.879,-1.372 -0.019,0.04 0.839,-1.411 -0.019,0.039 0.801,-1.449 -0.02,0.039 0.75,-1.488 -0.019,0.039 0.687,-1.539 -0.008,0.039 0.641,-1.59 -0.012,0.039 0.59,-1.636 -0.02,0.039 0.54,-1.692 -0.008,0.039 0.488,-1.75 -0.012,0.043 0.434,-1.812 v 0.043 l 0.367,-1.864 -0.008,0.051 0.321,-1.918 -0.012,0.028 0.262,-1.981 -0.012,0.031 0.211,-2.05 -0.012,0.031 0.141,-2.11 v 0.032 L 105,90.355 Z m -73.761,80.27 -9.61,2.25 2.762,-9.469 c 0.18,-0.609 0.808,-0.961 1.406,-0.781 0.613,0.179 0.961,0.808 0.781,1.41 l -2.218,7.609 -1.352,-1.429 7.711,-1.809 c 0.609,-0.152 1.219,0.23 1.371,0.84 0.141,0.617 -0.242,1.23 -0.851,1.379 z"
         style="fill:#000000;fill-opacity:1;fill-rule:nonzero;stroke:none"
         id="path56188"
         inkscape:connector-curvature="0" /><path
         d="m 107.52,90.418 0.039,38.519 h -2.278 l -0.043,-38.512 z m 3.859,32.25 -4.957,8.539 -4.992,-8.532 c -0.309,-0.539 -0.129,-1.238 0.41,-1.558 0.551,-0.32 1.25,-0.129 1.558,0.41 l 4,6.84 h -1.968 l 3.98,-6.84 c 0.32,-0.551 1.02,-0.73 1.559,-0.422 0.551,0.32 0.73,1.024 0.41,1.563 z"
         style="fill:#000000;fill-opacity:1;fill-rule:nonzero;stroke:none"
         id="path56190"
         inkscape:connector-curvature="0" /><path
         d="m 107.52,90.425 -0.051,1.922 -0.09,1.879 -0.129,1.832 -0.172,1.789 -0.219,1.739 -0.257,1.703 -0.602,3.25 -0.719,3.097 -0.82,2.95 -0.91,2.8 -0.973,2.68 -1.027,2.551 -1.039,2.449 -1.063,2.352 -1.039,2.257 -1.019,2.192 v -0.012 l -0.981,2.141 0.012,-0.008 -0.922,2.09 0.012,-0.031 -0.84,2.058 0.019,-0.027 -0.75,2.039 0.008,-0.059 -0.629,2.039 0.008,-0.07 -0.5,2.039 0.024,-0.078 -0.364,2.059 0.012,-0.071 -0.121,1.039 v -0.047 l -0.07,1.047 v -0.047 l -0.028,1.047 v -0.047 l 0.02,1.059 v -0.039 l 0.07,1.078 -0.012,-0.059 0.121,1.09 v -0.05 l 0.168,1.109 -0.007,-0.059 0.23,1.129 -0.012,-0.051 0.289,1.153 -0.007,-0.051 0.347,1.16 -0.019,-0.051 0.422,1.18 -0.012,-0.027 0.48,1.207 -0.019,-0.039 0.551,1.23 -0.02,-0.039 0.617,1.258 -0.008,-0.039 0.692,1.289 -0.031,-0.027 0.769,1.308 -0.019,-0.039 0.847,1.348 -0.019,-0.028 0.922,1.379 -0.012,-0.019 0.992,1.41 -0.019,-0.031 1.089,1.449 -0.019,-0.027 1.168,1.476 -0.012,-0.019 1.262,1.531 -0.02,-0.02 1.289,1.481 -1.73,1.488 -1.289,-1.488 -1.281,-1.539 -1.18,-1.5 -1.109,-1.473 -1.008,-1.437 -0.942,-1.403 -0.871,-1.379 -0.789,-1.34 -0.699,-1.332 -0.641,-1.296 -0.57,-1.274 -0.5,-1.258 -0.43,-1.218 -0.371,-1.223 -0.308,-1.188 -0.243,-1.179 -0.179,-1.16 -0.129,-1.141 -0.07,-1.133 -0.02,-1.117 0.031,-1.109 0.078,-1.09 0.129,-1.102 0.371,-2.129 0.52,-2.113 0.66,-2.09 0.762,-2.09 0.859,-2.097 0.93,-2.11 0.98,-2.152 1.02,-2.188 1.039,-2.261 v 0.011 l 1.051,-2.332 -0.008,0.02 1.027,-2.418 -0.008,0.019 1.008,-2.519 -0.008,0.027 0.957,-2.636 -0.007,0.039 0.89,-2.762 -0.011,0.039 0.808,-2.898 -0.019,0.05 0.722,-3.05 -0.011,0.05 0.589,-3.199 -0.007,0.039 0.25,-1.68 v 0.032 l 0.207,-1.711 v 0.027 l 0.171,-1.758 v 0.032 l 0.129,-1.801 v 0.019 l 0.09,-1.851 v 0.031 l 0.039,-1.91 z m -4.54,71.911 2.032,9.66 -9.41,-2.989 c -0.602,-0.191 -0.93,-0.832 -0.743,-1.429 0.192,-0.602 0.832,-0.93 1.43,-0.742 l 7.551,2.402 -1.461,1.32 -1.629,-7.75 c -0.129,-0.621 0.27,-1.222 0.879,-1.351 0.621,-0.129 1.223,0.269 1.351,0.879 z"
         style="fill:#000000;fill-opacity:1;fill-rule:nonzero;stroke:none"
         id="path56192"
         inkscape:connector-curvature="0" /><path
         d="m 365.879,79.289 0.082,1.699 0.16,1.687 0.238,1.641 0.321,1.602 0.398,1.55 0.473,1.508 0.539,1.469 0.621,1.41 0.68,1.371 0.738,1.332 0.812,1.27 0.868,1.219 0.929,1.171 0.981,1.11 1.043,1.07 1.078,1.02 1.14,0.949 1.18,0.91 1.231,0.852 1.269,0.789 1.301,0.738 1.348,0.672 1.382,0.617 1.411,0.57 1.437,0.512 1.481,0.449 1.492,0.379 1.519,0.34 1.539,0.262 1.559,0.211 0.851,0.078 0.211,-2.27 -0.832,-0.078 0.051,0.008 -1.519,-0.211 0.039,0.012 -1.489,-0.262 0.047,0.012 -1.468,-0.321 0.039,0.012 -1.45,-0.371 0.051,0.012 -1.43,-0.442 0.051,0.02 -1.402,-0.488 0.043,0.007 -1.363,-0.55 0.043,0.019 -1.34,-0.598 0.047,0.02 -1.297,-0.648 0.047,0.027 -1.258,-0.711 0.039,0.023 -1.219,-0.761 0.039,0.019 -1.18,-0.808 0.04,0.027 -1.141,-0.867 0.051,0.027 -1.102,-0.918 0.051,0.039 -1.051,-0.98 0.043,0.043 -0.992,-1.024 0.031,0.043 -0.941,-1.082 0.043,0.051 -0.903,-1.129 0.039,0.047 -0.828,-1.168 0.032,0.051 -0.782,-1.223 0.032,0.051 -0.711,-1.27 0.031,0.059 -0.66,-1.316 0.027,0.046 -0.598,-1.359 0.028,0.063 -0.528,-1.411 0.02,0.059 -0.449,-1.461 0.019,0.063 -0.383,-1.5 0.012,0.066 -0.308,-1.547 0.007,0.059 -0.23,-1.59 0.012,0.058 -0.161,-1.628 v 0.058 l -0.07,-1.668 z m 23.633,33.867 8.84,-4.399 -8.192,-5.519 c -0.519,-0.359 -1.23,-0.223 -1.582,0.301 -0.348,0.527 -0.219,1.226 0.313,1.59 l 6.558,4.429 0.129,-1.972 -7.09,3.531 c -0.558,0.289 -0.789,0.969 -0.508,1.531 0.282,0.57 0.969,0.797 1.532,0.508 z"
         style="fill:#000000;fill-opacity:1;fill-rule:nonzero;stroke:none"
         id="path56194"
         inkscape:connector-curvature="0" /><path
         d="m 366.73,79.238 v 4.809 l 0.04,2.332 0.031,2.277 0.051,2.23 0.07,2.172 0.066,2.129 0.09,2.078 0.113,2.043 0.118,1.981 0.132,1.949 0.137,1.898 0.332,3.672 0.391,3.508 0.429,3.352 0.5,3.211 0.551,3.058 0.598,2.942 0.66,2.796 0.723,2.704 0.769,2.578 0.828,2.468 0.891,2.403 0.949,2.289 1,2.219 1.063,2.152 1.109,2.078 1.168,2.02 1.242,1.972 1.278,1.93 1.339,1.898 1.411,1.86 1.441,1.851 1.52,1.828 1.57,1.821 1.621,1.84 1.68,1.839 0.199,0.211 1.66,-1.558 -0.191,-0.199 0.011,0.007 -1.672,-1.828 0.012,0.008 -1.609,-1.82 0.008,0.011 -1.547,-1.812 0.008,0.023 -1.5,-1.812 0.019,0.019 -1.43,-1.828 0.012,0.02 -1.391,-1.84 0.02,0.031 -1.32,-1.871 0.019,0.031 -1.269,-1.91 0.019,0.028 -1.211,-1.938 0.024,0.027 -1.16,-1.988 0.019,0.031 -1.09,-2.043 0.008,0.032 -1.039,-2.11 0.02,0.039 -0.981,-2.191 0.012,0.031 -0.93,-2.25 0.008,0.031 -0.867,-2.351 0.008,0.031 -0.821,-2.441 0.012,0.031 -0.762,-2.539 0.012,0.039 -0.711,-2.672 0.012,0.031 -0.653,-2.769 v 0.031 l -0.597,-2.902 0.008,0.031 -0.551,-3.039 0.011,0.027 -0.492,-3.179 v 0.019 l -0.429,-3.328 v 0.031 l -0.379,-3.492 v 0.02 l -0.328,-3.649 v 0.02 l -0.141,-1.891 v 0.012 l -0.133,-1.93 -0.117,-1.98 v 0.007 l -0.102,-2.019 v 0.012 l -0.089,-2.071 v 0.008 l -0.079,-2.129 v 0.012 l -0.062,-2.172 v 0.012 l -0.051,-2.223 v 0.012 l -0.039,-2.27 -0.027,-2.32 v 0.012 -4.801 z m 19.032,84.437 9.457,2.832 -2.199,-9.621 c -0.141,-0.621 -0.75,-1 -1.36,-0.859 -0.609,0.141 -1,0.75 -0.859,1.359 l 1.758,7.719 1.441,-1.34 -7.59,-2.269 c -0.601,-0.18 -1.238,0.16 -1.422,0.761 -0.179,0.61 0.16,1.239 0.774,1.418 z"
         style="fill:#000000;fill-opacity:1;fill-rule:nonzero;stroke:none"
         id="path56196"
         inkscape:connector-curvature="0" /><path
         d="m 366.73,79.246 0.008,2.41 0.063,2.34 0.09,2.25 0.129,2.172 0.16,2.089 0.211,2.02 0.23,1.93 0.27,1.879 0.3,1.793 0.34,1.738 0.36,1.672 0.39,1.597 0.41,1.551 0.45,1.488 0.461,1.454 0.5,1.378 0.507,1.34 0.539,1.301 1.114,2.457 1.187,2.301 1.231,2.18 1.281,2.062 1.301,1.969 1.316,1.898 1.344,1.84 2.637,3.652 -0.008,-0.011 1.289,1.84 -0.012,-0.02 1.274,1.891 -0.024,-0.032 1.231,1.954 -0.02,-0.043 1.172,2.05 -0.02,-0.039 1.118,2.149 -0.028,-0.051 1.047,2.293 -0.019,-0.051 0.98,2.43 -0.019,-0.039 0.449,1.277 -0.008,-0.027 0.43,1.34 -0.012,-0.032 0.402,1.371 -0.011,-0.031 0.378,1.43 -0.007,-0.027 0.347,1.488 -0.008,-0.031 0.321,1.55 v -0.039 l 0.277,1.598 v -0.027 l 0.25,1.668 v -0.028 l 0.223,1.731 v -0.024 l 0.199,1.793 -0.012,-0.031 0.153,1.871 v -0.019 l 0.121,1.937 v -0.019 l 0.078,1.859 2.281,-0.098 -0.082,-1.871 -0.117,-1.961 -0.152,-1.898 -0.2,-1.821 -0.23,-1.75 -0.262,-1.699 -0.289,-1.621 -0.328,-1.582 -0.352,-1.508 -0.379,-1.468 -0.421,-1.403 -0.43,-1.359 -0.469,-1.32 -0.988,-2.489 -1.082,-2.34 -1.141,-2.191 -1.199,-2.09 -1.25,-1.992 -1.281,-1.906 -1.309,-1.864 -2.648,-3.648 -1.321,-1.84 0.008,0.02 -1.308,-1.879 0.019,0.008 -1.289,-1.938 0.02,0.027 -1.262,-2.019 0.019,0.039 -1.207,-2.137 0.02,0.039 -1.16,-2.261 0.027,0.05 -1.098,-2.41 0.02,0.031 -0.531,-1.269 0.011,0.027 -0.5,-1.308 0.008,0.031 -0.476,-1.359 0.008,0.027 -0.461,-1.418 0.011,0.027 -0.429,-1.457 v 0.028 l -0.403,-1.528 v 0.02 l -0.386,-1.571 0.007,0.032 -0.347,-1.641 v 0.02 l -0.332,-1.711 0.011,0.031 -0.3,-1.77 v 0.028 l -0.262,-1.848 v 0.027 l -0.231,-1.918 v 0.032 l -0.199,-2 v 0.027 l -0.16,-2.07 v 0.031 l -0.129,-2.148 v 0.019 l -0.09,-2.23 v 0.019 l -0.05,-2.32 v 0.019 l -0.008,-2.41 z m 24.399,79.441 5.141,8.43 4.808,-8.621 c 0.301,-0.551 0.113,-1.239 -0.437,-1.551 -0.551,-0.309 -1.25,-0.109 -1.551,0.441 l -3.86,6.922 1.969,-0.043 -4.121,-6.758 c -0.328,-0.539 -1.027,-0.71 -1.566,-0.378 -0.543,0.316 -0.711,1.027 -0.383,1.558 z"
         style="fill:#000000;fill-opacity:1;fill-rule:nonzero;stroke:none"
         id="path56198"
         inkscape:connector-curvature="0" /><path
         d="m 366.238,78.558 0.051,1.59 0.102,1.57 0.148,1.508 0.191,1.481 0.5,2.808 0.668,2.653 0.832,2.507 0.989,2.352 1.133,2.219 1.277,2.09 1.391,1.972 1.531,1.867 1.629,1.77 1.75,1.684 1.832,1.597 1.929,1.551 2.02,1.488 2.09,1.453 2.16,1.418 2.219,1.411 2.281,1.398 2.328,1.402 2.371,1.418 2.418,1.453 h -0.008 l 2.461,1.477 -0.019,-0.008 2.476,1.551 -0.008,-0.012 2.5,1.61 -0.011,-0.008 2.511,1.668 -0.019,-0.008 2.527,1.758 -0.027,-0.02 2.539,1.86 -0.031,-0.02 2.519,1.961 -0.019,-0.02 2.519,2.079 -0.027,-0.02 2.5,2.199 -0.031,-0.019 0.832,0.793 1.566,-1.66 -0.848,-0.801 -2.531,-2.231 -2.539,-2.109 -2.551,-1.981 -2.558,-1.871 -2.551,-1.781 -2.531,-1.687 -2.52,-1.61 -2.488,-1.551 -2.461,-1.492 -2.41,-1.449 -2.379,-1.43 -2.332,-1.39 h 0.019 l -2.269,-1.391 0.012,0.012 -2.2,-1.399 0.02,0.008 -2.141,-1.41 0.02,0.02 -2.07,-1.43 0.031,0.019 -1.981,-1.468 0.032,0.019 -1.903,-1.508 0.039,0.028 -1.789,-1.571 0.039,0.043 -1.699,-1.64 0.039,0.039 -1.59,-1.711 0.051,0.051 -1.48,-1.809 0.05,0.07 -1.347,-1.921 0.039,0.07 -1.231,-2.02 0.051,0.071 -1.101,-2.141 0.039,0.078 -0.957,-2.277 0.027,0.09 -0.801,-2.43 0.024,0.078 -0.653,-2.57 0.02,0.082 -0.5,-2.742 0.011,0.062 -0.179,-1.441 0.008,0.031 -0.149,-1.473 0.012,0.032 -0.102,-1.532 v 0.043 l -0.05,-1.582 z m 49.832,57.957 9.621,2.242 -2.781,-9.468 c -0.18,-0.602 -0.808,-0.953 -1.422,-0.774 -0.597,0.172 -0.949,0.813 -0.769,1.41 l 2.23,7.602 1.352,-1.43 -7.711,-1.8 c -0.61,-0.141 -1.219,0.242 -1.371,0.851 -0.141,0.609 0.242,1.231 0.851,1.367 z"
         style="fill:#000000;fill-opacity:1;fill-rule:nonzero;stroke:none"
         id="path56200"
         inkscape:connector-curvature="0" /><path
         d="m 366.57,79.257 0.051,2.75 0.117,2.7 0.16,2.64 0.211,2.571 0.262,2.507 0.301,2.461 0.348,2.411 0.371,2.351 0.418,2.289 0.453,2.25 0.476,2.199 0.512,2.153 1.07,4.156 1.16,3.992 1.2,3.84 1.242,3.699 1.238,3.563 1.219,3.437 1.191,3.352 v -0.012 l 1.129,3.27 -0.008,-0.02 1.059,3.191 -0.012,-0.031 0.953,3.141 -0.011,-0.031 0.832,3.089 -0.012,-0.046 0.68,3.066 -0.008,-0.039 0.289,1.531 -0.012,-0.039 0.231,1.52 v -0.032 l 0.191,1.52 -0.012,-0.027 0.141,1.527 v -0.039 l 0.078,1.531 v -0.043 l 0.043,1.531 v -0.05 l -0.031,1.55 v -0.05 l -0.09,1.55 0.012,-0.039 -0.153,1.559 v -0.051 l -0.218,1.57 0.007,-0.039 -0.277,1.582 0.008,-0.05 -0.359,1.597 0.011,-0.039 -0.429,1.621 0.007,-0.05 -0.507,1.64 0.019,-0.051 -0.601,1.653 0.019,-0.043 -0.68,1.679 0.02,-0.039 -0.758,1.7 0.02,-0.039 -0.852,1.73 0.02,-0.031 -0.938,1.75 0.02,-0.028 -1.02,1.77 0.02,-0.031 -1.141,1.82 0.02,-0.031 -1.219,1.851 0.019,-0.039 -1.34,1.879 0.02,-0.019 -1.43,1.918 0.008,-0.028 -1.527,1.949 0.019,-0.019 -1.648,1.988 0.008,-0.019 -1.758,2.031 0.019,-0.02 -0.371,0.411 1.692,1.527 0.367,-0.41 1.781,-2.051 1.668,-2.008 1.551,-1.98 1.449,-1.942 1.363,-1.898 1.239,-1.871 1.148,-1.848 1.051,-1.812 0.949,-1.789 0.871,-1.758 0.77,-1.742 0.691,-1.719 0.61,-1.692 0.531,-1.679 0.429,-1.668 0.372,-1.641 0.296,-1.633 0.223,-1.617 0.16,-1.609 0.09,-1.594 0.027,-1.59 -0.039,-1.566 -0.078,-1.571 -0.152,-1.57 -0.188,-1.551 -0.242,-1.558 -0.289,-1.571 -0.691,-3.113 -0.84,-3.129 -0.957,-3.168 -1.07,-3.211 -1.133,-3.281 -1.188,-3.348 -1.222,-3.441 v 0.012 l -1.239,-3.563 0.008,0.02 -1.226,-3.68 v 0.02 l -1.204,-3.821 0.012,0.032 -1.14,-3.969 v 0.027 l -1.059,-4.129 v 0.02 l -0.5,-2.129 0.008,0.019 -0.481,-2.179 0.012,0.019 -0.449,-2.23 v 0.019 l -0.41,-2.269 v 0.019 l -0.371,-2.32 v 0.023 l -0.34,-2.39 0.011,0.019 -0.3,-2.429 v 0.019 l -0.262,-2.492 0.012,0.023 -0.211,-2.55 v 0.019 l -0.168,-2.609 v 0.019 l -0.114,-2.672 v 0.032 l -0.046,-2.739 z m 1.86,108.649 -2.039,9.66 9.418,-2.98 c 0.601,-0.188 0.929,-0.829 0.742,-1.43 -0.192,-0.598 -0.832,-0.93 -1.43,-0.738 l -7.551,2.39 1.461,1.321 1.629,-7.75 c 0.129,-0.614 -0.262,-1.223 -0.879,-1.352 -0.609,-0.129 -1.222,0.27 -1.351,0.879 z"
         style="fill:#000000;fill-opacity:1;fill-rule:nonzero;stroke:none"
         id="path56202"
         inkscape:connector-curvature="0" /><path
         d="m 369,79.289 v 57.207 h -2.281 V 79.289 Z m 3.828,50.949 -4.969,8.527 -4.968,-8.527 c -0.321,-0.551 -0.141,-1.242 0.41,-1.563 0.539,-0.32 1.238,-0.136 1.551,0.411 l 3.988,6.839 h -1.961 l 3.992,-6.839 c 0.309,-0.547 1.008,-0.731 1.551,-0.411 0.547,0.321 0.726,1.012 0.406,1.563 z"
         style="fill:#000000;fill-opacity:1;fill-rule:nonzero;stroke:none"
         id="path56204"
         inkscape:connector-curvature="0" /><path
         d="m 366.719,79.289 0.14,3.347 0.289,3.282 0.43,3.199 0.57,3.129 0.711,3.031 0.852,2.941 0.969,2.848 1.101,2.762 1.219,2.668 1.328,2.57 1.453,2.481 1.559,2.371 1.66,2.277 1.762,2.191 1.859,2.071 1.949,1.98 2.051,1.871 2.117,1.77 2.203,1.66 2.278,1.551 2.359,1.437 2.422,1.332 2.488,1.219 2.543,1.109 2.598,1 2.652,0.879 2.699,0.762 2.75,0.641 2.782,0.527 2.816,0.41 2.852,0.281 0.601,0.039 0.129,-2.277 -0.57,-0.031 h 0.039 l -2.801,-0.281 0.051,0.011 -2.758,-0.41 0.039,0.008 -2.738,-0.52 0.047,0.02 -2.688,-0.629 0.047,0.012 -2.656,-0.75 0.047,0.008 -2.598,-0.86 0.051,0.02 -2.551,-0.981 0.051,0.024 -2.5,-1.094 0.047,0.031 -2.438,-1.199 0.047,0.02 -2.379,-1.301 0.051,0.019 -2.309,-1.41 0.039,0.024 -2.242,-1.512 0.051,0.031 -2.16,-1.633 0.051,0.043 -2.078,-1.73 0.039,0.027 -2.012,-1.828 0.051,0.039 -1.918,-1.937 0.039,0.039 -1.821,-2.032 0.04,0.039 -1.731,-2.136 0.039,0.047 -1.629,-2.239 0.031,0.051 -1.531,-2.332 0.031,0.063 -1.421,-2.434 0.031,0.051 -1.301,-2.52 0.02,0.039 -1.2,-2.609 0.02,0.051 -1.07,-2.7 0.019,0.051 -0.949,-2.801 0.019,0.051 -0.839,-2.89 0.019,0.058 -0.699,-2.98 0.012,0.062 -0.563,-3.07 0.012,0.051 -0.43,-3.153 0.012,0.051 -0.293,-3.23 v 0.058 L 369,79.187 Z m 49.582,63.097 8.808,-4.468 -8.23,-5.461 c -0.52,-0.352 -1.231,-0.211 -1.578,0.32 -0.352,0.52 -0.199,1.23 0.32,1.578 l 6.598,4.383 0.109,-1.973 -7.058,3.59 c -0.559,0.281 -0.79,0.973 -0.5,1.531 0.281,0.559 0.968,0.782 1.531,0.5 z"
         style="fill:#000000;fill-opacity:1;fill-rule:nonzero;stroke:none"
         id="path56206"
         inkscape:connector-curvature="0" /><path
         d="m 366.719,80.597 0.062,1.571 0.149,1.57 0.23,1.559 0.289,1.55 0.371,1.539 0.442,1.52 0.508,1.519 0.558,1.493 0.613,1.488 0.68,1.473 0.719,1.468 0.769,1.461 1.653,2.848 1.808,2.84 1.93,2.793 2.012,2.758 2.078,2.718 2.121,2.703 4.238,5.309 2.082,2.621 -0.011,-0.012 2.031,2.602 -0.02,-0.02 1.938,2.598 -0.02,-0.027 1.821,2.566 -0.032,-0.027 1.684,2.558 -0.024,-0.031 0.782,1.274 -0.008,-0.024 0.726,1.274 -0.007,-0.024 0.687,1.274 -0.019,-0.032 0.64,1.27 -0.019,-0.039 0.582,1.269 -0.024,-0.039 0.532,1.27 -0.02,-0.039 0.469,1.258 -0.02,-0.059 0.403,1.269 -0.024,-0.05 0.332,1.261 -0.012,-0.062 0.262,1.262 -0.012,-0.071 0.18,1.258 -0.008,-0.058 0.11,1.261 v -0.07 l 0.031,1.258 v -0.078 l -0.063,1.257 0.012,-0.078 -0.148,1.258 0.019,-0.078 -0.242,1.262 0.02,-0.082 -0.329,1.261 0.02,-0.07 -0.422,1.258 0.031,-0.078 -0.519,1.258 0.031,-0.071 -0.633,1.262 0.032,-0.059 -0.731,1.27 0.031,-0.063 -0.84,1.27 0.051,-0.059 -0.961,1.262 0.032,-0.043 -1.071,1.262 0.039,-0.039 -0.898,0.969 1.656,1.558 0.922,-0.988 1.121,-1.309 1,-1.332 0.867,-1.32 0.774,-1.328 0.668,-1.332 0.55,-1.328 0.45,-1.332 0.351,-1.34 0.25,-1.34 0.149,-1.34 0.058,-1.34 -0.027,-1.328 -0.121,-1.332 -0.192,-1.328 -0.269,-1.32 -0.348,-1.321 -0.41,-1.32 -0.492,-1.301 -0.539,-1.308 -0.59,-1.313 -0.66,-1.297 -0.699,-1.301 -0.75,-1.3 -0.801,-1.309 -1.699,-2.582 -1.832,-2.598 -1.957,-2.621 -2.032,-2.621 -2.082,-2.621 -4.25,-5.308 0.012,0.011 -2.109,-2.691 0.007,0.012 -2.07,-2.704 0.012,0.02 -1.988,-2.738 0.019,0.019 -1.91,-2.758 0.019,0.039 -1.781,-2.8 0.02,0.039 -1.617,-2.821 0.019,0.043 -0.762,-1.429 0.02,0.027 -0.707,-1.43 0.008,0.032 -0.66,-1.442 0.019,0.039 -0.598,-1.449 0.008,0.031 -0.539,-1.461 0.012,0.051 -0.492,-1.469 0.019,0.039 -0.429,-1.48 0.011,0.051 -0.359,-1.492 0.008,0.062 -0.282,-1.5 0.012,0.047 -0.219,-1.508 0.008,0.059 -0.148,-1.52 0.008,0.071 L 369,80.515 Z m 31.5,75.789 -2.578,9.52 9.558,-2.43 c 0.61,-0.16 0.981,-0.781 0.832,-1.39 -0.16,-0.61 -0.781,-0.981 -1.39,-0.821 l -7.672,1.953 1.383,1.411 2.07,-7.653 c 0.168,-0.597 -0.192,-1.23 -0.801,-1.398 -0.609,-0.16 -1.23,0.199 -1.402,0.808 z"
         style="fill:#000000;fill-opacity:1;fill-rule:nonzero;stroke:none"
         id="path56208"
         inkscape:connector-curvature="0" /><path
         d="m 368.879,79.289 -0.078,1.699 -0.16,1.687 -0.231,1.633 -0.32,1.61 -0.399,1.55 -0.472,1.508 -0.539,1.469 -0.61,1.41 -0.679,1.371 -0.743,1.321 -0.808,1.281 -0.86,1.219 -0.929,1.171 -0.981,1.11 -1.031,1.07 -1.078,1.008 -1.133,0.961 -1.187,0.91 -1.219,0.84 -1.262,0.801 -1.301,0.738 -1.347,0.672 -1.371,0.617 -1.403,0.57 -1.437,0.512 -1.461,0.449 -1.5,0.379 -1.512,0.34 -1.539,0.262 -1.551,0.211 -0.84,0.078 -0.207,-2.27 0.809,-0.078 -0.039,0.008 1.508,-0.211 -0.039,0.012 1.48,-0.262 -0.051,0.012 1.469,-0.321 -0.039,0.012 1.449,-0.371 -0.047,0.012 1.418,-0.434 -0.05,0.012 1.402,-0.488 -0.051,0.007 1.36,-0.539 -0.04,0.008 1.321,-0.598 -0.039,0.02 1.297,-0.648 -0.047,0.027 1.258,-0.711 -0.051,0.023 1.222,-0.761 -0.05,0.031 1.179,-0.82 -0.039,0.027 1.141,-0.867 -0.043,0.039 1.082,-0.93 -0.039,0.039 1.039,-0.98 -0.039,0.051 0.988,-1.032 -0.031,0.043 0.941,-1.082 -0.039,0.051 0.891,-1.121 -0.043,0.039 0.84,-1.168 -0.039,0.051 0.769,-1.223 -0.027,0.051 0.719,-1.27 -0.032,0.059 0.653,-1.316 -0.024,0.046 0.582,-1.359 -0.019,0.063 0.519,-1.411 -0.019,0.059 0.449,-1.461 -0.012,0.063 0.383,-1.5 -0.012,0.066 0.301,-1.547 -0.012,0.059 0.231,-1.578 -0.008,0.046 0.16,-1.628 v 0.058 l 0.071,-1.668 z m -23.508,33.867 -8.84,-4.399 8.188,-5.531 c 0.519,-0.347 1.23,-0.211 1.582,0.313 0.347,0.519 0.211,1.226 -0.313,1.578 l -6.558,4.441 -0.129,-1.972 7.09,3.531 c 0.558,0.281 0.789,0.969 0.507,1.531 -0.277,0.559 -0.957,0.789 -1.527,0.508 z"
         style="fill:#000000;fill-opacity:1;fill-rule:nonzero;stroke:none"
         id="path56210"
         inkscape:connector-curvature="0" /><path
         d="m 368.16,79.238 v 2.43 l -0.012,2.379 -0.027,2.332 -0.043,2.277 -0.039,2.23 -0.07,2.172 -0.071,2.129 -0.089,2.078 -0.11,2.043 -0.121,1.981 -0.129,1.949 -0.14,1.898 -0.329,3.672 -0.39,3.508 -0.442,3.352 -0.5,3.211 -0.539,3.058 -0.609,2.942 -0.66,2.796 -0.719,2.704 -0.769,2.578 -0.832,2.468 -0.891,2.403 -0.949,2.289 -1,2.219 -1.059,2.152 -1.121,2.078 -1.172,2.02 -1.226,1.972 -1.282,1.93 -1.351,1.898 -1.399,1.86 -1.461,1.851 -1.507,1.828 -1.571,1.832 -1.621,1.829 -1.691,1.839 -0.188,0.211 -1.672,-1.558 0.192,-0.199 -0.012,0.007 1.68,-1.828 -0.02,0.008 1.621,-1.82 -0.011,0.011 1.562,-1.812 -0.019,0.023 1.488,-1.812 -0.012,0.019 1.442,-1.828 -0.02,0.02 1.391,-1.84 -0.02,0.02 1.328,-1.86 -0.019,0.031 1.269,-1.91 -0.019,0.028 1.199,-1.938 -0.008,0.027 1.149,-1.988 -0.02,0.031 1.109,-2.05 -0.019,0.039 1.039,-2.11 -0.02,0.039 0.981,-2.191 -0.012,0.031 0.942,-2.258 -0.02,0.039 0.871,-2.351 -0.012,0.031 0.821,-2.441 -0.008,0.031 0.758,-2.539 -0.008,0.027 0.719,-2.66 -0.012,0.031 0.652,-2.769 -0.011,0.031 0.601,-2.902 v 0.031 l 0.539,-3.039 -0.012,0.019 0.5,-3.179 -0.007,0.027 0.437,-3.328 v 0.031 l 0.383,-3.492 v 0.02 l 0.328,-3.649 v 0.02 l 0.141,-1.891 v 0.012 l 0.129,-1.93 h -0.008 l 0.121,-1.98 v 0.007 l 0.109,-2.019 v 0.012 l 0.09,-2.071 v 0.008 l 0.07,-2.129 v 0.012 l 0.071,-2.172 v 0.012 l 0.047,-2.223 v 0.012 l 0.031,-2.27 0.031,-2.32 v 0.012 l 0.008,-2.371 v -2.43 z m -19.051,84.437 -9.461,2.832 2.192,-9.621 c 0.14,-0.621 0.75,-1 1.371,-0.859 0.609,0.141 0.988,0.75 0.848,1.359 l -1.75,7.719 -1.438,-1.34 7.578,-2.269 c 0.61,-0.18 1.242,0.16 1.422,0.761 0.18,0.61 -0.16,1.239 -0.762,1.418 z"
         style="fill:#000000;fill-opacity:1;fill-rule:nonzero;stroke:none"
         id="path56212"
         inkscape:connector-curvature="0" /><path
         d="m 368.16,79.246 -0.012,2.41 -0.058,2.34 -0.09,2.25 -0.129,2.172 -0.16,2.089 -0.211,2.02 -0.23,1.93 -0.27,1.879 -0.309,1.793 -0.332,1.738 -0.359,1.672 -0.398,1.597 -0.411,1.551 -0.441,1.488 -0.469,1.454 -0.5,1.378 -0.5,1.34 -0.543,1.301 -1.109,2.457 -1.188,2.301 -1.242,2.18 -1.269,2.062 -1.309,1.969 -1.32,1.898 -1.332,1.84 -2.649,3.652 0.008,-0.011 -1.289,1.84 0.012,-0.02 -1.27,1.891 0.02,-0.032 -1.231,1.954 0.02,-0.032 -1.18,2.039 0.02,-0.039 -1.121,2.149 0.031,-0.051 -1.059,2.293 0.02,-0.063 -0.961,2.442 0.012,-0.039 -0.461,1.289 0.019,-0.039 -0.43,1.34 0.008,-0.032 -0.41,1.371 0.012,-0.031 -0.371,1.43 v -0.02 l -0.348,1.481 0.008,-0.031 -0.32,1.543 0.011,-0.024 -0.3,1.602 0.011,-0.039 -0.261,1.668 0.011,-0.02 -0.23,1.731 v -0.032 l -0.192,1.793 v -0.019 l -0.148,1.859 v -0.019 l -0.121,1.937 v -0.019 l -0.078,1.859 -2.282,-0.098 0.079,-1.871 0.121,-1.969 0.16,-1.89 0.191,-1.821 0.239,-1.761 0.261,-1.688 0.297,-1.621 0.32,-1.582 0.364,-1.508 0.379,-1.468 0.41,-1.403 0.437,-1.359 0.473,-1.32 0.988,-2.489 1.082,-2.34 1.141,-2.203 1.207,-2.078 1.25,-1.992 1.281,-1.906 1.309,-1.864 2.66,-3.648 h -0.008 l 1.32,-1.84 -0.011,0.02 1.308,-1.891 -0.008,0.02 1.29,-1.938 -0.02,0.027 1.25,-2.019 -0.02,0.031 1.219,-2.129 -0.027,0.039 1.168,-2.261 -0.031,0.05 1.101,-2.41 -0.019,0.031 0.531,-1.269 -0.024,0.039 0.5,-1.309 -0.007,0.008 0.488,-1.359 -0.008,0.039 0.457,-1.418 -0.008,0.027 0.43,-1.457 -0.012,0.028 0.41,-1.528 -0.007,0.02 0.39,-1.571 v 0.032 l 0.348,-1.641 -0.008,0.02 0.328,-1.711 v 0.031 l 0.301,-1.77 -0.012,0.028 0.274,-1.848 -0.012,0.027 0.238,-1.918 -0.008,0.032 0.211,-2 -0.011,0.027 0.172,-2.07 v 0.031 l 0.117,-2.148 v 0.019 l 0.09,-2.23 v 0.019 l 0.062,-2.32 v 0.019 l 0.008,-2.41 z m -24.441,79.441 -5.141,8.43 -4.808,-8.621 c -0.301,-0.551 -0.11,-1.239 0.441,-1.551 0.551,-0.309 1.25,-0.109 1.551,0.441 l 3.859,6.922 -1.973,-0.043 4.122,-6.758 c 0.332,-0.539 1.031,-0.71 1.57,-0.378 0.539,0.316 0.711,1.027 0.379,1.558 z"
         style="fill:#000000;fill-opacity:1;fill-rule:nonzero;stroke:none"
         id="path56214"
         inkscape:connector-curvature="0" /><path
         d="m 368.641,78.558 -0.051,1.59 -0.102,1.57 -0.148,1.508 -0.192,1.481 -0.5,2.808 -0.668,2.653 -0.832,2.507 -0.988,2.352 -1.129,2.219 -1.269,2.09 -1.403,1.972 -1.531,1.867 -1.629,1.762 -1.738,1.692 -1.84,1.597 -1.93,1.551 -2.011,1.488 -2.09,1.453 -2.168,1.418 -2.223,1.411 -2.277,1.398 -2.332,1.402 -2.379,1.418 -2.422,1.453 h 0.012 l -2.449,1.477 h 0.007 l -2.488,1.543 0.02,-0.012 -2.512,1.61 0.019,-0.008 -2.519,1.668 0.019,-0.008 -2.527,1.758 0.02,-0.02 -2.532,1.86 0.02,-0.02 -2.52,1.961 0.02,-0.02 -2.52,2.079 0.032,-0.02 -2.5,2.211 0.031,-0.031 -0.844,0.793 -1.566,-1.66 0.847,-0.801 2.539,-2.231 2.551,-2.109 2.551,-1.981 2.559,-1.871 2.55,-1.781 2.532,-1.687 2.519,-1.61 2.5,-1.551 2.461,-1.492 2.418,-1.449 2.371,-1.43 2.328,-1.39 h -0.008 l 2.27,-1.391 -0.012,0.012 2.203,-1.399 -0.011,0.008 2.14,-1.41 -0.019,0.02 2.058,-1.43 -0.031,0.019 1.981,-1.468 -0.028,0.019 1.899,-1.508 -0.039,0.028 1.8,-1.571 -0.05,0.043 1.699,-1.64 -0.039,0.039 1.59,-1.711 -0.051,0.051 1.48,-1.809 -0.05,0.059 1.359,-1.91 -0.051,0.07 1.231,-2.02 -0.047,0.071 1.097,-2.141 -0.039,0.078 0.961,-2.277 -0.031,0.078 0.809,-2.418 -0.028,0.09 0.649,-2.582 -0.02,0.082 0.5,-2.742 -0.012,0.062 0.18,-1.441 -0.008,0.031 0.149,-1.473 -0.008,0.032 0.098,-1.532 v 0.043 l 0.05,-1.582 z m -49.871,57.957 -9.622,2.242 2.782,-9.468 c 0.179,-0.602 0.808,-0.953 1.422,-0.774 0.597,0.172 0.949,0.813 0.769,1.41 l -2.23,7.602 -1.352,-1.43 7.711,-1.8 c 0.609,-0.141 1.23,0.242 1.371,0.851 0.141,0.609 -0.242,1.231 -0.851,1.367 z"
         style="fill:#000000;fill-opacity:1;fill-rule:nonzero;stroke:none"
         id="path56216"
         inkscape:connector-curvature="0" /><path
         d="m 368.199,79.257 -0.051,2.75 -0.109,2.7 -0.16,2.64 -0.207,2.571 -0.262,2.507 -0.301,2.461 -0.339,2.411 -0.379,2.339 -0.411,2.301 -0.449,2.238 -0.472,2.204 -0.5,2.16 -1.071,4.156 -1.148,3.992 -1.199,3.84 -1.231,3.691 -1.23,3.571 -1.219,3.437 -1.191,3.352 0.011,-0.012 -1.133,3.262 0.012,-0.012 -1.039,3.18 v -0.02 l -0.941,3.141 0.011,-0.031 -0.832,3.089 0.02,-0.046 -0.688,3.066 0.008,-0.047 -0.277,1.527 0.008,-0.019 -0.239,1.519 v -0.039 l -0.179,1.52 v -0.027 l -0.141,1.527 v -0.039 l -0.082,1.531 v -0.043 l -0.027,1.531 v -0.039 l 0.019,1.539 v -0.039 l 0.078,1.539 v -0.039 l 0.153,1.559 -0.012,-0.051 0.219,1.57 -0.008,-0.039 0.289,1.582 -0.012,-0.043 0.352,1.59 -0.012,-0.039 0.434,1.621 -0.012,-0.05 0.512,1.64 -0.024,-0.051 0.59,1.653 -0.019,-0.032 0.66,1.68 -0.02,-0.051 0.762,1.7 -0.012,-0.028 0.84,1.719 -0.019,-0.031 0.929,1.75 -0.019,-0.028 1.019,1.778 -0.019,-0.028 1.121,1.809 -0.02,-0.031 1.219,1.851 -0.02,-0.031 1.321,1.879 -0.02,-0.027 1.418,1.918 -0.019,-0.02 1.531,1.949 -0.012,-0.019 1.629,1.98 -0.008,-0.019 1.75,2.031 -0.011,-0.012 0.351,0.403 -1.699,1.519 -0.359,-0.41 -1.774,-2.051 -1.648,-2.012 -1.551,-1.968 -1.438,-1.942 -1.332,-1.898 -1.238,-1.879 -1.141,-1.84 -1.039,-1.812 -0.953,-1.789 -0.847,-1.758 -0.782,-1.742 -0.679,-1.731 -0.59,-1.68 -0.531,-1.679 -0.438,-1.668 -0.359,-1.641 -0.293,-1.633 -0.231,-1.617 -0.148,-1.609 -0.09,-1.594 -0.02,-1.59 0.032,-1.566 0.09,-1.571 0.136,-1.57 0.192,-1.562 0.25,-1.547 0.281,-1.571 0.687,-3.113 0.84,-3.129 0.953,-3.168 1.047,-3.211 1.133,-3.281 1.188,-3.348 1.222,-3.441 -0.011,0.012 1.23,-3.563 v 0.02 l 1.219,-3.68 -0.008,0.02 1.199,-3.809 -0.012,0.02 1.141,-3.969 -0.008,0.027 1.071,-4.129 -0.012,0.031 0.488,-2.128 v 0.007 l 0.473,-2.179 v 0.019 l 0.437,-2.23 v 0.031 l 0.403,-2.281 v 0.019 l 0.371,-2.32 v 0.023 l 0.34,-2.39 v 0.019 l 0.296,-2.429 -0.007,0.019 0.257,-2.492 v 0.023 l 0.211,-2.55 -0.007,0.027 0.16,-2.617 v 0.019 l 0.109,-2.672 v 0.032 l 0.059,-2.739 z m -1.859,108.641 1.98,9.668 -9.39,-3.027 c -0.602,-0.203 -0.93,-0.844 -0.739,-1.442 0.2,-0.601 0.84,-0.929 1.438,-0.73 l 7.531,2.43 -1.461,1.308 -1.59,-7.75 c -0.129,-0.617 0.27,-1.219 0.879,-1.348 0.621,-0.121 1.223,0.27 1.352,0.891 z"
         style="fill:#000000;fill-opacity:1;fill-rule:nonzero;stroke:none"
         id="path56218"
         inkscape:connector-curvature="0" /><path
         d="m 365.762,79.289 v 57.207 h 2.277 V 79.289 Z m -3.832,50.949 4.968,8.527 4.973,-8.527 c 0.32,-0.551 0.141,-1.242 -0.41,-1.563 -0.539,-0.32 -1.242,-0.136 -1.551,0.411 l -3.988,6.839 h 1.957 l -3.988,-6.839 c -0.313,-0.547 -1.012,-0.731 -1.551,-0.411 -0.551,0.321 -0.731,1.012 -0.41,1.563 z"
         style="fill:#000000;fill-opacity:1;fill-rule:nonzero;stroke:none"
         id="path56220"
         inkscape:connector-curvature="0" /><path
         d="m 368.16,79.289 -0.14,3.347 -0.29,3.282 -0.429,3.199 -0.571,3.129 -0.71,3.031 -0.84,2.941 -0.981,2.848 -1.097,2.762 -1.211,2.668 -1.332,2.57 -1.457,2.481 -1.551,2.371 -1.66,2.277 -1.762,2.191 -1.859,2.071 -1.961,1.98 -2.039,1.871 -2.122,1.77 -2.207,1.66 -2.281,1.551 -2.351,1.437 -2.418,1.332 -2.493,1.219 -2.539,1.109 -2.597,1 -2.66,0.879 -2.704,0.762 -2.75,0.641 -2.769,0.527 -2.828,0.41 -2.852,0.281 -0.597,0.039 -0.133,-2.277 0.57,-0.031 H 312.5 l 2.801,-0.281 -0.051,0.011 2.77,-0.41 -0.04,0.008 2.731,-0.508 h -0.051 l 2.699,-0.629 -0.05,0.02 2.64,-0.75 -0.039,0.008 2.61,-0.86 -0.051,0.02 2.551,-0.981 -0.051,0.024 2.5,-1.094 -0.047,0.031 2.437,-1.199 -0.05,0.02 2.382,-1.301 -0.05,0.019 2.3,-1.41 -0.043,0.024 2.243,-1.512 -0.051,0.031 2.172,-1.633 -0.051,0.043 2.078,-1.73 -0.039,0.027 2,-1.828 -0.039,0.039 1.91,-1.937 -0.031,0.039 1.82,-2.032 -0.039,0.039 1.731,-2.136 -0.043,0.047 1.632,-2.239 -0.031,0.051 1.52,-2.32 -0.032,0.039 1.422,-2.43 -0.019,0.059 1.301,-2.52 -0.024,0.051 1.192,-2.621 -0.02,0.051 1.078,-2.711 -0.019,0.062 0.953,-2.801 -0.024,0.051 0.832,-2.883 -0.019,0.051 0.699,-2.98 -0.012,0.062 0.563,-3.07 -0.012,0.051 0.43,-3.153 -0.008,0.051 0.289,-3.23 v 0.058 l 0.129,-3.328 z m -49.582,63.097 -8.808,-4.468 8.23,-5.461 c 0.52,-0.352 1.23,-0.211 1.578,0.32 0.352,0.52 0.203,1.23 -0.316,1.578 l -6.602,4.383 -0.109,-1.973 7.058,3.59 c 0.563,0.281 0.789,0.973 0.5,1.531 -0.281,0.559 -0.968,0.782 -1.531,0.5 z"
         style="fill:#000000;fill-opacity:1;fill-rule:nonzero;stroke:none"
         id="path56222"
         inkscape:connector-curvature="0" /><path
         d="m 368.039,80.597 -0.059,1.571 -0.152,1.57 -0.226,1.559 -0.293,1.55 -0.368,1.539 -0.441,1.52 -0.5,1.519 -0.559,1.493 -0.621,1.488 -0.672,1.473 -0.726,1.468 -0.762,1.45 -1.66,2.859 -1.801,2.84 -1.929,2.793 -2.008,2.758 -2.082,2.718 -2.121,2.703 -4.258,5.309 h 0.008 l -2.079,2.621 0.008,-0.012 -2.027,2.602 0.019,-0.02 -1.941,2.598 0.02,-0.027 -1.821,2.578 0.024,-0.039 -1.684,2.558 0.024,-0.031 -0.782,1.274 0.008,-0.024 -0.726,1.274 0.007,-0.024 -0.687,1.274 0.019,-0.032 -0.64,1.27 0.019,-0.039 -0.582,1.269 0.024,-0.039 -0.532,1.27 0.02,-0.039 -0.469,1.258 0.02,-0.059 -0.391,1.269 0.012,-0.05 -0.332,1.261 0.012,-0.062 -0.262,1.262 0.012,-0.063 -0.18,1.262 v -0.07 l -0.113,1.261 v -0.07 l -0.028,1.258 v -0.078 l 0.059,1.257 v -0.07 l 0.129,1.262 -0.008,-0.09 0.23,1.262 -0.011,-0.082 0.332,1.261 -0.032,-0.07 0.418,1.258 -0.027,-0.078 0.527,1.258 -0.027,-0.059 0.617,1.262 -0.027,-0.071 0.73,1.27 -0.031,-0.063 0.84,1.27 -0.039,-0.059 0.949,1.27 -0.039,-0.051 1.07,1.262 -0.043,-0.039 0.903,0.961 -1.66,1.558 -0.922,-0.98 -1.11,-1.32 -1,-1.321 -0.871,-1.32 -0.777,-1.328 -0.652,-1.332 -0.559,-1.328 -0.441,-1.332 -0.348,-1.34 -0.25,-1.348 -0.141,-1.332 -0.07,-1.34 0.039,-1.328 0.121,-1.332 0.192,-1.328 0.277,-1.32 0.34,-1.321 0.422,-1.32 0.48,-1.301 0.539,-1.308 0.59,-1.313 0.66,-1.297 0.699,-1.301 0.75,-1.3 0.801,-1.309 1.699,-2.59 1.852,-2.601 1.949,-2.61 2.031,-2.621 2.079,-2.621 4.261,-5.308 -0.011,0.011 2.109,-2.691 -0.008,0.012 2.07,-2.704 -0.019,0.02 2,-2.738 -0.024,0.019 1.911,-2.758 -0.028,0.039 1.778,-2.8 -0.02,0.039 1.633,-2.821 -0.024,0.043 0.75,-1.421 -0.007,0.019 0.711,-1.43 -0.024,0.032 0.652,-1.442 -0.011,0.039 0.609,-1.457 -0.019,0.039 0.55,-1.461 -0.007,0.051 0.476,-1.469 -0.008,0.039 0.418,-1.468 -0.008,0.039 0.36,-1.492 -0.012,0.062 0.281,-1.5 -0.007,0.047 0.218,-1.508 -0.011,0.059 0.152,-1.52 -0.012,0.071 0.063,-1.532 z m -31.527,75.782 2.566,9.527 -9.558,-2.461 c -0.61,-0.148 -0.981,-0.777 -0.821,-1.387 0.153,-0.601 0.781,-0.972 1.391,-0.82 l 7.66,1.98 -1.379,1.399 -2.062,-7.649 c -0.161,-0.613 0.203,-1.23 0.812,-1.402 0.609,-0.16 1.231,0.199 1.391,0.813 z"
         style="fill:#000000;fill-opacity:1;fill-rule:nonzero;stroke:none"
         id="path56224"
         inkscape:connector-curvature="0" /><path
         d="m 99.238,97.175 h 14.043 V 74.737 H 99.238 Z"
         style="fill:#5b9bd5;fill-opacity:1;fill-rule:evenodd;stroke:#41719c;stroke-width:0.95999998;stroke-linecap:butt;stroke-linejoin:miter;stroke-miterlimit:10;stroke-dasharray:none;stroke-opacity:1"
         id="path56226"
         inkscape:connector-curvature="0" /><path
         d="m 99.238,97.175 7.024,7.321 7.019,-7.321 z"
         style="fill:#bdd7ee;fill-opacity:1;fill-rule:evenodd;stroke:#41719c;stroke-width:0.95999998;stroke-linecap:butt;stroke-linejoin:miter;stroke-miterlimit:10;stroke-dasharray:none;stroke-opacity:1"
         id="path56228"
         inkscape:connector-curvature="0" /><path
         d="m 360.84,85.898 h 13.922 V 63.457 H 360.84 Z"
         style="fill:#5b9bd5;fill-opacity:1;fill-rule:evenodd;stroke:#41719c;stroke-width:0.95999998;stroke-linecap:butt;stroke-linejoin:miter;stroke-miterlimit:10;stroke-dasharray:none;stroke-opacity:1"
         id="path56230"
         inkscape:connector-curvature="0" /><path
         d="m 360.84,85.898 6.961,7.32 6.961,-7.32 z"
         style="fill:#bdd7ee;fill-opacity:1;fill-rule:evenodd;stroke:#41719c;stroke-width:0.95999998;stroke-linecap:butt;stroke-linejoin:miter;stroke-miterlimit:10;stroke-dasharray:none;stroke-opacity:1"
         id="path56232"
         inkscape:connector-curvature="0" /></g></g></svg>