<?xml version="1.0" encoding="UTF-8" standalone="no"?>
<!-- Created with Inkscape (http://www.inkscape.org/) -->

<svg
   xmlns:dc="http://purl.org/dc/elements/1.1/"
   xmlns:cc="http://creativecommons.org/ns#"
   xmlns:rdf="http://www.w3.org/1999/02/22-rdf-syntax-ns#"
   xmlns:svg="http://www.w3.org/2000/svg"
   xmlns="http://www.w3.org/2000/svg"
   xmlns:sodipodi="http://sodipodi.sourceforge.net/DTD/sodipodi-0.dtd"
   xmlns:inkscape="http://www.inkscape.org/namespaces/inkscape"
   width="71.98114mm"
   height="44.732224mm"
   viewBox="0 0 255.05128 158.5"
   id="svg2"
   version="1.1"
   inkscape:version="0.91 r13725"
   sodipodi:docname="manipulation_narrow_passage.svg">
  <defs
     id="defs4" />
  <sodipodi:namedview
     id="base"
     pagecolor="#ffffff"
     bordercolor="#666666"
     borderopacity="1.0"
     inkscape:pageopacity="0.0"
     inkscape:pageshadow="2"
     inkscape:zoom="2"
     inkscape:cx="-11.571429"
     inkscape:cy="50.992043"
     inkscape:document-units="px"
     inkscape:current-layer="layer1"
     showgrid="false"
     showguides="false"
     inkscape:window-width="1855"
     inkscape:window-height="1056"
     inkscape:window-x="65"
     inkscape:window-y="24"
     inkscape:window-maximized="1"
     fit-margin-top="0"
     fit-margin-left="0"
     fit-margin-right="0"
     fit-margin-bottom="0" />
  <metadata
     id="metadata7">
    <rdf:RDF>
      <cc:Work
         rdf:about="">
        <dc:format>image/svg+xml</dc:format>
        <dc:type
           rdf:resource="http://purl.org/dc/dcmitype/StillImage" />
        <dc:title></dc:title>
      </cc:Work>
    </rdf:RDF>
  </metadata>
  <g
     inkscape:label="Layer 1"
     inkscape:groupmode="layer"
     id="layer1"
     transform="translate(-268,-10.612206)">
    <path
       style="fill:#b3b3b3;fill-rule:evenodd;stroke:#000000;stroke-width:0.25;stroke-linecap:butt;stroke-linejoin:miter;stroke-miterlimit:4;stroke-dasharray:none;stroke-opacity:1"
       d="M 417.5,86.862205 413.5,93.3622 393.92647,92.406318 377,97.3622 l 1,7.5 3,4.5 35.5,8 5.63811,9.02169 6.46223,7.12113 13.74723,6.11224 24.15243,6.24494 16,-0.5 8.97941,6.43029 10.52962,3.63501 20.91685,-0.59618 -0.4259,-132.469115 -13.972,-1.576652 -12.50775,4.161368 -10.02025,9.415284 -14.5,-1 -21.52489,3.447587 -13.76949,2.876585 -10.91945,9.06051 -7.28617,9.115318 -39,8.5 -2.5,4.5 0.20949,5.751095 17.29051,4.748905 19.5,-0.5 z"
       id="path4362"
       inkscape:connector-curvature="0"
       sodipodi:nodetypes="cccccccccccccccccccccccccccccc" />
    <path
       style="fill:none;fill-rule:evenodd;stroke:#ffff00;stroke-width:0.99999988;stroke-linecap:butt;stroke-linejoin:miter;stroke-miterlimit:4;stroke-dasharray:2.99999964, 0.99999988;stroke-dashoffset:0;stroke-opacity:1"
       d="m 384.41172,84.577526 0,5.246493 17.11208,4.131951 19.39634,0 c 0,0 9.95251,20.5896 18.30456,24.29816 9.30851,4.13322 21.32267,3.83982 30.31082,-1.01077 6.58053,-3.5513 11.27368,-11.09581 13.47137,-18.50612 2.60667,-8.789456 3.28369,-19.723646 -1.28907,-27.580797 -4.57209,-7.85597 -14.21587,-11.889453 -22.79913,-13.812533 -5.8952,-1.320822 -12.43556,-0.510587 -17.98919,1.947922 -8.00735,3.544729 -20.00936,20.718798 -20.00936,20.718798 l -17.25732,0 z"
       id="path4164-6"
       inkscape:connector-curvature="0"
       sodipodi:nodetypes="ccccssssssccc" />
    <circle
       style="color:#000000;clip-rule:nonzero;display:inline;overflow:visible;visibility:visible;opacity:1;isolation:auto;mix-blend-mode:normal;color-interpolation:sRGB;color-interpolation-filters:linearRGB;solid-color:#000000;solid-opacity:1;fill:#ff0000;fill-opacity:1;fill-rule:evenodd;stroke:#000000;stroke-width:1;stroke-linecap:butt;stroke-linejoin:miter;stroke-miterlimit:4;stroke-dasharray:none;stroke-dashoffset:0;stroke-opacity:1;color-rendering:auto;image-rendering:auto;shape-rendering:auto;text-rendering:auto;enable-background:accumulate"
       id="path4250-3-2"
       cx="413"
       cy="87.362206"
       r="1.75" />
    <rect
       style="color:#000000;clip-rule:nonzero;display:inline;overflow:visible;visibility:visible;opacity:1;isolation:auto;mix-blend-mode:normal;color-interpolation:sRGB;color-interpolation-filters:linearRGB;solid-color:#000000;solid-opacity:1;fill:none;fill-opacity:1;fill-rule:evenodd;stroke:#000000;stroke-width:1;stroke-linecap:butt;stroke-linejoin:miter;stroke-miterlimit:4;stroke-dasharray:none;stroke-dashoffset:0;stroke-opacity:1;color-rendering:auto;image-rendering:auto;shape-rendering:auto;text-rendering:auto;enable-background:accumulate"
       id="rect4364-9"
       width="254"
       height="157.5"
       x="268.5"
       y="11.112206" />
  </g>
</svg>
