<?xml version="1.0" encoding="UTF-8" standalone="no"?>
<!-- Created with Inkscape (http://www.inkscape.org/) -->

<svg
   xmlns:dc="http://purl.org/dc/elements/1.1/"
   xmlns:cc="http://creativecommons.org/ns#"
   xmlns:rdf="http://www.w3.org/1999/02/22-rdf-syntax-ns#"
   xmlns:svg="http://www.w3.org/2000/svg"
   xmlns="http://www.w3.org/2000/svg"
   xmlns:sodipodi="http://sodipodi.sourceforge.net/DTD/sodipodi-0.dtd"
   xmlns:inkscape="http://www.inkscape.org/namespaces/inkscape"
   version="1.1"
   id="svg60709"
   xml:space="preserve"
   width="1053.631"
   height="237.5977"
   viewBox="0 0 1053.631 237.5977"
   sodipodi:docname="narrow_passage_grid.svg"
   inkscape:version="0.92.3 (2405546, 2018-03-11)"><metadata
     id="metadata60715"><rdf:RDF><cc:Work
         rdf:about=""><dc:format>image/svg+xml</dc:format><dc:type
           rdf:resource="http://purl.org/dc/dcmitype/StillImage" /><dc:title></dc:title></cc:Work></rdf:RDF></metadata><defs
     id="defs60713" /><sodipodi:namedview
     pagecolor="#ffffff"
     bordercolor="#666666"
     borderopacity="1"
     objecttolerance="10"
     gridtolerance="10"
     guidetolerance="10"
     inkscape:pageopacity="0"
     inkscape:pageshadow="2"
     inkscape:window-width="909"
     inkscape:window-height="480"
     id="namedview60711"
     showgrid="false"
     inkscape:zoom="0.38628325"
     inkscape:cx="526.81549"
     inkscape:cy="118.79885"
     inkscape:window-x="0"
     inkscape:window-y="0"
     inkscape:window-maximized="0"
     inkscape:current-layer="g60717" /><g
     id="g60717"
     inkscape:groupmode="layer"
     inkscape:label="narrow_passage_grid"
     transform="matrix(1.3333333,0,0,-1.3333333,0,237.5977)"><g
       id="g60719"><g
         id="g60721"
         transform="matrix(1,0,0,-1,0,178.19827)"><path
           d="m 726.465,173.039 c 1.09,-14.199 -18.293,-18.859 -26.883,-26.5 -8.598,-7.629 -16.098,-17.301 -24.699,-19.332 -8.598,-2.027 -24.578,1.191 -26.879,7.16 -2.301,5.973 7.508,22.082 13.078,28.653 5.57,6.558 11.621,6.32 20.34,10.738 11.621,-0.598 40.492,-0.981 45.043,-0.719 z"
           style="fill:#7d7d7d;fill-opacity:1;fill-rule:evenodd;stroke:#000000;stroke-width:0.95999998;stroke-linecap:butt;stroke-linejoin:miter;stroke-miterlimit:10;stroke-dasharray:none;stroke-opacity:1"
           id="path60723"
           inkscape:connector-curvature="0" /></g><g
         id="g60725"
         transform="matrix(1,0,0,-1,0,178.19827)"><path
           d="m 651.625,4.32 c 2.91,11.399 -3.992,31.43 2.188,42.27 6.179,10.848 26.66,14.828 34.902,22.808 8.238,7.969 3.027,21.602 14.539,25.032 11.508,3.429 48.348,3.8 54.531,-4.45 6.18,-8.25 -12.48,-30.871 -17.453,-45.062 C 735.363,30.738 744.453,7.84 727.973,4.879 727.484,5.25 652.352,4.598 651.625,4.32 Z"
           style="fill:#7d7d7d;fill-opacity:1;fill-rule:evenodd;stroke:#000000;stroke-width:0.95999998;stroke-linecap:butt;stroke-linejoin:miter;stroke-miterlimit:10;stroke-dasharray:none;stroke-opacity:1"
           id="path60727"
           inkscape:connector-curvature="0" /></g><g
         id="g60729"
         transform="matrix(1,0,0,-1,0,178.19827)"><path
           d="m 633.242,81.84 c 5.653,-6.192 10.192,-9.84 9.973,-17.91 -0.223,-8.071 -5.43,-28.192 -11.301,-30.512 -5.871,-2.32 -20.172,5.301 -23.941,16.582 -3.758,11.277 -2.649,45.879 1.332,51.078 3.988,5.199 18.289,-13.051 23.937,-19.238 z"
           style="fill:#7d7d7d;fill-opacity:1;fill-rule:evenodd;stroke:#000000;stroke-width:0.95999998;stroke-linecap:butt;stroke-linejoin:miter;stroke-miterlimit:10;stroke-dasharray:none;stroke-opacity:1"
           id="path60731"
           inkscape:connector-curvature="0" /></g><g
         id="g60733"
         transform="matrix(1,0,0,-1,0,178.19827)"><path
           d="M 652.824,5.039 V 173.77"
           style="fill:none;stroke:#000000;stroke-width:0.47999999;stroke-linecap:butt;stroke-linejoin:miter;stroke-miterlimit:10;stroke-dasharray:none;stroke-opacity:1"
           id="path60735"
           inkscape:connector-curvature="0" /></g><g
         id="g60737"
         transform="matrix(1,0,0,-1,0,178.19827)"><path
           d="M 636.023,5.039 V 173.77"
           style="fill:none;stroke:#000000;stroke-width:0.47999999;stroke-linecap:butt;stroke-linejoin:miter;stroke-miterlimit:10;stroke-dasharray:none;stroke-opacity:1"
           id="path60739"
           inkscape:connector-curvature="0" /></g><g
         id="g60741"
         transform="matrix(1,0,0,-1,0,178.19827)"><path
           d="M 619.102,5.039 V 173.77"
           style="fill:none;stroke:#000000;stroke-width:0.47999999;stroke-linecap:butt;stroke-linejoin:miter;stroke-miterlimit:10;stroke-dasharray:none;stroke-opacity:1"
           id="path60743"
           inkscape:connector-curvature="0" /></g><g
         id="g60745"
         transform="matrix(1,0,0,-1,0,178.19827)"><path
           d="M 602.305,5.039 V 173.77"
           style="fill:none;stroke:#000000;stroke-width:0.47999999;stroke-linecap:butt;stroke-linejoin:miter;stroke-miterlimit:10;stroke-dasharray:none;stroke-opacity:1"
           id="path60747"
           inkscape:connector-curvature="0" /></g><g
         id="g60749"
         transform="matrix(1,0,0,-1,0,178.19827)"><path
           d="M 585.504,5.039 V 173.77"
           style="fill:none;stroke:#000000;stroke-width:0.47999999;stroke-linecap:butt;stroke-linejoin:miter;stroke-miterlimit:10;stroke-dasharray:none;stroke-opacity:1"
           id="path60751"
           inkscape:connector-curvature="0" /></g><g
         id="g60753"
         transform="matrix(1,0,0,-1,0,178.19827)"><path
           d="M 568.582,5.039 V 173.77"
           style="fill:none;stroke:#000000;stroke-width:0.47999999;stroke-linecap:butt;stroke-linejoin:miter;stroke-miterlimit:10;stroke-dasharray:none;stroke-opacity:1"
           id="path60755"
           inkscape:connector-curvature="0" /></g><g
         id="g60757"
         transform="matrix(1,0,0,-1,0,178.19827)"><path
           d="M 686.664,5.039 V 173.77"
           style="fill:none;stroke:#000000;stroke-width:0.47999999;stroke-linecap:butt;stroke-linejoin:miter;stroke-miterlimit:10;stroke-dasharray:none;stroke-opacity:1"
           id="path60759"
           inkscape:connector-curvature="0" /></g><g
         id="g60761"
         transform="matrix(1,0,0,-1,0,178.19827)"><path
           d="M 669.742,5.039 V 173.77"
           style="fill:none;stroke:#000000;stroke-width:0.47999999;stroke-linecap:butt;stroke-linejoin:miter;stroke-miterlimit:10;stroke-dasharray:none;stroke-opacity:1"
           id="path60763"
           inkscape:connector-curvature="0" /></g><g
         id="g60765"
         transform="matrix(1,0,0,-1,0,178.19827)"><path
           d="M 789.024,5.039 V 173.77"
           style="fill:none;stroke:#000000;stroke-width:0.47999999;stroke-linecap:butt;stroke-linejoin:miter;stroke-miterlimit:10;stroke-dasharray:none;stroke-opacity:1"
           id="path60767"
           inkscape:connector-curvature="0" /></g><g
         id="g60769"
         transform="matrix(1,0,0,-1,0,178.19827)"><path
           d="M 772.223,5.039 V 173.77"
           style="fill:none;stroke:#000000;stroke-width:0.47999999;stroke-linecap:butt;stroke-linejoin:miter;stroke-miterlimit:10;stroke-dasharray:none;stroke-opacity:1"
           id="path60771"
           inkscape:connector-curvature="0" /></g><g
         id="g60773"
         transform="matrix(1,0,0,-1,0,178.19827)"><path
           d="M 755.422,5.039 V 173.77"
           style="fill:none;stroke:#000000;stroke-width:0.47999999;stroke-linecap:butt;stroke-linejoin:miter;stroke-miterlimit:10;stroke-dasharray:none;stroke-opacity:1"
           id="path60775"
           inkscape:connector-curvature="0" /></g><g
         id="g60777"
         transform="matrix(1,0,0,-1,0,178.19827)"><path
           d="M 738.504,5.039 V 173.77"
           style="fill:none;stroke:#000000;stroke-width:0.47999999;stroke-linecap:butt;stroke-linejoin:miter;stroke-miterlimit:10;stroke-dasharray:none;stroke-opacity:1"
           id="path60779"
           inkscape:connector-curvature="0" /></g><g
         id="g60781"
         transform="matrix(1,0,0,-1,0,178.19827)"><path
           d="M 721.703,5.039 V 173.77"
           style="fill:none;stroke:#000000;stroke-width:0.47999999;stroke-linecap:butt;stroke-linejoin:miter;stroke-miterlimit:10;stroke-dasharray:none;stroke-opacity:1"
           id="path60783"
           inkscape:connector-curvature="0" /></g><g
         id="g60785"
         transform="matrix(1,0,0,-1,0,178.19827)"><path
           d="M 704.785,5.039 V 173.77"
           style="fill:none;stroke:#000000;stroke-width:0.47999999;stroke-linecap:butt;stroke-linejoin:miter;stroke-miterlimit:10;stroke-dasharray:none;stroke-opacity:1"
           id="path60787"
           inkscape:connector-curvature="0" /></g><g
         id="g60789"
         transform="matrix(1,0,0,-1,0,178.19827)"><path
           d="M 789.094,157.68 H 552.863"
           style="fill:none;stroke:#000000;stroke-width:0.47999999;stroke-linecap:butt;stroke-linejoin:miter;stroke-miterlimit:10;stroke-dasharray:none;stroke-opacity:1"
           id="path60791"
           inkscape:connector-curvature="0" /></g><g
         id="g60793"
         transform="matrix(1,0,0,-1,0,178.19827)"><path
           d="M 789.094,105.84 H 552.863"
           style="fill:none;stroke:#000000;stroke-width:0.47999999;stroke-linecap:butt;stroke-linejoin:miter;stroke-miterlimit:10;stroke-dasharray:none;stroke-opacity:1"
           id="path60795"
           inkscape:connector-curvature="0" /></g><g
         id="g60797"
         transform="matrix(1,0,0,-1,0,178.19827)"><path
           d="M 789.094,88.918 H 552.863"
           style="fill:none;stroke:#000000;stroke-width:0.47999999;stroke-linecap:butt;stroke-linejoin:miter;stroke-miterlimit:10;stroke-dasharray:none;stroke-opacity:1"
           id="path60799"
           inkscape:connector-curvature="0" /></g><g
         id="g60801"
         transform="matrix(1,0,0,-1,0,178.19827)"><path
           d="M 789.094,72.117 H 552.863"
           style="fill:none;stroke:#000000;stroke-width:0.47999999;stroke-linecap:butt;stroke-linejoin:miter;stroke-miterlimit:10;stroke-dasharray:none;stroke-opacity:1"
           id="path60803"
           inkscape:connector-curvature="0" /></g><g
         id="g60805"
         transform="matrix(1,0,0,-1,0,178.19827)"><path
           d="M 789.094,55.199 H 552.863"
           style="fill:none;stroke:#000000;stroke-width:0.47999999;stroke-linecap:butt;stroke-linejoin:miter;stroke-miterlimit:10;stroke-dasharray:none;stroke-opacity:1"
           id="path60807"
           inkscape:connector-curvature="0" /></g><g
         id="g60809"
         transform="matrix(1,0,0,-1,0,178.19827)"><path
           d="M 789.094,38.398 H 552.863"
           style="fill:none;stroke:#000000;stroke-width:0.47999999;stroke-linecap:butt;stroke-linejoin:miter;stroke-miterlimit:10;stroke-dasharray:none;stroke-opacity:1"
           id="path60811"
           inkscape:connector-curvature="0" /></g><g
         id="g60813"
         transform="matrix(1,0,0,-1,0,178.19827)"><path
           d="M 789.094,21.48 H 552.863"
           style="fill:none;stroke:#000000;stroke-width:0.47999999;stroke-linecap:butt;stroke-linejoin:miter;stroke-miterlimit:10;stroke-dasharray:none;stroke-opacity:1"
           id="path60815"
           inkscape:connector-curvature="0" /></g><g
         id="g60817"
         transform="matrix(1,0,0,-1,0,178.19827)"><path
           d="M 789.094,139.559 H 552.863"
           style="fill:none;stroke:#000000;stroke-width:0.47999999;stroke-linecap:butt;stroke-linejoin:miter;stroke-miterlimit:10;stroke-dasharray:none;stroke-opacity:1"
           id="path60819"
           inkscape:connector-curvature="0" /></g><g
         id="g60821"
         transform="matrix(1,0,0,-1,0,178.19827)"><path
           d="M 789.094,122.758 H 552.863"
           style="fill:none;stroke:#000000;stroke-width:0.47999999;stroke-linecap:butt;stroke-linejoin:miter;stroke-miterlimit:10;stroke-dasharray:none;stroke-opacity:1"
           id="path60823"
           inkscape:connector-curvature="0" /></g><g
         id="g60825"
         transform="matrix(1,0,0,-1,0,178.19827)"><path
           d="m 206.742,173.039 c 1.09,-14.199 -18.308,-18.859 -26.918,-26.5 -8.609,-7.629 -16.133,-17.301 -24.742,-19.332 -8.609,-2.027 -24.609,1.191 -26.918,7.16 -2.301,5.973 7.52,22.082 13.098,28.653 5.582,6.558 11.64,6.32 20.371,10.738 11.64,-0.598 39.402,-1.551 45.109,-0.719 z"
           style="fill:#7d7d7d;fill-opacity:1;fill-rule:evenodd;stroke:#000000;stroke-width:0.95999998;stroke-linecap:butt;stroke-linejoin:miter;stroke-miterlimit:10;stroke-dasharray:none;stroke-opacity:1"
           id="path60827"
           inkscape:connector-curvature="0" /></g><g
         id="g60829"
         transform="matrix(1,0,0,-1,0,178.19827)"><path
           d="m 107.184,4.32 c 2.91,14.36 -3.993,39.59 2.191,53.25 6.18,13.668 26.66,18.688 34.898,28.731 8.239,10.039 3.032,27.207 14.54,31.527 11.511,4.32 48.351,4.789 54.531,-5.598 6.179,-10.402 -12.481,-38.89 -17.449,-56.761 -4.973,-17.871 4.117,-46.711 -12.36,-50.449 -0.492,0.468 -75.621,-0.352 -76.351,-0.7 z"
           style="fill:#7d7d7d;fill-opacity:1;fill-rule:evenodd;stroke:#000000;stroke-width:0.95999998;stroke-linecap:butt;stroke-linejoin:miter;stroke-miterlimit:10;stroke-dasharray:none;stroke-opacity:1"
           id="path60831"
           inkscape:connector-curvature="0" /></g><g
         id="g60833"
         transform="matrix(1,0,0,-1,0,178.19827)"><path
           d="m 32.902,5.039 h 236.36"
           style="fill:none;stroke:#000000;stroke-width:0.47999999;stroke-linecap:butt;stroke-linejoin:miter;stroke-miterlimit:10;stroke-dasharray:none;stroke-opacity:1"
           id="path60835"
           inkscape:connector-curvature="0" /></g><g
         id="g60837"
         transform="matrix(1,0,0,-1,0,178.19827)"><path
           d="m 32.902,38.758 h 236.36"
           style="fill:none;stroke:#000000;stroke-width:0.47999999;stroke-linecap:butt;stroke-linejoin:miter;stroke-miterlimit:10;stroke-dasharray:none;stroke-opacity:1"
           id="path60839"
           inkscape:connector-curvature="0" /></g><g
         id="g60841"
         transform="matrix(1,0,0,-1,0,178.19827)"><path
           d="m 32.902,72.598 h 236.36"
           style="fill:none;stroke:#000000;stroke-width:0.47999999;stroke-linecap:butt;stroke-linejoin:miter;stroke-miterlimit:10;stroke-dasharray:none;stroke-opacity:1"
           id="path60843"
           inkscape:connector-curvature="0" /></g><g
         id="g60845"
         transform="matrix(1,0,0,-1,0,178.19827)"><path
           d="m 32.902,106.32 h 236.36"
           style="fill:none;stroke:#000000;stroke-width:0.47999999;stroke-linecap:butt;stroke-linejoin:miter;stroke-miterlimit:10;stroke-dasharray:none;stroke-opacity:1"
           id="path60847"
           inkscape:connector-curvature="0" /></g><g
         id="g60849"
         transform="matrix(1,0,0,-1,0,178.19827)"><path
           d="m 32.902,140.039 h 236.36"
           style="fill:none;stroke:#000000;stroke-width:0.47999999;stroke-linecap:butt;stroke-linejoin:miter;stroke-miterlimit:10;stroke-dasharray:none;stroke-opacity:1"
           id="path60851"
           inkscape:connector-curvature="0" /></g><g
         id="g60853"
         transform="matrix(1,0,0,-1,0,178.19827)"><path
           d="m 32.902,173.758 h 236.36"
           style="fill:none;stroke:#000000;stroke-width:0.47999999;stroke-linecap:butt;stroke-linejoin:miter;stroke-miterlimit:10;stroke-dasharray:none;stroke-opacity:1"
           id="path60855"
           inkscape:connector-curvature="0" /></g><g
         id="g60857"
         transform="matrix(1,0,0,-1,0,178.19827)"><path
           d="M 201.625,5.039 V 173.77"
           style="fill:none;stroke:#000000;stroke-width:0.47999999;stroke-linecap:butt;stroke-linejoin:miter;stroke-miterlimit:10;stroke-dasharray:none;stroke-opacity:1"
           id="path60859"
           inkscape:connector-curvature="0" /></g><g
         id="g60861"
         transform="matrix(1,0,0,-1,0,178.19827)"><path
           d="M 167.902,5.039 V 173.77"
           style="fill:none;stroke:#000000;stroke-width:0.47999999;stroke-linecap:butt;stroke-linejoin:miter;stroke-miterlimit:10;stroke-dasharray:none;stroke-opacity:1"
           id="path60863"
           inkscape:connector-curvature="0" /></g><g
         id="g60865"
         transform="matrix(1,0,0,-1,0,178.19827)"><path
           d="M 134.184,5.039 V 173.77"
           style="fill:none;stroke:#000000;stroke-width:0.47999999;stroke-linecap:butt;stroke-linejoin:miter;stroke-miterlimit:10;stroke-dasharray:none;stroke-opacity:1"
           id="path60867"
           inkscape:connector-curvature="0" /></g><g
         id="g60869"
         transform="matrix(1,0,0,-1,0,178.19827)"><path
           d="M 100.465,5.039 V 173.77"
           style="fill:none;stroke:#000000;stroke-width:0.47999999;stroke-linecap:butt;stroke-linejoin:miter;stroke-miterlimit:10;stroke-dasharray:none;stroke-opacity:1"
           id="path60871"
           inkscape:connector-curvature="0" /></g><g
         id="g60873"
         transform="matrix(1,0,0,-1,0,178.19827)"><path
           d="M 66.742,5.039 V 173.77"
           style="fill:none;stroke:#000000;stroke-width:0.47999999;stroke-linecap:butt;stroke-linejoin:miter;stroke-miterlimit:10;stroke-dasharray:none;stroke-opacity:1"
           id="path60875"
           inkscape:connector-curvature="0" /></g><g
         id="g60877"
         transform="matrix(1,0,0,-1,0,178.19827)"><path
           d="M 32.902,5.039 V 173.77"
           style="fill:none;stroke:#000000;stroke-width:0.47999999;stroke-linecap:butt;stroke-linejoin:miter;stroke-miterlimit:10;stroke-dasharray:none;stroke-opacity:1"
           id="path60879"
           inkscape:connector-curvature="0" /></g><g
         id="g60881"
         transform="matrix(1,0,0,-1,0,178.19827)"><path
           d="M 269.305,5.039 V 173.77"
           style="fill:none;stroke:#000000;stroke-width:0.47999999;stroke-linecap:butt;stroke-linejoin:miter;stroke-miterlimit:10;stroke-dasharray:none;stroke-opacity:1"
           id="path60883"
           inkscape:connector-curvature="0" /></g><g
         id="g60885"
         transform="matrix(1,0,0,-1,0,178.19827)"><path
           d="M 235.582,5.039 V 173.77"
           style="fill:none;stroke:#000000;stroke-width:0.47999999;stroke-linecap:butt;stroke-linejoin:miter;stroke-miterlimit:10;stroke-dasharray:none;stroke-opacity:1"
           id="path60887"
           inkscape:connector-curvature="0" /></g><g
         id="g60889"
         transform="matrix(1,0,0,-1,0,178.19827)"><path
           d="m 62.422,38.82 c 0,-2.152 1.723,-3.902 3.84,-3.902 2.121,0 3.84,1.75 3.84,3.902 0,2.149 -1.719,3.899 -3.84,3.899 -2.117,0 -3.84,-1.75 -3.84,-3.899 z"
           style="fill:#00ae4f;fill-opacity:1;fill-rule:evenodd;stroke:#00ae4f;stroke-width:0.95999998;stroke-linecap:butt;stroke-linejoin:miter;stroke-miterlimit:10;stroke-dasharray:none;stroke-opacity:1"
           id="path60891"
           inkscape:connector-curvature="0" /></g><g
         id="g60893"
         transform="matrix(1,0,0,-1,0,178.19827)"><path
           d="m 231.625,140.52 c 0,-2.122 1.719,-3.84 3.84,-3.84 2.117,0 3.84,1.718 3.84,3.84 0,2.121 -1.723,3.839 -3.84,3.839 -2.121,0 -3.84,-1.718 -3.84,-3.839 z"
           style="fill:#ff0000;fill-opacity:1;fill-rule:evenodd;stroke:#ff0000;stroke-width:0.95999998;stroke-linecap:butt;stroke-linejoin:miter;stroke-miterlimit:10;stroke-dasharray:none;stroke-opacity:1"
           id="path60895"
           inkscape:connector-curvature="0" /></g><g
         id="g60897"
         transform="matrix(1,0,0,-1,0,178.19827)"><path
           d="m 25.582,140.039 c -3.379,0 -6.117,-1.199 -6.117,-2.68 v -11.5 c 0,-1.48 -2.742,-2.679 -6.121,-2.679 3.379,0 6.121,-1.2 6.121,-2.68 V 109 c 0,-1.48 2.738,-2.68 6.117,-2.68"
           style="fill:none;stroke:#000000;stroke-width:0.47999999;stroke-linecap:butt;stroke-linejoin:miter;stroke-miterlimit:10;stroke-dasharray:none;stroke-opacity:1"
           id="path60899"
           inkscape:connector-curvature="0" /></g><path
         d="M 4.922,61.03 2.453,52.499 c 1.063,1.602 1.891,2.664 2.485,3.188 0.601,0.531 1.175,0.796 1.718,0.796 0.282,0 0.516,-0.101 0.703,-0.296 0.188,-0.188 0.282,-0.446 0.282,-0.766 0,-0.387 -0.078,-0.856 -0.235,-1.406 L 6.328,50.327 C 6.191,49.89 6.125,49.644 6.125,49.593 c 0,-0.086 0.023,-0.153 0.078,-0.203 0.051,-0.055 0.11,-0.078 0.172,-0.078 0.07,0 0.16,0.035 0.266,0.109 0.332,0.258 0.66,0.617 0.984,1.078 L 7.906,50.327 C 7.707,50.022 7.43,49.687 7.078,49.312 6.723,48.937 6.414,48.675 6.156,48.53 5.906,48.386 5.68,48.312 5.484,48.312 c -0.218,0 -0.402,0.074 -0.546,0.218 -0.137,0.133 -0.204,0.313 -0.204,0.532 0,0.257 0.102,0.738 0.313,1.437 l 1.016,3.516 c 0.125,0.437 0.187,0.781 0.187,1.031 0,0.125 -0.039,0.219 -0.109,0.281 -0.075,0.07 -0.168,0.11 -0.282,0.11 -0.179,0 -0.371,-0.063 -0.578,-0.188 C 4.875,54.999 4.41,54.538 3.891,53.874 3.754,53.694 3.285,52.96 2.484,51.671 2.242,51.265 2.039,50.815 1.875,50.327 L 1.313,48.53 H 0 l 2.891,10.063 0.312,1.078 c 0,0.156 -0.062,0.289 -0.187,0.406 -0.125,0.113 -0.282,0.172 -0.469,0.172 -0.106,0 -0.266,-0.016 -0.484,-0.047 L 1.875,60.171 v 0.344 z"
         style="fill:#000000;fill-opacity:1;fill-rule:nonzero;stroke:none"
         id="path60901"
         inkscape:connector-curvature="0" /><g
         id="g60903"
         transform="matrix(1,0,0,-1,0,178.19827)"><path
           d="M 32.965,5.098 H 269.363 V 173.821 H 32.965 Z"
           style="fill:none;stroke:#000000;stroke-width:2.27999997;stroke-linecap:butt;stroke-linejoin:miter;stroke-miterlimit:10;stroke-dasharray:none;stroke-opacity:1"
           id="path60905"
           inkscape:connector-curvature="0" /></g><g
         id="g60907"
         transform="matrix(1,0,0,-1,0,178.19827)"><path
           d="m 62.422,72.117 c 0,-2.117 1.723,-3.84 3.84,-3.84 2.121,0 3.84,1.723 3.84,3.84 0,2.121 -1.719,3.84 -3.84,3.84 -2.117,0 -3.84,-1.719 -3.84,-3.84 z"
           style="fill:#ffbf00;fill-opacity:1;fill-rule:evenodd;stroke:#ffbf00;stroke-width:0.95999998;stroke-linecap:butt;stroke-linejoin:miter;stroke-miterlimit:10;stroke-dasharray:none;stroke-opacity:1"
           id="path60909"
           inkscape:connector-curvature="0" /></g><g
         id="g60911"
         transform="matrix(1,0,0,-1,0,178.19827)"><path
           d="m 29.305,72.117 c 0,-2.117 1.718,-3.84 3.84,-3.84 2.117,0 3.839,1.723 3.839,3.84 0,2.121 -1.722,3.84 -3.839,3.84 -2.122,0 -3.84,-1.719 -3.84,-3.84 z"
           style="fill:#ffbf00;fill-opacity:1;fill-rule:evenodd;stroke:#ffbf00;stroke-width:0.95999998;stroke-linecap:butt;stroke-linejoin:miter;stroke-miterlimit:10;stroke-dasharray:none;stroke-opacity:1"
           id="path60913"
           inkscape:connector-curvature="0" /></g><g
         id="g60915"
         transform="matrix(1,0,0,-1,0,178.19827)"><path
           d="m 62.664,105.84 c 0,-2.121 1.75,-3.84 3.899,-3.84 2.152,0 3.902,1.719 3.902,3.84 0,2.117 -1.75,3.84 -3.902,3.84 -2.149,0 -3.899,-1.723 -3.899,-3.84 z"
           style="fill:#ffbf00;fill-opacity:1;fill-rule:evenodd;stroke:#ffbf00;stroke-width:0.95999998;stroke-linecap:butt;stroke-linejoin:miter;stroke-miterlimit:10;stroke-dasharray:none;stroke-opacity:1"
           id="path60917"
           inkscape:connector-curvature="0" /></g><g
         id="g60919"
         transform="matrix(1,0,0,-1,0,178.19827)"><path
           d="m 29.063,105.84 c 0,-2.121 1.746,-3.84 3.902,-3.84 2.148,0 3.898,1.719 3.898,3.84 0,2.117 -1.75,3.84 -3.898,3.84 -2.156,0 -3.902,-1.723 -3.902,-3.84 z"
           style="fill:#ffbf00;fill-opacity:1;fill-rule:evenodd;stroke:#ffbf00;stroke-width:0.95999998;stroke-linecap:butt;stroke-linejoin:miter;stroke-miterlimit:10;stroke-dasharray:none;stroke-opacity:1"
           id="path60921"
           inkscape:connector-curvature="0" /></g><g
         id="g60923"
         transform="matrix(1,0,0,-1,0,178.19827)"><path
           d="m 29.305,140.039 c 0,-2.121 1.718,-3.84 3.84,-3.84 2.117,0 3.839,1.719 3.839,3.84 0,2.121 -1.722,3.84 -3.839,3.84 -2.122,0 -3.84,-1.719 -3.84,-3.84 z"
           style="fill:#ffbf00;fill-opacity:1;fill-rule:evenodd;stroke:#ffbf00;stroke-width:0.95999998;stroke-linecap:butt;stroke-linejoin:miter;stroke-miterlimit:10;stroke-dasharray:none;stroke-opacity:1"
           id="path60925"
           inkscape:connector-curvature="0" /></g><g
         id="g60927"
         transform="matrix(1,0,0,-1,0,178.19827)"><path
           d="m 95.785,72.598 c 0,-2.118 1.75,-3.84 3.899,-3.84 2.148,0 3.898,1.722 3.898,3.84 0,2.121 -1.75,3.84 -3.898,3.84 -2.149,0 -3.899,-1.719 -3.899,-3.84 z"
           style="fill:#ffbf00;fill-opacity:1;fill-rule:evenodd;stroke:#ffbf00;stroke-width:0.95999998;stroke-linecap:butt;stroke-linejoin:miter;stroke-miterlimit:10;stroke-dasharray:none;stroke-opacity:1"
           id="path60929"
           inkscape:connector-curvature="0" /></g><g
         id="g60931"
         transform="matrix(1,0,0,-1,0,178.19827)"><path
           d="m 62.184,139.32 c 0,-2.121 1.718,-3.84 3.839,-3.84 2.122,0 3.84,1.719 3.84,3.84 0,2.118 -1.718,3.84 -3.84,3.84 -2.121,0 -3.839,-1.722 -3.839,-3.84 z"
           style="fill:#ffbf00;fill-opacity:1;fill-rule:evenodd;stroke:#ffbf00;stroke-width:0.95999998;stroke-linecap:butt;stroke-linejoin:miter;stroke-miterlimit:10;stroke-dasharray:none;stroke-opacity:1"
           id="path60933"
           inkscape:connector-curvature="0" /></g><g
         id="g60935"
         transform="matrix(1,0,0,-1,0,178.19827)"><path
           d="m 96.504,105.84 c 0,-2.121 1.719,-3.84 3.84,-3.84 2.121,0 3.84,1.719 3.84,3.84 0,2.117 -1.719,3.84 -3.84,3.84 -2.121,0 -3.84,-1.723 -3.84,-3.84 z"
           style="fill:#ffbf00;fill-opacity:1;fill-rule:evenodd;stroke:#ffbf00;stroke-width:0.95999998;stroke-linecap:butt;stroke-linejoin:miter;stroke-miterlimit:10;stroke-dasharray:none;stroke-opacity:1"
           id="path60937"
           inkscape:connector-curvature="0" /></g><g
         id="g60939"
         transform="matrix(1,0,0,-1,0,178.19827)"><path
           d="m 62.664,173.82 c 0,-2.152 1.75,-3.902 3.899,-3.902 2.152,0 3.902,1.75 3.902,3.902 0,2.149 -1.75,3.899 -3.902,3.899 -2.149,0 -3.899,-1.75 -3.899,-3.899 z"
           style="fill:#ffbf00;fill-opacity:1;fill-rule:evenodd;stroke:#ffbf00;stroke-width:0.95999998;stroke-linecap:butt;stroke-linejoin:miter;stroke-miterlimit:10;stroke-dasharray:none;stroke-opacity:1"
           id="path60941"
           inkscape:connector-curvature="0" /></g><g
         id="g60943"
         transform="matrix(1,0,0,-1,0,178.19827)"><path
           d="m 29.063,173.82 c 0,-2.152 1.746,-3.902 3.902,-3.902 2.148,0 3.898,1.75 3.898,3.902 0,2.149 -1.75,3.899 -3.898,3.899 -2.156,0 -3.902,-1.75 -3.902,-3.899 z"
           style="fill:#ffbf00;fill-opacity:1;fill-rule:evenodd;stroke:#ffbf00;stroke-width:0.95999998;stroke-linecap:butt;stroke-linejoin:miter;stroke-miterlimit:10;stroke-dasharray:none;stroke-opacity:1"
           id="path60945"
           inkscape:connector-curvature="0" /></g><g
         id="g60947"
         transform="matrix(1,0,0,-1,0,178.19827)"><path
           d="m 96.504,173.82 c 0,-2.152 1.719,-3.902 3.84,-3.902 2.121,0 3.84,1.75 3.84,3.902 0,2.149 -1.719,3.899 -3.84,3.899 -2.121,0 -3.84,-1.75 -3.84,-3.899 z"
           style="fill:#ffbf00;fill-opacity:1;fill-rule:evenodd;stroke:#ffbf00;stroke-width:0.95999998;stroke-linecap:butt;stroke-linejoin:miter;stroke-miterlimit:10;stroke-dasharray:none;stroke-opacity:1"
           id="path60949"
           inkscape:connector-curvature="0" /></g><g
         id="g60951"
         transform="matrix(1,0,0,-1,0,178.19827)"><path
           d="m 62.664,4.32 c 0,-2.121 1.75,-3.84 3.899,-3.84 2.152,0 3.902,1.719 3.902,3.84 0,2.118 -1.75,3.84 -3.902,3.84 -2.149,0 -3.899,-1.722 -3.899,-3.84 z"
           style="fill:#ffbf00;fill-opacity:1;fill-rule:evenodd;stroke:#ffbf00;stroke-width:0.95999998;stroke-linecap:butt;stroke-linejoin:miter;stroke-miterlimit:10;stroke-dasharray:none;stroke-opacity:1"
           id="path60953"
           inkscape:connector-curvature="0" /></g><g
         id="g60955"
         transform="matrix(1,0,0,-1,0,178.19827)"><path
           d="m 29.063,4.32 c 0,-2.121 1.746,-3.84 3.902,-3.84 2.148,0 3.898,1.719 3.898,3.84 0,2.118 -1.75,3.84 -3.898,3.84 -2.156,0 -3.902,-1.722 -3.902,-3.84 z"
           style="fill:#ffbf00;fill-opacity:1;fill-rule:evenodd;stroke:#ffbf00;stroke-width:0.95999998;stroke-linecap:butt;stroke-linejoin:miter;stroke-miterlimit:10;stroke-dasharray:none;stroke-opacity:1"
           id="path60957"
           inkscape:connector-curvature="0" /></g><g
         id="g60959"
         transform="matrix(1,0,0,-1,0,178.19827)"><path
           d="m 96.504,4.32 c 0,-2.121 1.719,-3.84 3.84,-3.84 2.121,0 3.84,1.719 3.84,3.84 0,2.118 -1.719,3.84 -3.84,3.84 -2.121,0 -3.84,-1.722 -3.84,-3.84 z"
           style="fill:#ffbf00;fill-opacity:1;fill-rule:evenodd;stroke:#ffbf00;stroke-width:0.95999998;stroke-linecap:butt;stroke-linejoin:miter;stroke-miterlimit:10;stroke-dasharray:none;stroke-opacity:1"
           id="path60961"
           inkscape:connector-curvature="0" /></g><g
         id="g60963"
         transform="matrix(1,0,0,-1,0,178.19827)"><path
           d="m 96.383,139.32 c 0,-2.121 1.719,-3.84 3.84,-3.84 2.121,0 3.84,1.719 3.84,3.84 0,2.118 -1.719,3.84 -3.84,3.84 -2.121,0 -3.84,-1.722 -3.84,-3.84 z"
           style="fill:#ffbf00;fill-opacity:1;fill-rule:evenodd;stroke:#ffbf00;stroke-width:0.95999998;stroke-linecap:butt;stroke-linejoin:miter;stroke-miterlimit:10;stroke-dasharray:none;stroke-opacity:1"
           id="path60965"
           inkscape:connector-curvature="0" /></g><g
         id="g60967"
         transform="matrix(1,0,0,-1,0,178.19827)"><path
           d="m 130.582,105.84 c 0,-2.121 1.75,-3.84 3.902,-3.84 2.149,0 3.899,1.719 3.899,3.84 0,2.117 -1.75,3.84 -3.899,3.84 -2.152,0 -3.902,-1.723 -3.902,-3.84 z"
           style="fill:#ffbf00;fill-opacity:1;fill-rule:evenodd;stroke:#ffbf00;stroke-width:0.95999998;stroke-linecap:butt;stroke-linejoin:miter;stroke-miterlimit:10;stroke-dasharray:none;stroke-opacity:1"
           id="path60969"
           inkscape:connector-curvature="0" /></g><g
         id="g60971"
         transform="matrix(1,0,0,-1,0,178.19827)"><path
           d="m 130.582,173.52 c 0,-2.122 1.75,-3.84 3.902,-3.84 2.149,0 3.899,1.718 3.899,3.84 0,2.121 -1.75,3.839 -3.899,3.839 -2.152,0 -3.902,-1.718 -3.902,-3.839 z"
           style="fill:#ffbf00;fill-opacity:1;fill-rule:evenodd;stroke:#ffbf00;stroke-width:0.95999998;stroke-linecap:butt;stroke-linejoin:miter;stroke-miterlimit:10;stroke-dasharray:none;stroke-opacity:1"
           id="path60973"
           inkscape:connector-curvature="0" /></g><g
         id="g60975"
         transform="matrix(1,0,0,-1,0,178.19827)"><path
           d="m 96.383,38.219 c 0,-2.149 1.719,-3.899 3.84,-3.899 2.121,0 3.84,1.75 3.84,3.899 0,2.148 -1.719,3.898 -3.84,3.898 -2.121,0 -3.84,-1.75 -3.84,-3.898 z"
           style="fill:#ffbf00;fill-opacity:1;fill-rule:evenodd;stroke:#ffbf00;stroke-width:0.95999998;stroke-linecap:butt;stroke-linejoin:miter;stroke-miterlimit:10;stroke-dasharray:none;stroke-opacity:1"
           id="path60977"
           inkscape:connector-curvature="0" /></g><g
         id="g60979"
         transform="matrix(1,0,0,-1,0,178.19827)"><path
           d="m 28.824,38.219 c 0,-2.149 1.719,-3.899 3.84,-3.899 2.121,0 3.84,1.75 3.84,3.899 0,2.148 -1.719,3.898 -3.84,3.898 -2.121,0 -3.84,-1.75 -3.84,-3.898 z"
           style="fill:#ffbf00;fill-opacity:1;fill-rule:evenodd;stroke:#ffbf00;stroke-width:0.95999998;stroke-linecap:butt;stroke-linejoin:miter;stroke-miterlimit:10;stroke-dasharray:none;stroke-opacity:1"
           id="path60981"
           inkscape:connector-curvature="0" /></g><g
         id="g60983"
         transform="matrix(1,0,0,-1,0,178.19827)"><path
           d="m 466.902,173.039 c 1.09,-14.199 -18.308,-18.859 -26.918,-26.5 -8.609,-7.629 -16.132,-17.301 -24.742,-19.332 -8.609,-2.027 -24.609,1.191 -26.918,7.16 -2.301,5.973 7.52,22.082 13.098,28.653 5.582,6.558 11.641,6.32 20.371,10.738 11.641,-0.598 40.551,-0.981 45.109,-0.719 z"
           style="fill:#7d7d7d;fill-opacity:1;fill-rule:evenodd;stroke:#000000;stroke-width:0.95999998;stroke-linecap:butt;stroke-linejoin:miter;stroke-miterlimit:10;stroke-dasharray:none;stroke-opacity:1"
           id="path60985"
           inkscape:connector-curvature="0" /></g><g
         id="g60987"
         transform="matrix(1,0,0,-1,0,178.19827)"><path
           d="m 391.941,4.32 c 2.911,11.399 -3.988,31.43 2.192,42.27 6.18,10.848 26.66,14.828 34.902,22.808 8.238,7.969 3.028,21.602 14.539,25.032 11.508,3.429 48.348,3.8 54.528,-4.45 6.183,-8.25 -12.477,-30.871 -17.45,-45.062 C 475.684,30.738 484.773,7.84 468.293,4.879 467.805,5.25 392.672,4.598 391.941,4.32 Z"
           style="fill:#7d7d7d;fill-opacity:1;fill-rule:evenodd;stroke:#000000;stroke-width:0.95999998;stroke-linecap:butt;stroke-linejoin:miter;stroke-miterlimit:10;stroke-dasharray:none;stroke-opacity:1"
           id="path60989"
           inkscape:connector-curvature="0" /></g><g
         id="g60991"
         transform="matrix(1,0,0,-1,0,178.19827)"><path
           d="m 322.465,38.82 c 0,-2.152 1.75,-3.902 3.898,-3.902 2.149,0 3.899,1.75 3.899,3.902 0,2.149 -1.75,3.899 -3.899,3.899 -2.148,0 -3.898,-1.75 -3.898,-3.899 z"
           style="fill:#00ae4f;fill-opacity:1;fill-rule:evenodd;stroke:#00ae4f;stroke-width:0.95999998;stroke-linecap:butt;stroke-linejoin:miter;stroke-miterlimit:10;stroke-dasharray:none;stroke-opacity:1"
           id="path60993"
           inkscape:connector-curvature="0" /></g><g
         id="g60995"
         transform="matrix(1,0,0,-1,0,178.19827)"><path
           d="m 491.664,140.52 c 0,-2.122 1.719,-3.84 3.84,-3.84 2.121,0 3.84,1.718 3.84,3.84 0,2.121 -1.719,3.839 -3.84,3.839 -2.121,0 -3.84,-1.718 -3.84,-3.839 z"
           style="fill:#ff0000;fill-opacity:1;fill-rule:evenodd;stroke:#ff0000;stroke-width:0.95999998;stroke-linecap:butt;stroke-linejoin:miter;stroke-miterlimit:10;stroke-dasharray:none;stroke-opacity:1"
           id="path60997"
           inkscape:connector-curvature="0" /></g><g
         id="g60999"
         transform="matrix(1,0,0,-1,0,178.19827)"><path
           d="M 293.125,5.098 H 529.523 V 173.821 H 293.125 Z"
           style="fill:none;stroke:#000000;stroke-width:2.27999997;stroke-linecap:butt;stroke-linejoin:miter;stroke-miterlimit:10;stroke-dasharray:none;stroke-opacity:1"
           id="path61001"
           inkscape:connector-curvature="0" /></g><g
         id="g61003"
         transform="matrix(1,0,0,-1,0,178.19827)"><path
           d="m 373.594,81.84 c 5.629,-6.192 10.16,-9.84 9.941,-17.91 -0.222,-8.071 -5.41,-28.192 -11.262,-30.512 -5.859,-2.32 -20.109,5.301 -23.859,16.582 -3.762,11.277 -2.652,45.879 1.32,51.078 3.981,5.199 18.231,-13.051 23.86,-19.238 z"
           style="fill:#7d7d7d;fill-opacity:1;fill-rule:evenodd;stroke:#000000;stroke-width:0.95999998;stroke-linecap:butt;stroke-linejoin:miter;stroke-miterlimit:10;stroke-dasharray:none;stroke-opacity:1"
           id="path61005"
           inkscape:connector-curvature="0" /></g><g
         id="g61007"
         transform="matrix(1,0,0,-1,0,178.19827)"><path
           d="m 324.715,42.18 c -3.453,23.027 -6.91,46.058 -3.641,61.09 3.278,15.031 14.149,27.57 23.27,29.089 9.121,1.52 20.07,-11.07 31.449,-19.949 11.832,-9.242 26.602,-9.551 37.621,-8.691 11.027,0.871 16.231,8.609 28.527,13.879 l 50.743,20.582"
           style="fill:none;stroke:#3f709c;stroke-width:2.27999997;stroke-linecap:butt;stroke-linejoin:miter;stroke-miterlimit:10;stroke-dasharray:none;stroke-opacity:1"
           id="path61009"
           inkscape:connector-curvature="0" /></g><g
         id="g61011"
         transform="matrix(1,0,0,-1,0,178.19827)"><path
           d="m 410.184,110.938 c 0,-11.5 9.031,-20.821 20.16,-20.821 11.129,0 20.16,9.321 20.16,20.821 0,11.5 -9.031,20.82 -20.16,20.82 -11.129,0 -20.16,-9.32 -20.16,-20.82 z"
           style="fill:none;stroke:#000000;stroke-width:0.95999998;stroke-linecap:butt;stroke-linejoin:miter;stroke-miterlimit:10;stroke-dasharray:2.88, 0.96;stroke-dashoffset:0;stroke-opacity:1"
           id="path61013"
           inkscape:connector-curvature="0" /></g><g
         id="g61015"
         transform="matrix(1,0,0,-1,0,178.19827)"><path
           d="m 428.184,111 c 0,-1.191 0.968,-2.16 2.16,-2.16 1.191,0 2.16,0.969 2.16,2.16 0,1.188 -0.969,2.16 -2.16,2.16 -1.192,0 -2.16,-0.972 -2.16,-2.16 z"
           style="fill:#000000;fill-opacity:1;fill-rule:evenodd;stroke:#000000;stroke-width:0.95999998;stroke-linecap:butt;stroke-linejoin:miter;stroke-miterlimit:10;stroke-dasharray:none;stroke-opacity:1"
           id="path61017"
           inkscape:connector-curvature="0" /></g><g
         id="g61019"
         transform="matrix(1,0,0,-1,0,178.19827)"><path
           d="M 430.344,108.73 V 90.117"
           style="fill:none;stroke:#000000;stroke-width:0.47999999;stroke-linecap:butt;stroke-linejoin:miter;stroke-miterlimit:10;stroke-dasharray:none;stroke-opacity:1"
           id="path61021"
           inkscape:connector-curvature="0" /></g><path
         d="m 439.863,80.499 -2.015,-6.906 c -0.118,-0.375 -0.172,-0.621 -0.172,-0.735 0,-0.043 0.015,-0.086 0.047,-0.125 0.031,-0.031 0.066,-0.046 0.109,-0.046 0.051,0 0.109,0.023 0.172,0.078 0.133,0.093 0.359,0.328 0.672,0.703 l 0.203,-0.125 c -0.281,-0.387 -0.57,-0.703 -0.859,-0.953 -0.282,-0.239 -0.547,-0.36 -0.797,-0.36 -0.137,0 -0.246,0.047 -0.328,0.141 -0.086,0.094 -0.125,0.226 -0.125,0.406 0,0.219 0.054,0.516 0.171,0.891 l 0.219,0.719 c -0.562,-0.875 -1.078,-1.481 -1.547,-1.813 -0.312,-0.227 -0.617,-0.344 -0.906,-0.344 -0.305,0 -0.562,0.133 -0.781,0.391 -0.219,0.269 -0.328,0.629 -0.328,1.078 0,0.582 0.179,1.203 0.547,1.859 0.375,0.664 0.863,1.207 1.468,1.625 0.489,0.321 0.93,0.485 1.328,0.485 0.207,0 0.391,-0.043 0.547,-0.125 0.157,-0.086 0.305,-0.227 0.453,-0.422 l 0.579,2.031 c 0.039,0.145 0.07,0.258 0.093,0.344 0.051,0.156 0.078,0.285 0.078,0.391 0,0.082 -0.031,0.148 -0.093,0.203 -0.086,0.07 -0.188,0.109 -0.313,0.109 -0.094,0 -0.242,-0.016 -0.437,-0.047 v 0.219 z m -2.187,-4.156 c 0,0.25 -0.074,0.445 -0.219,0.594 -0.137,0.156 -0.32,0.234 -0.547,0.234 -0.492,0 -1,-0.406 -1.531,-1.219 -0.531,-0.812 -0.797,-1.59 -0.797,-2.328 0,-0.293 0.063,-0.516 0.188,-0.672 0.125,-0.156 0.281,-0.234 0.468,-0.234 0.407,0 0.91,0.437 1.516,1.312 0.613,0.883 0.922,1.657 0.922,2.313 z"
         style="fill:#000000;fill-opacity:1;fill-rule:nonzero;stroke:none"
         id="path61023"
         inkscape:connector-curvature="0" /><g
         id="g61025"
         transform="matrix(1,0,0,-1,0,178.19827)"><path
           d="m 305.863,35.199 c 1.989,-11.32 12.789,-18.879 24.121,-16.879 11.141,1.957 18.668,12.469 16.957,23.649"
           style="fill:none;stroke:#7d7d7d;stroke-width:0.72000003;stroke-linecap:butt;stroke-linejoin:miter;stroke-miterlimit:10;stroke-dasharray:none;stroke-opacity:1"
           id="path61027"
           inkscape:connector-curvature="0" /></g><g
         id="g61029"
         transform="matrix(1,0,0,-1,0,178.19827)"><path
           d="m 503.004,120.68 c 10.687,4.148 16,16.168 11.859,26.859 -4.148,10.691 -16.172,16 -26.859,11.859 -0.379,-0.148 -0.75,-0.308 -1.121,-0.48"
           style="fill:none;stroke:#7d7d7d;stroke-width:0.72000003;stroke-linecap:butt;stroke-linejoin:miter;stroke-miterlimit:10;stroke-dasharray:none;stroke-opacity:1"
           id="path61031"
           inkscape:connector-curvature="0" /></g><g
         id="g61033"
         transform="matrix(1,0,0,-1,0,178.19827)"><path
           d="m 346.973,41.16 c -3.45,23.039 -5.231,31.59 -5.86,41.36 -0.64,9.757 0.66,13.847 2.051,17.218 1.379,3.36 2.641,9.172 5.93,8.692 3.289,-0.473 8.789,-8.18 13.82,-11.563 5.027,-3.379 10.629,-6.488 16.359,-8.719 5.739,-2.23 11.25,-3.968 18.059,-4.668 6.801,-0.703 13.742,-2 22.77,0.438 9.031,2.449 19.031,8.852 31.402,14.223 l 52.16,23.058"
           style="fill:none;stroke:#7d7d7d;stroke-width:0.72000003;stroke-linecap:butt;stroke-linejoin:miter;stroke-miterlimit:10;stroke-dasharray:none;stroke-opacity:1"
           id="path61035"
           inkscape:connector-curvature="0" /></g><g
         id="g61037"
         transform="matrix(1,0,0,-1,0,178.19827)"><path
           d="m 305.992,34.918 c -3.449,23.051 -7.07,60.672 -1.597,80.09 5.457,19.422 21.519,33.062 34.41,36.449 12.879,3.383 32.57,-9.066 42.898,-16.148 8.961,-6.141 11,-7.891 17.16,-9.121 7.871,-1.809 12.95,-3.481 25.602,5.261 14.187,9.821 32.887,15.469 62.637,27.551"
           style="fill:none;stroke:#7d7d7d;stroke-width:0.72000003;stroke-linecap:butt;stroke-linejoin:miter;stroke-miterlimit:10;stroke-dasharray:none;stroke-opacity:1"
           id="path61039"
           inkscape:connector-curvature="0" /></g><g
         id="g61041"
         transform="matrix(1,0,0,-1,0,178.19827)"><path
           d="M 552.805,5.098 H 789.082 V 173.821 H 552.805 Z"
           style="fill:none;stroke:#000000;stroke-width:2.27999997;stroke-linecap:butt;stroke-linejoin:miter;stroke-miterlimit:10;stroke-dasharray:none;stroke-opacity:1"
           id="path61043"
           inkscape:connector-curvature="0" /></g><g
         id="g61045"
         transform="matrix(1,0,0,-1,0,178.19827)"><path
           d="m 565.535,35.207 c 1.988,-11.316 12.75,-18.887 24.047,-16.898 11.109,1.968 18.633,12.468 16.922,23.648"
           style="fill:none;stroke:#7d7d7d;stroke-width:0.72000003;stroke-linecap:butt;stroke-linejoin:miter;stroke-miterlimit:10;stroke-dasharray:none;stroke-opacity:1"
           id="path61047"
           inkscape:connector-curvature="0" /></g><g
         id="g61049"
         transform="matrix(1,0,0,-1,0,178.19827)"><path
           d="m 762.625,120.68 c 10.727,4.129 16.066,16.148 11.918,26.84 -4.141,10.699 -16.199,16.019 -26.918,11.878 -0.383,-0.14 -0.762,-0.3 -1.133,-0.468"
           style="fill:none;stroke:#7d7d7d;stroke-width:0.72000003;stroke-linecap:butt;stroke-linejoin:miter;stroke-miterlimit:10;stroke-dasharray:none;stroke-opacity:1"
           id="path61051"
           inkscape:connector-curvature="0" /></g><g
         id="g61053"
         transform="matrix(1,0,0,-1,0,178.19827)"><path
           d="m 606.535,41.16 c -3.453,23.039 -5.23,31.59 -5.863,41.36 -0.637,9.757 0.66,13.847 2.051,17.218 1.379,3.36 2.64,9.172 5.929,8.692 3.289,-0.473 8.789,-8.18 13.821,-11.563 5.031,-3.379 10.629,-6.488 16.359,-8.719 5.742,-2.23 11.25,-3.968 18.063,-4.668 6.796,-0.703 13.738,-2 22.769,0.438 9.027,2.449 19.027,8.852 31.399,14.223 l 52.16,23.058"
           style="fill:none;stroke:#7d7d7d;stroke-width:0.72000003;stroke-linecap:butt;stroke-linejoin:miter;stroke-miterlimit:10;stroke-dasharray:none;stroke-opacity:1"
           id="path61055"
           inkscape:connector-curvature="0" /></g><g
         id="g61057"
         transform="matrix(1,0,0,-1,0,178.19827)"><path
           d="m 565.672,34.918 c -3.449,23.051 -7.07,60.672 -1.598,80.09 5.461,19.422 21.52,33.062 34.41,36.449 12.879,3.383 32.571,-9.066 42.899,-16.148 8.961,-6.141 11,-7.891 17.16,-9.121 7.871,-1.809 12.949,-3.481 25.602,5.261 14.187,9.821 32.89,15.469 62.64,27.551"
           style="fill:none;stroke:#7d7d7d;stroke-width:0.72000003;stroke-linecap:butt;stroke-linejoin:miter;stroke-miterlimit:10;stroke-dasharray:none;stroke-opacity:1"
           id="path61059"
           inkscape:connector-curvature="0" /></g><g
         id="g61061"
         transform="matrix(1,0,0,-1,0,178.19827)"><path
           d="m 585.563,38.34 v 85.488 h 169.839 v 16.871 h 0.563"
           style="fill:none;stroke:#3f709c;stroke-width:2.27999997;stroke-linecap:butt;stroke-linejoin:miter;stroke-miterlimit:10;stroke-dasharray:none;stroke-opacity:1"
           id="path61063"
           inkscape:connector-curvature="0" /></g><g
         id="g61065"
         transform="matrix(1,0,0,-1,0,178.19827)"><path
           d="m 582.145,38.82 c 0,-2.152 1.718,-3.902 3.839,-3.902 2.118,0 3.84,1.75 3.84,3.902 0,2.149 -1.722,3.899 -3.84,3.899 -2.121,0 -3.839,-1.75 -3.839,-3.899 z"
           style="fill:#00ae4f;fill-opacity:1;fill-rule:evenodd;stroke:#00ae4f;stroke-width:0.95999998;stroke-linecap:butt;stroke-linejoin:miter;stroke-miterlimit:10;stroke-dasharray:none;stroke-opacity:1"
           id="path61067"
           inkscape:connector-curvature="0" /></g><g
         id="g61069"
         transform="matrix(1,0,0,-1,0,178.19827)"><path
           d="m 751.344,140.52 c 0,-2.122 1.719,-3.84 3.84,-3.84 2.121,0 3.84,1.718 3.84,3.84 0,2.121 -1.719,3.839 -3.84,3.839 -2.121,0 -3.84,-1.718 -3.84,-3.839 z"
           style="fill:#ff0000;fill-opacity:1;fill-rule:evenodd;stroke:#ff0000;stroke-width:0.95999998;stroke-linecap:butt;stroke-linejoin:miter;stroke-miterlimit:10;stroke-dasharray:none;stroke-opacity:1"
           id="path61071"
           inkscape:connector-curvature="0" /></g></g></g></svg>