<?xml version="1.0" encoding="utf-8"?>
<!-- Generator: Adobe Illustrator 27.5.0, SVG Export Plug-In . SVG Version: 6.00 Build 0)  -->
<svg version="1.1" id="Layer_1" xmlns="http://www.w3.org/2000/svg" xmlns:xlink="http://www.w3.org/1999/xlink" x="0px" y="0px"
	 viewBox="0 0 428 113.1" style="enable-background:new 0 0 428 113.1;" xml:space="preserve">
<style type="text/css">
	.st0{fill:#7DCBF1;}
	.st1{fill:none;stroke:#000000;stroke-width:0.5;stroke-miterlimit:8;}
	.st2{fill:none;stroke:#000000;stroke-width:0.5;stroke-miterlimit:8;stroke-dasharray:0.9566,0.9566;}
	.st3{fill:none;stroke:#000000;stroke-width:0.5;stroke-miterlimit:8;stroke-dasharray:0.9871,0.9871;}
	.st4{fill:#3B54A5;stroke:#000000;stroke-width:0.5;stroke-miterlimit:8;}
	.st5{fill:#999B9E;stroke:#000000;stroke-width:0.5;stroke-miterlimit:8;}
	.st6{stroke:#000000;stroke-width:0.5;stroke-miterlimit:8;}
	.st7{fill:none;stroke:#EC8D22;stroke-width:2;stroke-miterlimit:8;}
	.st8{fill:#E41E26;stroke:#000000;stroke-width:0.5;stroke-miterlimit:8;}
	.st9{fill:#55B948;stroke:#000000;stroke-width:0.5;stroke-miterlimit:8;}
	.st10{fill:none;}
	.st11{font-family:'ArialMT';}
	.st12{font-size:8.1873px;}
	.st13{fill:#FFFFFF;}
</style>
<g>
	<rect x="297.1" y="52" class="st0" width="9.6" height="9.9"/>
	<g>
		<polyline class="st1" points="306.7,61.4 306.7,61.9 306.2,61.9 		"/>
		<line class="st2" x1="305.3" y1="61.9" x2="298.1" y2="61.9"/>
		<polyline class="st1" points="297.6,61.9 297.1,61.9 297.1,61.4 		"/>
		<line class="st3" x1="297.1" y1="60.4" x2="297.1" y2="53"/>
		<polyline class="st1" points="297.1,52.5 297.1,52 297.6,52 		"/>
		<line class="st2" x1="298.6" y1="52" x2="305.8" y2="52"/>
		<polyline class="st1" points="306.2,52 306.7,52 306.7,52.5 		"/>
		<line class="st3" x1="306.7" y1="53.5" x2="306.7" y2="60.9"/>
	</g>
</g>
<rect x="93.8" y="2.3" class="st1" width="110.9" height="108.5"/>
<rect x="139.1" y="52" class="st4" width="65.6" height="9.9"/>
<circle class="st5" cx="149.3" cy="9.6" r="1.7"/>
<circle class="st5" cx="112.2" cy="9.6" r="1.7"/>
<circle class="st5" cx="161.9" cy="23.8" r="1.7"/>
<circle class="st5" cx="183.5" cy="22" r="1.7"/>
<circle class="st5" cx="129.4" cy="23.8" r="1.7"/>
<circle class="st5" cx="95.5" cy="11.3" r="1.7"/>
<circle class="st5" cx="110.5" cy="26.6" r="1.7"/>
<circle class="st5" cx="134" cy="52" r="1.7"/>
<circle class="st5" cx="117.4" cy="55.4" r="1.7"/>
<circle class="st5" cx="104.3" cy="44.7" r="1.7"/>
<circle class="st5" cx="99" cy="53.1" r="1.7"/>
<circle class="st5" cx="117.4" cy="76.1" r="1.7"/>
<circle class="st5" cx="100.7" cy="82" r="1.7"/>
<circle class="st5" cx="108.8" cy="87" r="1.7"/>
<circle class="st5" cx="120.8" cy="103.5" r="1.7"/>
<circle class="st5" cx="106" cy="90.2" r="1.7"/>
<circle class="st5" cx="102.4" cy="103.5" r="1.7"/>
<circle class="st5" cx="145.8" cy="48.6" r="1.7"/>
<circle class="st5" cx="104.3" cy="25.5" r="1.7"/>
<circle class="st5" cx="147.6" cy="31.7" r="1.7"/>
<circle class="st5" cx="135.7" cy="11.3" r="1.7"/>
<circle class="st5" cx="132.9" cy="35" r="1.7"/>
<circle class="st5" cx="128.5" cy="41.3" r="1.7"/>
<circle class="st5" cx="176.5" cy="9.6" r="1.7"/>
<circle class="st5" cx="174.7" cy="43" r="1.7"/>
<circle class="st5" cx="197.1" cy="36.7" r="1.7"/>
<circle class="st5" cx="168.5" cy="71" r="1.7"/>
<circle class="st5" cx="195.3" cy="69.3" r="1.7"/>
<circle class="st5" cx="170.2" cy="94.5" r="1.7"/>
<circle class="st5" cx="185.2" cy="87" r="1.7"/>
<circle class="st5" cx="197.1" cy="100.1" r="1.7"/>
<circle class="st5" cx="160.2" cy="103.5" r="1.7"/>
<circle class="st5" cx="126.8" cy="92.7" r="1.7"/>
<circle class="st5" cx="134.6" cy="92.7" r="1.7"/>
<circle class="st5" cx="147.6" cy="90.2" r="1.7"/>
<circle class="st5" cx="142.4" cy="107" r="1.7"/>
<circle class="st5" cx="151" cy="80.3" r="1.7"/>
<circle class="st5" cx="137.4" cy="72.7" r="1.7"/>
<circle class="st6" cx="154.8" cy="56.6" r="1.7"/>
<circle class="st6" cx="170.2" cy="54.9" r="1.7"/>
<circle class="st6" cx="193.2" cy="58.3" r="1.7"/>
<circle class="st6" cx="198.8" cy="55.4" r="1.7"/>
<rect x="214.5" y="2.3" class="st1" width="110.9" height="108.5"/>
<rect x="259.8" y="52" class="st4" width="37.3" height="9.9"/>
<rect x="306.7" y="52" class="st4" width="18.7" height="9.9"/>
<circle class="st5" cx="269.9" cy="9.6" r="1.7"/>
<circle class="st5" cx="232.9" cy="9.6" r="1.7"/>
<circle class="st5" cx="282.6" cy="23.8" r="1.7"/>
<circle class="st5" cx="304.2" cy="22" r="1.7"/>
<circle class="st5" cx="250.1" cy="23.8" r="1.7"/>
<circle class="st5" cx="216.2" cy="11.3" r="1.7"/>
<circle class="st5" cx="231.2" cy="26.6" r="1.7"/>
<circle class="st5" cx="254.6" cy="52" r="1.7"/>
<circle class="st5" cx="238" cy="55.4" r="1.7"/>
<circle class="st5" cx="224.9" cy="44.7" r="1.7"/>
<circle class="st5" cx="219.6" cy="53.1" r="1.7"/>
<circle class="st5" cx="238" cy="76.1" r="1.7"/>
<circle class="st5" cx="221.3" cy="82" r="1.7"/>
<circle class="st5" cx="229.4" cy="87" r="1.7"/>
<circle class="st5" cx="241.5" cy="103.5" r="1.7"/>
<circle class="st5" cx="226.6" cy="90.2" r="1.7"/>
<circle class="st5" cx="223.1" cy="103.5" r="1.7"/>
<circle class="st5" cx="266.5" cy="48.6" r="1.7"/>
<circle class="st5" cx="224.9" cy="25.5" r="1.7"/>
<circle class="st5" cx="268.2" cy="31.7" r="1.7"/>
<circle class="st5" cx="256.4" cy="11.3" r="1.7"/>
<circle class="st5" cx="253.5" cy="35" r="1.7"/>
<circle class="st5" cx="249.1" cy="41.3" r="1.7"/>
<circle class="st5" cx="297.1" cy="9.6" r="1.7"/>
<circle class="st5" cx="295.4" cy="43" r="1.7"/>
<circle class="st5" cx="317.7" cy="36.7" r="1.7"/>
<circle class="st5" cx="289.2" cy="71" r="1.7"/>
<circle class="st5" cx="316" cy="69.3" r="1.7"/>
<circle class="st5" cx="290.9" cy="94.5" r="1.7"/>
<circle class="st5" cx="305.9" cy="87" r="1.7"/>
<circle class="st5" cx="317.7" cy="100.1" r="1.7"/>
<circle class="st5" cx="280.9" cy="103.5" r="1.7"/>
<circle class="st5" cx="247.4" cy="92.7" r="1.7"/>
<circle class="st5" cx="255.3" cy="92.7" r="1.7"/>
<circle class="st5" cx="268.2" cy="90.2" r="1.7"/>
<circle class="st5" cx="263.1" cy="107" r="1.7"/>
<circle class="st5" cx="271.7" cy="80.3" r="1.7"/>
<circle class="st5" cx="258.1" cy="72.7" r="1.7"/>
<circle class="st6" cx="275.4" cy="56.6" r="1.7"/>
<circle class="st6" cx="290.9" cy="54.9" r="1.7"/>
<circle class="st6" cx="313.9" cy="58.3" r="1.7"/>
<circle class="st6" cx="319.4" cy="55.4" r="1.7"/>
<polyline class="st7" points="198.8,92.7 137.4,72.7 134,52 198.8,18 "/>
<polyline class="st7" points="319.4,92.7 302.2,61.9 302,51.4 319,18 "/>
<circle class="st8" cx="198.8" cy="92.7" r="2.6"/>
<circle class="st9" cx="198.8" cy="18" r="2.6"/>
<rect x="296.9" y="64.1" class="st10" width="11.2" height="11"/>
<text transform="matrix(1 0 0 1 296.8877 69.8671)" class="st11 st12">2δ</text>
<rect x="286.6" y="53.7" class="st10" width="11.3" height="10.7"/>
<text transform="matrix(1 0 0 1 286.6148 59.4687)" class="st13 st11 st12">2δ</text>
<circle class="st8" cx="319.4" cy="92.7" r="2.6"/>
<circle class="st9" cx="319.4" cy="18" r="2.6"/>
</svg>
