<?xml version="1.0" encoding="UTF-8" standalone="no"?>
<!-- Created with Inkscape (http://www.inkscape.org/) -->

<svg
   xmlns:dc="http://purl.org/dc/elements/1.1/"
   xmlns:cc="http://creativecommons.org/ns#"
   xmlns:rdf="http://www.w3.org/1999/02/22-rdf-syntax-ns#"
   xmlns:svg="http://www.w3.org/2000/svg"
   xmlns="http://www.w3.org/2000/svg"
   xmlns:sodipodi="http://sodipodi.sourceforge.net/DTD/sodipodi-0.dtd"
   xmlns:inkscape="http://www.inkscape.org/namespaces/inkscape"
   version="1.1"
   id="svg75022"
   xml:space="preserve"
   width="1199.36"
   height="234.71999"
   viewBox="0 0 1199.36 234.71999"
   sodipodi:docname="visibilitygraph.svg"
   inkscape:version="0.92.3 (2405546, 2018-03-11)"><metadata
     id="metadata75028"><rdf:RDF><cc:Work
         rdf:about=""><dc:format>image/svg+xml</dc:format><dc:type
           rdf:resource="http://purl.org/dc/dcmitype/StillImage" /><dc:title></dc:title></cc:Work></rdf:RDF></metadata><defs
     id="defs75026" /><sodipodi:namedview
     pagecolor="#ffffff"
     bordercolor="#666666"
     borderopacity="1"
     objecttolerance="10"
     gridtolerance="10"
     guidetolerance="10"
     inkscape:pageopacity="0"
     inkscape:pageshadow="2"
     inkscape:window-width="909"
     inkscape:window-height="480"
     id="namedview75024"
     showgrid="false"
     inkscape:zoom="0.29765875"
     inkscape:cx="599.67999"
     inkscape:cy="117.35999"
     inkscape:window-x="0"
     inkscape:window-y="0"
     inkscape:window-maximized="0"
     inkscape:current-layer="g75030" /><g
     id="g75030"
     inkscape:groupmode="layer"
     inkscape:label="visibilitygraph"
     transform="matrix(1.3333333,0,0,-1.3333333,0,234.71999)"><g
       id="g75032"><path
         d="M 0.781,175.259 H 291.66 V 0.779 H 0.781 Z"
         style="fill:none;stroke:#000000;stroke-width:1.55999994;stroke-linecap:butt;stroke-linejoin:miter;stroke-miterlimit:10;stroke-dasharray:none;stroke-opacity:1"
         id="path75034"
         inkscape:connector-curvature="0" /><path
         d="M 44.461,131.661 73.5,102.54 58.98,87.981 V 58.86 h 43.559 v 72.801 L 55.352,146.22 Z"
         style="fill:#996600;fill-opacity:1;fill-rule:evenodd;stroke:#000000;stroke-width:1.55999994;stroke-linecap:butt;stroke-linejoin:round;stroke-miterlimit:10;stroke-dasharray:none;stroke-opacity:1"
         id="path75036"
         inkscape:connector-curvature="0" /><path
         d="M 175.262,58.88 V 44.341 h 72.84 v 87.238 H 233.531 V 58.88 Z"
         style="fill:#996600;fill-opacity:1;fill-rule:evenodd;stroke:#000000;stroke-width:1.55999994;stroke-linecap:butt;stroke-linejoin:round;stroke-miterlimit:10;stroke-dasharray:none;stroke-opacity:1"
         id="path75038"
         inkscape:connector-curvature="0" /><path
         d="m 54.719,58.802 c 0,1.988 1.64,3.597 3.66,3.597 2.019,0 3.66,-1.609 3.66,-3.597 0,-1.992 -1.641,-3.602 -3.66,-3.602 -2.02,0 -3.66,1.61 -3.66,3.602 z"
         style="fill:#e7e6e6;fill-opacity:1;fill-rule:evenodd;stroke:#000000;stroke-width:0.72000003;stroke-linecap:butt;stroke-linejoin:round;stroke-miterlimit:10;stroke-dasharray:none;stroke-opacity:1"
         id="path75040"
         inkscape:connector-curvature="0" /><path
         d="m 98.398,58.802 c 0,1.988 1.614,3.597 3.602,3.597 1.988,0 3.602,-1.609 3.602,-3.597 0,-1.992 -1.614,-3.602 -3.602,-3.602 -1.988,0 -3.602,1.61 -3.602,3.602 z"
         style="fill:#e7e6e6;fill-opacity:1;fill-rule:evenodd;stroke:#000000;stroke-width:0.72000003;stroke-linecap:butt;stroke-linejoin:round;stroke-miterlimit:10;stroke-dasharray:none;stroke-opacity:1"
         id="path75042"
         inkscape:connector-curvature="0" /><path
         d="m 171,44.278 c 0,1.992 1.609,3.602 3.602,3.602 1.988,0 3.597,-1.61 3.597,-3.602 0,-1.988 -1.609,-3.597 -3.597,-3.597 -1.993,0 -3.602,1.609 -3.602,3.597 z"
         style="fill:#e7e6e6;fill-opacity:1;fill-rule:evenodd;stroke:#000000;stroke-width:0.72000003;stroke-linecap:butt;stroke-linejoin:round;stroke-miterlimit:10;stroke-dasharray:none;stroke-opacity:1"
         id="path75044"
         inkscape:connector-curvature="0" /><path
         d="m 54.719,87.899 c 0,2.02 1.64,3.661 3.66,3.661 2.019,0 3.66,-1.641 3.66,-3.661 0,-2.019 -1.641,-3.66 -3.66,-3.66 -2.02,0 -3.66,1.641 -3.66,3.66 z"
         style="fill:#e7e6e6;fill-opacity:1;fill-rule:evenodd;stroke:#000000;stroke-width:0.72000003;stroke-linecap:butt;stroke-linejoin:round;stroke-miterlimit:10;stroke-dasharray:none;stroke-opacity:1"
         id="path75046"
         inkscape:connector-curvature="0" /><path
         d="m 40.199,131.462 c 0,2.019 1.641,3.656 3.66,3.656 2.024,0 3.661,-1.637 3.661,-3.656 0,-2.024 -1.637,-3.66 -3.661,-3.66 -2.019,0 -3.66,1.636 -3.66,3.66 z"
         style="fill:#e7e6e6;fill-opacity:1;fill-rule:evenodd;stroke:#000000;stroke-width:0.72000003;stroke-linecap:butt;stroke-linejoin:round;stroke-miterlimit:10;stroke-dasharray:none;stroke-opacity:1"
         id="path75048"
         inkscape:connector-curvature="0" /><path
         d="m 51.121,145.981 c 0,2.02 1.637,3.661 3.66,3.661 2.02,0 3.66,-1.641 3.66,-3.661 0,-2.019 -1.64,-3.66 -3.66,-3.66 -2.023,0 -3.66,1.641 -3.66,3.66 z"
         style="fill:#e7e6e6;fill-opacity:1;fill-rule:evenodd;stroke:#000000;stroke-width:0.72000003;stroke-linecap:butt;stroke-linejoin:round;stroke-miterlimit:10;stroke-dasharray:none;stroke-opacity:1"
         id="path75050"
         inkscape:connector-curvature="0" /><path
         d="m 98.398,131.462 c 0,2.019 1.614,3.656 3.602,3.656 1.988,0 3.602,-1.637 3.602,-3.656 0,-2.024 -1.614,-3.66 -3.602,-3.66 -1.988,0 -3.602,1.636 -3.602,3.66 z"
         style="fill:#e7e6e6;fill-opacity:1;fill-rule:evenodd;stroke:#000000;stroke-width:0.72000003;stroke-linecap:butt;stroke-linejoin:round;stroke-miterlimit:10;stroke-dasharray:none;stroke-opacity:1"
         id="path75052"
         inkscape:connector-curvature="0" /><path
         d="m 171,58.802 c 0,1.988 1.609,3.597 3.602,3.597 1.988,0 3.597,-1.609 3.597,-3.597 0,-1.992 -1.609,-3.602 -3.597,-3.602 -1.993,0 -3.602,1.61 -3.602,3.602 z"
         style="fill:#e7e6e6;fill-opacity:1;fill-rule:evenodd;stroke:#000000;stroke-width:0.72000003;stroke-linecap:butt;stroke-linejoin:round;stroke-miterlimit:10;stroke-dasharray:none;stroke-opacity:1"
         id="path75054"
         inkscape:connector-curvature="0" /><path
         d="m 229.078,58.802 c 0,1.988 1.641,3.597 3.66,3.597 2.024,0 3.66,-1.609 3.66,-3.597 0,-1.992 -1.636,-3.602 -3.66,-3.602 -2.019,0 -3.66,1.61 -3.66,3.602 z"
         style="fill:#e7e6e6;fill-opacity:1;fill-rule:evenodd;stroke:#000000;stroke-width:0.72000003;stroke-linecap:butt;stroke-linejoin:round;stroke-miterlimit:10;stroke-dasharray:none;stroke-opacity:1"
         id="path75056"
         inkscape:connector-curvature="0" /><path
         d="m 243.602,44.278 c 0,1.992 1.636,3.602 3.66,3.602 2.019,0 3.66,-1.61 3.66,-3.602 0,-1.988 -1.641,-3.597 -3.66,-3.597 -2.024,0 -3.66,1.609 -3.66,3.597 z"
         style="fill:#e7e6e6;fill-opacity:1;fill-rule:evenodd;stroke:#000000;stroke-width:0.72000003;stroke-linecap:butt;stroke-linejoin:round;stroke-miterlimit:10;stroke-dasharray:none;stroke-opacity:1"
         id="path75058"
         inkscape:connector-curvature="0" /><path
         d="m 243.602,131.462 c 0,2.019 1.636,3.656 3.66,3.656 2.019,0 3.66,-1.637 3.66,-3.656 0,-2.024 -1.641,-3.66 -3.66,-3.66 -2.024,0 -3.66,1.636 -3.66,3.66 z"
         style="fill:#e7e6e6;fill-opacity:1;fill-rule:evenodd;stroke:#000000;stroke-width:0.72000003;stroke-linecap:butt;stroke-linejoin:round;stroke-miterlimit:10;stroke-dasharray:none;stroke-opacity:1"
         id="path75060"
         inkscape:connector-curvature="0" /><path
         d="m 229.078,131.462 c 0,2.019 1.641,3.656 3.66,3.656 2.024,0 3.66,-1.637 3.66,-3.656 0,-2.024 -1.636,-3.66 -3.66,-3.66 -2.019,0 -3.66,1.636 -3.66,3.66 z"
         style="fill:#e7e6e6;fill-opacity:1;fill-rule:evenodd;stroke:#000000;stroke-width:0.72000003;stroke-linecap:butt;stroke-linejoin:round;stroke-miterlimit:10;stroke-dasharray:none;stroke-opacity:1"
         id="path75062"
         inkscape:connector-curvature="0" /><path
         d="m 69.238,102.419 c 0,2.019 1.641,3.66 3.66,3.66 2.024,0 3.661,-1.641 3.661,-3.66 0,-2.02 -1.637,-3.66 -3.661,-3.66 -2.019,0 -3.66,1.64 -3.66,3.66 z"
         style="fill:#e7e6e6;fill-opacity:1;fill-rule:evenodd;stroke:#000000;stroke-width:0.72000003;stroke-linecap:butt;stroke-linejoin:round;stroke-miterlimit:10;stroke-dasharray:none;stroke-opacity:1"
         id="path75064"
         inkscape:connector-curvature="0" /><path
         d="M 105.66,58.739 H 229.141"
         style="fill:none;stroke:#00b0f0;stroke-width:2.27999997;stroke-linecap:butt;stroke-linejoin:round;stroke-miterlimit:10;stroke-dasharray:none;stroke-opacity:1"
         id="path75066"
         inkscape:connector-curvature="0" /><path
         d="m 105.66,58.739 h 65.399"
         style="fill:none;stroke:#00b0f0;stroke-width:2.27999997;stroke-linecap:butt;stroke-linejoin:round;stroke-miterlimit:10;stroke-dasharray:none;stroke-opacity:1"
         id="path75068"
         inkscape:connector-curvature="0" /><path
         d="m 103.98,61.02 125.161,69.122"
         style="fill:none;stroke:#00b0f0;stroke-width:2.27999997;stroke-linecap:butt;stroke-linejoin:round;stroke-miterlimit:10;stroke-dasharray:none;stroke-opacity:1"
         id="path75070"
         inkscape:connector-curvature="0" /><path
         d="M 104.578,55.981 171.781,44.22"
         style="fill:none;stroke:#00b0f0;stroke-width:2.27999997;stroke-linecap:butt;stroke-linejoin:round;stroke-miterlimit:10;stroke-dasharray:none;stroke-opacity:1"
         id="path75072"
         inkscape:connector-curvature="0" /><path
         d="M 98.461,58.739 H 62.102"
         style="fill:none;stroke:#00b0f0;stroke-width:2.27999997;stroke-linecap:butt;stroke-linejoin:round;stroke-miterlimit:10;stroke-dasharray:none;stroke-opacity:1"
         id="path75074"
         inkscape:connector-curvature="0" /><path
         d="m 102.059,62.341 v 65.398"
         style="fill:none;stroke:#00b0f0;stroke-width:2.27999997;stroke-linecap:butt;stroke-linejoin:round;stroke-miterlimit:10;stroke-dasharray:none;stroke-opacity:1"
         id="path75076"
         inkscape:connector-curvature="0" /><path
         d="M 30.18,101.821 55.141,88.142"
         style="fill:none;stroke:#0563c1;stroke-width:2.27999997;stroke-linecap:butt;stroke-linejoin:round;stroke-miterlimit:10;stroke-dasharray:none;stroke-opacity:1"
         id="path75078"
         inkscape:connector-curvature="0" /><path
         d="M 30.18,101.821 H 70.141"
         style="fill:none;stroke:#0563c1;stroke-width:2.27999997;stroke-linecap:butt;stroke-linejoin:round;stroke-miterlimit:10;stroke-dasharray:none;stroke-opacity:1"
         id="path75080"
         inkscape:connector-curvature="0" /><path
         d="m 30.18,101.821 13.441,25.918"
         style="fill:none;stroke:#0563c1;stroke-width:2.27999997;stroke-linecap:butt;stroke-linejoin:round;stroke-miterlimit:10;stroke-dasharray:none;stroke-opacity:1"
         id="path75082"
         inkscape:connector-curvature="0" /><path
         d="m 31.621,99.54 24,-37.199"
         style="fill:none;stroke:#0563c1;stroke-width:2.27999997;stroke-linecap:butt;stroke-linejoin:round;stroke-miterlimit:10;stroke-dasharray:none;stroke-opacity:1"
         id="path75084"
         inkscape:connector-curvature="0" /><path
         d="m 304.379,175.259 h 291 V 0.779 h -291 z"
         style="fill:none;stroke:#000000;stroke-width:1.55999994;stroke-linecap:butt;stroke-linejoin:miter;stroke-miterlimit:8;stroke-dasharray:none;stroke-opacity:1"
         id="path75086"
         inkscape:connector-curvature="0" /><path
         d="M 348.059,131.661 377.16,102.54 362.609,87.981 V 58.86 h 43.653 v 72.801 l -47.293,14.559 z"
         style="fill:#996600;fill-opacity:1;fill-rule:evenodd;stroke:#000000;stroke-width:1.55999994;stroke-linecap:butt;stroke-linejoin:round;stroke-miterlimit:8;stroke-dasharray:none;stroke-opacity:1"
         id="path75088"
         inkscape:connector-curvature="0" /><path
         d="M 478.98,58.88 V 44.341 h 72.719 v 87.238 H 537.16 V 58.88 Z"
         style="fill:#996600;fill-opacity:1;fill-rule:evenodd;stroke:#000000;stroke-width:1.55999994;stroke-linecap:butt;stroke-linejoin:round;stroke-miterlimit:8;stroke-dasharray:none;stroke-opacity:1"
         id="path75090"
         inkscape:connector-curvature="0" /><path
         d="M 348.18,131.919 377.281,102.841 362.73,88.302 V 59.22 h 43.649 v 72.699 l -47.289,14.543 z"
         style="fill:#996600;fill-opacity:1;fill-rule:evenodd;stroke:#0563c1;stroke-width:2.27999997;stroke-linecap:butt;stroke-linejoin:round;stroke-miterlimit:8;stroke-dasharray:none;stroke-opacity:1"
         id="path75092"
         inkscape:connector-curvature="0" /><path
         d="M 478.98,59.239 V 44.7 h 72.719 v 87.238 H 537.16 V 59.239 Z"
         style="fill:#996600;fill-opacity:1;fill-rule:evenodd;stroke:#0563c1;stroke-width:2.27999997;stroke-linecap:butt;stroke-linejoin:round;stroke-miterlimit:8;stroke-dasharray:none;stroke-opacity:1"
         id="path75094"
         inkscape:connector-curvature="0" /><path
         d="m 359.039,59.278 c 0,1.992 1.641,3.602 3.66,3.602 2.02,0 3.66,-1.61 3.66,-3.602 0,-1.988 -1.64,-3.597 -3.66,-3.597 -2.019,0 -3.66,1.609 -3.66,3.597 z"
         style="fill:#e7e6e6;fill-opacity:1;fill-rule:evenodd;stroke:#000000;stroke-width:0.72000003;stroke-linecap:butt;stroke-linejoin:round;stroke-miterlimit:8;stroke-dasharray:none;stroke-opacity:1"
         id="path75096"
         inkscape:connector-curvature="0" /><path
         d="m 402.602,59.278 c 0,1.992 1.636,3.602 3.66,3.602 2.019,0 3.66,-1.61 3.66,-3.602 0,-1.988 -1.641,-3.597 -3.66,-3.597 -2.024,0 -3.66,1.609 -3.66,3.597 z"
         style="fill:#e7e6e6;fill-opacity:1;fill-rule:evenodd;stroke:#000000;stroke-width:0.72000003;stroke-linecap:butt;stroke-linejoin:round;stroke-miterlimit:8;stroke-dasharray:none;stroke-opacity:1"
         id="path75098"
         inkscape:connector-curvature="0" /><path
         d="m 475.32,44.759 c 0,1.992 1.641,3.601 3.66,3.601 2.02,0 3.661,-1.609 3.661,-3.601 0,-1.989 -1.641,-3.598 -3.661,-3.598 -2.019,0 -3.66,1.609 -3.66,3.598 z"
         style="fill:#e7e6e6;fill-opacity:1;fill-rule:evenodd;stroke:#000000;stroke-width:0.72000003;stroke-linecap:butt;stroke-linejoin:round;stroke-miterlimit:8;stroke-dasharray:none;stroke-opacity:1"
         id="path75100"
         inkscape:connector-curvature="0" /><path
         d="m 359.039,88.38 c 0,2.019 1.641,3.66 3.66,3.66 2.02,0 3.66,-1.641 3.66,-3.66 0,-2.02 -1.64,-3.66 -3.66,-3.66 -2.019,0 -3.66,1.64 -3.66,3.66 z"
         style="fill:#e7e6e6;fill-opacity:1;fill-rule:evenodd;stroke:#000000;stroke-width:0.72000003;stroke-linecap:butt;stroke-linejoin:round;stroke-miterlimit:8;stroke-dasharray:none;stroke-opacity:1"
         id="path75102"
         inkscape:connector-curvature="0" /><path
         d="m 344.52,132.001 c 0,1.988 1.609,3.598 3.601,3.598 1.988,0 3.598,-1.61 3.598,-3.598 0,-1.992 -1.61,-3.602 -3.598,-3.602 -1.992,0 -3.601,1.61 -3.601,3.602 z"
         style="fill:#e7e6e6;fill-opacity:1;fill-rule:evenodd;stroke:#000000;stroke-width:0.72000003;stroke-linecap:butt;stroke-linejoin:round;stroke-miterlimit:8;stroke-dasharray:none;stroke-opacity:1"
         id="path75104"
         inkscape:connector-curvature="0" /><path
         d="m 355.441,146.52 c 0,1.989 1.61,3.598 3.598,3.598 1.992,0 3.602,-1.609 3.602,-3.598 0,-1.992 -1.61,-3.601 -3.602,-3.601 -1.988,0 -3.598,1.609 -3.598,3.601 z"
         style="fill:#e7e6e6;fill-opacity:1;fill-rule:evenodd;stroke:#000000;stroke-width:0.72000003;stroke-linecap:butt;stroke-linejoin:round;stroke-miterlimit:8;stroke-dasharray:none;stroke-opacity:1"
         id="path75106"
         inkscape:connector-curvature="0" /><path
         d="m 402.602,132.001 c 0,1.988 1.636,3.598 3.66,3.598 2.019,0 3.66,-1.61 3.66,-3.598 0,-1.992 -1.641,-3.602 -3.66,-3.602 -2.024,0 -3.66,1.61 -3.66,3.602 z"
         style="fill:#e7e6e6;fill-opacity:1;fill-rule:evenodd;stroke:#000000;stroke-width:0.72000003;stroke-linecap:butt;stroke-linejoin:round;stroke-miterlimit:8;stroke-dasharray:none;stroke-opacity:1"
         id="path75108"
         inkscape:connector-curvature="0" /><path
         d="m 533.52,59.278 c 0,1.992 1.609,3.602 3.601,3.602 1.988,0 3.598,-1.61 3.598,-3.602 0,-1.988 -1.61,-3.597 -3.598,-3.597 -1.992,0 -3.601,1.609 -3.601,3.597 z"
         style="fill:#e7e6e6;fill-opacity:1;fill-rule:evenodd;stroke:#000000;stroke-width:0.72000003;stroke-linecap:butt;stroke-linejoin:round;stroke-miterlimit:8;stroke-dasharray:none;stroke-opacity:1"
         id="path75110"
         inkscape:connector-curvature="0" /><path
         d="m 373.559,102.899 c 0,2.02 1.64,3.661 3.66,3.661 2.019,0 3.66,-1.641 3.66,-3.661 0,-2.019 -1.641,-3.66 -3.66,-3.66 -2.02,0 -3.66,1.641 -3.66,3.66 z"
         style="fill:#e7e6e6;fill-opacity:1;fill-rule:evenodd;stroke:#000000;stroke-width:0.72000003;stroke-linecap:butt;stroke-linejoin:round;stroke-miterlimit:8;stroke-dasharray:none;stroke-opacity:1"
         id="path75112"
         inkscape:connector-curvature="0" /><path
         d="m 409.98,59.22 h 65.399"
         style="fill:none;stroke:#0563c1;stroke-width:2.27999997;stroke-linecap:butt;stroke-linejoin:round;stroke-miterlimit:8;stroke-dasharray:none;stroke-opacity:1"
         id="path75114"
         inkscape:connector-curvature="0" /><path
         d="m 408.18,61.501 125.281,69.238"
         style="fill:none;stroke:#0563c1;stroke-width:2.27999997;stroke-linecap:butt;stroke-linejoin:round;stroke-miterlimit:8;stroke-dasharray:none;stroke-opacity:1"
         id="path75116"
         inkscape:connector-curvature="0" /><path
         d="M 408.781,56.462 476.102,44.7"
         style="fill:none;stroke:#0563c1;stroke-width:2.27999997;stroke-linecap:butt;stroke-linejoin:round;stroke-miterlimit:8;stroke-dasharray:none;stroke-opacity:1"
         id="path75118"
         inkscape:connector-curvature="0" /><path
         d="M 402.66,59.22 H 366.422"
         style="fill:none;stroke:#0563c1;stroke-width:2.27999997;stroke-linecap:butt;stroke-linejoin:round;stroke-miterlimit:8;stroke-dasharray:none;stroke-opacity:1"
         id="path75120"
         inkscape:connector-curvature="0" /><path
         d="m 406.379,62.821 v 65.52"
         style="fill:none;stroke:#0563c1;stroke-width:2.27999997;stroke-linecap:butt;stroke-linejoin:round;stroke-miterlimit:8;stroke-dasharray:none;stroke-opacity:1"
         id="path75122"
         inkscape:connector-curvature="0" /><path
         d="M 409.98,59.22 H 533.578"
         style="fill:none;stroke:#0563c1;stroke-width:2.27999997;stroke-linecap:butt;stroke-linejoin:round;stroke-miterlimit:8;stroke-dasharray:none;stroke-opacity:1"
         id="path75124"
         inkscape:connector-curvature="0" /><path
         d="M 409.98,131.938 H 533.578"
         style="fill:none;stroke:#0563c1;stroke-width:2.27999997;stroke-linecap:butt;stroke-linejoin:round;stroke-miterlimit:8;stroke-dasharray:none;stroke-opacity:1"
         id="path75126"
         inkscape:connector-curvature="0" /><path
         d="M 409.98,131.938 534.898,61.501"
         style="fill:none;stroke:#0563c1;stroke-width:2.27999997;stroke-linecap:butt;stroke-linejoin:round;stroke-miterlimit:8;stroke-dasharray:none;stroke-opacity:1"
         id="path75128"
         inkscape:connector-curvature="0" /><path
         d="M 362.699,146.462 533.578,131.938"
         style="fill:none;stroke:#0563c1;stroke-width:2.27999997;stroke-linecap:butt;stroke-linejoin:round;stroke-miterlimit:8;stroke-dasharray:none;stroke-opacity:1"
         id="path75130"
         inkscape:connector-curvature="0" /><path
         d="M 362.699,146.462 548.941,134.22"
         style="fill:none;stroke:#0563c1;stroke-width:2.27999997;stroke-linecap:butt;stroke-linejoin:round;stroke-miterlimit:8;stroke-dasharray:none;stroke-opacity:1"
         id="path75132"
         inkscape:connector-curvature="0" /><path
         d="M 409.98,128.341 477.18,61.02"
         style="fill:none;stroke:#0563c1;stroke-width:2.27999997;stroke-linecap:butt;stroke-linejoin:round;stroke-miterlimit:8;stroke-dasharray:none;stroke-opacity:1"
         id="path75134"
         inkscape:connector-curvature="0" /><path
         d="M 366.422,57.419 474.898,44.341"
         style="fill:none;stroke:#0563c1;stroke-width:2.27999997;stroke-linecap:butt;stroke-linejoin:round;stroke-miterlimit:8;stroke-dasharray:none;stroke-opacity:1"
         id="path75136"
         inkscape:connector-curvature="0" /><path
         d="M 408.66,129.661 476.34,47.462"
         style="fill:none;stroke:#0563c1;stroke-width:2.27999997;stroke-linecap:butt;stroke-linejoin:round;stroke-miterlimit:8;stroke-dasharray:none;stroke-opacity:1"
         id="path75138"
         inkscape:connector-curvature="0" /><path
         d="m 534.422,129.181 -54,-67.2"
         style="fill:none;stroke:#0563c1;stroke-width:2.27999997;stroke-linecap:butt;stroke-linejoin:round;stroke-miterlimit:8;stroke-dasharray:none;stroke-opacity:1"
         id="path75140"
         inkscape:connector-curvature="0" /><path
         d="M 580.738,58.618 553.5,45.06"
         style="fill:none;stroke:#0563c1;stroke-width:2.27999997;stroke-linecap:butt;stroke-linejoin:round;stroke-miterlimit:8;stroke-dasharray:none;stroke-opacity:1"
         id="path75142"
         inkscape:connector-curvature="0" /><path
         d="m 580.738,58.86 -29.039,73.078"
         style="fill:none;stroke:#0563c1;stroke-width:2.27999997;stroke-linecap:butt;stroke-linejoin:round;stroke-miterlimit:8;stroke-dasharray:none;stroke-opacity:1"
         id="path75144"
         inkscape:connector-curvature="0" /><path
         d="m 475.32,59.278 c 0,1.992 1.641,3.602 3.66,3.602 2.02,0 3.661,-1.61 3.661,-3.602 0,-1.988 -1.641,-3.597 -3.661,-3.597 -2.019,0 -3.66,1.609 -3.66,3.597 z"
         style="fill:#e7e6e6;fill-opacity:1;fill-rule:evenodd;stroke:#000000;stroke-width:0.72000003;stroke-linecap:butt;stroke-linejoin:round;stroke-miterlimit:8;stroke-dasharray:none;stroke-opacity:1"
         id="path75146"
         inkscape:connector-curvature="0" /><path
         d="m 548.039,132.001 c 0,1.988 1.609,3.598 3.602,3.598 1.988,0 3.597,-1.61 3.597,-3.598 0,-1.992 -1.609,-3.602 -3.597,-3.602 -1.993,0 -3.602,1.61 -3.602,3.602 z"
         style="fill:#e7e6e6;fill-opacity:1;fill-rule:evenodd;stroke:#000000;stroke-width:0.72000003;stroke-linecap:butt;stroke-linejoin:round;stroke-miterlimit:8;stroke-dasharray:none;stroke-opacity:1"
         id="path75148"
         inkscape:connector-curvature="0" /><path
         d="m 533.52,132.001 c 0,1.988 1.609,3.598 3.601,3.598 1.988,0 3.598,-1.61 3.598,-3.598 0,-1.992 -1.61,-3.602 -3.598,-3.602 -1.992,0 -3.601,1.61 -3.601,3.602 z"
         style="fill:#e7e6e6;fill-opacity:1;fill-rule:evenodd;stroke:#000000;stroke-width:0.72000003;stroke-linecap:butt;stroke-linejoin:round;stroke-miterlimit:8;stroke-dasharray:none;stroke-opacity:1"
         id="path75150"
         inkscape:connector-curvature="0" /><path
         d="M 334.738,101.821 359.699,88.142"
         style="fill:none;stroke:#0563c1;stroke-width:2.27999997;stroke-linecap:butt;stroke-linejoin:round;stroke-miterlimit:8;stroke-dasharray:none;stroke-opacity:1"
         id="path75152"
         inkscape:connector-curvature="0" /><path
         d="m 334.738,101.821 h 39.961"
         style="fill:none;stroke:#0563c1;stroke-width:2.27999997;stroke-linecap:butt;stroke-linejoin:round;stroke-miterlimit:8;stroke-dasharray:none;stroke-opacity:1"
         id="path75154"
         inkscape:connector-curvature="0" /><path
         d="m 334.738,101.821 13.442,25.918"
         style="fill:none;stroke:#0563c1;stroke-width:2.27999997;stroke-linecap:butt;stroke-linejoin:round;stroke-miterlimit:8;stroke-dasharray:none;stroke-opacity:1"
         id="path75156"
         inkscape:connector-curvature="0" /><path
         d="M 336.301,99.54 359.699,61.618"
         style="fill:none;stroke:#0563c1;stroke-width:2.27999997;stroke-linecap:butt;stroke-linejoin:round;stroke-miterlimit:8;stroke-dasharray:none;stroke-opacity:1"
         id="path75158"
         inkscape:connector-curvature="0" /><path
         d="m 548.039,44.759 c 0,1.992 1.609,3.601 3.602,3.601 1.988,0 3.597,-1.609 3.597,-3.601 0,-1.989 -1.609,-3.598 -3.597,-3.598 -1.993,0 -3.602,1.609 -3.602,3.598 z"
         style="fill:#e7e6e6;fill-opacity:1;fill-rule:evenodd;stroke:#000000;stroke-width:0.72000003;stroke-linecap:butt;stroke-linejoin:round;stroke-miterlimit:8;stroke-dasharray:none;stroke-opacity:1"
         id="path75160"
         inkscape:connector-curvature="0" /><path
         d="m 26.16,102.599 c 0,1.992 1.641,3.601 3.66,3.601 2.02,0 3.66,-1.609 3.66,-3.601 0,-1.989 -1.64,-3.598 -3.66,-3.598 -2.019,0 -3.66,1.609 -3.66,3.598 z"
         style="fill:#45d628;fill-opacity:1;fill-rule:evenodd;stroke:#45d628;stroke-width:0.72000003;stroke-linecap:butt;stroke-linejoin:round;stroke-miterlimit:8;stroke-dasharray:none;stroke-opacity:1"
         id="path75162"
         inkscape:connector-curvature="0" /><path
         d="m 273.48,58.981 c 0,2.02 1.61,3.661 3.598,3.661 1.992,0 3.602,-1.641 3.602,-3.661 0,-2.019 -1.61,-3.66 -3.602,-3.66 -1.988,0 -3.598,1.641 -3.598,3.66 z"
         style="fill:#f81706;fill-opacity:1;fill-rule:evenodd;stroke:#f81706;stroke-width:0.72000003;stroke-linecap:butt;stroke-linejoin:round;stroke-miterlimit:8;stroke-dasharray:none;stroke-opacity:1"
         id="path75164"
         inkscape:connector-curvature="0" /><path
         d="m 331.199,102.599 c 0,1.992 1.641,3.601 3.66,3.601 2.02,0 3.661,-1.609 3.661,-3.601 0,-1.989 -1.641,-3.598 -3.661,-3.598 -2.019,0 -3.66,1.609 -3.66,3.598 z"
         style="fill:#45d628;fill-opacity:1;fill-rule:evenodd;stroke:#45d628;stroke-width:0.72000003;stroke-linecap:butt;stroke-linejoin:round;stroke-miterlimit:8;stroke-dasharray:none;stroke-opacity:1"
         id="path75166"
         inkscape:connector-curvature="0" /><path
         d="m 576.121,58.981 c 0,2.02 1.609,3.661 3.598,3.661 1.992,0 3.601,-1.641 3.601,-3.661 0,-2.019 -1.609,-3.66 -3.601,-3.66 -1.989,0 -3.598,1.641 -3.598,3.66 z"
         style="fill:#f81706;fill-opacity:1;fill-rule:evenodd;stroke:#f81706;stroke-width:0.72000003;stroke-linecap:butt;stroke-linejoin:round;stroke-miterlimit:8;stroke-dasharray:none;stroke-opacity:1"
         id="path75168"
         inkscape:connector-curvature="0" /><path
         d="M 607.859,175.259 H 898.738 V 0.779 H 607.859 Z"
         style="fill:none;stroke:#000000;stroke-width:1.55999994;stroke-linecap:butt;stroke-linejoin:miter;stroke-miterlimit:8;stroke-dasharray:none;stroke-opacity:1"
         id="path75170"
         inkscape:connector-curvature="0" /><path
         d="M 651.539,131.661 680.641,102.54 666.09,87.981 V 58.86 h 43.648 v 72.801 l -47.289,14.559 z"
         style="fill:#996600;fill-opacity:1;fill-rule:evenodd;stroke:#000000;stroke-width:1.55999994;stroke-linecap:butt;stroke-linejoin:round;stroke-miterlimit:8;stroke-dasharray:none;stroke-opacity:1"
         id="path75172"
         inkscape:connector-curvature="0" /><path
         d="M 782.461,58.88 V 44.341 h 72.719 v 87.238 H 840.641 V 58.88 Z"
         style="fill:#996600;fill-opacity:1;fill-rule:evenodd;stroke:#000000;stroke-width:1.55999994;stroke-linecap:butt;stroke-linejoin:round;stroke-miterlimit:8;stroke-dasharray:none;stroke-opacity:1"
         id="path75174"
         inkscape:connector-curvature="0" /><path
         d="M 651.66,131.919 680.762,102.841 666.211,88.302 V 59.22 h 43.648 v 72.699 l -47.289,14.543 z"
         style="fill:#996600;fill-opacity:1;fill-rule:evenodd;stroke:#000000;stroke-width:1.55999994;stroke-linecap:butt;stroke-linejoin:round;stroke-miterlimit:8;stroke-dasharray:none;stroke-opacity:1"
         id="path75176"
         inkscape:connector-curvature="0" /><path
         d="M 782.461,59.239 V 44.7 h 72.719 v 87.238 H 840.641 V 59.239 Z"
         style="fill:#996600;fill-opacity:1;fill-rule:evenodd;stroke:#000000;stroke-width:1.55999994;stroke-linecap:butt;stroke-linejoin:round;stroke-miterlimit:8;stroke-dasharray:none;stroke-opacity:1"
         id="path75178"
         inkscape:connector-curvature="0" /><path
         d="m 706.078,59.278 c 0,1.992 1.641,3.602 3.66,3.602 2.024,0 3.66,-1.61 3.66,-3.602 0,-1.988 -1.636,-3.597 -3.66,-3.597 -2.019,0 -3.66,1.609 -3.66,3.597 z"
         style="fill:#e7e6e6;fill-opacity:1;fill-rule:evenodd;stroke:#000000;stroke-width:0.72000003;stroke-linecap:butt;stroke-linejoin:round;stroke-miterlimit:8;stroke-dasharray:none;stroke-opacity:1"
         id="path75180"
         inkscape:connector-curvature="0" /><path
         d="m 662.52,88.38 c 0,2.019 1.609,3.66 3.601,3.66 1.988,0 3.598,-1.641 3.598,-3.66 0,-2.02 -1.61,-3.66 -3.598,-3.66 -1.992,0 -3.601,1.64 -3.601,3.66 z"
         style="fill:#e7e6e6;fill-opacity:1;fill-rule:evenodd;stroke:#000000;stroke-width:0.72000003;stroke-linecap:butt;stroke-linejoin:round;stroke-miterlimit:8;stroke-dasharray:none;stroke-opacity:1"
         id="path75182"
         inkscape:connector-curvature="0" /><path
         d="m 648,132.001 c 0,1.988 1.609,3.598 3.602,3.598 1.988,0 3.597,-1.61 3.597,-3.598 0,-1.992 -1.609,-3.602 -3.597,-3.602 -1.993,0 -3.602,1.61 -3.602,3.602 z"
         style="fill:#e7e6e6;fill-opacity:1;fill-rule:evenodd;stroke:#000000;stroke-width:0.72000003;stroke-linecap:butt;stroke-linejoin:round;stroke-miterlimit:8;stroke-dasharray:none;stroke-opacity:1"
         id="path75184"
         inkscape:connector-curvature="0" /><path
         d="m 658.922,146.52 c 0,1.989 1.609,3.598 3.598,3.598 1.992,0 3.601,-1.609 3.601,-3.598 0,-1.992 -1.609,-3.601 -3.601,-3.601 -1.989,0 -3.598,1.609 -3.598,3.601 z"
         style="fill:#e7e6e6;fill-opacity:1;fill-rule:evenodd;stroke:#000000;stroke-width:0.72000003;stroke-linecap:butt;stroke-linejoin:round;stroke-miterlimit:8;stroke-dasharray:none;stroke-opacity:1"
         id="path75186"
         inkscape:connector-curvature="0" /><path
         d="m 706.078,132.001 c 0,1.988 1.641,3.598 3.66,3.598 2.024,0 3.66,-1.61 3.66,-3.598 0,-1.992 -1.636,-3.602 -3.66,-3.602 -2.019,0 -3.66,1.61 -3.66,3.602 z"
         style="fill:#e7e6e6;fill-opacity:1;fill-rule:evenodd;stroke:#000000;stroke-width:0.72000003;stroke-linecap:butt;stroke-linejoin:round;stroke-miterlimit:8;stroke-dasharray:none;stroke-opacity:1"
         id="path75188"
         inkscape:connector-curvature="0" /><path
         d="m 836.879,59.278 c 0,1.992 1.641,3.602 3.66,3.602 2.02,0 3.66,-1.61 3.66,-3.602 0,-1.988 -1.64,-3.597 -3.66,-3.597 -2.019,0 -3.66,1.609 -3.66,3.597 z"
         style="fill:#e7e6e6;fill-opacity:1;fill-rule:evenodd;stroke:#000000;stroke-width:0.72000003;stroke-linecap:butt;stroke-linejoin:round;stroke-miterlimit:8;stroke-dasharray:none;stroke-opacity:1"
         id="path75190"
         inkscape:connector-curvature="0" /><path
         d="m 677.039,102.899 c 0,2.02 1.641,3.661 3.66,3.661 2.02,0 3.66,-1.641 3.66,-3.661 0,-2.019 -1.64,-3.66 -3.66,-3.66 -2.019,0 -3.66,1.641 -3.66,3.66 z"
         style="fill:#e7e6e6;fill-opacity:1;fill-rule:evenodd;stroke:#000000;stroke-width:0.72000003;stroke-linecap:butt;stroke-linejoin:round;stroke-miterlimit:8;stroke-dasharray:none;stroke-opacity:1"
         id="path75192"
         inkscape:connector-curvature="0" /><path
         d="m 713.398,59.278 h 65.403"
         style="fill:none;stroke:#7f7f7f;stroke-width:0.95999998;stroke-linecap:butt;stroke-linejoin:round;stroke-miterlimit:8;stroke-dasharray:none;stroke-opacity:1"
         id="path75194"
         inkscape:connector-curvature="0" /><path
         d="m 711.602,61.56 125.277,69.242"
         style="fill:none;stroke:#7f7f7f;stroke-width:0.95999998;stroke-linecap:butt;stroke-linejoin:round;stroke-miterlimit:8;stroke-dasharray:none;stroke-opacity:1"
         id="path75196"
         inkscape:connector-curvature="0" /><path
         d="M 712.199,56.52 779.52,44.759"
         style="fill:none;stroke:#7f7f7f;stroke-width:0.95999998;stroke-linecap:butt;stroke-linejoin:round;stroke-miterlimit:8;stroke-dasharray:none;stroke-opacity:1"
         id="path75198"
         inkscape:connector-curvature="0" /><path
         d="M 706.078,59.278 H 669.719"
         style="fill:none;stroke:#7f7f7f;stroke-width:0.95999998;stroke-linecap:butt;stroke-linejoin:round;stroke-miterlimit:8;stroke-dasharray:none;stroke-opacity:1"
         id="path75200"
         inkscape:connector-curvature="0" /><path
         d="m 709.801,62.88 v 65.519"
         style="fill:none;stroke:#7f7f7f;stroke-width:0.95999998;stroke-linecap:butt;stroke-linejoin:round;stroke-miterlimit:8;stroke-dasharray:none;stroke-opacity:1"
         id="path75202"
         inkscape:connector-curvature="0" /><path
         d="M 713.398,59.278 H 836.879"
         style="fill:none;stroke:#7f7f7f;stroke-width:0.95999998;stroke-linecap:butt;stroke-linejoin:round;stroke-miterlimit:8;stroke-dasharray:none;stroke-opacity:1"
         id="path75204"
         inkscape:connector-curvature="0" /><path
         d="M 713.398,132.001 H 836.879"
         style="fill:none;stroke:#7f7f7f;stroke-width:0.95999998;stroke-linecap:butt;stroke-linejoin:round;stroke-miterlimit:8;stroke-dasharray:none;stroke-opacity:1"
         id="path75206"
         inkscape:connector-curvature="0" /><path
         d="M 713.398,132.001 838.32,61.56"
         style="fill:none;stroke:#7f7f7f;stroke-width:0.95999998;stroke-linecap:butt;stroke-linejoin:round;stroke-miterlimit:8;stroke-dasharray:none;stroke-opacity:1"
         id="path75208"
         inkscape:connector-curvature="0" /><path
         d="M 666.121,146.52 836.879,132.001"
         style="fill:none;stroke:#7f7f7f;stroke-width:0.95999998;stroke-linecap:butt;stroke-linejoin:round;stroke-miterlimit:8;stroke-dasharray:none;stroke-opacity:1"
         id="path75210"
         inkscape:connector-curvature="0" /><path
         d="M 666.121,146.52 852.359,134.278"
         style="fill:none;stroke:#7f7f7f;stroke-width:0.95999998;stroke-linecap:butt;stroke-linejoin:round;stroke-miterlimit:8;stroke-dasharray:none;stroke-opacity:1"
         id="path75212"
         inkscape:connector-curvature="0" /><path
         d="M 713.398,128.399 780.121,62.52"
         style="fill:none;stroke:#7f7f7f;stroke-width:0.95999998;stroke-linecap:butt;stroke-linejoin:round;stroke-miterlimit:8;stroke-dasharray:none;stroke-opacity:1"
         id="path75214"
         inkscape:connector-curvature="0" /><path
         d="M 669.781,57.419 779.578,44.341"
         style="fill:none;stroke:#0563c1;stroke-width:3;stroke-linecap:butt;stroke-linejoin:round;stroke-miterlimit:8;stroke-dasharray:none;stroke-opacity:1"
         id="path75216"
         inkscape:connector-curvature="0" /><path
         d="m 711.961,129.72 67.68,-82.2"
         style="fill:none;stroke:#7f7f7f;stroke-width:0.95999998;stroke-linecap:butt;stroke-linejoin:round;stroke-miterlimit:8;stroke-dasharray:none;stroke-opacity:1"
         id="path75218"
         inkscape:connector-curvature="0" /><path
         d="m 837.84,129.239 -54,-67.199"
         style="fill:none;stroke:#7f7f7f;stroke-width:0.95999998;stroke-linecap:butt;stroke-linejoin:round;stroke-miterlimit:8;stroke-dasharray:none;stroke-opacity:1"
         id="path75220"
         inkscape:connector-curvature="0" /><path
         d="M 884.219,58.618 856.98,45.06"
         style="fill:none;stroke:#0563c1;stroke-width:3;stroke-linecap:butt;stroke-linejoin:round;stroke-miterlimit:8;stroke-dasharray:none;stroke-opacity:1"
         id="path75222"
         inkscape:connector-curvature="0" /><path
         d="m 884.16,58.919 -29.039,73.082"
         style="fill:none;stroke:#7f7f7f;stroke-width:0.95999998;stroke-linecap:butt;stroke-linejoin:round;stroke-miterlimit:8;stroke-dasharray:none;stroke-opacity:1"
         id="path75224"
         inkscape:connector-curvature="0" /><path
         d="m 778.801,59.278 c 0,1.992 1.609,3.602 3.597,3.602 1.993,0 3.602,-1.61 3.602,-3.602 0,-1.988 -1.609,-3.597 -3.602,-3.597 -1.988,0 -3.597,1.609 -3.597,3.597 z"
         style="fill:#e7e6e6;fill-opacity:1;fill-rule:evenodd;stroke:#000000;stroke-width:0.72000003;stroke-linecap:butt;stroke-linejoin:round;stroke-miterlimit:8;stroke-dasharray:none;stroke-opacity:1"
         id="path75226"
         inkscape:connector-curvature="0" /><path
         d="m 851.52,132.001 c 0,1.988 1.609,3.598 3.601,3.598 1.988,0 3.598,-1.61 3.598,-3.598 0,-1.992 -1.61,-3.602 -3.598,-3.602 -1.992,0 -3.601,1.61 -3.601,3.602 z"
         style="fill:#e7e6e6;fill-opacity:1;fill-rule:evenodd;stroke:#000000;stroke-width:0.72000003;stroke-linecap:butt;stroke-linejoin:round;stroke-miterlimit:8;stroke-dasharray:none;stroke-opacity:1"
         id="path75228"
         inkscape:connector-curvature="0" /><path
         d="m 836.879,132.001 c 0,1.988 1.641,3.598 3.66,3.598 2.02,0 3.66,-1.61 3.66,-3.598 0,-1.992 -1.64,-3.602 -3.66,-3.602 -2.019,0 -3.66,1.61 -3.66,3.602 z"
         style="fill:#e7e6e6;fill-opacity:1;fill-rule:evenodd;stroke:#000000;stroke-width:0.72000003;stroke-linecap:butt;stroke-linejoin:round;stroke-miterlimit:8;stroke-dasharray:none;stroke-opacity:1"
         id="path75230"
         inkscape:connector-curvature="0" /><path
         d="M 638.16,101.88 663.121,88.2"
         style="fill:none;stroke:#7f7f7f;stroke-width:0.95999998;stroke-linecap:butt;stroke-linejoin:round;stroke-miterlimit:8;stroke-dasharray:none;stroke-opacity:1"
         id="path75232"
         inkscape:connector-curvature="0" /><path
         d="m 638.16,101.88 h 39.961"
         style="fill:none;stroke:#7f7f7f;stroke-width:0.95999998;stroke-linecap:butt;stroke-linejoin:round;stroke-miterlimit:8;stroke-dasharray:none;stroke-opacity:1"
         id="path75234"
         inkscape:connector-curvature="0" /><path
         d="m 638.16,101.88 13.442,25.922"
         style="fill:none;stroke:#7f7f7f;stroke-width:0.95999998;stroke-linecap:butt;stroke-linejoin:round;stroke-miterlimit:8;stroke-dasharray:none;stroke-opacity:1"
         id="path75236"
         inkscape:connector-curvature="0" /><path
         d="m 639.781,99.54 24.84,-38.52"
         style="fill:none;stroke:#0563c1;stroke-width:3;stroke-linecap:butt;stroke-linejoin:round;stroke-miterlimit:8;stroke-dasharray:none;stroke-opacity:1"
         id="path75238"
         inkscape:connector-curvature="0" /><path
         d="m 851.52,44.759 c 0,1.992 1.609,3.601 3.601,3.601 1.988,0 3.598,-1.609 3.598,-3.601 0,-1.989 -1.61,-3.598 -3.598,-3.598 -1.992,0 -3.601,1.609 -3.601,3.598 z"
         style="fill:#7f7f7f;fill-opacity:1;fill-rule:evenodd;stroke:#000000;stroke-width:0.72000003;stroke-linecap:butt;stroke-linejoin:round;stroke-miterlimit:8;stroke-dasharray:none;stroke-opacity:1"
         id="path75240"
         inkscape:connector-curvature="0" /><path
         d="m 634.68,102.599 c 0,1.992 1.64,3.601 3.66,3.601 2.019,0 3.66,-1.609 3.66,-3.601 0,-1.989 -1.641,-3.598 -3.66,-3.598 -2.02,0 -3.66,1.609 -3.66,3.598 z"
         style="fill:#45d628;fill-opacity:1;fill-rule:evenodd;stroke:#45d628;stroke-width:0.72000003;stroke-linecap:butt;stroke-linejoin:round;stroke-miterlimit:8;stroke-dasharray:none;stroke-opacity:1"
         id="path75242"
         inkscape:connector-curvature="0" /><path
         d="m 879.602,58.981 c 0,2.02 1.609,3.661 3.597,3.661 1.992,0 3.602,-1.641 3.602,-3.661 0,-2.019 -1.61,-3.66 -3.602,-3.66 -1.988,0 -3.597,1.641 -3.597,3.66 z"
         style="fill:#f81706;fill-opacity:1;fill-rule:evenodd;stroke:#f81706;stroke-width:0.72000003;stroke-linecap:butt;stroke-linejoin:round;stroke-miterlimit:8;stroke-dasharray:none;stroke-opacity:1"
         id="path75244"
         inkscape:connector-curvature="0" /><path
         d="M 786.059,44.7 H 851.48"
         style="fill:none;stroke:#0070c0;stroke-width:3;stroke-linecap:butt;stroke-linejoin:miter;stroke-miterlimit:8;stroke-dasharray:none;stroke-opacity:1"
         id="path75246"
         inkscape:connector-curvature="0" /><path
         d="m 778.801,44.759 c 0,1.992 1.609,3.601 3.597,3.601 1.993,0 3.602,-1.609 3.602,-3.601 0,-1.989 -1.609,-3.598 -3.602,-3.598 -1.988,0 -3.597,1.609 -3.597,3.598 z"
         style="fill:#7f7f7f;fill-opacity:1;fill-rule:evenodd;stroke:#000000;stroke-width:0.72000003;stroke-linecap:butt;stroke-linejoin:round;stroke-miterlimit:8;stroke-dasharray:none;stroke-opacity:1"
         id="path75248"
         inkscape:connector-curvature="0" /><path
         d="m 662.52,59.278 c 0,1.992 1.609,3.602 3.601,3.602 1.988,0 3.598,-1.61 3.598,-3.602 0,-1.988 -1.61,-3.597 -3.598,-3.597 -1.992,0 -3.601,1.609 -3.601,3.597 z"
         style="fill:#7f7f7f;fill-opacity:1;fill-rule:evenodd;stroke:#000000;stroke-width:0.72000003;stroke-linecap:butt;stroke-linejoin:round;stroke-miterlimit:8;stroke-dasharray:none;stroke-opacity:1"
         id="path75250"
         inkscape:connector-curvature="0" /></g></g></svg>